<?xml version="1.0" encoding="UTF-8" standalone="no"?>
<!DOCTYPE svg PUBLIC "-//W3C//DTD SVG 20010904//EN"
              "http://www.w3.org/TR/2001/REC-SVG-20010904/DTD/svg10.dtd">

<svg xmlns="http://www.w3.org/2000/svg"
     width="563.065mm" height="647.869mm"
     viewBox="0 0 1308 1505">
  <path id="Tubo"
        fill="none" stroke="black" stroke-width="1"
        d="M 504.00,1324.00
           C 504.00,1324.00 520.00,1324.94 520.00,1324.94
             522.11,1324.76 524.56,1324.37 525.01,1321.85
             525.89,1317.00 516.66,1309.23 520.18,1302.00
             523.14,1295.91 534.08,1289.26 533.75,1282.02
             533.46,1275.56 526.33,1276.80 524.91,1272.75
             523.59,1268.98 527.81,1263.09 524.26,1258.33
             521.13,1254.11 514.35,1253.86 515.56,1247.98
             516.04,1245.67 518.49,1242.35 519.59,1240.00
             520.74,1237.54 521.05,1235.32 522.58,1233.00
             525.96,1227.90 539.68,1216.31 545.00,1211.00
             545.00,1211.00 559.00,1197.96 559.00,1197.96
             559.00,1197.96 602.00,1157.09 602.00,1157.09
             602.00,1157.09 625.00,1135.96 625.00,1135.96
             625.00,1135.96 641.00,1120.96 641.00,1120.96
             649.75,1112.59 652.23,1107.02 665.00,1107.00
             665.00,1107.00 729.00,1107.00 729.00,1107.00
             729.00,1107.00 746.00,1106.00 746.00,1106.00
             746.00,1106.00 827.00,1106.00 827.00,1106.00
             827.00,1106.00 842.00,1105.00 842.00,1105.00
             842.00,1105.00 941.00,1105.00 941.00,1105.00
             941.00,1105.00 912.31,1155.00 912.31,1155.00
             902.17,1173.73 896.65,1188.77 888.58,1208.00
             888.58,1208.00 875.91,1236.00 875.91,1236.00
             871.46,1247.82 870.02,1274.87 870.00,1288.00
             869.98,1301.81 865.63,1311.16 857.35,1322.00
             854.51,1325.71 851.89,1329.24 847.99,1331.90
             843.52,1334.94 837.23,1337.28 832.00,1338.62
             825.83,1340.21 816.31,1341.92 810.00,1342.00
             810.00,1342.00 795.00,1342.00 795.00,1342.00
             795.00,1342.00 760.00,1339.00 760.00,1339.00
             760.00,1339.00 726.00,1339.00 726.00,1339.00
             713.49,1339.02 701.96,1340.11 693.18,1350.00
             685.48,1358.69 681.86,1375.60 671.00,1379.99
             668.14,1381.15 665.03,1381.00 662.00,1381.00
             662.00,1381.00 651.00,1381.00 651.00,1381.00
             651.00,1381.00 611.00,1384.00 611.00,1384.00
             611.00,1384.00 601.00,1384.00 601.00,1384.00
             601.00,1384.00 565.00,1380.18 565.00,1380.18
             559.44,1379.79 555.21,1382.03 551.00,1381.59
             543.11,1380.75 528.46,1368.29 525.73,1361.00
             523.66,1355.46 525.37,1345.96 521.01,1339.00
             516.43,1331.71 509.93,1331.54 504.00,1324.00 Z" />
  <path id="San Quintin"
        fill="none" stroke="black" stroke-width="1"
        d="M 245.00,757.00
           C 258.26,754.62 258.94,757.00 270.00,757.00
             270.00,757.00 284.00,756.00 284.00,756.00
             284.00,756.00 304.00,756.00 304.00,756.00
             308.21,756.02 312.82,755.55 314.74,760.12
             317.25,766.09 316.33,777.46 313.05,782.98
             308.10,791.33 301.25,789.96 306.67,797.04
             306.67,797.04 326.82,818.96 326.82,818.96
             326.82,818.96 358.87,858.00 358.87,858.00
             363.64,864.36 372.72,874.86 375.00,882.00
             368.24,880.24 366.38,879.09 359.00,879.00
             353.32,878.94 347.25,879.56 342.00,876.90
             335.16,873.44 329.85,863.98 323.00,858.33
             315.72,852.32 306.14,851.01 297.00,851.00
             283.40,850.98 274.82,849.70 263.00,858.04
             252.95,865.14 250.25,872.79 245.00,874.31
             242.47,875.04 239.54,873.73 237.00,873.16
             237.00,873.16 227.00,873.16 227.00,873.16
             213.29,872.81 212.88,859.69 213.00,849.00
             213.13,837.84 216.22,812.49 221.41,803.00
             225.51,795.53 232.89,793.39 237.47,787.91
             243.81,780.32 245.00,766.57 245.00,757.00 Z" />
  <path id="Boliney"
        fill="none" stroke="black" stroke-width="1"
        d="M 985.00,1021.00
           C 980.97,1035.26 961.56,1070.22 953.40,1084.00
             951.21,1087.69 945.02,1099.95 941.67,1101.43
             940.07,1102.14 936.81,1102.00 935.00,1102.00
             935.00,1102.00 918.00,1102.00 918.00,1102.00
             918.00,1102.00 902.00,1103.00 902.00,1103.00
             902.00,1103.00 809.00,1103.00 809.00,1103.00
             809.00,1103.00 794.00,1104.00 794.00,1104.00
             794.00,1104.00 716.00,1104.00 716.00,1104.00
             716.00,1104.00 701.00,1105.00 701.00,1105.00
             701.00,1105.00 665.00,1105.00 665.00,1105.00
             662.70,1105.00 658.59,1105.38 657.02,1103.40
             655.67,1101.70 655.11,1090.76 654.83,1088.00
             654.83,1088.00 652.00,1049.00 652.00,1049.00
             652.00,1049.00 651.00,1036.00 651.00,1036.00
             651.00,1036.00 649.91,1013.00 649.91,1013.00
             649.91,1013.00 649.06,1003.00 649.06,1003.00
             649.06,1003.00 649.06,999.00 649.06,999.00
             649.06,999.00 649.06,993.00 649.06,993.00
             650.05,986.85 652.99,986.51 658.00,989.04
             661.54,990.83 674.06,998.62 677.23,997.80
             682.46,996.46 679.89,990.69 686.06,988.86
             688.74,988.06 700.84,987.02 704.00,987.00
             704.00,987.00 741.00,987.00 741.00,987.00
             741.00,987.00 758.00,988.00 758.00,988.00
             758.00,988.00 847.00,988.00 847.00,988.00
             857.33,988.12 873.61,991.19 884.00,993.20
             907.65,997.76 931.00,1003.88 954.00,1011.02
             954.00,1011.02 985.00,1021.00 985.00,1021.00 Z" />
  <path id="Manabo"
        fill="none" stroke="black" stroke-width="1"
        d="M 651.00,1068.00
           C 634.50,1070.18 619.59,1070.19 603.00,1070.00
             590.63,1069.85 570.31,1066.35 560.00,1059.48
             551.42,1053.75 538.59,1036.03 532.70,1027.00
             532.70,1027.00 518.67,1005.00 518.67,1005.00
             513.44,997.16 507.68,989.35 505.50,980.00
             503.00,969.27 506.82,966.35 510.14,957.00
             514.65,944.31 516.37,929.12 532.00,925.53
             535.15,924.80 541.55,924.96 545.00,925.00
             545.00,925.00 560.00,926.72 560.00,926.72
             572.52,928.37 586.68,929.11 599.00,926.00
             601.40,929.07 603.06,931.30 607.00,932.43
             612.95,934.14 622.20,930.51 628.01,939.09
             630.36,942.56 631.68,947.15 629.26,950.91
             627.09,954.28 622.34,956.20 623.91,960.99
             624.90,963.99 628.64,966.92 631.00,968.92
             634.74,972.08 645.12,981.01 646.97,985.00
             648.12,987.58 647.04,992.84 646.97,996.00
             646.97,996.00 648.09,1024.00 648.09,1024.00
             648.09,1024.00 649.00,1036.00 649.00,1036.00
             649.00,1036.00 651.00,1068.00 651.00,1068.00 Z" />
  <path id="Luba"
        fill="none" stroke="black" stroke-width="1"
        d="M 434.00,1159.00
           C 443.46,1153.47 450.82,1135.86 455.75,1126.00
             468.16,1101.18 481.44,1072.87 498.42,1051.00
             503.82,1044.05 516.50,1030.13 525.00,1027.71
             531.52,1025.86 534.39,1032.66 537.44,1037.00
             543.28,1045.32 553.19,1058.37 562.00,1063.20
             573.98,1069.77 588.63,1071.15 602.00,1072.09
             602.00,1072.09 612.00,1073.00 612.00,1073.00
             612.00,1073.00 651.00,1071.00 651.00,1071.00
             651.00,1071.00 653.83,1100.00 653.83,1100.00
             654.42,1107.74 649.24,1110.66 644.00,1115.28
             644.00,1115.28 623.00,1135.00 623.00,1135.00
             623.00,1135.00 596.00,1160.09 596.00,1160.09
             596.00,1160.09 562.00,1192.09 562.00,1192.09
             562.00,1192.09 520.00,1231.00 520.00,1231.00
             506.34,1217.35 492.54,1209.03 476.00,1199.42
             464.48,1192.74 448.51,1184.79 440.79,1174.00
             437.29,1169.12 435.86,1164.57 434.00,1159.00 Z" />
  <path id="Pilar"
        fill="none" stroke="black" stroke-width="1"
        d="M 376.00,946.00
           C 376.00,946.00 405.00,951.61 405.00,951.61
             424.02,955.21 422.01,957.27 442.91,956.32
             453.87,955.81 454.15,967.76 453.97,976.00
             453.75,986.54 449.02,1002.68 445.69,1012.91
             445.69,1012.91 438.93,1032.92 438.93,1032.92
             438.93,1032.92 430.35,1049.00 430.35,1049.00
             426.84,1056.81 428.68,1063.51 425.56,1068.90
             422.08,1074.90 415.09,1074.04 409.75,1076.29
             401.32,1079.86 399.84,1086.74 400.01,1095.00
             400.19,1103.35 401.61,1103.60 399.46,1113.11
             398.44,1117.58 395.36,1124.46 395.36,1129.00
             395.36,1132.26 398.54,1140.97 396.89,1143.40
             395.67,1145.19 391.06,1145.23 389.00,1145.46
             389.00,1145.46 364.00,1147.00 364.00,1147.00
             359.99,1146.96 353.60,1146.74 350.01,1145.07
             344.85,1142.67 341.67,1137.03 339.47,1132.01
             339.47,1132.01 328.65,1099.00 328.65,1099.00
             323.68,1089.98 312.46,1082.93 312.05,1071.96
             311.34,1052.54 331.11,1034.25 341.56,1019.00
             351.58,1004.40 362.34,982.48 368.91,966.00
             368.91,966.00 376.00,946.00 376.00,946.00 Z" />
  <path id="Villaviciosa"
        fill="none" stroke="black" stroke-width="1"
        d="M 445.00,954.00
           C 445.00,954.00 441.45,940.00 441.45,940.00
             441.45,940.00 441.45,924.00 441.45,924.00
             441.13,919.93 437.89,911.39 439.49,908.25
             441.41,904.47 452.94,903.78 457.00,903.28
             468.42,901.90 488.69,902.22 500.00,904.21
             504.02,904.91 510.27,905.62 513.78,907.64
             517.86,909.99 517.05,914.12 518.12,918.00
             519.09,921.51 520.34,922.72 523.00,925.00
             520.42,930.48 517.55,931.97 515.03,937.00
             510.66,945.73 510.62,950.97 508.24,957.00
             504.55,966.36 500.36,969.08 503.47,981.00
             505.85,990.12 513.48,1001.24 518.97,1009.04
             521.12,1012.10 526.54,1018.25 526.35,1021.96
             526.10,1026.65 519.33,1028.52 516.00,1030.66
             510.03,1034.49 501.95,1043.41 497.50,1049.08
             480.57,1070.68 467.51,1097.46 455.25,1122.00
             450.16,1132.18 442.84,1151.60 433.00,1157.00
             431.15,1153.53 428.15,1149.05 424.83,1146.85
             419.41,1143.28 405.34,1144.16 399.00,1145.00
             400.49,1137.42 397.06,1133.83 397.63,1127.00
             397.63,1127.00 401.82,1112.00 401.82,1112.00
             402.63,1107.12 402.07,1101.00 401.82,1096.00
             401.93,1088.77 402.78,1081.92 410.00,1078.17
             415.06,1075.55 422.24,1077.79 427.26,1069.98
             430.24,1065.36 429.02,1058.08 432.31,1050.00
             432.31,1050.00 441.53,1031.00 441.53,1031.00
             441.53,1031.00 445.58,1019.00 445.58,1019.00
             449.94,1006.30 453.31,995.98 455.31,982.58
             456.37,975.47 456.72,961.55 450.78,956.51
             448.92,954.93 447.25,954.59 445.00,954.00 Z" />
  <path id="San Isidro"
        fill="none" stroke="black" stroke-width="1"
        d="M 377.00,884.00
           C 384.20,880.83 387.80,880.13 393.54,873.83
             398.48,868.41 403.36,858.71 411.00,856.69
             419.51,854.44 426.74,865.62 439.00,866.92
             439.00,866.92 457.00,868.17 457.00,868.17
             457.00,868.17 503.00,872.00 503.00,872.00
             505.10,872.01 507.97,871.93 509.91,872.74
             520.72,877.25 515.57,896.66 514.00,905.00
             499.31,901.69 487.11,899.98 472.00,900.00
             472.00,900.00 459.00,900.98 459.00,900.98
             453.62,901.34 440.91,902.43 437.78,907.14
             434.80,911.62 439.29,916.12 439.47,924.00
             439.47,924.00 439.47,941.00 439.47,941.00
             439.47,941.00 443.00,954.00 443.00,954.00
             443.00,954.00 432.00,954.79 432.00,954.79
             432.00,954.79 398.00,948.00 398.00,948.00
             398.00,948.00 376.00,944.00 376.00,944.00
             378.92,932.43 378.68,923.56 379.20,912.00
             379.75,899.94 381.66,896.13 377.00,884.00 Z" />
  <path id="Pidigan"
        fill="none" stroke="black" stroke-width="1"
        d="M 306.00,792.00
           C 313.76,786.71 319.22,779.95 318.62,770.00
             318.62,770.00 315.88,755.00 315.88,755.00
             315.62,751.88 316.28,747.14 316.73,744.00
             317.76,736.87 318.06,732.04 326.00,730.15
             329.49,729.01 331.61,729.24 335.00,730.15
             344.15,733.40 346.34,739.51 352.00,739.67
             357.11,739.82 365.09,733.82 371.00,732.53
             381.20,730.31 396.77,740.69 404.00,747.17
             413.31,755.53 416.27,762.66 415.99,775.00
             415.99,775.00 415.00,788.00 415.00,788.00
             415.00,788.00 415.00,800.00 415.00,800.00
             415.22,811.68 421.83,807.24 422.00,820.00
             422.16,832.63 416.76,841.78 414.00,854.00
             396.76,856.82 397.61,874.14 378.00,881.00
             364.52,860.78 348.85,841.28 332.85,823.00
             332.85,823.00 316.91,805.00 316.91,805.00
             312.73,800.51 308.67,797.65 306.00,792.00 Z" />
  <path id="Langiden"
        fill="none" stroke="black" stroke-width="1"
        d="M 245.00,755.00
           C 245.00,755.00 245.00,739.00 245.00,739.00
             245.00,739.00 244.00,721.00 244.00,721.00
             243.74,683.23 257.93,648.84 273.10,615.00
             273.10,615.00 281.26,597.00 281.26,597.00
             281.26,597.00 288.69,584.00 288.69,584.00
             288.69,584.00 299.17,564.00 299.17,564.00
             300.50,561.51 304.35,553.39 307.13,553.09
             309.49,552.84 312.55,555.43 314.20,556.92
             314.20,556.92 328.87,571.98 328.87,571.98
             328.87,571.98 353.12,593.32 353.12,593.32
             361.47,605.46 355.71,624.25 355.08,638.00
             354.81,643.98 356.13,652.06 359.79,656.90
             364.71,663.39 367.75,660.69 375.72,675.00
             377.19,677.65 378.54,679.92 378.86,683.00
             379.47,688.96 376.42,698.97 381.63,706.09
             390.45,718.14 409.73,721.98 411.40,738.73
             411.73,742.08 410.71,744.77 410.00,748.00
             399.25,743.15 387.43,728.32 372.00,730.22
             365.87,730.98 357.70,736.65 353.04,737.43
             346.71,738.48 346.32,732.15 335.00,728.24
             332.74,727.46 331.49,727.16 329.09,727.28
             312.47,728.07 315.77,743.63 313.00,755.00
             299.45,751.70 285.76,754.78 272.00,754.28
             264.76,754.02 251.62,753.39 245.00,755.00 Z" />
  <path id="Bangued"
        fill="none" stroke="black" stroke-width="1"
        d="M 332.00,505.00
           C 342.82,509.83 348.81,516.81 357.00,525.00
             372.24,540.25 385.75,557.18 399.20,574.00
             399.20,574.00 412.80,591.00 412.80,591.00
             414.46,593.08 418.38,597.54 418.87,600.00
             419.50,603.15 416.67,606.22 415.41,609.00
             413.89,612.38 413.61,616.33 413.74,620.00
             414.01,627.20 414.78,637.76 418.48,644.00
             424.36,653.91 436.73,659.32 444.91,667.17
             444.91,667.17 457.01,680.91 457.01,680.91
             470.38,693.68 485.82,704.46 501.00,714.96
             501.00,714.96 531.00,735.98 531.00,735.98
             537.18,740.23 544.17,744.20 549.00,750.00
             545.97,752.76 541.26,757.04 537.00,757.40
             537.00,757.40 529.00,756.27 529.00,756.27
             525.63,756.28 522.27,758.00 518.04,755.26
             512.89,751.94 510.11,743.86 503.00,740.54
             496.87,737.89 486.42,738.93 480.00,740.54
             476.21,741.31 473.12,742.31 470.34,745.21
             463.70,752.15 462.25,775.37 462.54,785.00
             462.45,791.38 460.32,803.59 462.54,808.96
             464.11,812.15 475.77,822.77 479.00,826.00
             491.40,838.40 508.05,853.88 515.00,870.00
             515.00,870.00 479.00,868.17 479.00,868.17
             479.00,868.17 448.00,865.17 448.00,865.17
             448.00,865.17 436.00,864.07 436.00,864.07
             436.00,864.07 416.00,854.00 416.00,854.00
             418.20,847.28 424.57,827.91 424.91,822.00
             425.60,810.10 418.07,810.76 417.05,801.00
             417.05,801.00 417.05,764.91 417.05,764.91
             415.93,757.32 413.22,755.44 412.25,752.00
             411.26,748.45 413.03,745.47 413.50,742.00
             414.02,738.13 412.55,732.44 410.59,729.09
             406.17,721.54 387.72,712.95 382.74,705.00
             380.37,701.21 381.00,695.39 381.00,691.00
             381.00,681.72 381.88,680.22 376.56,672.00
             368.14,658.97 355.85,656.73 357.18,638.00
             357.95,627.17 361.59,609.89 358.56,600.00
             354.97,588.29 342.78,582.43 334.00,574.71
             324.24,566.12 321.86,559.37 308.00,550.00
             308.00,550.00 317.14,532.00 317.14,532.00
             317.14,532.00 332.00,505.00 332.00,505.00 Z" />
  <path id="Tayum"
        fill="none" stroke="black" stroke-width="1"
        d="M 447.00,666.00
           C 449.32,662.73 451.92,656.50 454.05,654.66
             460.22,649.32 475.33,652.97 482.00,655.87
             484.57,656.99 489.43,660.13 492.00,659.85
             497.33,659.25 499.82,651.02 509.00,648.18
             518.87,645.57 529.00,647.58 539.00,648.18
             542.27,648.09 551.26,648.25 553.88,649.59
             558.64,652.02 557.94,657.70 564.02,660.11
             565.45,660.68 577.10,661.92 579.00,661.92
             586.35,661.93 595.62,659.74 597.66,670.00
             600.38,683.78 588.00,682.96 585.21,695.09
             585.21,695.09 583.33,706.08 583.33,706.08
             583.33,706.08 580.63,712.16 580.63,712.16
             580.46,714.46 581.43,718.14 580.63,720.91
             579.14,724.37 575.54,725.92 572.66,729.21
             572.66,729.21 567.63,735.91 567.63,735.91
             564.08,739.95 557.42,744.48 552.00,745.35
             547.76,746.02 545.37,743.54 542.09,741.31
             542.09,741.31 522.53,727.86 522.53,727.86
             522.53,727.86 466.92,687.14 466.92,687.14
             458.99,680.08 452.78,675.26 447.00,666.00 Z" />
  <path id="Peñarrubia"
        fill="none" stroke="black" stroke-width="1"
        d="M 486.00,741.44
           C 491.76,740.70 499.87,740.74 504.83,744.14
             510.12,747.78 512.71,755.57 519.00,758.15
             521.60,759.21 524.28,758.96 527.00,758.87
             538.45,758.51 535.52,767.46 535.09,775.00
             534.33,788.48 545.29,789.18 549.44,800.00
             553.22,809.86 552.02,830.79 552.00,842.00
             551.99,845.53 552.42,849.92 548.85,851.97
             545.62,853.84 541.32,851.83 538.00,851.04
             538.00,851.04 511.00,844.87 511.00,844.87
             507.72,844.05 498.63,841.65 496.09,840.07
             496.09,840.07 479.00,823.10 479.00,823.10
             472.62,817.31 467.98,816.40 465.01,807.00
             462.55,798.96 464.60,788.31 465.01,780.00
             465.35,771.08 465.79,751.28 473.11,745.51
             476.26,743.03 482.07,742.17 486.00,741.44 Z" />
  <path id="Bucay"
        fill="none" stroke="black" stroke-width="1"
        d="M 551.00,748.00
           C 558.75,745.79 564.47,742.04 569.82,736.00
             572.90,732.52 578.11,724.66 583.00,723.98
             585.88,723.58 590.50,726.72 593.00,728.15
             598.93,731.53 609.59,738.67 616.00,739.45
             616.00,739.45 634.00,738.51 634.00,738.51
             634.00,738.51 653.00,741.00 653.00,741.00
             653.00,741.00 676.00,740.00 676.00,740.00
             681.89,740.04 686.40,740.79 685.70,748.01
             685.15,753.58 682.73,759.42 684.72,765.00
             688.16,774.63 696.86,774.66 692.00,788.00
             681.66,785.39 676.37,785.72 666.00,786.84
             661.42,787.33 656.90,787.24 653.13,790.43
             649.67,793.35 647.48,799.76 646.00,804.00
             646.00,804.00 638.14,824.00 638.14,824.00
             638.14,824.00 631.57,841.00 631.57,841.00
             631.57,841.00 620.30,865.00 620.30,865.00
             620.30,865.00 611.14,887.00 611.14,887.00
             606.06,898.40 598.28,911.41 598.00,924.00
             588.99,925.62 586.17,926.01 577.00,926.00
             577.00,926.00 542.00,921.97 542.00,921.97
             536.18,921.85 526.65,926.59 522.43,921.97
             520.11,919.23 520.09,916.19 519.37,913.00
             519.37,913.00 516.62,904.00 516.62,904.00
             516.49,901.25 519.68,892.96 518.83,885.00
             518.30,880.07 516.58,877.23 516.16,875.00
             515.60,872.05 516.57,870.51 516.16,868.00
             515.15,861.74 504.80,850.98 501.00,845.00
             501.00,845.00 522.00,850.11 522.00,850.11
             522.00,850.11 537.00,853.04 537.00,853.04
             541.60,853.88 546.30,856.80 550.94,854.56
             555.51,852.35 554.34,849.06 554.05,845.00
             554.05,845.00 554.05,827.00 554.05,827.00
             554.06,819.16 555.13,805.73 551.44,799.00
             547.26,791.35 538.57,787.32 537.65,779.00
             537.14,774.45 539.21,770.09 537.00,761.00
             542.80,757.21 548.91,755.06 551.00,748.00 Z" />
  <path id="Bucloc"
        fill="none" stroke="black" stroke-width="1"
        d="M 691.00,985.55
           C 691.00,985.55 689.49,963.00 689.49,963.00
             689.30,958.49 689.99,950.17 692.62,946.46
             695.98,941.73 707.12,938.25 712.72,936.72
             712.72,936.72 775.00,924.10 775.00,924.10
             775.00,924.10 813.00,915.34 813.00,915.34
             821.72,913.45 824.62,911.43 834.00,911.00
             836.22,938.17 862.57,968.62 869.00,987.00
             862.95,987.84 812.55,985.83 808.81,985.92
             771.15,986.50 730.23,982.34 691.00,985.55 Z" />
  <path id="Sallapadan"
        fill="none" stroke="black" stroke-width="1"
        d="M 828.00,910.00
           C 828.00,910.00 750.25,927.41 750.25,927.41
             750.25,927.41 719.20,933.37 719.20,933.37
             712.14,934.85 702.01,936.99 696.02,940.97
             685.93,947.65 687.22,961.43 688.27,972.00
             688.39,974.91 689.51,981.25 688.27,983.77
             686.99,986.97 683.75,986.48 681.51,988.58
             678.91,991.02 679.47,995.12 675.86,995.31
             672.73,995.47 666.88,991.33 664.00,989.79
             664.00,989.79 649.39,983.21 649.39,983.21
             649.39,983.21 637.00,971.29 637.00,971.29
             634.06,968.73 627.36,964.50 626.22,960.96
             624.90,956.88 628.50,954.82 630.53,951.91
             633.08,948.25 633.21,945.05 631.47,941.00
             628.08,933.13 622.63,931.87 615.00,930.75
             608.31,929.78 602.00,931.09 600.69,922.00
             599.63,914.70 607.59,900.33 610.46,893.00
             610.46,893.00 617.58,877.00 617.58,877.00
             617.58,877.00 641.55,821.28 641.55,821.28
             641.55,821.28 649.78,800.00 649.78,800.00
             650.94,797.18 652.34,792.87 654.93,791.13
             656.73,789.91 662.71,789.15 665.00,788.91
             673.43,787.99 681.95,787.56 690.28,789.54
             704.50,792.93 698.83,803.59 708.91,816.91
             713.45,822.91 718.56,827.96 723.91,833.17
             723.91,833.17 731.00,840.63 731.00,840.63
             731.00,840.63 758.34,860.95 758.34,860.95
             758.34,860.95 780.29,876.84 780.29,876.84
             780.29,876.84 788.00,881.93 788.00,881.93
             788.00,881.93 796.96,888.59 796.96,888.59
             804.65,893.13 823.87,903.04 828.00,910.00 Z" />
  <path id="Daguioman"
        fill="none" stroke="black" stroke-width="1"
        d="M 986.00,1019.00
           C 986.00,1019.00 958.00,1010.00 958.00,1010.00
             958.00,1010.00 914.00,997.42 914.00,997.42
             914.00,997.42 886.00,991.25 886.00,991.25
             883.12,990.75 874.56,989.60 872.56,988.02
             870.99,986.78 868.63,980.35 867.34,978.00
             858.36,961.66 846.80,946.71 840.66,929.00
             839.22,924.86 834.95,915.31 836.61,911.21
             838.24,907.21 848.95,904.68 853.00,903.33
             853.00,903.33 872.00,896.68 872.00,896.68
             872.00,896.68 886.00,888.33 886.00,888.33
             891.00,885.97 894.05,886.04 899.00,884.56
             899.00,884.56 917.00,876.89 917.00,876.89
             917.00,876.89 930.00,874.22 930.00,874.22
             930.00,874.22 947.00,867.14 947.00,867.14
             952.89,864.53 970.92,855.68 976.00,855.20
             985.29,854.31 997.50,865.62 999.91,874.00
             1001.17,878.39 998.12,880.52 998.00,890.00
             998.00,890.00 998.00,913.00 998.00,913.00
             997.95,916.60 998.71,957.90 998.09,967.00
             996.88,984.69 994.21,1002.97 986.00,1019.00 Z
           M 996.49,938.84" />
  <path id="Licuan-baay"
        fill="none" stroke="black" stroke-width="1"
        d="M 776.00,588.00
           C 776.00,588.00 784.00,593.21 784.00,593.21
             791.67,597.43 799.88,600.55 807.00,605.76
             816.64,612.81 827.08,624.46 838.00,628.91
             847.38,632.73 877.28,635.87 888.00,636.00
             911.50,636.27 932.84,635.36 956.00,631.00
             956.00,631.00 957.96,654.00 957.96,654.00
             957.96,654.00 957.96,667.00 957.96,667.00
             958.00,669.61 958.11,672.49 957.35,675.00
             956.15,679.00 945.00,695.46 942.00,700.00
             931.69,715.64 915.44,743.10 915.01,762.00
             914.46,786.49 938.19,789.45 954.00,800.79
             962.24,806.70 968.35,817.53 971.66,827.00
             973.66,832.73 976.93,845.33 973.83,850.89
             971.55,854.96 962.33,857.75 958.00,859.78
             958.00,859.78 931.00,871.64 931.00,871.64
             924.22,873.84 920.92,872.63 911.00,876.87
             911.00,876.87 899.00,882.25 899.00,882.25
             899.00,882.25 886.00,885.90 886.00,885.90
             886.00,885.90 874.00,893.32 874.00,893.32
             868.60,896.09 859.98,898.67 854.00,900.67
             849.89,902.04 836.27,907.37 833.00,907.11
             827.50,906.67 821.56,901.08 817.00,898.08
             817.00,898.08 798.00,887.39 798.00,887.39
             798.00,887.39 785.00,877.74 785.00,877.74
             761.55,860.78 723.60,837.04 708.56,813.00
             704.83,807.05 703.81,799.62 701.44,795.01
             699.30,790.83 696.62,789.88 695.77,786.91
             695.02,784.34 696.60,781.91 695.16,778.00
             693.39,773.22 687.64,768.15 686.42,763.00
             685.47,758.99 687.18,754.07 687.71,750.00
             688.19,746.36 687.66,742.42 688.63,739.00
             688.63,739.00 704.70,708.00 704.70,708.00
             704.70,708.00 735.58,655.00 735.58,655.00
             735.58,655.00 752.20,624.00 752.20,624.00
             752.20,624.00 758.49,614.00 758.49,614.00
             765.34,604.61 772.04,599.32 776.00,588.00 Z" />
  <path id="Lagangilang"
        fill="none" stroke="black" stroke-width="1"
        d="M 691.00,525.00
           C 698.88,527.51 707.34,536.43 714.00,541.72
             714.00,541.72 735.00,555.77 735.00,555.77
             735.00,555.77 753.00,569.96 753.00,569.96
             753.00,569.96 761.00,575.13 761.00,575.13
             765.16,577.51 772.62,579.87 773.64,585.02
             774.78,590.75 767.35,599.81 763.92,604.00
             752.84,617.52 747.96,626.58 740.25,642.00
             740.25,642.00 724.86,669.00 724.86,669.00
             724.86,669.00 698.42,715.00 698.42,715.00
             695.89,719.50 689.08,734.81 685.62,736.98
             683.63,738.22 680.31,738.00 678.00,738.24
             678.00,738.24 652.00,738.24 652.00,738.24
             652.00,738.24 634.00,736.09 634.00,736.09
             634.00,736.09 621.00,736.99 621.00,736.99
             618.43,737.04 615.47,737.07 613.00,736.37
             607.73,734.87 588.99,723.45 583.11,720.00
             583.11,720.00 583.11,713.00 583.11,713.00
             583.11,713.00 588.31,692.00 588.31,692.00
             591.30,686.08 597.49,684.80 599.43,678.00
             602.12,668.56 593.16,662.05 602.99,657.44
             611.62,653.40 620.63,661.87 627.72,662.24
             636.70,662.70 645.31,655.97 652.17,650.90
             659.80,645.25 661.45,646.08 668.07,637.00
             673.05,630.18 677.93,616.41 678.83,608.00
             678.83,608.00 679.42,598.00 679.42,598.00
             679.42,598.00 691.00,525.00 691.00,525.00 Z" />
  <path id="Dolores"
        fill="none" stroke="black" stroke-width="1"
        d="M 514.00,645.04
           C 516.28,640.18 526.75,629.48 531.00,624.72
             531.00,624.72 561.58,589.91 561.58,589.91
             561.58,589.91 572.68,573.60 572.68,573.60
             573.75,572.66 574.63,572.38 576.04,572.32
             581.41,572.08 588.49,577.61 591.07,582.00
             593.61,586.33 594.05,593.42 601.18,596.92
             604.24,598.42 610.54,598.96 614.00,599.00
             614.00,599.00 648.00,598.14 648.00,598.14
             648.00,598.14 668.00,598.14 668.00,598.14
             669.80,598.51 674.08,599.08 675.42,600.17
             678.41,602.58 676.24,610.81 675.42,614.00
             671.82,627.80 668.84,637.26 656.72,646.04
             648.50,651.98 636.57,661.23 626.01,659.82
             621.10,659.16 620.63,657.17 616.96,655.65
             614.42,654.60 608.95,654.30 606.17,654.52
             602.01,654.85 598.86,657.73 594.96,658.95
             590.87,660.24 585.34,659.89 581.00,659.70
             576.99,659.53 566.14,658.98 563.10,657.07
             558.77,654.34 558.55,649.26 553.82,647.33
             550.33,645.91 542.88,646.07 539.00,645.98
             539.00,645.98 528.00,645.04 528.00,645.04
             528.00,645.04 514.00,645.04 514.00,645.04 Z" />
  <path id="San Juan"
        fill="none" stroke="black" stroke-width="1"
        d="M 573.00,570.00
           C 574.22,563.19 573.97,562.71 574.00,556.00
             574.04,548.13 575.81,543.50 577.34,536.00
             578.91,528.28 578.73,524.04 581.92,516.00
             584.42,509.72 590.10,500.54 597.00,498.69
             600.99,497.62 605.42,499.63 609.00,501.23
             615.30,504.06 626.21,509.89 633.00,508.77
             637.41,508.04 643.66,502.81 647.00,499.83
             660.50,487.77 671.55,473.41 682.37,459.00
             689.78,449.14 691.25,444.68 697.91,449.86
             703.10,453.90 709.81,463.60 715.01,469.00
             718.46,472.58 722.84,476.60 722.79,482.00
             722.74,487.33 717.73,492.03 713.99,495.25
             707.29,501.00 696.67,508.96 691.80,516.00
             688.08,521.38 687.65,528.65 686.59,535.00
             686.59,535.00 680.42,575.00 680.42,575.00
             680.42,575.00 678.27,590.00 678.27,590.00
             677.99,591.84 677.85,594.77 676.26,596.00
             674.75,597.15 665.68,596.00 663.00,596.00
             663.00,596.00 637.00,596.00 637.00,596.00
             627.59,596.11 609.22,599.32 601.04,594.15
             595.93,590.91 595.44,585.71 592.64,581.01
             588.49,574.06 580.90,570.20 573.00,570.00 Z" />
  <path id="La Paz"
        fill="none" stroke="black" stroke-width="1"
        d="M 405.00,577.00
           C 405.00,577.00 422.00,575.09 422.00,575.09
             422.00,575.09 436.00,575.09 436.00,575.09
             439.72,575.05 446.65,575.74 449.85,577.57
             456.53,581.38 448.82,590.85 452.64,595.46
             455.82,599.31 465.33,601.38 470.00,599.20
             473.76,597.45 474.47,594.83 479.01,594.13
             484.41,593.33 489.52,595.77 494.00,594.13
             499.42,592.09 505.27,582.70 509.00,578.00
             509.00,578.00 533.70,549.00 533.70,549.00
             540.37,541.17 540.15,537.21 542.70,534.70
             544.35,533.07 547.79,532.03 550.00,531.19
             555.66,529.03 564.93,525.74 570.98,527.31
             575.25,528.43 575.74,531.13 575.18,535.00
             575.18,535.00 572.30,549.00 572.30,549.00
             572.30,549.00 571.00,566.00 571.00,566.00
             570.35,578.98 559.31,589.73 551.15,599.00
             551.15,599.00 511.00,643.79 511.00,643.79
             511.00,643.79 501.00,650.39 501.00,650.39
             501.00,650.39 491.00,659.00 491.00,659.00
             482.04,652.15 460.95,644.58 451.55,654.39
             449.09,656.97 447.92,660.64 447.00,664.00
             441.71,662.56 439.30,660.10 435.00,656.87
             430.36,653.39 425.03,649.75 421.64,645.00
             417.43,639.11 416.03,628.16 416.00,621.00
             415.98,617.41 415.69,613.34 417.08,610.00
             418.38,606.89 421.75,603.45 421.22,600.00
             420.83,597.47 417.80,594.01 416.20,592.00
             412.31,587.11 408.14,582.41 405.00,577.00 Z" />
  <path id="Danglas"
        fill="none" stroke="black" stroke-width="1"
        d="M 519.00,347.00
           C 520.68,351.24 519.95,356.47 520.00,361.00
             520.00,361.00 520.68,369.00 520.68,369.00
             520.68,369.00 520.00,380.00 520.00,380.00
             520.00,380.00 520.00,459.00 520.00,459.00
             520.00,459.00 519.04,469.00 519.04,469.00
             519.04,469.00 519.04,484.00 519.04,484.00
             519.04,484.00 521.11,508.00 521.11,508.00
             521.07,511.77 519.64,515.50 521.11,518.96
             525.12,526.70 541.98,528.36 537.99,539.00
             536.28,543.58 529.91,550.14 526.58,554.00
             526.58,554.00 506.42,578.00 506.42,578.00
             499.56,586.81 498.86,591.98 487.00,592.00
             484.09,592.01 478.64,591.73 476.09,592.73
             471.32,594.62 471.05,599.55 460.00,597.38
             458.35,597.06 455.99,596.60 454.83,595.27
             452.30,592.37 455.45,585.56 454.83,581.02
             453.89,573.94 443.68,573.07 438.00,573.00
             438.00,573.00 414.00,573.93 414.00,573.93
             411.21,574.14 405.34,575.04 403.04,573.93
             400.54,572.75 397.94,569.17 396.20,567.00
             396.20,567.00 383.87,552.00 383.87,552.00
             369.43,535.21 352.84,514.61 334.00,503.00
             335.56,497.64 339.18,492.13 341.75,487.00
             341.75,487.00 356.70,456.00 356.70,456.00
             356.70,456.00 371.27,415.00 371.27,415.00
             379.14,399.26 393.00,388.45 408.00,379.87
             430.43,367.05 457.85,359.56 483.00,354.21
             483.00,354.21 519.00,347.00 519.00,347.00 Z" />
  <path id="Lagayan"
        fill="none" stroke="black" stroke-width="1"
        d="M 585.00,294.00
           C 592.70,296.27 598.18,302.60 604.00,307.83
             604.00,307.83 637.00,338.83 637.00,338.83
             637.00,338.83 671.00,372.00 671.00,372.00
             671.00,372.00 688.00,388.57 688.00,388.57
             694.25,393.93 710.17,404.76 712.35,412.00
             715.55,422.64 702.53,431.28 696.58,438.01
             696.58,438.01 656.09,487.99 656.09,487.99
             650.90,493.45 643.43,501.11 637.00,504.87
             624.53,512.15 608.85,493.79 597.00,496.43
             593.04,497.31 588.88,500.99 586.33,504.01
             584.11,506.63 582.24,509.89 580.79,513.00
             578.89,517.10 577.69,521.55 577.00,526.22
             567.49,524.09 566.88,523.52 557.00,526.22
             553.76,527.40 545.68,530.89 543.00,530.93
             539.69,530.98 536.71,528.18 534.00,526.44
             530.75,524.34 525.07,521.59 523.60,517.91
             522.75,515.79 523.03,510.50 523.00,508.00
             523.00,508.00 521.00,477.00 521.00,477.00
             521.00,477.00 522.00,462.00 522.00,462.00
             522.00,462.00 522.00,399.00 522.00,399.00
             522.00,399.00 523.00,382.00 523.00,382.00
             523.00,382.00 523.00,346.00 523.00,346.00
             555.28,343.29 569.04,317.94 585.00,294.00 Z" />
  <path id="Malibcong"
        fill="none" stroke="black" stroke-width="1"
        d="M 1002.00,874.00
           C 999.87,867.57 994.37,861.52 989.00,857.47
             979.49,850.28 977.28,856.15 977.15,845.00
             976.99,830.57 969.55,812.00 958.95,802.18
             947.23,791.33 924.82,788.03 918.50,772.04
             915.22,763.72 918.13,752.07 921.05,744.00
             929.14,721.69 937.45,711.53 949.40,692.17
             952.40,687.32 958.88,679.12 959.87,674.00
             961.19,667.19 959.55,650.52 958.95,643.00
             958.61,638.81 956.84,632.85 960.31,629.65
             963.02,627.16 969.27,626.49 972.91,625.85
             972.91,625.85 1008.00,624.00 1008.00,624.00
             1008.00,624.00 1040.42,620.32 1040.42,620.32
             1040.42,620.32 1110.00,611.83 1110.00,611.83
             1110.00,611.83 1135.92,608.90 1135.92,608.90
             1138.43,608.48 1143.31,607.41 1145.41,608.90
             1149.14,611.90 1149.03,626.50 1149.00,631.00
             1149.00,631.00 1148.42,641.00 1148.42,641.00
             1147.86,652.37 1153.96,667.84 1158.90,678.00
             1167.82,696.37 1180.84,710.95 1181.00,733.00
             1181.02,736.67 1181.14,741.64 1180.27,745.17
             1175.40,764.74 1151.68,783.15 1134.91,793.11
             1134.91,793.11 1105.00,810.51 1105.00,810.51
             1105.00,810.51 1089.00,818.25 1089.00,818.25
             1089.00,818.25 1069.00,828.63 1069.00,828.63
             1069.00,828.63 1055.00,834.78 1055.00,834.78
             1046.15,838.96 1030.78,847.68 1023.00,853.48
             1014.10,860.12 1009.36,866.20 1002.00,874.00 Z" />
  <path id="Lacub"
        fill="none" stroke="black" stroke-width="1"
        d="M 1179.00,489.00
           C 1179.00,489.00 1182.91,523.00 1182.91,523.00
             1183.38,529.92 1183.01,538.18 1184.76,545.00
             1184.76,545.00 1188.75,557.00 1188.75,557.00
             1188.75,557.00 1188.10,567.00 1188.10,567.00
             1188.29,571.32 1190.07,574.94 1187.40,578.96
             1183.71,584.54 1169.37,590.42 1163.00,593.78
             1163.00,593.78 1145.91,605.26 1145.91,605.26
             1145.91,605.26 1122.00,608.16 1122.00,608.16
             1122.00,608.16 1078.00,613.28 1078.00,613.28
             1078.00,613.28 1006.00,622.00 1006.00,622.00
             993.36,622.02 980.44,622.22 968.00,624.61
             968.00,624.61 946.00,630.58 946.00,630.58
             937.70,631.86 928.37,632.96 920.00,633.00
             920.00,633.00 909.00,633.96 909.00,633.96
             909.00,633.96 894.00,633.96 894.00,633.96
             894.00,633.96 881.00,633.04 881.00,633.04
             868.87,632.51 851.33,631.39 840.00,627.30
             826.73,622.52 818.26,610.76 807.00,603.09
             799.20,597.78 784.14,592.34 779.39,587.48
             771.31,579.24 780.65,573.08 785.67,567.00
             788.49,563.58 791.63,557.94 794.00,554.00
             794.00,554.00 819.69,510.00 819.69,510.00
             819.69,510.00 833.61,484.00 833.61,484.00
             840.68,472.41 847.68,465.25 862.00,467.30
             874.06,469.02 890.38,478.26 901.00,484.42
             905.60,487.09 915.11,493.07 920.00,494.13
             923.89,494.96 930.83,493.37 935.00,493.09
             935.00,493.09 951.00,494.00 951.00,494.00
             951.00,494.00 969.00,495.00 969.00,495.00
             969.00,495.00 987.00,495.00 987.00,495.00
             987.00,495.00 999.00,494.09 999.00,494.09
             999.00,494.09 1032.00,492.00 1032.00,492.00
             1032.00,492.00 1046.00,491.00 1046.00,491.00
             1046.00,491.00 1064.00,490.00 1064.00,490.00
             1064.00,490.00 1080.00,490.00 1080.00,490.00
             1080.00,490.00 1097.00,489.00 1097.00,489.00
             1097.00,489.00 1179.00,489.00 1179.00,489.00 Z" />
  <path id="Tineg"
        fill="none" stroke="black" stroke-width="1"
        d="M 907.00,121.00
           C 912.03,122.48 929.45,132.95 935.00,136.34
             948.61,144.65 961.66,154.17 974.04,164.21
             980.24,169.23 992.10,178.63 996.49,184.88
             999.91,189.76 1003.12,199.81 1004.37,205.72
             1005.25,209.87 1006.42,221.80 1006.32,226.00
             1006.32,226.00 1006.32,232.00 1006.32,232.00
             1006.32,232.00 1007.00,241.00 1007.00,241.00
             1007.25,262.83 1005.77,283.91 1010.76,305.42
             1015.26,324.88 1026.19,340.06 1047.91,338.73
             1058.65,338.07 1068.57,335.01 1077.91,329.70
             1086.29,324.93 1095.36,318.02 1105.58,319.27
             1117.80,320.77 1124.15,333.29 1133.00,340.33
             1139.85,345.79 1158.04,355.62 1161.39,360.51
             1169.93,373.00 1169.30,395.29 1170.13,410.00
             1170.13,410.00 1175.28,459.00 1175.28,459.00
             1175.28,459.00 1179.00,487.00 1179.00,487.00
             1179.00,487.00 1097.00,487.00 1097.00,487.00
             1097.00,487.00 1073.00,488.00 1073.00,488.00
             1073.00,488.00 1024.00,490.13 1024.00,490.13
             1024.00,490.13 973.00,493.00 973.00,493.00
             973.00,493.00 939.00,491.02 939.00,491.02
             939.00,491.02 923.00,492.44 923.00,492.44
             917.56,492.47 907.78,486.18 902.91,483.28
             889.04,475.00 864.46,459.72 848.09,466.60
             837.07,471.23 834.19,480.66 828.56,489.58
             828.56,489.58 821.03,503.72 821.03,503.72
             821.03,503.72 791.95,553.71 791.95,553.71
             789.71,557.61 786.12,563.56 783.32,566.91
             779.04,572.04 776.37,572.05 774.00,579.00
             762.60,575.92 749.86,565.22 740.59,557.83
             740.59,557.83 717.72,542.20 717.72,542.20
             708.44,535.12 701.49,527.60 691.00,522.00
             696.41,510.12 708.03,503.46 717.08,494.61
             721.55,490.23 726.61,484.96 724.31,478.09
             722.60,473.00 711.68,462.43 707.56,457.59
             703.03,452.27 700.15,448.66 694.00,445.00
             700.36,432.64 716.80,426.03 714.77,413.01
             713.18,402.77 692.96,391.72 685.72,383.96
             685.72,383.96 659.01,357.96 659.01,357.96
             659.01,357.96 648.00,346.09 648.00,346.09
             648.00,346.09 626.42,326.70 626.42,326.70
             626.42,326.70 606.28,307.58 606.28,307.58
             600.73,302.18 593.90,295.39 587.00,292.00
             587.00,292.00 591.45,279.80 591.45,279.80
             593.88,271.04 595.41,260.21 601.53,253.18
             605.25,248.90 609.95,246.95 614.58,244.05
             621.77,239.55 632.84,231.70 640.72,229.71
             640.72,229.71 673.00,224.49 673.00,224.49
             683.07,221.98 692.30,216.60 700.00,209.74
             700.00,209.74 743.99,162.99 743.99,162.99
             752.41,154.47 758.20,146.36 770.72,143.63
             784.53,140.62 813.35,142.86 827.04,147.28
             827.04,147.28 863.00,160.38 863.00,160.38
             874.60,162.47 895.30,158.02 902.35,148.00
             908.02,139.94 904.49,129.84 907.00,121.00 Z" />
</svg>
