<?xml version="1.0" encoding="UTF-8" standalone="no"?>
<!DOCTYPE svg PUBLIC "-//W3C//DTD SVG 20010904//EN"
              "http://www.w3.org/TR/2001/REC-SVG-20010904/DTD/svg10.dtd">

<svg xmlns="http://www.w3.org/2000/svg"
     width="623.633mm" height="935.097mm"
     viewBox="0 0 1768 2651">
  <path id="Las nieves"
        fill="none" stroke="black" stroke-width="1"
        d="M 1188.00,2201.00
           C 1188.00,2201.00 1214.00,2199.04 1214.00,2199.04
             1214.00,2199.04 1224.00,2199.04 1224.00,2199.04
             1224.00,2199.04 1246.00,2197.00 1246.00,2197.00
             1246.00,2197.00 1255.00,2197.00 1255.00,2197.00
             1255.00,2197.00 1320.00,2192.09 1320.00,2192.09
             1320.00,2192.09 1345.00,2190.91 1345.00,2190.91
             1345.00,2190.91 1380.00,2188.00 1380.00,2188.00
             1380.00,2188.00 1381.00,2205.00 1381.00,2205.00
             1381.02,2216.15 1382.29,2231.18 1384.90,2242.00
             1384.90,2242.00 1406.12,2307.00 1406.12,2307.00
             1407.97,2314.80 1410.76,2325.10 1409.82,2333.00
             1409.53,2335.37 1408.43,2340.52 1406.44,2341.98
             1404.73,2343.23 1401.09,2343.00 1399.00,2343.00
             1399.00,2343.00 1333.00,2343.00 1333.00,2343.00
             1330.74,2343.00 1326.38,2343.25 1324.57,2341.83
             1322.63,2340.30 1322.24,2332.58 1321.95,2330.00
             1321.04,2321.82 1320.49,2316.14 1312.96,2311.13
             1304.81,2305.71 1290.72,2305.34 1281.00,2303.75
             1265.54,2301.23 1264.93,2297.16 1256.00,2295.38
             1249.76,2294.13 1242.57,2296.14 1236.00,2295.99
             1224.81,2295.73 1207.17,2289.10 1197.00,2284.32
             1192.53,2282.21 1185.96,2279.60 1182.83,2275.63
             1177.70,2269.15 1181.03,2260.96 1182.83,2254.00
             1182.83,2254.00 1184.45,2247.00 1184.45,2247.00
             1184.45,2247.00 1192.50,2225.00 1192.50,2225.00
             1194.34,2219.33 1195.98,2213.00 1193.42,2207.18
             1192.49,2205.09 1189.66,2202.83 1188.00,2201.00 Z
           M 236.00,2267.00
           C 236.00,2267.00 246.00,2266.09 246.00,2266.09
             246.00,2266.09 288.00,2263.09 288.00,2263.09
             288.00,2263.09 312.00,2261.91 312.00,2261.91
             312.00,2261.91 330.00,2260.00 330.00,2260.00
             330.00,2260.00 339.00,2260.00 339.00,2260.00
             339.00,2260.00 400.00,2255.91 400.00,2255.91
             400.00,2255.91 434.00,2253.09 434.00,2253.09
             434.00,2253.09 474.00,2250.91 474.00,2250.91
             474.00,2250.91 492.00,2249.09 492.00,2249.09
             492.00,2249.09 546.00,2245.91 546.00,2245.91
             546.00,2245.91 564.00,2244.09 564.00,2244.09
             564.00,2244.09 588.00,2242.91 588.00,2242.91
             588.00,2242.91 637.00,2239.09 637.00,2239.09
             637.00,2239.09 692.00,2235.91 692.00,2235.91
             692.00,2235.91 710.00,2234.00 710.00,2234.00
             710.00,2234.00 719.00,2234.00 719.00,2234.00
             719.00,2234.00 756.00,2231.09 756.00,2231.09
             756.00,2231.09 780.00,2229.91 780.00,2229.91
             780.00,2229.91 799.00,2228.09 799.00,2228.09
             799.00,2228.09 838.00,2225.91 838.00,2225.91
             838.00,2225.91 856.00,2224.09 856.00,2224.09
             856.00,2224.09 895.00,2221.91 895.00,2221.91
             895.00,2221.91 913.00,2220.09 913.00,2220.09
             913.00,2220.09 937.00,2218.91 937.00,2218.91
             937.00,2218.91 959.00,2216.96 959.00,2216.96
             959.00,2216.96 969.00,2216.96 969.00,2216.96
             969.00,2216.96 986.00,2215.00 986.00,2215.00
             986.00,2215.00 995.00,2215.00 995.00,2215.00
             995.00,2215.00 1032.00,2212.09 1032.00,2212.09
             1032.00,2212.09 1056.00,2210.91 1056.00,2210.91
             1056.00,2210.91 1075.00,2209.09 1075.00,2209.09
             1075.00,2209.09 1114.00,2206.91 1114.00,2206.91
             1114.00,2206.91 1122.00,2206.04 1122.00,2206.04
             1134.84,2205.50 1129.22,2211.08 1141.00,2218.99
             1151.64,2226.13 1159.33,2224.94 1171.00,2222.00
             1170.54,2231.44 1165.99,2236.60 1163.00,2245.00
             1157.94,2259.20 1155.55,2266.28 1160.73,2281.00
             1162.73,2286.71 1164.57,2290.21 1168.59,2294.89
             1175.95,2303.46 1187.73,2300.70 1197.00,2303.96
             1208.07,2307.87 1219.18,2316.94 1231.00,2317.00
             1231.00,2317.00 1257.00,2316.50 1257.00,2316.50
             1257.00,2316.50 1274.00,2325.00 1274.00,2325.00
             1284.25,2328.76 1293.80,2326.49 1298.49,2331.47
             1301.07,2334.21 1302.56,2341.30 1297.85,2342.92
             1297.85,2342.92 1287.00,2342.92 1287.00,2342.92
             1287.00,2342.92 1264.00,2342.92 1264.00,2342.92
             1264.00,2342.92 1237.00,2342.92 1237.00,2342.92
             1237.00,2342.92 1222.00,2342.00 1222.00,2342.00
             1222.00,2342.00 1008.00,2342.00 1008.00,2342.00
             1008.00,2342.00 993.00,2341.00 993.00,2341.00
             993.00,2341.00 935.00,2341.00 935.00,2341.00
             932.52,2341.00 929.31,2340.80 927.10,2342.02
             922.45,2344.59 916.48,2359.17 912.61,2362.15
             908.22,2365.54 885.51,2366.97 880.17,2370.73
             880.17,2370.73 852.56,2404.26 852.56,2404.26
             847.76,2407.78 829.74,2406.35 824.00,2409.43
             824.00,2409.43 790.00,2435.21 790.00,2435.21
             781.67,2441.74 778.87,2445.98 768.00,2446.00
             768.00,2446.00 704.00,2447.13 704.00,2447.13
             704.00,2447.13 695.00,2447.13 695.00,2447.13
             695.00,2447.13 674.00,2448.00 674.00,2448.00
             674.00,2448.00 657.00,2448.00 657.00,2448.00
             657.00,2448.00 641.00,2449.00 641.00,2449.00
             641.00,2449.00 610.00,2449.00 610.00,2449.00
             610.00,2449.00 593.00,2450.00 593.00,2450.00
             593.00,2450.00 515.00,2451.00 515.00,2451.00
             515.00,2451.00 500.00,2452.00 500.00,2452.00
             500.00,2452.00 481.00,2452.00 481.00,2452.00
             481.00,2452.00 465.00,2453.00 465.00,2453.00
             465.00,2453.00 434.00,2453.00 434.00,2453.00
             434.00,2453.00 417.00,2454.00 417.00,2454.00
             417.00,2454.00 385.00,2454.00 385.00,2454.00
             385.00,2454.00 370.00,2455.10 370.00,2455.10
             370.00,2455.10 342.00,2455.10 342.00,2455.10
             342.00,2455.10 334.00,2455.10 334.00,2455.10
             334.00,2455.10 321.00,2456.10 321.00,2456.10
             321.00,2456.10 294.00,2456.10 294.00,2456.10
             294.00,2456.10 287.00,2456.10 287.00,2456.10
             287.00,2456.10 275.00,2457.00 275.00,2457.00
             267.24,2457.04 255.14,2456.26 248.00,2458.00
             248.00,2458.00 246.00,2436.00 246.00,2436.00
             246.00,2436.00 244.09,2405.00 244.09,2405.00
             244.09,2405.00 242.52,2375.00 242.52,2375.00
             242.52,2375.00 241.00,2352.00 241.00,2352.00
             241.00,2352.00 239.00,2321.00 239.00,2321.00
             239.00,2321.00 236.00,2267.00 236.00,2267.00 Z" />
  <path id="Carmen"
        fill="none" stroke="black" stroke-width="1"
        d="M 140.00,1264.97
           C 142.04,1264.79 143.96,1264.45 146.00,1264.97
             155.07,1267.07 161.74,1279.83 164.40,1288.00
             164.40,1288.00 170.31,1326.00 170.31,1326.00
             172.33,1336.83 176.55,1346.93 180.83,1357.00
             183.20,1362.56 183.02,1365.66 187.34,1370.83
             192.75,1377.31 202.51,1383.21 206.70,1391.00
             208.79,1394.89 209.94,1402.55 210.00,1407.00
             210.06,1412.25 209.26,1423.68 211.31,1428.00
             214.89,1435.53 218.52,1436.11 225.00,1439.03
             225.00,1439.03 234.00,1443.60 234.00,1443.60
             239.03,1446.23 248.89,1454.28 252.91,1458.44
             252.91,1458.44 281.28,1491.91 281.28,1491.91
             284.62,1496.36 289.08,1505.58 292.33,1508.32
             294.71,1510.33 298.92,1512.37 302.00,1512.87
             305.40,1513.42 310.67,1513.21 313.37,1515.59
             313.37,1515.59 320.87,1526.00 320.87,1526.00
             327.13,1534.31 333.50,1540.84 344.00,1543.29
             351.48,1545.04 361.55,1539.86 369.00,1538.38
             377.27,1536.74 389.54,1538.81 398.00,1539.00
             396.03,1545.24 386.26,1560.57 382.40,1567.00
             382.40,1567.00 376.64,1577.00 376.64,1577.00
             374.23,1582.15 373.87,1584.47 370.58,1589.99
             370.58,1589.99 363.09,1600.01 363.09,1600.01
             363.09,1600.01 355.40,1613.00 355.40,1613.00
             355.40,1613.00 340.65,1639.00 340.65,1639.00
             339.89,1641.52 340.00,1644.39 340.00,1647.00
             340.00,1647.00 340.00,1695.00 340.00,1695.00
             340.00,1695.00 339.15,1712.00 339.15,1712.00
             339.15,1712.00 339.15,1801.00 339.15,1801.00
             339.15,1801.00 339.15,1810.00 339.15,1810.00
             339.15,1810.00 339.15,1819.00 339.15,1819.00
             339.15,1819.00 339.15,1827.00 339.15,1827.00
             339.15,1827.00 339.15,1873.00 339.15,1873.00
             339.15,1873.00 339.15,1949.00 339.15,1949.00
             339.00,1950.99 339.23,1954.81 337.98,1956.40
             336.64,1958.09 333.94,1957.94 332.00,1958.16
             332.00,1958.16 315.00,1959.92 315.00,1959.92
             315.00,1959.92 266.00,1964.83 266.00,1964.83
             257.22,1965.71 248.21,1965.46 240.00,1969.00
             240.00,1969.00 240.00,1959.00 240.00,1959.00
             240.00,1959.00 231.42,1949.00 231.42,1949.00
             231.42,1949.00 216.00,1926.00 216.00,1926.00
             216.00,1926.00 247.00,1903.15 247.00,1903.15
             250.52,1900.58 258.76,1895.37 260.69,1891.83
             262.39,1888.70 261.85,1884.46 262.09,1881.00
             262.09,1881.00 262.96,1873.00 262.96,1873.00
             263.08,1869.03 261.64,1854.08 259.41,1851.22
             255.76,1846.56 249.33,1848.47 247.62,1844.69
             246.17,1841.48 250.22,1829.34 243.85,1824.64
             239.69,1821.50 229.40,1824.86 224.00,1824.64
             221.63,1825.04 218.25,1825.07 216.01,1824.64
             210.66,1822.63 208.85,1818.25 208.60,1813.00
             208.31,1807.12 213.07,1791.20 214.98,1785.00
             216.24,1780.90 218.69,1775.03 216.13,1771.13
             212.00,1764.82 198.37,1766.52 191.00,1763.02
             172.37,1754.15 175.80,1738.19 176.00,1721.00
             176.04,1717.85 176.44,1709.15 178.57,1706.96
             181.80,1703.65 193.55,1701.21 196.36,1694.00
             197.70,1690.55 194.95,1687.08 194.00,1682.00
             194.00,1682.00 201.00,1678.22 201.00,1678.22
             202.75,1677.20 204.26,1676.30 205.65,1674.79
             214.22,1665.51 197.71,1658.24 195.95,1652.00
             195.95,1652.00 195.95,1639.00 195.95,1639.00
             195.90,1630.65 193.22,1626.95 192.00,1619.00
             195.31,1618.53 201.08,1617.81 202.97,1614.72
             206.15,1609.55 199.66,1594.91 194.96,1592.02
             188.79,1588.23 182.14,1594.06 181.16,1586.94
             179.64,1575.86 196.18,1568.56 188.34,1556.00
             184.99,1550.64 180.52,1548.47 178.43,1544.00
             178.43,1544.00 173.87,1515.00 173.87,1515.00
             173.87,1515.00 165.72,1455.00 165.72,1455.00
             165.72,1455.00 147.72,1324.00 147.72,1324.00
             147.72,1324.00 140.00,1264.97 140.00,1264.97 Z" />
  <path id="Nasipit"
        fill="none" stroke="black" stroke-width="1"
        d="M 542.00,1949.04
           C 542.00,1949.04 529.00,1949.04 529.00,1949.04
             529.00,1949.04 517.00,1950.14 517.00,1950.14
             517.00,1950.14 410.00,1950.14 410.00,1950.14
             410.00,1950.14 400.00,1950.14 400.00,1950.14
             400.00,1950.14 365.00,1950.14 365.00,1950.14
             365.00,1950.14 346.31,1950.14 346.31,1950.14
             343.45,1949.19 344.00,1944.47 344.00,1942.00
             344.00,1942.00 344.00,1836.00 344.00,1836.00
             344.00,1836.00 345.14,1821.00 345.14,1821.00
             345.14,1821.00 345.14,1647.00 345.14,1647.00
             345.00,1644.88 344.92,1642.02 345.14,1640.00
             346.47,1635.65 355.38,1621.82 358.15,1617.00
             358.15,1617.00 392.15,1559.00 392.15,1559.00
             394.75,1554.47 401.08,1541.60 405.18,1539.43
             408.11,1537.88 412.73,1538.01 416.00,1538.00
             416.00,1538.00 433.00,1538.00 433.00,1538.00
             433.00,1538.00 452.00,1539.64 452.00,1539.64
             456.05,1539.37 464.28,1537.03 467.47,1539.64
             471.63,1542.94 473.27,1553.58 480.00,1554.10
             483.30,1554.35 490.79,1549.05 494.00,1547.31
             501.53,1543.23 521.91,1533.07 530.00,1533.38
             544.50,1533.93 556.79,1543.65 568.00,1551.92
             576.44,1558.15 582.56,1564.46 594.00,1563.96
             601.40,1563.64 605.94,1559.43 618.00,1557.98
             618.00,1557.98 659.00,1557.98 659.00,1557.98
             659.00,1557.98 652.42,1575.00 652.42,1575.00
             652.42,1575.00 633.42,1625.00 633.42,1625.00
             633.42,1625.00 595.58,1725.00 595.58,1725.00
             595.58,1725.00 579.58,1767.00 579.58,1767.00
             579.58,1767.00 573.09,1784.00 573.09,1784.00
             573.09,1784.00 567.58,1812.00 567.58,1812.00
             567.58,1812.00 558.39,1861.00 558.39,1861.00
             558.39,1861.00 546.58,1923.00 546.58,1923.00
             546.58,1923.00 542.00,1949.04 542.00,1949.04 Z" />
  <path id="Buenavista"
        fill="none" stroke="black" stroke-width="1"
        d="M 546.00,1954.00
           C 546.00,1954.00 551.00,1924.00 551.00,1924.00
             551.00,1924.00 560.20,1877.00 560.20,1877.00
             560.20,1877.00 573.40,1808.00 573.40,1808.00
             573.40,1808.00 578.59,1781.00 578.59,1781.00
             578.59,1781.00 595.58,1736.00 595.58,1736.00
             595.58,1736.00 629.05,1649.00 629.05,1649.00
             629.05,1649.00 655.81,1579.00 655.81,1579.00
             657.23,1575.35 662.35,1560.63 664.65,1558.83
             666.30,1557.53 668.06,1557.81 670.00,1557.87
             673.06,1557.98 677.14,1557.84 680.00,1558.63
             688.38,1560.95 697.71,1569.80 706.00,1574.57
             715.76,1580.19 723.67,1582.51 735.00,1581.96
             740.28,1581.70 743.15,1580.04 748.00,1578.34
             762.46,1573.28 775.31,1564.12 788.00,1555.67
             793.93,1551.71 800.11,1547.01 807.00,1545.00
             807.00,1545.00 809.00,1592.00 809.00,1592.00
             809.00,1592.00 810.00,1607.00 810.00,1607.00
             810.00,1607.00 812.00,1643.00 812.00,1643.00
             812.00,1643.00 813.00,1669.00 813.00,1669.00
             813.00,1669.00 814.00,1684.00 814.00,1684.00
             814.00,1684.00 815.00,1702.00 815.00,1702.00
             815.00,1702.00 816.00,1730.00 816.00,1730.00
             816.00,1730.00 816.91,1740.00 816.91,1740.00
             816.91,1740.00 818.00,1765.00 818.00,1765.00
             818.00,1765.00 819.00,1778.00 819.00,1778.00
             819.00,1778.00 820.00,1805.00 820.00,1805.00
             820.00,1805.00 821.00,1824.00 821.00,1824.00
             821.00,1824.00 823.00,1855.00 823.00,1855.00
             823.00,1855.00 825.00,1901.00 825.00,1901.00
             825.00,1901.00 827.00,1929.00 827.00,1929.00
             827.00,1929.00 829.61,1973.00 829.61,1973.00
             831.43,1980.10 838.03,1991.15 842.50,1997.00
             842.50,1997.00 854.83,2011.00 854.83,2011.00
             854.83,2011.00 885.71,2045.00 885.71,2045.00
             885.71,2045.00 902.67,2069.00 902.67,2069.00
             909.58,2079.37 919.46,2094.12 918.96,2107.00
             918.96,2107.00 914.16,2142.00 914.16,2142.00
             914.16,2142.00 910.00,2185.00 910.00,2185.00
             910.00,2185.00 910.00,2215.00 910.00,2215.00
             910.00,2215.00 881.00,2217.09 881.00,2217.09
             881.00,2217.09 863.00,2218.91 863.00,2218.91
             863.00,2218.91 823.00,2221.09 823.00,2221.09
             823.00,2221.09 805.00,2222.91 805.00,2222.91
             805.00,2222.91 744.00,2227.00 744.00,2227.00
             744.00,2227.00 735.00,2227.00 735.00,2227.00
             735.00,2227.00 717.00,2229.00 717.00,2229.00
             717.00,2229.00 708.00,2229.00 708.00,2229.00
             708.00,2229.00 647.00,2233.09 647.00,2233.09
             647.00,2233.09 628.00,2234.91 628.00,2234.91
             628.00,2234.91 589.00,2237.09 589.00,2237.09
             589.00,2237.09 556.00,2239.91 556.00,2239.91
             556.00,2239.91 532.00,2241.09 532.00,2241.09
             532.00,2241.09 513.00,2242.91 513.00,2242.91
             513.00,2242.91 444.00,2247.09 444.00,2247.09
             444.00,2247.09 410.00,2249.91 410.00,2249.91
             410.00,2249.91 370.00,2252.09 370.00,2252.09
             370.00,2252.09 336.00,2254.91 336.00,2254.91
             336.00,2254.91 282.00,2258.09 282.00,2258.09
             282.00,2258.09 235.00,2261.00 235.00,2261.00
             235.00,2261.00 234.00,2235.00 234.00,2235.00
             234.00,2235.00 232.00,2209.00 232.00,2209.00
             232.00,2209.00 231.00,2191.00 231.00,2191.00
             231.00,2191.00 230.00,2170.00 230.00,2170.00
             230.00,2170.00 229.00,2156.00 229.00,2156.00
             229.00,2156.00 227.74,2130.00 227.74,2130.00
             227.74,2130.00 228.91,2116.00 228.91,2116.00
             228.91,2116.00 231.09,2077.00 231.09,2077.00
             231.09,2077.00 232.97,2054.00 232.97,2054.00
             232.97,2054.00 236.91,1999.00 236.91,1999.00
             237.19,1994.97 237.63,1977.91 238.89,1975.28
             241.00,1970.89 255.31,1971.29 260.00,1970.83
             260.00,1970.83 283.00,1968.17 283.00,1968.17
             283.00,1968.17 321.00,1964.72 321.00,1964.72
             321.00,1964.72 335.00,1963.03 335.00,1963.03
             337.42,1962.90 340.52,1963.10 342.40,1961.26
             343.92,1959.78 343.84,1957.93 344.00,1956.00
             344.00,1956.00 400.00,1956.00 400.00,1956.00
             400.00,1956.00 417.00,1955.00 417.00,1955.00
             417.00,1955.00 522.00,1955.00 522.00,1955.00
             522.00,1955.00 537.00,1954.00 537.00,1954.00
             537.00,1954.00 546.00,1954.00 546.00,1954.00 Z" />
  <path id="Butuan"
        fill="none" stroke="black" stroke-width="1"
        d="M 1151.00,1383.00
           C 1151.00,1383.00 1270.00,1383.00 1270.00,1383.00
             1270.00,1383.00 1285.00,1382.01 1285.00,1382.01
             1285.00,1382.01 1299.00,1383.00 1299.00,1383.00
             1299.00,1383.00 1435.00,1383.00 1435.00,1383.00
             1435.00,1383.00 1527.00,1383.00 1527.00,1383.00
             1527.00,1383.00 1581.00,1382.00 1581.00,1382.00
             1581.00,1382.00 1563.01,1429.00 1563.01,1429.00
             1554.74,1449.04 1551.15,1464.70 1536.54,1481.96
             1536.54,1481.96 1502.09,1513.04 1502.09,1513.04
             1498.86,1516.37 1495.47,1521.21 1492.63,1525.00
             1489.74,1528.85 1487.48,1531.56 1485.44,1536.00
             1485.44,1536.00 1471.58,1568.00 1471.58,1568.00
             1471.58,1568.00 1463.42,1587.00 1463.42,1587.00
             1448.20,1627.34 1435.95,1669.17 1425.63,1711.00
             1425.63,1711.00 1415.46,1752.00 1415.46,1752.00
             1415.46,1752.00 1411.72,1778.00 1411.72,1778.00
             1410.83,1784.75 1410.01,1787.94 1410.00,1795.00
             1410.00,1795.00 1410.00,1823.00 1410.00,1823.00
             1410.00,1823.00 1409.00,1838.00 1409.00,1838.00
             1409.00,1838.00 1409.00,1855.00 1409.00,1855.00
             1408.99,1860.95 1405.61,1887.41 1404.07,1893.00
             1403.16,1896.33 1401.37,1899.97 1399.69,1903.00
             1391.46,1917.88 1379.06,1926.55 1370.34,1947.00
             1365.26,1958.89 1365.06,1983.07 1358.09,1996.00
             1351.94,2007.38 1342.12,2012.32 1332.83,2032.00
             1331.65,2034.51 1329.19,2038.85 1328.93,2041.42
             1328.33,2047.40 1332.89,2052.46 1336.14,2057.00
             1342.89,2066.43 1344.51,2069.52 1349.14,2080.00
             1349.14,2080.00 1364.44,2115.00 1364.44,2115.00
             1364.44,2115.00 1380.45,2145.00 1380.45,2145.00
             1381.09,2147.49 1381.00,2150.43 1381.00,2153.00
             1381.00,2153.00 1381.00,2184.00 1381.00,2184.00
             1381.00,2184.00 1363.00,2184.91 1363.00,2184.91
             1363.00,2184.91 1323.00,2187.09 1323.00,2187.09
             1323.00,2187.09 1305.00,2189.00 1305.00,2189.00
             1305.00,2189.00 1296.00,2189.00 1296.00,2189.00
             1296.00,2189.00 1232.00,2193.96 1232.00,2193.96
             1232.00,2193.96 1223.00,2193.96 1223.00,2193.96
             1223.00,2193.96 1200.00,2195.91 1200.00,2195.91
             1200.00,2195.91 1150.00,2200.00 1150.00,2200.00
             1144.62,2188.75 1142.02,2181.90 1138.35,2170.00
             1136.78,2164.91 1135.25,2159.01 1137.84,2154.04
             1141.31,2147.38 1149.35,2145.60 1154.96,2141.37
             1161.86,2136.16 1167.44,2124.96 1170.42,2117.00
             1172.08,2112.58 1173.57,2109.88 1173.15,2105.00
             1172.28,2094.85 1159.32,2071.13 1155.06,2060.00
             1148.04,2041.62 1153.13,2038.56 1143.56,2017.00
             1138.00,2004.45 1127.17,1991.81 1127.00,1978.00
             1126.96,1974.36 1127.36,1967.15 1126.30,1964.00
             1124.95,1959.98 1118.63,1952.43 1115.73,1949.00
             1115.73,1949.00 1101.91,1933.00 1101.91,1933.00
             1101.91,1933.00 1089.68,1920.00 1089.68,1920.00
             1082.00,1910.04 1083.63,1902.85 1074.96,1895.33
             1065.99,1887.55 1046.03,1886.59 1043.99,1875.00
             1043.28,1870.96 1046.10,1867.77 1049.02,1865.39
             1055.62,1860.01 1064.49,1859.11 1070.82,1852.82
             1084.50,1839.21 1086.82,1820.27 1087.00,1802.00
             1087.12,1789.51 1085.03,1784.56 1082.13,1773.00
             1078.92,1760.23 1076.43,1749.70 1069.97,1738.00
             1065.34,1729.63 1054.52,1719.81 1051.98,1712.00
             1050.43,1707.24 1053.09,1696.44 1052.68,1691.00
             1052.68,1691.00 1049.08,1669.00 1049.08,1669.00
             1047.44,1659.08 1045.80,1647.18 1041.69,1638.00
             1035.70,1624.63 1025.62,1621.12 1014.00,1613.33
             1007.93,1609.26 1000.78,1602.83 1001.47,1594.72
             1002.92,1577.48 1008.58,1574.05 1006.57,1552.00
             1005.21,1537.07 997.93,1529.12 991.31,1517.00
             991.31,1517.00 985.18,1503.00 985.18,1503.00
             979.04,1491.32 969.70,1491.05 964.10,1486.45
             957.91,1481.34 952.47,1462.79 954.00,1455.00
             962.86,1456.59 972.02,1456.04 981.00,1456.00
             981.00,1456.00 997.00,1455.00 997.00,1455.00
             997.00,1455.00 1009.00,1455.00 1009.00,1455.00
             1011.65,1455.01 1014.57,1454.81 1017.00,1456.02
             1017.00,1456.02 1043.17,1482.40 1043.17,1482.40
             1046.82,1484.95 1059.17,1484.05 1064.00,1484.00
             1064.00,1484.00 1079.00,1483.00 1079.00,1483.00
             1079.00,1483.00 1102.00,1483.00 1102.00,1483.00
             1102.00,1483.00 1117.00,1482.00 1117.00,1482.00
             1117.00,1482.00 1132.00,1482.00 1132.00,1482.00
             1132.00,1482.00 1144.00,1481.06 1144.00,1481.06
             1144.00,1481.06 1159.00,1481.06 1159.00,1481.06
             1159.00,1481.06 1157.17,1459.00 1157.17,1459.00
             1157.17,1459.00 1153.83,1421.00 1153.83,1421.00
             1153.83,1421.00 1151.00,1383.00 1151.00,1383.00 Z
           M 926.00,1484.47
           C 936.25,1483.38 934.30,1492.14 943.18,1501.98
             948.29,1507.64 958.32,1512.68 965.00,1517.08
             973.54,1522.70 982.51,1532.13 985.78,1542.00
             992.08,1561.01 985.20,1573.55 985.00,1592.00
             984.89,1602.42 986.47,1613.88 994.21,1621.70
             1004.90,1632.51 1017.04,1632.47 1024.60,1647.00
             1028.89,1655.25 1032.59,1677.43 1032.96,1687.00
             1033.45,1699.73 1025.90,1707.45 1028.61,1718.00
             1030.39,1724.96 1034.42,1731.14 1040.00,1735.62
             1045.56,1740.09 1050.02,1740.63 1054.53,1747.04
             1060.53,1755.54 1060.41,1766.14 1061.09,1776.00
             1061.09,1776.00 1062.00,1792.00 1062.00,1792.00
             1061.85,1804.98 1059.03,1817.84 1054.69,1830.00
             1053.58,1833.12 1050.83,1841.48 1049.16,1843.82
             1045.66,1848.72 1035.10,1852.58 1030.18,1856.63
             1022.73,1862.77 1023.60,1867.55 1025.20,1876.00
             1025.64,1878.33 1026.03,1881.95 1026.84,1884.00
             1032.97,1899.70 1048.49,1905.47 1061.00,1914.76
             1070.71,1921.97 1082.46,1935.47 1090.20,1945.00
             1098.40,1955.11 1105.08,1961.97 1108.39,1975.00
             1110.40,1982.87 1109.11,1996.41 1111.53,2002.00
             1115.03,2010.07 1127.64,2019.27 1128.77,2026.00
             1129.87,2032.51 1125.83,2036.20 1124.67,2041.00
             1123.82,2044.53 1125.89,2055.24 1127.03,2059.00
             1130.15,2069.29 1134.09,2076.30 1140.29,2085.00
             1145.46,2092.25 1150.87,2096.78 1151.00,2106.00
             1151.04,2109.37 1151.25,2113.89 1149.99,2117.00
             1147.47,2123.23 1131.21,2135.26 1125.16,2140.50
             1120.73,2144.35 1112.86,2150.84 1112.31,2157.00
             1111.69,2164.11 1123.38,2180.86 1126.68,2188.00
             1127.97,2190.81 1130.48,2197.42 1127.43,2199.83
             1125.26,2201.54 1117.99,2200.88 1115.00,2201.09
             1115.00,2201.09 1097.00,2203.10 1097.00,2203.10
             1097.00,2203.10 1086.00,2203.10 1086.00,2203.10
             1086.00,2203.10 1042.00,2206.09 1042.00,2206.09
             1042.00,2206.09 962.00,2211.91 962.00,2211.91
             962.00,2211.91 938.00,2213.09 938.00,2213.09
             938.00,2213.09 929.00,2213.99 929.00,2213.99
             926.24,2214.13 919.59,2215.52 917.60,2213.99
             915.63,2212.45 916.00,2208.27 916.00,2206.00
             916.00,2206.00 916.00,2174.00 916.00,2174.00
             916.00,2174.00 923.00,2106.00 923.00,2106.00
             922.83,2091.52 913.71,2078.56 906.00,2067.00
             899.93,2057.90 891.83,2046.12 884.71,2038.00
             884.71,2038.00 844.04,1992.00 844.04,1992.00
             835.59,1980.15 833.02,1973.36 833.00,1959.00
             833.00,1959.00 832.00,1944.00 832.00,1944.00
             832.00,1944.00 831.00,1915.00 831.00,1915.00
             831.00,1915.00 830.00,1896.00 830.00,1896.00
             830.00,1896.00 828.00,1864.00 828.00,1864.00
             828.00,1864.00 827.00,1846.00 827.00,1846.00
             827.00,1846.00 826.00,1817.00 826.00,1817.00
             826.00,1817.00 824.00,1788.00 824.00,1788.00
             824.00,1788.00 823.00,1760.00 823.00,1760.00
             823.00,1760.00 822.04,1750.00 822.04,1750.00
             822.04,1750.00 822.04,1739.00 822.04,1739.00
             822.04,1739.00 821.00,1724.00 821.00,1724.00
             821.00,1724.00 820.00,1704.00 820.00,1704.00
             820.00,1704.00 818.91,1678.00 818.91,1678.00
             818.91,1678.00 817.91,1658.00 817.91,1658.00
             817.91,1658.00 817.00,1646.00 817.00,1646.00
             817.00,1646.00 816.00,1625.00 816.00,1625.00
             816.00,1625.00 815.00,1604.00 815.00,1604.00
             815.00,1604.00 814.00,1585.00 814.00,1585.00
             814.00,1585.00 812.89,1567.00 812.89,1567.00
             812.89,1567.00 812.89,1556.00 812.89,1556.00
             812.17,1552.92 811.17,1544.15 812.89,1541.70
             814.32,1539.90 819.79,1538.08 822.00,1537.20
             822.00,1537.20 846.00,1528.19 846.00,1528.19
             859.19,1523.19 873.13,1518.84 884.99,1510.90
             884.99,1510.90 898.00,1499.46 898.00,1499.46
             904.03,1494.54 918.53,1486.24 926.00,1484.47 Z" />
  <path id="Magallanes"
        fill="none" stroke="black" stroke-width="1"
        d="M 956.00,1421.00
           C 956.00,1421.00 970.21,1403.00 970.21,1403.00
             970.21,1403.00 982.54,1391.91 982.54,1391.91
             982.54,1391.91 998.28,1368.00 998.28,1368.00
             998.28,1368.00 1005.56,1355.00 1005.56,1355.00
             1005.56,1355.00 1009.70,1346.99 1009.70,1346.99
             1009.70,1346.99 1017.00,1346.00 1017.00,1346.00
             1017.00,1346.00 1045.00,1346.00 1045.00,1346.00
             1045.00,1346.00 1062.00,1347.00 1062.00,1347.00
             1062.00,1347.00 1128.00,1347.00 1128.00,1347.00
             1128.00,1347.00 1142.00,1348.00 1142.00,1348.00
             1142.00,1348.00 1144.83,1378.00 1144.83,1378.00
             1144.83,1378.00 1151.17,1446.00 1151.17,1446.00
             1151.17,1446.00 1153.03,1467.00 1153.03,1467.00
             1153.03,1467.00 1153.03,1475.40 1153.03,1475.40
             1153.03,1475.40 1145.00,1477.00 1145.00,1477.00
             1145.00,1477.00 1120.00,1477.00 1120.00,1477.00
             1120.00,1477.00 1105.00,1478.00 1105.00,1478.00
             1105.00,1478.00 1083.00,1478.00 1083.00,1478.00
             1083.00,1478.00 1068.00,1479.00 1068.00,1479.00
             1068.00,1479.00 1053.00,1479.00 1053.00,1479.00
             1053.00,1479.00 1045.00,1477.98 1045.00,1477.98
             1045.00,1477.98 1036.83,1470.00 1036.83,1470.00
             1036.83,1470.00 1025.17,1458.00 1025.17,1458.00
             1025.17,1458.00 1017.99,1451.02 1017.99,1451.02
             1017.99,1451.02 1010.00,1450.00 1010.00,1450.00
             1010.00,1450.00 990.00,1450.00 990.00,1450.00
             990.00,1450.00 973.00,1451.13 973.00,1451.13
             973.00,1451.13 961.00,1451.13 961.00,1451.13
             961.00,1451.13 954.06,1449.43 954.06,1449.43
             954.06,1449.43 954.06,1441.00 954.06,1441.00
             954.06,1441.00 956.00,1421.00 956.00,1421.00 Z
           M 958.00,1422.00
           C 958.00,1422.00 957.00,1422.00 957.00,1422.00
             957.00,1422.00 958.00,1423.00 958.00,1423.00
             958.00,1423.00 958.00,1422.00 958.00,1422.00 Z" />
  <path id="Remedios T. Romualdez"
        fill="none" stroke="black" stroke-width="1"
        d="M 1583.00,1378.00
           C 1569.15,1376.17 1554.96,1377.00 1541.00,1377.00
             1541.00,1377.00 1473.00,1377.00 1473.00,1377.00
             1473.00,1377.00 1332.00,1377.00 1332.00,1377.00
             1332.00,1377.00 1317.00,1378.00 1317.00,1378.00
             1317.00,1378.00 1248.00,1378.00 1248.00,1378.00
             1248.00,1378.00 1158.00,1378.00 1158.00,1378.00
             1156.06,1378.00 1152.28,1378.25 1150.74,1377.01
             1148.70,1375.36 1149.08,1371.37 1148.96,1369.00
             1148.96,1369.00 1147.16,1348.04 1147.16,1348.04
             1147.73,1343.82 1154.83,1338.04 1158.00,1335.17
             1158.00,1335.17 1174.00,1320.91 1174.00,1320.91
             1181.85,1313.61 1184.71,1308.02 1196.00,1308.00
             1196.00,1308.00 1265.00,1308.00 1265.00,1308.00
             1265.00,1308.00 1280.00,1307.00 1280.00,1307.00
             1280.00,1307.00 1375.00,1307.00 1375.00,1307.00
             1375.00,1307.00 1390.00,1306.00 1390.00,1306.00
             1390.00,1306.00 1485.00,1306.00 1485.00,1306.00
             1485.00,1306.00 1500.00,1304.88 1500.00,1304.88
             1500.00,1304.88 1550.00,1304.88 1550.00,1304.88
             1550.00,1304.88 1569.00,1304.88 1569.00,1304.88
             1569.00,1304.88 1594.00,1304.88 1594.00,1304.88
             1594.00,1304.88 1609.00,1304.00 1609.00,1304.00
             1609.00,1304.00 1599.05,1335.00 1599.05,1335.00
             1599.05,1335.00 1583.00,1378.00 1583.00,1378.00 Z" />
  <path id="Cabadbaran"
        fill="none" stroke="black" stroke-width="1"
        d="M 1291.00,912.00
           C 1291.00,912.00 1316.00,912.00 1316.00,912.00
             1316.00,912.00 1328.00,912.96 1328.00,912.96
             1328.00,912.96 1343.00,912.96 1343.00,912.96
             1343.00,912.96 1360.00,914.00 1360.00,914.00
             1360.00,914.00 1418.00,915.00 1418.00,915.00
             1418.00,915.00 1435.00,916.00 1435.00,916.00
             1435.00,916.00 1456.00,916.00 1456.00,916.00
             1456.00,916.00 1472.00,917.00 1472.00,917.00
             1472.00,917.00 1494.00,917.00 1494.00,917.00
             1494.00,917.00 1510.00,918.00 1510.00,918.00
             1510.00,918.00 1530.00,918.00 1530.00,918.00
             1530.00,918.00 1542.00,918.96 1542.00,918.96
             1542.00,918.96 1557.00,918.96 1557.00,918.96
             1557.00,918.96 1574.00,920.00 1574.00,920.00
             1574.00,920.00 1595.00,920.00 1595.00,920.00
             1595.00,920.00 1609.00,921.00 1609.00,921.00
             1609.00,921.00 1629.00,921.00 1629.00,921.00
             1630.98,921.00 1634.11,920.88 1635.91,921.60
             1640.92,923.59 1645.98,935.04 1647.98,940.00
             1650.67,946.65 1653.06,961.30 1654.60,969.00
             1657.40,982.98 1660.98,996.68 1661.04,1011.00
             1661.04,1011.00 1661.04,1024.00 1661.04,1024.00
             1661.04,1024.00 1662.00,1036.00 1662.00,1036.00
             1662.00,1036.00 1662.00,1060.00 1662.00,1060.00
             1662.00,1060.00 1659.17,1090.00 1659.17,1090.00
             1659.17,1090.00 1655.72,1124.00 1655.72,1124.00
             1655.72,1124.00 1645.80,1177.00 1645.80,1177.00
             1641.24,1199.83 1628.42,1246.73 1621.00,1269.00
             1621.00,1269.00 1614.33,1290.00 1614.33,1290.00
             1613.58,1292.30 1612.48,1296.57 1610.49,1297.98
             1608.25,1299.57 1598.06,1300.00 1595.00,1300.00
             1595.00,1300.00 1501.00,1300.00 1501.00,1300.00
             1501.00,1300.00 1486.00,1301.00 1486.00,1301.00
             1486.00,1301.00 1391.00,1301.00 1391.00,1301.00
             1391.00,1301.00 1376.00,1302.00 1376.00,1302.00
             1376.00,1302.00 1318.00,1302.00 1318.00,1302.00
             1318.00,1302.00 1301.00,1303.00 1301.00,1303.00
             1301.00,1303.00 1209.00,1303.00 1209.00,1303.00
             1203.66,1303.01 1189.03,1303.50 1185.00,1306.15
             1185.00,1306.15 1158.00,1330.00 1158.00,1330.00
             1150.62,1337.03 1147.39,1341.98 1137.00,1342.00
             1137.00,1342.00 1105.00,1342.00 1105.00,1342.00
             1105.00,1342.00 1088.00,1341.00 1088.00,1341.00
             1088.00,1341.00 1012.00,1341.00 1012.00,1341.00
             1012.00,1341.00 1013.68,1332.00 1013.68,1332.00
             1013.68,1332.00 1015.83,1307.00 1015.83,1307.00
             1015.83,1307.00 1014.28,1293.00 1014.28,1293.00
             1014.28,1293.00 1012.54,1277.00 1012.54,1277.00
             1012.54,1277.00 1003.28,1240.00 1003.28,1240.00
             1000.78,1231.63 995.67,1214.10 992.02,1207.00
             987.41,1198.03 981.46,1194.28 982.04,1183.00
             982.54,1173.40 989.85,1172.17 987.62,1161.00
             985.80,1151.87 976.66,1140.09 976.00,1126.00
             976.00,1126.00 1017.00,1127.18 1017.00,1127.18
             1017.00,1127.18 1038.00,1127.18 1038.00,1127.18
             1038.00,1127.18 1058.00,1119.11 1058.00,1119.11
             1058.00,1119.11 1094.00,1122.84 1094.00,1122.84
             1094.00,1122.84 1147.00,1129.00 1147.00,1129.00
             1147.00,1129.00 1148.00,1112.00 1148.00,1112.00
             1148.00,1112.00 1148.00,1084.00 1148.00,1084.00
             1148.00,1084.00 1149.00,1067.00 1149.00,1067.00
             1149.00,1067.00 1150.00,1030.00 1150.00,1030.00
             1150.00,1030.00 1180.00,1027.17 1180.00,1027.17
             1180.00,1027.17 1250.00,1020.83 1250.00,1020.83
             1250.00,1020.83 1289.00,1017.00 1289.00,1017.00
             1289.00,1017.00 1289.00,987.00 1289.00,987.00
             1289.00,987.00 1290.00,970.00 1290.00,970.00
             1290.00,970.00 1291.00,912.00 1291.00,912.00 Z" />
  <path id="Tubay"
        fill="none" stroke="black" stroke-width="1"
        d="M 899.00,631.00
           C 899.00,631.00 962.00,654.19 962.00,654.19
             967.34,656.21 981.85,659.93 984.78,664.22
             986.63,666.94 990.28,679.04 991.69,683.00
             991.69,683.00 1004.69,720.00 1004.69,720.00
             1004.69,720.00 1036.31,809.00 1036.31,809.00
             1036.31,809.00 1050.58,850.00 1050.58,850.00
             1050.58,850.00 1064.67,890.00 1064.67,890.00
             1069.98,905.94 1069.65,905.98 1079.00,906.00
             1079.00,906.00 1102.00,906.00 1102.00,906.00
             1102.00,906.00 1114.00,906.96 1114.00,906.96
             1114.00,906.96 1128.00,906.96 1128.00,906.96
             1128.00,906.96 1145.00,908.00 1145.00,908.00
             1145.00,908.00 1204.00,909.00 1204.00,909.00
             1204.00,909.00 1219.00,910.00 1219.00,910.00
             1219.00,910.00 1241.00,910.00 1241.00,910.00
             1241.00,910.00 1258.00,911.00 1258.00,911.00
             1258.00,911.00 1279.00,911.00 1279.00,911.00
             1280.95,911.04 1283.63,910.90 1284.98,912.60
             1286.45,914.46 1286.03,922.38 1286.00,925.00
             1286.00,925.00 1285.00,940.00 1285.00,940.00
             1285.00,940.00 1285.00,957.00 1285.00,957.00
             1285.00,957.00 1284.00,973.00 1284.00,973.00
             1284.00,973.00 1284.00,1002.00 1284.00,1002.00
             1284.00,1004.77 1284.32,1009.29 1282.26,1011.40
             1280.34,1013.37 1276.58,1012.92 1274.00,1013.17
             1274.00,1013.17 1252.00,1015.28 1252.00,1015.28
             1252.00,1015.28 1202.00,1020.17 1202.00,1020.17
             1202.00,1020.17 1162.00,1024.17 1162.00,1024.17
             1162.00,1024.17 1144.96,1026.00 1144.96,1026.00
             1144.96,1026.00 1144.96,1041.00 1144.96,1041.00
             1144.96,1041.00 1144.00,1053.00 1144.00,1053.00
             1144.00,1053.00 1144.00,1071.00 1144.00,1071.00
             1144.00,1071.00 1143.04,1083.00 1143.04,1083.00
             1143.04,1083.00 1143.04,1096.00 1143.04,1096.00
             1143.04,1096.00 1142.04,1108.00 1142.04,1108.00
             1142.04,1108.00 1142.04,1123.00 1142.04,1123.00
             1142.04,1123.00 1073.00,1115.83 1073.00,1115.83
             1073.00,1115.83 1058.00,1114.19 1058.00,1114.19
             1049.21,1114.45 1045.63,1122.97 1031.00,1123.00
             1031.00,1123.00 1008.00,1122.00 1008.00,1122.00
             1008.00,1122.00 975.00,1121.00 975.00,1121.00
             975.00,1121.00 975.82,1105.00 975.82,1105.00
             974.72,1089.50 973.45,1082.91 979.91,1068.00
             979.91,1068.00 994.89,1039.28 994.89,1039.28
             1000.84,1029.34 1006.70,1021.19 1006.99,1009.00
             1007.21,999.47 1006.32,991.18 1000.82,983.09
             997.26,977.85 990.74,973.90 988.61,968.00
             988.61,968.00 983.51,943.00 983.51,943.00
             982.04,934.78 982.99,931.49 977.81,923.95
             971.63,914.94 957.88,912.13 954.58,901.00
             952.64,894.47 959.60,879.51 957.69,872.04
             954.82,860.85 938.49,864.19 935.42,854.00
             933.27,846.87 932.14,829.29 933.71,822.00
             935.92,811.77 941.67,795.22 940.81,785.00
             940.04,775.80 934.47,769.73 933.39,765.00
             933.39,765.00 934.00,734.00 934.00,734.00
             934.04,724.10 934.38,703.00 928.42,695.19
             924.38,689.90 916.15,689.58 912.60,682.96
             910.50,679.03 907.92,663.33 906.56,658.00
             906.56,658.00 899.00,631.00 899.00,631.00 Z" />
  <path id="Santiago"
        fill="none" stroke="black" stroke-width="1"
        d="M 992.00,666.00
           C 998.63,666.60 1012.19,672.03 1019.00,674.58
             1019.00,674.58 1055.00,687.33 1055.00,687.33
             1064.81,690.64 1067.27,692.98 1078.00,693.00
             1078.00,693.00 1102.00,693.00 1102.00,693.00
             1102.00,693.00 1119.00,694.00 1119.00,694.00
             1119.00,694.00 1190.00,695.00 1190.00,695.00
             1190.00,695.00 1207.00,696.00 1207.00,696.00
             1207.00,696.00 1222.00,696.00 1222.00,696.00
             1222.00,696.00 1238.00,697.00 1238.00,697.00
             1238.00,697.00 1265.00,697.00 1265.00,697.00
             1265.00,697.00 1282.00,698.00 1282.00,698.00
             1282.00,698.00 1399.00,700.00 1399.00,700.00
             1399.00,700.00 1416.00,701.00 1416.00,701.00
             1416.00,701.00 1443.00,701.00 1443.00,701.00
             1443.00,701.00 1460.00,702.00 1460.00,702.00
             1460.00,702.00 1475.00,702.00 1475.00,702.00
             1475.00,702.00 1491.00,703.00 1491.00,703.00
             1491.00,703.00 1518.00,703.00 1518.00,703.00
             1518.00,703.00 1535.00,704.00 1535.00,704.00
             1535.00,704.00 1611.04,705.00 1611.04,705.00
             1611.04,705.00 1611.04,717.00 1611.04,717.00
             1611.04,717.00 1612.13,729.00 1612.13,729.00
             1612.13,729.00 1612.13,751.00 1612.13,751.00
             1612.13,751.00 1612.13,763.00 1612.13,763.00
             1612.13,763.00 1612.13,769.00 1612.13,769.00
             1612.13,769.00 1613.10,784.00 1613.10,784.00
             1613.10,784.00 1613.10,814.00 1613.10,814.00
             1613.10,814.00 1613.10,827.00 1613.10,827.00
             1613.10,827.00 1614.00,840.00 1614.00,840.00
             1614.00,840.00 1614.00,862.00 1614.00,862.00
             1614.00,862.00 1615.00,876.00 1615.00,876.00
             1615.05,880.34 1614.28,893.68 1616.02,896.83
             1618.33,901.00 1627.60,906.24 1632.00,916.00
             1632.00,916.00 1612.00,915.00 1612.00,915.00
             1612.00,915.00 1589.00,915.00 1589.00,915.00
             1589.00,915.00 1572.00,914.00 1572.00,914.00
             1572.00,914.00 1472.00,912.00 1472.00,912.00
             1472.00,912.00 1460.00,911.04 1460.00,911.04
             1460.00,911.04 1444.00,911.04 1444.00,911.04
             1444.00,911.04 1428.00,910.00 1428.00,910.00
             1428.00,910.00 1406.00,910.00 1406.00,910.00
             1406.00,910.00 1389.00,909.00 1389.00,909.00
             1389.00,909.00 1365.00,909.00 1365.00,909.00
             1365.00,909.00 1350.00,908.00 1350.00,908.00
             1350.00,908.00 1289.00,907.00 1289.00,907.00
             1289.00,907.00 1274.00,906.00 1274.00,906.00
             1274.00,906.00 1261.00,906.00 1261.00,906.00
             1261.00,906.00 1245.00,905.00 1245.00,905.00
             1245.00,905.00 1223.00,905.00 1223.00,905.00
             1223.00,905.00 1206.00,904.00 1206.00,904.00
             1206.00,904.00 1183.00,904.00 1183.00,904.00
             1183.00,904.00 1166.00,903.00 1166.00,903.00
             1166.00,903.00 1144.00,903.00 1144.00,903.00
             1144.00,903.00 1127.00,902.00 1127.00,902.00
             1127.00,902.00 1105.00,902.00 1105.00,902.00
             1105.00,902.00 1090.00,901.00 1090.00,901.00
             1090.00,901.00 1073.00,901.00 1073.00,901.00
             1073.00,901.00 1055.34,850.00 1055.34,850.00
             1055.34,850.00 1014.31,733.00 1014.31,733.00
             1014.31,733.00 1000.31,693.00 1000.31,693.00
             1000.31,693.00 992.00,666.00 992.00,666.00 Z" />
  <path id="Jabonga"
        fill="none" stroke="black" stroke-width="1"
        d="M 1611.00,701.00
           C 1611.00,701.00 1593.00,700.00 1593.00,700.00
             1593.00,700.00 1576.00,700.00 1576.00,700.00
             1576.00,700.00 1559.00,699.00 1559.00,699.00
             1559.00,699.00 1532.00,699.00 1532.00,699.00
             1532.00,699.00 1515.00,698.00 1515.00,698.00
             1515.00,698.00 1486.00,698.00 1486.00,698.00
             1486.00,698.00 1471.00,697.00 1471.00,697.00
             1471.00,697.00 1399.00,696.00 1399.00,696.00
             1399.00,696.00 1383.00,695.00 1383.00,695.00
             1383.00,695.00 1355.00,695.00 1355.00,695.00
             1355.00,695.00 1338.00,694.00 1338.00,694.00
             1338.00,694.00 1323.00,694.00 1323.00,694.00
             1323.00,694.00 1307.00,693.00 1307.00,693.00
             1307.00,693.00 1279.00,693.00 1279.00,693.00
             1279.00,693.00 1262.00,692.00 1262.00,692.00
             1262.00,692.00 1235.00,692.00 1235.00,692.00
             1235.00,692.00 1218.00,691.00 1218.00,691.00
             1218.00,691.00 1191.00,691.00 1191.00,691.00
             1191.00,691.00 1174.00,690.00 1174.00,690.00
             1174.00,690.00 1147.00,690.00 1147.00,690.00
             1147.00,690.00 1130.00,689.00 1130.00,689.00
             1130.00,689.00 1115.00,689.00 1115.00,689.00
             1115.00,689.00 1099.00,688.00 1099.00,688.00
             1099.00,688.00 1078.00,688.00 1078.00,688.00
             1065.39,687.98 1053.77,681.63 1042.00,677.67
             1042.00,677.67 967.00,651.05 967.00,651.05
             967.00,651.05 924.00,635.67 924.00,635.67
             924.00,635.67 899.13,626.73 899.13,626.73
             894.46,623.86 891.86,610.46 890.00,605.00
             890.00,605.00 877.00,572.00 877.00,572.00
             875.63,568.56 870.92,556.66 869.19,554.28
             866.16,550.15 860.64,546.43 856.00,544.31
             851.66,542.33 847.81,541.85 844.63,537.89
             841.91,534.49 833.07,516.26 832.33,512.00
             832.33,512.00 830.24,491.00 830.24,491.00
             827.42,480.62 815.60,478.72 813.42,470.91
             812.11,466.18 814.38,459.87 814.95,455.00
             814.95,455.00 818.91,417.00 818.91,417.00
             819.24,411.17 817.18,393.69 813.35,389.39
             811.58,387.40 807.49,385.35 805.00,384.35
             798.31,381.66 792.41,384.51 788.72,380.49
             785.13,376.57 785.99,364.32 786.00,359.00
             786.00,359.00 787.00,344.00 787.00,344.00
             787.03,341.24 786.64,336.56 788.02,334.21
             790.11,330.67 803.76,324.27 808.00,322.42
             808.00,322.42 858.00,302.67 858.00,302.67
             865.98,300.00 872.47,296.72 881.00,296.00
             881.69,300.46 883.84,305.92 883.74,310.00
             883.53,319.00 875.19,334.31 888.00,338.35
             889.69,338.88 891.27,338.90 893.00,339.00
             892.06,348.08 886.18,354.24 887.47,360.00
             889.23,367.86 899.57,370.42 902.40,374.21
             905.56,378.45 902.52,387.63 905.98,394.00
             909.19,399.90 917.79,404.39 919.09,409.01
             919.09,409.01 915.42,433.00 915.42,433.00
             915.64,441.56 922.87,451.21 922.93,462.00
             923.04,465.71 921.98,475.64 922.93,478.00
             924.74,482.99 930.69,486.79 931.69,493.00
             932.78,498.74 929.72,506.92 931.69,512.00
             933.87,518.14 941.22,520.07 943.01,522.63
             944.59,524.91 943.99,534.81 944.00,538.00
             944.03,557.09 955.97,555.88 956.00,573.00
             956.01,577.22 955.28,584.38 956.91,588.00
             959.00,592.63 967.40,602.31 973.00,601.32
             978.21,600.41 982.40,594.16 985.00,590.00
             988.13,594.73 986.95,597.31 992.04,601.78
             995.42,604.74 999.81,605.69 1004.00,606.98
             1015.54,610.51 1027.08,610.50 1039.04,610.05
             1045.55,609.81 1059.51,608.90 1062.27,601.98
             1063.69,598.38 1062.81,591.82 1062.27,588.00
             1062.27,588.00 1057.44,559.00 1057.44,559.00
             1056.34,550.38 1061.38,535.80 1063.86,527.00
             1065.44,521.40 1067.55,511.44 1070.65,507.00
             1076.16,499.11 1087.41,493.58 1088.30,486.00
             1088.65,482.94 1087.07,478.84 1086.00,476.00
             1086.00,476.00 1110.00,476.00 1110.00,476.00
             1110.00,476.00 1159.00,476.00 1159.00,476.00
             1159.00,476.00 1277.00,476.00 1277.00,476.00
             1277.00,476.00 1292.00,475.00 1292.00,475.00
             1292.00,475.00 1586.00,475.00 1586.00,475.00
             1586.00,475.00 1590.71,497.00 1590.71,497.00
             1590.71,497.00 1593.28,519.00 1593.28,519.00
             1593.28,519.00 1602.16,600.00 1602.16,600.00
             1602.16,600.00 1610.00,653.00 1610.00,653.00
             1610.00,653.00 1611.00,673.00 1611.00,673.00
             1611.00,673.00 1611.00,701.00 1611.00,701.00 Z" />
  <path id="Kitcharao"
        fill="none" stroke="black" stroke-width="1"
        d="M 1584.00,471.00
           C 1584.00,471.00 1358.00,471.00 1358.00,471.00
             1358.00,471.00 1209.00,471.00 1209.00,471.00
             1209.00,471.00 1089.00,471.00 1089.00,471.00
             1086.46,471.00 1083.41,471.12 1081.00,470.30
             1070.05,466.55 1065.14,451.45 1064.74,441.00
             1064.27,428.51 1067.12,417.12 1069.39,405.00
             1072.58,387.99 1075.96,371.34 1076.92,354.00
             1077.92,336.03 1068.72,320.44 1070.41,304.00
             1071.00,298.22 1076.11,285.52 1082.09,283.77
             1084.23,283.14 1091.48,284.51 1094.00,284.92
             1094.00,284.92 1120.00,288.92 1120.00,288.92
             1120.00,288.92 1149.00,294.58 1149.00,294.58
             1149.00,294.58 1217.00,305.87 1217.00,305.87
             1217.00,305.87 1307.00,316.83 1307.00,316.83
             1342.47,320.27 1375.20,322.09 1410.00,331.74
             1430.05,337.31 1458.71,348.19 1477.00,357.89
             1477.00,357.89 1500.00,371.60 1500.00,371.60
             1508.21,376.53 1529.45,391.78 1535.96,398.09
             1547.58,409.35 1557.72,422.58 1566.67,436.00
             1573.53,446.29 1581.76,458.63 1584.00,471.00 Z" />
</svg>
