<?xml version="1.0" encoding="UTF-8" standalone="no"?>
<!DOCTYPE svg PUBLIC "-//W3C//DTD SVG 20010904//EN"
              "http://www.w3.org/TR/2001/REC-SVG-20010904/DTD/svg10.dtd">

<svg xmlns="http://www.w3.org/2000/svg"
     width="38.2222in" height="38.2222in"
     viewBox="0 0 2752 2752">
  <path id="Loreto"
        fill="none" stroke="black" stroke-width="1"
        d="M 505.00,2215.00
           C 505.00,2215.00 567.00,2215.00 567.00,2215.00
             567.00,2215.00 584.00,2216.00 584.00,2216.00
             584.00,2216.00 798.00,2216.00 798.00,2216.00
             798.00,2216.00 813.00,2217.00 813.00,2217.00
             813.00,2217.00 1026.00,2217.00 1026.00,2217.00
             1026.00,2217.00 1041.00,2218.00 1041.00,2218.00
             1041.00,2218.00 1255.00,2218.00 1255.00,2218.00
             1255.00,2218.00 1270.00,2219.00 1270.00,2219.00
             1270.00,2219.00 1450.00,2219.00 1450.00,2219.00
             1450.00,2219.00 1450.00,2242.00 1450.00,2242.00
             1450.12,2250.39 1452.48,2250.98 1457.72,2257.00
             1459.60,2259.16 1463.42,2262.91 1462.67,2266.00
             1462.03,2268.61 1454.18,2276.77 1452.00,2279.00
             1452.00,2279.00 1427.01,2306.00 1427.01,2306.00
             1427.01,2306.00 1391.04,2345.00 1391.04,2345.00
             1386.48,2349.77 1381.71,2356.53 1376.00,2359.78
             1376.00,2359.78 1350.00,2370.60 1350.00,2370.60
             1350.00,2370.60 1302.00,2389.80 1302.00,2389.80
             1302.00,2389.80 1275.16,2401.07 1275.16,2401.07
             1271.90,2403.41 1272.24,2407.35 1272.07,2411.00
             1271.84,2415.98 1271.76,2430.26 1269.40,2434.00
             1266.23,2439.02 1253.84,2449.40 1249.00,2454.04
             1249.00,2454.04 1201.00,2500.00 1201.00,2500.00
             1197.48,2503.51 1182.53,2517.92 1179.00,2519.26
             1176.72,2520.13 1173.45,2520.00 1171.00,2520.00
             1171.00,2520.00 1101.00,2520.00 1101.00,2520.00
             1101.00,2520.00 1085.00,2519.09 1085.00,2519.09
             1085.00,2519.09 1067.00,2520.68 1067.00,2520.68
             1067.00,2520.68 1045.00,2521.68 1045.00,2521.68
             1045.00,2521.68 1025.00,2522.56 1025.00,2522.56
             1025.00,2522.56 1018.00,2522.56 1018.00,2522.56
             1018.00,2522.56 1002.00,2523.68 1002.00,2523.68
             1002.00,2523.68 982.00,2524.56 982.00,2524.56
             982.00,2524.56 975.00,2524.56 975.00,2524.56
             975.00,2524.56 958.00,2525.68 958.00,2525.68
             958.00,2525.68 937.00,2526.68 937.00,2526.68
             937.00,2526.68 915.00,2527.68 915.00,2527.68
             907.45,2527.20 903.08,2528.42 896.00,2528.58
             896.00,2528.58 888.00,2528.58 888.00,2528.58
             888.00,2528.58 872.00,2529.68 872.00,2529.68
             872.00,2529.68 850.00,2530.68 850.00,2530.68
             842.45,2530.20 838.08,2531.42 831.00,2531.58
             831.00,2531.58 823.00,2531.58 823.00,2531.58
             823.00,2531.58 807.00,2532.68 807.00,2532.68
             807.00,2532.68 785.00,2533.68 785.00,2533.68
             777.46,2533.20 773.08,2534.42 766.00,2534.65
             766.00,2534.65 758.00,2534.65 758.00,2534.65
             758.00,2534.65 742.00,2535.68 742.00,2535.68
             742.00,2535.68 720.00,2536.68 720.00,2536.68
             720.00,2536.68 701.00,2537.56 701.00,2537.56
             701.00,2537.56 694.00,2537.56 694.00,2537.56
             694.00,2537.56 677.00,2538.68 677.00,2538.68
             677.00,2538.68 655.00,2539.68 655.00,2539.68
             655.00,2539.68 634.00,2540.68 634.00,2540.68
             634.00,2540.68 612.00,2541.68 612.00,2541.68
             612.00,2541.68 592.00,2542.56 592.00,2542.56
             592.00,2542.56 585.00,2542.56 585.00,2542.56
             585.00,2542.56 569.00,2543.68 569.00,2543.68
             569.00,2543.68 547.00,2544.68 547.00,2544.68
             543.69,2544.47 533.57,2545.47 531.73,2544.01
             528.70,2541.60 528.20,2526.22 528.00,2522.00
             528.00,2522.00 525.87,2493.00 525.87,2493.00
             525.87,2493.00 525.87,2481.00 525.87,2481.00
             525.87,2481.00 527.00,2462.00 527.00,2462.00
             526.90,2453.78 523.09,2433.79 525.41,2426.58
             527.28,2420.79 533.89,2415.88 537.36,2411.00
             544.45,2401.06 544.26,2387.08 539.97,2376.00
             538.00,2370.91 533.30,2368.84 529.00,2366.00
             522.33,2361.59 512.62,2355.33 507.00,2349.96
             504.19,2347.27 500.44,2344.02 499.85,2340.00
             499.12,2334.93 500.56,2319.89 502.35,2314.99
             502.35,2314.99 509.41,2298.00 509.41,2298.00
             509.91,2291.38 502.65,2281.82 500.21,2276.00
             498.63,2272.23 498.95,2268.01 499.00,2264.00
             499.16,2252.19 505.37,2251.37 508.06,2242.00
             510.50,2233.54 506.79,2223.39 505.00,2215.00 Z" />
  <path id="Veruala"
        fill="none" stroke="black" stroke-width="1"
        d="M 1467.00,2269.00
           C 1467.00,2269.00 1469.00,2269.00 1469.00,2269.00
             1469.00,2269.00 1484.09,2286.00 1484.09,2286.00
             1486.73,2288.85 1490.89,2292.40 1492.26,2296.00
             1493.13,2298.28 1493.00,2301.55 1493.00,2304.00
             1493.00,2304.00 1493.00,2362.00 1493.00,2362.00
             1493.00,2364.34 1492.80,2367.74 1494.02,2369.78
             1496.14,2373.29 1510.79,2377.90 1515.00,2377.92
             1515.00,2377.92 1549.00,2373.28 1549.00,2373.28
             1549.00,2373.28 1592.00,2367.00 1592.00,2367.00
             1592.00,2367.00 1594.09,2401.00 1594.09,2401.00
             1594.09,2401.00 1596.00,2427.00 1596.00,2427.00
             1596.00,2427.00 1597.09,2450.00 1597.09,2450.00
             1597.09,2450.00 1598.00,2460.00 1598.00,2460.00
             1598.00,2460.00 1601.00,2519.00 1601.00,2519.00
             1601.00,2519.00 1459.00,2519.00 1459.00,2519.00
             1459.00,2519.00 1444.00,2520.00 1444.00,2520.00
             1444.00,2520.00 1188.00,2520.00 1188.00,2520.00
             1193.58,2512.21 1201.25,2506.67 1208.00,2500.00
             1208.00,2500.00 1229.00,2479.96 1229.00,2479.96
             1229.00,2479.96 1244.00,2465.17 1244.00,2465.17
             1244.00,2465.17 1272.85,2437.96 1272.85,2437.96
             1278.12,2432.01 1276.44,2421.47 1277.42,2414.00
             1277.84,2410.84 1277.50,2406.47 1280.29,2404.53
             1280.29,2404.53 1307.00,2393.40 1307.00,2393.40
             1307.00,2393.40 1353.00,2374.60 1353.00,2374.60
             1353.00,2374.60 1379.83,2363.61 1379.83,2363.61
             1384.20,2361.14 1401.34,2341.11 1406.09,2336.00
             1406.09,2336.00 1447.17,2291.00 1447.17,2291.00
             1447.17,2291.00 1467.00,2269.00 1467.00,2269.00 Z" />
  <path id="Santa Josefa"
        fill="none" stroke="black" stroke-width="1"
        d="M 1607.00,2519.00
           C 1607.00,2519.00 1605.00,2492.00 1605.00,2492.00
             1605.00,2492.00 1604.00,2471.00 1604.00,2471.00
             1604.00,2471.00 1603.00,2458.00 1603.00,2458.00
             1603.00,2458.00 1601.00,2421.00 1601.00,2421.00
             1601.00,2421.00 1600.00,2407.00 1600.00,2407.00
             1600.00,2407.00 1599.00,2390.00 1599.00,2390.00
             1599.00,2390.00 1598.02,2373.00 1598.02,2373.00
             1597.98,2371.16 1597.85,2368.22 1598.99,2366.70
             1600.98,2364.05 1616.05,2360.30 1620.00,2359.00
             1620.00,2359.00 1677.00,2341.00 1677.00,2341.00
             1677.00,2341.00 1715.00,2329.46 1715.00,2329.46
             1715.00,2329.46 1748.00,2325.93 1748.00,2325.93
             1752.67,2325.49 1769.70,2322.94 1773.00,2323.78
             1775.08,2324.32 1782.71,2328.69 1785.00,2330.00
             1785.00,2330.00 1806.00,2341.77 1806.00,2341.77
             1806.00,2341.77 1830.00,2355.14 1830.00,2355.14
             1833.24,2356.95 1837.83,2358.84 1839.69,2362.18
             1841.49,2365.43 1840.96,2372.18 1841.00,2376.00
             1841.00,2376.00 1841.96,2386.00 1841.96,2386.00
             1841.96,2386.00 1841.96,2394.00 1841.96,2394.00
             1841.96,2394.00 1843.00,2413.00 1843.00,2413.00
             1843.00,2413.00 1844.00,2430.00 1844.00,2430.00
             1844.00,2430.00 1845.00,2442.00 1845.00,2442.00
             1845.00,2442.00 1845.00,2453.00 1845.00,2453.00
             1845.00,2453.00 1846.00,2467.00 1846.00,2467.00
             1846.00,2467.00 1847.00,2482.00 1847.00,2482.00
             1847.00,2482.00 1848.00,2501.00 1848.00,2501.00
             1848.00,2501.00 1850.00,2542.00 1850.00,2542.00
             1850.00,2542.00 1851.00,2558.00 1851.00,2558.00
             1851.02,2562.87 1850.34,2566.67 1853.03,2571.00
             1854.78,2573.82 1860.64,2579.62 1860.10,2582.79
             1859.63,2585.59 1853.36,2588.03 1851.00,2589.46
             1843.87,2593.81 1841.87,2596.21 1837.33,2603.00
             1837.33,2603.00 1822.73,2624.00 1822.73,2624.00
             1820.27,2627.29 1817.07,2631.71 1813.00,2633.06
             1808.06,2634.70 1802.16,2630.50 1798.00,2628.32
             1798.00,2628.32 1766.00,2614.00 1766.00,2614.00
             1742.79,2600.85 1728.07,2598.17 1708.00,2578.00
             1700.05,2570.01 1694.35,2561.99 1691.25,2551.00
             1691.25,2551.00 1689.82,2538.00 1689.82,2538.00
             1689.61,2533.01 1691.51,2524.84 1693.00,2520.00
             1693.00,2520.00 1663.00,2519.00 1663.00,2519.00
             1663.00,2519.00 1607.00,2519.00 1607.00,2519.00 Z
           M 1640.88,2438.00
           C 1638.53,2452.79 1640.57,2444.92 1640.88,2452.00
             1640.87,2455.88 1637.94,2457.89 1639.03,2463.00
             1641.69,2475.44 1653.71,2473.97 1660.44,2465.83
             1666.43,2458.60 1664.51,2449.85 1659.25,2443.00
             1657.26,2440.41 1655.16,2438.05 1652.00,2436.89
             1648.27,2435.52 1644.66,2437.22 1640.88,2438.00 Z" />
  <path id="Trento"
        fill="none" stroke="black" stroke-width="1"
        d="M 1785.00,2322.00
           C 1785.00,2322.00 1863.00,2313.28 1863.00,2313.28
             1863.00,2313.28 1883.00,2311.16 1883.00,2311.16
             1883.00,2311.16 1893.61,2309.02 1893.61,2309.02
             1893.61,2309.02 1901.00,2298.00 1901.00,2298.00
             1901.00,2298.00 1917.42,2270.00 1917.42,2270.00
             1917.42,2270.00 1964.60,2190.00 1964.60,2190.00
             1964.60,2190.00 1978.80,2166.00 1978.80,2166.00
             1978.80,2166.00 1985.53,2155.31 1985.53,2155.31
             1985.53,2155.31 1997.00,2151.21 1997.00,2151.21
             1997.00,2151.21 2022.00,2146.00 2022.00,2146.00
             2022.00,2146.00 2085.00,2132.58 2085.00,2132.58
             2085.00,2132.58 2117.00,2126.00 2117.00,2126.00
             2117.00,2126.00 2109.59,2155.00 2109.59,2155.00
             2109.59,2155.00 2103.00,2182.00 2103.00,2182.00
             2108.19,2183.26 2109.82,2182.98 2115.00,2183.00
             2115.00,2183.00 2146.00,2185.00 2146.00,2185.00
             2148.93,2185.03 2155.55,2184.70 2158.00,2185.60
             2161.34,2186.83 2165.42,2191.42 2168.00,2194.00
             2168.00,2194.00 2188.00,2215.00 2188.00,2215.00
             2188.00,2215.00 2250.00,2277.00 2250.00,2277.00
             2250.00,2277.00 2269.00,2296.00 2269.00,2296.00
             2270.74,2297.75 2276.61,2304.07 2278.28,2304.94
             2282.46,2307.13 2298.57,2303.69 2304.00,2303.43
             2304.00,2303.43 2332.00,2300.48 2332.00,2300.48
             2332.00,2300.48 2356.00,2298.33 2356.00,2298.33
             2361.87,2297.60 2379.09,2295.22 2384.00,2296.00
             2379.20,2302.71 2370.06,2310.71 2364.04,2317.00
             2364.04,2317.00 2355.96,2326.00 2355.96,2326.00
             2355.96,2326.00 2318.00,2364.00 2318.00,2364.00
             2318.00,2364.00 2299.58,2383.00 2299.58,2383.00
             2295.99,2387.14 2293.58,2388.62 2292.00,2394.00
             2292.00,2394.00 2311.00,2399.98 2311.00,2399.98
             2311.00,2399.98 2355.00,2413.67 2355.00,2413.67
             2355.00,2413.67 2380.00,2422.00 2380.00,2422.00
             2380.00,2422.00 2380.82,2438.00 2380.82,2438.00
             2380.82,2438.00 2380.32,2446.00 2380.32,2446.00
             2380.32,2446.00 2381.56,2461.00 2381.56,2461.00
             2381.56,2461.00 2381.56,2468.00 2381.56,2468.00
             2381.56,2468.00 2382.48,2480.00 2382.48,2480.00
             2382.48,2480.00 2382.48,2486.00 2382.48,2486.00
             2382.48,2486.00 2382.48,2494.00 2382.48,2494.00
             2382.65,2496.24 2383.48,2499.32 2381.40,2501.03
             2378.63,2503.19 2369.02,2500.86 2365.00,2501.03
             2365.00,2501.03 2348.00,2502.00 2348.00,2502.00
             2348.00,2502.00 2334.00,2502.96 2334.00,2502.96
             2334.00,2502.96 2323.00,2502.09 2323.00,2502.09
             2323.00,2502.09 2306.00,2503.00 2306.00,2503.00
             2306.00,2503.00 2294.00,2503.97 2294.00,2503.97
             2294.00,2503.97 2282.00,2503.09 2282.00,2503.09
             2282.00,2503.09 2264.00,2504.00 2264.00,2504.00
             2264.00,2504.00 2253.00,2504.96 2253.00,2504.96
             2253.00,2504.96 2240.00,2504.09 2240.00,2504.09
             2240.00,2504.09 2222.00,2505.00 2222.00,2505.00
             2222.00,2505.00 2211.00,2505.96 2211.00,2505.96
             2211.00,2505.96 2198.00,2505.09 2198.00,2505.09
             2198.00,2505.09 2190.00,2506.02 2190.00,2506.02
             2190.00,2506.02 2178.00,2506.02 2178.00,2506.02
             2178.00,2506.02 2170.00,2506.96 2170.00,2506.96
             2170.00,2506.96 2157.00,2506.09 2157.00,2506.09
             2157.00,2506.09 2145.00,2507.00 2145.00,2507.00
             2145.00,2507.00 2128.00,2507.96 2128.00,2507.96
             2128.00,2507.96 2115.00,2507.09 2115.00,2507.09
             2115.00,2507.09 2097.00,2508.00 2097.00,2508.00
             2097.00,2508.00 2086.00,2508.96 2086.00,2508.96
             2086.00,2508.96 2073.00,2508.09 2073.00,2508.09
             2073.00,2508.09 2065.00,2509.02 2065.00,2509.02
             2065.00,2509.02 2053.00,2509.02 2053.00,2509.02
             2053.00,2509.02 2045.00,2509.96 2045.00,2509.96
             2032.91,2510.47 2033.55,2506.38 2014.00,2510.89
             1996.32,2514.96 1979.03,2525.47 1963.00,2533.74
             1963.00,2533.74 1918.00,2556.37 1918.00,2556.37
             1918.00,2556.37 1894.00,2566.78 1894.00,2566.78
             1894.00,2566.78 1877.00,2575.31 1877.00,2575.31
             1874.73,2576.53 1870.54,2579.36 1868.04,2579.30
             1865.32,2579.22 1863.60,2576.88 1862.00,2574.98
             1855.25,2566.95 1856.11,2566.83 1856.00,2557.00
             1856.00,2557.00 1855.00,2542.00 1855.00,2542.00
             1855.00,2542.00 1855.00,2538.00 1855.00,2538.00
             1855.00,2538.00 1854.00,2523.00 1854.00,2523.00
             1854.00,2523.00 1854.00,2519.00 1854.00,2519.00
             1854.00,2519.00 1853.00,2501.00 1853.00,2501.00
             1853.00,2501.00 1852.00,2491.00 1852.00,2491.00
             1852.00,2491.00 1852.00,2479.00 1852.00,2479.00
             1852.00,2479.00 1851.00,2466.00 1851.00,2466.00
             1851.00,2466.00 1850.00,2450.00 1850.00,2450.00
             1850.00,2450.00 1849.00,2432.00 1849.00,2432.00
             1849.00,2432.00 1848.00,2408.00 1848.00,2408.00
             1848.00,2408.00 1847.00,2394.00 1847.00,2394.00
             1847.00,2394.00 1846.00,2376.00 1846.00,2376.00
             1845.96,2371.96 1846.09,2361.63 1843.98,2358.39
             1842.31,2355.82 1834.00,2351.82 1831.00,2350.14
             1831.00,2350.14 1800.00,2332.77 1800.00,2332.77
             1794.82,2329.96 1787.81,2327.32 1785.00,2322.00 Z" />
  <path id="Bunawan"
        fill="none" stroke="black" stroke-width="1"
        d="M 2143.00,2073.00
           C 2138.47,2079.53 2126.76,2091.50 2124.39,2097.00
             2122.19,2102.08 2120.65,2117.16 2116.70,2119.84
             2115.10,2120.92 2109.17,2122.10 2107.00,2122.58
             2107.00,2122.58 2086.00,2127.00 2086.00,2127.00
             2086.00,2127.00 2017.00,2142.00 2017.00,2142.00
             2017.00,2142.00 1995.00,2146.65 1995.00,2146.65
             1992.05,2147.32 1986.44,2148.30 1984.10,2149.85
             1980.94,2151.95 1978.21,2157.64 1976.20,2161.00
             1976.20,2161.00 1961.58,2186.00 1961.58,2186.00
             1961.58,2186.00 1912.20,2270.00 1912.20,2270.00
             1912.20,2270.00 1898.20,2294.00 1898.20,2294.00
             1896.76,2296.40 1893.32,2302.63 1891.39,2304.18
             1889.08,2306.02 1880.30,2306.62 1877.00,2306.93
             1877.00,2306.93 1845.00,2310.28 1845.00,2310.28
             1845.00,2310.28 1759.00,2319.83 1759.00,2319.83
             1759.00,2319.83 1708.00,2326.29 1708.00,2326.29
             1708.00,2326.29 1674.00,2336.98 1674.00,2336.98
             1674.00,2336.98 1631.00,2350.34 1631.00,2350.34
             1631.00,2350.34 1595.00,2361.53 1595.00,2361.53
             1595.00,2361.53 1552.00,2367.73 1552.00,2367.73
             1552.00,2367.73 1526.00,2371.27 1526.00,2371.27
             1522.05,2371.84 1515.75,2373.17 1512.00,2372.47
             1509.34,2371.97 1501.52,2369.63 1500.02,2367.49
             1498.46,2365.27 1499.03,2357.01 1499.00,2354.00
             1499.00,2354.00 1498.00,2339.00 1498.00,2339.00
             1498.00,2339.00 1498.00,2300.00 1498.00,2300.00
             1497.83,2291.22 1491.72,2286.95 1486.04,2281.00
             1486.04,2281.00 1467.91,2261.00 1467.91,2261.00
             1460.61,2253.15 1455.02,2250.29 1455.00,2239.00
             1455.00,2239.00 1455.00,2172.00 1455.00,2172.00
             1455.00,2169.84 1455.11,2167.03 1454.42,2165.00
             1451.89,2157.66 1436.40,2145.61 1431.60,2138.00
             1428.70,2133.40 1428.96,2115.09 1429.00,2109.00
             1429.02,2106.87 1428.74,2103.49 1430.60,2102.02
             1432.22,2100.74 1435.97,2101.04 1438.00,2100.99
             1438.00,2100.99 1452.00,2100.00 1452.00,2100.00
             1452.00,2100.00 1511.00,2098.00 1511.00,2098.00
             1511.00,2098.00 1528.00,2096.96 1528.00,2096.96
             1528.00,2096.96 1541.00,2096.96 1541.00,2096.96
             1541.00,2096.96 1553.00,2096.00 1553.00,2096.00
             1553.00,2096.00 1588.00,2095.00 1588.00,2095.00
             1588.00,2095.00 1603.00,2094.00 1603.00,2094.00
             1603.00,2094.00 1639.00,2093.00 1639.00,2093.00
             1639.00,2093.00 1654.00,2091.96 1654.00,2091.96
             1654.00,2091.96 1667.00,2091.96 1667.00,2091.96
             1667.00,2091.96 1679.00,2090.96 1679.00,2090.96
             1679.00,2090.96 1692.00,2090.96 1692.00,2090.96
             1692.00,2090.96 1704.00,2090.00 1704.00,2090.00
             1704.00,2090.00 1739.00,2089.00 1739.00,2089.00
             1739.00,2089.00 1754.00,2088.00 1754.00,2088.00
             1754.00,2088.00 1813.00,2086.00 1813.00,2086.00
             1813.00,2086.00 1830.00,2084.96 1830.00,2084.96
             1830.00,2084.96 1843.00,2084.96 1843.00,2084.96
             1843.00,2084.96 1855.00,2083.96 1855.00,2083.96
             1855.00,2083.96 1868.00,2083.96 1868.00,2083.96
             1868.00,2083.96 1880.00,2083.00 1880.00,2083.00
             1880.00,2083.00 1915.00,2082.00 1915.00,2082.00
             1915.00,2082.00 1930.00,2081.00 1930.00,2081.00
             1930.00,2081.00 1966.00,2080.00 1966.00,2080.00
             1966.00,2080.00 1981.00,2078.96 1981.00,2078.96
             1981.00,2078.96 1994.00,2078.96 1994.00,2078.96
             1994.00,2078.96 2006.00,2077.96 2006.00,2077.96
             2006.00,2077.96 2019.00,2077.96 2019.00,2077.96
             2019.00,2077.96 2031.00,2077.00 2031.00,2077.00
             2031.00,2077.00 2066.00,2076.00 2066.00,2076.00
             2066.00,2076.00 2081.00,2075.00 2081.00,2075.00
             2081.00,2075.00 2143.00,2073.00 2143.00,2073.00 Z
           M 1519.02,2120.51
           C 1513.03,2123.18 1508.10,2130.23 1509.34,2137.00
             1509.34,2137.00 1513.14,2147.00 1513.14,2147.00
             1513.14,2147.00 1514.71,2154.00 1514.71,2154.00
             1516.83,2159.48 1521.99,2163.23 1527.98,2161.57
             1532.59,2160.29 1534.50,2155.17 1535.78,2151.00
             1539.20,2139.89 1533.95,2118.02 1519.02,2120.51 Z
           M 1538.06,2161.47
           C 1530.68,2166.06 1529.80,2183.47 1532.57,2191.00
             1533.28,2192.92 1534.37,2194.41 1535.63,2196.00
             1538.26,2199.29 1546.05,2205.16 1550.67,2202.87
             1553.91,2201.28 1555.43,2195.33 1555.62,2192.00
             1555.79,2189.14 1555.05,2186.74 1554.37,2184.00
             1552.98,2178.38 1548.08,2162.68 1541.96,2161.47
             1540.21,2160.95 1539.64,2161.31 1538.06,2161.47 Z" />
  <path id="Rosario"
        fill="none" stroke="black" stroke-width="1"
        d="M 1824.00,1729.00
           C 1824.00,1729.00 1828.98,1743.00 1828.98,1743.00
             1833.69,1752.90 1838.94,1759.49 1847.00,1766.91
             1867.80,1786.04 1899.29,1796.01 1926.00,1803.53
             1926.00,1803.53 1945.00,1809.56 1945.00,1809.56
             1945.00,1809.56 1958.00,1811.80 1958.00,1811.80
             1958.00,1811.80 1986.00,1816.84 1986.00,1816.84
             1986.00,1816.84 2011.00,1819.91 2011.00,1819.91
             2011.00,1819.91 2018.00,1819.18 2018.00,1819.18
             2018.00,1819.18 2033.00,1820.96 2033.00,1820.96
             2033.00,1820.96 2044.00,1820.32 2044.00,1820.32
             2044.00,1820.32 2062.00,1821.99 2062.00,1821.99
             2062.00,1821.99 2072.00,1820.58 2072.00,1820.58
             2072.00,1820.58 2079.00,1820.58 2079.00,1820.58
             2079.00,1820.58 2086.00,1819.54 2086.00,1819.54
             2086.00,1819.54 2092.00,1819.54 2092.00,1819.54
             2092.00,1819.54 2099.00,1818.54 2099.00,1818.54
             2099.00,1818.54 2105.00,1818.54 2105.00,1818.54
             2105.00,1818.54 2112.00,1817.56 2112.00,1817.56
             2112.00,1817.56 2117.00,1817.56 2117.00,1817.56
             2117.00,1817.56 2131.00,1815.91 2131.00,1815.91
             2131.00,1815.91 2176.00,1808.03 2176.00,1808.03
             2182.07,1807.05 2193.94,1805.79 2198.99,1802.77
             2204.83,1799.28 2218.01,1780.46 2223.26,1774.00
             2227.54,1768.75 2232.82,1762.62 2238.00,1758.30
             2240.26,1756.42 2243.69,1753.50 2246.40,1756.37
             2248.22,1758.29 2248.13,1762.54 2247.79,1765.00
             2246.81,1772.16 2244.28,1779.18 2242.00,1786.00
             2242.00,1786.00 2238.15,1798.00 2238.15,1798.00
             2238.15,1798.00 2235.62,1808.00 2235.62,1808.00
             2235.62,1808.00 2232.46,1816.00 2232.46,1816.00
             2228.62,1828.05 2222.14,1854.76 2222.27,1867.00
             2222.41,1879.39 2240.49,1884.99 2247.13,1896.00
             2247.13,1896.00 2253.64,1914.00 2253.64,1914.00
             2256.83,1920.89 2258.94,1917.54 2259.00,1927.00
             2259.00,1927.00 2259.00,1958.00 2259.00,1958.00
             2259.00,1960.14 2259.23,1963.71 2257.98,1965.49
             2256.16,1968.09 2246.30,1970.46 2243.00,1971.42
             2234.00,1974.06 2224.86,1976.70 2218.59,1984.00
             2218.59,1984.00 2166.25,2046.00 2166.25,2046.00
             2162.32,2050.69 2151.74,2064.36 2147.00,2066.57
             2143.69,2068.11 2139.57,2067.99 2136.00,2068.04
             2136.00,2068.04 2123.00,2068.04 2123.00,2068.04
             2123.00,2068.04 2111.00,2069.04 2111.00,2069.04
             2111.00,2069.04 2099.00,2069.04 2099.00,2069.04
             2099.00,2069.04 2087.00,2070.00 2087.00,2070.00
             2087.00,2070.00 2052.00,2071.00 2052.00,2071.00
             2052.00,2071.00 2037.00,2072.04 2037.00,2072.04
             2037.00,2072.04 2024.00,2072.04 2024.00,2072.04
             2024.00,2072.04 2012.00,2073.00 2012.00,2073.00
             2012.00,2073.00 1955.00,2075.00 1955.00,2075.00
             1955.00,2075.00 1938.00,2076.04 1938.00,2076.04
             1938.00,2076.04 1925.00,2076.04 1925.00,2076.04
             1925.00,2076.04 1913.00,2077.04 1913.00,2077.04
             1913.00,2077.04 1900.00,2077.04 1900.00,2077.04
             1900.00,2077.04 1890.00,2078.00 1890.00,2078.00
             1890.00,2078.00 1829.00,2080.00 1829.00,2080.00
             1829.00,2080.00 1814.00,2081.00 1814.00,2081.00
             1814.00,2081.00 1779.00,2082.00 1779.00,2082.00
             1779.00,2082.00 1765.00,2083.00 1765.00,2083.00
             1765.00,2083.00 1731.00,2084.00 1731.00,2084.00
             1731.00,2084.00 1715.00,2085.04 1715.00,2085.04
             1715.00,2085.04 1702.00,2085.04 1702.00,2085.04
             1702.00,2085.04 1690.00,2086.04 1690.00,2086.04
             1690.00,2086.04 1677.00,2086.04 1677.00,2086.04
             1677.00,2086.04 1665.00,2087.00 1665.00,2087.00
             1665.00,2087.00 1631.00,2088.00 1631.00,2088.00
             1631.00,2088.00 1617.00,2089.00 1617.00,2089.00
             1617.00,2089.00 1583.00,2090.00 1583.00,2090.00
             1583.00,2090.00 1567.00,2091.00 1567.00,2091.00
             1567.00,2091.00 1533.00,2092.00 1533.00,2092.00
             1533.00,2092.00 1518.00,2093.00 1518.00,2093.00
             1518.00,2093.00 1484.00,2094.00 1484.00,2094.00
             1484.00,2094.00 1472.00,2094.96 1472.00,2094.96
             1472.00,2094.96 1459.00,2094.96 1459.00,2094.96
             1459.00,2094.96 1444.00,2096.00 1444.00,2096.00
             1444.00,2096.00 1429.00,2096.00 1429.00,2096.00
             1429.00,2096.00 1429.00,2043.00 1429.00,2043.00
             1429.00,2043.00 1430.02,2035.00 1430.02,2035.00
             1430.02,2035.00 1456.42,2006.00 1456.42,2006.00
             1456.42,2006.00 1463.40,1997.00 1463.40,1997.00
             1463.40,1997.00 1466.72,1966.00 1466.72,1966.00
             1466.72,1966.00 1468.79,1954.86 1468.79,1954.86
             1468.79,1954.86 1486.00,1949.14 1486.00,1949.14
             1486.00,1949.14 1526.00,1937.58 1526.00,1937.58
             1526.00,1937.58 1641.00,1904.14 1641.00,1904.14
             1641.00,1904.14 1678.00,1893.42 1678.00,1893.42
             1678.00,1893.42 1696.96,1887.16 1696.96,1887.16
             1696.96,1887.16 1711.80,1870.00 1711.80,1870.00
             1711.80,1870.00 1740.42,1834.00 1740.42,1834.00
             1740.42,1834.00 1797.00,1763.00 1797.00,1763.00
             1797.00,1763.00 1824.00,1729.00 1824.00,1729.00 Z
           M 1577.04,1939.53
           C 1570.48,1940.65 1564.26,1942.83 1562.01,1950.01
             1560.02,1956.37 1564.78,1964.70 1572.00,1963.68
             1572.00,1963.68 1586.87,1957.32 1586.87,1957.32
             1588.12,1956.57 1588.87,1955.94 1589.60,1954.66
             1592.07,1950.32 1590.63,1941.92 1585.79,1939.53
             1583.36,1938.65 1579.62,1939.04 1577.04,1939.53 Z
           M 1631.00,1947.34
           C 1623.22,1949.43 1620.70,1953.09 1617.25,1960.00
             1613.36,1967.77 1612.24,1973.12 1619.10,1979.82
             1621.68,1982.34 1629.64,1987.70 1633.00,1989.01
             1636.24,1990.28 1640.27,1990.19 1642.73,1991.93
             1646.51,1994.62 1645.82,1999.50 1647.71,2002.87
             1649.91,2006.78 1657.80,2008.66 1662.01,2007.93
             1675.19,2005.65 1674.02,1989.29 1673.81,1979.00
             1674.00,1976.81 1674.07,1974.12 1673.81,1972.00
             1670.34,1956.84 1660.59,1959.65 1649.99,1954.26
             1643.10,1950.76 1641.68,1946.34 1631.00,1947.34 Z" />
  <path id="San Francisco"
        fill="none" stroke="black" stroke-width="1"
        d="M 1381.00,1585.13
           C 1381.00,1585.13 1422.00,1585.13 1422.00,1585.13
             1424.22,1585.00 1426.85,1584.93 1429.00,1585.13
             1429.00,1585.13 1476.00,1605.10 1476.00,1605.10
             1482.11,1606.97 1493.32,1604.84 1500.00,1604.17
             1500.00,1604.17 1526.00,1601.57 1526.00,1601.57
             1532.46,1599.83 1545.74,1585.20 1551.00,1580.00
             1551.00,1580.00 1561.00,1570.91 1561.00,1570.91
             1561.00,1570.91 1577.00,1555.04 1577.00,1555.04
             1577.00,1555.04 1593.00,1540.00 1593.00,1540.00
             1593.00,1540.00 1611.00,1522.96 1611.00,1522.96
             1613.26,1520.80 1617.28,1516.29 1620.00,1515.10
             1621.81,1514.46 1631.33,1514.97 1634.00,1515.10
             1634.00,1515.10 1644.00,1515.96 1644.00,1515.96
             1644.00,1515.96 1652.00,1515.96 1652.00,1515.96
             1652.00,1515.96 1670.00,1517.00 1670.00,1517.00
             1670.00,1517.00 1689.00,1518.00 1689.00,1518.00
             1689.00,1518.00 1707.00,1519.00 1707.00,1519.00
             1707.00,1519.00 1724.00,1520.00 1724.00,1520.00
             1724.00,1520.00 1739.00,1521.00 1739.00,1521.00
             1739.00,1521.00 1762.00,1522.00 1762.00,1522.00
             1762.00,1522.00 1776.00,1523.00 1776.00,1523.00
             1776.00,1523.00 1778.55,1563.00 1778.55,1563.00
             1778.55,1563.00 1779.55,1575.00 1779.55,1575.00
             1779.55,1575.00 1782.37,1607.00 1782.37,1607.00
             1782.37,1607.00 1783.70,1625.00 1783.70,1625.00
             1783.83,1627.62 1784.14,1631.55 1786.43,1633.23
             1788.39,1634.68 1794.36,1633.98 1797.00,1634.00
             1797.00,1634.00 1807.00,1634.95 1807.00,1634.95
             1807.00,1634.95 1823.00,1634.95 1823.00,1634.95
             1823.00,1634.95 1849.00,1633.04 1849.00,1633.04
             1849.00,1633.04 1868.00,1633.96 1868.00,1633.96
             1868.00,1633.96 1883.00,1633.96 1883.00,1633.96
             1883.00,1633.96 1896.00,1633.00 1896.00,1633.00
             1896.00,1633.00 1875.08,1659.00 1875.08,1659.00
             1875.08,1659.00 1836.27,1705.00 1836.27,1705.00
             1836.27,1705.00 1824.54,1719.00 1824.54,1719.00
             1824.54,1719.00 1820.15,1726.00 1820.15,1726.00
             1820.15,1726.00 1804.34,1746.00 1804.34,1746.00
             1804.34,1746.00 1756.42,1806.00 1756.42,1806.00
             1756.42,1806.00 1714.20,1859.00 1714.20,1859.00
             1714.20,1859.00 1693.96,1883.07 1693.96,1883.07
             1693.96,1883.07 1673.00,1889.58 1673.00,1889.58
             1673.00,1889.58 1630.00,1902.02 1630.00,1902.02
             1630.00,1902.02 1468.00,1949.00 1468.00,1949.00
             1468.00,1949.00 1448.70,1912.00 1448.70,1912.00
             1448.70,1912.00 1443.87,1894.00 1443.87,1894.00
             1443.87,1894.00 1440.32,1875.18 1440.32,1875.18
             1440.32,1875.18 1448.00,1868.69 1448.00,1868.69
             1448.00,1868.69 1467.00,1856.00 1467.00,1856.00
             1461.53,1852.00 1448.47,1836.76 1442.96,1831.00
             1439.31,1827.18 1432.15,1820.91 1430.56,1816.00
             1429.70,1813.35 1429.99,1804.30 1430.00,1801.00
             1430.00,1799.18 1429.86,1795.99 1430.57,1794.37
             1431.78,1791.63 1435.47,1790.42 1437.23,1785.00
             1438.99,1779.58 1435.80,1773.56 1430.00,1773.00
             1428.07,1765.07 1429.02,1735.17 1428.81,1725.00
             1429.00,1722.72 1429.07,1720.23 1428.81,1718.00
             1428.81,1718.00 1415.42,1681.00 1415.42,1681.00
             1415.42,1681.00 1391.31,1615.00 1391.31,1615.00
             1391.31,1615.00 1381.00,1585.13 1381.00,1585.13 Z" />
  <path id="Talacogon"
        fill="none" stroke="black" stroke-width="1"
        d="M 1423.93,2059.00
           C 1416.66,2058.38 1409.13,2055.76 1402.00,2053.88
             1402.00,2053.88 1364.00,2043.87 1364.00,2043.87
             1364.00,2043.87 1280.00,2021.42 1280.00,2021.42
             1271.16,2018.97 1248.67,2014.15 1242.00,2010.24
             1238.38,2008.12 1224.98,1999.32 1222.61,1996.68
             1222.61,1996.68 1209.40,1976.00 1209.40,1976.00
             1206.75,1971.61 1200.36,1962.27 1198.99,1958.00
             1197.67,1953.86 1197.94,1946.52 1198.00,1942.00
             1198.14,1932.26 1206.84,1922.15 1211.95,1914.00
             1211.95,1914.00 1247.19,1858.00 1247.19,1858.00
             1249.77,1853.84 1258.68,1840.65 1259.86,1837.00
             1260.08,1835.01 1260.00,1832.09 1259.86,1830.00
             1259.86,1830.00 1259.86,1793.00 1259.86,1793.00
             1260.00,1790.81 1259.89,1788.08 1260.56,1786.00
             1261.53,1782.97 1265.62,1777.71 1267.63,1775.00
             1267.63,1775.00 1280.58,1757.00 1280.58,1757.00
             1282.81,1753.88 1286.98,1747.12 1290.18,1745.43
             1292.42,1744.25 1300.09,1743.24 1303.00,1742.75
             1303.00,1742.75 1331.00,1738.25 1331.00,1738.25
             1331.00,1738.25 1424.00,1723.00 1424.00,1723.00
             1424.00,1723.00 1424.00,1764.00 1424.00,1764.00
             1424.00,1766.30 1424.38,1770.41 1422.40,1771.98
             1419.85,1774.00 1417.00,1771.43 1410.99,1774.66
             1398.35,1781.45 1401.27,1795.85 1410.00,1797.67
             1415.41,1798.79 1418.28,1793.70 1424.00,1791.00
             1424.00,1797.07 1422.91,1814.50 1425.56,1819.00
             1425.56,1819.00 1447.04,1843.00 1447.04,1843.00
             1449.17,1845.23 1455.99,1851.40 1456.66,1853.96
             1457.53,1857.23 1453.23,1859.23 1451.00,1860.69
             1447.98,1862.66 1436.23,1870.01 1434.77,1872.32
             1433.96,1873.62 1433.93,1874.54 1434.03,1876.01
             1434.03,1876.01 1438.12,1892.00 1438.12,1892.00
             1440.44,1900.83 1442.01,1911.00 1446.31,1919.00
             1446.31,1919.00 1453.22,1931.00 1453.22,1931.00
             1453.22,1931.00 1458.26,1942.00 1458.26,1942.00
             1459.86,1945.29 1462.58,1949.39 1462.78,1953.00
             1462.78,1953.00 1460.08,1980.00 1460.08,1980.00
             1459.83,1983.12 1459.04,1994.88 1457.98,1997.00
             1456.53,1999.89 1451.47,2004.46 1449.04,2007.00
             1449.04,2007.00 1433.00,2024.00 1433.00,2024.00
             1430.11,2026.90 1425.37,2031.25 1423.93,2035.00
             1422.16,2039.18 1424.00,2053.18 1423.93,2059.00 Z" />
  <path id="La Paz"
        fill="none" stroke="black" stroke-width="1"
        d="M 428.00,1966.00
           C 428.00,1966.00 449.00,1966.00 449.00,1966.00
             449.00,1966.00 465.00,1965.00 465.00,1965.00
             465.00,1965.00 517.00,1965.00 517.00,1965.00
             517.00,1965.00 534.00,1964.00 534.00,1964.00
             534.00,1964.00 586.00,1964.00 586.00,1964.00
             586.00,1964.00 603.00,1963.00 603.00,1963.00
             603.00,1963.00 656.00,1963.00 656.00,1963.00
             656.00,1963.00 671.00,1962.00 671.00,1962.00
             671.00,1962.00 723.00,1962.00 723.00,1962.00
             723.00,1962.00 740.00,1961.00 740.00,1961.00
             740.00,1961.00 794.00,1961.00 794.00,1961.00
             794.00,1961.00 809.00,1960.00 809.00,1960.00
             809.00,1960.00 862.00,1960.00 862.00,1960.00
             862.00,1960.00 877.00,1959.00 877.00,1959.00
             877.00,1959.00 929.00,1959.00 929.00,1959.00
             929.00,1959.00 946.00,1958.00 946.00,1958.00
             946.00,1958.00 997.00,1958.00 997.00,1958.00
             997.00,1958.00 1014.00,1957.00 1014.00,1957.00
             1014.00,1957.00 1066.00,1957.00 1066.00,1957.00
             1066.00,1957.00 1083.00,1956.00 1083.00,1956.00
             1083.00,1956.00 1135.00,1956.00 1135.00,1956.00
             1135.00,1956.00 1152.00,1955.00 1152.00,1955.00
             1152.00,1955.00 1193.00,1955.00 1193.00,1955.00
             1193.53,1962.38 1199.40,1969.79 1203.32,1976.00
             1203.32,1976.00 1219.32,2000.82 1219.32,2000.82
             1221.80,2003.42 1234.27,2011.28 1238.00,2013.57
             1246.84,2019.00 1251.49,2019.01 1261.00,2021.71
             1261.00,2021.71 1303.00,2032.88 1303.00,2032.88
             1303.00,2032.88 1383.00,2054.15 1383.00,2054.15
             1383.00,2054.15 1424.00,2065.00 1424.00,2065.00
             1424.00,2065.00 1424.00,2102.00 1424.00,2102.00
             1424.00,2102.00 1425.00,2122.00 1425.00,2122.00
             1424.98,2127.11 1423.96,2134.48 1426.51,2139.00
             1430.15,2145.46 1447.41,2160.60 1449.40,2166.00
             1450.12,2167.94 1450.00,2170.91 1450.00,2173.00
             1450.00,2173.00 1450.00,2214.00 1450.00,2214.00
             1450.00,2214.00 1324.00,2214.00 1324.00,2214.00
             1324.00,2214.00 1309.00,2213.00 1309.00,2213.00
             1309.00,2213.00 1095.00,2213.00 1095.00,2213.00
             1095.00,2213.00 1080.00,2212.00 1080.00,2212.00
             1080.00,2212.00 867.00,2212.00 867.00,2212.00
             867.00,2212.00 852.00,2211.00 852.00,2211.00
             852.00,2211.00 638.00,2211.00 638.00,2211.00
             638.00,2211.00 623.00,2210.00 623.00,2210.00
             623.00,2210.00 511.00,2210.00 511.00,2210.00
             508.70,2210.00 505.26,2210.21 503.27,2208.98
             501.18,2207.68 497.65,2200.48 496.31,2198.00
             496.31,2198.00 481.80,2172.00 481.80,2172.00
             478.54,2166.64 466.79,2150.02 466.31,2145.00
             465.64,2137.88 471.27,2132.66 474.48,2127.00
             478.29,2120.28 480.19,2112.66 480.81,2105.00
             480.81,2105.00 480.00,2093.00 480.00,2093.00
             479.95,2088.64 479.56,2085.68 482.31,2082.00
             485.70,2077.48 494.19,2071.74 492.17,2065.00
             490.59,2059.72 483.57,2055.23 479.00,2052.70
             471.55,2048.57 454.25,2040.73 449.55,2034.91
             444.97,2029.23 441.43,2016.23 439.63,2009.00
             439.63,2009.00 428.00,1966.00 428.00,1966.00 Z" />
  <path id="San Luis"
        fill="none" stroke="black" stroke-width="1"
        d="M 267.00,1619.00
           C 267.00,1619.00 284.00,1618.00 284.00,1618.00
             284.00,1618.00 352.00,1618.00 352.00,1618.00
             352.00,1618.00 369.00,1617.00 369.00,1617.00
             369.00,1617.00 438.00,1617.00 438.00,1617.00
             438.00,1617.00 453.00,1616.00 453.00,1616.00
             453.00,1616.00 522.00,1616.00 522.00,1616.00
             522.00,1616.00 537.00,1615.00 537.00,1615.00
             537.00,1615.00 606.00,1615.00 606.00,1615.00
             606.00,1615.00 621.00,1614.00 621.00,1614.00
             621.00,1614.00 688.00,1614.00 688.00,1614.00
             688.00,1614.00 705.00,1613.00 705.00,1613.00
             705.00,1613.00 774.00,1613.00 774.00,1613.00
             774.00,1613.00 789.00,1612.00 789.00,1612.00
             789.00,1612.00 858.00,1612.00 858.00,1612.00
             858.00,1612.00 873.00,1611.00 873.00,1611.00
             873.00,1611.00 942.00,1611.00 942.00,1611.00
             942.00,1611.00 957.00,1610.00 957.00,1610.00
             957.00,1610.00 1026.00,1610.00 1026.00,1610.00
             1026.00,1610.00 1041.00,1609.00 1041.00,1609.00
             1041.00,1609.00 1110.00,1609.00 1110.00,1609.00
             1110.00,1609.00 1125.00,1608.00 1125.00,1608.00
             1125.00,1608.00 1192.00,1608.00 1192.00,1608.00
             1192.00,1608.00 1209.00,1607.00 1209.00,1607.00
             1209.00,1607.00 1276.00,1607.00 1276.00,1607.00
             1276.00,1607.00 1292.00,1606.00 1292.00,1606.00
             1292.00,1606.00 1360.00,1606.00 1360.00,1606.00
             1360.00,1606.00 1374.00,1605.01 1374.00,1605.01
             1374.00,1605.01 1381.59,1606.02 1381.59,1606.02
             1381.59,1606.02 1385.58,1613.00 1385.58,1613.00
             1385.58,1613.00 1391.69,1630.00 1391.69,1630.00
             1391.69,1630.00 1412.69,1688.00 1412.69,1688.00
             1412.69,1688.00 1423.00,1718.00 1423.00,1718.00
             1423.00,1718.00 1390.00,1723.42 1390.00,1723.42
             1390.00,1723.42 1327.00,1733.58 1327.00,1733.58
             1327.00,1733.58 1301.00,1737.73 1301.00,1737.73
             1301.00,1737.73 1288.17,1740.31 1288.17,1740.31
             1288.17,1740.31 1274.14,1758.00 1274.14,1758.00
             1274.14,1758.00 1255.56,1785.00 1255.56,1785.00
             1255.56,1785.00 1255.00,1791.00 1255.00,1791.00
             1255.00,1791.00 1255.00,1828.00 1255.00,1828.00
             1255.00,1828.00 1254.35,1836.00 1254.35,1836.00
             1254.35,1836.00 1239.42,1861.00 1239.42,1861.00
             1239.42,1861.00 1208.81,1910.00 1208.81,1910.00
             1208.81,1910.00 1193.70,1935.00 1193.70,1935.00
             1193.70,1935.00 1193.00,1949.00 1193.00,1949.00
             1193.00,1949.00 1175.00,1950.00 1175.00,1950.00
             1175.00,1950.00 1124.00,1950.00 1124.00,1950.00
             1124.00,1950.00 1107.00,1951.00 1107.00,1951.00
             1107.00,1951.00 1055.00,1951.00 1055.00,1951.00
             1055.00,1951.00 1038.00,1952.00 1038.00,1952.00
             1038.00,1952.00 984.00,1952.00 984.00,1952.00
             984.00,1952.00 969.00,1953.00 969.00,1953.00
             969.00,1953.00 918.00,1953.00 918.00,1953.00
             918.00,1953.00 901.00,1954.00 901.00,1954.00
             901.00,1954.00 849.00,1954.00 849.00,1954.00
             849.00,1954.00 832.00,1955.00 832.00,1955.00
             832.00,1955.00 779.00,1955.00 779.00,1955.00
             779.00,1955.00 764.00,1956.00 764.00,1956.00
             764.00,1956.00 712.00,1956.00 712.00,1956.00
             712.00,1956.00 695.00,1957.00 695.00,1957.00
             695.00,1957.00 644.00,1957.00 644.00,1957.00
             644.00,1957.00 627.00,1958.00 627.00,1958.00
             627.00,1958.00 575.00,1958.00 575.00,1958.00
             575.00,1958.00 558.00,1959.00 558.00,1959.00
             558.00,1959.00 506.00,1959.00 506.00,1959.00
             506.00,1959.00 489.00,1959.94 489.00,1959.94
             489.00,1959.94 438.00,1959.94 438.00,1959.94
             435.75,1960.00 428.82,1960.59 427.27,1959.94
             423.99,1958.16 422.62,1950.13 415.91,1944.76
             406.51,1937.25 394.35,1938.85 387.52,1930.91
             374.88,1916.23 379.67,1900.88 366.74,1886.04
             359.24,1877.42 347.77,1873.80 337.00,1871.42
             332.60,1870.45 322.86,1870.10 320.35,1866.74
             320.35,1866.74 311.20,1843.00 311.20,1843.00
             311.20,1843.00 303.05,1820.00 303.05,1820.00
             303.05,1820.00 299.92,1812.00 299.92,1812.00
             299.92,1812.00 295.25,1787.00 295.25,1787.00
             295.25,1787.00 276.03,1689.71 276.03,1689.71
             276.03,1689.71 267.92,1647.00 267.92,1647.00
             267.92,1647.00 267.92,1636.00 267.92,1636.00
             267.92,1636.00 267.00,1619.00 267.00,1619.00 Z" />
  <path id="Esperanza"
        fill="none" stroke="black" stroke-width="1"
        d="M 1065.00,1121.00
           C 1065.00,1121.00 1080.00,1128.74 1080.00,1128.74
             1080.00,1128.74 1112.00,1145.22 1112.00,1145.22
             1112.00,1145.22 1138.00,1158.26 1138.00,1158.26
             1138.00,1158.26 1191.00,1185.75 1191.00,1185.75
             1191.00,1185.75 1232.00,1206.75 1232.00,1206.75
             1232.00,1206.75 1251.30,1217.63 1251.30,1217.63
             1251.30,1217.63 1255.67,1228.00 1255.67,1228.00
             1255.67,1228.00 1262.33,1248.00 1262.33,1248.00
             1262.33,1248.00 1287.00,1321.00 1287.00,1321.00
             1287.00,1321.00 1350.67,1512.00 1350.67,1512.00
             1350.67,1512.00 1370.67,1572.00 1370.67,1572.00
             1370.67,1572.00 1380.00,1601.00 1380.00,1601.00
             1380.00,1601.00 1312.00,1601.00 1312.00,1601.00
             1312.00,1601.00 1295.00,1602.00 1295.00,1602.00
             1295.00,1602.00 1223.00,1602.00 1223.00,1602.00
             1223.00,1602.00 1208.00,1603.00 1208.00,1603.00
             1208.00,1603.00 1137.00,1603.00 1137.00,1603.00
             1137.00,1603.00 1122.00,1604.00 1122.00,1604.00
             1122.00,1604.00 1050.00,1604.00 1050.00,1604.00
             1050.00,1604.00 1035.00,1605.00 1035.00,1605.00
             1035.00,1605.00 963.00,1605.00 963.00,1605.00
             963.00,1605.00 948.00,1606.00 948.00,1606.00
             948.00,1606.00 876.00,1606.00 876.00,1606.00
             876.00,1606.00 861.00,1607.00 861.00,1607.00
             861.00,1607.00 789.00,1607.00 789.00,1607.00
             789.00,1607.00 774.00,1608.00 774.00,1608.00
             774.00,1608.00 702.00,1608.00 702.00,1608.00
             702.00,1608.00 687.00,1609.00 687.00,1609.00
             687.00,1609.00 616.00,1609.00 616.00,1609.00
             616.00,1609.00 601.00,1610.00 601.00,1610.00
             601.00,1610.00 529.00,1610.00 529.00,1610.00
             529.00,1610.00 514.00,1611.00 514.00,1611.00
             514.00,1611.00 442.00,1611.00 442.00,1611.00
             442.00,1611.00 427.00,1612.00 427.00,1612.00
             427.00,1612.00 356.00,1612.00 356.00,1612.00
             356.00,1612.00 341.00,1613.00 341.00,1613.00
             341.00,1613.00 267.00,1613.00 267.00,1613.00
             267.00,1613.00 267.00,1598.00 267.00,1598.00
             267.00,1598.00 266.00,1582.00 266.00,1582.00
             266.00,1582.00 266.00,1557.00 266.00,1557.00
             266.00,1557.00 264.87,1526.00 264.87,1526.00
             264.87,1526.00 264.87,1513.00 264.87,1513.00
             264.87,1513.00 264.00,1499.00 264.00,1499.00
             264.00,1499.00 264.00,1474.00 264.00,1474.00
             264.00,1474.00 263.00,1457.00 263.00,1457.00
             263.00,1457.00 262.00,1390.00 262.00,1390.00
             262.00,1390.00 261.00,1375.00 261.00,1375.00
             261.00,1375.00 261.00,1353.00 261.00,1353.00
             261.00,1353.00 260.00,1331.00 260.00,1331.00
             260.00,1331.00 260.00,1306.00 260.00,1306.00
             260.00,1306.00 259.00,1289.00 259.00,1289.00
             259.00,1289.00 259.00,1268.00 259.00,1268.00
             259.00,1268.00 283.00,1266.04 283.00,1266.04
             283.00,1266.04 300.00,1267.00 300.00,1267.00
             300.00,1267.00 326.00,1265.04 326.00,1265.04
             326.00,1265.04 337.00,1266.00 337.00,1266.00
             337.00,1266.00 366.00,1264.04 366.00,1264.04
             369.78,1263.92 371.53,1264.50 375.00,1264.91
             375.00,1264.91 386.00,1264.91 386.00,1264.91
             386.00,1264.91 409.00,1263.04 409.00,1263.04
             409.00,1263.04 422.00,1264.00 422.00,1264.00
             422.00,1264.00 452.00,1262.04 452.00,1262.04
             452.00,1262.04 467.00,1263.00 467.00,1263.00
             467.00,1263.00 497.00,1261.04 497.00,1261.04
             497.00,1261.04 512.00,1262.00 512.00,1262.00
             512.00,1262.00 537.00,1260.04 537.00,1260.04
             540.78,1259.92 542.53,1260.50 546.00,1260.91
             546.00,1260.91 557.00,1260.91 557.00,1260.91
             557.00,1260.91 580.00,1259.04 580.00,1259.04
             580.00,1259.04 593.00,1260.00 593.00,1260.00
             593.00,1260.00 621.00,1258.17 621.00,1258.17
             623.66,1257.92 628.20,1258.43 630.28,1257.58
             630.28,1257.58 664.00,1232.98 664.00,1232.98
             669.59,1230.37 675.88,1232.18 679.00,1231.74
             683.16,1231.15 685.33,1228.07 687.79,1225.00
             687.79,1225.00 701.43,1208.11 701.43,1208.11
             707.87,1201.41 717.29,1204.10 724.96,1199.84
             730.25,1196.90 732.04,1190.10 735.38,1188.02
             737.37,1186.78 740.69,1187.00 743.00,1187.00
             743.00,1187.00 995.00,1187.00 995.00,1187.00
             997.22,1197.30 995.43,1194.50 996.29,1202.00
             996.90,1207.43 998.47,1215.91 997.48,1221.00
             995.37,1231.82 988.25,1237.88 989.64,1250.00
             990.18,1254.66 993.42,1258.28 995.98,1262.00
             1000.54,1268.63 1009.61,1280.30 1010.52,1288.00
             1010.85,1290.77 1010.60,1294.97 1008.44,1297.01
             1005.52,1299.76 996.67,1300.36 994.46,1306.03
             993.35,1308.86 995.08,1310.44 997.06,1312.18
             1000.27,1315.01 1002.13,1315.40 1005.14,1319.10
             1007.52,1322.04 1012.54,1330.32 1015.02,1331.93
             1020.48,1335.49 1027.51,1326.10 1030.09,1325.45
             1033.11,1324.69 1034.98,1327.69 1039.00,1328.15
             1043.69,1328.68 1049.55,1325.30 1053.96,1325.62
             1058.56,1325.96 1059.76,1330.76 1062.17,1333.96
             1065.36,1338.20 1067.60,1339.34 1072.00,1342.00
             1070.50,1351.79 1075.06,1354.84 1082.00,1360.00
             1071.52,1370.13 1080.62,1377.07 1086.00,1386.10
             1083.73,1385.95 1078.89,1385.37 1077.06,1386.10
             1073.76,1387.67 1073.54,1390.57 1073.72,1393.72
             1073.72,1393.72 1080.74,1421.28 1080.74,1421.28
             1081.71,1431.11 1077.34,1431.05 1082.00,1441.99
             1082.58,1443.35 1083.33,1445.32 1084.55,1446.23
             1087.19,1448.21 1091.26,1446.22 1092.84,1443.78
             1094.95,1440.50 1093.41,1437.21 1099.93,1434.24
             1102.42,1433.45 1103.47,1433.20 1106.00,1434.24
             1098.09,1438.95 1094.84,1442.52 1094.58,1452.00
             1094.43,1457.34 1094.77,1460.12 1097.57,1464.91
             1100.22,1469.46 1104.81,1472.78 1108.00,1477.00
             1098.50,1482.54 1092.73,1490.84 1096.72,1502.00
             1097.55,1504.34 1100.45,1508.73 1101.88,1511.00
             1104.82,1515.64 1106.70,1519.36 1111.84,1522.15
             1116.02,1524.11 1120.59,1522.65 1125.00,1522.15
             1128.01,1522.10 1131.00,1522.76 1134.00,1523.00
             1133.21,1527.39 1132.21,1532.69 1134.93,1536.68
             1137.12,1539.88 1144.48,1543.55 1147.70,1546.46
             1147.70,1546.46 1157.01,1556.91 1157.01,1556.91
             1157.01,1556.91 1168.00,1566.00 1168.00,1566.00
             1165.76,1567.00 1164.07,1567.61 1162.18,1569.30
             1156.29,1574.57 1148.75,1588.77 1161.00,1591.98
             1171.79,1594.80 1178.22,1581.24 1177.31,1575.00
             1176.66,1570.50 1173.69,1568.32 1171.00,1565.00
             1178.85,1561.24 1178.87,1556.73 1174.20,1550.00
             1169.08,1542.62 1157.86,1533.39 1155.00,1525.00
             1164.97,1518.75 1166.35,1502.76 1157.51,1494.95
             1152.25,1490.01 1141.77,1488.24 1137.41,1494.95
             1135.60,1498.02 1134.64,1503.59 1134.00,1507.06
             1134.00,1507.06 1125.00,1507.06 1125.00,1507.06
             1122.75,1506.75 1121.03,1505.89 1119.29,1504.43
             1118.24,1503.56 1116.89,1502.06 1116.06,1500.96
             1106.82,1488.74 1132.39,1488.07 1129.26,1475.00
             1127.80,1468.91 1120.56,1462.99 1115.98,1459.00
             1113.81,1457.12 1110.14,1454.42 1110.82,1451.09
             1111.82,1446.28 1121.29,1444.25 1124.94,1441.92
             1130.11,1438.61 1129.70,1430.97 1127.95,1425.72
             1125.55,1418.50 1120.99,1419.14 1115.00,1418.25
             1110.51,1417.59 1110.11,1417.02 1105.00,1417.08
             1105.00,1417.08 1098.13,1417.08 1098.13,1417.08
             1094.11,1416.48 1094.26,1410.21 1094.00,1407.00
             1113.62,1406.93 1115.67,1391.05 1112.98,1386.28
             1110.35,1381.65 1097.05,1374.05 1092.00,1371.00
             1096.38,1365.74 1102.08,1363.29 1105.01,1358.91
             1109.08,1352.83 1109.80,1341.66 1101.00,1339.44
             1099.02,1338.95 1089.12,1340.62 1086.00,1341.00
             1086.00,1338.19 1086.23,1333.54 1085.26,1331.00
             1082.86,1324.72 1075.83,1322.17 1071.61,1317.54
             1067.59,1313.13 1060.66,1298.49 1051.09,1307.15
             1049.51,1308.58 1048.28,1310.32 1047.00,1312.00
             1047.00,1312.00 1031.00,1304.53 1031.00,1304.53
             1031.00,1304.53 1022.00,1307.00 1022.00,1307.00
             1024.10,1302.71 1028.15,1299.93 1028.86,1295.00
             1029.76,1288.66 1027.92,1279.44 1024.29,1274.17
             1024.29,1274.17 1018.75,1267.96 1018.75,1267.96
             1013.68,1262.13 1007.93,1252.93 1006.63,1245.17
             1005.46,1238.15 1012.13,1234.38 1013.52,1225.83
             1015.36,1214.60 1013.00,1198.63 1013.00,1187.00
             1013.00,1187.00 1074.00,1187.00 1074.00,1187.00
             1074.00,1187.00 1077.90,1170.00 1077.90,1170.00
             1077.90,1170.00 1076.21,1161.00 1076.21,1161.00
             1076.21,1161.00 1073.82,1149.00 1073.82,1149.00
             1073.82,1149.00 1065.00,1121.00 1065.00,1121.00 Z" />
  <path id="Prosperidad"
        fill="none" stroke="black" stroke-width="1"
        d="M 1411.00,954.00
           C 1411.00,954.00 1397.00,927.00 1397.00,927.00
             1395.51,924.37 1391.48,918.13 1392.41,915.17
             1393.14,912.85 1398.05,909.23 1400.00,907.58
             1400.00,907.58 1419.00,891.59 1419.00,891.59
             1419.00,891.59 1475.00,844.59 1475.00,844.59
             1481.48,839.15 1496.07,825.72 1503.00,823.00
             1505.31,827.32 1508.84,832.23 1509.43,837.00
             1510.52,841.86 1508.85,845.32 1509.43,850.00
             1509.34,852.25 1510.19,860.35 1511.02,862.00
             1512.67,865.24 1517.25,868.53 1520.00,871.09
             1520.00,871.09 1535.00,886.00 1535.00,886.00
             1535.00,886.00 1591.00,940.00 1591.00,940.00
             1591.00,940.00 1605.00,953.96 1605.00,953.96
             1607.95,956.78 1611.79,959.44 1613.72,963.01
             1615.83,966.90 1615.96,972.59 1616.57,977.00
             1616.57,977.00 1619.63,997.00 1619.63,997.00
             1619.63,997.00 1626.67,1042.72 1626.67,1042.72
             1626.67,1042.72 1631.93,1078.27 1631.93,1078.27
             1633.03,1082.74 1636.93,1086.59 1639.87,1090.00
             1644.14,1094.97 1654.27,1106.12 1657.12,1111.00
             1660.23,1116.33 1673.29,1140.44 1674.51,1145.00
             1674.51,1145.00 1677.66,1168.87 1677.66,1168.87
             1681.44,1176.56 1696.06,1171.36 1702.37,1175.98
             1704.15,1177.28 1709.06,1187.31 1710.58,1190.00
             1710.58,1190.00 1726.25,1220.00 1726.25,1220.00
             1727.76,1223.00 1732.84,1231.51 1733.23,1234.00
             1734.02,1239.01 1727.50,1244.45 1724.42,1248.00
             1724.42,1248.00 1703.83,1271.00 1703.83,1271.00
             1700.93,1274.21 1696.69,1277.58 1695.89,1282.00
             1695.89,1282.00 1697.41,1298.00 1697.41,1298.00
             1697.41,1298.00 1700.41,1325.00 1700.41,1325.00
             1700.41,1325.00 1710.77,1420.00 1710.77,1420.00
             1711.74,1427.83 1716.74,1428.37 1723.00,1431.23
             1723.00,1431.23 1753.52,1445.07 1753.52,1445.07
             1756.28,1447.40 1759.66,1459.98 1761.00,1464.00
             1766.28,1479.83 1776.62,1500.33 1774.00,1517.00
             1774.00,1517.00 1745.00,1516.00 1745.00,1516.00
             1745.00,1516.00 1729.00,1515.00 1729.00,1515.00
             1729.00,1515.00 1712.00,1514.00 1712.00,1514.00
             1712.00,1514.00 1688.00,1513.00 1688.00,1513.00
             1688.00,1513.00 1673.00,1512.00 1673.00,1512.00
             1673.00,1512.00 1654.00,1511.00 1654.00,1511.00
             1654.00,1511.00 1630.00,1509.84 1630.00,1509.84
             1630.00,1509.84 1619.00,1509.84 1619.00,1509.84
             1614.94,1510.90 1603.18,1524.03 1599.00,1527.72
             1599.00,1527.72 1578.00,1547.96 1578.00,1547.96
             1578.00,1547.96 1546.00,1578.17 1546.00,1578.17
             1541.45,1582.29 1530.73,1594.46 1526.00,1596.26
             1526.00,1596.26 1509.00,1598.09 1509.00,1598.09
             1501.68,1598.62 1481.84,1601.82 1476.00,1599.90
             1476.00,1599.90 1444.00,1585.86 1444.00,1585.86
             1436.86,1582.70 1433.03,1580.10 1425.00,1580.00
             1425.00,1580.00 1405.00,1580.00 1405.00,1580.00
             1405.00,1580.00 1391.00,1579.00 1391.00,1579.00
             1388.25,1578.97 1380.71,1579.51 1378.70,1578.01
             1376.71,1576.52 1374.85,1569.56 1374.00,1567.00
             1374.00,1567.00 1365.00,1540.00 1365.00,1540.00
             1365.00,1540.00 1322.67,1413.00 1322.67,1413.00
             1322.67,1413.00 1277.67,1278.00 1277.67,1278.00
             1277.67,1278.00 1263.67,1236.00 1263.67,1236.00
             1263.67,1236.00 1257.43,1216.00 1257.43,1216.00
             1257.11,1211.36 1263.74,1198.91 1265.85,1194.00
             1265.85,1194.00 1289.69,1141.00 1289.69,1141.00
             1289.69,1141.00 1317.31,1079.00 1317.31,1079.00
             1317.31,1079.00 1334.58,1041.00 1334.58,1041.00
             1334.58,1041.00 1348.00,1011.00 1348.00,1011.00
             1349.84,1006.71 1354.97,994.23 1357.49,991.18
             1360.11,988.03 1374.64,978.91 1379.00,976.00
             1379.00,976.00 1411.00,954.00 1411.00,954.00 Z" />
  <path id="Bayugan"
        fill="none" stroke="black" stroke-width="1"
        d="M 1470.00,498.00
           C 1472.29,501.22 1475.54,510.88 1476.88,515.00
             1476.88,515.00 1481.38,527.00 1481.38,527.00
             1482.42,531.21 1481.17,533.04 1481.38,537.00
             1481.38,537.00 1482.68,554.00 1482.68,554.00
             1482.27,560.47 1483.19,566.56 1483.50,573.00
             1483.50,573.00 1483.50,582.00 1483.50,582.00
             1483.50,582.00 1484.68,599.00 1484.68,599.00
             1484.27,605.47 1485.19,611.56 1485.50,618.00
             1485.50,618.00 1485.50,627.00 1485.50,627.00
             1485.50,627.00 1486.58,641.00 1486.58,641.00
             1486.58,641.00 1486.58,649.00 1486.58,649.00
             1486.58,649.00 1487.50,666.00 1487.50,666.00
             1487.50,668.58 1487.10,669.05 1487.50,672.00
             1487.50,672.00 1488.56,686.00 1488.56,686.00
             1488.56,686.00 1488.56,693.00 1488.56,693.00
             1488.56,693.00 1489.68,711.00 1489.68,711.00
             1489.68,711.00 1490.58,731.00 1490.58,731.00
             1490.58,731.00 1490.58,739.00 1490.58,739.00
             1490.58,739.00 1491.68,756.00 1491.68,756.00
             1491.68,756.00 1492.68,778.00 1492.68,778.00
             1492.07,786.73 1493.38,790.03 1493.67,798.00
             1493.98,801.52 1492.84,804.08 1493.67,807.00
             1494.51,810.97 1499.26,814.80 1497.19,818.96
             1496.16,821.02 1491.88,824.37 1490.00,826.00
             1490.00,826.00 1472.00,841.08 1472.00,841.08
             1472.00,841.08 1410.00,893.08 1410.00,893.08
             1410.00,893.08 1393.00,907.25 1393.00,907.25
             1391.53,908.47 1386.69,912.22 1385.99,913.66
             1384.80,916.08 1388.10,920.75 1389.24,923.00
             1389.24,923.00 1399.78,943.00 1399.78,943.00
             1401.06,945.44 1403.76,949.12 1402.76,951.91
             1401.75,954.69 1393.69,959.79 1391.00,961.71
             1391.00,961.71 1365.00,979.00 1365.00,979.00
             1360.98,981.68 1354.94,984.94 1352.53,989.09
             1352.53,989.09 1332.69,1033.00 1332.69,1033.00
             1332.69,1033.00 1280.31,1149.00 1280.31,1149.00
             1280.31,1149.00 1252.00,1211.00 1252.00,1211.00
             1252.00,1211.00 1203.00,1186.25 1203.00,1186.25
             1203.00,1186.25 1139.00,1153.26 1139.00,1153.26
             1139.00,1153.26 1109.00,1138.00 1109.00,1138.00
             1109.00,1138.00 1074.00,1120.00 1074.00,1120.00
             1070.95,1118.27 1063.92,1115.15 1062.13,1112.61
             1059.64,1109.09 1058.83,1098.54 1058.45,1094.00
             1058.45,1094.00 1057.74,1044.00 1057.74,1044.00
             1057.17,1036.92 1051.72,1032.34 1053.23,1028.00
             1054.15,1025.35 1060.73,1019.23 1063.00,1017.01
             1063.00,1017.01 1091.00,993.20 1091.00,993.20
             1118.60,971.09 1153.55,944.90 1174.63,917.00
             1174.63,917.00 1193.85,892.00 1193.85,892.00
             1193.85,892.00 1253.02,808.00 1253.02,808.00
             1270.08,783.26 1287.18,758.62 1301.22,732.00
             1301.22,732.00 1322.25,690.00 1322.25,690.00
             1322.25,690.00 1349.69,634.00 1349.69,634.00
             1359.04,613.64 1381.05,570.37 1394.46,554.00
             1401.49,545.43 1410.87,539.43 1420.00,533.33
             1433.50,524.32 1459.27,508.23 1470.00,498.00 Z" />
  <path id="Sabigat"
        fill="none" stroke="black" stroke-width="1"
        d="M 1229.00,170.00
           C 1229.00,170.00 1241.00,171.66 1241.00,171.66
             1241.00,171.66 1249.00,171.66 1249.00,171.66
             1249.00,171.66 1263.00,173.00 1263.00,173.00
             1263.38,178.57 1265.45,182.66 1266.85,188.00
             1268.61,194.77 1270.05,204.15 1273.87,210.00
             1273.87,210.00 1300.55,241.00 1300.55,241.00
             1317.58,262.32 1333.47,285.00 1352.09,305.00
             1352.09,305.00 1397.83,350.00 1397.83,350.00
             1410.36,364.04 1417.93,381.36 1426.25,398.00
             1426.25,398.00 1453.43,455.00 1453.43,455.00
             1453.43,455.00 1469.00,493.00 1469.00,493.00
             1469.00,493.00 1424.00,524.67 1424.00,524.67
             1413.28,531.82 1398.50,541.20 1390.46,551.00
             1376.94,567.49 1359.35,602.15 1349.74,622.00
             1349.74,622.00 1310.75,702.00 1310.75,702.00
             1310.75,702.00 1282.55,755.00 1282.55,755.00
             1282.55,755.00 1233.02,828.00 1233.02,828.00
             1214.48,854.91 1175.69,910.70 1154.91,933.00
             1142.44,946.39 1121.69,961.95 1107.00,973.80
             1107.00,973.80 1067.00,1006.73 1067.00,1006.73
             1061.48,1011.46 1053.69,1020.31 1048.00,1023.00
             1048.00,1023.00 1042.49,1012.00 1042.49,1012.00
             1042.49,1012.00 1031.68,987.00 1031.68,987.00
             1029.57,983.05 1022.01,973.41 1021.80,970.00
             1021.23,960.63 1035.90,948.46 1040.08,941.00
             1045.81,930.78 1045.86,913.04 1050.68,902.00
             1054.48,893.31 1066.11,882.74 1071.74,871.00
             1075.02,864.16 1075.87,852.73 1076.62,845.00
             1076.62,845.00 1077.87,831.00 1077.87,831.00
             1077.87,831.00 1077.87,811.00 1077.87,811.00
             1077.87,811.00 1078.74,791.00 1078.74,791.00
             1078.86,776.00 1086.84,747.42 1090.63,732.00
             1090.63,732.00 1102.35,688.00 1102.35,688.00
             1102.35,688.00 1108.91,671.00 1108.91,671.00
             1108.91,671.00 1112.69,658.00 1112.69,658.00
             1112.69,658.00 1132.09,615.00 1132.09,615.00
             1145.08,594.44 1163.12,589.35 1174.13,567.00
             1174.13,567.00 1181.62,549.00 1181.62,549.00
             1195.00,517.12 1206.74,484.77 1217.67,452.00
             1217.67,452.00 1223.37,435.00 1223.37,435.00
             1223.37,435.00 1226.95,426.00 1226.95,426.00
             1226.95,426.00 1234.70,397.00 1234.70,397.00
             1234.70,397.00 1240.59,377.09 1240.59,377.09
             1240.59,377.09 1243.80,359.00 1243.80,359.00
             1243.80,359.00 1251.49,318.00 1251.49,318.00
             1251.49,318.00 1252.78,301.00 1252.78,301.00
             1252.78,301.00 1255.00,280.00 1255.00,280.00
             1255.00,280.00 1253.90,262.00 1253.90,262.00
             1253.90,262.00 1253.90,241.00 1253.90,241.00
             1253.90,241.00 1249.20,220.00 1249.20,220.00
             1249.20,220.00 1244.14,197.00 1244.14,197.00
             1239.78,184.58 1230.99,177.00 1229.00,170.00 Z" />
</svg>
