<?xml version="1.0" encoding="UTF-8" standalone="no"?>
<!DOCTYPE svg PUBLIC "-//W3C//DTD SVG 20010904//EN"
              "http://www.w3.org/TR/2001/REC-SVG-20010904/DTD/svg10.dtd">

<svg xmlns="http://www.w3.org/2000/svg"
     width="38in" height="30.4028in"
     viewBox="0 0 2736 2189">
  <path id="Buruanga"
        fill="none" stroke="black" stroke-width="1"
        d="M 399.00,349.00
           C 404.24,350.61 407.07,354.93 410.58,359.00
             410.58,359.00 426.97,378.00 426.97,378.00
             431.45,384.96 427.98,392.11 439.00,393.00
             439.00,393.00 443.85,401.00 443.85,401.00
             445.25,403.73 445.07,406.06 447.43,408.37
             449.33,410.22 457.19,413.83 460.00,415.25
             463.72,417.12 466.75,419.33 471.00,419.46
             479.55,419.73 478.98,422.32 487.00,425.17
             487.00,425.17 500.00,429.84 500.00,429.84
             500.00,429.84 507.00,434.45 507.00,434.45
             507.00,434.45 519.00,438.52 519.00,438.52
             519.00,438.52 533.00,445.40 533.00,445.40
             543.90,449.80 547.47,448.79 558.00,450.44
             558.00,450.44 570.00,452.71 570.00,452.71
             570.00,452.71 580.00,453.75 580.00,453.75
             580.00,453.75 597.09,458.04 597.09,458.04
             597.09,458.04 631.00,472.31 631.00,472.31
             631.00,472.31 643.00,479.22 643.00,479.22
             646.88,481.84 649.67,484.41 654.00,486.63
             654.00,486.63 693.00,504.31 693.00,504.31
             707.18,512.10 726.63,528.72 740.00,538.76
             740.00,538.76 755.00,548.00 755.00,548.00
             744.58,546.14 738.31,540.88 729.00,538.04
             720.36,535.40 719.21,536.68 712.00,535.82
             712.00,535.82 705.00,534.32 705.00,534.32
             705.00,534.32 695.00,533.51 695.00,533.51
             691.44,533.29 688.47,534.06 685.00,534.57
             685.00,534.57 662.00,539.15 662.00,539.15
             662.00,539.15 643.01,544.50 643.01,544.50
             634.24,546.04 631.36,544.45 624.00,544.50
             624.00,544.50 608.00,545.91 608.00,545.91
             608.00,545.91 600.59,545.91 600.59,545.91
             600.59,545.91 593.00,546.67 593.00,546.67
             593.00,546.67 581.00,546.00 581.00,546.00
             566.69,545.98 551.10,547.34 538.00,553.49
             533.14,555.77 517.90,565.74 514.04,569.21
             514.04,569.21 498.00,585.61 498.00,585.61
             490.37,591.59 484.07,591.01 472.00,601.51
             466.18,606.57 461.35,616.39 457.00,619.00
             457.00,619.00 455.00,623.00 455.00,623.00
             455.21,633.24 449.83,639.88 443.18,646.91
             440.52,649.72 439.08,651.59 435.91,653.98
             435.91,653.98 415.09,667.21 415.09,667.21
             415.09,667.21 402.96,676.31 402.96,676.31
             402.96,676.31 371.17,694.93 371.17,694.93
             371.17,694.93 358.99,702.14 358.99,702.14
             358.99,702.14 329.00,713.49 329.00,713.49
             329.00,713.49 312.00,715.90 312.00,715.90
             312.00,715.90 280.00,724.00 280.00,724.00
             282.58,716.43 289.37,712.12 294.96,706.83
             294.96,706.83 310.17,690.61 310.17,690.61
             315.05,686.57 328.03,678.77 331.10,674.83
             337.50,666.59 337.78,657.84 344.09,648.00
             344.09,648.00 359.05,628.00 359.05,628.00
             359.05,628.00 367.66,612.00 367.66,612.00
             367.66,612.00 370.99,604.00 370.99,604.00
             373.40,599.87 377.45,596.29 379.36,592.00
             379.36,592.00 386.38,568.00 386.38,568.00
             386.38,568.00 387.53,558.00 387.53,558.00
             387.53,558.00 392.62,544.00 392.62,544.00
             393.97,536.57 389.33,530.63 390.40,525.00
             391.73,518.00 397.64,516.18 401.58,511.00
             404.73,506.86 406.29,499.17 406.56,494.00
             406.56,494.00 407.19,483.00 407.19,483.00
             407.94,478.38 409.93,475.85 407.85,471.04
             404.33,462.88 396.57,464.42 394.66,455.04
             392.50,444.40 397.06,443.02 390.65,430.00
             388.31,425.23 387.23,424.12 382.00,423.00
             384.74,416.43 393.23,402.56 393.60,396.00
             393.60,396.00 392.50,383.00 392.50,383.00
             391.84,379.04 389.10,377.38 390.47,370.00
             392.23,360.47 397.19,355.74 399.00,349.00 Z" />
  <path id="Malay"
        fill="none" stroke="black" stroke-width="1"
        d="M 541.00,209.00
           C 541.00,209.00 532.46,183.00 532.46,183.00
             529.59,174.80 525.60,168.55 521.64,161.00
             517.34,152.81 513.27,144.28 507.49,137.00
             507.49,137.00 492.17,120.00 492.17,120.00
             492.17,120.00 484.54,110.22 484.54,110.22
             481.82,107.48 480.21,107.61 477.86,105.48
             471.68,99.89 471.89,97.79 468.20,92.04
             467.13,90.36 465.30,88.52 464.63,86.80
             464.63,86.80 463.71,78.99 463.71,78.99
             462.31,73.90 457.90,72.75 458.38,68.00
             458.83,63.54 465.53,59.57 469.00,57.22
             478.41,50.82 483.20,50.60 493.00,46.98
             498.96,44.78 499.19,42.74 502.17,41.59
             504.31,40.77 508.36,41.23 510.98,41.00
             511.59,43.49 511.44,57.31 510.98,60.00
             510.47,62.72 509.34,65.16 509.26,68.00
             509.19,70.71 510.99,77.06 511.80,79.91
             513.96,87.56 516.60,93.74 526.00,92.00
             526.00,96.78 526.53,103.67 524.74,108.00
             522.58,113.21 516.54,120.43 517.43,126.00
             518.87,135.06 530.81,148.44 535.80,156.00
             540.00,162.35 540.02,167.45 549.00,169.21
             552.74,169.95 555.56,167.36 559.00,166.38
             559.00,166.38 567.00,165.00 567.00,165.00
             565.82,172.17 569.19,172.52 575.00,171.00
             573.77,184.09 573.68,176.67 577.00,189.00
             571.46,191.78 570.56,192.47 567.44,198.00
             566.13,200.32 564.50,204.73 562.59,206.26
             559.53,208.69 556.73,206.87 554.00,206.83
             554.00,206.83 541.00,209.00 541.00,209.00 Z
           M 756.00,543.00
           C 746.23,540.67 735.70,531.52 728.00,525.26
             728.00,525.26 701.00,505.71 701.00,505.71
             687.15,495.86 670.94,491.73 656.00,484.19
             647.40,479.85 643.38,473.94 622.00,464.31
             622.00,464.31 611.00,460.18 611.00,460.18
             597.98,454.97 592.34,452.35 578.00,449.66
             578.00,449.66 571.00,449.66 571.00,449.66
             571.00,449.66 542.00,445.10 542.00,445.10
             530.26,442.29 529.10,439.31 520.00,434.84
             520.00,434.84 507.00,430.45 507.00,430.45
             507.00,430.45 498.00,424.70 498.00,424.70
             498.00,424.70 485.00,420.79 485.00,420.79
             481.32,419.17 479.05,416.73 476.00,415.81
             476.00,415.81 468.00,415.81 468.00,415.81
             465.07,415.00 456.76,410.79 454.02,409.12
             446.38,404.49 450.14,401.99 442.24,392.97
             438.50,388.70 436.79,389.49 435.14,387.45
             433.53,385.46 433.82,382.51 430.62,378.00
             430.62,378.00 409.82,353.00 409.82,353.00
             406.44,349.20 394.03,339.13 397.36,333.50
             401.44,326.57 409.21,335.82 415.00,334.86
             418.86,334.21 421.46,330.82 425.00,329.68
             425.00,329.68 433.00,329.68 433.00,329.68
             433.00,329.68 444.00,325.81 444.00,325.81
             448.22,325.18 457.21,325.67 462.00,325.81
             468.30,325.81 469.74,324.75 475.00,324.32
             480.31,323.89 480.97,325.64 488.00,323.24
             495.26,320.76 499.80,315.89 506.00,312.12
             510.80,309.20 512.97,309.57 517.00,307.58
             517.00,307.58 532.00,299.18 532.00,299.18
             539.09,295.40 542.87,295.89 548.00,294.04
             554.01,291.87 557.77,288.57 563.00,285.63
             563.00,285.63 571.00,282.43 571.00,282.43
             575.75,280.11 582.63,272.74 585.00,268.00
             588.17,261.68 589.91,243.42 590.00,236.00
             590.00,236.00 590.00,224.00 590.00,224.00
             590.01,222.19 589.85,219.06 591.02,217.60
             593.71,214.23 606.81,219.51 609.87,221.41
             612.64,223.13 614.73,226.85 617.02,229.42
             619.80,232.54 629.25,242.87 630.40,246.00
             631.21,248.22 630.98,252.52 631.00,255.00
             631.06,264.49 637.50,272.97 638.40,277.00
             639.28,280.92 636.35,285.23 640.43,289.45
             643.51,292.64 659.71,300.27 662.89,307.09
             664.66,310.87 664.61,315.05 665.73,319.01
             665.73,319.01 669.24,330.00 669.24,330.00
             669.24,330.00 673.71,353.00 673.71,353.00
             676.27,372.45 674.26,379.24 683.31,399.00
             689.04,411.51 697.74,422.23 704.80,434.00
             704.80,434.00 714.22,450.00 714.22,450.00
             714.22,450.00 724.75,470.00 724.75,470.00
             724.75,470.00 742.05,495.00 742.05,495.00
             748.42,506.05 755.89,530.31 756.00,543.00 Z" />
  <path id="Nabas"
        fill="none" stroke="black" stroke-width="1"
        d="M 635.00,254.00
           C 635.00,254.00 637.00,254.00 637.00,254.00
             640.42,259.10 644.65,264.60 650.00,267.78
             650.00,267.78 661.00,272.68 661.00,272.68
             661.00,272.68 687.00,290.83 687.00,290.83
             690.75,292.51 692.74,290.86 696.00,291.81
             700.38,293.08 702.38,297.06 708.00,297.86
             717.09,299.15 718.41,295.06 726.00,294.00
             724.01,303.42 731.41,305.82 737.59,311.92
             740.95,315.25 744.11,318.78 748.01,321.48
             748.01,321.48 754.63,325.89 754.63,325.89
             754.63,325.89 764.17,334.31 764.17,334.31
             768.72,337.52 778.93,344.02 782.02,348.45
             782.02,348.45 787.43,362.99 787.43,362.99
             787.43,362.99 796.18,376.99 796.18,376.99
             796.18,376.99 801.55,383.28 801.55,383.28
             801.55,383.28 805.97,390.00 805.97,390.00
             808.39,393.12 814.95,400.29 818.00,402.50
             821.84,405.27 824.70,405.04 828.58,410.02
             832.89,415.53 830.74,419.42 837.10,425.90
             837.10,425.90 859.04,443.05 859.04,443.05
             859.04,443.05 865.00,446.63 865.00,446.63
             871.57,451.41 873.19,457.05 880.00,461.82
             888.34,467.65 889.01,465.74 895.00,469.13
             895.00,469.13 933.00,491.99 933.00,491.99
             933.00,491.99 941.00,496.06 941.00,496.06
             941.00,496.06 958.00,507.14 958.00,507.14
             969.15,513.23 993.77,523.62 1006.00,527.14
             1012.81,529.10 1016.67,531.68 1024.00,532.00
             1023.78,536.46 1023.17,541.17 1019.73,544.39
             1015.42,548.43 1007.70,551.40 1006.60,558.00
             1006.60,558.00 1008.48,572.00 1008.48,572.00
             1008.69,567.05 1007.51,591.37 1008.48,585.00
             1008.01,587.36 1006.76,588.73 1006.75,591.83
             1006.75,591.83 1006.75,600.91 1006.75,600.91
             1006.85,604.28 1006.78,607.84 1008.43,610.93
             1011.59,616.84 1015.49,611.36 1019.05,614.59
             1022.96,618.14 1028.97,635.34 1030.81,641.00
             1030.81,641.00 1039.06,664.00 1039.06,664.00
             1039.82,666.02 1042.08,670.17 1040.16,672.01
             1038.72,673.39 1033.05,672.98 1031.00,673.00
             1031.00,673.00 1011.00,674.29 1011.00,674.29
             1006.89,674.82 1002.06,676.52 998.00,675.58
             994.72,674.82 989.27,671.08 986.00,669.31
             986.00,669.31 958.00,654.26 958.00,654.26
             958.00,654.26 946.00,648.57 946.00,648.57
             946.00,648.57 928.00,637.90 928.00,637.90
             928.00,637.90 918.00,634.13 918.00,634.13
             909.68,630.56 889.21,620.63 882.00,615.92
             877.44,612.95 867.13,605.94 863.42,602.39
             860.30,599.41 858.85,596.49 854.99,593.39
             854.99,593.39 844.00,586.51 844.00,586.51
             844.00,586.51 827.00,573.43 827.00,573.43
             814.48,565.13 802.42,558.51 788.00,554.02
             788.00,554.02 771.00,548.81 771.00,548.81
             768.81,548.12 764.35,546.90 762.82,545.28
             760.46,542.76 758.14,528.98 757.39,525.00
             755.73,516.22 751.02,503.79 746.65,496.00
             746.65,496.00 738.15,484.00 738.15,484.00
             738.15,484.00 729.74,471.00 729.74,471.00
             729.74,471.00 720.11,453.00 720.11,453.00
             720.11,453.00 709.31,435.00 709.31,435.00
             704.07,426.84 691.07,407.57 687.91,400.00
             686.02,395.48 681.06,381.42 680.32,377.00
             680.32,377.00 678.71,356.00 678.71,356.00
             678.71,356.00 674.80,340.00 674.80,340.00
             674.80,340.00 673.09,330.58 673.09,330.58
             673.09,330.58 668.70,317.00 668.70,317.00
             667.34,311.49 668.47,308.33 664.36,303.17
             660.47,298.28 645.67,288.75 644.31,287.39
             640.55,283.62 643.49,280.96 642.50,277.00
             642.07,275.33 640.84,273.60 640.11,272.00
             640.11,272.00 637.88,266.00 637.88,266.00
             635.34,260.58 633.32,260.51 635.00,254.00 Z" />
  <path id="Ibajay"
        fill="none" stroke="black" stroke-width="1"
        d="M 1095.00,694.00
           C 1093.01,688.58 1086.98,675.65 1081.96,673.02
             1079.35,671.65 1074.97,672.03 1072.00,672.19
             1072.00,672.19 1052.00,672.19 1052.00,672.19
             1044.85,672.89 1044.58,667.76 1042.42,662.00
             1042.42,662.00 1029.85,627.00 1029.85,627.00
             1028.32,623.50 1023.47,613.75 1020.74,611.57
             1017.34,608.86 1013.31,610.53 1011.60,606.76
             1010.71,604.80 1011.24,600.41 1011.05,598.00
             1011.05,598.00 1010.38,592.00 1010.38,592.00
             1010.38,592.00 1011.98,585.00 1011.98,585.00
             1011.98,585.00 1011.98,567.00 1011.98,567.00
             1011.84,563.20 1009.45,559.81 1011.21,556.01
             1013.36,551.39 1019.24,549.25 1022.80,545.83
             1028.69,540.17 1025.60,534.18 1032.58,535.12
             1032.58,535.12 1038.29,536.39 1038.29,536.39
             1042.97,537.20 1046.36,536.95 1051.00,537.00
             1051.00,537.00 1079.00,540.71 1079.00,540.71
             1079.00,540.71 1096.00,542.40 1096.00,542.40
             1096.00,542.40 1113.00,546.82 1113.00,546.82
             1113.00,546.82 1118.00,546.82 1118.00,546.82
             1123.47,547.35 1122.72,548.01 1130.00,548.00
             1130.00,548.00 1143.00,547.32 1143.00,547.32
             1143.00,547.32 1168.00,548.00 1168.00,548.00
             1168.00,548.00 1190.00,546.09 1190.00,546.09
             1190.00,546.09 1206.63,545.58 1206.63,545.58
             1212.39,548.10 1214.26,563.99 1221.39,556.73
             1222.36,555.75 1223.25,554.16 1224.00,553.00
             1235.42,555.72 1242.66,564.99 1252.00,571.04
             1252.00,571.04 1259.00,574.93 1259.00,574.93
             1259.00,574.93 1267.00,580.39 1267.00,580.39
             1267.00,580.39 1288.00,590.79 1288.00,590.79
             1288.00,590.79 1299.00,594.33 1299.00,594.33
             1299.00,594.33 1307.00,598.20 1307.00,598.20
             1307.00,598.20 1315.99,598.20 1315.99,598.20
             1320.59,598.89 1328.86,601.21 1333.00,600.88
             1336.56,600.60 1339.62,598.68 1343.00,597.67
             1348.72,595.95 1352.76,596.18 1358.00,592.75
             1364.09,588.77 1367.88,583.41 1375.00,581.00
             1375.00,581.00 1368.22,610.00 1368.22,610.00
             1368.22,610.00 1367.53,620.00 1367.53,620.00
             1367.53,620.00 1363.80,643.00 1363.80,643.00
             1363.80,643.00 1363.80,658.00 1363.80,658.00
             1363.91,665.07 1359.47,677.99 1356.99,684.99
             1355.91,688.02 1354.55,693.07 1352.00,695.00
             1352.18,697.97 1352.46,699.11 1350.00,701.00
             1350.39,707.30 1346.89,713.06 1345.14,719.00
             1342.78,727.04 1339.01,745.89 1339.00,754.00
             1339.00,754.00 1339.00,763.00 1339.00,763.00
             1338.97,780.86 1327.75,823.27 1324.43,843.00
             1324.43,843.00 1320.37,868.00 1320.37,868.00
             1320.37,868.00 1318.21,878.00 1318.21,878.00
             1318.21,878.00 1318.21,891.00 1318.21,891.00
             1316.53,902.50 1314.02,914.35 1314.00,926.00
             1314.00,926.00 1314.00,950.00 1314.00,950.00
             1314.00,950.00 1313.00,965.00 1313.00,965.00
             1313.00,965.00 1313.00,978.00 1313.00,978.00
             1315.88,980.12 1316.43,984.52 1316.64,988.00
             1316.64,988.00 1317.62,1002.00 1317.62,1002.00
             1317.62,1002.00 1318.70,1008.00 1318.70,1008.00
             1318.70,1008.00 1318.05,1014.00 1318.05,1014.00
             1318.05,1014.00 1318.05,1024.00 1318.05,1024.00
             1318.08,1030.62 1318.90,1029.95 1319.32,1034.00
             1319.59,1036.58 1317.82,1050.25 1317.09,1053.00
             1314.37,1063.12 1299.96,1080.35 1290.00,1084.05
             1284.97,1085.91 1278.34,1085.99 1273.00,1086.00
             1273.00,1086.00 1244.00,1086.00 1244.00,1086.00
             1229.18,1085.98 1203.60,1081.26 1189.00,1077.52
             1189.00,1077.52 1167.00,1070.55 1167.00,1070.55
             1167.00,1070.55 1149.00,1063.00 1149.00,1063.00
             1150.53,1057.60 1157.19,1040.45 1160.10,1036.00
             1160.10,1036.00 1195.27,995.00 1195.27,995.00
             1195.27,995.00 1202.91,986.20 1202.91,986.20
             1208.84,978.10 1220.03,955.74 1224.23,946.00
             1224.23,946.00 1233.55,925.00 1233.55,925.00
             1233.55,925.00 1242.41,899.00 1242.41,899.00
             1245.75,888.16 1247.47,888.08 1249.34,883.00
             1250.48,879.90 1254.20,858.87 1253.84,856.00
             1253.46,852.89 1252.20,851.59 1250.76,849.00
             1247.63,843.41 1248.15,840.17 1241.00,839.00
             1240.77,836.47 1240.83,832.43 1239.33,830.41
             1237.93,828.52 1235.69,828.12 1234.60,825.73
             1232.62,821.41 1235.09,810.80 1224.00,809.00
             1224.00,809.00 1227.96,791.00 1227.96,791.00
             1227.96,791.00 1219.67,769.00 1219.67,769.00
             1217.01,761.09 1209.62,743.14 1204.61,737.04
             1204.61,737.04 1188.00,721.96 1188.00,721.96
             1184.54,718.66 1175.19,708.71 1172.00,706.74
             1166.72,703.47 1161.32,706.28 1157.17,703.98
             1153.97,702.20 1152.52,698.30 1148.83,696.51
             1145.12,694.71 1139.13,695.20 1135.00,694.72
             1125.66,693.61 1103.57,691.92 1095.00,694.00 Z" />
  <path id="Tangalan"
        fill="none" stroke="black" stroke-width="1"
        d="M 1380.00,593.00
           C 1382.15,595.91 1383.54,604.36 1383.00,608.00
             1383.00,608.00 1381.05,616.00 1381.05,616.00
             1380.77,619.32 1382.87,625.06 1384.43,628.00
             1388.74,636.11 1394.75,639.67 1402.00,644.51
             1410.81,650.40 1414.67,655.97 1426.00,658.19
             1429.10,658.91 1431.28,657.92 1435.00,658.19
             1440.85,658.39 1443.19,660.93 1447.09,659.74
             1447.09,659.74 1463.79,651.36 1463.79,651.36
             1468.84,647.20 1466.99,643.71 1481.00,639.00
             1484.30,646.97 1478.19,648.50 1482.83,660.00
             1488.52,674.12 1508.84,692.10 1520.00,702.99
             1526.76,709.58 1537.93,715.56 1545.96,721.58
             1548.37,723.38 1554.59,728.25 1555.26,731.09
             1555.93,733.93 1553.43,736.83 1551.90,739.00
             1545.74,747.77 1543.55,747.97 1533.00,748.00
             1533.00,748.00 1534.60,761.99 1534.60,761.99
             1534.60,761.99 1530.00,774.00 1530.00,774.00
             1530.00,774.00 1491.00,801.91 1491.00,801.91
             1491.00,801.91 1466.00,813.65 1466.00,813.65
             1459.36,818.29 1451.79,828.57 1446.96,832.47
             1446.96,832.47 1437.17,839.33 1437.17,839.33
             1429.73,846.11 1423.03,854.27 1416.63,861.99
             1416.63,861.99 1408.68,870.32 1408.68,870.32
             1406.90,873.24 1405.91,879.50 1405.20,883.00
             1405.20,883.00 1399.40,909.00 1399.40,909.00
             1396.73,917.12 1387.37,933.32 1382.71,940.96
             1382.71,940.96 1362.85,976.00 1362.85,976.00
             1362.85,976.00 1353.01,993.00 1353.01,993.00
             1351.67,995.27 1350.08,998.62 1347.79,999.98
             1345.96,1001.06 1342.22,1001.13 1340.00,1001.42
             1340.00,1001.42 1322.00,1003.00 1322.00,1003.00
             1322.00,1003.00 1318.00,970.00 1318.00,970.00
             1318.00,970.00 1318.00,946.00 1318.00,946.00
             1318.00,946.00 1318.83,934.00 1318.83,934.00
             1318.83,934.00 1318.83,919.00 1318.83,919.00
             1318.45,910.75 1320.84,899.32 1321.85,891.00
             1321.85,891.00 1323.17,874.00 1323.17,874.00
             1323.17,874.00 1328.25,841.00 1328.25,841.00
             1332.01,819.33 1341.97,789.39 1342.00,768.00
             1342.00,768.00 1342.00,751.00 1342.00,751.00
             1342.02,739.08 1345.97,729.14 1349.67,718.00
             1349.67,718.00 1363.59,675.00 1363.59,675.00
             1363.59,675.00 1367.95,663.00 1367.95,663.00
             1369.39,657.46 1367.74,656.74 1367.39,652.00
             1367.39,652.00 1368.11,638.00 1368.11,638.00
             1368.85,633.05 1369.95,624.58 1371.41,620.09
             1371.41,620.09 1375.12,611.99 1375.12,611.99
             1375.12,611.99 1380.00,593.00 1380.00,593.00 Z" />
  <path id="Makoto"
        fill="none" stroke="black" stroke-width="1"
        d="M 1355.00,999.00
           C 1356.39,991.57 1363.19,981.68 1367.20,975.00
             1367.20,975.00 1390.69,934.00 1390.69,934.00
             1398.40,919.75 1402.04,913.85 1406.08,898.00
             1407.43,892.71 1410.49,874.42 1412.73,871.09
             1412.73,871.09 1419.48,863.96 1419.48,863.96
             1419.48,863.96 1424.52,857.00 1424.52,857.00
             1426.91,853.96 1435.01,845.81 1438.00,843.10
             1438.00,843.10 1449.00,834.82 1449.00,834.82
             1449.00,834.82 1468.00,816.65 1468.00,816.65
             1468.00,816.65 1490.00,806.49 1490.00,806.49
             1490.00,806.49 1522.00,783.72 1522.00,783.72
             1522.00,783.72 1529.87,778.97 1529.87,778.97
             1534.94,775.41 1531.97,773.20 1533.98,769.45
             1534.87,767.78 1538.48,764.81 1538.69,761.00
             1538.89,757.43 1535.27,754.51 1537.08,751.31
             1538.26,749.23 1540.96,749.14 1543.00,748.53
             1545.33,747.83 1547.59,746.51 1550.00,746.14
             1555.34,745.75 1553.33,748.43 1562.00,746.14
             1567.02,751.77 1571.43,754.25 1574.00,762.00
             1572.02,762.10 1569.97,762.10 1568.10,762.89
             1565.03,764.18 1559.99,770.42 1561.25,773.89
             1562.02,776.02 1564.19,776.99 1566.00,778.00
             1565.30,783.39 1565.17,787.07 1571.00,789.00
             1565.60,797.22 1565.26,796.26 1571.73,807.00
             1572.87,808.89 1575.32,813.52 1578.14,812.04
             1579.86,811.14 1580.58,808.80 1580.53,807.00
             1580.43,803.48 1577.57,800.36 1577.66,797.00
             1577.80,791.88 1582.30,790.38 1582.00,783.00
             1585.84,783.23 1589.91,783.74 1591.31,788.04
             1592.22,790.82 1589.96,795.89 1595.19,798.67
             1599.13,800.76 1602.19,798.14 1605.96,797.42
             1608.78,796.88 1613.06,797.68 1616.00,798.00
             1613.64,808.05 1609.67,810.91 1609.04,812.37
             1606.99,817.07 1612.50,819.25 1616.00,820.00
             1616.00,820.00 1614.52,827.00 1614.52,827.00
             1614.52,827.00 1621.39,839.26 1621.39,839.26
             1621.39,839.26 1626.00,841.00 1626.00,841.00
             1627.03,847.37 1632.48,853.40 1638.00,856.59
             1641.22,858.45 1644.53,858.55 1646.53,862.19
             1648.90,866.47 1646.01,872.26 1645.06,876.72
             1645.06,876.72 1645.06,885.00 1645.06,885.00
             1644.45,895.42 1634.73,907.56 1628.11,915.00
             1628.11,915.00 1621.74,923.83 1621.74,923.83
             1621.74,923.83 1614.20,931.29 1614.20,931.29
             1605.40,940.70 1604.40,942.73 1594.09,951.74
             1594.09,951.74 1570.00,973.12 1570.00,973.12
             1566.69,975.64 1561.99,979.55 1558.00,980.65
             1548.92,982.95 1538.17,981.92 1529.00,980.65
             1529.00,980.65 1513.42,978.98 1513.42,978.98
             1508.70,979.69 1506.71,984.83 1502.83,986.40
             1500.53,987.34 1489.17,987.03 1486.00,987.00
             1486.00,987.00 1467.00,986.00 1467.00,986.00
             1467.00,986.00 1437.83,991.16 1437.83,991.16
             1437.83,991.16 1428.00,991.16 1428.00,991.16
             1428.00,991.16 1421.00,991.16 1421.00,991.16
             1421.00,991.16 1411.83,992.63 1411.83,992.63
             1411.83,992.63 1403.00,992.63 1403.00,992.63
             1403.00,992.63 1355.00,999.00 1355.00,999.00 Z" />
  <path id="Malinao"
        fill="none" stroke="black" stroke-width="1"
        d="M 1147.00,1066.00
           C 1147.00,1066.00 1177.00,1077.81 1177.00,1077.81
             1209.19,1087.78 1234.37,1091.39 1268.00,1091.00
             1271.52,1090.96 1284.88,1089.72 1288.00,1088.83
             1295.55,1086.67 1299.64,1082.41 1305.00,1077.00
             1317.15,1064.72 1322.79,1054.34 1323.00,1037.00
             1323.00,1037.00 1323.00,1024.00 1323.00,1024.00
             1323.00,1020.80 1321.49,1010.62 1323.00,1008.74
             1324.56,1006.78 1334.18,1006.27 1337.00,1005.95
             1337.00,1005.95 1353.00,1003.19 1353.00,1003.19
             1353.00,1003.19 1374.00,1000.42 1374.00,1000.42
             1389.96,998.17 1405.87,996.03 1422.00,996.00
             1422.00,996.00 1464.00,991.00 1464.00,991.00
             1464.00,991.00 1496.00,991.00 1496.00,991.00
             1499.37,990.99 1502.00,991.28 1505.00,989.40
             1508.11,987.46 1510.12,984.08 1514.00,983.48
             1514.00,983.48 1542.00,986.82 1542.00,986.82
             1542.00,986.82 1560.00,985.22 1560.00,985.22
             1563.85,985.52 1571.16,988.52 1575.00,989.95
             1575.00,989.95 1596.00,998.22 1596.00,998.22
             1600.89,1001.04 1605.61,1008.38 1611.00,1012.73
             1615.64,1016.47 1636.91,1024.37 1643.00,1025.00
             1643.49,1026.86 1643.71,1028.16 1644.85,1029.82
             1647.56,1033.77 1657.19,1040.08 1662.00,1040.57
             1669.57,1041.36 1669.55,1038.88 1678.00,1040.00
             1674.78,1048.97 1674.09,1046.61 1668.10,1052.20
             1668.10,1052.20 1663.41,1057.22 1663.41,1057.22
             1663.41,1057.22 1639.00,1072.54 1639.00,1072.54
             1631.92,1077.66 1632.04,1082.65 1629.44,1085.61
             1627.05,1088.34 1622.25,1089.79 1619.33,1092.47
             1616.77,1094.81 1613.18,1101.65 1611.00,1105.00
             1612.79,1105.71 1614.93,1106.84 1616.91,1106.33
             1619.69,1105.62 1621.11,1102.35 1622.90,1100.39
             1626.04,1096.96 1635.27,1092.01 1639.85,1094.43
             1644.98,1097.14 1642.26,1106.72 1640.60,1111.00
             1637.71,1118.46 1630.00,1120.94 1628.56,1126.01
             1627.88,1128.40 1629.90,1133.43 1630.64,1136.00
             1633.43,1145.72 1640.01,1153.08 1641.00,1164.00
             1641.00,1164.00 1638.00,1164.00 1638.00,1164.00
             1638.00,1164.00 1638.00,1189.00 1638.00,1189.00
             1638.00,1189.00 1641.68,1214.00 1641.68,1214.00
             1641.68,1214.00 1641.68,1223.00 1641.68,1223.00
             1641.32,1227.64 1642.43,1228.02 1640.32,1233.00
             1635.89,1243.45 1627.39,1248.03 1623.93,1254.00
             1621.36,1258.44 1621.56,1264.80 1618.57,1267.40
             1615.58,1270.00 1611.54,1268.09 1606.17,1272.40
             1606.17,1272.40 1596.96,1281.18 1596.96,1281.18
             1595.26,1283.46 1594.41,1286.31 1591.79,1287.98
             1588.43,1289.75 1584.92,1287.94 1581.00,1287.98
             1577.55,1288.32 1574.07,1289.93 1571.00,1291.42
             1571.00,1291.42 1550.00,1304.83 1550.00,1304.83
             1545.33,1306.93 1543.11,1302.47 1539.10,1304.83
             1535.26,1306.89 1535.20,1312.04 1529.96,1313.57
             1529.96,1313.57 1515.00,1315.17 1515.00,1315.17
             1515.00,1315.17 1497.00,1318.42 1497.00,1318.42
             1497.00,1318.42 1457.00,1326.65 1457.00,1326.65
             1457.00,1326.65 1438.00,1331.34 1438.00,1331.34
             1438.00,1331.34 1415.00,1335.51 1415.00,1335.51
             1415.00,1335.51 1394.00,1343.39 1394.00,1343.39
             1394.00,1343.39 1360.00,1355.41 1360.00,1355.41
             1347.99,1358.74 1328.94,1359.73 1316.00,1361.08
             1316.00,1361.08 1263.00,1376.08 1263.00,1376.08
             1263.00,1376.08 1220.00,1382.42 1220.00,1382.42
             1220.00,1382.42 1195.00,1386.22 1195.00,1386.22
             1192.32,1386.35 1187.63,1387.41 1185.21,1386.22
             1181.55,1384.86 1179.29,1377.50 1177.77,1374.00
             1174.55,1366.56 1170.07,1361.20 1164.61,1355.28
             1153.08,1342.77 1142.36,1330.06 1143.51,1312.00
             1144.08,1303.02 1145.33,1295.68 1147.74,1287.00
             1147.74,1287.00 1150.50,1278.00 1150.50,1278.00
             1151.95,1271.85 1151.81,1264.55 1154.03,1259.00
             1159.25,1245.92 1172.20,1227.82 1171.92,1214.00
             1171.82,1208.95 1168.39,1202.77 1166.45,1198.00
             1166.45,1198.00 1162.04,1187.00 1162.04,1187.00
             1162.04,1187.00 1159.46,1178.00 1159.46,1178.00
             1159.46,1178.00 1156.45,1170.01 1156.45,1170.01
             1152.06,1155.00 1152.02,1141.37 1152.00,1126.00
             1151.97,1104.55 1142.70,1090.00 1147.00,1066.00 Z" />
  <path id="Banga"
        fill="none" stroke="black" stroke-width="1"
        d="M 1735.00,1016.00
           C 1735.00,1016.00 1768.00,1032.00 1768.00,1032.00
             1768.00,1032.00 1762.16,1041.00 1762.16,1041.00
             1761.47,1042.71 1761.63,1044.27 1761.30,1046.00
             1760.75,1048.91 1759.33,1050.71 1759.86,1053.72
             1760.78,1058.90 1764.89,1064.92 1769.00,1068.00
             1768.97,1072.99 1773.52,1082.06 1776.68,1085.90
             1776.68,1085.90 1781.17,1090.59 1781.17,1090.59
             1781.17,1090.59 1786.59,1097.99 1786.59,1097.99
             1786.59,1097.99 1791.92,1104.28 1791.92,1104.28
             1791.92,1104.28 1796.62,1117.96 1796.62,1117.96
             1798.95,1123.03 1801.43,1123.70 1801.00,1130.00
             1803.92,1132.07 1803.46,1133.29 1805.44,1136.00
             1811.10,1143.77 1810.26,1138.24 1814.02,1149.00
             1815.07,1152.01 1816.50,1155.97 1812.66,1157.87
             1808.79,1159.78 1805.95,1154.33 1801.00,1154.47
             1797.55,1154.57 1794.16,1157.29 1791.00,1158.31
             1786.73,1159.68 1782.75,1158.21 1779.09,1160.17
             1776.82,1161.39 1774.81,1163.96 1773.29,1166.00
             1769.85,1170.63 1762.59,1181.19 1763.42,1187.00
             1764.20,1192.43 1768.56,1197.11 1768.14,1204.00
             1767.77,1210.21 1761.62,1212.42 1763.49,1217.91
             1764.21,1220.04 1766.16,1221.39 1767.07,1224.09
             1768.20,1227.46 1767.16,1231.79 1768.90,1234.91
             1770.92,1238.52 1776.25,1240.33 1774.49,1247.00
             1771.46,1258.43 1762.93,1259.28 1756.80,1267.17
             1752.11,1273.19 1750.73,1283.35 1742.33,1290.46
             1737.04,1294.95 1733.83,1289.22 1728.30,1297.04
             1728.30,1297.04 1718.00,1314.00 1718.00,1314.00
             1716.69,1316.18 1713.74,1320.66 1713.38,1323.00
             1712.64,1327.82 1717.48,1330.14 1715.82,1337.00
             1715.82,1337.00 1698.00,1386.00 1698.00,1386.00
             1698.00,1386.00 1672.00,1389.00 1672.00,1389.00
             1672.00,1389.00 1645.00,1390.00 1645.00,1390.00
             1641.15,1390.04 1637.41,1390.32 1634.04,1388.11
             1629.71,1385.26 1628.48,1380.36 1626.22,1376.00
             1626.22,1376.00 1611.58,1349.00 1611.58,1349.00
             1609.35,1345.07 1606.10,1336.60 1601.41,1335.90
             1596.16,1335.12 1590.88,1340.23 1587.52,1337.96
             1584.56,1335.95 1585.34,1328.18 1585.41,1325.00
             1585.55,1318.57 1583.18,1316.47 1582.96,1313.00
             1582.66,1308.40 1586.08,1305.37 1587.09,1302.72
             1587.93,1300.51 1587.43,1298.38 1588.54,1296.19
             1590.08,1293.13 1593.45,1292.10 1595.73,1289.74
             1600.20,1285.10 1596.22,1285.55 1604.84,1278.60
             1606.61,1277.17 1608.04,1275.69 1610.09,1274.60
             1614.63,1272.20 1616.98,1273.94 1620.82,1270.69
             1628.17,1264.47 1622.55,1261.41 1631.56,1250.28
             1636.89,1243.70 1646.51,1234.03 1645.69,1225.00
             1645.69,1225.00 1645.69,1207.00 1645.69,1207.00
             1645.99,1201.80 1647.48,1200.98 1647.57,1191.00
             1647.97,1185.94 1646.60,1185.88 1647.57,1177.72
             1647.57,1177.72 1650.07,1163.73 1650.07,1163.73
             1649.55,1155.56 1638.32,1135.19 1638.69,1129.01
             1638.92,1125.20 1643.19,1122.95 1645.71,1120.54
             1649.69,1116.73 1652.18,1112.59 1652.00,1107.00
             1653.97,1105.37 1656.26,1103.81 1656.46,1100.99
             1656.79,1096.35 1646.96,1086.18 1643.00,1084.00
             1646.48,1077.26 1658.31,1070.13 1664.91,1066.32
             1669.05,1063.93 1670.39,1061.11 1674.00,1058.94
             1677.27,1056.98 1679.23,1057.57 1682.99,1055.80
             1682.99,1055.80 1697.89,1045.59 1697.89,1045.59
             1705.85,1038.82 1700.25,1031.67 1706.34,1027.18
             1717.52,1018.95 1726.98,1030.56 1735.00,1016.00 Z" />
  <path id="Madalag"
        fill="none" stroke="black" stroke-width="1"
        d="M 1313.00,2032.00
           C 1313.00,2032.00 1294.52,2013.00 1294.52,2013.00
             1288.36,2005.13 1278.55,1985.54 1274.12,1976.00
             1270.25,1967.69 1265.79,1957.45 1266.38,1948.00
             1266.75,1941.89 1272.13,1923.67 1274.87,1918.00
             1274.87,1918.00 1283.88,1901.00 1283.88,1901.00
             1283.88,1901.00 1293.43,1873.00 1293.43,1873.00
             1294.67,1868.98 1297.09,1863.98 1297.66,1860.00
             1298.61,1853.39 1294.31,1836.80 1292.28,1830.00
             1288.71,1818.03 1279.28,1800.76 1269.00,1793.51
             1267.49,1792.44 1257.08,1788.26 1255.00,1787.62
             1248.74,1785.70 1244.95,1786.54 1240.00,1785.79
             1240.00,1785.79 1233.00,1783.64 1233.00,1783.64
             1229.18,1782.68 1226.99,1783.96 1224.84,1781.60
             1219.83,1776.10 1222.08,1759.57 1222.00,1752.00
             1222.00,1752.00 1221.09,1739.00 1221.09,1739.00
             1221.09,1739.00 1222.90,1729.00 1222.90,1729.00
             1222.90,1729.00 1222.90,1719.00 1222.90,1719.00
             1222.90,1719.00 1223.79,1713.00 1223.79,1713.00
             1223.79,1713.00 1223.09,1705.00 1223.09,1705.00
             1222.34,1693.99 1222.10,1682.77 1219.25,1672.00
             1215.40,1657.46 1212.38,1656.94 1206.31,1646.00
             1206.31,1646.00 1192.04,1620.04 1192.04,1620.04
             1187.13,1612.84 1173.52,1602.33 1165.00,1599.52
             1154.42,1596.03 1143.30,1596.21 1135.04,1587.96
             1128.72,1581.64 1128.10,1574.56 1128.00,1566.00
             1128.00,1566.00 1128.00,1543.00 1128.00,1543.00
             1128.00,1543.00 1129.00,1526.00 1129.00,1526.00
             1129.00,1526.00 1129.00,1507.00 1129.00,1507.00
             1129.00,1507.00 1133.60,1477.00 1133.60,1477.00
             1135.11,1472.39 1138.46,1467.41 1140.74,1463.00
             1143.59,1457.49 1152.46,1441.66 1155.90,1437.28
             1159.34,1432.92 1164.02,1429.80 1167.91,1425.91
             1167.91,1425.91 1177.24,1415.00 1177.24,1415.00
             1181.16,1410.22 1182.62,1408.09 1184.10,1402.00
             1184.86,1398.89 1184.60,1394.02 1187.31,1392.17
             1189.51,1390.68 1200.69,1389.50 1204.00,1388.99
             1204.00,1388.99 1242.00,1382.87 1242.00,1382.87
             1242.00,1382.87 1265.00,1379.50 1265.00,1379.50
             1265.00,1379.50 1312.04,1366.30 1312.04,1366.30
             1312.04,1366.30 1325.00,1364.83 1325.00,1364.83
             1325.00,1364.83 1351.00,1361.58 1351.00,1361.58
             1351.00,1361.58 1400.00,1344.95 1400.00,1344.95
             1400.00,1344.95 1416.00,1339.51 1416.00,1339.51
             1416.00,1339.51 1438.00,1335.58 1438.00,1335.58
             1438.00,1335.58 1493.00,1323.42 1493.00,1323.42
             1493.00,1323.42 1516.00,1319.29 1516.00,1319.29
             1520.65,1318.71 1525.48,1319.08 1530.00,1317.53
             1536.46,1315.31 1537.60,1310.34 1539.68,1309.20
             1542.84,1307.05 1546.38,1311.16 1550.90,1309.20
             1552.84,1308.59 1555.11,1305.97 1557.21,1304.59
             1567.07,1298.07 1571.86,1293.64 1584.00,1292.00
             1583.77,1294.90 1583.14,1300.37 1582.19,1303.00
             1580.82,1306.83 1577.98,1309.64 1578.73,1314.00
             1579.88,1320.60 1581.23,1315.45 1580.51,1327.00
             1580.16,1332.73 1581.43,1341.22 1588.00,1343.01
             1591.58,1343.97 1593.82,1341.02 1598.00,1340.36
             1599.58,1340.11 1601.21,1340.15 1602.61,1341.03
             1605.28,1342.68 1611.62,1356.43 1613.42,1360.00
             1613.42,1360.00 1623.03,1378.00 1623.03,1378.00
             1626.13,1384.21 1628.99,1390.70 1636.00,1393.80
             1638.57,1394.66 1644.85,1394.00 1648.00,1393.80
             1659.33,1393.98 1667.62,1394.37 1679.00,1392.73
             1682.88,1392.17 1696.03,1389.70 1699.00,1390.63
             1708.51,1393.61 1718.83,1415.35 1723.91,1424.00
             1725.62,1426.91 1730.65,1434.25 1731.30,1436.96
             1732.58,1442.29 1723.91,1444.34 1720.00,1446.24
             1720.00,1446.24 1703.00,1453.78 1703.00,1453.78
             1700.84,1454.80 1697.32,1456.35 1696.02,1458.39
             1694.77,1460.35 1695.01,1463.72 1695.00,1466.00
             1691.08,1466.00 1685.59,1465.62 1682.00,1466.99
             1673.33,1470.30 1667.62,1482.36 1666.00,1491.00
             1662.06,1491.00 1658.58,1491.56 1655.47,1488.69
             1652.81,1486.24 1649.24,1478.70 1645.43,1478.52
             1642.81,1478.40 1640.86,1482.21 1637.91,1484.58
             1634.92,1487.00 1629.82,1488.51 1626.00,1488.81
             1620.82,1489.22 1618.52,1487.23 1614.00,1485.46
             1607.69,1483.00 1604.51,1482.31 1597.96,1481.34
             1596.15,1481.29 1593.81,1480.75 1592.02,1481.34
             1585.08,1482.81 1588.13,1489.99 1587.60,1493.00
             1587.16,1495.48 1585.33,1497.89 1583.41,1499.44
             1582.06,1500.53 1571.75,1505.30 1570.00,1505.66
             1565.42,1506.59 1560.18,1505.89 1556.10,1508.73
             1552.91,1510.96 1549.77,1517.48 1547.58,1521.00
             1547.58,1521.00 1533.00,1545.00 1533.00,1545.00
             1528.73,1544.01 1523.86,1541.00 1521.78,1547.02
             1520.41,1550.98 1523.70,1554.52 1522.77,1560.00
             1521.81,1565.65 1517.60,1565.98 1516.85,1569.21
             1516.34,1571.44 1518.22,1574.04 1517.85,1578.00
             1517.71,1579.55 1512.57,1591.10 1511.61,1592.61
             1508.83,1596.98 1502.06,1596.08 1498.19,1598.31
             1495.41,1599.91 1488.77,1612.51 1487.61,1615.83
             1486.04,1620.35 1490.10,1622.10 1491.66,1626.00
             1492.65,1628.45 1492.99,1636.40 1492.27,1639.00
             1489.89,1647.67 1476.16,1653.40 1475.14,1662.00
             1474.29,1669.06 1478.41,1681.93 1480.10,1689.00
             1481.39,1694.36 1480.69,1695.41 1481.29,1700.00
             1481.29,1700.00 1484.40,1716.00 1484.40,1716.00
             1485.96,1723.79 1489.91,1739.07 1490.00,1746.00
             1490.00,1746.00 1490.00,1769.00 1490.00,1769.00
             1489.92,1775.18 1488.99,1777.37 1488.29,1783.00
             1488.29,1783.00 1487.25,1792.00 1487.25,1792.00
             1486.20,1796.39 1481.05,1811.41 1479.04,1815.00
             1479.04,1815.00 1470.75,1828.00 1470.75,1828.00
             1470.75,1828.00 1467.82,1836.00 1467.82,1836.00
             1467.82,1836.00 1452.92,1859.00 1452.92,1859.00
             1452.92,1859.00 1447.39,1869.00 1447.39,1869.00
             1447.39,1869.00 1429.26,1897.00 1429.26,1897.00
             1429.26,1897.00 1414.42,1915.13 1414.42,1915.13
             1414.42,1915.13 1402.56,1930.00 1402.56,1930.00
             1402.56,1930.00 1393.09,1940.00 1393.09,1940.00
             1393.09,1940.00 1375.59,1960.61 1375.59,1960.61
             1375.59,1960.61 1363.72,1976.00 1363.72,1976.00
             1363.72,1976.00 1335.42,2009.00 1335.42,2009.00
             1330.27,2015.62 1320.66,2029.16 1313.00,2032.00 Z" />
  <path id="Numancia"
        fill="none" stroke="black" stroke-width="1"
        d="M 1723.00,814.00
           C 1723.00,814.00 1728.86,807.98 1728.86,807.98
             1728.86,807.98 1732.31,800.60 1732.31,800.60
             1732.31,800.60 1743.00,799.71 1743.00,799.71
             1743.00,799.71 1753.00,798.10 1753.00,798.10
             1753.00,798.10 1780.00,801.00 1780.00,801.00
             1780.00,801.00 1777.00,810.00 1777.00,810.00
             1774.16,811.27 1769.64,813.19 1768.28,816.18
             1766.88,819.26 1769.61,825.05 1776.00,818.00
             1784.95,822.72 1784.54,831.38 1786.72,839.58
             1787.42,842.19 1789.09,845.50 1790.23,848.00
             1791.75,851.35 1794.23,857.11 1791.98,860.61
             1789.17,864.97 1780.56,863.41 1772.00,866.93
             1764.04,870.20 1752.46,884.25 1754.72,893.58
             1755.76,897.84 1759.66,900.95 1762.00,906.00
             1762.00,906.00 1755.58,911.38 1755.58,911.38
             1751.52,914.61 1748.12,915.03 1744.89,920.02
             1742.36,923.91 1742.70,927.72 1741.30,931.00
             1739.21,935.92 1729.87,945.63 1725.00,948.00
             1719.24,938.88 1716.51,937.40 1710.21,930.00
             1706.97,926.19 1706.59,923.40 1701.96,920.82
             1701.96,920.82 1669.00,909.67 1669.00,909.67
             1665.38,908.16 1652.87,898.70 1650.31,895.71
             1647.49,892.41 1648.46,890.80 1648.57,887.00
             1648.63,883.59 1647.88,881.67 1648.57,878.00
             1649.58,872.86 1652.34,867.33 1651.02,862.00
             1649.04,854.00 1642.75,851.85 1640.17,848.72
             1640.17,848.72 1629.06,833.72 1629.06,833.72
             1626.99,830.18 1629.95,830.99 1624.00,824.00
             1631.26,820.66 1631.24,819.06 1634.00,812.00
             1634.00,812.00 1648.00,820.61 1648.00,820.61
             1648.00,820.61 1660.00,820.61 1660.00,820.61
             1660.00,820.61 1666.00,820.61 1666.00,820.61
             1666.00,820.61 1672.71,819.47 1672.71,819.47
             1672.71,819.47 1685.00,818.03 1685.00,818.03
             1685.00,818.03 1692.79,816.96 1692.79,816.96
             1692.79,816.96 1697.00,812.00 1697.00,812.00
             1697.00,812.00 1712.80,812.00 1712.80,812.00
             1712.80,813.62 1712.32,816.43 1712.80,817.96
             1714.23,826.78 1725.05,823.61 1729.00,829.00
             1727.53,829.31 1726.43,829.40 1725.06,830.17
             1717.02,834.69 1727.33,841.95 1730.68,846.00
             1732.49,848.19 1735.18,852.67 1737.87,853.51
             1739.95,854.16 1744.93,851.81 1747.00,851.00
             1747.00,851.00 1742.00,843.00 1742.00,843.00
             1742.00,843.00 1739.00,845.00 1739.00,845.00
             1738.42,842.99 1736.58,833.72 1736.73,832.00
             1737.17,826.95 1742.12,821.79 1735.86,817.69
             1732.85,815.71 1730.39,817.79 1723.00,816.00
             1723.00,816.00 1723.00,814.00 1723.00,814.00 Z" />
  <path id="Lazo"
        fill="none" stroke="black" stroke-width="1"
        d="M 1645.00,897.00
           C 1653.51,900.33 1659.01,908.45 1667.00,912.74
             1667.00,912.74 1700.90,924.22 1700.90,924.22
             1702.69,925.34 1714.56,938.82 1716.10,941.00
             1719.55,945.86 1723.66,949.83 1723.00,956.00
             1723.00,956.00 1726.00,957.00 1726.00,957.00
             1726.00,957.00 1726.00,958.00 1726.00,958.00
             1726.00,958.00 1724.00,959.00 1724.00,959.00
             1727.09,963.07 1727.40,972.82 1727.38,978.00
             1727.35,983.33 1728.80,984.90 1730.00,990.00
             1730.00,990.00 1723.00,989.00 1723.00,989.00
             1723.00,989.00 1724.00,987.00 1724.00,987.00
             1724.00,987.00 1722.00,987.00 1722.00,987.00
             1724.13,977.36 1717.78,978.24 1715.82,980.16
             1715.82,980.16 1712.00,990.00 1712.00,990.00
             1716.53,994.11 1717.21,995.36 1715.00,1001.00
             1712.08,1001.70 1711.73,1002.11 1711.00,1005.00
             1711.00,1005.00 1708.00,1006.00 1708.00,1006.00
             1708.00,1006.00 1709.00,1008.00 1709.00,1008.00
             1709.00,1008.00 1707.00,1008.00 1707.00,1008.00
             1707.00,1008.00 1706.00,1010.00 1706.00,1010.00
             1706.00,1010.00 1707.00,1014.00 1707.00,1014.00
             1707.00,1014.00 1701.00,1021.00 1701.00,1021.00
             1701.00,1021.00 1687.00,1023.00 1687.00,1023.00
             1685.50,1026.23 1680.21,1033.87 1676.87,1035.27
             1674.60,1036.22 1670.61,1035.92 1668.00,1035.95
             1663.99,1036.55 1661.98,1037.57 1658.00,1035.95
             1655.72,1034.67 1651.16,1031.46 1649.58,1029.54
             1647.41,1026.90 1647.69,1024.22 1643.94,1021.98
             1643.94,1021.98 1614.01,1010.59 1614.01,1010.59
             1608.99,1007.73 1604.14,1000.01 1598.00,995.64
             1593.70,992.57 1571.64,984.32 1566.00,983.00
             1567.67,977.93 1571.99,975.68 1576.00,972.39
             1576.00,972.39 1596.00,954.83 1596.00,954.83
             1596.00,954.83 1616.04,934.00 1616.04,934.00
             1616.04,934.00 1626.70,923.91 1626.70,923.91
             1626.70,923.91 1630.54,918.00 1630.54,918.00
             1630.54,918.00 1636.96,910.00 1636.96,910.00
             1636.96,910.00 1645.00,897.00 1645.00,897.00 Z" />
  <path id="Kalibo"
        fill="none" stroke="black" stroke-width="1"
        d="M 1826.00,800.00
           C 1826.00,800.00 1842.00,802.00 1842.00,802.00
             1838.11,809.23 1833.06,812.73 1825.00,814.00
             1825.00,814.00 1826.00,800.00 1826.00,800.00 Z
           M 1815.00,805.00
           C 1815.00,805.00 1817.00,805.00 1817.00,805.00
             1817.00,805.00 1817.00,810.00 1817.00,810.00
             1817.00,810.00 1815.00,810.00 1815.00,810.00
             1815.00,810.00 1815.00,805.00 1815.00,805.00 Z
           M 1795.00,807.00
           C 1799.70,809.15 1801.45,809.86 1803.00,815.00
             1797.08,814.79 1793.62,813.77 1795.00,807.00 Z
           M 1849.00,820.00
           C 1849.00,820.00 1853.00,816.00 1853.00,816.00
             1853.00,816.00 1853.00,821.00 1853.00,821.00
             1853.00,821.00 1849.00,820.00 1849.00,820.00 Z
           M 1803.00,847.00
           C 1801.49,842.47 1796.70,830.62 1799.30,826.43
             1801.08,823.56 1810.65,821.52 1814.00,821.00
             1814.00,821.00 1816.00,841.00 1816.00,841.00
             1810.69,842.09 1808.92,842.19 1806.00,847.00
             1806.00,847.00 1803.00,847.00 1803.00,847.00 Z
           M 1823.00,824.00
           C 1823.00,824.00 1825.00,824.00 1825.00,824.00
             1825.00,824.00 1825.00,834.00 1825.00,834.00
             1819.35,831.08 1820.11,828.96 1823.00,824.00 Z
           M 1789.00,874.00
           C 1801.34,871.10 1802.89,866.13 1811.01,858.01
             1811.01,858.01 1824.00,846.95 1824.00,846.95
             1832.05,839.84 1831.61,838.98 1842.00,837.52
             1843.60,837.52 1846.24,836.96 1847.77,837.52
             1851.98,838.37 1850.15,843.06 1852.01,847.00
             1853.50,850.15 1856.51,852.21 1858.21,858.00
             1859.96,863.95 1859.40,870.76 1861.93,877.00
             1864.61,883.62 1868.30,885.40 1871.65,891.00
             1871.65,891.00 1887.20,921.00 1887.20,921.00
             1887.20,921.00 1899.72,939.00 1899.72,939.00
             1910.04,953.65 1919.09,959.73 1927.00,978.00
             1919.86,980.61 1915.79,979.48 1912.21,982.01
             1906.53,986.01 1907.55,995.11 1906.40,997.79
             1904.46,1002.35 1901.49,1000.06 1900.00,1009.00
             1896.83,1009.00 1888.01,1009.75 1885.99,1007.26
             1884.84,1005.84 1885.37,990.07 1876.00,990.71
             1866.71,991.33 1864.38,1006.90 1861.78,1010.90
             1857.93,1016.80 1850.30,1016.98 1844.00,1017.00
             1844.00,1017.00 1846.05,1007.58 1846.05,1007.58
             1846.20,1001.59 1839.61,991.43 1835.54,987.33
             1828.46,980.21 1816.58,975.51 1814.00,989.00
             1807.94,990.24 1797.70,995.95 1793.37,1000.33
             1793.37,1000.33 1788.79,1005.79 1788.79,1005.79
             1785.45,1009.07 1782.42,1009.49 1779.52,1012.39
             1775.34,1016.56 1772.71,1023.77 1770.00,1029.00
             1770.00,1029.00 1747.00,1017.60 1747.00,1017.60
             1740.38,1014.26 1734.18,1011.65 1734.18,1003.00
             1734.18,994.97 1741.05,991.01 1740.63,985.00
             1740.63,985.00 1738.35,977.00 1738.35,977.00
             1738.35,977.00 1738.93,967.00 1738.93,967.00
             1738.35,962.68 1737.11,958.14 1738.93,954.00
             1741.11,950.12 1749.43,942.87 1752.82,939.00
             1752.82,939.00 1758.59,931.00 1758.59,931.00
             1760.35,928.55 1762.88,926.03 1763.24,923.00
             1763.85,921.12 1763.32,918.87 1763.24,917.00
             1764.68,915.95 1766.42,914.95 1767.89,913.62
             1776.97,905.45 1766.99,898.33 1765.82,891.00
             1764.62,883.48 1772.63,874.59 1779.00,872.00
             1779.81,875.45 1780.87,879.19 1783.39,881.84
             1786.92,885.56 1789.66,883.66 1789.61,879.00
             1789.61,879.00 1789.00,874.00 1789.00,874.00 Z" />
  <path id="New Washington"
        fill="none" stroke="black" stroke-width="1"
        d="M 1915.00,982.91
           C 1924.47,985.70 1925.55,979.95 1930.91,982.91
             1937.87,986.56 1938.47,992.91 1942.20,997.72
             1942.20,997.72 1953.41,1010.17 1953.41,1010.17
             1960.18,1018.17 1963.82,1023.43 1972.00,1030.83
             1972.00,1030.83 1989.71,1047.28 1989.71,1047.28
             1989.71,1047.28 1998.17,1055.92 1998.17,1055.92
             1998.17,1055.92 2011.00,1067.44 2011.00,1067.44
             2011.00,1067.44 2017.08,1073.70 2017.08,1073.70
             2017.08,1073.70 2035.01,1089.17 2035.01,1089.17
             2045.28,1098.51 2055.85,1107.96 2067.00,1116.24
             2067.00,1116.24 2096.00,1135.32 2096.00,1135.32
             2096.00,1135.32 2132.00,1154.83 2132.00,1154.83
             2132.00,1154.83 2142.00,1159.23 2142.00,1159.23
             2142.00,1159.23 2154.00,1166.55 2154.00,1166.55
             2157.17,1168.43 2162.05,1170.49 2164.28,1173.33
             2165.49,1174.88 2168.02,1181.68 2169.00,1184.00
             2161.46,1190.31 2155.62,1206.67 2152.00,1216.00
             2152.00,1216.00 2138.47,1210.93 2138.47,1210.93
             2138.47,1210.93 2133.00,1205.00 2133.00,1205.00
             2133.38,1203.47 2134.13,1201.35 2133.78,1199.80
             2133.41,1198.16 2131.75,1196.32 2130.84,1194.83
             2127.33,1189.10 2126.26,1186.00 2120.00,1182.14
             2116.97,1180.27 2113.88,1179.99 2111.09,1177.69
             2107.52,1174.75 2106.56,1171.18 2098.83,1165.43
             2088.90,1158.04 2084.42,1162.23 2071.17,1153.56
             2071.17,1153.56 2044.00,1130.54 2044.00,1130.54
             2037.42,1125.85 2034.29,1127.95 2029.13,1122.87
             2029.13,1122.87 2017.35,1108.00 2017.35,1108.00
             2015.41,1104.77 2014.19,1101.02 2011.61,1098.21
             2008.46,1094.77 2002.30,1092.31 1999.79,1089.39
             1996.72,1085.84 1996.68,1081.21 1995.60,1077.00
             1995.60,1077.00 1989.30,1057.99 1989.30,1057.99
             1988.07,1054.07 1987.79,1050.11 1984.79,1047.09
             1974.53,1036.78 1966.31,1047.99 1960.00,1049.19
             1953.94,1050.73 1954.86,1045.96 1946.00,1049.19
             1946.00,1049.19 1943.00,1041.00 1943.00,1041.00
             1951.19,1034.35 1945.62,1032.31 1943.66,1026.00
             1942.81,1023.27 1943.49,1019.67 1940.70,1017.87
             1938.06,1016.16 1935.80,1018.22 1933.58,1019.24
             1924.85,1023.25 1927.44,1019.75 1923.00,1029.00
             1922.60,1027.02 1921.61,1024.06 1922.27,1022.17
             1922.92,1020.34 1925.21,1018.68 1925.84,1016.93
             1927.01,1013.68 1923.82,1011.39 1921.00,1010.83
             1917.47,1010.14 1912.23,1012.25 1909.95,1014.97
             1906.23,1019.41 1910.74,1020.66 1911.00,1031.00
             1901.76,1030.76 1893.81,1031.72 1887.60,1039.51
             1885.07,1042.68 1886.68,1046.52 1882.77,1048.26
             1878.47,1050.17 1875.65,1046.65 1872.00,1045.66
             1867.50,1044.46 1859.41,1044.75 1857.68,1050.02
             1857.68,1050.02 1857.00,1057.00 1857.00,1057.00
             1862.86,1058.44 1874.13,1061.65 1876.14,1068.02
             1876.97,1070.49 1875.96,1072.61 1876.14,1074.58
             1876.14,1074.58 1878.37,1081.83 1878.37,1081.83
             1878.89,1084.14 1878.66,1087.69 1880.01,1089.57
             1882.43,1092.95 1885.39,1090.60 1890.00,1094.00
             1884.70,1097.40 1881.62,1099.62 1885.44,1105.98
             1886.60,1107.92 1888.00,1109.75 1890.05,1110.79
             1891.34,1111.44 1905.62,1112.75 1907.00,1112.56
             1908.56,1112.36 1909.64,1111.65 1911.00,1111.00
             1911.00,1111.00 1920.00,1122.00 1920.00,1122.00
             1918.83,1123.50 1917.34,1125.02 1917.04,1127.00
             1915.68,1135.85 1933.14,1137.87 1939.00,1138.00
             1935.84,1145.96 1939.33,1144.67 1939.59,1149.96
             1939.75,1153.23 1937.32,1154.69 1937.15,1157.09
             1936.77,1162.41 1942.68,1164.55 1947.00,1164.00
             1948.96,1167.05 1950.31,1169.53 1954.02,1170.69
             1956.22,1171.38 1958.75,1170.89 1960.59,1172.05
             1962.92,1173.52 1964.16,1177.50 1965.00,1180.00
             1965.00,1180.00 1955.00,1178.11 1955.00,1178.11
             1955.00,1178.11 1943.00,1174.36 1943.00,1174.36
             1943.00,1174.36 1933.18,1178.09 1933.18,1178.09
             1933.18,1178.09 1927.56,1173.66 1927.56,1173.66
             1927.56,1173.66 1922.83,1176.41 1922.83,1176.41
             1922.83,1176.41 1917.00,1177.00 1917.00,1177.00
             1914.44,1168.24 1909.12,1164.92 1908.34,1160.91
             1908.08,1159.56 1909.11,1149.72 1909.40,1148.00
             1909.86,1145.93 1911.04,1143.45 1909.40,1141.60
             1906.32,1138.30 1901.62,1142.91 1898.00,1142.80
             1895.35,1142.28 1883.90,1132.88 1881.25,1142.80
             1881.02,1144.23 1881.08,1145.79 1881.25,1147.00
             1881.84,1155.69 1882.62,1153.92 1880.00,1163.00
             1874.71,1161.58 1875.28,1161.02 1871.00,1159.21
             1863.70,1156.12 1853.92,1153.13 1846.00,1153.61
             1841.41,1153.89 1838.17,1156.84 1832.00,1158.00
             1828.80,1147.26 1825.11,1151.24 1817.00,1149.00
             1816.25,1139.32 1810.97,1140.84 1807.64,1133.99
             1807.64,1133.99 1804.14,1123.04 1804.14,1123.04
             1804.14,1123.04 1799.73,1115.25 1799.73,1115.25
             1798.03,1110.91 1797.65,1106.12 1795.03,1102.13
             1795.03,1102.13 1787.49,1093.57 1787.49,1093.57
             1787.49,1093.57 1783.47,1087.26 1783.47,1087.26
             1781.46,1084.86 1779.16,1083.97 1776.94,1080.71
             1774.05,1076.43 1773.38,1070.98 1771.26,1067.17
             1768.67,1062.53 1764.38,1057.60 1764.31,1052.00
             1764.22,1044.61 1771.47,1032.57 1774.75,1026.00
             1776.34,1022.84 1778.92,1016.88 1781.39,1014.64
             1784.64,1011.68 1788.24,1011.96 1791.81,1008.49
             1795.03,1005.38 1794.66,1002.92 1797.30,1000.72
             1798.68,999.58 1800.40,999.16 1801.96,998.37
             1801.96,998.37 1808.17,994.41 1808.17,994.41
             1814.90,991.09 1818.29,993.54 1818.00,984.00
             1818.00,984.00 1825.00,984.00 1825.00,984.00
             1828.12,989.54 1830.25,986.82 1834.24,990.14
             1834.24,990.14 1842.05,1002.42 1842.05,1002.42
             1845.32,1008.78 1838.99,1011.98 1839.04,1015.02
             1839.15,1022.41 1853.61,1021.68 1858.00,1020.07
             1862.41,1018.46 1867.26,1011.43 1868.45,1007.00
             1869.50,1003.07 1869.64,996.11 1875.13,995.18
             1877.18,994.83 1880.12,997.07 1882.00,998.00
             1881.44,1001.61 1878.43,1010.62 1880.52,1013.51
             1882.09,1015.67 1888.58,1014.21 1891.09,1014.06
             1895.90,1013.41 1898.66,1014.45 1899.89,1014.06
             1904.35,1013.22 1904.83,1005.63 1905.00,1002.00
             1905.00,1002.00 1908.61,1000.28 1908.61,1000.28
             1908.61,1000.28 1916.44,989.95 1916.44,989.95
             1916.44,989.95 1915.00,982.91 1915.00,982.91 Z" />
  <path id="Batan"
        fill="none" stroke="black" stroke-width="1"
        d="M 2114.00,1303.00
           C 2115.15,1300.72 2116.41,1298.57 2116.76,1296.00
             2118.55,1282.83 2101.07,1284.33 2091.02,1277.24
             2086.99,1274.40 2084.32,1271.70 2082.41,1267.04
             2080.87,1263.26 2081.14,1258.00 2076.89,1255.82
             2073.26,1253.96 2062.58,1261.56 2057.99,1262.58
             2053.97,1263.48 2053.24,1261.22 2047.91,1260.01
             2042.45,1259.05 2037.45,1260.18 2032.17,1260.01
             2029.89,1259.75 2025.13,1258.61 2023.42,1259.07
             2016.10,1261.02 2019.93,1268.16 2019.63,1273.00
             2019.63,1273.00 2019.63,1278.00 2019.63,1278.00
             2019.63,1278.00 2020.18,1284.00 2020.18,1284.00
             2020.13,1287.38 2018.50,1289.50 2020.18,1292.96
             2021.39,1295.43 2024.19,1297.41 2026.03,1300.09
             2028.57,1303.79 2028.86,1307.00 2032.34,1310.70
             2035.37,1313.93 2039.99,1316.20 2040.86,1320.99
             2041.52,1324.58 2039.02,1326.10 2037.72,1329.07
             2037.72,1329.07 2036.02,1333.57 2036.02,1333.57
             2033.88,1337.02 2028.03,1340.94 2024.00,1341.60
             2024.00,1341.60 2016.00,1341.60 2016.00,1341.60
             2016.00,1341.60 2010.00,1342.91 2010.00,1342.91
             2001.76,1344.18 1996.24,1344.09 1988.00,1344.00
             1979.86,1343.90 1977.87,1342.17 1972.00,1341.46
             1967.57,1340.93 1963.32,1343.10 1958.50,1338.36
             1954.80,1334.73 1956.13,1329.51 1954.00,1323.00
             1954.00,1323.00 1950.42,1311.00 1950.42,1311.00
             1950.42,1311.00 1948.37,1301.00 1948.37,1301.00
             1948.37,1301.00 1944.39,1290.00 1944.39,1290.00
             1944.39,1290.00 1938.37,1276.93 1938.37,1276.93
             1937.54,1271.86 1942.91,1271.54 1940.50,1265.00
             1938.19,1258.73 1927.26,1249.59 1921.00,1247.65
             1917.12,1246.45 1913.97,1247.58 1910.06,1244.99
             1904.65,1241.41 1908.12,1238.40 1907.35,1235.17
             1907.01,1233.70 1904.32,1230.26 1903.29,1229.02
             1897.49,1222.05 1893.05,1224.73 1888.99,1223.39
             1885.80,1222.34 1883.40,1219.49 1880.00,1218.16
             1877.19,1217.34 1873.07,1217.97 1870.00,1218.16
             1867.57,1218.02 1862.80,1218.49 1861.17,1216.43
             1859.00,1213.66 1861.28,1208.33 1857.61,1202.00
             1855.95,1199.14 1853.29,1196.36 1850.99,1194.00
             1844.47,1187.32 1838.31,1181.32 1835.64,1172.00
             1833.01,1162.85 1837.75,1157.84 1847.00,1158.26
             1859.27,1158.82 1855.37,1157.86 1868.00,1161.89
             1870.95,1162.83 1876.52,1166.06 1878.95,1165.70
             1883.70,1164.99 1886.03,1156.01 1885.70,1152.00
             1885.51,1149.70 1884.83,1147.38 1885.16,1145.06
             1886.27,1137.35 1894.02,1145.25 1897.00,1146.85
             1899.24,1148.05 1901.32,1148.14 1902.99,1150.31
             1906.45,1154.78 1903.04,1158.83 1903.81,1161.83
             1904.43,1164.26 1907.76,1166.35 1909.47,1168.30
             1913.70,1173.10 1913.93,1179.74 1919.04,1181.06
             1922.42,1181.93 1926.02,1178.67 1929.69,1181.60
             1932.11,1183.54 1936.30,1195.17 1946.00,1195.00
             1945.13,1196.74 1943.79,1199.06 1943.63,1201.00
             1943.28,1205.19 1948.05,1211.18 1952.00,1212.11
             1953.64,1212.66 1955.37,1212.24 1957.00,1212.11
             1955.70,1217.08 1951.64,1224.70 1962.00,1223.00
             1965.92,1228.14 1970.55,1233.39 1977.00,1235.00
             1977.94,1236.91 1978.29,1238.05 1980.14,1239.40
             1983.69,1242.02 1994.62,1241.50 1999.00,1241.21
             2003.18,1240.65 2004.86,1242.29 2008.00,1241.21
             2008.00,1241.21 2014.00,1238.17 2014.00,1238.17
             2017.58,1236.87 2021.13,1239.00 2024.52,1235.74
             2027.69,1232.68 2024.22,1229.30 2022.66,1225.00
             2020.32,1218.56 2021.67,1213.67 2021.08,1207.73
             2021.08,1207.73 2020.00,1198.00 2020.00,1198.00
             2019.98,1196.08 2019.83,1192.04 2020.57,1190.37
             2022.03,1187.08 2034.02,1176.79 2038.91,1177.80
             2041.69,1178.36 2043.96,1181.95 2045.57,1184.09
             2045.57,1184.09 2059.21,1200.42 2059.21,1200.42
             2064.15,1204.22 2072.29,1202.57 2078.00,1202.78
             2078.00,1202.78 2089.00,1202.78 2089.00,1202.78
             2088.74,1212.96 2084.56,1213.47 2085.87,1220.00
             2088.44,1232.81 2097.11,1243.54 2107.17,1251.38
             2107.17,1251.38 2112.91,1255.38 2112.91,1255.38
             2112.91,1255.38 2118.17,1260.47 2118.17,1260.47
             2124.59,1265.94 2132.90,1270.77 2141.00,1273.00
             2140.95,1280.51 2147.21,1281.95 2147.28,1288.00
             2147.35,1293.61 2142.36,1306.27 2136.00,1307.29
             2134.42,1307.68 2132.59,1307.27 2131.00,1307.29
             2122.32,1306.68 2124.69,1309.95 2114.00,1303.00 Z
           M 2172.00,1224.00
           C 2172.91,1221.70 2173.74,1219.33 2176.19,1218.19
             2178.91,1216.92 2195.40,1220.31 2199.00,1221.29
             2215.15,1225.70 2230.78,1232.33 2246.00,1239.31
             2253.50,1242.74 2261.59,1249.62 2270.00,1249.00
             2270.81,1251.45 2276.28,1261.76 2277.81,1263.79
             2279.79,1266.43 2284.01,1268.10 2283.00,1272.02
             2281.50,1277.82 2272.83,1282.97 2267.00,1280.66
             2264.44,1279.64 2262.08,1276.86 2260.00,1276.16
             2255.14,1274.54 2253.94,1279.40 2254.00,1283.00
             2244.44,1281.99 2247.03,1284.29 2241.83,1286.99
             2239.16,1288.38 2236.76,1287.70 2234.00,1288.74
             2234.00,1288.74 2227.00,1292.79 2227.00,1292.79
             2223.23,1294.04 2219.81,1290.64 2216.62,1295.15
             2213.61,1299.39 2217.91,1302.71 2221.00,1305.00
             2220.58,1306.17 2219.47,1308.85 2219.48,1309.96
             2219.52,1313.57 2224.33,1315.52 2227.42,1314.80
             2234.58,1313.13 2233.14,1306.57 2244.00,1301.47
             2249.63,1298.83 2251.67,1302.99 2255.76,1299.53
             2258.38,1297.31 2258.19,1295.06 2258.00,1292.00
             2258.00,1292.00 2261.00,1291.00 2261.00,1291.00
             2261.85,1296.99 2264.09,1304.51 2270.72,1306.52
             2276.32,1308.23 2281.37,1299.48 2282.00,1295.00
             2285.87,1294.36 2297.34,1290.70 2297.37,1285.98
             2297.40,1282.41 2293.44,1281.02 2293.32,1276.91
             2293.27,1275.44 2294.98,1270.31 2295.00,1263.00
             2295.00,1263.00 2326.90,1269.42 2326.90,1269.42
             2326.90,1269.42 2334.10,1275.90 2334.10,1275.90
             2334.10,1275.90 2351.00,1285.51 2351.00,1285.51
             2351.00,1285.51 2374.00,1292.00 2374.00,1292.00
             2368.77,1295.24 2366.19,1292.75 2364.00,1300.00
             2364.00,1300.00 2350.00,1297.52 2350.00,1297.52
             2347.10,1297.61 2345.61,1298.98 2343.00,1299.84
             2337.00,1301.84 2337.09,1300.40 2334.00,1307.00
             2328.52,1305.43 2321.45,1301.15 2315.58,1301.00
             2309.96,1300.86 2302.31,1301.90 2299.02,1307.22
             2299.02,1307.22 2297.04,1313.00 2297.04,1313.00
             2295.68,1316.14 2292.92,1318.93 2295.03,1322.90
             2297.03,1326.68 2304.35,1329.70 2308.00,1332.11
             2310.31,1333.64 2312.82,1335.87 2315.72,1336.04
             2318.54,1336.21 2320.62,1333.95 2323.72,1334.61
             2327.88,1335.50 2329.68,1340.04 2339.00,1337.00
             2339.76,1338.33 2340.23,1339.48 2341.41,1340.55
             2345.73,1344.49 2348.86,1340.75 2351.00,1337.00
             2351.00,1337.00 2354.00,1337.00 2354.00,1337.00
             2357.82,1341.47 2358.05,1340.07 2363.00,1341.80
             2363.00,1341.80 2369.00,1344.11 2369.00,1344.11
             2375.16,1345.42 2378.80,1341.61 2380.00,1336.00
             2380.00,1336.00 2398.00,1345.29 2398.00,1345.29
             2398.00,1345.29 2408.00,1343.00 2408.00,1343.00
             2408.00,1343.00 2411.00,1347.00 2411.00,1347.00
             2411.00,1347.00 2411.00,1349.00 2411.00,1349.00
             2409.53,1349.98 2407.85,1350.88 2406.83,1352.38
             2403.83,1356.74 2406.54,1363.04 2410.00,1366.00
             2409.41,1369.81 2406.78,1384.37 2404.49,1386.60
             2401.23,1389.76 2397.21,1386.69 2392.00,1388.98
             2389.12,1390.24 2385.98,1393.32 2381.00,1394.53
             2373.35,1396.40 2368.38,1393.27 2362.00,1392.97
             2355.41,1392.67 2355.85,1395.32 2347.00,1394.96
             2339.74,1394.67 2337.18,1392.27 2333.00,1391.39
             2333.00,1391.39 2324.00,1390.79 2324.00,1390.79
             2316.59,1389.67 2307.61,1383.09 2299.11,1386.74
             2294.67,1388.64 2294.66,1394.80 2294.15,1399.00
             2293.11,1407.65 2292.48,1406.86 2290.94,1414.00
             2290.94,1414.00 2289.09,1424.00 2289.09,1424.00
             2288.07,1428.09 2288.13,1430.51 2284.00,1432.00
             2281.93,1426.91 2274.19,1416.43 2268.95,1414.90
             2266.07,1414.06 2265.15,1415.87 2255.00,1413.17
             2251.78,1412.31 2245.31,1408.78 2243.04,1409.07
             2240.42,1409.39 2239.28,1411.72 2237.41,1413.19
             2235.90,1414.37 2229.87,1417.03 2228.00,1417.51
             2222.96,1418.79 2218.83,1415.72 2214.00,1415.00
             2211.87,1409.11 2210.85,1411.13 2208.27,1407.51
             2206.61,1405.18 2206.18,1401.07 2201.90,1397.39
             2197.87,1393.94 2194.62,1394.86 2191.48,1389.94
             2185.85,1381.12 2195.49,1382.31 2192.92,1374.00
             2191.18,1368.37 2187.01,1365.53 2182.00,1362.97
             2180.18,1362.04 2176.08,1360.82 2175.02,1359.42
             2173.76,1357.75 2174.05,1354.10 2173.83,1352.00
             2173.12,1344.99 2172.38,1340.85 2165.12,1339.00
             2165.12,1339.00 2165.12,1327.00 2165.12,1327.00
             2164.02,1322.32 2156.20,1313.49 2152.00,1311.00
             2159.11,1296.43 2172.90,1289.80 2176.56,1278.00
             2179.15,1269.65 2177.53,1265.03 2177.25,1257.00
             2177.19,1255.03 2177.68,1252.87 2177.25,1251.00
             2176.45,1247.56 2173.62,1245.97 2174.36,1241.00
             2175.37,1234.18 2182.13,1229.86 2172.00,1224.00 Z" />
  <path id="Altavas"
        fill="none" stroke="black" stroke-width="1"
        d="M 2150.00,1314.00
           C 2155.36,1316.31 2160.20,1322.01 2161.02,1328.00
             2161.21,1331.25 2160.14,1334.61 2161.02,1337.98
             2162.75,1343.01 2166.27,1342.67 2168.15,1346.27
             2170.51,1350.78 2169.38,1355.21 2169.72,1358.16
             2170.84,1367.66 2186.01,1365.01 2189.26,1374.17
             2191.17,1379.55 2185.45,1380.57 2186.47,1386.00
             2187.16,1389.66 2190.98,1395.12 2194.04,1397.16
             2196.43,1398.75 2198.99,1398.95 2200.80,1401.42
             2204.64,1406.65 2201.13,1411.53 2210.00,1413.00
             2210.65,1414.85 2210.90,1416.10 2212.42,1417.54
             2213.97,1419.00 2223.97,1421.95 2226.17,1421.65
             2228.99,1421.26 2231.37,1419.59 2234.00,1418.70
             2239.07,1416.99 2240.16,1418.51 2243.00,1413.00
             2243.00,1413.00 2259.00,1417.49 2259.00,1417.49
             2259.00,1417.49 2266.83,1418.58 2266.83,1418.58
             2267.91,1418.99 2273.65,1422.95 2274.63,1423.80
             2278.19,1426.88 2283.19,1439.61 2287.90,1439.66
             2291.45,1439.70 2291.81,1430.67 2292.25,1428.00
             2292.25,1428.00 2297.25,1401.00 2297.25,1401.00
             2297.65,1398.54 2297.79,1392.47 2299.58,1391.03
             2300.68,1390.16 2302.27,1390.23 2303.58,1390.04
             2313.10,1388.70 2313.23,1390.81 2322.00,1394.18
             2329.20,1396.94 2329.52,1395.32 2335.00,1396.37
             2335.00,1396.37 2347.00,1399.64 2347.00,1399.64
             2347.00,1399.64 2357.00,1399.00 2357.00,1399.00
             2355.30,1405.46 2351.31,1409.78 2347.37,1415.00
             2338.68,1426.53 2334.62,1429.74 2327.00,1443.00
             2327.00,1443.00 2317.78,1459.00 2317.78,1459.00
             2314.18,1464.29 2312.10,1465.67 2308.45,1470.04
             2308.45,1470.04 2284.04,1499.28 2284.04,1499.28
             2278.67,1505.40 2274.16,1512.33 2268.00,1517.71
             2257.69,1526.72 2252.59,1528.57 2241.00,1534.37
             2241.00,1534.37 2222.00,1543.55 2222.00,1543.55
             2210.72,1548.09 2192.10,1552.08 2180.00,1552.01
             2180.00,1552.01 2129.00,1552.01 2129.00,1552.01
             2126.44,1552.00 2119.94,1551.55 2118.00,1552.01
             2113.99,1553.07 2112.39,1556.03 2107.00,1555.79
             2097.01,1555.33 2082.07,1547.06 2069.00,1547.00
             2069.00,1547.00 2053.00,1547.00 2053.00,1547.00
             2053.00,1547.00 2033.00,1548.00 2033.00,1548.00
             2033.00,1548.00 2020.00,1549.00 2020.00,1549.00
             2020.00,1549.00 1996.00,1549.00 1996.00,1549.00
             1996.00,1549.00 1923.00,1549.00 1923.00,1549.00
             1923.26,1546.39 1924.08,1542.38 1923.65,1540.00
             1923.65,1540.00 1919.80,1529.00 1919.80,1529.00
             1918.91,1525.32 1919.81,1524.72 1917.97,1520.00
             1916.02,1515.02 1913.74,1513.24 1912.17,1508.00
             1909.58,1499.35 1910.04,1496.56 1910.68,1488.00
             1911.47,1477.32 1904.54,1473.81 1905.09,1464.00
             1905.91,1449.47 1909.83,1447.33 1920.00,1438.09
             1923.40,1435.00 1930.91,1430.76 1931.18,1426.00
             1931.43,1421.71 1923.15,1409.03 1921.62,1404.00
             1920.74,1400.98 1920.44,1385.69 1921.62,1383.00
             1921.62,1383.00 1933.00,1368.13 1933.00,1368.13
             1936.75,1368.50 1942.38,1369.73 1945.95,1368.13
             1949.29,1366.89 1950.25,1363.98 1952.07,1361.17
             1955.50,1355.88 1960.72,1351.15 1962.00,1345.00
             1962.00,1345.00 1988.00,1347.66 1988.00,1347.66
             1988.00,1347.66 1994.00,1347.04 1994.00,1347.04
             1994.00,1347.04 2003.00,1347.04 2003.00,1347.04
             2003.00,1347.04 2023.00,1344.96 2023.00,1344.96
             2026.83,1344.73 2039.07,1339.02 2040.87,1335.78
             2041.64,1334.02 2041.23,1332.78 2040.87,1331.00
             2045.57,1330.62 2053.85,1333.85 2057.49,1336.78
             2060.38,1339.11 2064.03,1346.17 2071.00,1342.13
             2074.70,1339.98 2076.35,1336.12 2079.00,1333.00
             2082.98,1342.91 2083.30,1339.97 2092.00,1341.14
             2092.00,1341.14 2099.00,1342.95 2099.00,1342.95
             2099.00,1342.95 2114.96,1336.77 2114.96,1336.77
             2118.61,1334.66 2120.12,1331.52 2123.04,1330.66
             2127.95,1329.21 2131.83,1336.13 2135.39,1333.16
             2137.84,1331.11 2135.42,1327.13 2137.06,1324.41
             2138.28,1322.40 2141.94,1321.32 2144.00,1320.01
             2146.90,1318.16 2148.02,1316.70 2150.00,1314.00 Z" />
  <path id="Balete"
        fill="none" stroke="black" stroke-width="1"
        d="M 1825.00,1153.00
           C 1831.75,1163.40 1827.31,1166.45 1836.21,1182.00
             1840.86,1190.13 1851.86,1198.78 1853.98,1203.00
             1857.40,1209.83 1852.31,1221.32 1863.00,1222.74
             1863.00,1222.74 1868.00,1222.74 1868.00,1222.74
             1871.46,1222.83 1875.76,1221.59 1879.00,1222.74
             1882.53,1223.35 1884.22,1225.68 1887.00,1226.99
             1887.00,1226.99 1900.00,1230.00 1900.00,1230.00
             1900.00,1230.00 1903.00,1238.00 1903.00,1238.00
             1901.93,1238.98 1900.87,1239.51 1900.45,1241.10
             1899.56,1244.42 1904.68,1250.07 1907.00,1252.00
             1907.00,1252.00 1908.00,1248.00 1908.00,1248.00
             1918.94,1253.00 1919.35,1250.78 1923.00,1252.33
             1925.99,1253.60 1931.84,1259.32 1933.64,1262.04
             1939.18,1269.66 1930.06,1269.91 1933.64,1277.91
             1934.91,1281.17 1937.16,1281.64 1939.67,1288.00
             1939.67,1288.00 1941.68,1294.91 1941.68,1294.91
             1941.68,1294.91 1944.67,1301.09 1944.67,1301.09
             1944.67,1301.09 1951.94,1333.00 1951.94,1333.00
             1953.58,1341.07 1958.25,1341.77 1956.49,1348.00
             1955.57,1351.25 1947.98,1362.80 1944.79,1363.71
             1940.02,1365.07 1934.68,1361.86 1929.18,1367.15
             1927.03,1369.21 1918.41,1381.36 1917.58,1384.00
             1916.56,1387.08 1916.59,1400.75 1917.58,1404.01
             1917.58,1404.01 1928.00,1427.00 1928.00,1427.00
             1923.72,1430.06 1906.18,1445.96 1903.98,1450.00
             1902.48,1452.76 1900.14,1463.95 1900.70,1467.00
             1902.14,1474.90 1905.98,1473.96 1906.00,1488.00
             1906.01,1495.82 1905.79,1501.40 1908.48,1509.00
             1910.12,1513.62 1912.42,1515.16 1914.00,1519.00
             1915.56,1522.81 1915.40,1527.04 1916.26,1531.00
             1918.29,1540.36 1920.94,1534.29 1919.00,1549.00
             1919.00,1549.00 1893.00,1549.00 1893.00,1549.00
             1888.43,1548.94 1883.12,1547.03 1879.38,1550.43
             1876.46,1553.08 1874.08,1559.31 1872.60,1563.00
             1872.60,1563.00 1864.55,1582.00 1864.55,1582.00
             1856.50,1601.37 1847.85,1620.08 1836.86,1637.96
             1829.56,1649.84 1819.57,1663.64 1810.27,1673.96
             1807.11,1677.47 1800.08,1683.73 1795.00,1682.81
             1793.07,1682.47 1787.17,1679.33 1785.00,1678.30
             1785.00,1678.30 1767.00,1669.76 1767.00,1669.76
             1760.80,1666.73 1751.77,1664.31 1747.00,1659.94
             1738.96,1652.58 1727.35,1639.95 1728.22,1628.00
             1728.54,1623.66 1731.35,1618.11 1732.94,1614.00
             1734.34,1610.40 1735.32,1607.22 1737.64,1604.00
             1741.39,1598.79 1748.43,1594.91 1754.70,1586.00
             1760.18,1578.20 1756.81,1573.87 1761.56,1567.00
             1771.28,1552.91 1784.75,1542.16 1793.14,1527.00
             1803.65,1508.02 1807.43,1490.33 1803.20,1469.00
             1801.80,1461.94 1801.17,1452.54 1793.00,1449.66
             1789.46,1448.42 1783.34,1451.77 1780.00,1453.31
             1771.11,1457.39 1763.00,1462.90 1753.00,1463.00
             1753.00,1463.00 1739.69,1443.00 1739.69,1443.00
             1739.69,1443.00 1716.36,1404.00 1716.36,1404.00
             1712.94,1398.39 1711.66,1396.73 1707.01,1392.04
             1704.96,1389.96 1702.34,1388.11 1702.51,1384.91
             1702.64,1382.43 1708.23,1368.07 1709.51,1365.00
             1709.51,1365.00 1719.56,1338.00 1719.56,1338.00
             1722.55,1329.10 1716.84,1328.62 1717.68,1322.99
             1718.13,1319.96 1728.55,1302.98 1730.90,1300.15
             1735.17,1295.00 1737.84,1298.84 1742.83,1294.69
             1745.17,1292.74 1753.17,1282.83 1754.79,1280.00
             1757.06,1276.03 1757.26,1272.90 1760.39,1269.04
             1764.32,1264.21 1769.05,1262.52 1771.73,1259.74
             1773.44,1257.96 1777.71,1249.44 1778.32,1247.00
             1780.68,1237.45 1771.02,1237.56 1771.40,1228.99
             1771.81,1219.92 1767.64,1219.82 1767.50,1215.83
             1767.36,1212.20 1771.55,1208.84 1772.43,1204.00
             1773.24,1199.49 1769.54,1194.50 1768.00,1190.00
             1768.00,1190.00 1774.00,1190.00 1774.00,1190.00
             1774.00,1190.00 1775.00,1198.00 1775.00,1198.00
             1775.00,1198.00 1785.00,1198.00 1785.00,1198.00
             1785.00,1198.00 1778.67,1177.00 1778.67,1177.00
             1777.73,1174.18 1775.81,1169.90 1777.11,1167.06
             1777.87,1165.41 1779.32,1164.22 1781.02,1163.64
             1783.66,1162.73 1786.13,1164.04 1790.00,1162.97
             1794.56,1161.72 1798.44,1157.51 1803.00,1158.68
             1806.46,1159.57 1809.46,1163.72 1812.96,1163.13
             1812.96,1163.13 1825.00,1153.00 1825.00,1153.00 Z" />
  <path id="Libacao"
        fill="none" stroke="black" stroke-width="1"
        d="M 1592.00,1485.00
           C 1597.94,1485.13 1606.43,1486.22 1612.00,1488.23
             1616.93,1490.02 1620.45,1493.33 1626.00,1492.91
             1636.41,1492.12 1639.92,1485.57 1643.96,1484.16
             1648.06,1482.73 1650.28,1488.39 1652.52,1490.87
             1654.95,1493.56 1666.60,1498.78 1669.94,1497.68
             1675.74,1495.79 1670.82,1490.44 1670.92,1487.00
             1671.01,1483.59 1674.95,1476.64 1677.33,1474.21
             1681.87,1469.56 1684.37,1470.42 1690.00,1470.83
             1701.52,1471.66 1697.85,1461.68 1702.31,1458.21
             1702.31,1458.21 1723.00,1448.58 1723.00,1448.58
             1725.57,1447.46 1730.43,1444.97 1732.96,1444.80
             1734.28,1444.37 1735.28,1444.35 1736.48,1444.80
             1738.81,1446.36 1747.00,1458.99 1748.86,1461.96
             1750.62,1464.78 1752.15,1468.13 1756.04,1467.80
             1760.15,1467.44 1778.00,1457.84 1783.00,1455.59
             1786.68,1453.93 1790.73,1451.08 1794.29,1454.45
             1798.04,1457.99 1797.85,1463.33 1798.82,1468.00
             1799.71,1472.30 1800.86,1476.59 1801.14,1481.00
             1801.63,1488.98 1799.19,1502.55 1796.30,1510.00
             1790.66,1524.55 1790.07,1527.05 1780.11,1540.00
             1780.11,1540.00 1757.28,1566.75 1757.28,1566.75
             1751.89,1574.33 1756.16,1578.58 1750.58,1586.00
             1750.58,1586.00 1735.63,1601.09 1735.63,1601.09
             1731.77,1605.60 1725.84,1619.21 1724.53,1625.00
             1723.48,1629.60 1724.29,1632.68 1725.79,1637.00
             1727.26,1641.25 1727.85,1643.84 1730.79,1647.42
             1730.79,1647.42 1746.31,1664.00 1746.31,1664.00
             1747.92,1666.86 1747.04,1680.86 1747.00,1685.00
             1746.89,1694.36 1745.84,1692.75 1743.24,1700.04
             1743.24,1700.04 1740.63,1710.00 1740.63,1710.00
             1736.47,1726.63 1737.58,1720.25 1732.69,1734.00
             1732.69,1734.00 1729.10,1746.00 1729.10,1746.00
             1729.10,1746.00 1724.96,1756.00 1724.96,1756.00
             1724.96,1756.00 1711.77,1788.00 1711.77,1788.00
             1701.81,1809.67 1686.87,1836.56 1671.91,1855.00
             1664.62,1863.98 1656.27,1871.09 1648.00,1879.04
             1648.00,1879.04 1638.83,1888.83 1638.83,1888.83
             1638.83,1888.83 1617.00,1908.28 1617.00,1908.28
             1617.00,1908.28 1608.00,1916.57 1608.00,1916.57
             1608.00,1916.57 1585.00,1933.82 1585.00,1933.82
             1585.00,1933.82 1548.00,1963.35 1548.00,1963.35
             1544.54,1966.03 1534.21,1974.40 1531.00,1975.86
             1526.79,1977.78 1520.83,1976.00 1507.00,1981.05
             1507.00,1981.05 1463.00,1997.05 1463.00,1997.05
             1463.00,1997.05 1449.00,2002.48 1449.00,2002.48
             1449.00,2002.48 1408.00,2013.48 1408.00,2013.48
             1408.00,2013.48 1364.00,2025.50 1364.00,2025.50
             1364.00,2025.50 1343.00,2029.42 1343.00,2029.42
             1336.08,2030.67 1329.01,2032.68 1322.00,2033.00
             1323.97,2025.74 1328.94,2022.58 1333.54,2017.00
             1333.54,2017.00 1343.61,2004.00 1343.61,2004.00
             1343.61,2004.00 1359.13,1986.00 1359.13,1986.00
             1359.13,1986.00 1395.29,1942.00 1395.29,1942.00
             1395.29,1942.00 1409.72,1926.58 1409.72,1926.58
             1409.72,1926.58 1443.97,1881.53 1443.97,1881.53
             1443.97,1881.53 1458.45,1857.00 1458.45,1857.00
             1458.45,1857.00 1472.10,1835.00 1472.10,1835.00
             1472.10,1835.00 1475.28,1827.00 1475.28,1827.00
             1475.28,1827.00 1482.84,1815.83 1482.84,1815.83
             1490.53,1799.94 1492.90,1787.27 1494.09,1770.00
             1494.09,1770.00 1495.00,1760.00 1495.00,1760.00
             1495.22,1741.25 1491.39,1729.96 1487.80,1712.00
             1487.80,1712.00 1486.17,1703.00 1486.17,1703.00
             1486.17,1703.00 1485.33,1693.00 1485.33,1693.00
             1483.42,1683.98 1480.22,1675.37 1480.01,1666.00
             1479.68,1650.85 1491.78,1651.42 1496.11,1640.00
             1497.40,1636.59 1496.57,1628.36 1495.27,1625.04
             1494.19,1622.29 1492.22,1620.90 1491.79,1618.83
             1491.29,1616.38 1494.68,1609.49 1495.86,1607.02
             1500.32,1597.67 1508.29,1603.05 1514.57,1595.79
             1517.12,1592.84 1516.65,1590.26 1518.08,1587.00
             1519.46,1583.87 1522.06,1581.36 1522.52,1578.00
             1522.52,1578.00 1522.52,1570.17 1522.52,1570.17
             1522.95,1567.02 1525.87,1565.56 1527.18,1561.00
             1528.37,1556.87 1526.40,1552.39 1526.00,1548.00
             1527.43,1548.35 1530.88,1549.66 1532.10,1549.31
             1534.59,1548.59 1538.62,1541.35 1540.17,1539.00
             1540.17,1539.00 1551.58,1521.00 1551.58,1521.00
             1553.16,1518.46 1555.83,1513.52 1558.32,1512.02
             1560.34,1510.81 1565.21,1510.93 1568.00,1510.33
             1572.21,1509.43 1583.76,1504.26 1586.82,1501.52
             1592.54,1496.38 1592.00,1491.95 1592.00,1485.00 Z" />
</svg>
