<?xml version="1.0" encoding="UTF-8" standalone="no"?>
<!DOCTYPE svg PUBLIC "-//W3C//DTD SVG 20010904//EN"
              "http://www.w3.org/TR/2001/REC-SVG-20010904/DTD/svg10.dtd">

<svg xmlns="http://www.w3.org/2000/svg"
     width="1038.74mm" height="1625.91mm"
     viewBox="0 0 2413 3777">
  <path id="Anini-y"
        fill="none" stroke="black" stroke-width="1"
        d="M 1410.07,3321.00
           C 1410.07,3321.00 1453.00,3340.26 1453.00,3340.26
             1456.49,3341.94 1466.51,3347.43 1470.00,3346.44
             1472.77,3345.65 1478.45,3339.63 1481.00,3337.42
             1487.47,3331.84 1496.97,3324.02 1504.00,3319.36
             1516.38,3311.14 1540.10,3303.68 1555.00,3305.17
             1564.16,3306.08 1571.68,3309.44 1580.00,3313.00
             1584.17,3314.79 1594.72,3319.66 1597.83,3322.39
             1606.22,3329.76 1603.71,3332.76 1602.08,3342.00
             1601.35,3346.19 1600.71,3352.32 1598.72,3355.99
             1596.70,3359.72 1593.00,3362.05 1590.09,3365.04
             1590.09,3365.04 1582.96,3372.83 1582.96,3372.83
             1582.96,3372.83 1571.00,3382.85 1571.00,3382.85
             1560.91,3391.68 1553.66,3395.52 1543.00,3402.67
             1533.29,3409.18 1521.00,3419.44 1511.00,3424.22
             1503.72,3427.69 1495.87,3429.63 1488.00,3431.20
             1463.01,3436.20 1443.46,3432.74 1426.46,3412.00
             1423.55,3408.44 1415.17,3395.05 1413.55,3391.00
             1413.55,3391.00 1408.81,3377.00 1408.81,3377.00
             1404.79,3366.34 1403.56,3365.72 1402.90,3354.00
             1402.84,3352.52 1402.53,3350.41 1402.90,3349.00
             1403.84,3345.13 1408.38,3342.37 1410.07,3338.00
             1411.83,3333.84 1410.04,3325.96 1410.07,3321.00 Z" />
  <path id="Tobias Fornier"
        fill="none" stroke="black" stroke-width="1"
        d="M 1494.00,3132.00
           C 1500.55,3133.01 1514.04,3138.01 1521.00,3140.33
             1521.00,3140.33 1570.00,3156.67 1570.00,3156.67
             1570.00,3156.67 1588.00,3162.67 1588.00,3162.67
             1590.29,3163.43 1594.58,3164.51 1595.98,3166.51
             1597.40,3168.53 1596.92,3173.44 1597.09,3176.00
             1597.48,3181.94 1598.44,3193.69 1600.61,3199.00
             1604.02,3207.32 1616.65,3217.41 1616.08,3226.00
             1615.68,3232.02 1606.38,3246.94 1603.41,3253.72
             1594.75,3273.52 1591.08,3299.24 1598.00,3320.00
             1598.00,3320.00 1589.00,3314.80 1589.00,3314.80
             1580.44,3310.24 1562.61,3303.23 1553.00,3303.01
             1536.79,3302.64 1518.76,3308.04 1505.04,3316.54
             1495.55,3322.41 1487.40,3329.73 1478.91,3336.88
             1476.56,3338.86 1471.66,3344.15 1468.91,3344.31
             1465.52,3344.52 1458.32,3340.33 1455.00,3338.91
             1455.00,3338.91 1423.00,3324.31 1423.00,3324.31
             1420.04,3322.84 1414.51,3321.04 1412.31,3319.08
             1409.32,3316.41 1409.82,3311.63 1410.29,3308.00
             1412.43,3291.52 1417.56,3287.04 1427.80,3275.00
             1427.80,3275.00 1433.21,3268.17 1433.21,3268.17
             1433.21,3268.17 1441.95,3260.00 1441.95,3260.00
             1441.95,3260.00 1463.66,3233.00 1463.66,3233.00
             1470.20,3223.37 1477.11,3210.31 1480.08,3199.00
             1480.08,3199.00 1481.46,3190.00 1481.46,3190.00
             1481.46,3190.00 1484.24,3177.00 1484.24,3177.00
             1484.24,3177.00 1487.11,3167.00 1487.11,3167.00
             1487.11,3167.00 1494.00,3132.00 1494.00,3132.00 Z" />
  <path id="Hamtic"
        fill="none" stroke="black" stroke-width="1"
        d="M 1490.00,2920.00
           C 1490.00,2920.00 1542.00,2884.28 1542.00,2884.28
             1542.00,2884.28 1556.00,2874.42 1556.00,2874.42
             1558.04,2872.98 1561.49,2870.34 1564.00,2870.19
             1567.14,2870.01 1574.06,2874.87 1577.00,2876.58
             1577.00,2876.58 1610.00,2895.40 1610.00,2895.40
             1639.78,2913.26 1663.71,2927.74 1684.28,2957.00
             1687.43,2961.48 1698.39,2978.43 1699.26,2983.00
             1699.87,2986.17 1697.54,2991.43 1696.81,2995.00
             1696.81,2995.00 1692.56,3020.00 1692.56,3020.00
             1690.38,3027.12 1681.14,3039.49 1676.66,3046.00
             1661.63,3067.84 1643.54,3088.19 1625.95,3108.00
             1621.11,3113.45 1603.32,3132.97 1600.92,3138.00
             1597.91,3144.30 1597.01,3155.96 1597.00,3163.00
             1597.00,3163.00 1522.00,3138.33 1522.00,3138.33
             1522.00,3138.33 1504.00,3132.33 1504.00,3132.33
             1501.77,3131.59 1497.35,3130.46 1496.04,3128.49
             1494.16,3125.68 1497.33,3113.77 1497.87,3110.00
             1497.87,3110.00 1503.93,3061.00 1503.93,3061.00
             1503.93,3061.00 1505.17,3045.00 1505.17,3045.00
             1505.17,3045.00 1507.00,3023.00 1507.00,3023.00
             1507.00,3023.00 1508.09,2997.00 1508.09,2997.00
             1508.09,2997.00 1509.00,2976.00 1509.00,2976.00
             1509.00,2976.00 1510.00,2962.00 1510.00,2962.00
             1510.02,2957.08 1510.55,2950.48 1508.64,2946.00
             1504.78,2936.97 1493.45,2927.30 1490.00,2920.00 Z" />
  <path id="Sibalom"
        fill="none" stroke="black" stroke-width="1"
        d="M 1638.00,2723.83
           C 1638.07,2732.13 1645.47,2739.84 1651.56,2744.38
             1664.86,2754.30 1677.97,2760.96 1695.00,2760.34
             1720.13,2759.42 1767.85,2755.84 1792.00,2751.39
             1810.66,2747.94 1847.83,2737.45 1866.00,2731.23
             1881.33,2725.98 1897.97,2720.91 1914.00,2718.42
             1917.59,2717.87 1928.59,2715.62 1930.86,2719.43
             1932.02,2721.37 1929.31,2725.14 1928.42,2727.01
             1928.42,2727.01 1917.11,2750.00 1917.11,2750.00
             1911.93,2759.78 1906.62,2765.34 1900.43,2774.00
             1900.43,2774.00 1888.67,2791.17 1888.67,2791.17
             1888.67,2791.17 1860.12,2838.00 1860.12,2838.00
             1860.12,2838.00 1833.86,2879.42 1833.86,2879.42
             1811.86,2910.14 1781.84,2940.99 1749.00,2960.08
             1738.65,2966.10 1728.00,2971.67 1717.00,2976.42
             1714.56,2977.48 1705.31,2981.22 1703.10,2980.88
             1700.58,2980.48 1699.22,2977.99 1698.04,2975.99
             1698.04,2975.99 1690.13,2962.00 1690.13,2962.00
             1680.96,2947.53 1664.56,2930.33 1651.08,2919.86
             1634.49,2906.98 1611.52,2893.45 1593.00,2883.38
             1580.84,2876.77 1561.64,2866.64 1553.25,2856.00
             1545.10,2845.66 1535.93,2822.49 1533.46,2809.42
             1533.46,2809.42 1531.21,2787.00 1531.21,2787.00
             1530.84,2783.41 1530.43,2778.30 1529.04,2775.03
             1527.62,2771.71 1525.28,2769.98 1526.82,2767.29
             1527.81,2765.56 1532.80,2762.19 1534.66,2760.89
             1534.66,2760.89 1553.00,2748.31 1553.00,2748.31
             1553.00,2748.31 1578.03,2730.95 1578.03,2730.95
             1586.61,2725.23 1586.30,2723.01 1597.00,2723.00
             1597.00,2723.00 1609.00,2723.83 1609.00,2723.83
             1609.00,2723.83 1638.00,2723.83 1638.00,2723.83 Z" />
  <path id="San Jose"
        fill="none" stroke="black" stroke-width="1"
        d="M 1470.00,2744.00
           C 1470.00,2744.00 1480.00,2749.56 1480.00,2749.56
             1480.00,2749.56 1491.00,2754.55 1491.00,2754.55
             1501.79,2758.83 1518.34,2763.09 1525.49,2773.01
             1528.55,2777.27 1528.68,2782.98 1529.08,2788.00
             1529.69,2795.55 1530.06,2803.59 1531.67,2811.00
             1534.94,2826.09 1542.98,2845.89 1552.52,2858.00
             1552.52,2858.00 1562.00,2868.00 1562.00,2868.00
             1562.00,2868.00 1488.00,2919.00 1488.00,2919.00
             1488.00,2919.00 1443.28,2871.00 1443.28,2871.00
             1438.97,2866.04 1428.53,2854.26 1427.43,2848.00
             1426.33,2841.78 1433.64,2825.84 1435.90,2819.42
             1435.90,2819.42 1437.87,2813.00 1437.87,2813.00
             1437.87,2813.00 1454.69,2778.00 1454.69,2778.00
             1454.69,2778.00 1463.14,2760.00 1463.14,2760.00
             1463.14,2760.00 1470.00,2744.00 1470.00,2744.00 Z" />
  <path id="Belison"
        fill="none" stroke="black" stroke-width="1"
        d="M 1499.00,2629.00
           C 1499.00,2629.00 1514.00,2637.95 1514.00,2637.95
             1514.00,2637.95 1549.00,2660.69 1549.00,2660.69
             1549.00,2660.69 1565.00,2670.92 1565.00,2670.92
             1565.00,2670.92 1589.00,2674.17 1589.00,2674.17
             1589.00,2674.17 1620.00,2677.17 1620.00,2677.17
             1620.00,2677.17 1638.00,2679.00 1638.00,2679.00
             1636.84,2693.27 1633.54,2707.77 1637.00,2721.96
             1637.00,2721.96 1624.00,2721.96 1624.00,2721.96
             1624.00,2721.96 1613.00,2721.00 1613.00,2721.00
             1613.00,2721.00 1597.00,2721.00 1597.00,2721.00
             1597.00,2721.00 1589.00,2721.70 1589.00,2721.70
             1589.00,2721.70 1569.00,2734.86 1569.00,2734.86
             1569.00,2734.86 1522.00,2767.00 1522.00,2767.00
             1510.96,2757.96 1500.62,2756.22 1488.00,2750.99
             1483.97,2749.32 1475.01,2745.24 1472.69,2741.70
             1470.75,2738.75 1472.46,2735.06 1473.27,2732.00
             1473.27,2732.00 1476.94,2712.00 1476.94,2712.00
             1476.94,2712.00 1484.24,2668.00 1484.24,2668.00
             1486.07,2660.20 1495.41,2636.72 1499.00,2629.00 Z" />
  <path id="Patnongon"
        fill="none" stroke="black" stroke-width="1"
        d="M 1614.00,2429.00
           C 1614.00,2429.00 1627.00,2436.11 1627.00,2436.11
             1643.72,2444.02 1663.70,2448.44 1682.00,2450.72
             1682.00,2450.72 1707.00,2452.99 1707.00,2452.99
             1710.08,2453.06 1721.28,2453.47 1723.61,2454.57
             1726.13,2455.76 1732.05,2467.84 1734.05,2471.00
             1744.65,2487.72 1756.75,2500.72 1757.00,2522.00
             1757.06,2527.79 1757.70,2539.03 1755.44,2544.00
             1752.04,2551.51 1738.82,2560.38 1732.30,2568.00
             1721.51,2580.61 1720.91,2585.34 1706.00,2597.54
             1692.10,2608.91 1675.95,2616.12 1662.04,2630.04
             1650.16,2641.92 1642.09,2660.60 1639.00,2677.00
             1639.00,2677.00 1572.00,2670.28 1572.00,2670.28
             1569.91,2670.00 1568.00,2669.93 1566.00,2669.16
             1566.00,2669.16 1541.00,2653.05 1541.00,2653.05
             1541.00,2653.05 1513.00,2634.69 1513.00,2634.69
             1510.39,2633.01 1503.35,2629.20 1502.12,2626.68
             1500.45,2623.24 1505.17,2615.25 1506.74,2612.00
             1506.74,2612.00 1524.86,2576.00 1524.86,2576.00
             1544.39,2540.80 1566.34,2507.47 1588.67,2474.00
             1588.67,2474.00 1604.72,2451.00 1604.72,2451.00
             1607.33,2447.26 1612.08,2441.22 1613.35,2437.00
             1614.11,2434.48 1613.99,2431.62 1614.00,2429.00 Z" />
  <path id="San Remigio"
        fill="none" stroke="black" stroke-width="1"
        d="M 1759.00,2537.00
           C 1770.06,2536.10 1792.89,2530.05 1804.00,2526.72
             1811.53,2524.46 1826.42,2520.02 1833.00,2516.73
             1833.00,2516.73 1862.00,2497.35 1862.00,2497.35
             1867.46,2494.92 1879.84,2494.01 1886.00,2494.00
             1899.17,2493.98 1911.27,2495.11 1924.00,2491.11
             1938.53,2486.55 1941.61,2479.35 1961.00,2478.37
             1961.00,2478.37 1969.00,2478.96 1969.00,2478.96
             1989.76,2479.86 2009.74,2484.13 2030.00,2488.58
             2030.00,2488.58 2066.00,2495.92 2066.00,2495.92
             2066.00,2495.92 2083.00,2498.00 2083.00,2498.00
             2081.11,2503.82 2079.80,2508.80 2080.04,2515.00
             2080.57,2528.60 2085.18,2545.34 2075.61,2556.96
             2067.96,2566.26 2053.19,2568.61 2042.00,2571.00
             2023.29,2575.00 2004.50,2578.76 1991.30,2594.00
             1978.30,2609.02 1974.84,2628.53 1969.57,2647.00
             1964.82,2663.69 1961.68,2671.82 1953.00,2687.00
             1953.00,2687.00 1940.00,2708.00 1940.00,2708.00
             1938.59,2710.16 1936.12,2714.71 1933.79,2715.68
             1931.07,2716.82 1928.19,2714.74 1922.00,2715.09
             1911.03,2715.72 1893.68,2720.66 1883.00,2723.98
             1883.00,2723.98 1828.00,2740.37 1828.00,2740.37
             1828.00,2740.37 1795.00,2748.55 1795.00,2748.55
             1771.27,2753.30 1716.40,2758.04 1692.00,2758.00
             1675.37,2757.97 1649.77,2746.32 1642.13,2731.00
             1637.08,2720.87 1637.88,2709.98 1638.00,2699.00
             1638.23,2679.66 1647.39,2649.55 1660.18,2635.00
             1673.35,2620.02 1691.59,2611.47 1707.00,2599.33
             1717.10,2591.38 1724.08,2582.07 1731.75,2572.00
             1739.05,2562.40 1754.38,2552.12 1757.77,2544.00
             1758.82,2541.51 1758.87,2539.62 1759.00,2537.00 Z" />
  <path id="Valderrama"
        fill="none" stroke="black" stroke-width="1"
        d="M 1727.00,2453.00
           C 1732.55,2450.82 1735.43,2447.39 1739.93,2443.58
             1744.35,2439.83 1750.91,2434.62 1753.99,2429.82
             1767.03,2409.45 1770.43,2363.85 1780.39,2347.00
             1783.74,2341.33 1789.44,2335.86 1793.83,2330.96
             1793.83,2330.96 1817.00,2305.99 1817.00,2305.99
             1817.00,2305.99 1827.04,2295.00 1827.04,2295.00
             1827.04,2295.00 1854.99,2267.83 1854.99,2267.83
             1854.99,2267.83 1863.09,2259.80 1863.09,2259.80
             1863.09,2259.80 1896.05,2235.39 1896.05,2235.39
             1900.21,2231.88 1903.71,2226.83 1905.26,2221.58
             1906.60,2217.00 1907.70,2208.75 1910.80,2205.47
             1913.04,2203.09 1923.56,2198.57 1927.00,2197.20
             1927.00,2197.20 1973.09,2183.49 1973.09,2183.49
             1973.09,2183.49 1988.00,2177.17 1988.00,2177.17
             1990.09,2176.13 1993.96,2173.40 1996.00,2173.19
             2000.95,2172.68 2004.80,2180.41 2007.00,2183.99
             2015.15,2197.25 2019.48,2207.19 2032.09,2217.12
             2044.42,2226.82 2068.23,2233.39 2075.88,2247.04
             2081.64,2257.33 2080.87,2277.26 2081.06,2289.00
             2081.08,2295.61 2081.98,2301.18 2081.06,2308.00
             2080.00,2316.71 2076.22,2325.10 2077.10,2334.00
             2077.94,2342.49 2085.36,2346.00 2087.08,2355.00
             2087.08,2355.00 2087.08,2383.00 2087.08,2383.00
             2087.02,2388.53 2087.11,2394.11 2090.05,2399.00
             2093.24,2404.30 2098.45,2407.02 2100.17,2413.00
             2101.37,2417.11 2099.80,2419.43 2100.17,2425.00
             2100.17,2425.00 2101.43,2461.00 2101.43,2461.00
             2100.91,2475.60 2101.06,2475.51 2091.66,2486.96
             2087.73,2491.75 2085.67,2495.43 2079.00,2495.19
             2068.46,2494.81 2052.87,2491.30 2042.29,2489.00
             2019.12,2483.98 1995.76,2478.12 1972.00,2476.98
             1965.72,2476.61 1959.27,2476.17 1953.00,2476.98
             1942.52,2478.50 1932.20,2488.22 1916.00,2491.02
             1900.88,2493.64 1875.26,2489.75 1861.72,2495.17
             1861.72,2495.17 1833.00,2514.92 1833.00,2514.92
             1833.00,2514.92 1801.00,2525.42 1801.00,2525.42
             1801.00,2525.42 1760.00,2535.00 1760.00,2535.00
             1758.04,2525.92 1760.86,2516.28 1754.75,2501.72
             1747.81,2485.17 1738.54,2476.63 1731.04,2462.72
             1731.04,2462.72 1727.00,2453.00 1727.00,2453.00 Z" />
  <path id="Bugasong"
        fill="none" stroke="black" stroke-width="1"
        d="M 1892.00,2051.00
           C 1892.00,2051.00 1894.00,2051.00 1894.00,2051.00
             1896.71,2062.56 1906.79,2076.92 1913.58,2086.88
             1928.61,2108.94 1943.21,2126.69 1963.04,2144.85
             1963.04,2144.85 1982.07,2160.26 1982.07,2160.26
             1982.07,2160.26 1996.00,2171.00 1996.00,2171.00
             1988.30,2174.95 1972.06,2182.25 1964.00,2184.52
             1947.44,2189.16 1927.50,2192.44 1913.00,2201.76
             1899.91,2210.18 1908.71,2221.75 1895.82,2233.33
             1895.82,2233.33 1869.28,2252.37 1869.28,2252.37
             1851.37,2267.64 1834.87,2284.86 1818.58,2301.83
             1818.58,2301.83 1781.46,2342.17 1781.46,2342.17
             1774.97,2350.79 1772.49,2361.79 1769.93,2372.04
             1765.39,2390.28 1762.01,2411.62 1753.02,2427.99
             1750.00,2433.49 1736.31,2444.82 1730.89,2448.94
             1729.35,2450.11 1727.82,2451.12 1725.91,2451.58
             1725.91,2451.58 1703.00,2450.46 1703.00,2450.46
             1679.70,2448.55 1658.11,2446.12 1636.00,2437.74
             1630.44,2435.64 1616.42,2429.97 1613.58,2424.80
             1612.55,2422.94 1612.22,2420.11 1611.86,2418.00
             1610.10,2407.63 1611.01,2403.57 1620.00,2397.04
             1623.62,2394.41 1635.03,2388.41 1633.70,2383.42
             1633.70,2383.42 1622.02,2354.00 1622.02,2354.00
             1616.92,2337.49 1617.31,2330.92 1615.00,2315.00
             1622.54,2312.48 1627.37,2310.64 1634.00,2305.96
             1637.53,2303.47 1641.50,2299.19 1645.00,2297.65
             1648.57,2296.08 1657.84,2296.01 1662.00,2296.00
             1662.00,2296.00 1729.00,2296.00 1729.00,2296.00
             1729.00,2296.00 1740.00,2295.32 1740.00,2295.32
             1749.57,2295.92 1759.31,2293.28 1768.00,2289.22
             1783.14,2282.14 1799.65,2268.48 1798.74,2250.00
             1798.74,2250.00 1798.74,2232.00 1798.74,2232.00
             1798.78,2221.70 1796.71,2217.48 1799.71,2206.00
             1801.14,2200.51 1807.62,2190.13 1810.78,2185.00
             1810.78,2185.00 1823.05,2163.00 1823.05,2163.00
             1823.05,2163.00 1834.98,2140.00 1834.98,2140.00
             1834.98,2140.00 1839.69,2132.00 1839.69,2132.00
             1839.69,2132.00 1845.03,2121.00 1845.03,2121.00
             1845.03,2121.00 1866.20,2086.17 1866.20,2086.17
             1866.20,2086.17 1892.00,2051.00 1892.00,2051.00 Z" />
  <path id="Laua-an"
        fill="none" stroke="black" stroke-width="1"
        d="M 1889.00,2010.00
           C 1889.00,2010.00 1889.99,2030.00 1889.99,2030.00
             1889.99,2030.00 1892.28,2047.83 1892.28,2047.83
             1892.28,2047.83 1886.58,2056.83 1886.58,2056.83
             1886.58,2056.83 1870.00,2076.00 1870.00,2076.00
             1869.37,2080.41 1864.81,2086.55 1861.00,2089.00
             1861.00,2089.00 1862.00,2091.00 1862.00,2091.00
             1862.00,2091.00 1859.00,2092.00 1859.00,2092.00
             1858.56,2096.41 1854.76,2102.55 1851.00,2105.00
             1850.67,2108.79 1850.25,2109.94 1847.00,2112.00
             1846.64,2116.32 1844.72,2120.61 1841.00,2123.00
             1841.00,2123.00 1842.00,2125.00 1842.00,2125.00
             1842.00,2125.00 1840.00,2125.00 1840.00,2125.00
             1840.00,2125.00 1841.00,2127.00 1841.00,2127.00
             1841.00,2127.00 1839.00,2127.00 1839.00,2127.00
             1838.62,2131.62 1834.95,2139.46 1831.00,2142.00
             1831.00,2142.00 1832.00,2144.00 1832.00,2144.00
             1832.00,2144.00 1830.00,2144.00 1830.00,2144.00
             1829.85,2148.57 1826.90,2154.50 1823.00,2157.00
             1823.00,2157.00 1824.00,2159.00 1824.00,2159.00
             1824.00,2159.00 1822.00,2159.00 1822.00,2159.00
             1821.66,2163.12 1820.54,2165.73 1817.00,2168.00
             1817.00,2168.00 1818.00,2170.00 1818.00,2170.00
             1818.00,2170.00 1816.00,2170.00 1816.00,2170.00
             1815.67,2173.79 1815.25,2174.94 1812.00,2177.00
             1811.67,2180.79 1811.25,2181.94 1808.00,2184.00
             1807.67,2187.79 1807.25,2188.94 1804.00,2191.00
             1803.64,2194.21 1803.74,2194.25 1801.00,2196.00
             1800.46,2202.63 1796.63,2205.08 1796.93,2214.17
             1796.93,2214.17 1796.93,2249.00 1796.93,2249.00
             1796.92,2255.19 1796.86,2263.58 1791.00,2267.00
             1789.22,2277.36 1771.66,2286.71 1762.42,2289.68
             1758.26,2291.01 1752.24,2293.16 1747.96,2293.92
             1747.96,2293.92 1718.00,2293.92 1718.00,2293.92
             1718.00,2293.92 1666.00,2293.92 1666.00,2293.92
             1666.00,2293.92 1645.91,2295.64 1645.91,2295.64
             1640.82,2297.74 1637.26,2301.86 1632.91,2304.90
             1628.66,2307.88 1620.97,2311.26 1616.00,2313.00
             1613.74,2307.46 1613.59,2299.96 1613.05,2293.91
             1613.05,2293.91 1609.90,2264.98 1609.90,2264.98
             1607.35,2243.80 1604.02,2212.83 1604.00,2192.00
             1604.00,2192.00 1604.00,2168.00 1604.00,2168.00
             1604.00,2168.00 1603.12,2156.04 1603.12,2156.04
             1603.12,2156.04 1602.00,2131.00 1602.00,2131.00
             1619.31,2134.39 1624.57,2135.97 1643.00,2136.00
             1662.63,2136.03 1681.08,2132.17 1699.95,2126.99
             1711.90,2123.71 1726.07,2119.88 1736.83,2113.88
             1744.82,2109.43 1751.39,2102.90 1757.74,2096.44
             1760.95,2093.18 1761.95,2090.33 1766.00,2088.00
             1766.59,2083.77 1771.36,2076.37 1775.00,2074.00
             1775.36,2070.79 1775.26,2070.75 1778.00,2069.00
             1778.00,2069.00 1777.00,2067.00 1777.00,2067.00
             1777.00,2067.00 1782.00,2062.00 1782.00,2062.00
             1782.00,2062.00 1781.00,2060.00 1781.00,2060.00
             1781.00,2060.00 1783.00,2060.00 1783.00,2060.00
             1783.45,2055.48 1786.17,2051.45 1790.00,2049.00
             1790.00,2049.00 1789.00,2047.00 1789.00,2047.00
             1789.00,2047.00 1799.17,2035.71 1799.17,2035.71
             1808.17,2027.64 1816.49,2024.26 1827.99,2021.18
             1827.99,2021.18 1872.00,2014.09 1872.00,2014.09
             1877.66,2013.08 1883.89,2012.77 1889.00,2010.00 Z" />
  <path id="Barbaza"
        fill="none" stroke="black" stroke-width="1"
        d="M 1635.00,2009.00
           C 1647.42,2010.75 1657.00,2015.82 1672.00,2016.00
             1690.54,2016.21 1703.46,2012.51 1718.00,2000.54
             1730.42,1990.31 1738.16,1975.45 1749.59,1964.33
             1754.32,1959.73 1760.51,1958.61 1766.00,1955.04
             1770.13,1952.34 1777.20,1944.80 1781.00,1941.00
             1791.56,1930.44 1802.56,1920.35 1815.00,1912.00
             1818.80,1909.45 1824.79,1905.07 1829.00,1903.80
             1832.93,1902.61 1842.48,1902.98 1847.00,1903.00
             1847.00,1903.00 1871.00,1905.02 1871.00,1905.02
             1873.88,1905.04 1880.64,1903.91 1882.61,1905.02
             1885.08,1906.50 1888.87,1915.13 1890.14,1918.00
             1895.00,1929.00 1899.99,1949.02 1899.99,1961.00
             1899.99,1971.63 1895.00,1985.30 1892.37,1996.00
             1892.37,1996.00 1890.00,2009.00 1890.00,2009.00
             1890.00,2009.00 1863.00,2013.72 1863.00,2013.72
             1844.32,2016.18 1820.96,2018.48 1805.00,2029.10
             1789.38,2039.50 1781.82,2057.39 1772.83,2072.99
             1769.40,2078.94 1758.74,2093.14 1753.99,2098.00
             1737.17,2115.21 1725.97,2117.69 1704.00,2124.00
             1675.38,2132.22 1664.69,2134.05 1635.00,2134.00
             1623.26,2133.98 1613.32,2131.28 1602.00,2129.00
             1604.91,2093.14 1624.50,2080.41 1634.25,2050.00
             1637.57,2039.66 1637.12,2034.58 1637.00,2024.00
             1637.00,2024.00 1635.00,2009.00 1635.00,2009.00 Z" />
  <path id="Tibiao"
        fill="none" stroke="black" stroke-width="1"
        d="M 1651.00,1822.00
           C 1657.78,1823.91 1662.63,1826.39 1670.00,1827.78
             1685.06,1829.96 1687.97,1828.16 1702.00,1827.78
             1702.00,1827.78 1712.00,1827.09 1712.00,1827.09
             1735.82,1825.45 1748.25,1822.99 1771.00,1815.33
             1771.00,1815.33 1810.00,1800.58 1810.00,1800.58
             1819.87,1796.85 1828.20,1793.13 1839.00,1793.00
             1844.48,1792.94 1860.86,1792.64 1862.69,1799.13
             1863.88,1803.39 1861.61,1810.17 1859.73,1814.00
             1855.72,1822.13 1845.50,1835.19 1845.26,1844.00
             1845.11,1849.57 1849.13,1855.27 1851.69,1860.00
             1855.60,1867.23 1861.60,1882.78 1866.33,1887.82
             1871.98,1893.84 1875.19,1892.08 1881.00,1902.00
             1881.00,1902.00 1872.00,1902.82 1872.00,1902.82
             1872.00,1902.82 1859.00,1901.83 1859.00,1901.83
             1847.37,1900.72 1834.83,1897.83 1824.00,1903.88
             1810.87,1911.21 1793.79,1925.48 1783.00,1936.01
             1783.00,1936.01 1767.58,1951.47 1767.58,1951.47
             1761.76,1956.58 1754.43,1956.46 1747.17,1964.04
             1734.40,1977.38 1725.22,1994.87 1709.00,2004.55
             1690.46,2015.61 1671.42,2015.67 1651.00,2010.63
             1646.70,2009.57 1636.47,2007.40 1633.49,2004.49
             1631.79,2002.83 1628.99,1996.48 1627.75,1994.00
             1627.75,1994.00 1617.58,1973.00 1617.58,1973.00
             1612.48,1961.31 1606.15,1950.19 1606.00,1937.00
             1605.79,1917.99 1615.26,1900.46 1623.74,1884.00
             1635.89,1860.45 1643.40,1848.02 1651.00,1822.00 Z" />
  <path id="Culasi"
        fill="none" stroke="black" stroke-width="1"
        d="M 1020.00,1411.00
           C 1022.22,1409.81 1024.35,1408.43 1027.00,1408.78
             1030.07,1409.18 1032.87,1411.94 1034.99,1414.02
             1040.89,1419.84 1048.92,1428.16 1047.00,1437.00
             1038.69,1434.19 1025.23,1418.31 1020.00,1411.00 Z
           M 1687.00,1565.00
           C 1687.00,1565.00 1700.00,1563.91 1700.00,1563.91
             1700.00,1563.91 1726.00,1544.87 1726.00,1544.87
             1726.00,1544.87 1736.00,1538.51 1736.00,1538.51
             1736.00,1538.51 1743.00,1538.00 1743.00,1538.00
             1743.00,1538.00 1765.00,1538.65 1765.00,1538.65
             1765.00,1538.65 1786.00,1550.00 1786.00,1550.00
             1782.32,1556.55 1774.52,1566.39 1772.63,1573.00
             1771.14,1578.27 1770.97,1593.04 1771.00,1599.00
             1771.00,1599.00 1771.82,1612.00 1771.82,1612.00
             1771.38,1618.05 1767.20,1629.81 1770.02,1634.90
             1773.35,1640.90 1786.72,1642.29 1794.83,1648.93
             1801.69,1654.54 1803.12,1662.54 1806.98,1670.00
             1814.93,1685.38 1820.97,1686.00 1821.00,1706.00
             1821.01,1715.24 1821.33,1724.84 1822.58,1734.00
             1823.07,1737.59 1823.08,1741.76 1825.09,1744.89
             1828.68,1750.53 1835.20,1748.59 1845.00,1755.10
             1857.68,1763.53 1862.68,1779.40 1863.00,1794.00
             1850.84,1791.26 1853.00,1790.98 1840.00,1791.00
             1827.22,1791.02 1820.58,1794.40 1809.00,1798.68
             1809.00,1798.68 1764.00,1815.33 1764.00,1815.33
             1735.74,1824.54 1707.49,1826.34 1678.00,1826.00
             1668.75,1825.89 1659.09,1823.47 1651.00,1819.00
             1656.09,1790.57 1628.13,1760.46 1628.00,1733.00
             1628.00,1733.00 1628.00,1729.00 1628.00,1729.00
             1628.15,1718.30 1637.75,1711.39 1642.68,1702.00
             1646.93,1693.88 1645.99,1686.78 1646.00,1678.00
             1646.01,1670.75 1648.94,1661.26 1644.99,1655.04
             1640.95,1648.67 1631.98,1648.49 1634.17,1644.45
             1635.31,1642.35 1642.56,1640.66 1645.00,1639.78
             1654.10,1636.53 1656.80,1634.37 1664.00,1627.83
             1672.89,1619.76 1673.73,1614.69 1677.68,1604.00
             1682.33,1591.43 1686.38,1578.49 1687.00,1565.00 Z
           M 1413.00,1622.38
           C 1415.59,1622.11 1417.36,1621.86 1420.00,1622.38
             1427.04,1623.57 1431.49,1630.12 1427.83,1636.91
             1425.74,1640.78 1414.45,1648.75 1410.00,1649.37
             1405.16,1650.04 1402.42,1646.44 1398.00,1645.28
             1391.45,1643.90 1386.36,1649.25 1380.06,1645.28
             1377.77,1643.66 1375.73,1641.00 1376.66,1638.13
             1377.69,1634.93 1383.13,1633.35 1386.00,1632.20
             1397.17,1627.71 1400.34,1624.81 1413.00,1622.38 Z
           M 1567.00,1738.00
           C 1575.86,1734.24 1581.12,1731.09 1591.00,1731.00
             1586.03,1739.79 1576.49,1743.31 1567.00,1741.00
             1567.00,1741.00 1567.00,1738.00 1567.00,1738.00 Z" />
  <path id="Sebaste"
        fill="none" stroke="black" stroke-width="1"
        d="M 1686.00,1564.00
           C 1685.23,1558.28 1682.84,1547.23 1680.80,1542.00
             1677.57,1533.75 1673.66,1529.39 1674.04,1520.00
             1674.62,1505.72 1685.41,1496.38 1688.19,1483.00
             1692.21,1463.69 1686.13,1464.97 1691.45,1439.00
             1691.45,1439.00 1703.53,1403.00 1703.53,1403.00
             1703.53,1403.00 1707.17,1373.00 1707.17,1373.00
             1707.17,1373.00 1709.09,1347.00 1709.09,1347.00
             1709.09,1347.00 1710.00,1335.00 1710.00,1335.00
             1710.00,1335.00 1710.00,1292.00 1710.00,1292.00
             1709.89,1283.16 1706.90,1280.17 1716.00,1280.00
             1716.00,1280.00 1730.00,1280.00 1730.00,1280.00
             1730.00,1280.00 1740.91,1279.10 1740.91,1279.10
             1744.91,1279.04 1753.69,1279.50 1757.00,1278.07
             1763.04,1275.46 1767.26,1267.97 1774.00,1266.29
             1782.46,1264.17 1814.27,1265.00 1825.00,1265.00
             1822.88,1276.34 1808.56,1296.26 1800.57,1304.72
             1796.38,1309.15 1784.51,1321.77 1782.69,1327.09
             1781.93,1329.31 1782.01,1331.69 1782.00,1334.00
             1782.00,1334.00 1782.00,1363.00 1782.00,1363.00
             1781.90,1373.45 1782.45,1393.50 1785.80,1403.00
             1786.88,1406.07 1790.74,1413.95 1792.48,1416.71
             1793.60,1418.50 1796.57,1421.74 1796.26,1423.85
             1795.84,1426.75 1789.53,1430.11 1787.70,1435.09
             1787.70,1435.09 1785.85,1448.00 1785.85,1448.00
             1785.85,1448.00 1782.13,1466.00 1782.13,1466.00
             1780.66,1471.85 1777.32,1479.16 1778.48,1485.00
             1780.19,1493.51 1796.33,1513.69 1797.68,1524.00
             1798.17,1527.68 1796.91,1532.48 1795.78,1536.00
             1794.83,1538.98 1791.88,1546.00 1789.19,1547.68
             1785.20,1550.17 1775.82,1543.27 1772.00,1541.42
             1769.42,1540.18 1764.22,1536.94 1762.00,1536.51
             1762.00,1536.51 1748.00,1537.09 1748.00,1537.09
             1743.72,1536.78 1740.36,1535.41 1736.17,1537.09
             1736.17,1537.09 1699.99,1563.19 1699.99,1563.19
             1696.69,1564.39 1689.74,1564.00 1686.00,1564.00 Z" />
  <path id="Pandan"
        fill="none" stroke="black" stroke-width="1"
        d="M 1579.00,1043.00
           C 1590.38,1044.79 1599.32,1053.65 1608.71,1059.88
             1608.71,1059.88 1670.34,1100.96 1670.34,1100.96
             1678.94,1106.42 1692.82,1117.83 1703.00,1117.51
             1713.14,1117.20 1737.95,1113.36 1746.08,1115.68
             1752.11,1117.40 1755.92,1124.76 1762.12,1126.49
             1769.86,1128.66 1779.42,1127.86 1787.00,1131.57
             1790.52,1133.28 1795.53,1138.16 1798.09,1141.20
             1798.09,1141.20 1804.39,1150.00 1804.39,1150.00
             1804.39,1150.00 1815.51,1164.04 1815.51,1164.04
             1818.07,1167.11 1823.88,1172.09 1825.11,1175.09
             1827.72,1181.47 1823.98,1192.82 1825.82,1198.00
             1829.37,1208.00 1839.57,1206.14 1838.88,1219.83
             1838.88,1219.83 1830.90,1250.58 1830.90,1250.58
             1830.01,1253.45 1827.45,1260.51 1825.35,1262.40
             1823.20,1264.34 1819.72,1263.99 1817.00,1264.00
             1817.00,1264.00 1786.00,1264.00 1786.00,1264.00
             1780.07,1264.07 1777.81,1265.60 1772.00,1264.00
             1770.19,1267.52 1768.95,1268.41 1766.00,1271.00
             1757.79,1278.19 1758.89,1277.45 1749.00,1278.29
             1749.00,1278.29 1742.00,1278.29 1742.00,1278.29
             1742.00,1278.29 1729.00,1279.00 1729.00,1279.00
             1729.00,1279.00 1710.00,1279.00 1710.00,1279.00
             1709.78,1254.82 1699.92,1217.78 1684.48,1199.04
             1682.05,1196.08 1677.94,1192.74 1675.00,1190.07
             1669.92,1185.47 1660.45,1176.15 1654.00,1174.56
             1645.76,1172.52 1641.46,1179.76 1636.00,1183.11
             1632.51,1185.25 1629.90,1184.99 1626.00,1185.00
             1615.59,1185.02 1610.83,1185.34 1601.00,1180.68
             1596.15,1178.37 1589.82,1172.85 1585.00,1172.26
             1574.51,1170.97 1569.21,1180.21 1562.00,1179.70
             1556.36,1179.29 1551.95,1173.69 1548.00,1170.17
             1541.76,1164.62 1537.24,1162.17 1529.00,1161.00
             1531.33,1152.78 1533.85,1151.80 1535.45,1146.71
             1537.48,1140.26 1541.21,1121.97 1544.25,1117.59
             1544.25,1117.59 1568.17,1087.59 1568.17,1087.59
             1574.98,1079.10 1578.98,1077.23 1579.00,1066.00
             1579.00,1066.00 1579.00,1043.00 1579.00,1043.00 Z" />
  <path id="Libertad"
        fill="none" stroke="black" stroke-width="1"
        d="M 1300.00,1138.00
           C 1327.03,1134.19 1367.53,1119.28 1386.63,1099.56
             1388.35,1097.79 1394.10,1090.97 1395.17,1088.96
             1397.90,1083.85 1396.70,1081.93 1401.05,1076.00
             1408.62,1065.70 1422.08,1057.65 1433.00,1051.14
             1444.09,1044.52 1442.84,1042.02 1457.00,1042.00
             1457.00,1042.00 1494.00,1042.00 1494.00,1042.00
             1498.63,1042.06 1503.57,1043.43 1508.00,1042.67
             1516.44,1041.23 1522.61,1033.58 1530.00,1033.35
             1533.07,1033.26 1543.29,1034.31 1546.00,1035.57
             1549.71,1037.29 1552.16,1040.33 1556.00,1041.49
             1560.49,1042.85 1571.99,1043.00 1577.00,1043.00
             1577.00,1043.00 1577.00,1066.00 1577.00,1066.00
             1576.98,1076.43 1573.30,1078.06 1567.00,1086.00
             1567.00,1086.00 1541.27,1119.00 1541.27,1119.00
             1541.27,1119.00 1534.09,1144.00 1534.09,1144.00
             1532.37,1149.81 1529.09,1154.85 1526.00,1160.00
             1523.23,1158.90 1519.99,1157.41 1517.00,1157.36
             1513.13,1157.29 1509.99,1159.37 1505.00,1158.66
             1505.00,1158.66 1488.00,1153.87 1488.00,1153.87
             1488.00,1153.87 1458.00,1145.95 1458.00,1145.95
             1458.00,1145.95 1429.00,1135.80 1429.00,1135.80
             1424.60,1134.07 1416.52,1130.15 1412.00,1130.70
             1404.55,1131.61 1400.38,1139.03 1390.00,1142.28
             1374.26,1147.21 1364.09,1147.00 1348.00,1147.00
             1336.71,1147.00 1331.31,1147.60 1320.00,1144.87
             1314.30,1143.50 1304.60,1141.29 1300.00,1138.00 Z" />
  <path id="Caluya"
        fill="none" stroke="black" stroke-width="1"
        d="M 603.00,391.00
           C 603.73,393.81 605.07,397.11 604.74,400.00
             604.35,403.38 599.59,411.62 595.91,411.89
             592.51,412.14 584.44,404.89 585.49,401.30
             586.21,398.83 592.70,394.76 595.00,393.52
             597.99,391.89 599.71,391.52 603.00,391.00 Z
           M 460.91,541.00
           C 463.84,541.00 467.36,540.79 470.00,541.85
             474.73,543.77 480.43,551.00 487.00,554.08
             493.44,557.10 497.23,555.30 503.00,556.48
             513.19,558.56 526.12,568.24 530.07,578.00
             531.60,581.78 534.15,592.08 533.63,596.00
             532.81,602.29 527.80,606.03 530.78,610.91
             533.65,615.59 540.27,616.53 543.59,622.09
             543.59,622.09 562.56,673.00 562.56,673.00
             566.44,680.68 574.12,682.33 576.86,686.38
             579.63,690.45 579.15,706.44 578.98,712.00
             578.74,720.40 574.78,721.36 569.09,726.43
             557.23,737.01 561.42,731.43 552.00,737.61
             552.00,737.61 538.00,748.79 538.00,748.79
             534.43,751.60 526.56,758.89 522.00,758.09
             519.68,757.68 515.96,754.98 514.00,753.57
             505.50,747.47 500.08,740.55 498.32,730.00
             498.32,730.00 497.47,719.00 497.47,719.00
             495.93,712.66 491.98,711.91 487.80,700.00
             485.40,693.18 485.08,686.13 485.00,679.00
             485.00,679.00 484.00,666.00 484.00,666.00
             483.92,658.81 482.59,651.84 489.09,646.99
             494.19,643.20 511.11,639.87 511.99,630.00
             512.23,627.21 510.02,625.16 507.98,623.63
             504.96,621.36 494.04,616.74 490.00,615.00
             489.17,617.47 487.75,623.77 484.04,622.66
             476.93,620.54 479.21,607.19 476.26,603.34
             474.96,601.64 463.84,594.50 462.00,594.47
             459.21,594.43 456.98,597.42 454.09,596.95
             451.08,596.47 449.20,592.81 449.99,590.01
             451.49,584.70 461.53,580.31 462.66,575.99
             463.65,572.21 458.98,570.83 458.64,566.91
             458.64,566.91 460.91,557.00 460.91,557.00
             460.91,557.00 460.91,541.00 460.91,541.00 Z
           M 841.09,552.84
           C 848.81,552.34 860.46,566.05 850.89,571.55
             848.54,572.91 844.72,573.34 842.00,574.22
             837.62,575.64 832.42,580.06 828.46,576.95
             825.32,574.68 827.21,571.57 828.46,569.00
             831.59,563.43 835.43,555.89 841.09,552.84 Z
           M 813.00,744.00
           C 819.73,747.61 831.02,759.25 828.56,767.87
             827.64,771.07 824.52,771.46 822.00,773.00
             814.92,777.30 814.27,781.46 805.00,782.00
             805.00,782.00 806.02,774.00 806.02,774.00
             806.02,774.00 811.97,765.00 811.97,765.00
             811.97,765.00 810.28,752.00 810.28,752.00
             810.28,752.00 813.00,744.00 813.00,744.00 Z
           M 804.00,798.84
           C 812.05,798.83 812.05,804.35 817.30,808.27
             820.17,810.41 822.36,809.62 824.44,813.14
             826.18,816.08 826.74,821.68 830.39,825.82
             835.81,831.97 836.24,827.78 842.86,840.00
             843.59,841.35 844.85,843.45 845.08,844.96
             845.97,850.83 833.94,851.22 835.91,860.00
             837.06,865.14 846.89,873.60 850.67,877.58
             855.48,882.64 857.67,889.04 857.24,896.00
             857.10,898.28 856.67,900.91 855.73,903.00
             854.24,906.29 851.77,908.89 848.96,911.10
             838.44,919.35 829.64,915.71 818.00,918.53
             812.65,919.83 806.72,924.80 803.00,925.09
             799.11,925.39 795.55,921.47 793.00,918.99
             789.81,915.88 778.60,905.16 777.02,902.00
             776.05,900.06 775.99,898.12 776.18,896.00
             776.18,896.00 788.91,848.00 788.91,848.00
             789.18,843.97 788.82,840.45 785.66,837.57
             781.29,833.58 774.05,834.71 775.43,826.00
             776.09,821.84 781.88,811.48 785.32,809.08
             785.32,809.08 794.00,805.01 794.00,805.01
             798.36,802.36 798.63,800.71 804.00,798.84 Z
           M 354.04,960.92
           C 361.23,960.48 370.42,967.74 373.55,974.00
             375.24,977.39 376.06,984.76 370.90,985.58
             365.57,986.43 364.36,980.15 361.61,977.14
             359.04,974.33 343.77,969.98 351.43,962.44
             352.76,961.14 353.12,961.39 354.04,960.92 Z
           M 567.00,1012.00
           C 568.11,1007.88 573.36,994.57 575.41,991.04
             577.30,987.78 580.03,986.02 580.56,983.91
             581.13,981.62 579.54,979.93 579.12,978.00
             577.82,971.96 586.70,962.89 592.00,960.97
             600.17,958.01 603.30,962.82 609.00,963.78
             614.16,964.64 622.13,963.01 628.00,963.00
             628.00,963.00 655.00,963.00 655.00,963.00
             655.00,963.00 673.00,962.10 673.00,962.10
             679.20,962.68 684.02,966.44 689.00,967.25
             693.15,968.31 696.38,966.73 702.00,967.25
             708.45,967.40 709.86,970.40 715.00,970.73
             719.06,970.98 724.41,968.49 728.00,969.64
             730.66,970.48 735.64,975.11 738.00,977.08
             742.81,981.10 758.77,993.61 761.17,998.00
             763.79,1002.79 759.21,1010.40 757.14,1015.00
             756.34,1016.77 755.00,1019.90 753.37,1020.99
             750.69,1022.78 748.13,1020.41 744.00,1022.78
             740.71,1024.66 737.90,1029.09 734.00,1029.48
             729.83,1029.88 728.41,1026.13 719.00,1026.00
             714.66,1025.95 701.45,1025.64 698.00,1026.64
             691.87,1028.40 689.20,1032.71 682.00,1032.94
             668.72,1033.38 646.12,1024.53 632.78,1021.00
             632.78,1021.00 632.78,1016.00 632.78,1016.00
             632.78,1016.00 631.85,1013.06 631.85,1013.06
             628.64,1004.66 624.48,1015.80 617.00,1014.76
             611.74,1014.02 609.31,1009.32 605.00,1007.17
             602.66,1006.01 594.70,1005.57 592.00,1005.77
             585.84,1006.21 584.99,1010.80 580.91,1012.98
             576.84,1015.15 570.97,1013.65 567.00,1012.00 Z" />
</svg>
