<?xml version="1.0" encoding="UTF-8" standalone="no"?>
<!DOCTYPE svg PUBLIC "-//W3C//DTD SVG 20010904//EN"
              "http://www.w3.org/TR/2001/REC-SVG-20010904/DTD/svg10.dtd">

<svg xmlns="http://www.w3.org/2000/svg"
     width="56.8961mm" height="92.6255mm"
     viewBox="0 0 672 1094">
  <path id="Conner"
        fill="none" stroke="black" stroke-width="1"
        d="M 199.00,818.00
           C 206.94,812.36 225.35,796.81 231.83,789.96
             241.34,779.91 249.44,768.73 261.00,760.77
             268.86,755.36 289.96,749.86 300.00,746.66
             300.00,746.66 360.00,729.58 360.00,729.58
             360.00,729.58 395.00,721.04 395.00,721.04
             409.82,720.44 422.69,732.80 434.00,741.12
             445.37,749.49 469.94,763.10 483.00,770.00
             481.37,778.04 472.50,789.27 468.31,797.00
             461.56,809.45 460.46,815.67 457.13,829.00
             456.09,833.13 451.75,844.59 453.27,847.91
             454.50,850.61 457.58,852.26 460.00,853.73
             463.17,855.66 467.40,859.35 471.00,859.48
             477.49,859.71 487.01,852.62 497.00,856.96
             505.28,860.57 513.18,870.37 519.17,877.00
             519.17,877.00 559.27,919.00 559.27,919.00
             566.22,927.11 572.86,933.80 573.00,945.00
             573.08,951.91 572.57,959.37 574.96,966.00
             577.03,971.73 582.26,977.48 581.08,981.99
             579.96,986.26 573.58,989.44 570.00,991.60
             570.00,991.60 542.00,1010.00 542.00,1010.00
             534.72,1014.96 533.97,1017.52 532.42,1026.00
             531.78,1029.51 531.21,1036.74 527.61,1038.43
             525.21,1039.55 519.64,1038.38 517.00,1037.92
             517.00,1037.92 490.00,1031.37 490.00,1031.37
             490.00,1031.37 417.00,1011.13 417.00,1011.13
             410.59,1009.52 390.35,1004.05 385.00,1004.15
             379.53,1004.24 376.14,1008.74 373.46,1013.00
             367.26,1022.89 363.73,1034.14 359.68,1045.00
             357.96,1049.60 354.56,1059.94 348.00,1058.16
             343.96,1057.06 338.63,1050.20 335.87,1047.00
             327.81,1037.64 324.83,1034.27 315.00,1026.45
             298.10,1013.00 277.14,1005.81 258.00,996.25
             253.30,993.90 237.35,986.41 234.51,983.39
             230.39,979.02 232.87,972.53 232.44,969.00
             232.02,965.52 229.88,963.34 229.21,959.00
             229.21,959.00 227.72,939.00 227.72,939.00
             225.08,916.76 219.10,880.73 219.00,860.00
             218.96,852.22 217.33,837.74 213.59,831.00
             209.94,824.43 203.84,823.18 199.00,818.00 Z" />
  <path id="Kabugao"
        fill="none" stroke="black" stroke-width="1"
        d="M 31.00,657.00
           C 39.68,654.13 48.97,655.00 58.00,655.00
             58.00,655.00 102.00,655.00 102.00,655.00
             106.34,654.99 111.07,655.02 115.00,652.86
             115.00,652.86 130.00,638.59 130.00,638.59
             152.86,619.29 168.50,592.24 182.25,566.00
             182.25,566.00 259.86,426.00 259.86,426.00
             259.86,426.00 275.78,397.00 275.78,397.00
             277.04,394.63 281.93,385.18 283.63,383.99
             285.68,382.56 297.05,382.00 300.00,382.00
             300.00,382.00 349.00,381.00 349.00,381.00
             349.00,381.00 351.16,400.00 351.16,400.00
             351.16,400.00 355.28,431.00 355.28,431.00
             355.28,431.00 361.71,467.00 361.71,467.00
             363.38,480.51 361.33,495.74 370.47,507.00
             370.47,507.00 404.00,540.00 404.00,540.00
             404.00,540.00 485.00,620.00 485.00,620.00
             485.00,620.00 514.00,650.00 514.00,650.00
             516.87,652.88 525.67,661.42 526.60,665.00
             527.37,667.94 524.56,672.45 523.14,675.00
             523.14,675.00 511.42,696.00 511.42,696.00
             505.08,707.20 498.63,718.76 494.52,731.00
             494.52,731.00 488.11,757.00 488.11,757.00
             488.11,757.00 485.00,768.00 485.00,768.00
             479.75,766.47 470.11,760.76 465.00,757.85
             453.80,751.46 442.36,745.06 432.00,737.37
             422.12,730.03 410.72,719.80 398.00,718.68
             393.07,718.25 387.77,719.93 383.00,721.13
             383.00,721.13 356.00,728.29 356.00,728.29
             356.00,728.29 296.00,745.58 296.00,745.58
             285.07,748.77 266.71,753.97 258.00,760.68
             248.73,767.82 240.07,778.53 231.96,787.00
             231.96,787.00 215.00,802.72 215.00,802.72
             211.99,805.35 201.14,815.22 198.00,815.92
             194.12,816.78 190.47,812.43 188.00,810.00
             182.91,804.98 177.66,798.67 170.00,798.12
             163.52,797.65 157.43,801.52 152.00,804.58
             142.04,810.19 123.79,816.46 114.33,806.79
             112.34,804.76 110.53,801.58 109.32,799.00
             107.53,795.17 106.37,791.15 105.62,787.00
             104.65,781.66 104.01,775.42 104.00,770.00
             104.00,770.00 104.00,744.00 104.00,744.00
             104.00,744.00 103.09,733.00 103.09,733.00
             102.40,723.13 101.90,714.83 96.65,706.00
             93.10,700.03 86.37,694.82 81.00,690.42
             70.56,681.87 59.50,674.12 48.00,667.06
             48.00,667.06 31.00,657.00 31.00,657.00 Z" />
  <path id="Pudtol"
        fill="none" stroke="black" stroke-width="1"
        d="M 470.00,601.00
           C 463.55,597.95 454.40,587.40 449.00,582.00
             449.00,582.00 409.00,542.00 409.00,542.00
             409.00,542.00 382.00,516.00 382.00,516.00
             378.68,512.68 372.29,506.70 369.99,503.00
             364.42,494.01 365.93,481.12 364.72,471.00
             364.72,471.00 359.43,443.00 359.43,443.00
             359.43,443.00 354.58,407.00 354.58,407.00
             354.58,407.00 352.78,390.00 352.78,390.00
             352.28,387.74 351.44,383.66 352.78,381.74
             354.70,379.63 359.51,380.00 362.00,380.00
             362.00,380.00 380.00,380.00 380.00,380.00
             380.00,380.00 395.00,379.00 395.00,379.00
             395.00,379.00 439.00,378.00 439.00,378.00
             442.48,377.99 445.71,378.15 449.00,376.77
             460.70,371.87 464.15,353.92 475.00,346.70
             485.25,339.88 505.23,343.86 517.00,343.87
             517.00,343.87 533.00,343.87 533.00,343.87
             536.26,343.98 543.76,342.84 546.00,343.87
             548.63,344.52 550.76,346.83 552.39,349.00
             562.33,362.29 549.75,373.75 543.00,385.00
             543.00,385.00 554.00,383.00 554.00,383.00
             550.62,387.71 543.65,395.66 538.00,397.44
             532.11,398.96 523.23,397.20 521.00,397.44
             516.90,398.33 515.71,401.56 511.91,403.30
             509.37,404.47 506.02,404.34 503.74,407.28
             498.58,413.90 507.71,434.07 507.36,437.90
             506.90,442.93 499.41,442.70 495.87,448.10
             492.28,453.54 495.92,459.31 495.87,466.00
             495.86,468.27 494.99,471.45 497.35,472.89
             499.52,474.21 504.65,472.62 507.00,472.00
             507.00,472.00 510.44,482.00 510.44,482.00
             510.77,484.79 509.77,486.33 510.44,491.00
             511.52,498.46 513.84,503.88 509.44,511.00
             502.83,521.69 488.53,529.53 483.68,539.00
             480.82,544.59 478.74,560.14 477.59,567.00
             477.59,567.00 470.00,601.00 470.00,601.00 Z" />
  <path id="Flora"
        fill="none" stroke="black" stroke-width="1"
        d="M 556.00,329.00
           C 570.90,329.93 607.22,339.80 624.00,343.65
             624.00,343.65 639.00,347.00 639.00,347.00
             641.87,368.76 639.26,394.81 639.00,417.00
             639.00,417.00 638.00,430.00 638.00,430.00
             638.00,430.00 636.17,457.00 636.17,457.00
             634.97,469.33 634.62,481.88 631.76,494.00
             627.64,511.48 611.20,534.68 611.00,551.00
             610.94,556.41 611.71,565.29 609.43,570.00
             606.84,575.35 601.16,577.86 596.00,580.14
             586.00,584.56 573.06,586.93 565.02,594.18
             558.45,600.10 552.13,614.73 548.22,623.00
             548.22,623.00 530.00,662.00 530.00,662.00
             524.28,658.80 519.54,651.78 514.96,647.00
             514.96,647.00 487.00,619.00 487.00,619.00
             483.83,615.83 473.74,606.72 472.77,603.00
             472.03,600.17 475.50,588.50 476.37,585.00
             476.37,585.00 481.92,558.00 481.92,558.00
             482.71,553.32 484.41,542.86 486.44,539.00
             491.56,529.24 508.03,521.15 513.40,508.00
             516.31,501.74 513.75,496.38 513.40,490.00
             512.75,485.30 513.77,483.98 512.15,479.00
             511.36,476.56 509.97,472.40 507.73,471.01
             505.21,469.49 500.83,470.63 497.87,471.01
             499.95,459.92 495.47,455.32 497.87,450.21
             499.96,445.22 509.91,444.76 510.31,438.00
             510.31,438.00 505.29,417.00 505.29,417.00
             504.95,414.40 504.63,410.64 506.60,408.58
             508.02,407.10 511.04,406.58 512.99,405.55
             516.30,403.81 518.19,400.68 522.04,400.16
             522.04,400.16 533.00,400.82 533.00,400.82
             542.14,400.12 544.89,396.15 551.00,390.00
             560.48,380.46 566.37,375.88 569.20,362.00
             571.50,350.76 556.38,344.16 556.00,329.00 Z" />
  <path id="Sta. Marcela"
        fill="none" stroke="black" stroke-width="1"
        d="M 566.00,248.00
           C 575.26,250.65 592.45,262.91 601.00,268.67
             604.76,271.20 613.94,277.62 616.26,281.09
             619.23,285.51 618.24,293.99 621.09,302.00
             626.19,316.36 635.58,329.03 639.00,344.00
             639.00,344.00 610.00,337.65 610.00,337.65
             610.00,337.65 565.00,327.00 565.00,327.00
             567.43,320.22 571.40,314.78 566.28,308.02
             565.18,306.58 563.78,305.00 561.96,304.75
             561.96,304.75 552.79,304.75 552.79,304.75
             553.00,302.36 553.16,297.37 552.79,295.00
             551.71,291.36 549.39,289.28 549.87,286.00
             550.58,281.19 555.80,279.57 558.64,273.00
             561.06,267.39 558.78,261.76 558.00,256.00
             563.45,254.83 566.19,254.20 566.00,248.00 Z" />
  <path id="Luna"
        fill="none" stroke="black" stroke-width="1"
        d="M 215.00,78.00
           C 215.00,78.00 241.00,89.69 241.00,89.69
             241.00,89.69 276.00,103.58 276.00,103.58
             300.60,112.78 356.99,131.70 377.00,142.86
             392.47,151.49 399.03,161.97 411.00,174.00
             415.63,178.65 421.09,184.76 427.00,187.60
             434.36,191.14 448.53,189.99 457.00,190.00
             459.67,190.00 462.38,189.92 465.00,190.53
             470.90,191.89 484.93,201.82 491.00,205.58
             491.00,205.58 542.00,234.00 542.00,234.00
             545.94,236.24 561.15,243.51 562.98,246.39
             564.15,248.22 563.97,250.90 564.00,253.00
             564.00,253.00 549.00,253.00 549.00,253.00
             549.43,254.11 549.74,254.06 549.94,256.00
             549.94,256.00 549.94,269.96 549.94,269.96
             549.08,275.48 544.83,274.55 542.48,281.01
             539.98,287.88 542.29,295.11 543.58,302.00
             544.30,305.87 544.98,309.81 548.33,312.40
             551.00,314.48 554.82,314.20 558.00,314.00
             557.93,321.01 552.51,317.64 547.31,324.05
             544.35,327.71 544.04,336.32 544.00,341.00
             544.00,341.00 531.00,342.00 531.00,342.00
             531.00,342.00 489.00,341.00 489.00,341.00
             465.51,341.29 463.75,363.63 451.99,372.69
             447.97,375.78 438.10,375.99 433.00,376.00
             433.00,376.00 416.00,376.00 416.00,376.00
             416.00,376.00 400.00,377.00 400.00,377.00
             400.00,377.00 384.00,377.00 384.00,377.00
             384.00,377.00 368.00,378.00 368.00,378.00
             368.00,378.00 353.00,378.00 353.00,378.00
             353.00,378.00 337.00,379.00 337.00,379.00
             337.00,379.00 321.00,379.00 321.00,379.00
             321.00,379.00 305.00,380.00 305.00,380.00
             305.00,380.00 283.00,380.00 283.00,380.00
             283.00,380.00 266.88,308.00 266.88,308.00
             266.88,308.00 233.58,161.00 233.58,161.00
             233.58,161.00 215.00,78.00 215.00,78.00 Z" />
  <path id="Calanasan"
        fill="none" stroke="black" stroke-width="1"
        d="M 72.00,115.00
           C 84.02,113.38 95.83,110.09 106.00,103.25
             115.48,96.88 124.50,86.48 132.17,78.00
             139.09,70.35 144.74,64.70 150.66,56.00
             157.13,46.48 163.33,29.42 171.00,23.39
             177.90,17.97 187.55,16.90 196.00,17.00
             199.89,17.05 204.53,17.27 207.30,20.42
             210.43,23.97 210.05,30.53 210.00,35.00
             210.00,35.00 208.18,60.00 208.18,60.00
             208.82,69.03 212.36,77.23 214.35,86.00
             214.35,86.00 227.12,142.00 227.12,142.00
             227.12,142.00 263.65,303.00 263.65,303.00
             263.65,303.00 276.00,357.00 276.00,357.00
             276.00,357.00 280.86,380.00 280.86,380.00
             280.86,385.37 274.44,395.00 271.78,400.00
             271.78,400.00 245.30,448.00 245.30,448.00
             245.30,448.00 199.31,530.00 199.31,530.00
             185.32,555.86 170.92,585.15 154.00,609.00
             148.55,616.68 140.95,626.61 134.00,632.83
             134.00,632.83 125.01,640.17 125.01,640.17
             121.66,643.24 117.40,649.62 113.91,651.15
             111.93,652.01 96.94,653.00 94.00,653.00
             94.00,653.00 32.00,653.00 32.00,653.00
             34.29,638.41 44.93,637.04 45.89,626.00
             46.41,620.06 43.68,614.68 42.51,609.00
             42.51,609.00 40.96,587.00 40.96,587.00
             40.96,587.00 40.96,575.00 40.96,575.00
             40.96,575.00 40.00,563.00 40.00,563.00
             39.97,541.94 39.41,520.53 44.88,500.00
             47.54,490.04 55.78,473.85 62.32,466.00
             72.72,453.52 84.34,448.25 84.74,430.00
             84.98,419.26 73.14,407.68 68.37,398.00
             64.11,389.35 62.02,368.87 62.00,359.00
             62.00,359.00 62.00,331.00 62.00,331.00
             62.00,331.00 60.18,301.00 60.18,301.00
             60.18,301.00 63.08,270.00 63.08,270.00
             63.08,270.00 64.00,260.00 64.00,260.00
             64.10,251.56 64.17,244.12 61.30,236.00
             61.30,236.00 53.03,218.00 53.03,218.00
             50.85,211.21 49.09,197.17 49.00,190.00
             48.91,182.05 48.67,176.77 51.04,169.00
             56.48,151.12 69.12,133.63 72.00,115.00 Z" />
</svg>
