<?xml version="1.0" encoding="UTF-8" standalone="no"?>
<!DOCTYPE svg PUBLIC "-//W3C//DTD SVG 20010904//EN"
              "http://www.w3.org/TR/2001/REC-SVG-20010904/DTD/svg10.dtd">

<svg xmlns="http://www.w3.org/2000/svg"
     width="798.106mm" height="1179.08mm"
     viewBox="0 0 1854 2739">
  <path id="Dingalan"
        fill="none" stroke="black" stroke-width="1"
        d="M 320.00,1837.00
           C 320.00,1837.00 346.00,1837.00 346.00,1837.00
             346.00,1837.00 363.00,1836.00 363.00,1836.00
             363.00,1836.00 483.00,1836.00 483.00,1836.00
             483.36,1840.46 484.26,1847.39 487.42,1850.72
             490.30,1853.77 493.48,1853.46 495.78,1854.98
             498.76,1856.96 500.85,1863.51 500.68,1866.98
             500.36,1873.56 493.26,1872.07 489.11,1874.85
             484.27,1878.10 484.03,1883.77 484.00,1889.00
             483.98,1893.19 484.32,1898.14 481.91,1901.79
             479.56,1905.37 476.13,1905.49 473.92,1912.00
             471.39,1919.45 472.74,1929.52 471.38,1937.00
             470.87,1939.87 470.22,1944.02 467.58,1945.71
             464.82,1947.49 457.44,1946.96 454.00,1947.00
             440.72,1947.19 443.51,1954.52 439.00,1962.00
             436.48,1966.18 432.09,1969.56 428.37,1977.00
             425.12,1983.51 424.29,1990.92 423.00,1998.00
             417.35,1997.95 410.47,1995.58 407.44,2002.04
             405.48,2006.24 407.88,2009.72 405.41,2011.84
             405.41,2011.84 390.00,2016.80 390.00,2016.80
             385.30,2017.74 382.39,2014.54 379.00,2011.75
             373.42,2007.15 363.79,1997.70 356.00,1999.43
             347.00,2001.43 338.50,2017.13 334.78,2025.00
             323.56,2048.74 310.67,2088.97 316.98,2115.00
             314.95,2118.29 315.68,2122.41 316.98,2126.00
             316.98,2126.00 321.34,2135.00 321.34,2135.00
             321.34,2135.00 327.58,2150.00 327.58,2150.00
             327.58,2150.00 342.74,2180.00 342.74,2180.00
             342.74,2180.00 361.28,2218.00 361.28,2218.00
             366.98,2228.00 377.72,2239.08 376.67,2251.00
             376.12,2257.31 371.42,2265.43 366.82,2269.62
             363.91,2272.27 360.49,2273.42 357.39,2277.09
             354.09,2281.00 351.84,2288.90 351.14,2293.96
             350.54,2298.32 350.68,2302.11 353.01,2306.00
             357.09,2312.83 364.16,2314.47 357.61,2323.00
             353.72,2328.06 348.13,2333.21 342.00,2335.25
             334.51,2337.74 322.99,2336.48 320.43,2346.00
             317.56,2356.67 328.54,2364.95 337.00,2368.57
             341.22,2370.38 348.49,2371.16 348.19,2377.02
             348.19,2377.02 340.37,2407.00 340.37,2407.00
             340.37,2407.00 330.08,2447.99 330.08,2447.99
             324.60,2459.18 311.21,2456.84 311.00,2472.00
             310.96,2475.44 311.45,2480.93 309.83,2483.91
             305.89,2491.14 293.13,2491.83 287.90,2498.21
             287.90,2498.21 275.80,2518.00 275.80,2518.00
             275.80,2518.00 253.00,2556.00 253.00,2556.00
             247.97,2547.78 245.06,2523.32 243.72,2513.00
             243.72,2513.00 241.00,2482.00 241.00,2482.00
             241.00,2482.00 240.00,2461.00 240.00,2461.00
             240.00,2461.00 239.00,2438.00 239.00,2438.00
             239.00,2438.00 237.00,2405.00 237.00,2405.00
             242.92,2403.61 248.80,2401.07 252.49,2395.98
             259.42,2386.44 254.20,2371.31 245.98,2364.33
             236.00,2355.85 228.18,2358.89 222.36,2349.00
             216.28,2338.66 215.01,2322.77 213.83,2311.00
             213.83,2311.00 212.04,2296.00 212.04,2296.00
             211.67,2286.59 218.70,2269.09 221.58,2259.00
             221.58,2259.00 239.79,2188.00 239.79,2188.00
             247.69,2150.83 254.31,2113.62 259.73,2076.00
             266.14,2031.50 266.22,2011.17 279.42,1966.00
             286.59,1941.49 296.41,1917.47 306.43,1894.00
             306.43,1894.00 318.42,1867.00 318.42,1867.00
             320.33,1862.54 322.97,1857.99 322.53,1853.00
             322.53,1853.00 320.00,1837.00 320.00,1837.00 Z
           M 305.00,2149.00
           C 305.00,2149.00 301.00,2150.00 301.00,2150.00
             301.00,2150.00 305.00,2149.00 305.00,2149.00 Z" />
  <path id="San Luis"
        fill="none" stroke="black" stroke-width="1"
        d="M 223.00,1518.00
           C 229.19,1516.75 235.48,1515.30 241.00,1512.12
             247.45,1508.41 249.28,1504.72 257.00,1502.22
             269.98,1498.00 284.51,1497.14 298.00,1495.83
             298.00,1495.83 334.00,1493.01 334.00,1493.01
             341.18,1493.18 349.78,1494.66 356.00,1498.35
             364.58,1503.44 362.76,1507.82 372.00,1508.00
             372.00,1508.00 395.00,1508.00 395.00,1508.00
             395.00,1508.00 410.00,1507.00 410.00,1507.00
             413.04,1506.97 418.30,1507.29 421.00,1506.26
             424.50,1504.93 428.33,1500.67 431.00,1498.00
             431.00,1498.00 448.00,1481.00 448.00,1481.00
             451.21,1477.79 462.19,1468.26 463.40,1465.00
             464.11,1463.08 464.00,1460.07 464.21,1458.00
             464.21,1458.00 464.21,1435.00 464.21,1435.00
             464.71,1432.85 464.88,1428.39 466.60,1427.02
             468.43,1425.57 480.18,1425.00 483.00,1425.00
             483.00,1425.00 540.00,1425.00 540.00,1425.00
             551.09,1425.02 553.29,1429.96 560.28,1438.00
             565.89,1444.45 570.46,1449.78 573.46,1458.00
             577.95,1470.32 579.40,1489.42 586.09,1500.00
             595.23,1514.44 610.45,1527.91 627.00,1532.96
             627.00,1532.96 640.00,1535.71 640.00,1535.71
             640.00,1535.71 646.83,1536.27 646.83,1536.27
             652.57,1537.57 649.08,1539.98 662.00,1540.00
             662.00,1540.00 682.00,1540.00 682.00,1540.00
             682.00,1548.09 681.05,1553.84 690.86,1555.00
             690.86,1555.00 690.86,1566.00 690.86,1566.00
             689.42,1572.36 680.93,1580.37 675.00,1582.78
             670.02,1584.80 664.54,1583.14 660.39,1586.70
             655.57,1590.83 657.07,1599.30 653.35,1602.01
             650.74,1603.90 646.86,1601.92 643.32,1604.60
             639.51,1607.49 634.37,1618.65 632.37,1620.38
             630.39,1622.09 628.31,1621.55 626.41,1622.90
             624.31,1624.40 624.14,1626.66 621.59,1629.26
             621.59,1629.26 610.42,1638.37 610.42,1638.37
             608.16,1640.80 607.98,1642.85 606.75,1644.59
             604.83,1647.31 601.99,1647.54 600.60,1651.05
             599.64,1653.48 600.03,1662.82 600.00,1666.00
             599.85,1677.74 596.64,1678.11 589.17,1685.29
             589.17,1685.29 575.00,1698.57 575.00,1698.57
             571.92,1701.13 564.84,1706.48 562.65,1709.29
             559.49,1713.32 559.05,1721.94 559.00,1727.00
             558.97,1730.43 559.17,1734.86 556.49,1737.44
             553.75,1740.08 549.31,1739.43 546.04,1741.17
             542.70,1742.95 541.36,1746.10 537.96,1747.40
             535.06,1748.51 531.23,1747.39 528.21,1749.17
             524.42,1751.42 524.80,1755.59 521.70,1758.58
             518.94,1761.25 515.15,1761.45 512.10,1763.70
             509.04,1765.96 508.28,1768.65 506.37,1770.01
             504.31,1771.47 501.86,1770.71 499.98,1773.31
             497.11,1777.30 498.79,1783.58 498.96,1788.00
             499.29,1796.57 495.49,1801.92 493.47,1810.00
             491.09,1819.57 491.80,1822.74 492.00,1832.00
             492.00,1832.00 476.00,1834.00 476.00,1834.00
             476.00,1834.00 328.00,1834.00 328.00,1834.00
             328.00,1834.00 320.59,1832.98 320.59,1832.98
             320.59,1832.98 315.28,1816.00 315.28,1816.00
             315.28,1816.00 297.86,1760.00 297.86,1760.00
             297.86,1760.00 285.02,1719.00 285.02,1719.00
             285.02,1719.00 247.98,1599.00 247.98,1599.00
             247.98,1599.00 223.00,1518.00 223.00,1518.00 Z" />
  <path id="Baler"
        fill="none" stroke="black" stroke-width="1"
        d="M 482.00,1423.00
           C 486.83,1416.25 510.49,1394.91 518.00,1387.91
             518.00,1387.91 552.00,1355.63 552.00,1355.63
             552.00,1355.63 563.00,1349.75 563.00,1349.75
             563.00,1349.75 582.00,1340.75 582.00,1340.75
             584.12,1339.69 588.73,1337.04 590.98,1337.23
             596.98,1337.75 598.74,1350.19 599.53,1355.00
             600.45,1360.59 598.58,1361.79 600.05,1368.00
             601.55,1374.39 605.57,1379.39 608.69,1385.00
             611.16,1389.42 615.77,1398.58 619.18,1401.92
             624.64,1406.87 640.82,1405.76 646.98,1401.92
             650.12,1400.19 651.33,1398.09 653.00,1395.00
             653.00,1395.00 662.00,1396.71 662.00,1396.71
             662.00,1396.71 672.00,1397.43 672.00,1397.43
             679.13,1399.34 676.23,1402.93 688.00,1403.00
             688.00,1403.00 701.00,1403.96 701.00,1403.96
             701.00,1403.96 717.00,1403.96 717.00,1403.96
             716.78,1414.17 711.71,1426.53 725.00,1430.00
             725.00,1430.00 725.83,1458.00 725.83,1458.00
             726.37,1465.05 723.25,1465.77 719.87,1471.00
             719.87,1471.00 716.88,1476.57 716.88,1476.57
             712.00,1482.70 695.18,1471.52 694.00,1486.14
             694.00,1486.14 686.00,1486.14 686.00,1486.14
             686.00,1486.14 681.02,1487.34 681.02,1487.34
             667.84,1491.98 681.72,1504.16 682.89,1507.00
             684.32,1510.47 681.91,1515.14 679.47,1517.61
             675.36,1521.76 670.86,1520.57 668.09,1521.31
             664.89,1522.17 663.00,1524.99 659.99,1526.86
             654.65,1530.16 652.31,1527.57 649.00,1534.00
             619.25,1533.98 591.30,1514.91 582.72,1486.00
             579.58,1475.43 578.72,1464.14 574.10,1454.00
             570.37,1445.83 565.25,1440.26 559.00,1434.00
             551.63,1426.62 550.65,1423.02 540.00,1423.00
             540.00,1423.00 482.00,1423.00 482.00,1423.00 Z
           M 711.00,1427.00
           C 711.00,1427.00 710.00,1427.00 710.00,1427.00
             710.00,1427.00 711.00,1428.00 711.00,1428.00
             711.00,1428.00 711.00,1427.00 711.00,1427.00 Z
           M 716.00,1457.00
           C 716.00,1457.00 713.00,1460.00 713.00,1460.00
             713.00,1460.00 716.00,1457.00 716.00,1457.00 Z" />
  <path id="Maria Aurora"
        fill="none" stroke="black" stroke-width="1"
        d="M 222.00,1516.00
           C 222.00,1516.00 213.72,1489.00 213.72,1489.00
             213.72,1489.00 190.58,1414.00 190.58,1414.00
             190.58,1414.00 182.14,1387.00 182.14,1387.00
             182.14,1387.00 179.78,1376.04 179.78,1376.04
             179.78,1376.04 185.00,1369.87 185.00,1369.87
             185.00,1369.87 198.00,1358.92 198.00,1358.92
             198.00,1358.92 245.00,1318.58 245.00,1318.58
             245.00,1318.58 377.00,1206.80 377.00,1206.80
             377.00,1206.80 426.00,1170.00 426.00,1170.00
             426.00,1170.00 446.00,1157.00 446.00,1157.00
             446.00,1157.00 454.25,1208.00 454.25,1208.00
             455.14,1213.48 455.94,1223.41 458.40,1228.00
             458.40,1228.00 484.12,1264.00 484.12,1264.00
             484.12,1264.00 524.42,1320.00 524.42,1320.00
             530.34,1328.19 545.83,1347.98 549.00,1356.00
             542.30,1360.80 537.01,1367.31 531.00,1372.91
             531.00,1372.91 502.00,1400.04 502.00,1400.04
             502.00,1400.04 485.00,1416.28 485.00,1416.28
             482.53,1418.44 480.04,1421.19 477.00,1422.44
             470.39,1425.16 463.32,1421.72 462.05,1429.02
             462.05,1429.02 462.05,1434.00 462.05,1434.00
             462.05,1434.00 462.05,1457.00 462.05,1457.00
             462.00,1459.09 462.12,1462.06 461.40,1464.00
             459.71,1468.59 448.09,1478.68 444.00,1482.28
             444.00,1482.28 431.00,1495.00 431.00,1495.00
             424.71,1501.29 423.22,1504.94 414.00,1505.00
             414.00,1505.00 394.00,1505.00 394.00,1505.00
             394.00,1505.00 375.00,1506.00 375.00,1506.00
             361.95,1505.97 366.99,1501.43 355.00,1495.38
             346.51,1491.09 337.26,1490.90 328.00,1491.00
             328.00,1491.00 318.00,1491.91 318.00,1491.91
             318.00,1491.91 295.00,1493.83 295.00,1493.83
             282.09,1495.12 268.39,1496.11 256.00,1500.22
             248.59,1502.68 246.62,1506.40 241.00,1509.79
             235.84,1512.90 227.93,1514.81 222.00,1516.00 Z" />
  <path id="Dipaculao"
        fill="none" stroke="black" stroke-width="1"
        d="M 592.00,1334.00
           C 592.00,1334.00 563.00,1347.31 563.00,1347.31
             560.26,1348.56 553.96,1352.48 551.17,1351.59
             548.45,1350.72 543.43,1342.77 541.43,1340.17
             541.43,1340.17 517.57,1307.01 517.57,1307.01
             517.57,1307.01 480.06,1255.05 480.06,1255.05
             480.06,1255.05 459.76,1226.01 459.76,1226.01
             458.23,1222.56 457.49,1214.14 456.87,1210.00
             456.87,1210.00 452.88,1184.96 452.88,1184.96
             452.88,1184.96 448.94,1156.04 448.94,1156.04
             449.61,1151.95 459.47,1144.81 462.83,1141.80
             462.83,1141.80 504.39,1105.39 504.39,1105.39
             504.39,1105.39 512.04,1097.18 512.04,1097.18
             512.04,1097.18 518.72,1091.68 518.72,1091.68
             518.72,1091.68 527.00,1083.44 527.00,1083.44
             527.00,1083.44 536.00,1076.63 536.00,1076.63
             536.00,1076.63 544.00,1069.49 544.00,1069.49
             544.00,1069.49 554.91,1061.61 554.91,1061.61
             554.91,1061.61 648.84,979.79 648.84,979.79
             648.84,979.79 687.84,945.79 687.84,945.79
             693.20,941.13 700.24,933.67 707.00,932.00
             707.00,932.00 722.58,958.00 722.58,958.00
             722.58,958.00 750.90,1006.00 750.90,1006.00
             750.90,1006.00 756.00,1015.00 756.00,1015.00
             733.10,1021.75 747.55,1044.39 742.00,1060.00
             736.73,1059.94 733.90,1061.73 733.00,1067.00
             729.69,1067.74 726.43,1068.96 723.00,1069.01
             715.69,1068.44 705.00,1065.07 698.02,1069.01
             689.07,1074.56 695.33,1083.88 692.01,1089.57
             687.60,1097.12 676.80,1098.00 670.94,1103.15
             666.74,1106.85 669.33,1109.85 664.75,1114.09
             657.85,1120.47 640.89,1118.48 631.17,1127.21
             619.50,1137.69 620.18,1143.34 613.07,1153.72
             604.18,1166.71 599.36,1164.50 592.03,1181.00
             585.98,1194.62 584.03,1209.59 582.67,1224.28
             582.67,1224.28 581.32,1246.00 581.32,1246.00
             581.32,1246.00 581.86,1254.00 581.86,1254.00
             581.86,1254.00 581.86,1266.00 581.86,1266.00
             581.86,1266.00 581.86,1286.00 581.86,1286.00
             581.86,1286.00 583.00,1307.00 583.00,1307.00
             583.01,1311.63 582.39,1322.16 584.09,1325.99
             585.84,1329.94 588.73,1331.54 592.00,1334.00 Z" />
  <path id="Dinalungan"
        fill="none" stroke="black" stroke-width="1"
        d="M 1083.00,589.00
           C 1083.00,589.00 1109.02,609.30 1109.02,609.30
             1109.02,609.30 1121.98,623.61 1121.98,623.61
             1126.20,627.06 1127.66,625.93 1131.58,628.71
             1141.22,635.54 1157.42,652.09 1164.34,661.80
             1164.34,661.80 1180.93,697.83 1180.93,697.83
             1180.93,697.83 1196.40,719.42 1196.40,719.42
             1203.40,730.30 1208.83,742.87 1213.34,755.00
             1213.34,755.00 1220.22,786.00 1220.22,786.00
             1221.65,790.37 1224.80,793.98 1227.00,798.00
             1216.70,803.60 1213.09,799.31 1207.05,801.74
             1203.60,803.13 1203.15,805.72 1199.87,807.11
             1199.87,807.11 1187.00,809.66 1187.00,809.66
             1182.39,811.41 1180.27,814.46 1175.00,816.21
             1170.94,817.56 1167.18,817.75 1163.00,818.08
             1149.98,819.13 1150.23,819.38 1137.00,817.00
             1136.61,814.69 1136.34,812.29 1134.49,810.60
             1132.35,808.64 1128.71,808.82 1126.00,808.88
             1120.59,809.01 1112.94,809.73 1108.01,811.97
             1104.18,813.70 1103.14,815.87 1099.91,816.69
             1096.60,817.53 1091.60,816.21 1088.00,818.02
             1084.32,819.88 1082.97,823.35 1078.91,824.97
             1075.28,826.43 1069.57,825.89 1066.68,827.80
             1061.45,831.25 1057.90,837.79 1047.17,844.83
             1044.02,846.90 1043.80,847.66 1040.00,849.00
             1041.09,852.52 1039.39,853.44 1036.98,856.00
             1036.98,856.00 1021.82,874.07 1021.82,874.07
             1015.42,878.20 1005.05,874.66 998.00,875.09
             990.23,875.57 988.85,878.12 983.00,882.10
             983.00,882.10 976.00,886.61 976.00,886.61
             976.00,886.61 967.00,894.54 967.00,894.54
             967.00,894.54 953.00,904.72 953.00,904.72
             948.17,908.06 938.20,915.00 932.21,911.11
             929.45,909.32 928.34,905.65 926.21,903.23
             923.12,899.70 920.91,900.63 918.37,898.99
             915.99,897.45 911.20,889.32 904.22,893.32
             901.11,895.10 901.41,898.10 898.70,899.83
             895.85,901.65 892.38,900.26 888.00,902.45
             882.15,905.38 880.55,909.62 876.63,913.68
             876.63,913.68 870.42,919.18 870.42,919.18
             867.62,922.46 867.67,925.45 865.30,929.00
             865.30,929.00 846.96,949.90 846.96,949.90
             841.80,954.77 837.53,955.23 833.18,959.33
             829.49,962.81 828.51,966.53 826.37,968.01
             823.59,969.93 819.86,967.91 816.37,970.60
             816.37,970.60 807.41,980.08 807.41,980.08
             807.41,980.08 803.51,985.30 803.51,985.30
             801.27,987.34 798.33,987.59 795.32,990.39
             792.54,992.98 791.00,996.97 787.82,998.83
             785.21,1000.35 782.13,999.86 779.10,1001.85
             775.77,1004.05 775.13,1007.23 772.61,1008.83
             768.73,1011.28 766.07,1008.09 758.00,1013.00
             758.00,1013.00 740.80,984.00 740.80,984.00
             740.80,984.00 720.57,951.04 720.57,951.04
             720.57,951.04 707.00,929.00 707.00,929.00
             707.00,929.00 777.28,867.74 777.28,867.74
             777.28,867.74 800.00,848.19 800.00,848.19
             800.00,848.19 810.96,839.71 810.96,839.71
             810.96,839.71 821.00,829.28 821.00,829.28
             821.00,829.28 833.70,819.51 833.70,819.51
             833.70,819.51 839.29,813.75 839.29,813.75
             839.29,813.75 872.95,784.67 872.95,784.67
             872.95,784.67 924.28,739.74 924.28,739.74
             924.28,739.74 1001.28,672.74 1001.28,672.74
             1001.28,672.74 1037.72,641.00 1037.72,641.00
             1037.72,641.00 1083.00,589.00 1083.00,589.00 Z
           M 1009.00,850.00
           C 1009.00,850.00 1008.00,850.00 1008.00,850.00
             1008.00,850.00 1009.00,851.00 1009.00,851.00
             1009.00,851.00 1009.00,850.00 1009.00,850.00 Z" />
  <path id="Casiguran"
        fill="none" stroke="black" stroke-width="1"
        d="M 1085.00,587.00
           C 1085.00,587.00 1200.58,443.00 1200.58,443.00
             1200.58,443.00 1230.63,404.00 1230.63,404.00
             1232.93,400.94 1239.99,390.71 1243.17,389.69
             1245.46,388.95 1248.79,390.28 1251.00,391.00
             1251.00,391.00 1268.00,396.67 1268.00,396.67
             1268.00,396.67 1331.00,416.58 1331.00,416.58
             1331.00,416.58 1499.00,465.42 1499.00,465.42
             1499.00,465.42 1578.00,488.00 1578.00,488.00
             1578.00,488.00 1572.77,498.00 1572.77,498.00
             1572.77,498.00 1572.77,524.00 1572.77,524.00
             1554.87,525.07 1557.53,552.09 1576.00,552.52
             1579.74,552.61 1585.99,550.18 1588.70,547.62
             1590.95,545.51 1590.94,543.55 1594.13,542.39
             1599.65,540.38 1608.44,541.99 1612.69,538.92
             1614.86,537.35 1614.79,535.56 1616.55,534.13
             1618.17,532.82 1620.40,532.71 1622.49,530.58
             1624.50,528.53 1624.59,526.00 1627.25,524.87
             1630.32,523.29 1635.82,524.23 1639.00,524.87
             1638.82,528.45 1639.30,535.24 1638.26,538.00
             1637.01,541.34 1634.43,543.11 1632.87,547.00
             1632.87,547.00 1630.60,554.59 1630.60,554.59
             1628.95,557.28 1626.01,557.20 1624.17,560.22
             1622.92,562.29 1623.19,564.76 1621.98,566.79
             1620.50,569.28 1617.88,570.13 1615.70,573.10
             1615.70,573.10 1612.16,579.73 1612.16,579.73
             1608.77,584.05 1602.57,582.51 1599.17,589.02
             1597.82,591.61 1598.10,594.91 1597.21,598.00
             1595.54,603.88 1592.62,606.62 1592.21,614.00
             1591.98,618.09 1593.50,621.97 1593.83,626.00
             1594.19,630.45 1591.15,636.00 1588.17,639.20
             1588.17,639.20 1584.26,642.41 1584.26,642.41
             1581.87,644.81 1581.74,646.68 1580.17,648.46
             1581.48,646.97 1568.92,658.44 1570.79,657.15
             1567.71,659.28 1563.68,658.82 1559.00,660.56
             1554.35,662.28 1548.69,666.81 1545.17,670.29
             1539.10,676.28 1540.05,679.25 1536.64,684.99
             1534.28,688.95 1532.53,689.53 1530.58,692.16
             1530.58,692.16 1527.42,697.30 1527.42,697.30
             1525.09,699.60 1520.63,699.86 1517.21,702.64
             1514.53,704.83 1513.87,707.47 1511.61,708.39
             1508.80,709.53 1504.63,707.02 1501.22,709.03
             1498.90,710.39 1498.49,712.74 1497.09,714.63
             1497.09,714.63 1487.70,725.00 1487.70,725.00
             1481.33,732.41 1477.62,734.04 1475.41,736.37
             1472.84,739.09 1472.86,741.33 1467.98,745.90
             1462.73,750.81 1459.12,750.54 1456.97,754.13
             1455.38,756.79 1455.95,760.97 1455.99,764.00
             1456.13,775.82 1454.54,772.17 1449.29,777.39
             1449.29,777.39 1445.46,782.40 1445.46,782.40
             1442.22,785.23 1436.86,783.13 1433.04,784.60
             1430.12,785.72 1428.93,788.16 1426.63,790.05
             1423.72,792.45 1422.21,792.56 1418.42,796.30
             1418.42,796.30 1406.00,809.83 1406.00,809.83
             1401.80,813.67 1395.09,818.54 1391.99,823.01
             1388.95,827.40 1389.55,829.48 1387.88,833.00
             1386.47,835.97 1383.97,838.48 1383.13,841.72
             1381.02,849.84 1394.36,865.93 1385.81,875.58
             1384.08,877.53 1379.61,882.64 1377.82,883.97
             1374.53,886.41 1365.91,891.56 1363.63,894.21
             1363.63,894.21 1355.60,906.00 1355.60,906.00
             1354.57,908.82 1355.47,912.06 1353.83,914.73
             1352.33,917.17 1349.78,917.56 1347.55,920.22
             1347.55,920.22 1344.28,925.11 1344.28,925.11
             1343.01,926.30 1341.20,926.64 1339.58,928.42
             1339.58,928.42 1336.42,933.17 1336.42,933.17
             1336.42,933.17 1331.41,936.50 1331.41,936.50
             1331.41,936.50 1327.51,941.26 1327.51,941.26
             1324.06,944.11 1316.64,942.40 1312.00,943.53
             1306.15,944.96 1305.40,948.04 1302.63,950.28
             1302.63,950.28 1299.22,952.37 1299.22,952.37
             1295.73,954.88 1297.37,956.73 1295.33,959.83
             1294.16,961.60 1290.80,964.25 1289.10,966.04
             1289.10,966.04 1282.79,973.44 1282.79,973.44
             1279.55,975.99 1269.07,977.89 1265.23,976.13
             1260.20,973.83 1262.22,965.91 1263.88,962.00
             1263.88,962.00 1268.88,952.00 1268.88,952.00
             1269.96,949.22 1270.51,945.41 1271.93,943.04
             1275.63,936.84 1279.24,939.38 1281.00,927.00
             1283.53,926.34 1285.53,925.92 1287.27,923.73
             1288.92,921.64 1289.45,917.63 1290.15,915.00
             1290.15,915.00 1292.99,905.00 1292.99,905.00
             1292.99,905.00 1294.80,896.00 1294.80,896.00
             1297.05,889.17 1301.77,888.99 1304.91,883.91
             1307.54,879.66 1307.53,873.03 1309.99,868.00
             1313.48,860.88 1322.31,851.63 1328.00,846.00
             1328.00,846.00 1350.00,826.83 1350.00,826.83
             1350.00,826.83 1391.00,787.00 1391.00,787.00
             1397.64,780.32 1414.84,761.27 1417.87,753.00
             1421.65,742.67 1419.45,728.68 1419.04,718.00
             1418.84,712.89 1419.96,696.06 1423.65,692.74
             1426.26,690.39 1433.45,690.33 1437.00,689.48
             1442.88,688.06 1448.29,684.23 1453.00,680.58
             1459.60,675.46 1468.29,668.53 1473.32,662.00
             1479.48,654.01 1480.68,647.86 1484.06,639.00
             1484.06,639.00 1487.37,631.00 1487.37,631.00
             1487.37,631.00 1488.31,621.11 1488.31,621.11
             1489.53,616.74 1493.28,617.58 1495.99,613.78
             1498.56,610.19 1499.00,602.60 1494.77,600.02
             1492.71,598.76 1488.43,598.96 1486.00,599.01
             1486.00,599.01 1463.00,601.00 1463.00,601.00
             1463.00,601.00 1441.00,599.00 1441.00,599.00
             1441.00,599.00 1428.00,599.00 1428.00,599.00
             1425.50,599.03 1423.46,599.08 1421.00,599.68
             1407.71,602.93 1414.36,618.14 1409.99,623.40
             1407.65,626.23 1403.31,623.71 1399.21,626.58
             1399.21,626.58 1394.63,631.05 1394.63,631.05
             1387.45,637.05 1391.01,633.77 1385.55,640.72
             1379.20,648.78 1379.02,649.54 1379.00,660.00
             1378.99,665.85 1378.56,680.03 1380.58,684.96
             1382.00,688.41 1384.46,689.13 1386.02,691.51
             1387.28,693.43 1387.13,695.74 1388.74,697.69
             1391.00,700.45 1394.21,699.84 1395.98,702.43
             1398.02,705.43 1396.93,711.27 1394.69,713.66
             1387.32,722.41 1381.41,713.45 1376.00,713.66
             1373.11,713.44 1370.68,715.45 1368.00,716.31
             1364.84,717.31 1362.09,716.75 1360.11,717.31
             1353.99,719.04 1357.44,725.64 1356.84,729.96
             1355.82,737.30 1345.15,735.14 1340.00,735.01
             1340.00,735.01 1316.00,733.10 1316.00,733.10
             1304.46,733.62 1304.76,736.98 1297.00,740.01
             1293.09,741.54 1289.82,740.97 1285.00,743.55
             1275.23,748.78 1255.16,765.49 1248.38,774.00
             1248.38,774.00 1243.25,781.74 1243.25,781.74
             1243.25,781.74 1238.07,787.13 1238.07,787.13
             1234.25,792.84 1236.77,793.37 1229.00,797.00
             1226.97,793.78 1224.24,790.49 1222.84,787.00
             1222.84,787.00 1217.76,762.00 1217.76,762.00
             1217.76,762.00 1210.94,743.00 1210.94,743.00
             1201.37,718.45 1191.63,712.46 1183.23,698.00
             1183.23,698.00 1166.56,662.00 1166.56,662.00
             1159.38,651.75 1144.90,636.66 1135.00,629.02
             1135.00,629.02 1122.32,621.36 1122.32,621.36
             1122.32,621.36 1106.00,604.30 1106.00,604.30
             1099.12,598.41 1090.51,594.33 1085.00,587.00 Z
           M 1200.00,573.00
           C 1200.00,573.00 1199.00,573.00 1199.00,573.00
             1199.00,573.00 1200.00,574.00 1200.00,574.00
             1200.00,574.00 1200.00,573.00 1200.00,573.00 Z" />
  <path id="Dilasag"
        fill="none" stroke="black" stroke-width="1"
        d="M 1245.00,387.00
           C 1247.50,380.56 1253.86,373.69 1258.13,368.00
             1258.13,368.00 1284.79,333.00 1284.79,333.00
             1284.79,333.00 1312.88,296.00 1312.88,296.00
             1312.88,296.00 1361.13,233.00 1361.13,233.00
             1361.13,233.00 1386.35,200.00 1386.35,200.00
             1395.21,188.50 1393.97,187.81 1403.00,188.01
             1403.00,188.01 1412.00,188.91 1412.00,188.91
             1412.00,188.91 1438.00,190.00 1438.00,190.00
             1438.00,190.00 1451.00,191.04 1451.00,191.04
             1451.00,191.04 1466.00,191.04 1466.00,191.04
             1466.00,191.04 1478.00,192.00 1478.00,192.00
             1478.00,192.00 1508.00,192.00 1508.00,192.00
             1508.00,192.00 1525.00,193.00 1525.00,193.00
             1525.00,193.00 1584.00,193.00 1584.00,193.00
             1584.00,193.00 1601.00,194.00 1601.00,194.00
             1601.00,194.00 1632.00,194.00 1632.00,194.00
             1632.00,194.00 1644.00,194.96 1644.00,194.96
             1644.00,194.96 1660.00,194.96 1660.00,194.96
             1670.78,194.98 1671.62,193.32 1681.00,192.00
             1681.00,192.00 1681.00,196.00 1681.00,196.00
             1681.00,196.00 1670.02,197.74 1670.02,197.74
             1667.85,198.60 1658.67,207.90 1657.65,210.04
             1655.88,213.77 1656.45,218.23 1654.98,220.63
             1653.62,222.84 1650.93,223.79 1649.17,227.04
             1647.56,230.03 1648.06,233.71 1646.07,236.79
             1644.08,239.88 1641.36,240.06 1639.92,245.02
             1638.77,249.19 1640.12,251.93 1639.92,256.00
             1639.70,259.49 1638.15,263.69 1636.95,267.00
             1636.95,267.00 1630.69,285.79 1630.69,285.79
             1627.58,291.18 1623.74,288.86 1623.00,298.00
             1614.31,300.28 1617.13,303.10 1612.73,305.83
             1610.25,307.36 1606.56,306.79 1603.04,308.57
             1599.31,310.46 1598.91,312.79 1597.20,314.42
             1595.29,316.25 1593.19,316.17 1591.43,317.73
             1588.76,320.09 1589.02,323.76 1589.00,327.00
             1588.97,332.82 1588.40,346.08 1590.26,350.98
             1592.12,355.89 1594.85,355.73 1597.77,359.25
             1602.04,364.38 1609.96,375.87 1615.01,379.30
             1623.63,385.15 1631.84,382.14 1632.00,371.00
             1632.00,371.00 1632.00,357.00 1632.00,357.00
             1644.06,356.01 1636.98,346.50 1641.74,341.74
             1644.20,339.27 1652.51,340.00 1656.00,340.00
             1656.00,340.00 1656.00,356.00 1656.00,356.00
             1643.13,357.50 1648.63,367.61 1646.69,374.91
             1645.75,378.43 1643.08,379.34 1641.56,383.01
             1639.70,387.50 1640.01,396.04 1640.00,401.00
             1639.99,404.33 1639.43,414.05 1638.26,416.83
             1636.63,420.72 1633.05,421.32 1632.17,429.00
             1631.71,433.06 1632.64,444.36 1629.41,446.99
             1627.63,448.44 1618.02,449.53 1615.00,450.53
             1610.38,452.06 1607.36,455.65 1604.00,459.00
             1598.21,464.78 1592.52,470.67 1587.32,477.00
             1585.38,479.36 1582.59,484.38 1579.82,485.31
             1577.49,486.10 1573.34,484.67 1571.00,484.00
             1571.00,484.00 1554.00,479.02 1554.00,479.02
             1554.00,479.02 1492.00,461.14 1492.00,461.14
             1492.00,461.14 1324.00,412.28 1324.00,412.28
             1324.00,412.28 1282.00,399.00 1282.00,399.00
             1282.00,399.00 1245.00,387.00 1245.00,387.00 Z
           M 1489.00,304.00
           C 1489.00,304.00 1488.00,304.00 1488.00,304.00
             1488.00,304.00 1489.00,305.00 1489.00,305.00
             1489.00,305.00 1489.00,304.00 1489.00,304.00 Z
           M 1510.00,305.00
           C 1510.00,305.00 1509.00,305.00 1509.00,305.00
             1509.00,305.00 1510.00,306.00 1510.00,306.00
             1510.00,306.00 1510.00,305.00 1510.00,305.00 Z" />
</svg>
