<?xml version="1.0" encoding="UTF-8" standalone="no"?>
<!DOCTYPE svg PUBLIC "-//W3C//DTD SVG 20010904//EN"
              "http://www.w3.org/TR/2001/REC-SVG-20010904/DTD/svg10.dtd">

<svg xmlns="http://www.w3.org/2000/svg"
     width="1381.83mm" height="1021.52mm"
     viewBox="0 0 3210 2373">
  <path id="Akbar"
        fill="none" stroke="black" stroke-width="1"
        d="M 2341.00,862.00
           C 2336.42,862.02 2335.98,861.10 2332.00,859.34
             2324.72,856.14 2321.35,854.29 2322.23,845.00
             2322.75,839.44 2326.96,835.93 2330.57,839.36
             2333.67,842.29 2332.22,846.32 2335.66,852.00
             2338.37,856.49 2339.37,856.49 2341.00,862.00 Z
           M 2119.97,990.00
           C 2122.38,990.32 2125.74,990.73 2127.91,991.70
             2130.71,992.94 2143.53,1004.63 2152.00,1004.77
             2156.08,1004.84 2162.22,1001.08 2166.00,999.26
             2172.49,996.13 2173.94,996.01 2181.00,996.00
             2181.00,996.00 2203.00,997.00 2203.00,997.00
             2203.00,997.00 2223.00,997.00 2223.00,997.00
             2242.79,997.03 2238.18,1007.97 2256.00,1008.00
             2259.59,1008.01 2262.61,1007.66 2266.00,1009.00
             2262.43,1009.96 2249.20,1013.42 2249.20,1017.94
             2249.20,1020.06 2253.31,1023.31 2254.83,1024.69
             2254.83,1024.69 2274.00,1041.13 2274.00,1041.13
             2274.00,1041.13 2322.00,1082.58 2322.00,1082.58
             2328.48,1088.14 2343.38,1100.07 2348.00,1106.00
             2348.00,1106.00 2334.83,1117.50 2334.83,1117.50
             2334.83,1117.50 2319.00,1131.00 2319.00,1131.00
             2310.22,1124.72 2309.92,1121.61 2303.79,1115.17
             2303.79,1115.17 2297.00,1108.96 2297.00,1108.96
             2297.00,1108.96 2284.00,1096.17 2284.00,1096.17
             2264.55,1078.57 2242.94,1065.70 2220.00,1053.23
             2220.00,1053.23 2194.00,1039.39 2194.00,1039.39
             2189.14,1037.67 2184.57,1040.35 2180.00,1042.05
             2180.00,1042.05 2149.00,1053.68 2149.00,1053.68
             2145.19,1055.09 2136.93,1059.52 2133.30,1057.09
             2130.91,1055.50 2126.88,1045.99 2125.58,1043.00
             2123.89,1039.14 2117.41,1026.17 2117.13,1022.91
             2116.76,1018.65 2119.17,1013.68 2119.97,1009.17
             2120.93,1003.26 2120.65,995.97 2119.97,990.00 Z" />
  <path id="Hadji Mohammad Ajul"
        fill="none" stroke="black" stroke-width="1"
        d="M 2590.00,757.98
           C 2597.82,755.50 2609.65,758.42 2604.57,768.00
             2600.97,774.79 2589.08,784.40 2582.00,787.68
             2565.20,795.46 2557.54,777.94 2563.59,769.04
             2568.79,761.42 2575.57,763.85 2581.00,762.61
             2584.34,761.84 2587.07,759.64 2590.00,757.98 Z
           M 2653.22,789.02
           C 2655.29,788.29 2655.65,787.97 2658.00,788.23
             2661.22,788.58 2671.37,792.92 2672.19,796.21
             2673.25,800.43 2667.32,804.99 2664.00,806.44
             2655.43,810.18 2644.26,797.04 2653.22,789.02 Z
           M 2634.00,814.56
           C 2637.35,814.43 2640.85,814.73 2644.00,816.00
             2648.20,817.70 2658.99,826.07 2660.98,830.00
             2664.53,837.03 2659.70,852.28 2650.00,853.76
             2645.49,854.45 2641.53,852.03 2638.00,849.56
             2628.28,842.77 2624.72,839.14 2625.01,827.00
             2625.19,819.87 2626.71,816.14 2634.00,814.56 Z
           M 2250.00,1017.00
           C 2257.18,1013.02 2277.21,1004.06 2285.00,1005.21
             2290.01,1005.95 2295.96,1010.18 2300.00,1013.16
             2307.37,1018.58 2318.85,1030.64 2325.75,1037.59
             2330.16,1042.02 2336.08,1048.05 2342.00,1050.39
             2352.23,1054.42 2362.75,1045.03 2371.00,1043.47
             2371.00,1043.47 2382.00,1042.83 2382.00,1042.83
             2399.82,1041.13 2414.12,1040.78 2431.00,1047.55
             2433.41,1048.52 2435.64,1049.17 2437.91,1050.52
             2437.91,1050.52 2445.18,1055.91 2445.18,1055.91
             2460.02,1064.92 2483.84,1077.72 2482.96,1098.00
             2482.63,1105.58 2477.06,1114.55 2473.20,1121.00
             2464.20,1136.04 2448.73,1164.35 2432.00,1170.19
             2426.06,1172.26 2417.88,1169.37 2412.00,1167.71
             2406.24,1166.08 2397.99,1165.03 2392.00,1165.00
             2380.66,1164.95 2358.12,1164.19 2348.00,1166.00
             2348.00,1166.00 2329.26,1143.91 2329.26,1143.91
             2327.27,1141.47 2323.21,1136.98 2322.57,1134.00
             2321.57,1129.38 2326.01,1127.17 2329.00,1124.68
             2334.51,1120.10 2345.00,1109.46 2351.00,1107.00
             2351.00,1107.00 2342.72,1098.08 2342.72,1098.08
             2342.72,1098.08 2323.28,1081.42 2323.28,1081.42
             2323.28,1081.42 2274.95,1039.50 2274.95,1039.50
             2274.95,1039.50 2250.00,1017.00 2250.00,1017.00 Z" />
  <path id="Tuburan"
        fill="none" stroke="black" stroke-width="1"
        d="M 2135.00,1061.00
           C 2135.00,1061.00 2174.00,1046.57 2174.00,1046.57
             2177.87,1045.16 2187.41,1040.97 2191.00,1041.26
             2196.45,1041.71 2216.89,1053.82 2222.91,1057.12
             2255.45,1074.92 2274.21,1086.86 2299.28,1114.99
             2304.60,1120.95 2317.00,1132.00 2317.00,1132.00
             2317.00,1132.00 2346.00,1165.00 2346.00,1165.00
             2346.00,1165.00 2346.00,1167.00 2346.00,1167.00
             2341.79,1168.93 2336.69,1172.14 2332.10,1169.56
             2328.79,1167.69 2327.85,1164.33 2323.42,1162.29
             2319.79,1160.61 2311.08,1159.82 2307.00,1159.68
             2281.90,1158.82 2260.26,1169.31 2243.87,1187.99
             2240.03,1192.36 2233.63,1200.48 2231.93,1206.01
             2230.44,1210.84 2231.11,1212.47 2230.89,1217.00
             2230.34,1228.22 2229.57,1239.55 2225.00,1250.00
             2225.00,1250.00 2216.24,1233.00 2216.24,1233.00
             2216.24,1233.00 2206.74,1213.00 2206.74,1213.00
             2206.74,1213.00 2201.49,1203.00 2201.49,1203.00
             2201.49,1203.00 2196.74,1192.00 2196.74,1192.00
             2196.74,1192.00 2180.37,1159.00 2180.37,1159.00
             2180.37,1159.00 2176.03,1149.00 2176.03,1149.00
             2176.03,1149.00 2162.62,1122.00 2162.62,1122.00
             2162.62,1122.00 2155.22,1105.00 2155.22,1105.00
             2155.22,1105.00 2135.00,1061.00 2135.00,1061.00 Z" />
  <path id="Lamitan"
        fill="none" stroke="black" stroke-width="1"
        d="M 1911.00,1198.00
           C 1911.00,1198.00 1895.42,1145.00 1895.42,1145.00
             1895.42,1145.00 1857.28,1017.00 1857.28,1017.00
             1857.28,1017.00 1842.28,967.00 1842.28,967.00
             1842.28,967.00 1835.19,942.00 1835.19,942.00
             1835.19,942.00 1837.00,912.00 1837.00,912.00
             1837.00,912.00 1838.00,889.00 1838.00,889.00
             1838.00,889.00 1839.63,869.00 1839.63,869.00
             1839.63,869.00 1849.86,845.00 1849.86,845.00
             1851.65,840.94 1855.30,831.42 1858.27,828.79
             1866.16,821.79 1878.14,820.22 1888.00,818.57
             1897.39,816.99 1896.41,815.88 1907.00,816.00
             1910.47,816.04 1912.62,816.20 1916.00,817.17
             1932.80,821.98 1933.23,836.04 1939.98,849.00
             1945.20,859.01 1954.61,865.52 1961.68,874.00
             1966.61,879.92 1969.18,886.55 1977.00,889.71
             1980.20,891.01 1982.63,891.00 1986.00,891.00
             2003.01,891.00 2011.43,879.39 2024.00,876.53
             2033.48,874.37 2049.89,882.76 2058.00,887.60
             2061.99,889.99 2065.24,891.81 2067.59,896.01
             2071.65,903.30 2071.09,914.81 2071.00,923.00
             2071.00,923.00 2068.09,958.00 2068.09,958.00
             2067.71,963.66 2066.32,967.11 2068.09,973.00
             2071.33,982.57 2078.57,976.74 2085.00,976.36
             2087.79,976.19 2091.14,977.38 2089.85,980.85
             2089.00,983.13 2084.16,986.56 2083.87,989.89
             2083.38,995.69 2093.08,993.37 2096.00,992.58
             2101.80,990.99 2115.07,984.74 2117.78,993.09
             2118.10,994.86 2118.02,999.02 2117.78,1001.00
             2117.92,1008.16 2114.34,1019.46 2115.38,1025.00
             2116.38,1030.30 2122.66,1041.54 2125.22,1047.00
             2125.22,1047.00 2130.52,1060.00 2130.52,1060.00
             2130.52,1060.00 2135.18,1068.00 2135.18,1068.00
             2135.18,1068.00 2146.22,1091.00 2146.22,1091.00
             2146.22,1091.00 2161.23,1124.00 2161.23,1124.00
             2161.23,1124.00 2167.69,1136.00 2167.69,1136.00
             2167.69,1136.00 2174.42,1152.00 2174.42,1152.00
             2174.42,1152.00 2178.49,1159.00 2178.49,1159.00
             2178.49,1159.00 2201.31,1207.00 2201.31,1207.00
             2201.31,1207.00 2216.53,1240.00 2216.53,1240.00
             2216.53,1240.00 2223.00,1254.00 2223.00,1254.00
             2215.03,1252.49 2206.18,1245.14 2199.00,1240.92
             2199.00,1240.92 2188.00,1235.74 2188.00,1235.74
             2188.00,1235.74 2169.00,1225.86 2169.00,1225.86
             2169.00,1225.86 2151.00,1216.69 2151.00,1216.69
             2151.00,1216.69 2071.00,1175.00 2071.00,1175.00
             2071.00,1175.00 2064.15,1193.00 2064.15,1193.00
             2064.15,1193.00 2059.73,1199.13 2059.73,1199.13
             2059.73,1199.13 2044.00,1199.13 2044.00,1199.13
             2044.00,1199.13 1985.00,1199.13 1985.00,1199.13
             1985.00,1199.13 1970.00,1198.00 1970.00,1198.00
             1970.00,1198.00 1911.00,1198.00 1911.00,1198.00 Z" />
  <path id="Al-Barka"
        fill="none" stroke="black" stroke-width="1"
        d="M 2145.00,1301.52
           C 2157.81,1299.49 2168.81,1307.55 2179.00,1314.33
             2181.39,1315.93 2187.74,1319.57 2188.59,1322.18
             2189.49,1324.93 2186.82,1327.98 2186.42,1332.00
             2186.01,1335.98 2187.99,1340.54 2189.79,1344.00
             2193.92,1351.95 2206.82,1365.51 2205.77,1374.00
             2205.38,1377.22 2203.29,1380.78 2202.21,1384.00
             2202.21,1384.00 2196.66,1404.00 2196.66,1404.00
             2196.66,1404.00 2196.00,1435.00 2196.00,1435.00
             2195.98,1448.81 2189.72,1454.03 2178.00,1460.22
             2163.83,1467.70 2161.33,1468.21 2146.00,1471.58
             2146.00,1471.58 2135.00,1474.04 2135.00,1474.04
             2125.02,1477.13 2124.99,1481.80 2116.00,1483.38
             2108.60,1484.68 2106.44,1479.28 2102.35,1474.00
             2100.45,1471.55 2093.28,1462.97 2092.68,1460.72
             2091.76,1458.38 2092.60,1455.42 2092.68,1453.00
             2092.68,1453.00 2094.17,1437.00 2094.17,1437.00
             2097.04,1408.29 2101.44,1359.32 2113.01,1334.00
             2118.71,1321.54 2131.38,1305.27 2145.00,1301.52 Z
           M 2202.00,1457.00
           C 2205.55,1456.29 2211.13,1455.34 2213.69,1452.70
             2217.16,1449.11 2215.91,1439.87 2216.00,1435.00
             2216.05,1432.55 2216.03,1427.56 2220.02,1429.17
             2223.82,1430.70 2227.82,1440.26 2230.61,1444.00
             2237.66,1453.48 2244.47,1456.46 2251.96,1463.30
             2254.18,1465.33 2258.44,1470.17 2255.96,1473.39
             2253.67,1476.35 2243.99,1472.79 2241.00,1471.90
             2241.00,1471.90 2228.00,1469.58 2228.00,1469.58
             2219.67,1468.06 2207.52,1463.50 2202.00,1457.00 Z" />
  <path id="Tipo-Tipo"
        fill="none" stroke="black" stroke-width="1"
        d="M 2076.00,1180.00
           C 2076.00,1180.00 2110.00,1197.74 2110.00,1197.74
             2110.00,1197.74 2185.00,1236.75 2185.00,1236.75
             2185.00,1236.75 2212.09,1251.80 2212.09,1251.80
             2215.07,1253.71 2219.56,1255.46 2220.56,1259.10
             2221.71,1263.34 2217.83,1270.75 2216.31,1275.00
             2207.27,1300.32 2205.35,1297.67 2192.00,1319.00
             2181.60,1315.69 2165.42,1299.67 2151.00,1299.04
             2137.62,1298.46 2131.74,1305.60 2123.83,1314.99
             2119.76,1319.83 2118.73,1320.24 2115.58,1326.09
             2115.58,1326.09 2107.96,1340.01 2107.96,1340.01
             2100.20,1359.74 2096.39,1399.80 2093.42,1422.00
             2093.42,1422.00 2090.58,1452.00 2090.58,1452.00
             2090.25,1454.48 2090.29,1460.35 2088.43,1461.83
             2086.33,1463.48 2075.05,1463.99 2072.00,1464.00
             2071.08,1453.02 2060.12,1409.78 2056.75,1397.00
             2056.75,1397.00 2052.75,1373.96 2052.75,1373.96
             2052.75,1373.96 2045.22,1339.01 2045.22,1339.01
             2045.22,1339.01 2038.39,1311.00 2038.39,1311.00
             2037.93,1308.26 2036.38,1302.99 2038.39,1300.56
             2040.11,1297.95 2045.17,1298.70 2048.00,1298.56
             2048.00,1298.56 2057.00,1298.00 2057.00,1298.00
             2057.00,1298.00 2082.00,1296.00 2082.00,1296.00
             2082.00,1296.00 2081.00,1283.00 2081.00,1283.00
             2081.00,1283.00 2080.00,1263.00 2080.00,1263.00
             2080.00,1263.00 2079.00,1250.00 2079.00,1250.00
             2079.00,1250.00 2078.00,1227.00 2078.00,1227.00
             2078.00,1227.00 2077.00,1212.00 2077.00,1212.00
             2077.00,1212.00 2076.00,1180.00 2076.00,1180.00 Z" />
  <path id="Ungkaya Pukan"
        fill="none" stroke="black" stroke-width="1"
        d="M 2072.00,1179.00
           C 2074.19,1182.44 2073.91,1187.93 2074.00,1192.00
             2074.00,1192.00 2075.01,1212.00 2075.01,1212.00
             2075.01,1212.00 2078.99,1286.00 2078.99,1286.00
             2079.03,1288.27 2079.35,1292.44 2077.40,1293.98
             2075.78,1295.26 2071.15,1295.01 2069.00,1295.13
             2069.00,1295.13 2048.00,1296.52 2048.00,1296.52
             2043.61,1296.82 2035.80,1295.91 2035.51,1301.95
             2035.36,1305.13 2038.15,1313.49 2039.06,1316.91
             2039.06,1316.91 2043.57,1339.00 2043.57,1339.00
             2043.57,1339.00 2045.44,1351.00 2045.44,1351.00
             2045.44,1351.00 2054.37,1390.72 2054.37,1390.72
             2054.37,1390.72 2055.72,1398.96 2055.72,1398.96
             2055.72,1398.96 2058.36,1408.01 2058.36,1408.01
             2058.36,1408.01 2061.66,1425.00 2061.66,1425.00
             2061.66,1425.00 2066.89,1449.00 2066.89,1449.00
             2068.12,1454.03 2070.29,1460.95 2070.00,1466.00
             2070.00,1466.00 2071.00,1467.00 2071.00,1467.00
             2074.20,1466.23 2088.30,1464.05 2090.91,1464.82
             2094.99,1466.03 2104.76,1479.93 2107.00,1484.00
             2102.60,1484.79 2096.88,1484.91 2093.00,1486.48
             2087.39,1488.74 2085.03,1492.34 2079.00,1493.82
             2071.48,1496.22 2061.35,1492.18 2056.00,1493.82
             2050.76,1494.96 2048.77,1499.44 2043.00,1502.03
             2043.00,1502.03 2011.00,1510.37 2011.00,1510.37
             2011.00,1510.37 1985.00,1517.13 1985.00,1517.13
             1982.72,1517.70 1976.20,1519.81 1974.27,1519.22
             1971.91,1518.49 1970.36,1514.26 1969.15,1512.17
             1968.05,1510.26 1967.14,1509.12 1966.54,1506.91
             1966.54,1506.91 1965.00,1483.00 1965.00,1483.00
             1964.93,1477.06 1964.93,1468.46 1962.66,1463.00
             1960.16,1456.99 1951.49,1442.58 1951.41,1437.04
             1951.35,1432.44 1954.95,1427.93 1957.00,1424.00
             1957.00,1424.00 1964.00,1413.00 1964.00,1413.00
             1964.00,1413.00 1967.74,1407.98 1968.58,1401.97
             1969.48,1395.49 1967.49,1388.00 1967.49,1388.00
             1967.49,1388.00 1961.98,1371.17 1961.98,1371.17
             1961.98,1371.17 1951.12,1335.04 1951.12,1335.04
             1951.12,1335.04 1946.58,1316.91 1946.58,1316.91
             1946.58,1316.91 1941.71,1302.28 1941.71,1302.28
             1941.71,1302.28 1926.57,1250.00 1926.57,1250.00
             1926.57,1250.00 1912.00,1200.00 1912.00,1200.00
             1912.00,1200.00 1995.00,1200.00 1995.00,1200.00
             1995.00,1200.00 2010.00,1201.00 2010.00,1201.00
             2010.00,1201.00 2064.00,1201.00 2064.00,1201.00
             2064.00,1201.00 2072.00,1179.00 2072.00,1179.00 Z
           M 3321.24,1319.17" />
  <path id="Sumisip"
        fill="none" stroke="black" stroke-width="1"
        d="M 1971.00,1521.00
           C 1966.38,1522.05 1961.80,1523.45 1958.00,1526.39
             1955.21,1528.55 1951.86,1532.56 1949.00,1534.05
             1945.27,1535.82 1941.82,1534.20 1938.00,1534.05
             1934.23,1534.05 1931.34,1535.19 1928.00,1536.78
             1928.00,1536.78 1914.00,1545.04 1914.00,1545.04
             1910.54,1546.55 1905.93,1546.95 1903.10,1548.85
             1899.33,1551.38 1899.32,1554.55 1895.79,1556.58
             1895.79,1556.58 1878.00,1562.35 1878.00,1562.35
             1878.00,1562.35 1864.00,1569.97 1864.00,1569.97
             1857.40,1572.08 1852.59,1565.22 1846.00,1566.67
             1836.10,1568.85 1837.96,1573.98 1823.00,1574.00
             1823.00,1574.00 1798.00,1574.00 1798.00,1574.00
             1798.00,1574.00 1786.00,1574.96 1786.00,1574.96
             1786.00,1574.96 1770.00,1574.96 1770.00,1574.96
             1770.00,1574.96 1748.00,1576.00 1748.00,1576.00
             1748.00,1576.00 1735.00,1577.00 1735.00,1577.00
             1731.77,1577.03 1722.60,1577.30 1720.00,1576.42
             1715.77,1574.99 1710.91,1569.98 1706.02,1570.52
             1699.38,1571.25 1701.83,1579.92 1696.78,1582.27
             1693.69,1583.69 1688.29,1582.67 1685.00,1582.27
             1681.83,1581.91 1677.87,1582.24 1675.00,1581.35
             1667.92,1579.17 1657.21,1569.19 1658.38,1561.00
             1659.51,1553.07 1670.52,1545.31 1666.53,1537.00
             1664.43,1532.64 1660.30,1530.22 1656.00,1528.45
             1653.30,1527.34 1648.89,1526.55 1647.60,1523.73
             1645.32,1518.77 1650.98,1509.15 1644.85,1506.11
             1640.89,1504.15 1637.02,1508.73 1631.00,1507.60
             1625.27,1506.52 1617.88,1499.84 1611.00,1497.78
             1600.56,1494.66 1593.72,1497.90 1588.21,1492.72
             1583.59,1488.38 1583.75,1482.15 1579.36,1476.00
             1574.86,1469.68 1562.14,1460.37 1560.28,1454.00
             1557.46,1444.40 1559.35,1434.60 1560.92,1425.00
             1560.92,1425.00 1565.92,1393.00 1565.92,1393.00
             1565.92,1393.00 1576.42,1325.00 1576.42,1325.00
             1576.42,1325.00 1584.87,1271.00 1584.87,1271.00
             1584.87,1271.00 1593.75,1214.00 1593.75,1214.00
             1594.30,1210.71 1595.35,1198.76 1597.59,1197.02
             1599.21,1195.76 1602.99,1196.00 1605.00,1196.00
             1605.00,1196.00 1654.00,1196.00 1654.00,1196.00
             1654.00,1196.00 1671.00,1197.00 1671.00,1197.00
             1671.00,1197.00 1728.00,1197.00 1728.00,1197.00
             1728.00,1197.00 1745.00,1198.00 1745.00,1198.00
             1745.00,1198.00 1803.00,1198.00 1803.00,1198.00
             1803.00,1198.00 1818.00,1199.00 1818.00,1199.00
             1818.00,1199.00 1877.00,1199.00 1877.00,1199.00
             1877.00,1199.00 1892.00,1200.00 1892.00,1200.00
             1892.00,1200.00 1910.00,1200.00 1910.00,1200.00
             1910.00,1200.00 1925.58,1254.00 1925.58,1254.00
             1925.58,1254.00 1943.96,1316.00 1943.96,1316.00
             1943.96,1316.00 1949.09,1336.00 1949.09,1336.00
             1953.98,1351.17 1965.47,1385.74 1967.29,1400.00
             1968.23,1407.39 1959.12,1420.04 1954.58,1425.89
             1952.29,1428.84 1949.28,1432.08 1948.85,1436.00
             1948.50,1439.19 1950.78,1442.26 1952.22,1445.00
             1952.22,1445.00 1961.37,1464.00 1961.37,1464.00
             1963.07,1469.95 1962.97,1482.53 1963.00,1489.00
             1963.00,1489.00 1964.09,1500.00 1964.09,1500.00
             1964.09,1500.00 1964.09,1506.00 1964.09,1506.00
             1965.12,1510.37 1969.25,1516.23 1971.00,1521.00 Z" />
  <path id="Tabuan-Lasa"
        fill="none" stroke="black" stroke-width="1"
        d="M 1701.00,1684.65
           C 1709.73,1682.86 1718.26,1685.98 1722.78,1694.00
             1725.28,1698.46 1725.11,1702.55 1728.56,1708.00
             1732.79,1714.68 1736.55,1715.62 1738.26,1720.01
             1739.53,1723.25 1738.78,1733.90 1736.98,1736.73
             1735.83,1738.55 1733.92,1739.37 1732.00,1740.12
             1725.39,1742.69 1713.19,1744.42 1706.00,1745.06
             1706.00,1745.06 1697.00,1745.06 1697.00,1745.06
             1697.00,1745.06 1690.00,1747.27 1690.00,1747.27
             1681.48,1748.74 1672.51,1735.34 1667.00,1730.04
             1663.20,1726.39 1650.49,1716.39 1652.63,1710.33
             1653.48,1707.91 1660.61,1703.84 1663.00,1702.14
             1666.38,1699.74 1672.56,1695.05 1676.00,1693.40
             1681.17,1690.92 1685.14,1691.34 1690.00,1689.78
             1690.00,1689.78 1701.00,1684.65 1701.00,1684.65 Z
           M 1824.00,1707.47
           C 1828.29,1706.87 1841.25,1705.74 1842.67,1711.14
             1844.20,1716.95 1838.36,1721.09 1841.98,1728.00
             1845.02,1733.80 1855.16,1743.19 1855.62,1748.00
             1856.20,1754.15 1848.76,1759.64 1843.01,1758.76
             1837.74,1757.95 1837.98,1754.27 1831.00,1752.04
             1822.82,1749.71 1820.76,1752.41 1814.00,1752.04
             1806.34,1751.33 1806.03,1747.52 1806.22,1741.00
             1806.22,1741.00 1806.22,1723.09 1806.22,1723.09
             1807.46,1719.59 1810.37,1718.12 1812.82,1715.70
             1817.84,1710.77 1816.42,1709.36 1824.00,1707.47 Z
           M 1876.22,1741.00
           C 1876.95,1746.30 1878.40,1759.21 1876.22,1764.00
             1875.16,1767.12 1868.57,1774.10 1865.91,1776.58
             1862.34,1779.90 1854.86,1787.40 1849.74,1782.26
             1846.99,1779.51 1848.30,1774.82 1850.43,1772.17
             1853.75,1768.04 1857.14,1767.60 1863.45,1757.00
             1868.77,1748.08 1864.46,1741.40 1876.22,1741.00 Z
           M 1597.47,1763.02
           C 1601.29,1761.56 1604.55,1761.99 1606.49,1766.06
             1606.49,1766.06 1609.52,1781.00 1609.52,1781.00
             1610.90,1786.18 1613.24,1787.53 1614.42,1791.00
             1616.08,1795.94 1614.69,1805.88 1610.61,1809.44
             1606.55,1812.98 1596.34,1812.80 1592.72,1808.58
             1591.12,1806.71 1590.11,1802.44 1589.47,1800.00
             1586.12,1787.14 1585.05,1782.99 1592.01,1771.00
             1593.79,1767.93 1594.92,1765.53 1597.47,1763.02 Z
           M 1735.00,1851.00
           C 1745.29,1853.47 1756.71,1846.45 1766.00,1842.42
             1769.35,1840.97 1776.33,1838.27 1778.98,1836.35
             1785.32,1831.79 1784.42,1826.71 1794.00,1827.06
             1795.39,1827.11 1797.29,1827.27 1798.21,1828.17
             1800.80,1830.08 1799.26,1833.90 1798.21,1836.00
             1794.65,1841.55 1787.50,1845.27 1782.00,1848.42
             1770.91,1854.78 1770.82,1856.91 1758.00,1857.00
             1747.39,1857.07 1750.14,1860.48 1743.00,1862.58
             1743.00,1862.58 1719.00,1865.96 1719.00,1865.96
             1712.72,1866.24 1704.98,1868.47 1700.15,1863.77
             1698.38,1862.06 1696.85,1859.66 1697.66,1857.11
             1700.98,1846.63 1723.51,1862.01 1720.72,1846.00
             1720.72,1846.00 1719.29,1841.02 1719.29,1841.02
             1718.25,1838.39 1717.36,1836.92 1714.89,1835.41
             1703.50,1828.49 1696.72,1839.59 1689.02,1841.30
             1684.46,1842.31 1683.33,1838.39 1681.85,1835.00
             1678.41,1827.14 1675.11,1821.80 1675.22,1813.00
             1674.98,1810.90 1674.90,1806.92 1675.22,1805.00
             1677.17,1798.65 1684.01,1795.81 1690.00,1795.17
             1701.78,1793.91 1711.71,1800.93 1726.00,1801.00
             1730.99,1801.02 1738.72,1800.55 1742.90,1803.58
             1747.52,1806.95 1749.74,1814.51 1749.96,1820.00
             1750.57,1834.97 1743.16,1840.08 1735.00,1851.00 Z" />
  <path id="Isabela"
        fill="none" stroke="black" stroke-width="1"
        d="M 1716.00,807.70
           C 1725.31,805.84 1733.13,814.86 1738.96,821.00
             1741.50,823.67 1745.62,827.88 1744.35,831.96
             1743.13,835.87 1738.56,837.37 1735.00,838.18
             1729.11,839.54 1718.48,840.32 1714.74,845.33
             1709.23,852.70 1721.15,860.32 1720.54,868.00
             1720.24,871.84 1715.58,876.98 1713.21,880.00
             1706.59,888.44 1699.17,900.58 1689.00,904.53
             1685.54,905.88 1678.55,907.60 1675.00,906.40
             1672.06,905.41 1670.15,902.87 1667.00,902.50
             1662.12,901.92 1655.25,907.83 1649.00,906.33
             1646.31,905.68 1643.09,903.63 1641.04,901.79
             1628.65,890.65 1635.23,868.41 1642.34,856.00
             1647.43,847.11 1660.36,831.14 1670.00,827.56
             1678.15,824.53 1685.66,825.91 1693.00,822.65
             1701.82,818.74 1707.71,811.40 1716.00,807.70 Z
           M 1584.00,988.00
           C 1589.23,990.69 1596.99,997.88 1601.00,998.48
             1604.76,999.05 1610.75,995.43 1614.00,993.57
             1619.28,990.55 1628.08,985.46 1630.83,980.00
             1632.73,976.20 1631.99,962.90 1632.00,958.00
             1632.00,954.96 1631.81,950.90 1633.31,948.18
             1634.96,945.21 1639.13,943.12 1642.00,941.40
             1642.00,941.40 1663.00,929.75 1663.00,929.75
             1681.72,920.37 1707.02,908.69 1720.82,893.00
             1728.83,883.89 1733.72,869.75 1740.78,860.00
             1746.37,852.28 1757.69,844.21 1766.00,839.43
             1777.61,832.74 1802.60,822.43 1816.00,824.13
             1822.34,824.94 1826.89,830.83 1833.00,833.03
             1839.67,835.43 1846.54,832.69 1853.00,831.00
             1853.00,831.00 1837.79,868.00 1837.79,868.00
             1837.79,868.00 1835.00,906.00 1835.00,906.00
             1835.00,906.00 1833.01,937.00 1833.01,937.00
             1832.77,947.67 1838.51,961.51 1841.58,972.00
             1841.58,972.00 1861.28,1038.00 1861.28,1038.00
             1861.28,1038.00 1909.00,1198.00 1909.00,1198.00
             1909.00,1198.00 1838.00,1197.00 1838.00,1197.00
             1838.00,1197.00 1823.00,1196.00 1823.00,1196.00
             1823.00,1196.00 1766.00,1196.00 1766.00,1196.00
             1766.00,1196.00 1749.00,1195.00 1749.00,1195.00
             1749.00,1195.00 1693.00,1195.00 1693.00,1195.00
             1693.00,1195.00 1676.00,1194.00 1676.00,1194.00
             1676.00,1194.00 1617.00,1194.00 1617.00,1194.00
             1617.00,1194.00 1603.00,1193.00 1603.00,1193.00
             1603.00,1193.00 1597.00,1193.00 1597.00,1193.00
             1597.00,1193.00 1600.72,1162.00 1600.72,1162.00
             1600.72,1162.00 1607.15,1107.00 1607.15,1107.00
             1607.15,1107.00 1610.16,1081.00 1610.16,1081.00
             1610.16,1081.00 1611.52,1068.09 1611.52,1068.09
             1610.96,1064.79 1607.60,1063.18 1605.00,1061.60
             1601.49,1059.47 1590.79,1053.81 1589.02,1050.79
             1587.83,1048.76 1587.11,1034.24 1586.96,1031.00
             1586.96,1031.00 1584.00,988.00 1584.00,988.00 Z" />
  <path id="Maluso"
        fill="none" stroke="black" stroke-width="1"
        d="M 1450.00,1194.00
           C 1450.00,1194.00 1507.00,1194.00 1507.00,1194.00
             1507.00,1194.00 1524.00,1195.00 1524.00,1195.00
             1524.00,1195.00 1594.00,1196.00 1594.00,1196.00
             1594.00,1196.00 1591.27,1215.00 1591.27,1215.00
             1591.27,1215.00 1584.42,1259.00 1584.42,1259.00
             1584.42,1259.00 1566.92,1372.00 1566.92,1372.00
             1566.92,1372.00 1557.00,1438.00 1557.00,1438.00
             1554.86,1436.05 1553.66,1435.10 1553.39,1432.00
             1553.15,1429.19 1555.10,1424.22 1552.40,1421.78
             1548.17,1417.95 1535.88,1428.07 1531.45,1418.89
             1528.16,1412.89 1538.33,1401.72 1531.45,1395.85
             1526.31,1391.11 1516.34,1393.96 1508.00,1388.88
             1495.15,1381.06 1476.48,1358.99 1471.07,1345.00
             1468.53,1338.43 1466.81,1325.07 1467.02,1318.00
             1467.45,1303.36 1482.58,1315.90 1484.52,1303.00
             1485.05,1299.45 1483.08,1296.21 1481.94,1293.00
             1481.94,1293.00 1477.67,1279.00 1477.67,1279.00
             1476.52,1275.56 1474.61,1271.54 1476.21,1268.00
             1480.19,1259.23 1496.56,1255.94 1495.50,1247.00
             1494.83,1241.34 1484.14,1232.23 1480.01,1228.00
             1469.46,1217.16 1471.41,1212.78 1466.61,1207.09
             1461.19,1200.67 1455.97,1201.88 1450.00,1194.00 Z
           M 1308.10,1228.21
           C 1316.28,1227.12 1320.01,1237.29 1323.70,1243.00
             1323.70,1243.00 1329.02,1251.00 1329.02,1251.00
             1330.52,1254.33 1330.39,1258.63 1326.85,1260.57
             1322.77,1262.81 1306.87,1263.20 1303.65,1259.69
             1299.19,1254.82 1301.53,1237.31 1304.44,1232.02
             1305.74,1229.66 1306.06,1229.65 1308.10,1228.21 Z
           M 1228.13,1279.75
           C 1234.47,1278.48 1247.57,1283.62 1240.44,1291.57
             1238.95,1293.23 1234.19,1295.03 1232.00,1295.63
             1223.96,1297.86 1221.08,1284.33 1228.13,1279.75 Z
           M 1273.00,1313.10
           C 1275.90,1312.06 1278.95,1311.45 1281.77,1313.10
             1285.40,1315.39 1286.29,1321.89 1282.71,1324.48
             1279.85,1326.55 1269.68,1331.71 1266.29,1330.22
             1264.79,1329.56 1264.35,1328.42 1264.15,1326.89
             1263.34,1320.78 1268.41,1316.08 1273.00,1313.10 Z
           M 1385.00,1452.53
           C 1392.55,1451.30 1403.09,1453.34 1402.86,1463.00
             1402.76,1467.37 1399.96,1471.82 1398.52,1476.00
             1396.36,1482.24 1394.35,1490.59 1387.00,1492.57
             1378.12,1494.96 1371.56,1488.52 1366.97,1482.00
             1364.45,1478.43 1362.41,1476.54 1362.06,1472.00
             1361.90,1470.01 1361.97,1467.07 1363.02,1465.33
             1365.44,1461.34 1380.18,1453.95 1385.00,1452.53 Z" />
  <path id="Lantawan"
        fill="none" stroke="black" stroke-width="1"
        d="M 1595.00,1193.00
           C 1595.00,1193.00 1543.00,1193.00 1543.00,1193.00
             1543.00,1193.00 1531.00,1192.18 1531.00,1192.18
             1531.00,1192.18 1525.00,1192.82 1525.00,1192.82
             1525.00,1192.82 1513.00,1192.00 1513.00,1192.00
             1513.00,1192.00 1470.00,1192.00 1470.00,1192.00
             1470.00,1192.00 1458.00,1191.12 1458.00,1191.12
             1454.64,1191.25 1451.48,1192.45 1448.17,1191.12
             1443.36,1189.21 1443.43,1184.94 1434.42,1182.92
             1428.44,1181.57 1414.74,1181.97 1408.00,1182.00
             1403.91,1182.02 1400.78,1182.08 1396.83,1183.37
             1392.18,1184.90 1389.19,1187.50 1384.17,1187.07
             1366.24,1185.51 1354.52,1162.48 1337.00,1157.04
             1323.25,1152.77 1314.56,1155.35 1312.99,1144.00
             1311.31,1131.85 1326.35,1126.62 1328.86,1120.42
             1329.52,1118.60 1329.21,1115.82 1328.86,1113.91
             1328.16,1109.04 1325.99,1098.11 1322.98,1094.52
             1318.10,1088.68 1311.42,1089.75 1310.41,1083.98
             1309.70,1079.96 1314.70,1070.07 1316.31,1066.00
             1316.31,1066.00 1322.73,1053.00 1322.73,1053.00
             1322.73,1053.00 1326.90,1043.00 1326.90,1043.00
             1326.90,1043.00 1332.13,1033.00 1332.13,1033.00
             1334.87,1026.74 1339.58,1014.16 1344.04,1009.52
             1349.80,1003.53 1364.92,998.66 1372.91,993.65
             1383.43,987.06 1405.50,970.86 1416.72,968.59
             1432.78,965.34 1444.03,974.84 1455.75,983.78
             1466.54,992.01 1468.10,988.25 1473.63,992.85
             1477.60,996.16 1481.37,1005.06 1486.21,1009.83
             1492.83,1016.34 1500.52,1015.60 1504.17,1016.83
             1504.17,1016.83 1512.00,1020.59 1512.00,1020.59
             1517.61,1022.10 1517.85,1017.32 1524.04,1014.63
             1524.04,1014.63 1538.00,1009.83 1538.00,1009.83
             1546.13,1005.97 1553.03,1000.13 1560.20,994.80
             1564.01,991.98 1574.07,984.30 1578.72,985.99
             1582.76,987.46 1581.95,997.29 1582.34,1001.00
             1582.34,1001.00 1586.22,1048.99 1586.22,1048.99
             1587.45,1055.28 1597.78,1059.69 1603.00,1062.78
             1605.79,1064.43 1608.52,1065.53 1609.15,1069.05
             1609.54,1071.27 1608.17,1080.33 1607.75,1083.00
             1607.75,1083.00 1605.16,1104.00 1605.16,1104.00
             1605.16,1104.00 1597.65,1169.42 1597.65,1169.42
             1597.65,1169.42 1595.00,1193.00 1595.00,1193.00 Z
           M 1309.00,1098.74
           C 1317.84,1096.80 1323.43,1102.81 1325.32,1111.00
             1326.21,1114.84 1327.02,1119.91 1322.87,1122.01
             1322.87,1122.01 1306.04,1125.85 1306.04,1125.85
             1304.41,1125.88 1303.02,1125.61 1301.69,1124.62
             1296.44,1120.73 1300.48,1107.29 1303.65,1103.04
             1305.47,1100.59 1306.42,1100.12 1309.00,1098.74 Z
           M 1092.83,1231.00
           C 1085.08,1228.43 1077.93,1220.56 1077.34,1211.87
             1077.11,1208.43 1078.55,1204.42 1079.19,1201.00
             1079.72,1198.17 1079.12,1191.45 1082.13,1190.45
             1085.86,1189.22 1087.60,1198.59 1088.55,1201.00
             1088.55,1201.00 1092.83,1210.70 1092.83,1210.70
             1097.21,1219.53 1098.23,1221.39 1092.83,1231.00 Z" />
  <path id="Hadji Muhtamad"
        fill="none" stroke="black" stroke-width="1"
        d="M 857.11,467.04
           C 862.90,465.47 865.00,469.09 867.12,474.00
             870.14,481.00 872.90,500.36 864.89,504.83
             859.54,507.81 853.03,504.99 851.53,498.98
             850.14,493.42 851.00,476.16 853.57,471.02
             854.76,468.64 855.17,468.57 857.11,467.04 Z
           M 778.00,596.52
           C 780.88,596.07 784.13,595.60 786.79,597.17
             793.73,601.28 792.52,620.92 791.41,628.00
             790.82,631.79 790.17,640.51 785.86,641.68
             777.46,643.97 780.90,635.73 774.89,630.76
             770.38,627.03 764.53,625.94 762.17,621.82
             761.02,619.79 761.01,617.27 761.01,615.00
             760.99,603.42 767.70,599.28 778.00,596.52 Z
           M 730.00,620.64
           C 745.43,617.59 748.26,635.07 755.86,648.00
             755.86,648.00 764.27,661.00 764.27,661.00
             766.58,667.26 765.54,676.03 757.00,674.85
             752.11,674.18 745.31,665.93 742.42,662.00
             742.42,662.00 726.15,640.00 726.15,640.00
             724.25,637.40 720.46,632.31 720.65,629.00
             720.92,624.40 726.31,622.03 730.00,620.64 Z
           M 508.13,763.03
           C 514.20,761.10 517.11,764.70 519.47,770.00
             522.48,776.74 524.36,795.61 516.79,799.97
             511.60,802.97 505.95,797.58 504.15,793.00
             502.08,787.74 502.52,771.04 505.30,766.06
             506.39,764.11 506.59,764.31 508.13,763.03 Z
           M 565.01,788.76
           C 572.83,787.39 574.74,792.96 579.30,797.91
             582.90,801.82 587.13,804.34 590.35,809.00
             594.68,815.24 594.01,822.80 594.00,830.00
             593.99,835.99 594.15,850.71 587.95,853.41
             585.60,854.23 582.45,853.94 580.00,853.41
             568.07,851.70 565.59,847.95 558.34,839.00
             552.86,832.25 548.57,831.70 546.74,826.98
             545.06,822.67 547.00,817.93 548.77,814.00
             552.55,805.64 556.58,793.29 565.01,788.76 Z
           M 1122.00,943.83
           C 1136.85,942.13 1140.99,960.84 1141.00,972.00
             1141.01,978.85 1140.07,985.33 1138.50,992.00
             1138.50,992.00 1136.32,1000.00 1136.32,1000.00
             1133.90,1013.58 1134.94,1017.36 1128.69,1031.00
             1126.37,1036.07 1122.02,1044.92 1118.33,1048.85
             1114.58,1052.87 1111.77,1052.09 1110.17,1046.98
             1110.17,1046.98 1109.10,1043.00 1109.10,1043.00
             1109.10,1043.00 1109.10,1036.00 1109.10,1036.00
             1109.10,1036.00 1109.10,1025.00 1109.10,1025.00
             1109.10,1025.00 1105.83,991.00 1105.83,991.00
             1105.32,985.75 1103.47,974.61 1104.53,970.00
             1105.78,964.55 1108.33,962.43 1110.97,958.00
             1114.51,952.07 1115.32,947.15 1122.00,943.83 Z
           M 932.00,1067.00
           C 931.58,1061.78 930.79,1047.76 926.61,1044.64
             922.11,1041.29 911.48,1049.90 908.02,1052.81
             906.46,1054.12 904.25,1055.85 904.03,1058.03
             903.73,1060.97 906.88,1063.43 909.02,1064.90
             913.78,1068.17 924.15,1071.21 926.57,1076.05
             929.48,1081.87 926.93,1087.31 925.48,1093.00
             923.96,1098.92 923.93,1101.99 924.00,1108.00
             924.06,1112.94 925.47,1127.89 927.44,1132.00
             931.42,1140.32 936.85,1141.49 937.00,1152.00
             937.00,1152.00 937.00,1169.00 937.00,1169.00
             936.99,1174.74 936.16,1183.66 934.19,1189.00
             932.39,1193.88 930.05,1196.05 928.68,1202.00
             927.65,1206.48 928.01,1215.06 928.00,1220.00
             927.99,1225.91 927.42,1240.71 919.01,1240.71
             911.53,1240.71 911.57,1230.99 910.79,1226.00
             910.02,1221.06 907.56,1219.25 907.11,1214.00
             906.62,1208.26 908.78,1205.15 909.11,1200.00
             909.11,1200.00 909.11,1184.00 909.11,1184.00
             909.01,1177.99 909.39,1173.74 911.44,1168.00
             914.27,1160.07 918.62,1155.82 915.78,1147.00
             913.92,1141.24 903.55,1125.93 898.91,1121.75
             891.16,1114.77 881.60,1109.57 878.22,1099.00
             873.37,1083.83 884.26,1067.15 876.51,1052.00
             870.36,1039.97 858.87,1025.29 850.00,1015.00
             846.24,1010.63 837.18,1002.35 836.48,997.00
             835.29,987.91 845.02,985.85 850.00,983.04
             857.77,978.64 861.82,971.66 867.00,969.16
             869.92,967.75 873.79,967.96 877.00,968.00
             887.13,968.15 891.68,975.08 896.40,983.00
             903.05,994.20 910.29,1010.66 921.00,1018.37
             929.83,1024.72 943.13,1024.73 947.83,1034.00
             950.54,1039.36 947.94,1044.12 945.87,1049.00
             942.41,1057.18 942.57,1065.77 932.00,1067.00 Z
           M 809.21,1011.03
           C 816.40,1008.59 817.52,1015.43 816.53,1021.00
             815.37,1027.55 807.50,1039.69 801.91,1043.26
             794.80,1047.81 794.11,1038.74 795.31,1034.01
             796.27,1030.26 798.96,1029.02 801.01,1025.91
             804.55,1020.55 803.67,1015.78 809.21,1011.03 Z
           M 841.00,1038.53
           C 853.10,1036.56 855.54,1043.89 859.00,1054.00
             863.06,1065.88 867.52,1080.52 860.03,1092.00
             857.57,1095.77 854.43,1098.40 850.00,1099.47
             836.61,1102.70 819.94,1089.71 813.48,1079.00
             811.37,1075.51 808.74,1068.07 809.51,1064.00
             810.25,1060.16 814.21,1055.96 817.04,1053.43
             823.96,1047.22 831.99,1041.19 841.00,1038.53 Z
           M 688.00,1095.65
           C 698.18,1093.64 699.46,1100.45 698.91,1109.00
             698.74,1111.59 698.36,1117.19 695.69,1118.39
             691.96,1120.05 687.48,1116.46 685.11,1113.96
             678.91,1107.42 679.20,1099.39 688.00,1095.65 Z
           M 761.39,1097.03
           C 763.07,1096.43 762.99,1096.13 765.02,1096.27
             769.14,1096.54 780.58,1100.49 779.63,1106.00
             778.97,1109.83 773.18,1113.54 770.00,1115.39
             768.38,1116.34 766.84,1117.05 765.00,1117.47
             750.22,1120.83 755.11,1102.95 761.39,1097.03 Z
           M 788.60,1145.04
           C 793.88,1143.16 795.40,1146.31 798.59,1149.81
             798.59,1149.81 803.15,1154.37 803.15,1154.37
             805.78,1158.05 805.46,1164.43 801.66,1167.25
             798.14,1169.85 794.39,1167.65 791.93,1164.79
             787.97,1160.19 784.74,1150.36 788.60,1145.04 Z" />
</svg>
