<?xml version="1.0" encoding="UTF-8" standalone="no"?>
<!DOCTYPE svg PUBLIC "-//W3C//DTD SVG 20010904//EN"
              "http://www.w3.org/TR/2001/REC-SVG-20010904/DTD/svg10.dtd">

<svg xmlns="http://www.w3.org/2000/svg"
     width="767.901mm" height="1075.13mm"
     viewBox="0 0 2177 3048">
  <path id="Bagac"
        fill="none" stroke="black" stroke-width="1"
        d="M 945.09,1352.04
           C 951.59,1350.30 955.76,1356.76 960.00,1361.00
             960.00,1361.00 991.00,1392.00 991.00,1392.00
             991.00,1392.00 1009.00,1411.00 1009.00,1411.00
             1009.00,1411.00 1055.99,1458.00 1055.99,1458.00
             1055.99,1458.00 1067.00,1470.00 1067.00,1470.00
             1067.00,1470.00 1113.99,1517.00 1113.99,1517.00
             1113.99,1517.00 1124.01,1528.00 1124.01,1528.00
             1124.01,1528.00 1171.00,1575.00 1171.00,1575.00
             1171.00,1575.00 1181.04,1586.00 1181.04,1586.00
             1181.04,1586.00 1207.00,1612.00 1207.00,1612.00
             1207.00,1612.00 1233.27,1639.00 1233.27,1639.00
             1235.86,1643.11 1237.90,1658.40 1239.00,1664.00
             1239.66,1667.33 1241.25,1673.87 1240.84,1677.00
             1240.24,1681.59 1236.10,1684.90 1233.00,1688.00
             1233.00,1688.00 1214.46,1707.00 1214.46,1707.00
             1210.17,1712.24 1202.45,1724.59 1200.63,1731.00
             1199.32,1735.64 1200.84,1740.89 1199.07,1745.00
             1196.61,1750.68 1190.54,1753.86 1188.26,1760.00
             1183.09,1773.94 1196.67,1787.02 1199.05,1794.00
             1200.12,1796.75 1199.01,1804.28 1199.05,1808.00
             1199.05,1808.00 1199.05,1848.00 1199.05,1848.00
             1199.00,1850.07 1198.89,1853.08 1199.60,1855.00
             1201.16,1859.19 1213.98,1869.23 1218.00,1872.72
             1218.00,1872.72 1239.00,1890.73 1239.00,1890.73
             1241.48,1892.86 1248.60,1898.68 1249.98,1901.17
             1250.91,1902.85 1251.96,1917.28 1252.00,1920.00
             1252.00,1920.00 1252.00,1933.00 1252.00,1933.00
             1252.00,1933.00 1252.96,1945.00 1252.96,1945.00
             1252.96,1945.00 1252.96,1960.00 1252.96,1960.00
             1252.96,1960.00 1254.00,1975.00 1254.00,1975.00
             1254.02,1977.22 1254.14,1980.98 1253.40,1983.00
             1251.70,1987.63 1238.60,1999.66 1234.90,2005.00
             1234.90,2005.00 1228.58,2016.00 1228.58,2016.00
             1216.78,2036.88 1205.28,2065.79 1188.00,2081.91
             1178.37,2090.90 1168.36,2097.95 1157.00,2104.58
             1149.17,2109.15 1129.15,2120.71 1123.29,2126.32
             1107.79,2141.17 1105.16,2163.24 1092.24,2178.90
             1088.85,2183.01 1077.99,2189.10 1073.00,2192.19
             1073.00,2192.19 1040.00,2212.69 1040.00,2212.69
             1040.00,2212.69 985.00,2240.26 985.00,2240.26
             985.00,2240.26 936.00,2268.44 936.00,2268.44
             936.00,2268.44 910.00,2289.73 910.00,2289.73
             907.48,2291.88 901.06,2297.76 898.04,2298.21
             890.99,2299.29 892.67,2286.57 890.49,2282.18
             887.66,2276.48 876.05,2272.91 874.59,2271.42
             872.43,2269.19 871.91,2262.04 872.09,2259.00
             872.75,2247.68 876.64,2245.67 883.96,2238.00
             887.42,2234.37 893.08,2227.49 892.09,2222.00
             891.10,2216.48 884.04,2213.33 882.60,2209.87
             882.60,2209.87 878.59,2183.00 878.59,2183.00
             871.04,2165.97 855.56,2152.51 851.81,2142.00
             850.57,2138.52 850.95,2128.18 851.00,2124.00
             851.14,2114.03 854.50,2115.35 857.61,2108.00
             859.38,2103.81 859.98,2097.54 860.00,2093.00
             860.01,2090.06 860.21,2085.73 859.30,2083.00
             856.78,2075.42 842.28,2059.30 837.32,2046.00
             835.68,2041.60 831.99,2032.56 834.21,2028.09
             836.88,2022.72 846.60,2019.84 852.00,2018.29
             858.48,2016.43 879.48,2010.90 883.91,2007.49
             888.11,2004.27 891.02,1999.09 892.18,1994.00
             893.74,1987.21 893.54,1985.45 894.17,1979.00
             895.31,1967.17 896.02,1956.47 889.04,1946.01
             886.84,1942.73 883.31,1939.79 880.00,1937.66
             877.01,1935.73 873.68,1934.98 872.95,1930.96
             872.27,1927.21 874.69,1918.56 878.22,1916.70
             882.67,1914.35 891.54,1913.37 892.26,1906.96
             892.42,1905.52 891.68,1901.60 891.41,1900.00
             888.37,1881.97 877.22,1878.93 877.00,1866.00
             876.88,1858.74 876.21,1847.21 880.01,1841.00
             887.03,1829.55 895.36,1829.15 901.35,1820.96
             905.95,1814.68 906.09,1808.38 906.00,1801.00
             905.91,1794.60 904.76,1792.74 902.28,1787.00
             902.28,1787.00 897.28,1776.00 897.28,1776.00
             897.28,1776.00 876.90,1746.00 876.90,1746.00
             873.62,1739.26 868.79,1723.47 867.46,1716.00
             867.46,1716.00 866.40,1707.00 866.40,1707.00
             866.40,1707.00 859.09,1686.00 859.09,1686.00
             857.08,1681.75 852.34,1676.04 849.42,1672.00
             839.88,1658.78 825.75,1644.60 813.00,1634.40
             813.00,1634.40 797.00,1621.83 797.00,1621.83
             794.17,1619.96 789.88,1618.66 789.42,1614.82
             788.28,1605.27 796.02,1598.98 802.00,1593.00
             811.38,1583.62 826.66,1567.59 832.74,1556.00
             843.59,1535.32 853.76,1513.76 862.26,1492.00
             862.26,1492.00 875.31,1456.00 875.31,1456.00
             875.31,1456.00 885.58,1437.00 885.58,1437.00
             885.58,1437.00 895.06,1420.00 895.06,1420.00
             895.06,1420.00 913.29,1394.00 913.29,1394.00
             913.29,1394.00 932.15,1368.00 932.15,1368.00
             935.92,1362.70 939.88,1355.86 945.09,1352.04 Z" />
  <path id="Mariveles"
        fill="none" stroke="black" stroke-width="1"
        d="M 1257.00,1988.83
           C 1264.57,1987.86 1275.48,1995.91 1282.00,1999.80
             1282.00,1999.80 1336.00,2030.58 1336.00,2030.58
             1336.00,2030.58 1480.00,2113.42 1480.00,2113.42
             1480.00,2113.42 1525.00,2139.28 1525.00,2139.28
             1530.43,2142.37 1543.91,2150.46 1549.00,2152.18
             1549.00,2152.18 1574.00,2158.00 1574.00,2158.00
             1577.54,2158.76 1584.76,2160.65 1588.00,2160.66
             1588.00,2160.66 1609.00,2157.41 1609.00,2157.41
             1609.00,2157.41 1650.00,2150.42 1650.00,2150.42
             1650.00,2150.42 1750.00,2133.75 1750.00,2133.75
             1750.00,2133.75 1787.00,2127.75 1787.00,2127.75
             1790.74,2127.13 1803.00,2124.75 1805.96,2125.16
             1808.79,2125.55 1810.46,2126.99 1810.14,2130.02
             1810.14,2130.02 1804.63,2143.00 1804.63,2143.00
             1803.58,2146.70 1804.05,2157.51 1804.00,2162.00
             1804.00,2162.00 1803.00,2177.00 1803.00,2177.00
             1803.00,2177.00 1803.00,2196.00 1803.00,2196.00
             1803.00,2196.00 1802.04,2208.00 1802.04,2208.00
             1802.04,2208.00 1802.04,2221.00 1802.04,2221.00
             1801.96,2223.82 1800.90,2238.15 1799.98,2240.00
             1797.83,2244.34 1789.89,2250.26 1787.52,2258.00
             1783.58,2270.86 1783.79,2281.81 1776.68,2297.00
             1773.70,2303.36 1767.80,2310.38 1763.42,2316.00
             1763.42,2316.00 1743.65,2342.00 1743.65,2342.00
             1743.65,2342.00 1713.00,2381.00 1713.00,2381.00
             1713.00,2381.00 1698.71,2399.00 1698.71,2399.00
             1698.71,2399.00 1683.04,2415.00 1683.04,2415.00
             1683.04,2415.00 1669.00,2430.00 1669.00,2430.00
             1655.25,2443.75 1645.78,2449.60 1630.00,2460.34
             1625.10,2463.68 1616.14,2470.76 1611.00,2472.52
             1605.25,2474.49 1597.15,2474.07 1591.00,2474.00
             1591.00,2474.00 1581.00,2473.00 1581.00,2473.00
             1581.00,2473.00 1570.00,2473.00 1570.00,2473.00
             1570.00,2473.00 1557.00,2472.00 1557.00,2472.00
             1552.79,2472.06 1547.64,2472.69 1544.93,2476.39
             1543.03,2478.98 1543.43,2482.89 1540.57,2484.83
             1538.73,2486.07 1534.36,2486.11 1532.00,2486.42
             1532.00,2486.42 1515.00,2488.59 1515.00,2488.59
             1512.24,2489.03 1506.56,2490.27 1504.04,2489.67
             1500.56,2488.85 1495.70,2482.71 1493.00,2480.00
             1488.79,2475.79 1473.54,2462.21 1469.00,2459.24
             1466.30,2457.48 1462.25,2454.78 1459.00,2454.73
             1457.50,2454.71 1455.45,2455.30 1454.00,2455.71
             1452.34,2456.18 1449.75,2456.91 1448.39,2457.93
             1443.46,2461.62 1441.13,2477.48 1436.47,2481.26
             1433.33,2483.81 1425.67,2483.24 1422.00,2482.10
             1414.40,2479.73 1409.46,2473.46 1404.00,2468.00
             1388.65,2452.65 1385.58,2447.67 1373.67,2430.00
             1367.56,2420.93 1358.84,2408.38 1346.00,2411.86
             1339.06,2413.74 1334.47,2422.06 1327.00,2426.09
             1322.52,2428.50 1315.11,2429.54 1310.00,2429.91
             1306.83,2430.14 1302.99,2429.79 1300.30,2431.85
             1298.12,2433.53 1297.45,2436.48 1296.71,2439.00
             1293.65,2449.50 1295.84,2452.14 1302.38,2461.00
             1302.38,2461.00 1311.32,2473.00 1311.32,2473.00
             1311.32,2473.00 1337.00,2499.00 1337.00,2499.00
             1342.07,2504.07 1349.67,2509.34 1349.98,2517.00
             1350.17,2521.56 1348.84,2534.31 1344.58,2536.74
             1341.69,2538.39 1331.47,2535.44 1328.00,2534.65
             1328.00,2534.65 1317.00,2531.92 1317.00,2531.92
             1307.22,2528.58 1293.51,2521.44 1283.00,2522.18
             1278.57,2522.50 1264.37,2524.39 1261.00,2523.58
             1253.18,2521.71 1238.89,2508.61 1230.00,2504.59
             1219.13,2499.68 1205.41,2497.15 1205.02,2483.00
             1204.59,2467.64 1218.27,2457.88 1201.00,2455.15
             1201.00,2455.15 1195.00,2455.15 1195.00,2455.15
             1191.38,2454.98 1180.08,2455.93 1177.78,2453.40
             1174.59,2449.90 1179.21,2436.64 1178.52,2432.00
             1177.50,2425.05 1171.11,2419.33 1166.00,2415.20
             1166.00,2415.20 1147.00,2399.63 1147.00,2399.63
             1147.00,2399.63 1137.13,2394.04 1137.13,2394.04
             1132.78,2390.85 1129.56,2382.18 1123.01,2383.71
             1118.23,2384.82 1116.45,2389.60 1113.48,2392.87
             1110.54,2396.11 1104.31,2398.16 1100.00,2397.40
             1095.93,2396.69 1091.92,2391.83 1089.00,2389.04
             1083.10,2383.40 1077.62,2378.68 1069.00,2378.65
             1064.17,2378.63 1056.77,2383.73 1052.00,2385.65
             1047.26,2387.55 1038.62,2386.68 1034.13,2384.35
             1028.51,2381.43 1028.63,2368.60 1025.16,2363.00
             1019.70,2354.19 1004.24,2345.11 994.00,2343.17
             994.00,2343.17 981.00,2343.17 981.00,2343.17
             969.96,2343.15 965.37,2349.61 957.00,2351.74
             954.18,2352.73 948.93,2352.08 946.00,2351.74
             943.63,2351.10 940.08,2350.15 938.04,2348.91
             930.41,2344.28 930.20,2330.99 926.16,2325.10
             923.87,2321.76 917.60,2318.55 914.00,2316.40
             910.38,2314.23 899.75,2310.22 900.82,2305.17
             901.32,2302.81 905.17,2300.24 907.00,2298.74
             907.00,2298.74 923.00,2285.13 923.00,2285.13
             923.00,2285.13 937.00,2273.57 937.00,2273.57
             948.89,2265.24 990.54,2242.99 1005.00,2235.75
             1005.00,2235.75 1021.00,2227.25 1021.00,2227.25
             1021.00,2227.25 1041.00,2217.13 1041.00,2217.13
             1041.00,2217.13 1067.00,2200.68 1067.00,2200.68
             1072.73,2197.07 1088.68,2187.84 1092.56,2183.82
             1102.22,2173.79 1107.00,2162.40 1112.69,2150.00
             1115.80,2143.23 1119.54,2134.58 1125.18,2129.52
             1125.18,2129.52 1134.00,2123.33 1134.00,2123.33
             1154.53,2109.65 1178.97,2099.59 1195.68,2080.91
             1195.68,2080.91 1203.33,2070.00 1203.33,2070.00
             1203.33,2070.00 1213.69,2054.00 1213.69,2054.00
             1213.69,2054.00 1232.85,2017.00 1232.85,2017.00
             1237.53,2008.80 1248.78,1992.84 1257.00,1988.83 Z" />
  <path id="Limay"
        fill="none" stroke="black" stroke-width="1"
        d="M 1273.00,1983.00
           C 1273.00,1983.00 1306.00,1975.66 1306.00,1975.66
             1306.00,1975.66 1373.00,1960.65 1373.00,1960.65
             1373.00,1960.65 1420.00,1950.12 1420.00,1950.12
             1420.00,1950.12 1462.00,1938.71 1462.00,1938.71
             1462.00,1938.71 1496.00,1929.31 1496.00,1929.31
             1496.00,1929.31 1507.00,1924.82 1507.00,1924.82
             1507.00,1924.82 1532.00,1915.00 1532.00,1915.00
             1532.00,1915.00 1559.96,1903.65 1559.96,1903.65
             1579.10,1892.51 1580.93,1868.72 1594.30,1857.39
             1600.39,1852.22 1619.54,1848.25 1628.00,1845.86
             1628.00,1845.86 1674.00,1833.09 1674.00,1833.09
             1674.00,1833.09 1701.00,1825.01 1701.00,1825.01
             1701.00,1825.01 1724.00,1818.72 1724.00,1818.72
             1726.92,1817.94 1731.99,1815.99 1734.89,1816.91
             1738.30,1817.98 1739.88,1822.95 1741.14,1826.00
             1741.14,1826.00 1751.31,1852.00 1751.31,1852.00
             1754.81,1859.90 1762.36,1875.09 1763.92,1883.00
             1763.92,1883.00 1763.92,1891.00 1763.92,1891.00
             1763.92,1891.00 1766.83,1921.00 1766.83,1921.00
             1766.83,1921.00 1767.38,1930.00 1767.38,1930.00
             1767.38,1930.00 1776.91,1955.00 1776.91,1955.00
             1777.99,1958.41 1779.95,1976.94 1780.00,1981.00
             1780.10,1989.92 1779.94,1994.64 1786.38,2001.83
             1793.79,2010.10 1801.82,2009.56 1802.00,2023.00
             1802.00,2023.00 1802.00,2050.00 1802.00,2050.00
             1802.00,2050.00 1803.14,2061.00 1803.14,2061.00
             1803.14,2061.00 1803.14,2070.00 1803.14,2070.00
             1804.91,2077.67 1811.85,2086.87 1812.00,2099.00
             1812.05,2103.85 1812.63,2114.08 1808.69,2117.41
             1806.71,2119.08 1802.56,2119.49 1800.00,2119.92
             1800.00,2119.92 1781.00,2123.13 1781.00,2123.13
             1781.00,2123.13 1739.00,2130.56 1739.00,2130.56
             1739.00,2130.56 1718.00,2133.66 1718.00,2133.66
             1718.00,2133.66 1655.00,2144.43 1655.00,2144.43
             1655.00,2144.43 1622.00,2150.13 1622.00,2150.13
             1622.00,2150.13 1586.00,2155.81 1586.00,2155.81
             1586.00,2155.81 1566.00,2151.42 1566.00,2151.42
             1561.36,2150.40 1548.60,2147.90 1545.00,2146.24
             1545.00,2146.24 1514.00,2128.54 1514.00,2128.54
             1514.00,2128.54 1474.00,2105.56 1474.00,2105.56
             1474.00,2105.56 1440.00,2086.58 1440.00,2086.58
             1440.00,2086.58 1416.83,2073.10 1416.83,2073.10
             1416.83,2073.10 1367.00,2044.31 1367.00,2044.31
             1367.00,2044.31 1357.00,2039.05 1357.00,2039.05
             1357.00,2039.05 1307.00,2010.27 1307.00,2010.27
             1307.00,2010.27 1284.00,1997.17 1284.00,1997.17
             1280.98,1995.58 1275.82,1993.63 1274.02,1990.67
             1272.78,1988.62 1273.01,1985.35 1273.00,1983.00 Z" />
  <path id="Orion"
        fill="none" stroke="black" stroke-width="1"
        d="M 1681.00,1466.00
           C 1688.36,1467.61 1689.05,1476.69 1690.63,1483.00
             1694.94,1500.25 1696.27,1518.26 1697.04,1536.00
             1697.04,1536.00 1699.91,1572.00 1699.91,1572.00
             1700.88,1586.16 1700.74,1601.09 1703.89,1615.00
             1708.07,1633.50 1713.95,1634.45 1716.36,1644.72
             1716.36,1644.72 1717.16,1652.00 1717.16,1652.00
             1717.55,1655.51 1718.12,1657.25 1717.91,1661.00
             1716.83,1680.04 1707.02,1678.85 1707.00,1696.00
             1707.00,1696.00 1707.94,1714.00 1707.94,1714.00
             1707.94,1714.00 1707.94,1742.00 1707.94,1742.00
             1707.94,1742.00 1710.63,1761.00 1710.63,1761.00
             1712.15,1766.15 1721.96,1785.71 1725.00,1791.00
             1727.23,1794.88 1734.62,1805.40 1731.96,1809.57
             1730.41,1812.01 1724.75,1812.93 1722.00,1813.71
             1722.00,1813.71 1697.00,1820.86 1697.00,1820.86
             1697.00,1820.86 1631.00,1839.58 1631.00,1839.58
             1631.00,1839.58 1599.00,1849.08 1599.00,1849.08
             1588.82,1854.80 1582.45,1864.93 1577.26,1875.00
             1572.03,1885.13 1568.91,1893.71 1558.00,1899.10
             1558.00,1899.10 1527.00,1911.60 1527.00,1911.60
             1527.00,1911.60 1494.00,1924.33 1494.00,1924.33
             1494.00,1924.33 1456.00,1935.15 1456.00,1935.15
             1456.00,1935.15 1419.00,1945.12 1419.00,1945.12
             1419.00,1945.12 1336.00,1964.12 1336.00,1964.12
             1336.00,1964.12 1280.00,1975.92 1280.00,1975.92
             1276.10,1976.61 1264.57,1979.97 1261.74,1977.25
             1259.73,1975.32 1260.09,1971.55 1259.96,1969.00
             1259.96,1969.00 1259.00,1950.00 1259.00,1950.00
             1259.00,1950.00 1258.04,1940.00 1258.04,1940.00
             1258.04,1940.00 1258.04,1929.00 1258.04,1929.00
             1258.04,1929.00 1257.00,1914.00 1257.00,1914.00
             1256.99,1910.30 1257.46,1904.23 1255.83,1901.00
             1254.10,1897.60 1248.95,1893.69 1246.00,1891.00
             1246.00,1891.00 1220.00,1868.07 1220.00,1868.07
             1212.10,1860.91 1206.06,1859.21 1206.00,1848.00
             1206.00,1848.00 1206.00,1834.00 1206.00,1834.00
             1206.00,1834.00 1205.00,1818.00 1205.00,1818.00
             1204.99,1812.82 1205.70,1796.90 1204.07,1793.00
             1200.83,1785.26 1190.40,1774.10 1191.61,1765.00
             1192.67,1757.00 1197.33,1755.83 1201.01,1750.00
             1205.13,1743.47 1205.29,1738.81 1207.04,1732.00
             1207.89,1728.71 1209.17,1725.64 1213.04,1725.33
             1217.00,1725.02 1224.53,1730.46 1228.00,1732.69
             1228.00,1732.69 1261.00,1753.58 1261.00,1753.58
             1261.00,1753.58 1307.00,1782.42 1307.00,1782.42
             1312.05,1785.57 1326.59,1795.27 1331.00,1796.87
             1334.21,1798.03 1344.06,1798.74 1348.00,1799.16
             1348.00,1799.16 1374.00,1802.00 1374.00,1802.00
             1382.20,1802.09 1407.09,1800.66 1414.00,1798.00
             1425.30,1793.64 1434.49,1791.58 1444.00,1783.75
             1448.40,1780.13 1456.33,1774.13 1459.61,1770.00
             1462.16,1766.79 1463.86,1762.61 1465.86,1759.00
             1465.86,1759.00 1472.79,1746.00 1472.79,1746.00
             1472.79,1746.00 1476.00,1732.00 1476.00,1732.00
             1477.57,1724.44 1479.91,1716.75 1480.00,1709.00
             1480.00,1709.00 1480.00,1679.00 1480.00,1679.00
             1480.00,1679.00 1475.04,1631.00 1475.04,1631.00
             1475.48,1623.44 1481.78,1621.70 1488.00,1619.44
             1488.00,1619.44 1531.00,1607.63 1531.00,1607.63
             1531.00,1607.63 1575.00,1596.67 1575.00,1596.67
             1581.83,1594.40 1589.59,1591.50 1594.39,1585.82
             1594.39,1585.82 1615.86,1548.00 1615.86,1548.00
             1626.67,1528.74 1637.76,1512.55 1651.13,1495.00
             1651.13,1495.00 1666.72,1478.00 1666.72,1478.00
             1670.78,1473.39 1674.77,1467.49 1681.00,1466.00 Z" />
  <path id="Pilar"
        fill="none" stroke="black" stroke-width="1"
        d="M 1590.98,1362.68
           C 1598.30,1363.35 1595.40,1371.68 1594.84,1377.00
             1594.84,1377.00 1594.26,1383.00 1594.26,1383.00
             1594.41,1386.85 1599.49,1404.75 1601.47,1408.00
             1603.14,1410.72 1610.70,1419.32 1613.17,1421.99
             1613.17,1421.99 1622.00,1430.00 1622.00,1430.00
             1633.96,1440.32 1636.09,1441.68 1651.00,1446.65
             1658.09,1449.01 1670.71,1449.84 1673.38,1458.00
             1675.24,1463.68 1666.87,1470.03 1663.42,1474.00
             1663.42,1474.00 1649.30,1489.00 1649.30,1489.00
             1649.30,1489.00 1627.30,1518.00 1627.30,1518.00
             1627.30,1518.00 1599.00,1567.00 1599.00,1567.00
             1596.70,1571.06 1590.70,1583.63 1587.61,1585.92
             1584.25,1588.41 1565.01,1594.13 1560.00,1595.37
             1560.00,1595.37 1531.00,1601.88 1531.00,1601.88
             1531.00,1601.88 1503.00,1609.37 1503.00,1609.37
             1494.14,1611.62 1474.74,1616.50 1470.59,1625.02
             1468.35,1629.20 1470.12,1635.44 1470.59,1640.00
             1470.59,1640.00 1474.12,1671.00 1474.12,1671.00
             1474.12,1671.00 1474.12,1694.00 1474.12,1694.00
             1474.12,1694.00 1474.12,1702.00 1474.12,1702.00
             1474.12,1702.00 1474.12,1710.00 1474.12,1710.00
             1473.93,1715.92 1469.45,1739.36 1467.45,1745.00
             1465.82,1749.63 1462.28,1755.64 1459.86,1760.00
             1459.86,1760.00 1455.37,1767.91 1455.37,1767.91
             1453.66,1770.12 1440.59,1781.61 1438.00,1783.37
             1433.82,1786.20 1425.14,1788.56 1420.00,1790.41
             1410.87,1793.71 1403.75,1794.95 1394.00,1795.00
             1394.00,1795.00 1375.00,1796.00 1375.00,1796.00
             1375.00,1796.00 1346.00,1793.28 1346.00,1793.28
             1341.48,1792.74 1337.46,1793.02 1333.00,1791.34
             1333.00,1791.34 1307.00,1775.81 1307.00,1775.81
             1307.00,1775.81 1254.00,1742.81 1254.00,1742.81
             1254.00,1742.81 1226.00,1725.58 1226.00,1725.58
             1222.91,1723.66 1217.19,1720.79 1216.54,1716.96
             1215.82,1712.79 1220.40,1708.49 1222.99,1705.66
             1222.99,1705.66 1240.00,1688.00 1240.00,1688.00
             1242.38,1685.62 1246.63,1682.33 1246.95,1678.83
             1247.13,1676.92 1245.65,1670.25 1245.20,1668.00
             1245.20,1668.00 1240.06,1638.00 1240.06,1638.00
             1240.24,1632.21 1245.10,1624.30 1247.75,1619.00
             1253.50,1607.50 1261.14,1593.36 1268.58,1583.00
             1272.29,1577.83 1275.60,1572.81 1281.00,1569.24
             1295.85,1559.44 1314.29,1554.73 1332.00,1554.04
             1339.83,1553.74 1342.96,1555.79 1350.00,1558.31
             1363.14,1563.00 1385.80,1574.84 1399.00,1575.00
             1399.00,1575.00 1416.00,1575.00 1416.00,1575.00
             1431.09,1574.98 1458.50,1567.38 1472.00,1560.63
             1475.09,1559.08 1480.08,1555.64 1483.00,1553.58
             1486.80,1550.89 1499.19,1543.19 1500.98,1539.91
             1502.31,1537.46 1501.99,1531.28 1502.42,1528.00
             1503.14,1522.59 1502.99,1518.39 1503.00,1513.00
             1503.00,1513.00 1503.96,1501.00 1503.96,1501.00
             1503.96,1501.00 1503.96,1488.00 1503.96,1488.00
             1504.03,1485.59 1503.91,1479.30 1505.20,1477.42
             1507.01,1474.75 1510.29,1475.31 1513.00,1474.50
             1515.32,1473.80 1518.96,1471.58 1520.91,1470.10
             1525.02,1466.97 1527.06,1462.39 1529.58,1458.00
             1529.58,1458.00 1535.53,1447.00 1535.53,1447.00
             1535.53,1447.00 1539.15,1434.00 1539.15,1434.00
             1540.86,1427.77 1547.79,1405.79 1550.41,1401.00
             1553.21,1395.89 1563.00,1387.32 1567.57,1382.00
             1572.93,1375.77 1583.09,1364.76 1590.98,1362.68 Z" />
  <path id="Balanga"
        fill="none" stroke="black" stroke-width="1"
        d="M 1498.00,1469.00
           C 1498.00,1469.00 1498.00,1487.00 1498.00,1487.00
             1498.00,1487.00 1497.00,1509.00 1497.00,1509.00
             1497.00,1509.00 1496.00,1524.00 1496.00,1524.00
             1495.96,1527.63 1496.53,1534.81 1494.83,1537.82
             1493.31,1540.47 1488.58,1543.30 1486.00,1545.14
             1477.27,1551.36 1474.08,1553.83 1464.00,1557.80
             1448.40,1563.93 1448.58,1564.35 1432.00,1567.46
             1423.08,1569.13 1422.78,1570.01 1413.00,1570.00
             1413.00,1570.00 1401.00,1568.88 1401.00,1568.88
             1401.00,1568.88 1393.00,1568.88 1393.00,1568.88
             1393.00,1568.88 1375.00,1563.25 1375.00,1563.25
             1361.26,1558.69 1351.18,1549.19 1335.00,1549.00
             1335.00,1549.00 1327.00,1549.00 1327.00,1549.00
             1313.42,1549.06 1287.66,1557.03 1277.00,1565.39
             1269.28,1571.44 1263.90,1579.83 1258.69,1588.00
             1258.69,1588.00 1241.25,1620.00 1241.25,1620.00
             1239.44,1623.60 1237.15,1629.57 1232.00,1628.16
             1229.23,1627.40 1226.02,1623.99 1224.00,1622.00
             1224.00,1622.00 1211.00,1609.00 1211.00,1609.00
             1211.00,1609.00 1162.83,1560.00 1162.83,1560.00
             1162.83,1560.00 1142.00,1539.00 1142.00,1539.00
             1142.00,1539.00 1099.00,1496.00 1099.00,1496.00
             1099.00,1496.00 1087.00,1483.00 1087.00,1483.00
             1087.00,1483.00 1026.01,1422.00 1026.01,1422.00
             1026.01,1422.00 1010.00,1405.00 1010.00,1405.00
             1010.00,1405.00 963.00,1358.00 963.00,1358.00
             959.34,1354.34 949.36,1345.26 947.74,1341.00
             947.02,1339.11 947.03,1337.00 947.00,1335.00
             947.00,1335.00 946.00,1288.00 946.00,1288.00
             946.00,1285.62 946.21,1282.30 944.98,1280.21
             943.50,1277.71 937.67,1274.80 935.00,1273.20
             935.00,1273.20 913.00,1259.52 913.00,1259.52
             891.91,1243.86 868.91,1221.86 879.88,1193.00
             882.01,1187.39 885.51,1183.61 889.20,1179.00
             889.20,1179.00 900.44,1165.47 900.44,1165.47
             904.43,1162.26 908.63,1164.15 913.00,1165.47
             913.00,1165.47 941.00,1173.86 941.00,1173.86
             941.00,1173.86 963.00,1180.97 963.00,1180.97
             963.00,1180.97 1062.00,1212.98 1062.00,1212.98
             1062.00,1212.98 1132.00,1236.26 1132.00,1236.26
             1132.00,1236.26 1177.00,1250.34 1177.00,1250.34
             1177.00,1250.34 1215.00,1262.57 1215.00,1262.57
             1215.00,1262.57 1255.00,1273.15 1255.00,1273.15
             1255.00,1273.15 1293.00,1283.11 1293.00,1283.11
             1293.00,1283.11 1335.00,1287.38 1335.00,1287.38
             1335.00,1287.38 1356.00,1295.40 1356.00,1295.40
             1366.44,1299.53 1388.09,1305.98 1399.00,1306.00
             1399.00,1306.00 1436.00,1308.00 1436.00,1308.00
             1436.00,1308.00 1453.00,1309.00 1453.00,1309.00
             1453.00,1309.00 1472.00,1309.00 1472.00,1309.00
             1472.00,1309.00 1487.00,1308.00 1487.00,1308.00
             1487.00,1308.00 1514.00,1306.87 1514.00,1306.87
             1518.73,1306.94 1528.86,1304.92 1532.78,1306.87
             1536.83,1308.62 1536.95,1315.16 1537.00,1319.00
             1537.08,1326.52 1535.03,1344.46 1541.39,1349.25
             1545.97,1352.69 1553.67,1346.43 1558.00,1344.27
             1558.00,1344.27 1583.91,1334.01 1583.91,1334.01
             1590.76,1329.01 1591.67,1321.80 1595.39,1318.84
             1599.63,1315.46 1619.77,1307.34 1619.12,1321.00
             1618.68,1330.33 1609.92,1345.67 1601.96,1350.65
             1601.96,1350.65 1583.00,1360.05 1583.00,1360.05
             1570.14,1369.53 1567.38,1375.39 1557.83,1386.00
             1557.83,1386.00 1546.51,1397.42 1546.51,1397.42
             1544.30,1400.11 1541.26,1409.32 1540.00,1413.00
             1540.00,1413.00 1526.68,1453.00 1526.68,1453.00
             1524.46,1457.24 1520.91,1464.50 1516.96,1466.99
             1512.40,1469.87 1503.43,1469.00 1498.00,1469.00 Z" />
  <path id="Abucay"
        fill="none" stroke="black" stroke-width="1"
        d="M 1352.00,1090.53
           C 1355.36,1089.98 1356.65,1090.01 1360.00,1090.00
             1360.00,1090.00 1378.00,1090.00 1378.00,1090.00
             1387.24,1090.04 1406.95,1094.80 1417.00,1096.80
             1417.00,1096.80 1497.00,1112.20 1497.00,1112.20
             1497.00,1112.20 1530.00,1118.75 1530.00,1118.75
             1532.82,1119.24 1540.38,1119.95 1541.18,1123.28
             1541.93,1126.39 1535.80,1133.47 1533.87,1136.00
             1529.23,1142.09 1526.23,1145.09 1520.00,1149.57
             1514.17,1153.77 1505.43,1159.59 1503.43,1167.00
             1503.01,1168.55 1502.97,1171.31 1502.87,1173.00
             1501.68,1193.88 1513.15,1209.92 1521.14,1228.00
             1528.31,1244.23 1527.50,1249.98 1529.72,1267.00
             1529.72,1267.00 1532.72,1290.00 1532.72,1290.00
             1533.02,1292.59 1533.54,1297.14 1531.40,1299.07
             1529.06,1301.17 1523.04,1301.00 1520.00,1301.00
             1520.00,1301.00 1483.00,1302.00 1483.00,1302.00
             1483.00,1302.00 1473.00,1302.96 1473.00,1302.96
             1473.00,1302.96 1460.00,1302.96 1460.00,1302.96
             1460.00,1302.96 1444.00,1302.00 1444.00,1302.00
             1444.00,1302.00 1405.00,1300.00 1405.00,1300.00
             1389.24,1299.81 1372.71,1295.08 1358.00,1289.58
             1358.00,1289.58 1339.00,1282.76 1339.00,1282.76
             1330.26,1280.51 1311.33,1279.11 1302.00,1279.00
             1295.34,1278.92 1281.96,1274.82 1275.00,1272.86
             1275.00,1272.86 1232.00,1261.37 1232.00,1261.37
             1232.00,1261.37 1161.00,1239.34 1161.00,1239.34
             1161.00,1239.34 1030.00,1197.28 1030.00,1197.28
             1030.00,1197.28 989.00,1184.49 989.00,1184.49
             989.00,1184.49 942.00,1168.28 942.00,1168.28
             942.00,1168.28 921.02,1161.89 921.02,1161.89
             917.89,1160.46 915.15,1157.98 917.19,1154.33
             918.81,1151.43 925.00,1148.75 928.00,1147.25
             928.00,1147.25 955.00,1134.25 955.00,1134.25
             955.00,1134.25 990.00,1115.72 990.00,1115.72
             999.31,1110.43 1003.96,1105.83 1015.00,1106.02
             1015.00,1106.02 1036.00,1107.00 1036.00,1107.00
             1036.00,1107.00 1061.00,1107.00 1061.00,1107.00
             1061.00,1107.00 1077.00,1108.00 1077.00,1108.00
             1077.00,1108.00 1102.00,1108.00 1102.00,1108.00
             1102.00,1108.00 1118.00,1109.00 1118.00,1109.00
             1118.00,1109.00 1143.00,1109.00 1143.00,1109.00
             1143.00,1109.00 1159.00,1110.00 1159.00,1110.00
             1159.00,1110.00 1184.00,1110.00 1184.00,1110.00
             1184.00,1110.00 1201.00,1111.00 1201.00,1111.00
             1201.00,1111.00 1225.00,1111.00 1225.00,1111.00
             1225.00,1111.00 1242.00,1112.00 1242.00,1112.00
             1242.00,1112.00 1267.00,1112.00 1267.00,1112.00
             1267.00,1112.00 1288.00,1113.00 1288.00,1113.00
             1298.04,1112.98 1302.87,1109.85 1312.00,1106.20
             1312.00,1106.20 1352.00,1090.53 1352.00,1090.53 Z" />
  <path id="Samal"
        fill="none" stroke="black" stroke-width="1"
        d="M 1442.00,933.14
           C 1442.00,933.14 1473.00,933.14 1473.00,933.14
             1473.00,933.14 1528.00,933.14 1528.00,933.14
             1530.98,933.01 1535.11,932.70 1537.44,934.89
             1539.15,936.50 1539.60,939.76 1539.83,942.00
             1540.37,947.26 1542.16,958.62 1539.26,962.83
             1534.76,969.39 1521.06,973.86 1522.48,984.00
             1524.65,999.52 1540.73,994.62 1541.00,1009.00
             1541.07,1012.98 1541.59,1019.43 1539.26,1022.71
             1535.66,1027.78 1526.25,1031.02 1528.88,1039.00
             1529.56,1041.08 1531.83,1044.18 1533.15,1046.00
             1543.44,1060.19 1556.87,1063.68 1563.37,1072.09
             1568.34,1078.53 1572.07,1088.78 1567.06,1096.00
             1564.13,1100.23 1553.36,1113.23 1548.91,1114.77
             1545.69,1115.88 1541.28,1114.65 1538.00,1114.00
             1538.00,1114.00 1519.00,1110.42 1519.00,1110.42
             1519.00,1110.42 1446.00,1096.80 1446.00,1096.80
             1446.00,1096.80 1392.00,1086.58 1392.00,1086.58
             1392.00,1086.58 1379.00,1084.00 1379.00,1084.00
             1379.00,1084.00 1368.00,1084.00 1368.00,1084.00
             1364.77,1083.52 1362.39,1082.76 1359.00,1083.21
             1355.43,1083.68 1346.74,1087.33 1343.00,1088.80
             1343.00,1088.80 1311.00,1100.95 1311.00,1100.95
             1301.37,1104.54 1298.52,1106.98 1288.00,1107.00
             1288.00,1107.00 1240.00,1107.00 1240.00,1107.00
             1240.00,1107.00 1223.00,1106.00 1223.00,1106.00
             1223.00,1106.00 1199.00,1106.00 1199.00,1106.00
             1199.00,1106.00 1182.00,1105.00 1182.00,1105.00
             1182.00,1105.00 1158.00,1105.00 1158.00,1105.00
             1158.00,1105.00 1141.00,1104.00 1141.00,1104.00
             1141.00,1104.00 1076.00,1103.00 1076.00,1103.00
             1076.00,1103.00 1060.00,1102.00 1060.00,1102.00
             1060.00,1102.00 1033.00,1102.00 1033.00,1102.00
             1029.00,1101.95 1018.62,1101.69 1020.66,1095.08
             1021.40,1092.69 1025.15,1089.74 1027.00,1087.96
             1027.00,1087.96 1041.00,1074.00 1041.00,1074.00
             1041.00,1074.00 1054.00,1061.32 1054.00,1061.32
             1054.00,1061.32 1097.00,1031.51 1097.00,1031.51
             1097.00,1031.51 1119.00,1021.58 1119.00,1021.58
             1119.00,1021.58 1150.00,1008.25 1150.00,1008.25
             1150.00,1008.25 1202.00,1002.16 1202.00,1002.16
             1202.00,1002.16 1219.00,1000.37 1219.00,1000.37
             1219.00,1000.37 1249.00,984.78 1249.00,984.78
             1249.00,984.78 1313.00,951.22 1313.00,951.22
             1313.00,951.22 1345.00,934.63 1345.00,934.63
             1347.60,933.90 1350.33,934.00 1353.00,934.00
             1353.00,934.00 1410.00,934.00 1410.00,934.00
             1410.00,934.00 1442.00,933.14 1442.00,933.14 Z" />
  <path id="Orani"
        fill="none" stroke="black" stroke-width="1"
        d="M 1512.00,710.44
           C 1520.36,709.58 1523.22,712.96 1526.75,720.00
             1527.79,722.06 1529.18,724.75 1529.57,727.00
             1529.57,727.00 1529.00,738.00 1529.00,738.00
             1528.95,742.68 1529.31,747.60 1527.35,752.00
             1522.90,762.01 1516.80,761.49 1517.82,777.00
             1518.04,780.30 1516.65,789.28 1516.13,793.00
             1516.13,793.00 1512.25,818.00 1512.25,818.00
             1510.06,826.30 1505.26,842.61 1505.95,851.00
             1506.23,854.32 1509.28,861.56 1510.58,865.00
             1510.58,865.00 1515.37,877.00 1515.37,877.00
             1515.37,877.00 1526.58,899.00 1526.58,899.00
             1526.58,899.00 1534.36,918.00 1534.36,918.00
             1535.15,920.53 1536.54,924.15 1534.36,926.40
             1532.55,928.32 1528.47,928.00 1526.00,928.00
             1526.00,928.00 1451.00,928.00 1451.00,928.00
             1451.00,928.00 1436.00,929.13 1436.00,929.13
             1436.00,929.13 1353.00,929.13 1353.00,929.13
             1350.81,929.00 1348.12,928.93 1346.00,929.13
             1340.80,930.51 1319.47,942.52 1313.00,945.75
             1313.00,945.75 1245.00,981.26 1245.00,981.26
             1245.00,981.26 1219.00,994.65 1219.00,994.65
             1214.70,996.38 1206.82,996.69 1202.00,997.28
             1202.00,997.28 1172.00,1000.83 1172.00,1000.83
             1164.40,1001.56 1154.24,1001.55 1147.00,1003.63
             1147.00,1003.63 1126.00,1012.58 1126.00,1012.58
             1126.00,1012.58 1094.00,1026.93 1094.00,1026.93
             1094.00,1026.93 1082.00,1035.42 1082.00,1035.42
             1082.00,1035.42 1062.00,1049.71 1062.00,1049.71
             1055.09,1054.65 1052.88,1057.88 1044.00,1058.00
             1044.00,1058.00 1020.00,1058.00 1020.00,1058.00
             1020.00,1058.00 1004.00,1059.00 1004.00,1059.00
             1004.00,1059.00 981.00,1059.00 981.00,1059.00
             975.56,1058.99 967.17,1057.74 973.43,1050.30
             975.98,1047.26 991.10,1037.45 999.91,1028.00
             999.91,1028.00 1033.37,990.00 1033.37,990.00
             1033.37,990.00 1064.14,938.00 1064.14,938.00
             1064.14,938.00 1087.75,891.00 1087.75,891.00
             1089.60,887.31 1095.48,873.90 1098.39,872.19
             1099.53,871.52 1100.64,871.37 1101.93,871.69
             1101.93,871.69 1116.00,880.40 1116.00,880.40
             1116.00,880.40 1141.00,895.16 1141.00,895.16
             1141.00,895.16 1150.00,897.04 1150.00,897.04
             1157.10,898.71 1155.08,898.99 1163.00,899.00
             1163.00,899.00 1224.00,900.00 1224.00,900.00
             1235.40,899.98 1237.74,895.96 1247.00,889.66
             1247.00,889.66 1282.00,865.14 1282.00,865.14
             1282.00,865.14 1420.00,768.28 1420.00,768.28
             1420.00,768.28 1473.00,731.28 1473.00,731.28
             1485.92,722.24 1495.99,713.41 1512.00,710.44 Z
           M 1555.00,830.43
           C 1560.43,829.88 1566.81,830.34 1570.35,835.06
             1573.24,838.91 1573.12,844.36 1573.72,849.00
             1575.32,861.32 1575.14,873.59 1575.00,886.00
             1574.94,890.56 1574.43,904.45 1568.89,905.46
             1565.35,906.11 1562.87,903.27 1560.72,900.96
             1555.83,895.68 1552.83,892.08 1548.95,886.00
             1541.67,874.58 1533.41,859.03 1535.59,845.00
             1536.11,841.64 1536.51,836.04 1539.31,833.85
             1541.98,831.77 1551.32,830.98 1555.00,830.43 Z" />
  <path id="Hermosa"
        fill="none" stroke="black" stroke-width="1"
        d="M 1271.13,521.08
           C 1276.63,521.37 1278.46,525.25 1282.04,529.00
             1282.04,529.00 1303.09,552.00 1303.09,552.00
             1303.09,552.00 1339.28,591.58 1339.28,591.58
             1352.76,604.82 1372.80,620.07 1389.00,629.93
             1389.00,629.93 1399.00,634.78 1399.00,634.78
             1419.12,644.22 1421.80,645.23 1443.00,651.42
             1452.30,654.14 1458.12,656.98 1468.00,657.00
             1468.00,657.00 1494.00,657.00 1494.00,657.00
             1494.00,657.00 1530.00,655.00 1530.00,655.00
             1530.00,655.00 1562.00,655.00 1562.00,655.00
             1571.51,655.01 1575.71,654.96 1578.24,665.00
             1578.86,667.46 1579.53,671.28 1577.40,673.22
             1575.34,675.10 1568.09,673.93 1565.00,674.02
             1562.17,674.09 1559.61,674.32 1557.21,676.01
             1551.65,679.93 1550.01,692.63 1550.00,699.00
             1550.00,699.00 1550.00,707.00 1550.00,707.00
             1549.99,715.53 1550.66,720.58 1541.00,722.48
             1539.11,722.85 1537.11,723.05 1535.39,721.97
             1532.87,720.41 1531.62,715.98 1529.37,713.09
             1524.48,706.83 1516.72,704.04 1509.00,705.32
             1496.61,707.39 1488.77,714.20 1479.00,721.26
             1479.00,721.26 1464.00,731.72 1464.00,731.72
             1464.00,731.72 1300.00,846.42 1300.00,846.42
             1300.00,846.42 1251.00,880.71 1251.00,880.71
             1246.35,884.03 1234.76,892.92 1230.00,894.35
             1227.49,895.11 1224.61,895.00 1222.00,895.00
             1222.00,895.00 1203.00,894.00 1203.00,894.00
             1203.00,894.00 1180.00,894.00 1180.00,894.00
             1180.00,894.00 1158.00,892.79 1158.00,892.79
             1153.98,893.05 1149.83,894.21 1146.00,892.79
             1146.00,892.79 1115.00,873.66 1115.00,873.66
             1113.10,872.43 1110.02,870.28 1108.00,869.50
             1104.53,868.17 1096.32,868.85 1093.21,870.93
             1089.92,873.14 1085.71,883.09 1083.75,887.00
             1083.75,887.00 1064.75,925.00 1064.75,925.00
             1064.75,925.00 1041.80,965.00 1041.80,965.00
             1041.80,965.00 1026.47,990.00 1026.47,990.00
             1026.47,990.00 1007.16,1012.00 1007.16,1012.00
             997.16,1023.20 995.41,1026.75 983.00,1036.42
             970.33,1046.30 971.55,1045.31 958.00,1053.00
             953.54,1055.53 947.07,1059.40 942.00,1059.90
             939.40,1060.15 933.41,1060.28 931.21,1058.98
             927.79,1056.95 922.20,1042.31 920.23,1038.00
             920.23,1038.00 901.14,994.00 901.14,994.00
             901.14,994.00 886.85,962.00 886.85,962.00
             886.85,962.00 804.72,775.00 804.72,775.00
             804.72,775.00 782.15,724.00 782.15,724.00
             780.57,720.32 774.24,707.17 774.64,704.04
             775.31,698.78 782.97,697.30 791.00,689.91
             798.17,683.32 808.53,673.30 817.00,668.53
             825.35,663.83 848.21,659.89 858.00,660.00
             867.48,660.11 877.50,663.51 885.00,669.39
             895.47,677.60 895.47,684.98 910.00,685.00
             910.00,685.00 940.00,685.00 940.00,685.00
             940.00,685.00 978.00,689.87 978.00,689.87
             1001.26,693.11 1024.56,696.02 1048.00,697.04
             1048.00,697.04 1059.00,698.00 1059.00,698.00
             1064.71,698.06 1070.86,698.68 1075.96,695.64
             1081.49,692.33 1088.30,679.83 1091.80,674.00
             1096.16,666.73 1105.46,652.44 1112.01,647.63
             1114.02,646.16 1120.57,642.86 1123.00,641.80
             1133.38,637.25 1140.19,648.56 1147.00,654.96
             1153.78,661.32 1161.80,663.81 1171.00,662.83
             1182.50,661.60 1206.51,655.76 1214.68,647.67
             1217.22,645.15 1220.18,640.37 1221.44,637.00
             1223.00,632.84 1223.04,627.64 1228.04,625.93
             1233.36,624.12 1240.15,631.53 1244.00,634.75
             1249.52,639.38 1259.73,650.11 1267.00,650.30
             1270.17,650.38 1274.10,648.15 1277.00,646.86
             1279.20,645.88 1281.80,644.97 1283.61,643.35
             1287.09,640.25 1292.85,628.60 1291.42,624.00
             1289.49,617.78 1281.17,612.20 1277.23,603.00
             1272.04,590.89 1268.03,569.19 1268.00,556.00
             1268.00,556.00 1267.00,540.00 1267.00,540.00
             1266.94,534.18 1265.06,524.17 1271.13,521.08 Z" />
  <path id="Dinalupihan"
        fill="none" stroke="black" stroke-width="1"
        d="M 1214.00,221.70
           C 1227.38,218.70 1233.27,228.31 1242.00,237.00
             1248.04,243.01 1267.80,258.98 1271.01,264.01
             1274.69,269.81 1275.99,277.27 1276.00,284.00
             1276.00,284.00 1276.00,326.00 1276.00,326.00
             1276.00,326.00 1277.00,343.00 1277.00,343.00
             1277.00,343.00 1278.21,365.00 1278.21,365.00
             1279.73,375.04 1286.94,379.39 1287.00,392.00
             1287.00,392.00 1287.00,434.00 1287.00,434.00
             1286.88,443.91 1281.38,454.12 1277.31,463.00
             1270.66,477.49 1265.19,489.79 1265.00,506.00
             1265.00,506.00 1262.00,537.00 1262.00,537.00
             1262.00,537.00 1262.91,548.00 1262.91,548.00
             1263.52,556.87 1262.42,558.45 1264.14,569.00
             1264.14,569.00 1267.13,584.00 1267.13,584.00
             1267.13,584.00 1269.93,601.83 1269.93,601.83
             1269.93,601.83 1279.29,615.00 1279.29,615.00
             1285.22,622.18 1288.21,624.65 1283.74,634.00
             1283.08,635.37 1281.94,637.61 1281.04,638.79
             1279.30,641.05 1277.53,641.97 1275.00,643.13
             1272.54,644.26 1268.71,645.95 1266.00,645.47
             1263.06,644.95 1260.29,642.26 1258.00,640.45
             1258.00,640.45 1243.00,627.87 1243.00,627.87
             1239.84,625.21 1233.95,620.94 1229.58,621.11
             1228.01,621.17 1225.41,622.20 1224.01,622.91
             1213.14,628.42 1219.19,637.27 1210.82,644.39
             1200.96,652.78 1177.79,657.15 1165.00,657.00
             1153.97,656.86 1150.26,651.64 1143.09,644.00
             1138.35,638.95 1131.70,632.94 1124.00,635.70
             1107.90,641.48 1096.99,655.85 1088.46,670.00
             1085.61,674.72 1077.08,689.82 1072.96,691.98
             1070.56,693.24 1066.70,693.03 1064.00,693.00
             1064.00,693.00 1034.00,690.17 1034.00,690.17
             1034.00,690.17 966.00,682.83 966.00,682.83
             966.00,682.83 936.00,680.00 936.00,680.00
             936.00,680.00 922.00,679.00 922.00,679.00
             922.00,679.00 908.00,679.00 908.00,679.00
             897.26,678.80 896.77,671.28 889.00,665.63
             878.75,658.20 867.58,654.53 855.00,654.04
             846.09,653.69 824.94,659.24 817.00,663.40
             813.75,665.10 802.21,673.82 799.00,676.46
             792.14,682.10 778.16,696.15 770.00,698.49
             767.92,699.09 765.18,699.00 763.00,699.00
             763.00,699.00 736.00,699.00 736.00,699.00
             736.00,699.00 720.00,698.00 720.00,698.00
             720.00,698.00 695.00,698.00 695.00,698.00
             695.00,698.00 678.00,696.98 678.00,696.98
             676.21,696.90 673.38,696.89 672.82,694.69
             671.71,690.30 681.86,684.69 685.00,682.69
             685.00,682.69 735.00,659.06 735.00,659.06
             735.00,659.06 794.00,639.50 794.00,639.50
             794.00,639.50 841.00,632.72 841.00,632.72
             841.00,632.72 899.00,624.42 899.00,624.42
             899.00,624.42 948.00,617.28 948.00,617.28
             953.04,616.62 963.90,616.13 967.48,612.69
             967.48,612.69 978.42,597.00 978.42,597.00
             978.42,597.00 992.95,577.00 992.95,577.00
             992.95,577.00 1003.00,561.00 1003.00,561.00
             1003.00,561.00 1072.67,457.00 1072.67,457.00
             1072.67,457.00 1122.02,384.00 1122.02,384.00
             1122.02,384.00 1139.00,359.00 1139.00,359.00
             1139.00,359.00 1146.75,347.00 1146.75,347.00
             1148.91,341.84 1141.79,334.12 1138.86,330.00
             1138.86,330.00 1111.98,291.00 1111.98,291.00
             1110.02,288.17 1102.77,279.54 1103.74,276.31
             1104.70,273.13 1112.32,274.03 1115.00,274.00
             1121.87,273.91 1138.71,268.49 1145.00,265.34
             1145.00,265.34 1154.00,259.81 1154.00,259.81
             1154.00,259.81 1183.00,241.28 1183.00,241.28
             1194.45,233.24 1200.53,227.43 1214.00,221.70 Z" />
  <path id="Morong"
        fill="none" stroke="black" stroke-width="1"
        d="M 659.00,703.44
           C 669.39,702.10 678.82,703.98 689.00,704.00
             689.00,704.00 733.00,704.00 733.00,704.00
             733.00,704.00 745.00,704.96 745.00,704.96
             745.00,704.96 760.00,704.96 760.00,704.96
             762.37,705.00 765.72,704.80 767.79,706.02
             771.41,708.17 776.24,722.49 778.31,727.00
             778.31,727.00 811.00,801.00 811.00,801.00
             811.00,801.00 899.28,1002.00 899.28,1002.00
             899.28,1002.00 919.58,1048.00 919.58,1048.00
             920.94,1051.13 926.34,1064.60 928.42,1065.99
             931.83,1068.24 946.10,1066.01 951.00,1065.99
             951.00,1065.99 965.00,1065.99 965.00,1065.99
             965.00,1065.99 981.00,1065.00 981.00,1065.00
             981.00,1065.00 996.00,1065.00 996.00,1065.00
             996.00,1065.00 1012.00,1064.00 1012.00,1064.00
             1012.00,1064.00 1030.00,1064.00 1030.00,1064.00
             1031.90,1064.04 1034.69,1063.91 1035.97,1065.60
             1038.87,1069.39 1033.36,1074.59 1031.00,1077.00
             1025.85,1082.25 1008.33,1099.35 1003.00,1102.68
             981.61,1116.05 958.36,1126.20 936.00,1137.74
             920.99,1145.49 905.18,1153.02 893.87,1166.00
             890.20,1170.22 877.84,1184.06 875.84,1188.00
             872.60,1194.44 871.91,1203.88 872.00,1211.00
             872.08,1217.06 876.52,1228.86 879.81,1234.00
             885.84,1243.38 904.49,1259.74 914.00,1266.11
             914.00,1266.11 930.00,1275.70 930.00,1275.70
             932.89,1277.29 937.30,1279.25 938.98,1282.18
             940.20,1284.33 940.00,1287.57 940.00,1290.00
             940.00,1290.00 940.00,1305.00 940.00,1305.00
             940.00,1305.00 940.83,1321.00 940.83,1321.00
             940.83,1321.00 940.83,1340.00 940.83,1340.00
             941.00,1342.21 941.09,1344.88 940.83,1347.00
             939.47,1350.76 929.78,1363.82 926.88,1368.00
             926.88,1368.00 906.52,1397.00 906.52,1397.00
             906.52,1397.00 890.45,1420.00 890.45,1420.00
             890.45,1420.00 870.04,1456.00 870.04,1456.00
             870.04,1456.00 853.06,1502.00 853.06,1502.00
             844.49,1525.73 826.10,1561.89 808.91,1579.99
             808.91,1579.99 790.50,1597.09 790.50,1597.09
             787.13,1601.40 784.24,1613.29 781.92,1616.90
             779.20,1621.11 774.01,1622.35 770.00,1624.96
             770.00,1624.96 761.00,1632.16 761.00,1632.16
             755.80,1635.38 749.86,1635.06 744.00,1635.00
             736.58,1634.91 723.36,1633.23 718.70,1626.90
             714.70,1621.46 714.30,1605.98 704.82,1597.38
             699.04,1592.13 693.03,1592.64 686.00,1591.12
             683.68,1590.61 679.37,1590.04 677.72,1588.41
             676.72,1587.41 670.44,1570.73 662.00,1568.55
             655.53,1566.88 652.27,1577.57 649.21,1580.51
             646.35,1583.27 643.51,1582.24 640.00,1582.09
             631.03,1581.69 621.84,1584.25 615.22,1590.52
             611.20,1594.33 609.91,1601.55 607.19,1604.69
             604.85,1607.38 588.66,1609.64 585.11,1608.57
             580.98,1607.32 580.90,1603.63 581.29,1600.00
             582.35,1590.06 584.12,1583.53 584.00,1573.00
             584.00,1573.00 582.98,1558.00 582.98,1558.00
             582.70,1548.90 575.70,1539.32 566.00,1544.85
             555.56,1550.81 548.15,1563.84 543.96,1566.36
             540.66,1568.35 533.42,1566.29 531.74,1562.75
             530.92,1561.02 531.01,1557.92 531.00,1556.00
             531.00,1556.00 531.00,1552.00 531.00,1552.00
             530.96,1548.59 530.71,1545.26 529.59,1542.00
             528.02,1537.40 517.39,1520.59 513.91,1517.17
             513.91,1517.17 498.31,1502.91 498.31,1502.91
             494.28,1497.90 497.08,1488.84 493.15,1482.00
             491.04,1478.33 485.26,1471.53 482.45,1468.00
             469.51,1451.79 470.86,1453.53 455.00,1440.25
             455.00,1440.25 445.00,1431.80 445.00,1431.80
             435.13,1424.92 423.08,1428.09 412.00,1425.32
             407.17,1424.12 390.77,1413.09 386.09,1409.64
             376.97,1402.91 376.97,1393.46 370.79,1387.46
             363.26,1380.15 354.29,1377.27 349.00,1372.79
             335.20,1361.09 336.12,1356.05 329.47,1348.09
             321.42,1338.45 316.02,1342.81 316.00,1330.00
             316.00,1330.00 316.00,1282.00 316.00,1282.00
             316.00,1282.00 316.96,1270.00 316.96,1270.00
             316.96,1270.00 316.96,1258.00 316.96,1258.00
             317.16,1246.56 322.49,1245.61 327.47,1237.00
             331.81,1229.51 337.10,1215.46 339.58,1207.00
             342.10,1198.37 342.81,1193.61 339.04,1185.00
             335.86,1177.75 330.76,1175.41 330.21,1166.00
             329.72,1157.62 334.83,1156.31 339.56,1150.96
             342.74,1147.37 346.28,1141.69 350.09,1139.14
             353.89,1136.60 359.53,1135.92 364.00,1135.00
             375.94,1132.53 386.68,1129.68 398.00,1136.97
             408.30,1143.59 414.20,1154.94 428.00,1157.44
             430.45,1157.88 432.64,1157.53 435.00,1156.83
             446.81,1153.32 446.41,1138.89 447.09,1129.00
             447.31,1125.73 448.09,1123.37 447.81,1120.00
             446.85,1108.30 438.35,1092.89 426.00,1090.31
             421.52,1089.38 416.11,1092.98 412.00,1094.53
             407.86,1096.10 397.65,1097.44 393.00,1097.83
             389.06,1098.16 387.63,1097.53 384.00,1097.17
             384.00,1097.17 366.00,1094.79 366.00,1094.79
             366.00,1094.79 351.00,1091.14 351.00,1091.14
             342.74,1089.79 325.14,1088.51 318.22,1084.43
             315.47,1082.82 310.13,1069.92 307.68,1066.00
             303.31,1059.01 296.92,1055.77 295.57,1049.00
             294.97,1046.01 295.92,1042.04 296.41,1039.00
             296.97,1035.50 296.69,1030.55 301.11,1029.93
             301.11,1029.93 313.00,1029.93 313.00,1029.93
             324.48,1029.86 348.13,1026.28 357.98,1020.73
             367.05,1015.62 363.79,1006.40 360.17,999.00
             358.60,995.72 354.84,989.90 360.17,987.84
             362.33,986.90 365.64,987.78 368.00,987.84
             379.22,988.53 391.89,983.30 402.00,979.00
             402.00,979.00 431.00,965.86 431.00,965.86
             436.82,962.61 448.07,957.05 446.22,949.00
             444.57,941.86 435.05,937.97 429.00,934.78
             429.00,934.78 398.00,918.86 398.00,918.86
             394.32,917.22 381.98,911.96 379.99,909.37
             376.06,904.84 378.70,890.39 379.99,885.00
             380.91,882.19 381.52,879.33 384.27,877.85
             391.35,874.07 405.06,873.45 413.00,872.91
             413.00,872.91 449.00,871.00 449.00,871.00
             452.28,871.01 456.89,870.73 459.59,872.85
             462.09,874.82 463.05,879.19 464.53,882.00
             467.81,888.21 472.99,891.87 480.00,892.00
             489.60,892.17 489.76,891.95 498.00,887.00
             505.84,882.28 514.75,874.89 519.52,867.00
             519.52,867.00 537.53,823.00 537.53,823.00
             541.52,815.40 561.86,799.71 569.42,791.83
             569.42,791.83 590.54,769.00 590.54,769.00
             590.54,769.00 612.17,742.00 612.17,742.00
             612.17,742.00 628.00,726.00 628.00,726.00
             632.25,721.77 648.31,707.49 653.00,705.15
             655.00,704.15 656.85,703.86 659.00,703.44 Z" />
</svg>
