<?xml version="1.0" encoding="UTF-8" standalone="no"?>
<!DOCTYPE svg PUBLIC "-//W3C//DTD SVG 20010904//EN"
              "http://www.w3.org/TR/2001/REC-SVG-20010904/DTD/svg10.dtd">

<svg xmlns="http://www.w3.org/2000/svg"
     width="52.9168mm" height="86.0215mm"
     viewBox="0 0 625 1016">
  <path id="Sabtang"
        fill="none" stroke="black" stroke-width="1"
        d="M 279.00,989.21
           C 276.67,989.31 272.43,990.27 270.32,989.21
             267.97,988.46 265.19,984.09 263.63,982.00
             257.26,973.49 254.02,970.89 254.00,960.00
             254.00,960.00 254.68,945.00 254.68,945.00
             255.40,935.25 249.71,933.68 248.33,926.00
             247.07,919.04 251.75,900.53 253.73,893.00
             254.59,889.75 255.62,883.88 259.13,882.64
             264.45,880.76 273.57,889.62 277.00,893.00
             277.00,893.00 287.72,904.00 287.72,904.00
             294.16,911.32 302.86,918.66 303.00,929.00
             303.07,934.66 302.48,953.53 299.84,957.79
             296.09,963.82 286.95,961.88 282.23,965.70
             277.37,969.63 279.00,983.00 279.00,989.21 Z
           M 194.79,909.00
           C 193.66,908.78 192.52,908.80 191.31,907.98
             186.27,904.54 192.40,897.85 194.79,905.06
             194.95,906.34 194.92,907.69 194.79,909.00 Z
           M 216.00,903.59
           C 219.56,903.51 219.91,903.68 222.98,905.69
             229.65,910.06 228.05,914.73 228.00,922.00
             227.99,923.92 228.06,926.18 227.41,928.00
             226.61,930.23 224.92,932.14 223.49,934.00
             221.62,936.44 218.53,940.98 215.13,941.18
             211.28,941.40 209.65,933.86 209.09,931.00
             208.08,925.73 207.54,910.59 210.85,906.42
             212.34,904.53 213.87,904.24 216.00,903.59 Z" />
  <path id="Uyugan"
        fill="none" stroke="black" stroke-width="1"
        d="M 342.00,888.00
           C 342.00,888.00 359.86,849.00 359.86,849.00
             362.94,842.09 363.77,837.16 372.00,837.00
             372.00,837.00 389.00,836.00 389.00,836.00
             391.05,835.98 395.96,835.81 397.67,836.57
             401.35,838.21 403.63,845.39 401.94,848.96
             400.09,852.87 395.88,853.56 395.02,859.00
             394.75,862.07 396.14,865.55 395.02,867.40
             393.24,869.84 389.79,867.94 385.18,872.23
             381.24,875.89 377.89,883.66 373.91,886.40
             371.38,888.14 368.92,887.98 366.00,888.00
             366.00,888.00 342.00,888.00 342.00,888.00 Z" />
  <path id="Ivana"
        fill="none" stroke="black" stroke-width="1"
        d="M 332.00,888.00
           C 332.00,888.00 333.77,874.00 333.77,874.00
             333.39,868.18 330.14,869.83 332.10,860.00
             333.40,853.47 336.19,852.69 339.13,841.00
             341.60,831.17 342.86,821.80 353.00,817.00
             353.00,817.00 363.20,836.00 363.20,836.00
             363.20,836.00 357.86,849.00 357.86,849.00
             357.86,849.00 345.24,876.00 345.24,876.00
             345.24,876.00 339.37,886.40 339.37,886.40
             339.37,886.40 332.00,888.00 332.00,888.00 Z" />
  <path id="Mahatao"
        fill="none" stroke="black" stroke-width="1"
        d="M 387.00,780.00
           C 396.44,784.02 405.97,783.00 416.00,783.00
             415.38,785.69 414.75,788.58 413.16,790.90
             410.96,794.10 407.93,794.99 405.09,797.39
             405.09,797.39 398.91,803.48 398.91,803.48
             398.91,803.48 390.02,810.09 390.02,810.09
             386.13,813.37 381.30,819.42 384.19,824.83
             386.16,828.53 392.20,830.58 396.00,834.00
             396.00,834.00 373.00,834.00 373.00,834.00
             370.74,834.00 367.46,834.24 365.52,833.01
             363.38,831.65 360.96,827.22 359.58,825.00
             358.10,822.62 354.52,818.03 355.41,815.18
             356.09,813.03 365.67,805.82 367.96,803.72
             374.45,797.74 382.05,787.43 387.00,780.00 Z" />
  <path id="Basco"
        fill="none" stroke="black" stroke-width="1"
        d="M 380.00,748.00
           C 387.58,745.57 395.45,747.91 403.00,744.64
             409.44,741.85 415.05,734.53 421.00,731.44
             426.38,728.64 432.15,728.99 438.00,729.00
             451.27,729.02 450.42,731.59 456.93,742.00
             459.21,745.63 462.24,749.22 460.26,753.79
             459.32,755.96 456.92,757.52 455.27,759.21
             452.21,762.35 447.48,769.98 443.91,771.40
             440.70,772.68 434.87,771.28 431.09,772.73
             431.09,772.73 426.72,775.38 426.72,775.38
             426.72,775.38 416.00,780.50 416.00,780.50
             412.93,781.45 402.48,781.04 399.00,780.50
             396.81,780.28 391.99,779.94 390.31,778.83
             387.87,777.21 388.06,774.27 386.59,771.00
             384.57,766.52 381.67,763.17 380.53,758.00
             380.53,758.00 380.00,748.00 380.00,748.00 Z" />
  <path id="Itbayat"
        fill="none" stroke="black" stroke-width="1"
        d="M 368.00,25.00
           C 367.76,17.23 364.44,13.98 365.35,9.96
             366.44,5.57 372.36,7.62 374.40,9.96
             376.60,12.07 376.76,20.93 374.40,23.15
             372.73,24.72 370.14,24.80 368.00,25.00 Z
           M 348.00,230.00
           C 348.00,230.00 344.00,230.00 344.00,230.00
             339.43,229.93 335.56,229.48 333.39,224.96
             332.15,223.00 331.58,219.58 333.39,218.03
             337.25,215.21 347.23,220.43 348.00,230.00 Z
           M 316.00,246.00
           C 324.91,247.53 321.99,257.72 320.40,258.98
             319.17,259.96 317.47,259.88 316.00,260.00
             316.00,260.00 316.00,246.00 316.00,246.00 Z
           M 265.00,327.70
           C 267.32,327.18 268.57,326.90 271.00,327.11
             281.91,328.04 293.36,347.11 295.58,357.00
             296.36,360.51 297.68,366.42 296.42,369.83
             295.50,372.30 286.06,385.27 285.49,390.00
             284.78,395.92 290.72,399.11 290.99,411.00
             291.04,413.22 291.19,416.71 289.98,418.61
             287.09,423.14 277.21,423.41 273.16,431.00
             270.63,435.76 271.03,443.68 271.00,449.00
             270.95,459.30 264.24,469.83 255.00,474.56
             250.10,477.08 246.17,476.23 242.04,479.43
             238.15,482.45 237.35,485.72 234.61,488.91
             231.34,492.73 224.82,496.60 220.00,498.04
             217.17,498.98 212.01,499.62 209.38,498.04
             207.06,496.53 204.55,491.46 203.15,489.00
             198.57,480.98 192.25,468.27 192.01,459.00
             191.75,448.49 196.07,442.89 201.15,434.00
             203.18,430.46 206.87,424.05 209.67,421.30
             213.77,417.26 218.11,418.98 222.00,412.96
             224.31,409.38 224.28,405.35 226.54,401.00
             226.54,401.00 232.13,391.00 232.13,391.00
             232.13,391.00 239.60,371.00 239.60,371.00
             239.60,371.00 244.45,360.00 244.45,360.00
             244.45,360.00 248.00,342.00 248.00,342.00
             250.46,336.13 259.30,330.21 265.00,327.70 Z
           M 346.00,472.79
           C 347.58,472.42 348.89,471.96 350.37,472.79
             351.64,473.89 351.81,475.90 352.36,477.29
             354.72,483.23 356.85,488.77 347.00,487.82
             336.20,486.79 336.94,476.16 346.00,472.79 Z" />
</svg>
