<?xml version="1.0" encoding="UTF-8" standalone="no"?>
<!DOCTYPE svg PUBLIC "-//W3C//DTD SVG 20010904//EN"
              "http://www.w3.org/TR/2001/REC-SVG-20010904/DTD/svg10.dtd">

<svg xmlns="http://www.w3.org/2000/svg"
     width="699.096mm" height="578.132mm"
     viewBox="0 0 1624 1343">
  <path id="Taysan"
        fill="none" stroke="black" stroke-width="1"
        d="M 1077.00,824.00
           C 1077.00,824.00 1112.00,804.26 1112.00,804.26
             1115.15,802.61 1123.00,797.75 1126.00,797.53
             1129.96,797.23 1134.92,801.82 1138.00,804.13
             1143.70,808.40 1159.72,821.42 1165.00,823.44
             1172.60,826.34 1199.14,831.63 1208.00,832.87
             1213.03,833.58 1225.43,833.97 1228.96,835.98
             1231.57,837.47 1233.99,840.68 1235.92,843.00
             1238.05,845.56 1241.95,850.04 1243.15,853.00
             1243.15,853.00 1247.17,891.00 1247.17,891.00
             1248.47,897.60 1251.79,899.76 1253.14,904.00
             1254.54,907.61 1253.65,911.37 1253.14,915.00
             1247.01,915.54 1247.19,916.30 1242.00,917.71
             1226.67,921.87 1224.99,923.41 1212.00,932.71
             1203.59,938.73 1195.19,947.66 1184.00,946.67
             1175.13,945.89 1168.19,939.88 1162.00,933.96
             1159.60,931.66 1154.11,925.34 1151.00,924.90
             1146.15,924.21 1141.58,932.46 1134.00,934.44
             1130.94,935.25 1124.44,934.98 1121.00,935.00
             1108.79,935.06 1110.26,938.74 1103.00,939.78
             1103.00,939.78 1085.00,939.00 1085.00,939.00
             1085.00,939.00 1082.15,912.00 1082.15,912.00
             1082.15,912.00 1079.86,897.00 1079.86,897.00
             1079.86,897.00 1062.00,873.00 1062.00,873.00
             1071.59,870.75 1079.08,876.67 1084.79,872.40
             1091.93,867.06 1090.06,848.38 1090.00,840.00
             1089.98,837.68 1090.10,835.16 1088.98,833.04
             1087.06,829.41 1080.58,826.15 1077.00,824.00 Z" />
  <path id="Lobo"
        fill="none" stroke="black" stroke-width="1"
        d="M 1371.00,1034.00
           C 1371.00,1034.00 1346.00,1052.39 1346.00,1052.39
             1338.91,1056.70 1333.07,1057.34 1327.00,1063.04
             1319.32,1070.26 1307.02,1083.71 1300.48,1092.00
             1295.22,1098.66 1296.67,1101.66 1293.57,1104.26
             1289.94,1107.32 1283.87,1105.11 1278.09,1110.23
             1272.02,1115.59 1266.43,1128.11 1257.00,1131.17
             1252.19,1132.93 1246.88,1131.23 1242.00,1131.17
             1242.00,1131.17 1231.00,1131.95 1231.00,1131.95
             1231.00,1131.95 1219.00,1131.95 1219.00,1131.95
             1209.33,1131.86 1206.88,1127.38 1200.00,1121.42
             1200.00,1121.42 1179.00,1101.00 1179.00,1101.00
             1169.71,1091.71 1167.64,1087.02 1154.00,1087.00
             1154.00,1087.00 1125.00,1087.00 1125.00,1087.00
             1120.72,1086.94 1117.50,1086.78 1114.13,1083.72
             1108.50,1078.62 1108.61,1068.41 1100.96,1062.64
             1098.07,1060.45 1093.60,1058.63 1090.00,1058.18
             1086.75,1057.78 1082.63,1058.88 1080.64,1055.71
             1080.64,1055.71 1076.19,1044.00 1076.19,1044.00
             1071.60,1032.15 1066.21,1017.82 1070.22,1005.00
             1073.27,995.26 1079.22,993.88 1080.86,988.00
             1080.86,988.00 1080.86,980.00 1080.86,980.00
             1080.86,980.00 1081.91,969.00 1081.91,969.00
             1081.91,969.00 1080.31,956.00 1080.31,956.00
             1079.98,953.99 1080.07,951.97 1080.31,950.00
             1080.82,948.75 1081.34,947.19 1081.92,946.04
             1086.63,936.70 1096.16,943.53 1103.00,942.38
             1107.08,941.70 1110.20,938.78 1114.00,937.65
             1117.46,936.61 1125.95,937.06 1130.00,937.00
             1136.24,936.89 1138.12,935.52 1143.00,931.72
             1145.38,929.86 1148.68,926.32 1152.00,927.30
             1155.14,928.23 1159.52,934.35 1162.09,936.83
             1170.05,944.53 1180.41,951.46 1192.00,948.28
             1196.94,946.93 1203.78,941.29 1208.00,938.13
             1217.79,930.80 1226.91,923.46 1239.00,920.79
             1241.77,920.18 1248.62,917.51 1250.79,918.35
             1253.94,919.57 1255.14,925.06 1256.00,928.00
             1256.00,928.00 1262.94,960.00 1262.94,960.00
             1263.96,969.31 1251.03,971.04 1254.13,977.86
             1255.17,980.14 1257.78,980.97 1260.00,981.56
             1264.63,982.78 1273.26,984.14 1278.00,983.96
             1286.98,983.61 1309.51,979.28 1317.00,974.92
             1321.14,972.50 1322.26,969.99 1325.28,967.49
             1328.69,964.69 1335.68,962.01 1340.00,961.00
             1340.00,961.00 1347.73,975.00 1347.73,975.00
             1347.73,975.00 1360.95,1006.00 1360.95,1006.00
             1360.95,1006.00 1371.00,1034.00 1371.00,1034.00 Z
           M 1241.00,1071.00
           C 1241.00,1071.00 1240.00,1071.00 1240.00,1071.00
             1240.00,1071.00 1241.00,1072.00 1241.00,1072.00
             1241.00,1072.00 1241.00,1071.00 1241.00,1071.00 Z" />
  <path id="San Juan"
        fill="none" stroke="black" stroke-width="1"
        d="M 1372.00,1032.00
           C 1372.00,1032.00 1361.20,1001.00 1361.20,1001.00
             1355.86,987.65 1350.44,974.23 1342.77,962.00
             1339.00,955.99 1334.61,950.44 1330.08,945.00
             1327.81,942.28 1323.08,937.04 1321.85,934.00
             1320.85,931.51 1321.01,928.64 1321.00,926.00
             1321.00,926.00 1321.00,912.00 1321.00,912.00
             1321.00,912.00 1322.00,897.00 1322.00,897.00
             1322.00,897.00 1322.00,823.00 1322.00,823.00
             1322.01,819.33 1322.69,809.17 1323.81,806.00
             1324.98,802.74 1329.05,797.12 1331.56,789.00
             1331.56,789.00 1342.06,749.00 1342.06,749.00
             1346.70,736.94 1358.62,723.83 1368.00,715.09
             1371.46,711.86 1377.11,706.11 1382.00,706.11
             1388.08,706.11 1390.27,711.89 1393.52,716.00
             1393.52,716.00 1399.00,722.00 1399.00,722.00
             1409.14,732.14 1421.76,739.46 1435.00,744.80
             1452.67,751.93 1478.50,758.97 1494.00,767.59
             1501.14,771.57 1510.29,777.23 1513.71,785.00
             1516.89,792.21 1504.85,804.83 1499.00,808.02
             1497.48,808.85 1495.70,809.26 1494.00,809.56
             1490.75,810.13 1481.87,809.82 1479.96,812.57
             1477.84,815.63 1483.06,818.46 1484.69,820.32
             1486.84,822.78 1487.08,824.85 1486.83,828.00
             1486.26,834.89 1484.43,836.04 1482.85,841.00
             1482.85,841.00 1481.18,854.00 1481.18,854.00
             1481.18,854.00 1477.65,867.00 1477.65,867.00
             1477.37,871.63 1480.53,876.62 1481.53,882.00
             1482.65,887.96 1481.14,892.33 1483.29,902.00
             1486.50,916.43 1501.80,921.25 1502.00,936.00
             1502.16,948.40 1503.94,953.39 1495.00,963.00
             1492.99,965.16 1488.61,969.26 1490.92,972.53
             1493.21,975.76 1498.58,973.09 1500.96,971.35
             1504.31,968.92 1505.76,965.84 1509.04,964.60
             1514.98,962.35 1520.07,967.26 1525.00,969.68
             1528.39,971.35 1531.20,971.77 1531.85,976.04
             1532.99,983.52 1529.57,989.90 1524.00,994.54
             1524.00,994.54 1503.00,1009.67 1503.00,1009.67
             1503.00,1009.67 1492.00,1019.70 1492.00,1019.70
             1492.00,1019.70 1477.00,1031.37 1477.00,1031.37
             1470.04,1036.60 1463.36,1043.06 1454.00,1041.87
             1445.93,1040.84 1447.80,1035.07 1439.98,1028.46
             1429.31,1019.43 1423.48,1017.84 1410.00,1018.00
             1396.71,1018.16 1394.36,1024.86 1384.00,1029.59
             1380.65,1031.12 1375.69,1031.70 1372.00,1032.00 Z" />
  <path id="Rosario"
        fill="none" stroke="black" stroke-width="1"
        d="M 1067.00,818.00
           C 1069.87,808.76 1079.33,811.63 1079.93,802.00
             1080.21,797.47 1077.04,779.28 1076.00,774.00
             1076.00,774.00 1069.87,737.00 1069.87,737.00
             1069.34,733.20 1066.66,717.79 1067.31,715.17
             1068.24,711.39 1076.77,706.09 1080.00,703.58
             1082.65,701.51 1092.66,693.52 1095.00,692.53
             1098.83,690.93 1102.22,693.12 1102.93,697.09
             1102.93,697.09 1102.93,705.00 1102.93,705.00
             1107.05,705.01 1119.67,705.83 1123.00,707.21
             1134.57,712.03 1140.65,719.98 1154.00,720.00
             1154.00,720.00 1239.00,720.00 1239.00,720.00
             1239.00,720.00 1249.00,720.95 1249.00,720.95
             1249.00,720.95 1264.00,720.95 1264.00,720.95
             1273.18,720.87 1283.02,713.59 1291.00,709.14
             1293.74,707.61 1297.94,704.87 1301.00,704.49
             1304.54,704.05 1310.47,707.05 1314.00,708.31
             1320.57,710.65 1332.24,714.60 1339.00,714.90
             1349.28,715.35 1349.70,708.65 1355.04,706.60
             1357.58,705.62 1370.42,706.00 1374.00,706.00
             1365.99,717.18 1351.35,725.82 1342.98,742.00
             1336.34,754.83 1334.88,768.29 1331.27,782.00
             1326.81,798.89 1322.23,802.41 1320.70,807.00
             1319.87,809.48 1320.00,812.40 1320.00,815.00
             1320.00,815.00 1320.00,870.00 1320.00,870.00
             1320.00,870.00 1319.00,887.00 1319.00,887.00
             1319.00,887.00 1319.00,927.00 1319.00,927.00
             1319.00,929.16 1318.89,931.97 1319.58,934.00
             1319.58,934.00 1338.00,959.00 1338.00,959.00
             1333.63,960.75 1328.70,962.44 1325.01,965.39
             1321.54,968.17 1320.04,971.23 1315.96,973.20
             1307.62,977.23 1284.22,982.28 1275.00,981.79
             1275.00,981.79 1255.00,978.00 1255.00,978.00
             1257.57,969.29 1264.56,969.36 1265.52,963.00
             1265.84,960.88 1263.92,952.60 1263.40,950.00
             1263.40,950.00 1258.57,929.00 1258.57,929.00
             1258.57,929.00 1255.33,919.00 1255.33,919.00
             1254.19,914.21 1256.65,911.02 1256.02,906.00
             1255.22,899.60 1251.02,899.94 1249.08,889.00
             1249.08,889.00 1245.87,854.00 1245.87,854.00
             1244.54,849.86 1234.43,837.16 1230.91,834.51
             1226.94,831.52 1214.55,831.44 1209.00,830.84
             1201.34,830.00 1171.46,823.76 1165.00,821.16
             1160.13,819.20 1143.46,805.72 1138.00,801.63
             1135.46,799.72 1130.04,795.08 1127.00,794.92
             1124.52,794.80 1117.57,798.93 1115.00,800.26
             1115.00,800.26 1089.00,814.42 1089.00,814.42
             1086.16,816.02 1077.87,820.85 1075.00,821.09
             1072.21,821.32 1069.39,819.30 1067.00,818.00 Z" />
  <path id="Padre Garcia"
        fill="none" stroke="black" stroke-width="1"
        d="M 1139.00,662.00
           C 1143.90,653.33 1147.66,655.68 1156.00,654.58
             1160.89,653.93 1180.84,652.52 1185.00,653.26
             1187.96,653.78 1191.11,655.49 1194.00,656.56
             1199.67,658.66 1201.39,657.62 1205.00,663.00
             1206.27,662.13 1206.42,661.66 1208.18,661.44
             1211.02,661.10 1224.29,664.83 1226.26,666.81
             1228.43,668.98 1228.74,676.85 1229.08,680.00
             1229.69,685.78 1231.77,689.70 1237.00,692.59
             1243.23,696.02 1262.46,697.07 1270.00,697.00
             1280.53,696.89 1289.01,695.88 1298.00,703.00
             1298.00,703.00 1271.00,717.36 1271.00,717.36
             1268.42,718.11 1265.66,718.00 1263.00,718.00
             1263.00,718.00 1155.00,718.00 1155.00,718.00
             1140.79,717.98 1136.16,710.30 1124.00,705.35
             1118.74,703.21 1110.68,703.00 1105.00,703.00
             1104.99,696.07 1105.67,694.67 1100.00,690.00
             1100.00,690.00 1100.00,688.00 1100.00,688.00
             1100.00,688.00 1125.00,669.87 1125.00,669.87
             1129.30,666.65 1133.52,662.54 1139.00,662.00 Z" />
  <path id="Ibaan"
        fill="none" stroke="black" stroke-width="1"
        d="M 1014.00,695.74
           C 1019.19,695.06 1023.26,697.50 1028.00,699.40
             1028.00,699.40 1052.00,709.00 1052.00,709.00
             1055.24,710.30 1062.01,712.37 1063.83,715.27
             1065.30,717.63 1067.10,733.99 1067.75,738.00
             1067.75,738.00 1075.08,781.00 1075.08,781.00
             1075.72,784.86 1078.01,799.88 1077.52,802.98
             1076.46,809.60 1065.20,810.59 1065.20,816.04
             1065.20,819.40 1070.48,822.45 1073.00,824.00
             1076.51,826.15 1085.24,830.54 1087.02,834.09
             1087.54,835.74 1087.21,837.29 1087.02,839.00
             1087.36,846.69 1090.96,866.55 1082.89,870.97
             1079.30,872.94 1071.28,870.32 1067.00,870.11
             1067.00,870.11 1062.00,870.11 1062.00,870.11
             1056.53,869.45 1049.28,858.35 1045.80,854.00
             1045.80,854.00 1031.20,836.00 1031.20,836.00
             1029.12,833.41 1025.98,828.81 1022.91,827.60
             1020.49,826.64 1011.17,827.03 1008.00,827.00
             1008.00,827.00 994.00,826.00 994.00,826.00
             994.00,826.00 969.00,826.00 969.00,826.00
             961.58,825.87 961.84,824.28 962.00,812.00
             962.10,804.68 964.19,802.32 969.09,797.00
             971.18,794.72 975.31,791.25 975.39,788.00
             975.53,782.00 964.60,777.18 965.23,768.00
             965.58,762.84 969.27,758.22 971.95,754.00
             975.07,749.06 976.69,745.77 980.45,741.00
             985.68,734.37 990.91,729.48 995.13,722.00
             1001.47,710.74 999.56,701.95 1014.00,695.74 Z" />
  <path id="Tingloy"
        fill="none" stroke="black" stroke-width="1"
        d="M 570.00,996.00
           C 562.30,991.88 564.41,980.04 568.23,978.84
             569.82,978.12 571.44,978.67 573.00,978.84
             573.00,978.84 570.00,996.00 570.00,996.00 Z
           M 552.00,987.00
           C 557.15,991.56 557.64,995.42 557.00,1002.00
             549.48,999.29 547.68,993.59 552.00,987.00 Z
           M 568.00,1009.43
           C 584.24,1007.42 604.39,1015.60 619.00,1022.31
             619.00,1022.31 636.00,1030.35 636.00,1030.35
             641.80,1031.85 643.90,1028.02 656.00,1028.00
             656.00,1028.00 701.00,1029.00 701.00,1029.00
             714.25,1029.03 712.80,1034.49 720.21,1042.99
             723.79,1047.09 727.85,1049.07 728.63,1055.00
             730.90,1072.12 703.60,1075.15 692.00,1077.08
             692.00,1077.08 664.00,1082.17 664.00,1082.17
             659.43,1081.78 656.85,1078.70 651.00,1078.10
             638.68,1076.84 632.84,1078.84 622.04,1071.30
             612.91,1064.93 616.62,1054.31 609.81,1051.36
             606.26,1049.82 602.06,1053.29 598.00,1053.57
             594.07,1053.83 590.27,1050.94 587.00,1049.01
             580.14,1044.97 565.16,1035.04 561.97,1028.00
             560.43,1024.60 558.18,1014.79 560.91,1011.74
             562.41,1010.06 565.87,1009.79 568.00,1009.43 Z" />
  <path id="Mabini"
        fill="none" stroke="black" stroke-width="1"
        d="M 625.00,925.00
           C 632.63,922.98 638.56,913.33 642.31,907.00
             646.75,899.51 657.55,884.69 664.00,879.21
             672.98,871.59 681.15,872.02 692.00,872.00
             694.53,871.99 698.35,872.34 700.26,870.40
             702.95,867.67 700.70,863.90 705.15,862.23
             705.15,862.23 722.00,859.25 722.00,859.25
             722.00,859.25 752.00,855.00 752.00,855.00
             752.00,855.00 742.92,882.00 742.92,882.00
             741.41,887.79 742.81,890.33 740.43,893.14
             730.70,904.63 720.96,902.81 714.13,913.04
             714.13,913.04 704.74,934.00 704.74,934.00
             699.04,945.11 695.20,947.06 692.56,951.00
             689.92,954.94 690.73,957.72 688.42,960.82
             686.84,962.93 682.29,965.93 680.00,967.63
             673.53,972.41 658.89,981.39 651.00,982.39
             644.11,983.27 637.68,974.83 633.81,970.00
             626.85,961.32 613.79,941.79 619.56,930.27
             620.46,928.46 623.35,926.63 625.00,925.00 Z
           M 707.00,919.00
           C 707.00,919.00 706.00,919.00 706.00,919.00
             706.00,919.00 707.00,920.00 707.00,920.00
             707.00,920.00 707.00,919.00 707.00,919.00 Z" />
  <path id="Batangas City"
        fill="none" stroke="black" stroke-width="1"
        d="M 853.00,849.00
           C 862.21,827.63 883.52,805.90 896.39,785.00
             898.90,780.92 902.10,775.78 902.79,771.00
             903.22,768.03 902.22,762.10 904.57,760.16
             906.39,758.66 920.72,756.26 924.00,755.60
             924.00,755.60 953.00,750.00 953.00,750.00
             953.00,750.00 974.00,746.00 974.00,746.00
             970.62,752.92 961.75,763.41 963.11,771.00
             964.59,779.27 974.17,783.33 973.04,789.00
             972.16,793.38 964.02,798.70 961.14,804.00
             958.21,809.38 960.00,821.25 960.00,828.00
             960.00,828.00 978.00,828.00 978.00,828.00
             978.00,828.00 993.00,829.00 993.00,829.00
             993.00,829.00 1015.00,829.00 1015.00,829.00
             1016.99,829.00 1020.10,828.88 1021.91,829.60
             1025.19,830.90 1031.86,839.89 1034.39,843.00
             1034.39,843.00 1064.39,880.00 1064.39,880.00
             1067.92,884.34 1076.71,894.25 1078.20,899.00
             1078.20,899.00 1081.28,924.00 1081.28,924.00
             1081.28,924.00 1082.66,939.00 1082.66,939.00
             1081.90,943.33 1078.67,944.90 1078.09,952.00
             1077.57,958.40 1079.31,963.82 1079.63,970.00
             1079.63,970.00 1078.94,985.00 1078.94,985.00
             1078.43,991.01 1074.28,993.15 1071.11,998.00
             1068.02,1002.73 1066.15,1010.36 1066.51,1016.00
             1067.53,1031.65 1074.70,1044.28 1079.00,1059.00
             1069.54,1062.07 1063.95,1060.44 1054.00,1062.31
             1054.00,1062.31 1029.00,1068.58 1029.00,1068.58
             1029.00,1068.58 991.00,1075.94 991.00,1075.94
             982.45,1077.71 980.82,1084.22 974.00,1086.22
             969.71,1087.83 958.64,1085.93 953.00,1086.22
             949.17,1086.05 947.41,1086.13 944.00,1088.14
             940.93,1089.95 937.90,1093.28 934.00,1092.63
             926.41,1091.36 927.15,1080.70 919.98,1077.19
             914.40,1074.45 907.68,1079.65 902.01,1079.71
             896.54,1079.77 895.32,1074.99 891.00,1073.36
             887.65,1072.09 884.34,1074.24 881.00,1074.64
             869.43,1076.00 869.98,1064.71 872.70,1057.00
             877.64,1042.99 885.17,1045.39 890.07,1036.99
             892.05,1033.59 891.92,1028.87 892.61,1025.00
             892.61,1025.00 895.66,1009.00 895.66,1009.00
             895.68,1002.04 891.56,989.06 890.05,982.00
             888.34,973.94 897.58,958.31 902.52,952.00
             905.63,948.01 910.21,944.37 910.75,939.00
             911.18,934.73 908.49,930.88 907.07,927.00
             905.08,921.57 906.00,920.08 904.92,917.00
             903.78,913.74 900.37,909.76 898.21,907.00
             893.90,901.49 886.49,892.37 887.36,885.00
             887.87,880.71 890.56,876.97 889.81,871.00
             888.84,863.31 883.35,862.24 879.52,858.47
             879.52,858.47 872.82,850.43 872.82,850.43
             867.00,845.74 865.04,852.14 860.91,852.47
             858.27,852.67 855.13,850.37 853.00,849.00 Z
           M 974.00,1011.00
           C 974.00,1011.00 973.00,1011.00 973.00,1011.00
             973.00,1011.00 974.00,1012.00 974.00,1012.00
             974.00,1012.00 974.00,1011.00 974.00,1011.00 Z
           M 877.00,1170.00
           C 892.40,1176.67 895.62,1183.84 914.00,1179.50
             917.93,1178.57 928.70,1174.98 932.00,1173.02
             935.29,1171.07 939.83,1166.53 943.96,1167.70
             949.68,1169.33 953.75,1184.57 954.99,1190.00
             957.31,1200.16 960.55,1214.81 961.38,1225.00
             962.13,1234.18 951.46,1238.79 944.00,1240.84
             940.88,1241.70 936.15,1242.91 933.00,1242.06
             924.47,1239.77 924.65,1232.04 920.24,1226.00
             914.20,1217.74 905.59,1212.33 898.00,1205.71
             890.98,1199.59 884.69,1192.28 880.49,1184.00
             877.26,1177.64 875.23,1177.59 877.00,1170.00 Z" />
  <path id="San Pascual"
        fill="none" stroke="black" stroke-width="1"
        d="M 877.00,712.00
           C 880.59,715.94 887.38,726.95 890.66,732.00
             894.06,737.24 896.99,743.00 898.79,749.00
             900.82,755.75 902.19,767.29 899.89,774.00
             898.32,778.61 892.94,786.56 890.19,791.00
             879.01,809.05 860.13,827.23 852.00,846.00
             848.35,845.32 841.09,842.93 839.01,839.73
             839.01,839.73 833.73,825.00 833.73,825.00
             831.06,819.64 820.26,802.69 819.43,798.00
             818.84,794.64 820.74,789.35 821.71,786.00
             821.71,786.00 830.97,760.00 830.97,760.00
             832.18,756.11 833.63,750.02 833.91,746.00
             834.12,742.99 833.46,739.04 835.60,736.64
             839.91,731.79 852.47,732.17 860.00,728.89
             866.82,725.92 872.12,717.64 877.00,712.00 Z" />
  <path id="Mataas na Kahoy"
        fill="none" stroke="black" stroke-width="1"
        d="M 948.00,465.00
           C 957.58,466.59 959.86,479.10 964.75,486.00
             971.41,495.41 978.47,501.37 987.00,508.85
             990.78,512.16 997.31,516.89 999.74,521.17
             1002.44,525.92 1002.35,529.92 1003.00,535.00
             1003.00,535.00 1003.00,533.00 1003.00,533.00
             1003.00,533.00 1004.00,533.00 1004.00,533.00
             1004.00,542.79 1003.45,547.55 995.91,554.83
             993.84,556.82 990.15,560.00 987.04,559.26
             983.36,558.38 982.31,553.73 979.61,552.02
             977.52,550.70 965.04,550.00 962.00,550.00
             953.96,549.99 938.58,551.86 934.57,542.68
             933.86,541.05 934.00,537.82 934.00,536.00
             934.00,536.00 934.00,502.00 934.00,502.00
             934.09,484.85 950.18,481.46 948.00,465.00 Z" />
  <path id="Lipa"
        fill="none" stroke="black" stroke-width="1"
        d="M 905.00,572.00
           C 910.72,569.52 916.57,566.65 919.78,561.00
             922.60,556.01 922.23,549.33 928.04,546.47
             934.12,543.48 937.13,549.76 943.00,551.49
             945.41,552.20 950.31,551.99 953.00,552.00
             953.00,552.00 971.00,553.00 971.00,553.00
             973.80,553.01 977.11,552.64 979.37,554.60
             981.51,556.45 983.38,562.11 988.00,561.92
             991.02,561.80 994.78,558.23 996.91,556.27
             1005.97,547.94 1007.00,542.60 1004.83,531.00
             1004.18,527.51 1001.98,523.25 1002.37,520.00
             1002.83,516.09 1012.92,501.08 1016.09,498.39
             1019.84,495.20 1029.88,491.59 1034.68,493.57
             1037.55,494.76 1038.41,497.89 1042.04,498.04
             1046.01,498.21 1051.95,493.46 1055.00,491.11
             1059.45,487.69 1078.64,472.33 1081.04,468.91
             1085.11,463.09 1085.50,452.76 1094.95,454.15
             1099.41,454.81 1101.02,460.35 1102.69,464.00
             1102.69,464.00 1115.65,494.99 1115.65,494.99
             1119.93,502.60 1127.88,504.58 1135.00,508.32
             1135.00,508.32 1149.00,516.10 1149.00,516.10
             1162.18,521.95 1167.83,512.69 1177.00,507.65
             1180.61,505.66 1196.77,502.77 1201.00,503.18
             1205.83,503.64 1210.55,505.00 1212.20,510.04
             1214.67,517.61 1207.88,526.53 1210.53,538.00
             1213.37,550.34 1225.13,553.87 1227.21,571.00
             1229.24,587.81 1210.03,581.46 1200.00,584.65
             1195.57,586.06 1191.20,590.62 1188.09,594.00
             1182.74,599.82 1178.19,608.92 1178.18,617.00
             1178.17,621.59 1180.03,627.46 1180.70,632.00
             1180.70,632.00 1183.00,650.00 1183.00,650.00
             1183.00,650.00 1145.00,653.56 1145.00,653.56
             1141.78,654.62 1135.15,660.03 1132.00,662.29
             1132.00,662.29 1105.00,682.01 1105.00,682.01
             1105.00,682.01 1076.00,704.13 1076.00,704.13
             1073.05,706.34 1067.69,711.21 1064.00,711.09
             1061.91,711.03 1054.40,707.76 1052.00,706.80
             1052.00,706.80 1028.00,697.20 1028.00,697.20
             1025.67,696.27 1019.36,694.15 1017.99,692.30
             1016.83,690.73 1017.01,687.89 1017.00,686.00
             1016.98,683.13 1017.44,676.56 1015.98,674.30
             1014.04,671.30 1005.48,669.70 1002.00,669.00
             1002.00,665.02 1002.69,649.91 1000.98,647.31
             998.75,643.91 993.09,644.91 990.43,642.99
             987.92,641.18 988.04,637.77 988.00,635.00
             987.94,630.58 988.43,617.78 984.69,615.16
             982.54,613.66 973.08,612.43 970.00,611.92
             970.00,611.92 932.04,605.12 932.04,605.12
             928.21,603.50 925.35,599.20 922.80,596.00
             918.43,590.52 907.49,577.51 905.00,572.00 Z" />
  <path id="San Jose"
        fill="none" stroke="black" stroke-width="1"
        d="M 931.85,608.00
           C 931.85,608.00 969.00,614.08 969.00,614.08
             969.00,614.08 983.43,617.17 983.43,617.17
             983.43,617.17 985.04,624.00 985.04,624.00
             985.04,624.00 986.31,641.94 986.31,641.94
             986.31,641.94 988.31,644.99 988.31,644.99
             988.31,644.99 999.00,647.00 999.00,647.00
             999.00,647.00 999.96,659.00 999.96,659.00
             999.96,659.00 999.96,671.00 999.96,671.00
             1003.43,671.31 1012.83,672.99 1014.40,676.30
             1015.20,677.99 1015.03,683.89 1015.00,686.00
             1014.96,687.90 1015.02,689.95 1013.98,691.62
             1012.28,694.35 1005.31,697.09 1000.81,704.00
             1000.81,704.00 993.87,720.00 993.87,720.00
             991.21,725.18 982.83,735.79 978.71,739.87
             973.80,744.74 963.72,745.46 957.00,746.80
             957.00,746.80 903.00,757.00 903.00,757.00
             900.23,743.25 896.18,736.53 888.49,725.00
             886.54,722.08 879.48,713.22 880.04,710.13
             880.86,705.54 894.08,702.82 897.98,700.59
             904.03,697.12 902.92,692.98 903.00,687.00
             903.13,677.86 906.17,677.80 911.24,671.00
             914.41,666.75 917.44,661.66 919.97,657.00
             923.75,650.05 930.57,630.64 931.85,623.00
             931.85,623.00 931.85,608.00 931.85,608.00 Z" />
  <path id="Cuenca"
        fill="none" stroke="black" stroke-width="1"
        d="M 881.81,704.00
           C 882.00,701.14 882.16,695.56 881.81,693.00
             880.88,689.59 877.87,684.40 876.31,681.00
             873.49,674.87 870.98,668.70 867.30,663.00
             867.30,663.00 857.98,650.72 857.98,650.72
             857.98,650.72 854.68,633.00 854.68,633.00
             852.98,623.39 857.37,616.50 859.96,608.00
             859.96,608.00 862.65,596.00 862.65,596.00
             863.43,592.61 864.65,584.94 867.31,582.85
             870.53,580.34 882.30,580.24 887.00,579.10
             890.84,578.17 898.96,574.01 901.91,574.78
             904.82,575.55 908.11,580.62 910.00,583.00
             910.00,583.00 929.08,607.42 929.08,607.42
             930.44,610.51 928.41,625.21 927.45,628.91
             924.48,640.32 922.06,649.62 915.99,660.00
             915.99,660.00 901.58,681.00 901.58,681.00
             900.74,683.46 901.04,688.24 901.00,691.00
             900.97,692.81 901.05,694.89 900.01,696.47
             898.06,699.43 885.78,702.98 881.81,704.00 Z" />
  <path id="Alitagtag"
        fill="none" stroke="black" stroke-width="1"
        d="M 787.00,714.00
           C 786.64,709.68 783.05,704.62 784.35,701.09
             785.89,696.87 796.13,692.67 799.49,688.68
             802.59,684.99 801.38,681.60 802.85,678.04
             804.50,674.06 806.78,674.00 808.32,668.00
             809.26,664.35 809.03,659.31 813.13,657.60
             821.15,654.25 825.49,664.44 830.96,663.12
             836.51,661.78 838.04,651.65 839.93,649.60
             843.87,645.32 848.83,650.27 852.09,652.02
             854.48,653.30 856.15,653.04 858.91,655.31
             863.39,659.00 867.62,667.74 870.25,673.00
             874.44,681.38 883.17,696.28 879.41,705.83
             878.66,707.73 875.46,711.09 874.01,713.01
             870.55,717.63 868.01,722.86 862.00,724.00
             858.12,729.51 850.07,729.02 844.00,730.43
             836.04,732.28 835.00,734.94 830.00,735.78
             830.00,735.78 799.00,735.00 799.00,735.00
             797.64,726.20 793.67,719.84 787.00,714.00 Z" />
  <path id="Bauan"
        fill="none" stroke="black" stroke-width="1"
        d="M 678.00,794.00
           C 682.78,792.84 693.94,791.94 699.00,792.00
             708.20,792.11 707.62,794.09 715.00,796.07
             720.83,797.64 735.83,797.04 741.00,794.18
             746.06,791.39 753.72,783.28 758.00,779.00
             758.00,779.00 784.00,753.00 784.00,753.00
             787.00,750.00 796.93,739.44 800.00,738.06
             802.07,737.22 809.13,738.00 812.00,738.06
             826.59,738.02 832.55,735.89 831.83,745.00
             830.83,757.65 825.00,769.16 821.00,781.00
             819.86,784.40 816.63,794.83 817.01,798.00
             817.44,801.64 822.86,810.65 824.95,814.00
             829.92,821.95 835.14,830.48 836.00,840.00
             826.37,837.92 829.40,834.71 823.96,832.60
             821.64,831.70 816.09,832.14 813.00,831.70
             807.02,830.85 800.00,827.80 794.00,828.48
             787.00,829.27 776.57,832.25 771.00,836.53
             766.34,840.11 758.93,848.93 755.00,850.99
             752.33,852.39 741.63,853.80 738.00,854.41
             738.00,854.41 702.00,860.00 702.00,860.00
             702.00,860.00 701.48,853.00 701.48,853.00
             701.48,853.00 704.38,846.00 704.38,846.00
             704.38,846.00 702.74,835.00 702.74,835.00
             702.74,835.00 693.73,823.83 693.73,823.83
             693.73,823.83 690.15,815.00 690.15,815.00
             690.15,815.00 681.70,805.00 681.70,805.00
             681.70,805.00 678.00,794.00 678.00,794.00 Z" />
  <path id="San Luis"
        fill="none" stroke="black" stroke-width="1"
        d="M 780.00,703.00
           C 783.32,706.85 783.32,709.86 785.97,714.00
             788.95,718.68 792.37,720.11 793.00,726.00
             796.37,728.73 797.78,734.15 795.40,738.00
             795.40,738.00 771.00,763.00 771.00,763.00
             771.00,763.00 752.00,782.00 752.00,782.00
             749.38,784.62 743.99,790.42 741.00,791.99
             738.73,793.18 734.60,793.64 732.00,794.00
             726.93,794.69 723.19,795.51 718.00,794.53
             718.00,794.53 703.00,789.67 703.00,789.67
             695.67,788.14 686.62,791.71 681.05,790.85
             677.03,790.23 676.16,786.82 673.78,784.00
             669.52,778.96 661.96,775.12 660.00,769.00
             668.26,768.32 675.35,766.16 680.35,759.00
             683.53,754.44 683.66,749.29 684.08,744.00
             685.17,730.41 686.26,728.56 682.00,715.00
             694.41,714.84 688.36,710.20 699.00,710.00
             699.00,710.00 726.00,710.00 726.00,710.00
             740.16,710.03 738.99,718.23 750.00,722.18
             761.84,726.44 773.61,710.94 780.00,703.00 Z" />
  <path id="Sta. Teresita"
        fill="none" stroke="black" stroke-width="1"
        d="M 784.00,626.00
           C 786.41,631.24 785.27,633.64 785.04,639.00
             785.04,639.00 784.00,662.00 784.00,662.00
             784.06,666.58 784.34,670.00 788.21,673.05
             793.99,677.60 799.98,676.09 798.85,683.99
             798.64,685.49 798.33,686.45 797.40,687.68
             797.40,687.68 779.00,702.04 779.00,702.04
             772.89,707.88 762.01,722.02 753.00,720.76
             748.69,720.16 737.35,712.93 738.25,708.00
             738.75,705.28 746.78,696.57 749.00,694.00
             752.14,690.37 755.13,685.06 760.00,684.00
             760.00,684.00 763.85,675.00 763.85,675.00
             763.85,675.00 763.85,662.00 763.85,662.00
             763.85,662.00 765.14,654.42 765.14,654.42
             765.14,654.42 766.40,641.17 766.40,641.17
             766.40,641.17 784.00,626.00 784.00,626.00 Z" />
  <path id="San Nicolas"
        fill="none" stroke="black" stroke-width="1"
        d="M 765.00,471.00
           C 765.00,471.00 839.00,473.00 839.00,473.00
             836.83,481.03 830.03,494.21 823.83,499.61
             816.91,505.63 796.07,511.46 787.00,510.00
             784.67,516.93 783.15,520.62 775.02,519.94
             768.46,519.40 768.98,510.54 771.40,506.41
             772.49,504.56 774.55,503.70 775.10,502.51
             776.93,498.58 769.32,495.26 767.02,490.96
             764.80,486.81 765.00,475.90 765.00,471.00 Z
           M 716.00,617.00
           C 724.50,616.97 725.80,616.46 731.91,610.00
             734.28,607.49 738.89,601.19 742.00,600.32
             745.64,599.30 751.30,604.62 754.00,606.72
             766.33,616.31 776.90,618.35 784.00,624.00
             780.43,626.62 769.04,636.00 766.00,637.13
             761.66,638.74 757.23,635.84 753.00,634.76
             748.83,633.69 743.38,633.99 739.00,634.00
             735.83,634.01 732.91,633.70 730.17,635.60
             727.44,637.48 725.83,641.09 722.00,641.36
             717.11,641.70 715.19,638.22 715.02,634.00
             715.02,634.00 716.00,617.00 716.00,617.00 Z" />
  <path id="Taal"
        fill="none" stroke="black" stroke-width="1"
        d="M 674.00,692.00
           C 677.87,689.39 686.45,683.71 687.38,678.99
             688.18,674.97 684.76,672.26 683.35,667.00
             681.62,660.52 681.97,653.64 682.00,647.00
             682.02,642.44 682.15,639.14 684.41,635.00
             689.12,626.38 703.82,620.47 713.00,618.00
             713.00,618.00 713.00,633.00 713.00,633.00
             713.04,638.41 713.19,641.19 719.00,643.22
             720.65,643.61 722.30,643.90 723.98,643.22
             727.87,642.12 728.92,638.19 732.21,636.74
             737.18,634.53 755.43,636.19 759.69,639.82
             764.16,643.63 762.38,660.25 761.83,666.00
             760.83,676.49 760.69,676.32 754.28,684.17
             754.28,684.17 745.58,695.00 745.58,695.00
             738.52,703.29 737.29,707.98 726.00,708.00
             726.00,708.00 700.00,708.00 700.00,708.00
             689.26,708.07 691.70,711.93 685.00,712.85
             683.46,713.06 681.01,713.01 679.72,712.01
             677.70,710.44 675.24,695.82 674.00,692.00 Z" />
  <path id="Sto. Tomas"
        fill="none" stroke="black" stroke-width="1"
        d="M 1006.00,253.00
           C 1008.95,254.27 1012.82,256.49 1016.00,256.26
             1019.06,256.04 1022.25,253.71 1026.00,254.34
             1030.26,255.06 1033.54,259.41 1039.00,260.50
             1044.38,261.79 1049.06,259.11 1055.00,260.50
             1063.27,262.16 1066.01,267.85 1077.00,268.00
             1077.00,268.00 1091.00,268.00 1091.00,268.00
             1094.03,268.00 1097.14,267.85 1100.00,269.01
             1110.66,273.32 1120.92,292.50 1124.94,303.00
             1137.15,334.93 1131.88,389.62 1140.74,425.00
             1143.71,436.82 1147.93,450.06 1153.26,461.00
             1153.26,461.00 1178.00,504.00 1178.00,504.00
             1173.14,507.88 1164.23,515.10 1158.00,515.75
             1153.88,516.18 1149.52,514.06 1146.00,512.14
             1139.04,508.34 1121.79,500.78 1117.99,494.96
             1117.99,494.96 1108.00,471.00 1108.00,471.00
             1108.00,471.00 1098.81,450.00 1098.81,450.00
             1098.81,450.00 1094.37,437.00 1094.37,437.00
             1094.37,437.00 1089.56,428.00 1089.56,428.00
             1089.56,428.00 1086.65,418.00 1086.65,418.00
             1086.65,418.00 1079.91,406.00 1079.91,406.00
             1079.91,406.00 1076.83,396.04 1076.83,396.04
             1073.44,389.79 1062.38,388.27 1059.17,382.79
             1059.17,382.79 1054.98,358.17 1054.98,358.17
             1054.98,358.17 1023.60,328.96 1023.60,328.96
             1017.83,320.22 1028.82,313.23 1025.74,305.00
             1022.76,297.06 1010.07,292.02 1007.02,286.71
             1005.78,284.55 1006.00,281.44 1006.00,279.00
             1006.00,279.00 1006.00,253.00 1006.00,253.00 Z
           M 1128.00,353.00
           C 1128.00,353.00 1127.00,353.00 1127.00,353.00
             1127.00,353.00 1128.00,354.00 1128.00,354.00
             1128.00,354.00 1128.00,353.00 1128.00,353.00 Z" />
  <path id="Malvar"
        fill="none" stroke="black" stroke-width="1"
        d="M 967.00,426.00
           C 967.00,426.00 1035.00,396.15 1035.00,396.15
             1041.16,393.51 1054.79,385.83 1061.00,388.01
             1064.35,389.18 1073.13,394.08 1074.83,397.10
             1076.44,399.98 1075.44,402.26 1077.92,407.00
             1077.92,407.00 1083.46,416.00 1083.46,416.00
             1083.46,416.00 1087.61,429.00 1087.61,429.00
             1087.61,429.00 1092.39,438.00 1092.39,438.00
             1092.39,438.00 1097.00,452.00 1097.00,452.00
             1093.21,452.01 1089.38,451.63 1086.39,454.43
             1082.87,457.73 1082.64,463.47 1079.35,467.96
             1076.94,471.27 1060.28,484.42 1056.00,487.79
             1053.17,490.02 1047.44,494.54 1044.01,495.30
             1037.45,496.75 1033.34,484.01 1031.84,479.09
             1030.49,474.67 1028.63,471.70 1029.00,467.00
             1023.98,463.71 1025.05,462.26 1019.91,458.33
             1012.82,452.92 1000.77,447.79 997.00,440.00
             997.00,440.00 988.00,440.00 988.00,440.00
             976.39,439.87 971.97,437.02 967.00,426.00 Z" />
  <path id="Tanauan"
        fill="none" stroke="black" stroke-width="1"
        d="M 902.00,274.00
           C 902.00,274.00 918.00,264.33 918.00,264.33
             932.15,254.84 943.30,244.70 960.00,239.34
             964.24,237.99 973.76,235.81 978.00,236.72
             980.55,237.27 984.68,239.66 987.00,241.01
             990.47,243.04 1002.03,249.16 1003.43,252.33
             1004.14,253.93 1004.00,257.19 1004.00,259.00
             1004.00,259.00 1004.00,279.00 1004.00,279.00
             1004.01,281.63 1003.81,284.60 1005.02,287.00
             1008.33,293.54 1019.50,297.41 1022.83,304.00
             1026.73,311.74 1019.28,315.21 1020.06,325.00
             1020.59,331.59 1029.23,337.13 1034.00,341.28
             1037.74,344.53 1051.22,355.60 1052.98,359.01
             1054.01,361.01 1054.77,369.34 1055.00,372.00
             1055.27,375.15 1056.81,381.82 1055.00,384.35
             1053.55,386.40 1045.63,389.30 1043.00,390.42
             1043.00,390.42 1015.00,402.42 1015.00,402.42
             1015.00,402.42 963.00,425.69 963.00,425.69
             963.00,425.69 942.00,435.31 942.00,435.31
             942.00,435.31 928.00,443.60 928.00,443.60
             928.00,443.60 919.04,447.34 919.04,447.34
             914.17,450.43 911.96,455.59 907.83,456.71
             904.58,457.59 896.24,457.16 894.60,453.70
             893.75,451.91 893.96,444.35 894.00,442.00
             894.18,432.48 901.47,429.82 906.72,421.00
             911.41,413.12 909.32,408.25 910.31,404.00
             911.54,398.70 913.85,400.03 913.78,392.00
             914.03,389.87 914.09,385.97 913.78,384.00
             912.79,380.99 910.32,377.85 908.79,375.00
             905.63,369.09 904.75,365.38 899.82,360.04
             894.11,353.86 887.63,352.76 888.28,347.98
             888.68,345.05 892.96,341.13 894.97,339.00
             900.16,333.50 906.85,327.96 906.86,320.00
             906.86,320.00 906.86,296.00 906.86,296.00
             907.00,293.01 907.20,285.50 906.86,283.00
             905.87,280.11 903.50,276.69 902.00,274.00 Z" />
  <path id="Talisay"
        fill="none" stroke="black" stroke-width="1"
        d="M 753.00,336.00
           C 753.00,336.00 799.00,314.43 799.00,314.43
             799.00,314.43 827.00,303.08 827.00,303.08
             827.00,303.08 848.00,296.14 848.00,296.14
             862.91,289.99 885.19,278.38 900.00,275.00
             901.16,277.10 902.85,279.74 903.49,282.00
             904.25,284.65 904.00,291.88 904.00,295.00
             904.00,295.00 904.00,320.00 904.00,320.00
             903.85,328.01 900.26,330.47 895.03,336.00
             887.93,343.52 888.74,345.98 878.00,346.00
             874.66,346.01 869.03,345.74 866.00,346.65
             861.58,347.97 859.12,350.99 854.00,351.79
             847.66,352.78 841.32,351.08 835.00,351.00
             831.46,350.96 822.98,350.61 820.04,351.85
             816.11,353.52 814.53,357.17 811.70,359.28
             809.26,361.09 805.00,361.89 802.00,362.38
             793.44,363.78 789.61,357.85 782.00,354.32
             772.61,349.97 768.61,352.73 765.17,351.39
             761.48,349.95 754.89,339.68 753.00,336.00 Z
           M 876.00,316.00
           C 876.00,316.00 875.00,316.00 875.00,316.00
             875.00,316.00 876.00,317.00 876.00,317.00
             876.00,317.00 876.00,316.00 876.00,316.00 Z
           M 765.00,468.00
           C 765.00,463.84 764.91,458.03 766.22,454.09
             767.56,450.09 770.89,448.77 770.42,445.00
             769.56,438.00 759.83,439.11 760.14,429.00
             760.19,427.14 760.65,424.90 761.85,423.43
             764.16,420.61 772.66,420.09 775.59,422.02
             779.02,424.29 779.29,432.99 789.00,431.52
             795.54,430.54 799.13,427.08 803.00,426.48
             806.88,425.88 813.45,428.73 820.99,425.08
             825.70,422.80 831.51,414.38 837.72,416.69
             841.24,417.99 841.40,424.98 840.69,428.00
             839.54,432.92 834.94,436.01 835.31,443.00
             835.57,447.87 839.29,448.53 840.57,453.04
             841.74,457.18 840.05,466.01 840.00,471.00
             840.00,471.00 805.00,470.00 805.00,470.00
             805.00,470.00 788.00,469.00 788.00,469.00
             788.00,469.00 765.00,468.00 765.00,468.00 Z" />
  <path id="Agoncillo"
        fill="none" stroke="black" stroke-width="1"
        d="M 682.00,473.00
           C 682.00,473.00 742.00,455.00 742.00,455.00
             742.00,455.00 742.00,494.00 742.00,494.00
             742.01,497.30 742.65,507.19 743.58,510.00
             745.09,514.58 748.24,515.92 746.52,524.00
             744.78,532.17 739.13,534.51 734.32,540.04
             729.65,545.42 726.61,552.86 726.21,560.00
             725.80,567.26 728.25,578.67 731.88,585.00
             733.87,588.47 739.71,594.31 738.72,598.00
             738.20,599.90 735.08,603.41 733.73,605.00
             731.41,607.72 728.08,611.92 724.96,613.55
             721.47,615.37 718.62,614.72 715.00,615.32
             712.38,615.76 705.64,618.05 703.00,619.06
             699.40,620.45 692.11,625.38 689.00,624.60
             685.99,623.85 678.28,616.52 676.23,614.00
             671.47,608.13 674.64,605.32 675.68,599.00
             675.68,599.00 677.00,579.00 677.00,579.00
             677.01,569.86 676.51,562.00 678.92,553.00
             681.76,542.43 685.92,542.07 686.31,529.15
             686.31,529.15 686.31,521.00 686.31,521.00
             686.31,521.00 682.00,473.00 682.00,473.00 Z" />
  <path id="Laurel"
        fill="none" stroke="black" stroke-width="1"
        d="M 742.00,453.00
           C 742.00,453.00 699.00,465.67 699.00,465.67
             694.02,467.29 682.74,471.58 678.00,470.35
             674.96,469.57 664.19,463.81 661.00,462.00
             661.00,462.00 634.00,445.14 634.00,445.14
             634.00,445.14 609.00,427.02 609.00,427.02
             605.77,424.79 595.80,418.24 593.81,415.68
             592.11,413.48 590.24,407.88 588.88,405.00
             587.43,401.92 581.32,393.00 582.30,390.21
             583.03,388.11 587.14,385.87 589.00,384.66
             596.27,379.92 600.78,377.56 609.00,374.69
             609.00,374.69 630.00,368.55 630.00,368.55
             634.92,366.56 642.21,362.04 647.00,361.34
             652.83,360.49 654.86,363.74 660.00,363.73
             660.00,363.73 688.00,358.20 688.00,358.20
             705.91,354.62 720.39,353.05 737.00,344.75
             743.13,341.69 748.93,336.06 754.11,342.06
             756.41,344.72 762.29,351.21 760.26,354.79
             758.93,357.14 755.32,358.18 753.31,362.04
             751.57,365.40 751.98,370.68 750.02,373.67
             746.38,379.20 734.27,381.54 728.00,381.91
             728.00,381.91 719.06,381.91 719.06,381.91
             712.98,383.81 715.48,391.97 717.67,395.96
             721.79,403.47 731.33,405.19 735.15,411.09
             736.93,413.85 736.96,416.84 737.00,420.00
             737.03,422.73 737.27,426.27 736.00,428.72
             734.90,430.83 732.20,432.78 732.15,435.99
             732.11,439.30 734.78,440.64 736.04,442.59
             738.26,446.06 735.59,444.53 742.00,453.00 Z" />
  <path id="Lemery"
        fill="none" stroke="black" stroke-width="1"
        d="M 595.00,420.00
           C 595.00,420.00 655.00,460.99 655.00,460.99
             655.00,460.99 670.00,469.14 670.00,469.14
             673.25,470.61 677.46,471.64 678.99,475.21
             678.99,475.21 682.05,498.00 682.05,498.00
             682.05,498.00 683.92,511.00 683.92,511.00
             683.92,511.00 683.92,529.00 683.92,529.00
             683.98,542.83 679.27,542.12 676.51,553.00
             673.94,563.15 674.12,581.18 674.00,592.00
             673.90,600.26 670.74,606.22 671.60,610.00
             672.95,615.94 682.51,621.78 687.00,628.00
             678.62,637.94 678.66,643.76 679.83,656.00
             679.83,656.00 680.47,665.00 680.47,665.00
             681.85,672.17 685.89,674.62 684.90,679.00
             683.81,683.78 677.00,687.75 673.00,690.00
             670.11,683.34 660.57,668.69 654.96,664.51
             654.96,664.51 639.00,656.32 639.00,656.32
             634.33,653.38 622.54,645.45 618.00,644.11
             618.00,644.11 595.00,641.83 595.00,641.83
             595.00,641.83 588.00,639.77 588.00,639.77
             581.11,637.74 576.96,638.00 570.00,638.00
             570.00,638.00 581.69,615.00 581.69,615.00
             581.69,615.00 593.59,586.00 593.59,586.00
             593.59,586.00 597.77,576.00 597.77,576.00
             597.77,576.00 601.00,564.00 601.00,564.00
             603.05,557.77 609.30,537.57 609.82,532.00
             610.79,521.65 603.02,517.60 603.00,503.00
             602.97,486.04 604.04,461.02 601.70,445.00
             601.70,445.00 595.00,420.00 595.00,420.00 Z" />
  <path id="Calaca"
        fill="none" stroke="black" stroke-width="1"
        d="M 543.00,389.00
           C 543.00,389.00 569.00,386.98 569.00,386.98
             571.10,387.35 574.13,388.99 575.91,390.17
             587.01,397.57 591.91,420.73 596.00,433.00
             601.26,448.78 601.03,465.51 601.00,482.00
             601.00,482.00 600.00,502.00 600.00,502.00
             600.15,514.48 607.75,521.79 607.82,530.00
             607.85,534.05 604.28,545.54 603.00,550.00
             603.00,550.00 598.45,566.00 598.45,566.00
             598.45,566.00 594.81,574.00 594.81,574.00
             594.81,574.00 593.24,581.00 593.24,581.00
             593.24,581.00 590.40,589.00 590.40,589.00
             590.40,589.00 576.25,621.00 576.25,621.00
             573.59,626.31 571.51,632.02 567.00,636.00
             564.15,633.29 561.75,630.82 558.00,629.34
             552.42,627.14 549.94,629.09 542.00,626.30
             526.14,620.73 518.52,612.22 500.00,612.00
             500.00,612.00 488.00,612.00 488.00,612.00
             484.94,612.00 479.10,612.20 476.72,610.10
             475.02,608.59 474.44,605.15 473.85,603.00
             473.85,603.00 469.12,586.00 469.12,586.00
             466.14,574.74 461.02,561.51 461.00,550.00
             461.00,550.00 462.00,525.00 462.00,525.00
             462.00,525.00 463.00,511.00 463.00,511.00
             463.04,507.37 462.56,502.23 464.17,499.00
             466.10,495.16 470.80,491.69 474.00,488.84
             482.82,480.96 491.85,473.33 502.00,467.20
             507.34,463.98 510.15,462.60 516.00,460.43
             518.33,459.57 521.56,458.90 522.98,456.70
             524.47,454.39 523.95,447.91 524.00,445.00
             524.21,433.88 531.55,435.20 537.68,422.00
             541.84,413.03 541.16,399.29 543.00,389.00 Z" />
  <path id="Balayan"
        fill="none" stroke="black" stroke-width="1"
        d="M 473.00,611.00
           C 473.00,611.00 457.17,608.14 457.17,608.14
             454.35,607.01 453.33,605.12 449.99,604.15
             449.99,604.15 439.00,604.15 439.00,604.15
             427.27,603.78 430.79,594.40 417.00,594.02
             414.07,593.93 410.67,593.85 408.00,595.17
             404.61,596.84 402.97,599.70 399.00,600.69
             399.00,600.69 384.00,601.33 384.00,601.33
             378.99,602.22 373.77,605.95 370.04,609.30
             365.96,612.96 363.17,617.31 360.42,622.00
             359.08,624.30 357.25,628.39 354.67,629.39
             352.10,630.39 346.65,628.46 344.00,627.71
             344.00,627.71 319.11,620.87 319.11,620.87
             314.93,618.93 314.34,615.02 313.00,611.00
             313.00,611.00 305.87,588.00 305.87,588.00
             305.87,588.00 297.04,556.00 297.04,556.00
             296.60,543.87 308.13,525.10 314.59,515.00
             318.80,508.42 326.47,495.97 334.01,493.57
             347.22,489.37 359.48,497.17 365.56,509.00
             366.94,511.67 368.56,517.89 369.37,521.00
             370.58,525.64 372.65,540.42 380.00,536.28
             383.16,534.50 389.82,527.00 392.42,524.00
             396.76,519.01 404.80,510.83 410.00,506.90
             421.65,498.08 429.42,498.84 441.00,490.91
             452.10,483.30 447.67,478.18 454.22,471.80
             461.17,465.04 474.40,459.64 481.32,450.96
             487.56,443.13 485.39,437.98 489.36,431.00
             492.02,426.35 495.49,423.98 498.61,420.00
             498.61,420.00 505.69,408.00 505.69,408.00
             510.62,398.89 512.98,389.21 525.00,389.00
             525.00,389.00 540.00,389.00 540.00,389.00
             540.00,397.07 538.83,415.04 535.51,422.00
             530.41,432.69 522.20,433.12 522.00,445.00
             521.96,447.57 522.44,453.45 520.98,455.44
             519.79,457.06 514.14,458.78 512.00,459.73
             505.57,462.58 499.75,465.99 494.00,470.04
             485.44,476.05 477.55,482.75 470.00,489.96
             467.74,492.12 463.36,495.48 462.02,498.04
             460.60,500.76 461.10,504.93 460.96,508.00
             460.96,508.00 460.00,521.00 460.00,521.00
             460.00,521.00 458.53,555.00 458.53,555.00
             458.53,555.00 473.00,611.00 473.00,611.00 Z" />
  <path id="Tuy"
        fill="none" stroke="black" stroke-width="1"
        d="M 329.00,493.00
           C 329.00,493.00 329.00,477.00 329.00,477.00
             329.00,477.00 328.00,460.00 328.00,460.00
             328.02,446.69 335.80,434.81 338.87,422.00
             339.70,418.54 340.81,411.50 340.96,408.00
             341.15,403.73 340.11,400.10 344.15,397.36
             347.78,394.90 352.77,394.33 357.00,393.73
             357.00,393.73 383.00,391.09 383.00,391.09
             387.24,390.78 395.51,390.61 399.00,388.40
             402.52,386.18 405.11,381.95 410.00,379.57
             414.18,377.52 420.06,377.21 423.79,374.30
             427.26,371.60 428.13,367.24 431.38,365.48
             435.90,363.03 444.48,365.18 452.00,361.94
             459.63,358.66 467.96,350.30 477.00,352.56
             480.70,353.48 485.22,356.59 486.98,360.01
             488.02,362.03 488.24,366.53 488.58,369.00
             488.58,369.00 491.00,390.00 491.00,390.00
             491.25,392.85 491.73,400.48 493.60,402.42
             495.73,404.63 501.07,404.87 504.00,405.00
             502.46,410.42 499.14,416.60 495.62,421.00
             492.67,424.69 488.59,427.81 486.45,432.00
             483.37,438.02 485.11,444.79 477.95,451.91
             477.95,451.91 453.05,470.29 453.05,470.29
             445.40,477.48 449.90,482.03 440.00,489.21
             432.59,494.59 419.78,497.22 410.00,504.51
             398.00,513.47 384.61,531.93 376.00,536.00
             376.00,536.00 367.33,508.00 367.33,508.00
             365.51,504.54 362.76,501.73 360.00,499.02
             349.83,489.02 341.92,488.04 329.00,493.00 Z" />
  <path id="Calatagan"
        fill="none" stroke="black" stroke-width="1"
        d="M 226.00,596.00
           C 226.00,596.00 282.00,596.00 282.00,596.00
             282.00,596.00 294.00,595.04 294.00,595.04
             294.00,595.04 306.00,595.04 306.00,595.04
             307.06,599.68 312.04,617.62 314.70,620.57
             317.00,623.12 323.61,624.49 327.00,625.37
             327.00,625.37 354.00,633.00 354.00,633.00
             351.76,639.90 351.48,646.78 352.08,654.00
             352.64,658.98 354.38,665.44 352.08,670.00
             356.00,672.73 356.12,674.48 359.19,678.00
             359.19,678.00 370.96,689.91 370.96,689.91
             375.22,694.06 384.87,703.57 386.74,709.00
             387.00,710.71 387.03,713.20 386.74,715.00
             386.79,722.71 383.42,722.87 378.17,727.61
             371.93,733.25 370.07,735.75 361.00,735.73
             353.20,735.71 341.30,724.89 333.00,722.10
             328.10,720.46 321.26,721.06 316.00,721.00
             316.00,721.00 305.00,720.04 305.00,720.04
             305.00,720.04 295.00,720.62 295.00,720.62
             286.15,720.97 293.00,718.03 280.00,721.49
             277.56,722.14 274.40,722.40 273.35,725.15
             271.91,728.90 277.47,735.70 277.31,740.00
             277.14,744.70 271.09,747.81 272.69,754.00
             274.59,761.33 281.19,760.46 285.53,767.04
             294.26,780.26 294.27,791.54 298.53,799.00
             302.41,805.79 309.25,809.73 310.82,815.00
             313.27,823.23 301.09,837.98 296.20,844.00
             294.06,846.62 291.43,850.11 288.00,850.97
             282.17,852.44 271.05,844.33 268.25,839.71
             266.34,836.58 266.39,832.65 263.67,828.00
             260.17,822.01 254.50,815.58 250.24,810.00
             250.24,810.00 239.82,795.04 239.82,795.04
             235.37,790.21 229.61,787.23 224.00,784.00
             224.66,782.31 224.74,781.39 226.42,780.29
             227.98,779.26 240.79,777.73 239.07,769.02
             237.66,761.84 231.21,767.52 226.01,763.67
             219.48,758.83 213.66,745.06 213.48,737.00
             213.41,733.82 215.03,730.23 215.71,727.00
             217.31,719.43 218.99,711.74 219.00,704.00
             219.01,698.37 218.44,676.86 219.70,673.00
             221.29,668.10 229.29,657.79 229.89,653.00
             229.89,653.00 229.00,642.00 229.00,642.00
             228.80,624.59 230.49,613.24 226.00,596.00 Z
           M 257.00,669.00
           C 257.00,669.00 256.00,669.00 256.00,669.00
             256.00,669.00 257.00,670.00 257.00,670.00
             257.00,670.00 257.00,669.00 257.00,669.00 Z" />
  <path id="Nasugbu"
        fill="none" stroke="black" stroke-width="1"
        d="M 157.00,126.00
           C 157.00,126.00 199.00,145.25 199.00,145.25
             199.00,145.25 216.72,153.48 216.72,153.48
             220.51,154.42 225.20,149.25 228.00,147.00
             228.00,147.00 245.00,133.20 245.00,133.20
             247.10,131.52 251.51,127.64 254.00,127.12
             257.34,126.43 264.94,131.26 268.00,133.00
             268.00,133.00 301.00,150.86 301.00,150.86
             304.09,152.57 313.44,156.71 314.01,160.10
             314.45,162.69 310.07,170.37 308.75,173.00
             308.75,173.00 291.00,207.00 291.00,207.00
             291.00,207.00 319.00,206.00 319.00,206.00
             320.91,206.00 324.09,205.88 325.82,206.60
             329.13,207.98 335.88,218.62 338.29,222.00
             338.29,222.00 362.42,256.00 362.42,256.00
             364.40,258.76 370.94,268.65 373.32,269.94
             376.70,271.76 381.97,268.73 385.00,267.16
             391.90,263.59 396.97,260.62 405.00,261.04
             411.81,261.40 416.23,265.32 422.00,268.31
             431.54,273.25 433.84,268.56 439.91,274.15
             450.88,284.25 457.87,314.39 474.00,327.53
             476.45,329.53 479.85,332.00 483.00,332.57
             491.34,334.07 503.49,323.92 510.00,324.62
             512.47,324.88 518.56,327.02 521.00,328.01
             540.65,336.02 551.53,350.62 560.75,369.00
             563.24,373.95 566.45,378.68 568.00,384.00
             568.00,384.00 537.00,386.82 537.00,386.82
             531.95,386.94 525.65,385.19 521.00,386.82
             509.88,390.13 510.77,401.22 502.00,401.94
             494.08,402.59 494.49,399.96 493.84,394.00
             493.84,394.00 492.85,386.00 492.85,386.00
             492.28,381.23 490.52,361.98 488.98,359.00
             486.58,354.37 480.17,350.49 475.00,350.12
             466.04,349.47 459.52,356.24 452.00,359.59
             445.41,362.53 435.13,361.21 431.04,363.31
             426.64,365.58 425.90,369.78 422.67,372.44
             419.26,375.25 412.24,375.65 408.00,378.09
             402.60,381.18 400.67,386.22 395.96,387.57
             395.96,387.57 348.00,393.22 348.00,393.22
             342.16,395.06 338.73,397.97 334.00,401.57
             332.04,403.06 328.58,405.91 326.01,405.75
             320.61,405.42 319.26,395.94 311.00,393.57
             305.72,392.05 293.12,392.82 288.00,394.83
             281.53,397.36 278.09,400.67 271.00,402.00
             271.00,402.00 267.69,386.11 267.69,386.11
             265.80,382.66 262.54,381.98 259.00,381.21
             246.18,378.42 244.23,383.36 233.00,386.00
             233.00,380.94 233.41,372.63 232.24,368.00
             231.73,365.97 230.11,360.77 229.07,359.13
             227.54,356.70 225.55,355.94 224.60,353.74
             223.67,351.59 224.00,341.92 224.00,339.00
             224.01,335.22 223.87,332.68 225.10,329.00
             227.33,322.33 232.45,317.02 225.78,310.21
             217.71,301.98 194.07,300.81 188.14,297.43
             182.90,294.45 185.12,287.89 180.72,284.64
             178.24,282.80 174.01,283.92 171.00,283.99
             164.02,284.14 146.19,282.99 148.52,272.11
             149.25,268.69 152.85,267.38 156.00,267.71
             156.00,267.71 168.00,271.88 168.00,271.88
             176.01,273.71 176.48,272.61 184.00,271.88
             184.15,268.97 183.34,260.81 185.60,259.02
             187.19,257.76 191.00,258.01 193.00,258.00
             200.28,257.95 208.28,258.14 208.90,249.00
             209.01,247.45 208.94,245.46 208.40,244.00
             205.61,236.48 190.90,232.90 184.00,229.68
             184.00,229.68 174.00,224.76 174.00,224.76
             164.23,221.40 160.34,224.52 160.00,215.00
             169.94,213.22 184.50,214.02 195.00,214.00
             199.73,213.99 204.07,214.15 207.77,210.61
             210.32,208.17 211.47,204.14 207.77,202.06
             204.62,200.29 198.80,203.64 191.00,204.00
             190.55,201.53 189.97,196.33 188.26,194.60
             184.87,191.15 176.55,195.06 174.06,190.69
             173.36,189.14 173.97,184.05 174.06,182.00
             174.06,182.00 174.06,173.00 174.06,173.00
             174.12,162.68 176.91,159.10 172.54,148.00
             168.52,137.82 162.75,134.05 157.00,126.00 Z" />
  <path id="Lian"
        fill="none" stroke="black" stroke-width="1"
        d="M 233.00,389.00
           C 241.72,385.30 246.17,382.37 256.00,383.09
             259.40,383.34 263.79,384.03 265.69,387.22
             267.99,391.12 266.46,401.35 270.79,403.59
             273.72,405.10 279.43,401.24 282.00,399.89
             289.75,395.82 294.39,394.91 303.00,395.00
             308.14,395.06 311.93,395.36 315.82,399.14
             318.74,401.99 321.25,407.41 325.01,408.18
             328.55,408.90 335.64,402.93 339.00,401.00
             338.99,412.07 337.27,421.55 333.66,432.00
             330.14,442.16 326.02,447.88 326.04,459.00
             326.04,459.00 326.04,476.00 326.04,476.00
             326.04,476.00 327.00,486.00 327.00,486.00
             327.15,499.23 321.99,500.61 314.72,511.00
             307.54,521.26 295.55,541.45 295.28,554.00
             294.95,556.33 295.03,558.71 295.28,561.00
             295.28,561.00 300.98,578.00 300.98,578.00
             300.98,578.00 305.00,593.00 305.00,593.00
             305.00,593.00 271.00,593.00 271.00,593.00
             271.00,593.00 255.00,594.00 255.00,594.00
             255.00,594.00 232.00,594.00 232.00,594.00
             225.83,593.96 218.18,590.46 215.02,584.83
             211.03,577.69 217.44,573.44 218.76,570.87
             220.47,567.84 220.37,561.14 218.76,558.13
             216.31,553.88 212.63,555.04 209.60,552.42
             203.21,546.89 200.18,538.18 200.00,530.00
             202.99,530.00 207.25,529.67 209.91,531.01
             212.14,532.13 213.64,534.39 216.09,535.09
             216.09,535.09 228.00,534.27 228.00,534.27
             231.86,534.25 235.71,533.46 237.83,529.81
             237.83,529.81 240.90,516.43 240.90,516.43
             241.87,510.80 236.33,505.94 233.21,502.00
             228.47,496.02 231.27,494.53 228.40,490.00
             225.13,484.82 219.89,483.09 219.11,476.00
             218.83,473.49 218.83,469.54 220.00,467.28
             221.18,465.02 223.59,463.56 223.75,460.00
             223.98,454.49 219.51,454.86 219.05,448.96
             218.88,446.80 219.06,444.02 219.85,442.00
             219.85,442.00 231.60,422.00 231.60,422.00
             234.89,414.97 234.84,396.58 233.00,389.00 Z" />
</svg>
