<?xml version="1.0" encoding="UTF-8" standalone="no"?>
<!DOCTYPE svg PUBLIC "-//W3C//DTD SVG 20010904//EN"
              "http://www.w3.org/TR/2001/REC-SVG-20010904/DTD/svg10.dtd">

<svg xmlns="http://www.w3.org/2000/svg"
     width="643.386mm" height="965.079mm"
     viewBox="0 0 1824 2736">
  <path id="Bokod"
        fill="none" stroke="black" stroke-width="1"
        d="M 1486.00,1356.00
           C 1486.00,1356.00 1480.21,1386.00 1480.21,1386.00
             1480.21,1386.00 1474.12,1415.00 1474.12,1415.00
             1474.12,1415.00 1465.58,1450.00 1465.58,1450.00
             1465.58,1450.00 1459.08,1479.00 1459.08,1479.00
             1459.08,1479.00 1461.73,1500.00 1461.73,1500.00
             1461.73,1500.00 1466.73,1536.00 1466.73,1536.00
             1466.73,1536.00 1475.28,1597.00 1475.28,1597.00
             1475.28,1597.00 1477.83,1615.00 1477.83,1615.00
             1477.83,1615.00 1480.17,1643.00 1480.17,1643.00
             1480.17,1643.00 1483.09,1676.00 1483.09,1676.00
             1483.09,1676.00 1484.00,1686.00 1484.00,1686.00
             1484.00,1686.00 1484.00,1744.00 1484.00,1744.00
             1483.98,1755.02 1479.08,1761.33 1474.25,1771.00
             1474.25,1771.00 1455.25,1810.00 1455.25,1810.00
             1455.25,1810.00 1382.25,1958.00 1382.25,1958.00
             1382.25,1958.00 1350.25,2023.00 1350.25,2023.00
             1348.35,2026.80 1342.55,2039.95 1339.61,2041.83
             1337.39,2043.24 1333.58,2043.00 1331.00,2043.04
             1331.00,2043.04 1315.00,2043.04 1315.00,2043.04
             1315.00,2043.04 1303.00,2044.00 1303.00,2044.00
             1303.00,2044.00 1288.00,2044.00 1288.00,2044.00
             1288.00,2044.00 1267.00,2045.00 1267.00,2045.00
             1267.00,2045.00 1252.17,2045.96 1252.17,2045.96
             1252.17,2045.96 1234.00,2045.96 1234.00,2045.96
             1229.39,2046.06 1219.92,2048.16 1216.21,2045.96
             1212.77,2043.95 1207.88,2031.26 1205.75,2027.00
             1205.75,2027.00 1181.14,1975.00 1181.14,1975.00
             1181.14,1975.00 1164.09,1938.00 1164.09,1938.00
             1164.09,1938.00 1129.30,1860.00 1129.30,1860.00
             1129.30,1860.00 1114.28,1826.00 1114.28,1826.00
             1112.09,1820.93 1107.16,1809.02 1104.38,1805.00
             1099.07,1797.32 1088.62,1786.17 1082.17,1779.00
             1082.17,1779.00 1049.72,1742.00 1049.72,1742.00
             1049.72,1742.00 1034.85,1725.00 1034.85,1725.00
             1032.52,1722.34 1028.83,1718.47 1027.92,1715.00
             1027.00,1711.50 1028.93,1709.14 1030.04,1706.00
             1030.04,1706.00 1032.67,1693.00 1032.67,1693.00
             1033.09,1688.07 1030.39,1681.11 1029.46,1676.00
             1029.46,1676.00 1026.87,1657.00 1026.87,1657.00
             1025.83,1653.78 1023.31,1649.78 1019.96,1648.62
             1012.87,1646.16 1001.11,1660.56 997.99,1666.00
             995.79,1669.84 996.00,1675.33 992.27,1674.28
             990.22,1673.71 985.16,1666.91 983.61,1665.00
             983.61,1665.00 962.40,1639.00 962.40,1639.00
             962.40,1639.00 938.20,1608.00 938.20,1608.00
             938.20,1608.00 898.71,1557.00 898.71,1557.00
             898.71,1557.00 882.43,1535.00 882.43,1535.00
             880.75,1532.66 876.26,1526.46 875.58,1524.00
             874.37,1519.63 877.28,1516.92 880.00,1514.00
             880.00,1514.00 896.00,1497.00 896.00,1497.00
             896.00,1497.00 914.96,1478.00 914.96,1478.00
             914.96,1478.00 927.00,1465.00 927.00,1465.00
             930.27,1461.72 941.34,1451.26 942.98,1448.00
             944.38,1445.21 944.99,1434.49 945.00,1431.00
             945.00,1431.00 946.00,1413.00 946.00,1413.00
             946.01,1408.64 945.75,1401.91 947.98,1398.09
             950.34,1394.05 962.55,1385.27 967.00,1382.98
             967.00,1382.98 977.00,1378.30 977.00,1378.30
             981.54,1375.24 985.37,1370.01 989.09,1366.00
             989.09,1366.00 1005.57,1348.00 1005.57,1348.00
             1008.47,1344.08 1009.36,1337.76 1010.71,1333.00
             1015.14,1317.41 1014.62,1310.03 1027.17,1298.14
             1035.85,1289.92 1052.17,1296.61 1060.57,1287.89
             1060.57,1287.89 1080.41,1264.00 1080.41,1264.00
             1084.28,1259.35 1086.91,1254.92 1093.00,1253.25
             1095.95,1252.45 1099.96,1251.85 1103.00,1252.19
             1103.00,1252.19 1135.00,1263.00 1135.00,1263.00
             1169.00,1274.59 1202.00,1288.99 1235.00,1303.15
             1235.00,1303.15 1296.00,1329.28 1296.00,1329.28
             1296.00,1329.28 1328.00,1342.61 1328.00,1342.61
             1328.00,1342.61 1383.00,1347.17 1383.00,1347.17
             1383.00,1347.17 1445.00,1352.17 1445.00,1352.17
             1445.00,1352.17 1486.00,1356.00 1486.00,1356.00 Z
           M 1133.00,1452.32
           C 1120.64,1455.15 1124.54,1460.81 1121.12,1469.09
             1121.12,1469.09 1115.31,1481.00 1115.31,1481.00
             1110.88,1490.64 1107.71,1501.11 1101.68,1509.94
             1097.91,1515.46 1091.99,1514.92 1086.00,1515.00
             1075.46,1515.14 1053.97,1517.63 1052.15,1531.00
             1051.32,1537.07 1054.76,1539.40 1057.53,1544.00
             1059.12,1546.65 1062.92,1559.20 1062.22,1562.00
             1061.21,1566.03 1055.99,1568.83 1053.43,1572.09
             1050.24,1576.15 1049.81,1582.99 1050.02,1588.00
             1050.15,1591.13 1050.53,1593.32 1053.15,1595.39
             1056.34,1597.93 1058.58,1596.86 1062.00,1597.14
             1066.63,1597.52 1081.29,1606.52 1087.12,1598.85
             1090.58,1594.31 1089.09,1588.37 1093.42,1583.17
             1093.42,1583.17 1115.91,1562.72 1115.91,1562.72
             1115.91,1562.72 1132.42,1544.00 1132.42,1544.00
             1136.67,1539.06 1140.72,1535.08 1143.48,1529.00
             1149.34,1516.12 1148.16,1503.78 1148.00,1490.00
             1148.00,1490.00 1146.00,1464.00 1146.00,1464.00
             1145.57,1460.98 1144.84,1455.71 1142.49,1453.60
             1140.08,1451.44 1135.95,1452.00 1133.00,1452.32 Z" />
  <path id="Itogon"
        fill="none" stroke="black" stroke-width="1"
        d="M 1117.00,2429.00
           C 1117.00,2429.00 1065.00,2412.86 1065.00,2412.86
             1059.40,2411.25 1047.18,2406.70 1042.00,2407.20
             1038.62,2407.52 1029.71,2410.76 1026.00,2412.00
             1026.00,2412.00 1001.00,2420.00 1001.00,2420.00
             1001.00,2420.00 941.00,2439.02 941.00,2439.02
             941.00,2439.02 912.00,2448.24 912.00,2448.24
             912.00,2448.24 874.00,2451.09 874.00,2451.09
             874.00,2451.09 815.00,2455.04 815.00,2455.04
             815.00,2455.04 792.00,2456.91 792.00,2456.91
             792.00,2456.91 767.00,2458.09 767.00,2458.09
             767.00,2458.09 744.00,2459.38 744.00,2459.38
             744.00,2459.38 720.00,2449.14 720.00,2449.14
             720.00,2449.14 701.32,2440.19 701.32,2440.19
             698.54,2437.73 699.47,2435.11 700.29,2432.00
             700.29,2432.00 705.00,2415.00 705.00,2415.00
             705.00,2415.00 726.00,2341.00 726.00,2341.00
             726.00,2341.00 789.42,2116.00 789.42,2116.00
             789.42,2116.00 806.71,2055.00 806.71,2055.00
             806.71,2055.00 811.42,2038.00 811.42,2038.00
             811.98,2036.04 813.28,2032.53 812.82,2030.58
             812.16,2027.77 808.03,2024.06 806.00,2022.00
             806.00,2022.00 792.91,2008.00 792.91,2008.00
             792.91,2008.00 756.96,1970.00 756.96,1970.00
             756.96,1970.00 739.72,1952.00 739.72,1952.00
             735.24,1946.93 723.20,1936.65 721.51,1931.00
             720.91,1929.00 721.00,1926.12 721.00,1924.00
             721.00,1924.00 721.00,1877.00 721.00,1877.00
             721.00,1877.00 722.00,1860.00 722.00,1860.00
             722.00,1860.00 722.00,1686.00 722.00,1686.00
             722.00,1683.73 721.78,1680.34 723.02,1678.39
             725.02,1675.25 739.83,1669.57 744.00,1667.70
             744.00,1667.70 816.00,1635.70 816.00,1635.70
             816.00,1635.70 889.00,1603.14 889.00,1603.14
             889.00,1603.14 907.00,1595.14 907.00,1595.14
             910.44,1593.62 913.99,1591.64 917.91,1592.15
             921.83,1592.66 924.30,1597.12 926.60,1600.00
             926.60,1600.00 943.88,1622.00 943.88,1622.00
             943.88,1622.00 980.80,1668.00 980.80,1668.00
             987.58,1676.48 994.41,1682.47 993.96,1694.00
             993.96,1694.00 993.05,1702.00 993.05,1702.00
             993.05,1702.00 993.05,1716.00 993.05,1716.00
             993.06,1720.85 994.59,1726.45 993.61,1731.00
             993.61,1731.00 985.45,1749.00 985.45,1749.00
             982.86,1755.41 976.58,1782.34 976.21,1789.00
             976.21,1789.00 977.14,1800.00 977.14,1800.00
             978.49,1808.08 996.18,1824.75 1006.61,1811.98
             1014.00,1802.94 1010.02,1791.53 1010.00,1781.00
             1009.97,1762.41 1008.50,1751.52 1016.78,1734.00
             1018.21,1730.98 1022.01,1721.58 1026.00,1722.03
             1027.99,1722.25 1029.88,1724.64 1031.15,1726.02
             1031.15,1726.02 1041.72,1738.00 1041.72,1738.00
             1041.72,1738.00 1082.42,1785.00 1082.42,1785.00
             1082.42,1785.00 1100.03,1806.00 1100.03,1806.00
             1100.03,1806.00 1109.17,1826.00 1109.17,1826.00
             1109.17,1826.00 1126.31,1864.00 1126.31,1864.00
             1126.31,1864.00 1173.86,1970.00 1173.86,1970.00
             1173.86,1970.00 1198.26,2022.00 1198.26,2022.00
             1200.93,2027.51 1210.56,2045.49 1211.46,2050.00
             1212.69,2056.14 1207.49,2062.62 1204.76,2068.00
             1204.76,2068.00 1182.25,2111.00 1182.25,2111.00
             1182.25,2111.00 1162.31,2148.00 1162.31,2148.00
             1162.31,2148.00 1114.69,2236.00 1114.69,2236.00
             1114.69,2236.00 1095.58,2271.00 1095.58,2271.00
             1095.58,2271.00 1084.67,2292.00 1084.67,2292.00
             1083.82,2295.53 1085.45,2300.51 1086.42,2304.00
             1086.42,2304.00 1091.63,2324.00 1091.63,2324.00
             1091.63,2324.00 1110.37,2397.00 1110.37,2397.00
             1112.15,2404.12 1118.19,2422.88 1117.00,2429.00 Z" />
  <path id="Tuba"
        fill="none" stroke="black" stroke-width="1"
        d="M 275.00,1655.00
           C 275.00,1655.00 312.00,1658.84 312.00,1658.84
             312.00,1658.84 334.00,1661.28 334.00,1661.28
             334.00,1661.28 392.00,1675.70 392.00,1675.70
             392.00,1675.70 412.00,1684.00 412.00,1684.00
             412.00,1684.00 439.00,1695.95 439.00,1695.95
             439.00,1695.95 458.00,1710.77 458.00,1710.77
             458.00,1710.77 479.47,1728.29 479.47,1728.29
             491.63,1741.95 497.38,1769.32 502.42,1787.00
             502.42,1787.00 516.80,1830.00 516.80,1830.00
             516.80,1830.00 525.88,1866.00 525.88,1866.00
             529.19,1878.59 533.71,1891.89 534.00,1905.00
             534.00,1905.00 588.00,1912.58 588.00,1912.58
             588.00,1912.58 629.00,1918.42 629.00,1918.42
             629.00,1918.42 665.00,1925.40 665.00,1925.40
             665.00,1925.40 701.00,1932.80 701.00,1932.80
             704.79,1933.56 716.24,1935.48 719.00,1936.98
             722.80,1939.05 729.89,1947.08 733.19,1950.56
             733.19,1950.56 763.00,1982.00 763.00,1982.00
             763.00,1982.00 795.01,2016.00 795.01,2016.00
             798.29,2019.36 806.85,2026.63 807.59,2031.00
             808.09,2033.94 805.02,2042.77 804.02,2046.00
             804.02,2046.00 795.88,2075.00 795.88,2075.00
             795.88,2075.00 762.42,2194.00 762.42,2194.00
             762.42,2194.00 709.71,2380.00 709.71,2380.00
             709.71,2380.00 697.71,2423.00 697.71,2423.00
             696.55,2427.02 695.72,2436.55 689.96,2435.32
             689.96,2435.32 667.00,2425.23 667.00,2425.23
             667.00,2425.23 622.00,2404.86 622.00,2404.86
             622.00,2404.86 477.00,2339.69 477.00,2339.69
             477.00,2339.69 435.00,2320.70 435.00,2320.70
             435.00,2320.70 408.00,2308.79 408.00,2308.79
             408.00,2308.79 387.00,2307.00 387.00,2307.00
             387.00,2307.00 377.42,2253.00 377.42,2253.00
             377.42,2253.00 361.42,2164.00 361.42,2164.00
             361.42,2164.00 336.42,2025.00 336.42,2025.00
             336.42,2025.00 330.25,1991.00 330.25,1991.00
             330.25,1991.00 326.37,1969.00 326.37,1969.00
             324.87,1962.34 319.71,1957.26 315.65,1952.00
             315.65,1952.00 299.11,1930.00 299.11,1930.00
             296.65,1926.72 290.65,1919.36 289.07,1916.00
             287.27,1911.85 288.99,1904.10 289.07,1899.00
             289.07,1899.00 290.70,1856.00 290.70,1856.00
             290.70,1856.00 292.00,1819.00 292.00,1819.00
             292.00,1819.00 292.96,1807.00 292.96,1807.00
             292.96,1807.00 292.96,1793.00 292.96,1793.00
             292.96,1793.00 293.91,1777.00 293.91,1777.00
             293.91,1777.00 289.08,1747.00 289.08,1747.00
             289.08,1747.00 280.92,1696.00 280.92,1696.00
             280.92,1696.00 275.00,1655.00 275.00,1655.00 Z" />
  <path id="Baguio"
        fill="none" stroke="black" stroke-width="1"
        d="M 477.00,1715.00
           C 477.00,1715.00 509.00,1717.83 509.00,1717.83
             509.00,1717.83 565.00,1722.83 565.00,1722.83
             565.00,1722.83 632.00,1728.83 632.00,1728.83
             632.00,1728.83 661.00,1731.42 661.00,1731.42
             661.00,1731.42 681.00,1733.17 681.00,1733.17
             681.00,1733.17 701.00,1735.03 701.00,1735.03
             701.00,1735.03 715.98,1737.60 715.98,1737.60
             715.98,1737.60 715.98,1750.00 715.98,1750.00
             715.98,1750.00 715.98,1845.00 715.98,1845.00
             715.98,1845.00 715.00,1860.00 715.00,1860.00
             715.00,1860.00 715.00,1880.00 715.00,1880.00
             715.00,1880.00 715.66,1891.00 715.66,1891.00
             715.66,1891.00 715.00,1901.00 715.00,1901.00
             715.00,1901.00 715.00,1929.00 715.00,1929.00
             704.33,1928.90 676.94,1922.59 665.00,1920.20
             665.00,1920.20 631.00,1913.43 631.00,1913.43
             631.00,1913.43 587.00,1907.13 587.00,1907.13
             587.00,1907.13 553.00,1902.13 553.00,1902.13
             550.04,1901.72 541.62,1900.87 539.60,1899.07
             537.40,1897.11 537.16,1889.09 536.49,1886.00
             536.49,1886.00 532.43,1872.00 532.43,1872.00
             532.43,1872.00 527.13,1851.00 527.13,1851.00
             527.13,1851.00 522.25,1831.00 522.25,1831.00
             522.25,1831.00 510.03,1797.00 510.03,1797.00
             510.03,1797.00 500.28,1762.00 500.28,1762.00
             500.28,1762.00 494.66,1746.00 494.66,1746.00
             492.24,1739.18 488.31,1732.88 484.10,1727.01
             480.15,1721.50 477.59,1722.24 477.00,1715.00 Z" />
  <path id="Sablan"
        fill="none" stroke="black" stroke-width="1"
        d="M 533.00,1374.00
           C 533.00,1374.00 528.41,1407.00 528.41,1407.00
             528.41,1407.00 520.42,1457.00 520.42,1457.00
             520.42,1457.00 504.75,1557.00 504.75,1557.00
             504.75,1557.00 492.25,1627.00 492.25,1627.00
             492.25,1627.00 478.37,1687.00 478.37,1687.00
             477.35,1691.15 475.28,1705.70 471.70,1707.40
             462.46,1711.79 450.62,1699.25 444.00,1694.12
             438.17,1689.60 427.10,1685.61 420.00,1682.58
             420.00,1682.58 388.00,1669.20 388.00,1669.20
             388.00,1669.20 330.00,1655.30 330.00,1655.30
             330.00,1655.30 305.00,1652.42 305.00,1652.42
             305.00,1652.42 283.00,1649.84 283.00,1649.84
             280.64,1649.58 275.53,1649.19 273.93,1647.40
             272.04,1645.29 270.35,1631.59 269.75,1628.00
             269.75,1628.00 261.59,1577.00 261.59,1577.00
             261.59,1577.00 251.92,1518.00 251.92,1518.00
             251.12,1513.17 247.63,1494.55 248.43,1491.00
             249.33,1486.97 260.25,1472.33 263.28,1468.00
             263.28,1468.00 298.58,1417.00 298.58,1417.00
             298.58,1417.00 320.14,1386.00 320.14,1386.00
             322.55,1382.62 326.75,1375.43 330.18,1373.65
             330.18,1373.65 355.00,1366.58 355.00,1366.58
             358.78,1365.50 364.12,1363.56 368.00,1364.43
             373.36,1365.63 377.50,1371.16 382.00,1373.57
             385.10,1375.23 387.62,1374.99 391.00,1375.00
             391.00,1375.00 482.00,1375.00 482.00,1375.00
             482.00,1375.00 497.00,1374.00 497.00,1374.00
             497.00,1374.00 533.00,1374.00 533.00,1374.00 Z" />
  <path id="La Trinidad"
        fill="none" stroke="black" stroke-width="1"
        d="M 531.00,1421.00
           C 539.61,1421.51 547.17,1428.98 554.00,1433.86
             554.00,1433.86 598.00,1464.85 598.00,1464.85
             598.00,1464.85 642.00,1495.72 642.00,1495.72
             642.00,1495.72 758.00,1577.58 758.00,1577.58
             758.00,1577.58 808.00,1612.86 808.00,1612.86
             808.00,1612.86 819.87,1621.34 819.87,1621.34
             821.44,1622.64 823.29,1624.35 822.38,1626.62
             821.58,1628.61 817.86,1629.91 816.00,1630.77
             816.00,1630.77 800.00,1637.78 800.00,1637.78
             800.00,1637.78 737.00,1665.70 737.00,1665.70
             733.13,1667.44 719.92,1672.42 718.02,1675.39
             716.78,1677.34 717.00,1680.73 717.00,1683.00
             717.00,1683.00 717.00,1730.00 717.00,1730.00
             717.00,1730.00 648.00,1724.17 648.00,1724.17
             648.00,1724.17 543.00,1714.83 543.00,1714.83
             543.00,1714.83 498.00,1710.83 498.00,1710.83
             498.00,1710.83 479.00,1709.00 479.00,1709.00
             479.00,1709.00 485.13,1680.00 485.13,1680.00
             485.13,1680.00 496.55,1632.00 496.55,1632.00
             496.55,1632.00 505.42,1583.00 505.42,1583.00
             505.42,1583.00 512.57,1545.00 512.57,1545.00
             512.57,1545.00 520.27,1492.00 520.27,1492.00
             520.27,1492.00 526.25,1452.00 526.25,1452.00
             526.25,1452.00 531.00,1421.00 531.00,1421.00 Z" />
  <path id="Tublay"
        fill="none" stroke="black" stroke-width="1"
        d="M 539.00,1374.00
           C 539.00,1374.00 591.00,1374.00 591.00,1374.00
             591.00,1374.00 608.00,1373.00 608.00,1373.00
             608.00,1373.00 700.00,1373.00 700.00,1373.00
             700.00,1373.00 715.00,1372.00 715.00,1372.00
             715.00,1372.00 738.00,1372.00 738.00,1372.00
             749.52,1372.02 750.83,1377.40 757.66,1386.00
             757.66,1386.00 769.37,1400.01 769.37,1400.01
             769.37,1400.01 793.15,1429.17 793.15,1429.17
             793.15,1429.17 837.77,1483.91 837.77,1483.91
             837.77,1483.91 863.96,1516.00 863.96,1516.00
             863.96,1516.00 875.15,1532.00 875.15,1532.00
             875.15,1532.00 897.63,1562.00 897.63,1562.00
             897.63,1562.00 910.85,1580.00 910.85,1580.00
             912.80,1582.99 913.93,1586.15 910.85,1588.64
             910.85,1588.64 892.00,1597.27 892.00,1597.27
             892.00,1597.27 853.00,1614.42 853.00,1614.42
             848.28,1616.48 835.43,1623.16 831.00,1622.63
             826.86,1622.14 811.39,1610.28 807.00,1607.14
             807.00,1607.14 753.00,1568.88 753.00,1568.88
             753.00,1568.88 707.00,1536.57 707.00,1536.57
             707.00,1536.57 597.00,1458.71 597.00,1458.71
             597.00,1458.71 554.00,1428.34 554.00,1428.34
             550.63,1426.03 535.50,1415.91 534.20,1413.48
             532.37,1410.86 533.91,1405.02 534.20,1402.00
             534.20,1402.00 539.00,1374.00 539.00,1374.00 Z" />
  <path id="Kapangan"
        fill="none" stroke="black" stroke-width="1"
        d="M 741.00,1366.00
           C 741.00,1366.00 685.00,1366.00 685.00,1366.00
             685.00,1366.00 668.00,1367.00 668.00,1367.00
             668.00,1367.00 574.00,1367.00 574.00,1367.00
             574.00,1367.00 559.00,1368.00 559.00,1368.00
             559.00,1368.00 465.00,1368.00 465.00,1368.00
             465.00,1368.00 450.00,1369.00 450.00,1369.00
             450.00,1369.00 388.00,1369.00 388.00,1369.00
             382.79,1368.93 371.65,1365.04 373.66,1358.00
             374.52,1354.96 379.58,1350.49 381.83,1348.00
             381.83,1348.00 402.83,1325.00 402.83,1325.00
             402.83,1325.00 470.09,1251.00 470.09,1251.00
             470.09,1251.00 492.85,1226.00 492.85,1226.00
             492.85,1226.00 502.01,1215.42 502.01,1215.42
             503.41,1212.27 496.87,1204.77 495.00,1202.00
             495.00,1202.00 475.42,1174.00 475.42,1174.00
             473.33,1171.05 468.94,1165.76 469.87,1162.00
             470.51,1159.43 479.39,1148.73 481.61,1146.00
             481.61,1146.00 510.08,1111.00 510.08,1111.00
             510.08,1111.00 591.87,1012.00 591.87,1012.00
             591.87,1012.00 611.80,988.00 611.80,988.00
             613.89,985.42 621.25,976.23 623.43,974.76
             627.76,971.82 633.17,976.73 637.00,978.99
             637.00,978.99 671.00,998.85 671.00,998.85
             671.00,998.85 795.00,1071.99 795.00,1071.99
             795.00,1071.99 825.00,1089.58 825.00,1089.58
             827.58,1091.08 834.22,1094.00 834.56,1097.21
             834.91,1100.51 831.23,1103.34 829.00,1105.20
             829.00,1105.20 812.00,1119.27 812.00,1119.27
             812.00,1119.27 757.00,1165.73 757.00,1165.73
             753.01,1169.13 741.20,1177.76 739.60,1182.01
             738.89,1183.90 739.00,1186.95 739.00,1189.00
             739.00,1189.00 739.00,1235.00 739.00,1235.00
             739.00,1235.00 740.00,1252.00 740.00,1252.00
             740.00,1252.00 740.00,1333.00 740.00,1333.00
             740.00,1333.00 741.00,1348.00 741.00,1348.00
             741.00,1348.00 741.00,1366.00 741.00,1366.00 Z" />
  <path id="Atok"
        fill="none" stroke="black" stroke-width="1"
        d="M 1082.00,1084.21
           C 1082.00,1084.21 1103.00,1084.21 1103.00,1084.21
             1113.72,1084.02 1113.63,1087.34 1119.50,1096.00
             1124.16,1102.87 1128.81,1113.66 1129.91,1122.00
             1129.91,1122.00 1129.91,1137.00 1129.91,1137.00
             1129.97,1159.20 1115.07,1192.62 1108.71,1215.00
             1106.77,1221.83 1105.13,1227.92 1104.28,1235.00
             1103.99,1237.45 1104.30,1242.66 1102.98,1244.44
             1100.29,1248.07 1092.10,1245.93 1086.09,1251.23
             1086.09,1251.23 1057.99,1284.13 1057.99,1284.13
             1055.25,1286.46 1049.55,1286.84 1046.00,1287.41
             1035.60,1289.08 1031.88,1287.78 1024.09,1296.00
             1021.30,1298.95 1013.18,1307.77 1011.81,1311.09
             1008.50,1319.15 1005.54,1339.74 1001.45,1346.00
             1001.45,1346.00 985.02,1365.00 985.02,1365.00
             982.21,1368.01 979.43,1371.81 975.99,1374.01
             975.99,1374.01 965.00,1379.17 965.00,1379.17
             959.47,1382.27 953.81,1386.69 949.04,1390.86
             943.47,1395.72 940.15,1397.09 940.00,1405.00
             940.00,1405.00 940.00,1418.00 940.00,1418.00
             940.00,1418.00 939.04,1429.00 939.04,1429.00
             939.04,1429.00 939.04,1440.00 939.04,1440.00
             938.98,1451.22 933.72,1453.27 926.00,1461.00
             926.00,1461.00 896.00,1492.00 896.00,1492.00
             896.00,1492.00 877.70,1511.07 877.70,1511.07
             875.41,1513.44 872.66,1516.49 869.04,1514.92
             866.74,1513.93 863.73,1509.98 862.08,1508.00
             862.08,1508.00 849.12,1492.00 849.12,1492.00
             849.12,1492.00 809.20,1443.00 809.20,1443.00
             809.20,1443.00 764.01,1387.42 764.01,1387.42
             760.89,1383.69 748.75,1369.38 747.58,1366.00
             746.89,1363.97 747.00,1361.16 747.00,1359.00
             747.00,1359.00 747.00,1334.00 747.00,1334.00
             747.00,1334.00 746.00,1319.00 746.00,1319.00
             746.00,1319.00 746.00,1264.00 746.00,1264.00
             746.00,1264.00 745.00,1249.00 745.00,1249.00
             745.00,1249.00 745.00,1189.00 745.00,1189.00
             745.02,1176.99 749.66,1176.72 759.00,1168.92
             759.00,1168.92 783.91,1148.15 783.91,1148.15
             783.91,1148.15 827.83,1111.50 827.83,1111.50
             836.55,1104.07 847.83,1093.81 859.00,1090.63
             862.58,1089.62 867.13,1090.20 871.00,1089.83
             871.00,1089.83 909.00,1089.00 909.00,1089.00
             909.00,1089.00 924.00,1088.00 924.00,1088.00
             924.00,1088.00 990.00,1087.00 990.00,1087.00
             990.00,1087.00 1007.00,1086.00 1007.00,1086.00
             1007.00,1086.00 1031.00,1086.00 1031.00,1086.00
             1031.00,1086.00 1048.00,1085.00 1048.00,1085.00
             1048.00,1085.00 1082.00,1084.21 1082.00,1084.21 Z" />
  <path id="Kabayan"
        fill="none" stroke="black" stroke-width="1"
        d="M 1493.00,942.00
           C 1493.00,942.00 1493.00,974.00 1493.00,974.00
             1493.00,974.00 1492.00,991.00 1492.00,991.00
             1492.00,991.00 1492.00,1027.00 1492.00,1027.00
             1492.00,1027.00 1491.00,1044.00 1491.00,1044.00
             1491.00,1044.00 1490.00,1135.00 1490.00,1135.00
             1490.00,1135.00 1489.00,1150.00 1489.00,1150.00
             1489.00,1150.00 1489.00,1173.00 1489.00,1173.00
             1489.05,1182.61 1492.50,1185.25 1497.67,1193.00
             1497.67,1193.00 1515.42,1220.00 1515.42,1220.00
             1516.98,1222.48 1521.38,1228.70 1522.07,1231.00
             1522.98,1234.06 1521.62,1237.11 1520.67,1240.00
             1520.67,1240.00 1514.67,1258.00 1514.67,1258.00
             1514.67,1258.00 1501.72,1297.00 1501.72,1297.00
             1501.72,1297.00 1495.37,1322.00 1495.37,1322.00
             1495.37,1322.00 1490.42,1341.00 1490.42,1341.00
             1489.81,1343.20 1489.14,1346.84 1487.44,1348.40
             1485.29,1350.37 1482.57,1349.57 1480.00,1349.28
             1480.00,1349.28 1466.00,1348.09 1466.00,1348.09
             1466.00,1348.09 1425.00,1344.83 1425.00,1344.83
             1425.00,1344.83 1406.00,1343.04 1406.00,1343.04
             1406.00,1343.04 1357.00,1339.09 1357.00,1339.09
             1357.00,1339.09 1324.00,1336.39 1324.00,1336.39
             1324.00,1336.39 1306.00,1329.00 1306.00,1329.00
             1306.00,1329.00 1270.00,1313.30 1270.00,1313.30
             1270.00,1313.30 1185.00,1277.40 1185.00,1277.40
             1185.00,1277.40 1131.00,1256.69 1131.00,1256.69
             1131.00,1256.69 1116.00,1251.34 1116.00,1251.34
             1114.22,1250.71 1111.13,1249.88 1109.96,1248.30
             1108.64,1246.39 1109.73,1242.31 1109.96,1240.00
             1110.85,1228.26 1111.30,1226.30 1114.13,1215.00
             1119.58,1193.19 1134.97,1158.91 1135.00,1139.00
             1135.00,1139.00 1135.00,1128.00 1135.00,1128.00
             1134.91,1120.72 1130.19,1105.33 1126.54,1099.00
             1123.70,1094.09 1117.81,1087.43 1117.13,1082.00
             1116.37,1075.86 1121.13,1062.50 1123.00,1056.00
             1123.00,1056.00 1138.66,1002.00 1138.66,1002.00
             1139.82,998.28 1143.09,983.84 1145.56,982.02
             1147.27,980.77 1150.91,981.00 1153.00,981.00
             1153.00,981.00 1191.00,981.00 1191.00,981.00
             1191.00,981.00 1206.00,980.00 1206.00,980.00
             1206.00,980.00 1360.00,980.00 1360.00,980.00
             1372.81,979.98 1382.05,975.32 1394.00,971.72
             1394.00,971.72 1459.00,951.33 1459.00,951.33
             1467.76,948.47 1484.51,942.19 1493.00,942.00 Z" />
  <path id="Bugias"
        fill="none" stroke="black" stroke-width="1"
        d="M 1061.00,874.00
           C 1061.00,874.00 1150.00,874.00 1150.00,874.00
             1160.94,873.98 1160.90,870.56 1168.09,862.99
             1168.09,862.99 1187.04,843.00 1187.04,843.00
             1187.04,843.00 1217.04,811.00 1217.04,811.00
             1225.63,802.02 1231.98,800.00 1231.85,787.00
             1231.85,787.00 1231.85,708.00 1231.85,708.00
             1231.85,708.00 1231.85,695.29 1231.85,695.29
             1232.23,693.14 1237.31,687.95 1239.00,685.99
             1242.63,681.76 1245.05,677.88 1247.69,673.00
             1255.15,659.24 1257.99,647.39 1269.44,635.17
             1269.44,635.17 1292.26,616.68 1292.26,616.68
             1294.18,614.08 1294.14,609.27 1294.58,606.00
             1294.58,606.00 1297.33,577.00 1297.33,577.00
             1298.14,572.46 1300.78,568.18 1302.69,564.00
             1309.04,550.18 1308.15,550.15 1317.19,537.00
             1319.73,533.31 1326.92,521.84 1330.17,520.02
             1331.99,519.00 1333.99,519.04 1336.00,519.00
             1340.31,518.93 1355.55,518.86 1358.68,516.98
             1361.05,515.55 1367.41,505.81 1369.34,503.00
             1369.34,503.00 1382.43,484.00 1382.43,484.00
             1383.96,481.91 1386.07,478.64 1389.04,478.87
             1391.40,479.06 1395.14,482.31 1397.00,483.80
             1397.00,483.80 1415.00,498.35 1415.00,498.35
             1415.00,498.35 1440.00,516.29 1440.00,516.29
             1442.62,518.15 1450.55,523.48 1452.21,525.52
             1454.03,527.73 1457.33,536.82 1458.60,540.00
             1458.60,540.00 1470.20,569.00 1470.20,569.00
             1470.20,569.00 1490.20,619.00 1490.20,619.00
             1494.02,628.56 1498.98,637.57 1499.00,648.00
             1499.00,648.00 1498.00,668.00 1498.00,668.00
             1498.00,668.00 1498.00,705.00 1498.00,705.00
             1498.00,705.00 1497.00,722.00 1497.00,722.00
             1497.00,722.00 1497.00,758.00 1497.00,758.00
             1497.00,758.00 1496.00,775.00 1496.00,775.00
             1496.00,775.00 1496.00,814.00 1496.00,814.00
             1496.00,814.00 1495.00,829.00 1495.00,829.00
             1495.00,829.00 1495.00,866.00 1495.00,866.00
             1495.00,866.00 1494.00,883.00 1494.00,883.00
             1494.00,883.00 1494.00,920.00 1494.00,920.00
             1493.99,924.70 1494.38,933.76 1489.85,936.44
             1489.85,936.44 1476.00,941.00 1476.00,941.00
             1476.00,941.00 1444.00,951.02 1444.00,951.02
             1444.00,951.02 1390.00,968.14 1390.00,968.14
             1379.92,971.04 1375.85,973.98 1365.00,974.00
             1365.00,974.00 1150.00,974.00 1150.00,974.00
             1147.93,974.00 1144.92,974.11 1143.00,973.40
             1138.92,971.88 1131.99,962.63 1128.87,959.00
             1128.87,959.00 1093.27,914.00 1093.27,914.00
             1087.02,905.60 1080.40,897.41 1073.00,890.00
             1068.28,885.28 1062.11,880.88 1061.00,874.00 Z" />
  <path id="Kibungan"
        fill="none" stroke="black" stroke-width="1"
        d="M 713.00,792.00
           C 722.68,792.00 735.74,792.22 745.00,789.38
             748.75,788.23 755.34,784.66 759.00,782.78
             763.68,780.38 768.69,778.44 773.00,775.37
             786.10,766.05 808.83,740.45 818.58,726.99
             818.58,726.99 831.00,708.00 831.00,708.00
             836.18,700.22 842.05,691.00 848.13,684.01
             848.13,684.01 867.72,664.00 867.72,664.00
             873.45,657.50 880.72,647.53 890.00,647.04
             899.24,646.56 916.29,654.04 922.10,661.09
             926.71,666.68 930.39,675.48 934.42,682.00
             934.42,682.00 954.13,714.00 954.13,714.00
             954.13,714.00 967.30,739.00 967.30,739.00
             967.30,739.00 996.25,795.00 996.25,795.00
             1002.91,808.34 1017.76,835.78 1026.49,846.91
             1026.49,846.91 1035.84,857.00 1035.84,857.00
             1035.84,857.00 1053.04,876.00 1053.04,876.00
             1053.04,876.00 1076.91,900.00 1076.91,900.00
             1076.91,900.00 1110.37,943.00 1110.37,943.00
             1110.37,943.00 1128.56,964.96 1128.56,964.96
             1131.06,967.79 1136.35,972.98 1137.83,976.00
             1140.19,980.81 1138.22,986.21 1136.86,991.00
             1136.86,991.00 1128.72,1019.00 1128.72,1019.00
             1128.72,1019.00 1116.14,1062.00 1116.14,1062.00
             1115.19,1065.31 1113.05,1075.18 1110.49,1076.98
             1108.71,1078.23 1105.14,1078.00 1103.00,1078.00
             1103.00,1078.00 1039.00,1079.00 1039.00,1079.00
             1039.00,1079.00 1022.00,1080.00 1022.00,1080.00
             1022.00,1080.00 956.00,1081.00 956.00,1081.00
             956.00,1081.00 939.00,1082.00 939.00,1082.00
             939.00,1082.00 914.00,1082.00 914.00,1082.00
             914.00,1082.00 897.00,1083.00 897.00,1083.00
             897.00,1083.00 871.00,1083.00 871.00,1083.00
             863.05,1083.10 858.09,1086.00 851.00,1089.23
             847.62,1090.77 842.76,1093.26 839.00,1092.54
             836.18,1092.00 830.87,1088.34 828.00,1086.77
             828.00,1086.77 801.00,1070.80 801.00,1070.80
             801.00,1070.80 746.00,1038.55 746.00,1038.55
             746.00,1038.55 718.00,1021.85 718.00,1021.85
             718.00,1021.85 651.00,982.40 651.00,982.40
             651.00,982.40 635.02,972.99 635.02,972.99
             633.19,971.84 630.63,970.37 630.63,967.90
             630.62,964.47 639.89,955.05 642.39,952.00
             656.76,934.43 657.91,931.30 669.32,913.00
             669.32,913.00 693.13,867.00 693.13,867.00
             693.13,867.00 706.52,828.00 706.52,828.00
             706.52,828.00 713.00,792.00 713.00,792.00 Z" />
  <path id="Bakun"
        fill="none" stroke="black" stroke-width="1"
        d="M 875.00,245.42
           C 890.84,243.50 928.90,245.97 947.00,246.00
             947.00,246.00 971.00,247.00 971.00,247.00
             971.00,247.00 998.00,245.00 998.00,245.00
             1000.64,244.97 1005.56,244.69 1007.78,246.02
             1011.03,247.98 1015.80,261.84 1017.58,266.00
             1020.96,273.93 1026.88,284.53 1027.00,293.00
             1027.00,293.00 1027.00,315.00 1027.00,315.00
             1027.00,315.00 1028.00,331.00 1028.00,331.00
             1028.00,331.00 1028.00,352.00 1028.00,352.00
             1028.00,354.02 1027.88,356.97 1028.58,358.83
             1028.58,358.83 1043.84,379.00 1043.84,379.00
             1047.68,384.32 1056.35,405.45 1057.62,412.00
             1058.46,416.32 1057.12,420.66 1057.01,425.00
             1056.75,436.07 1055.86,450.50 1052.40,461.00
             1050.42,467.03 1043.63,475.90 1044.81,482.00
             1045.54,485.79 1049.57,490.79 1051.86,494.00
             1051.86,494.00 1067.58,516.00 1067.58,516.00
             1067.58,516.00 1126.42,597.00 1126.42,597.00
             1126.42,597.00 1161.46,644.71 1161.46,644.71
             1161.46,644.71 1197.00,673.92 1197.00,673.92
             1197.00,673.92 1216.00,689.42 1216.00,689.42
             1218.50,691.48 1223.56,695.32 1224.98,698.04
             1226.19,700.36 1225.99,703.43 1226.00,706.00
             1226.00,706.00 1226.00,788.00 1226.00,788.00
             1225.98,798.80 1222.60,798.91 1215.58,807.00
             1215.58,807.00 1202.04,821.00 1202.04,821.00
             1202.04,821.00 1185.01,839.00 1185.01,839.00
             1185.01,839.00 1167.01,858.00 1167.01,858.00
             1159.47,865.73 1160.69,867.98 1150.00,868.00
             1150.00,868.00 1057.00,868.00 1057.00,868.00
             1047.93,867.83 1044.78,861.29 1039.07,855.00
             1027.30,842.02 1015.64,823.73 1007.75,808.00
             988.58,769.75 968.71,732.12 947.43,695.00
             941.98,685.50 929.87,662.90 922.83,656.21
             917.95,651.56 900.70,643.29 894.00,641.61
             886.05,639.61 881.21,644.86 876.00,650.00
             876.00,650.00 846.85,680.00 846.85,680.00
             832.38,696.43 826.96,708.53 815.22,725.00
             815.22,725.00 792.91,751.91 792.91,751.91
             792.91,751.91 785.00,759.04 785.00,759.04
             785.00,759.04 774.00,769.61 774.00,769.61
             770.54,772.32 750.37,782.41 746.00,783.78
             741.87,785.07 735.35,785.95 731.00,786.00
             728.18,786.03 718.51,786.51 716.60,784.98
             714.31,783.13 715.82,777.70 715.97,775.00
             715.97,775.00 718.55,746.83 718.55,746.83
             718.55,746.83 725.17,677.00 725.17,677.00
             725.17,677.00 729.92,630.00 729.92,630.00
             729.92,630.00 734.83,583.00 734.83,583.00
             734.83,583.00 740.83,522.00 740.83,522.00
             740.83,522.00 744.91,474.00 744.91,474.00
             744.91,474.00 746.17,453.00 746.17,453.00
             746.17,453.00 750.84,409.00 750.84,409.00
             750.84,409.00 752.29,393.00 752.29,393.00
             752.29,393.00 762.44,341.00 762.44,341.00
             762.44,341.00 770.80,319.00 770.80,319.00
             777.54,302.15 778.98,295.54 791.46,281.04
             794.35,277.68 797.61,275.35 801.00,272.58
             817.94,258.70 832.99,253.33 854.00,248.79
             854.00,248.79 865.00,246.30 865.00,246.30
             865.00,246.30 875.00,245.42 875.00,245.42 Z" />
  <path id="Mankayan"
        fill="none" stroke="black" stroke-width="1"
        d="M 1015.00,243.00
           C 1040.10,239.46 1070.71,230.13 1094.00,220.13
             1094.00,220.13 1116.00,209.25 1116.00,209.25
             1116.00,209.25 1142.00,194.11 1142.00,194.11
             1144.77,192.26 1149.63,187.40 1153.00,188.32
             1155.20,188.92 1158.33,192.37 1160.00,193.99
             1160.00,193.99 1174.00,207.00 1174.00,207.00
             1174.00,207.00 1206.00,238.96 1206.00,238.96
             1206.00,238.96 1220.00,252.00 1220.00,252.00
             1220.00,252.00 1250.00,281.96 1250.00,281.96
             1250.00,281.96 1260.00,291.01 1260.00,291.01
             1260.00,291.01 1293.00,323.99 1293.00,323.99
             1293.00,323.99 1315.00,345.00 1315.00,345.00
             1315.00,345.00 1340.00,369.91 1340.00,369.91
             1344.46,374.06 1352.03,379.95 1355.16,385.00
             1357.06,388.06 1358.20,393.41 1359.34,397.00
             1359.34,397.00 1367.67,423.00 1367.67,423.00
             1367.67,423.00 1378.72,458.00 1378.72,458.00
             1379.96,462.11 1383.29,470.06 1382.69,474.00
             1382.19,477.25 1379.17,481.29 1377.28,484.00
             1377.28,484.00 1364.67,502.00 1364.67,502.00
             1362.79,504.78 1359.76,510.09 1356.70,511.43
             1351.56,513.69 1334.31,512.12 1329.09,515.02
             1326.10,516.68 1322.93,522.09 1320.86,525.00
             1315.23,532.89 1308.46,541.38 1304.26,550.00
             1301.07,556.53 1291.43,577.85 1290.44,584.00
             1289.48,589.92 1288.91,611.29 1286.98,614.96
             1285.21,618.33 1275.47,625.16 1272.00,627.88
             1266.54,632.17 1258.71,640.96 1255.31,647.00
             1255.31,647.00 1239.74,678.00 1239.74,678.00
             1237.45,682.34 1232.96,689.01 1228.00,690.42
             1223.83,691.61 1221.00,688.82 1218.00,686.42
             1218.00,686.42 1200.00,671.59 1200.00,671.59
             1200.00,671.59 1165.18,642.83 1165.18,642.83
             1165.18,642.83 1152.58,626.00 1152.58,626.00
             1152.58,626.00 1130.58,596.00 1130.58,596.00
             1130.58,596.00 1072.88,517.00 1072.88,517.00
             1072.88,517.00 1056.44,494.00 1056.44,494.00
             1053.82,490.34 1050.13,486.56 1049.36,482.00
             1048.26,475.55 1055.21,466.34 1057.45,460.00
             1060.66,450.94 1062.66,433.76 1063.05,424.00
             1063.16,419.73 1064.33,416.20 1063.05,412.00
             1061.85,407.79 1052.70,385.22 1050.59,382.00
             1047.09,376.64 1036.61,365.24 1035.31,360.00
             1033.53,352.87 1034.09,339.69 1034.00,332.00
             1034.00,332.00 1033.00,317.00 1033.00,317.00
             1032.99,310.59 1032.80,292.49 1031.39,287.00
             1028.05,273.96 1015.62,255.68 1015.00,243.00 Z" />
</svg>
