<?xml version="1.0" encoding="UTF-8" standalone="no"?>
<!DOCTYPE svg PUBLIC "-//W3C//DTD SVG 20010904//EN"
              "http://www.w3.org/TR/2001/REC-SVG-20010904/DTD/svg10.dtd">

<svg xmlns="http://www.w3.org/2000/svg"
     width="44.9581mm" height="39.7087mm"
     viewBox="0 0 531 469">
  <path id="Biliran"
        fill="none" stroke="black" stroke-width="1"
        d="M 268.00,395.00
           C 275.00,388.00 283.58,380.30 292.00,375.06
             299.00,370.71 305.59,368.77 312.00,362.90
             317.81,357.56 318.97,354.48 323.46,349.00
             329.15,342.06 341.85,329.48 350.00,326.00
             350.00,326.00 380.72,362.00 380.72,362.00
             383.18,364.83 391.64,373.67 391.71,377.00
             391.76,379.67 388.19,383.94 386.55,386.00
             383.56,389.77 371.98,402.75 370.78,406.00
             368.80,411.35 374.82,414.46 371.43,420.87
             369.97,423.63 363.94,427.07 361.00,427.96
             351.36,430.86 356.44,418.05 350.05,419.05
             345.46,419.77 344.49,427.38 344.00,431.00
             332.72,432.88 333.74,440.24 324.00,440.95
             315.43,441.57 314.08,439.74 307.00,436.40
             304.83,435.37 302.41,434.80 300.51,433.28
             300.51,433.28 295.82,428.38 295.82,428.38
             291.81,424.87 288.54,425.01 283.13,418.98
             278.62,413.96 279.47,411.43 276.92,407.00
             276.92,407.00 268.00,395.00 268.00,395.00 Z" />
  <path id="Cabucgayan"
        fill="none" stroke="black" stroke-width="1"
        d="M 373.00,424.00
           C 373.66,421.47 374.82,418.61 374.51,416.00
             374.03,411.86 371.00,409.84 373.45,405.00
             373.45,405.00 388.58,386.00 388.58,386.00
             390.61,383.38 393.33,378.93 396.18,377.43
             399.16,375.86 416.55,374.31 421.00,373.84
             421.00,373.84 463.00,369.04 463.00,369.04
             463.00,369.04 480.00,371.00 480.00,371.00
             480.00,371.00 478.37,377.00 478.37,377.00
             477.79,379.98 478.25,381.94 477.19,385.00
             477.19,385.00 472.30,396.00 472.30,396.00
             470.15,403.56 472.02,406.37 465.00,412.00
             463.51,410.15 461.94,407.66 459.13,408.91
             456.55,410.05 455.06,414.64 453.64,416.96
             451.20,420.94 444.67,426.93 440.00,427.77
             440.00,427.77 429.00,428.41 429.00,428.41
             425.46,429.27 422.87,431.79 420.10,431.18
             416.34,430.35 414.72,423.64 410.04,423.63
             406.36,423.62 405.16,428.26 401.91,428.41
             400.08,428.50 398.59,426.83 395.91,426.75
             395.91,426.75 390.00,426.75 390.00,426.75
             385.48,426.91 377.43,425.28 373.00,424.00 Z" />
  <path id="Caibiran"
        fill="none" stroke="black" stroke-width="1"
        d="M 333.00,291.00
           C 333.00,291.00 381.00,272.20 381.00,272.20
             381.00,272.20 394.00,267.18 394.00,267.18
             394.00,267.18 406.00,267.18 406.00,267.18
             406.00,267.18 420.00,264.00 420.00,264.00
             420.00,268.16 419.23,276.58 421.60,279.87
             425.66,285.49 432.47,283.23 436.38,292.02
             439.92,299.95 437.91,300.52 438.41,305.00
             438.90,309.35 442.73,316.81 446.10,319.57
             449.13,322.05 452.63,322.27 456.00,324.05
             456.00,324.05 465.00,329.95 465.00,329.95
             476.48,337.27 482.82,339.97 483.00,355.00
             483.00,355.00 483.00,360.00 483.00,360.00
             482.99,363.72 483.76,368.23 478.94,368.82
             475.23,369.27 466.84,366.14 456.00,367.17
             456.00,367.17 415.00,372.28 415.00,372.28
             411.65,372.72 397.32,374.88 395.04,374.23
             392.28,373.45 389.83,370.10 387.95,368.00
             387.95,368.00 375.87,354.00 375.87,354.00
             358.23,333.51 353.99,331.33 340.77,307.00
             337.85,301.63 334.69,296.93 333.00,291.00 Z" />
  <path id="Naval"
        fill="none" stroke="black" stroke-width="1"
        d="M 296.00,225.00
           C 296.00,225.00 309.25,250.00 309.25,250.00
             309.25,250.00 334.42,299.00 334.42,299.00
             334.42,299.00 343.78,316.00 343.78,316.00
             343.78,316.00 346.56,323.91 346.56,323.91
             346.56,323.91 341.00,329.92 341.00,329.92
             341.00,329.92 327.28,342.09 327.28,342.09
             327.28,342.09 311.96,360.82 311.96,360.82
             311.96,360.82 289.00,375.03 289.00,375.03
             289.00,375.03 276.00,385.17 276.00,385.17
             276.00,385.17 266.00,394.00 266.00,394.00
             263.01,389.83 256.12,379.57 254.79,375.00
             253.20,369.58 253.81,362.85 250.30,358.11
             245.13,351.13 236.53,354.47 231.28,349.57
             226.94,345.53 228.39,338.30 226.12,333.04
             223.98,328.05 220.07,328.27 218.02,324.79
             216.68,322.50 217.06,318.64 216.88,316.00
             216.67,308.20 214.02,304.92 216.88,297.00
             220.89,285.33 231.84,278.72 241.00,271.08
             241.00,271.08 272.00,245.42 272.00,245.42
             272.00,245.42 296.00,225.00 296.00,225.00 Z
           M 61.13,297.02
           C 63.68,296.63 71.42,296.55 73.49,298.02
             77.52,300.88 78.65,315.59 76.93,320.00
             76.93,320.00 74.69,325.00 74.69,325.00
             74.01,327.00 73.81,332.49 70.27,330.83
             68.07,329.80 66.53,326.15 65.71,324.00
             64.24,320.17 57.82,303.14 58.39,300.19
             58.80,298.04 59.57,298.01 61.13,297.02 Z" />
  <path id="Culaba"
        fill="none" stroke="black" stroke-width="1"
        d="M 324.00,163.00
           C 326.96,163.00 331.26,162.78 334.00,163.70
             334.00,163.70 352.00,174.63 352.00,174.63
             360.04,178.59 378.07,184.27 387.00,185.00
             387.00,185.00 388.17,201.00 388.17,201.00
             389.67,205.12 397.73,212.71 401.05,218.00
             407.38,228.09 416.89,250.36 419.00,262.00
             419.00,262.00 406.00,264.99 406.00,264.99
             401.71,265.46 400.02,263.54 395.00,264.99
             395.00,264.99 357.00,279.80 357.00,279.80
             357.00,279.80 340.00,286.60 340.00,286.60
             337.98,287.40 334.48,289.04 332.34,288.32
             330.06,287.57 328.46,284.00 327.37,282.00
             327.37,282.00 318.16,263.00 318.16,263.00
             318.16,263.00 304.74,236.00 304.74,236.00
             303.45,233.34 299.44,226.56 299.59,224.00
             299.77,220.69 303.78,217.24 306.00,215.00
             308.57,212.40 320.82,199.31 321.98,197.00
             323.42,194.12 323.00,188.33 323.00,185.00
             323.00,177.35 322.64,170.60 324.00,163.00 Z" />
  <path id="Almeria"
        fill="none" stroke="black" stroke-width="1"
        d="M 220.00,286.00
           C 216.03,277.79 206.17,276.42 200.98,265.83
             199.53,262.87 200.11,258.31 199.96,255.00
             199.71,249.13 198.38,242.94 195.04,238.02
             190.15,230.82 179.03,233.18 180.74,226.15
             181.33,223.76 186.09,220.05 188.00,218.42
             199.15,208.87 196.84,210.62 211.00,208.42
             211.00,208.42 256.00,201.73 256.00,201.73
             259.24,201.26 272.46,198.90 274.71,199.66
             277.74,200.69 287.37,212.89 289.92,216.00
             291.12,217.47 293.40,220.12 293.75,221.99
             294.28,224.83 291.87,226.58 289.98,228.25
             289.98,228.25 276.28,239.50 276.28,239.50
             276.28,239.50 220.00,286.00 220.00,286.00 Z" />
  <path id="Kawayan"
        fill="none" stroke="black" stroke-width="1"
        d="M 159.00,173.00
           C 164.40,176.19 163.20,180.20 169.00,180.82
             178.20,181.79 184.59,171.09 191.00,166.43
             195.65,163.05 197.80,164.70 202.00,163.30
             202.00,163.30 211.00,158.85 211.00,158.85
             215.91,157.22 220.89,158.74 225.00,157.28
             228.68,155.96 231.89,152.41 236.00,150.56
             239.75,148.86 243.01,149.01 247.00,149.14
             247.00,149.14 264.00,149.14 264.00,149.14
             264.00,149.14 283.00,152.55 283.00,152.55
             291.09,152.73 298.05,146.88 303.00,148.04
             306.47,148.85 310.28,153.44 313.00,155.82
             319.14,161.19 320.87,159.66 321.00,167.00
             321.10,173.12 321.25,192.05 319.40,197.00
             318.18,200.29 314.49,203.41 312.09,206.00
             307.08,211.39 302.80,217.78 296.00,221.00
             296.00,221.00 282.75,205.00 282.75,205.00
             282.75,205.00 274.96,197.85 274.96,197.85
             274.96,197.85 266.00,197.85 266.00,197.85
             266.00,197.85 248.00,200.75 248.00,200.75
             248.00,200.75 215.00,205.73 215.00,205.73
             215.00,205.73 198.00,208.72 198.00,208.72
             198.00,208.72 180.00,222.00 180.00,222.00
             180.18,219.77 180.83,215.98 180.52,214.00
             179.69,208.66 172.55,199.75 168.00,197.01
             160.78,192.66 151.94,195.55 151.00,184.00
             157.89,182.52 158.67,179.55 159.00,173.00 Z" />
  <path id="Maripipi"
        fill="none" stroke="black" stroke-width="1"
        d="M 125.17,16.83
           C 129.38,15.52 140.63,15.43 145.00,16.83
             145.00,16.83 155.00,20.58 155.00,20.58
             158.55,21.92 163.07,22.91 165.40,26.13
             167.10,28.47 167.54,35.72 168.08,39.00
             169.09,45.13 171.35,55.17 168.99,61.00
             167.56,64.54 164.67,67.21 162.16,70.00
             160.38,71.99 158.34,74.74 155.96,75.98
             153.18,77.43 149.23,76.78 146.00,77.32
             141.15,78.13 139.40,80.05 134.00,79.14
             128.99,78.30 126.13,76.14 122.00,73.53
             111.71,67.03 109.73,64.98 104.77,54.00
             102.89,49.85 101.66,46.68 102.19,42.00
             102.68,37.60 105.56,31.36 109.18,28.73
             111.63,26.96 114.03,27.08 116.83,25.11
             116.83,25.11 125.17,16.83 125.17,16.83 Z" />
</svg>
