<?xml version="1.0" encoding="UTF-8" standalone="no"?>
<!DOCTYPE svg PUBLIC "-//W3C//DTD SVG 20010904//EN"
              "http://www.w3.org/TR/2001/REC-SVG-20010904/DTD/svg10.dtd">

<svg xmlns="http://www.w3.org/2000/svg"
     width="92.6255mm" height="119.126mm"
     viewBox="0 0 1094 1407">
  <path id="Damulog"
        fill="none" stroke="black" stroke-width="1"
        d="M 663.00,1314.00
           C 660.86,1325.93 662.28,1337.88 654.47,1348.00
             648.44,1355.81 636.71,1363.36 627.00,1365.48
             621.78,1366.63 616.31,1366.72 611.00,1367.09
             611.00,1367.09 600.00,1368.00 600.00,1368.00
             577.55,1368.10 548.64,1365.07 528.00,1355.89
             519.31,1352.03 514.34,1336.44 507.00,1334.41
             504.03,1333.59 499.64,1336.83 497.00,1338.22
             497.00,1338.22 472.00,1351.36 472.00,1351.36
             468.00,1352.51 462.43,1352.07 459.45,1348.72
             453.86,1342.08 457.58,1335.03 459.45,1328.00
             459.45,1328.00 461.41,1317.00 461.41,1317.00
             462.27,1311.54 463.37,1295.86 465.31,1292.02
             469.14,1284.45 478.11,1285.05 484.70,1278.67
             491.03,1272.55 496.41,1257.74 500.53,1253.21
             504.50,1248.84 511.33,1247.51 515.91,1243.61
             519.96,1240.16 521.13,1235.76 526.01,1234.61
             531.37,1233.35 538.06,1238.70 542.00,1241.80
             549.89,1248.02 562.89,1260.08 573.00,1260.89
             583.57,1261.74 584.79,1252.84 591.95,1254.47
             597.00,1255.62 596.81,1260.95 597.03,1265.00
             597.48,1272.94 598.01,1285.52 602.65,1291.99
             606.95,1297.99 615.18,1301.67 622.00,1304.00
             632.34,1307.53 652.40,1313.13 663.00,1314.00 Z" />
  <path id="Kibawe"
        fill="none" stroke="black" stroke-width="1"
        d="M 535.00,1150.00
           C 539.56,1151.09 543.77,1154.21 548.00,1153.74
             553.35,1153.14 556.40,1148.02 560.96,1150.08
             564.00,1151.45 566.52,1156.18 568.15,1159.00
             571.11,1164.12 573.21,1167.81 578.00,1171.61
             587.04,1178.77 598.07,1176.89 608.00,1184.53
             608.00,1184.53 630.68,1205.09 630.68,1205.09
             634.67,1209.53 636.25,1214.29 642.01,1217.08
             647.30,1219.65 655.12,1219.07 661.00,1219.00
             664.46,1218.96 683.73,1217.70 686.00,1216.78
             692.11,1214.29 697.15,1207.91 703.00,1208.33
             711.08,1208.89 716.50,1220.66 722.00,1219.83
             724.38,1219.48 729.80,1214.78 732.00,1213.15
             739.98,1207.28 748.65,1199.14 759.00,1199.00
             767.29,1198.89 771.00,1198.79 779.00,1201.70
             781.24,1202.51 784.79,1203.84 785.77,1206.21
             786.68,1208.43 785.19,1211.03 784.24,1213.00
             781.83,1218.03 779.46,1222.64 777.75,1228.00
             777.75,1228.00 768.92,1276.00 768.92,1276.00
             768.04,1281.18 766.25,1293.04 762.58,1296.57
             757.54,1301.43 750.87,1295.98 743.00,1298.89
             737.68,1300.86 733.23,1306.90 727.00,1308.60
             719.86,1310.54 705.84,1310.00 698.00,1310.00
             698.00,1310.00 685.00,1310.00 685.00,1310.00
             685.00,1310.00 665.00,1311.82 665.00,1311.82
             660.69,1312.12 652.45,1310.14 648.00,1309.12
             638.21,1306.87 628.36,1304.51 619.00,1300.80
             613.94,1298.79 608.16,1296.42 604.85,1291.91
             597.67,1282.12 601.54,1270.67 598.86,1260.00
             597.72,1255.44 594.13,1251.40 589.00,1252.47
             583.72,1253.58 581.63,1259.62 573.00,1258.80
             562.63,1257.82 550.90,1246.73 543.00,1240.45
             539.46,1237.63 532.63,1232.46 528.00,1232.40
             521.21,1232.30 519.17,1238.83 514.82,1242.37
             514.82,1242.37 499.00,1251.00 499.00,1251.00
             496.00,1238.21 483.53,1217.10 487.65,1204.00
             489.67,1197.58 499.88,1191.45 505.00,1186.83
             512.93,1179.68 530.76,1159.48 535.00,1150.00 Z" />
  <path id="Kadingilan"
        fill="none" stroke="black" stroke-width="1"
        d="M 445.12,1114.00
           C 445.12,1114.00 467.00,1112.09 467.00,1112.09
             467.00,1112.09 503.00,1111.00 503.00,1111.00
             507.03,1111.01 514.22,1111.48 518.00,1112.56
             527.40,1115.25 535.92,1129.46 535.92,1139.00
             535.92,1143.93 534.07,1148.76 531.66,1153.00
             527.78,1159.83 509.95,1180.41 504.00,1185.57
             499.03,1189.87 487.91,1197.30 485.74,1203.00
             484.90,1205.19 484.96,1208.64 485.01,1211.00
             485.22,1220.16 489.41,1230.52 492.80,1239.00
             494.33,1242.82 497.90,1250.05 497.01,1254.00
             495.66,1259.95 485.89,1275.88 481.00,1279.35
             475.46,1283.28 465.77,1284.20 462.53,1294.00
             462.53,1294.00 457.58,1326.00 457.58,1326.00
             456.14,1332.43 455.78,1337.44 448.00,1336.83
             436.62,1335.93 429.69,1331.19 421.00,1324.19
             417.62,1321.47 412.86,1317.28 411.77,1313.00
             410.70,1310.11 411.84,1306.16 411.77,1303.00
             412.55,1287.93 408.05,1275.16 396.00,1265.67
             394.00,1264.09 390.29,1261.40 388.00,1260.43
             378.63,1256.45 376.77,1270.08 369.49,1276.49
             365.93,1279.63 360.46,1279.00 356.15,1279.00
             356.15,1279.00 356.15,1269.00 356.15,1269.00
             357.88,1258.02 365.81,1242.76 372.50,1234.00
             372.50,1234.00 388.32,1216.00 388.32,1216.00
             390.47,1213.15 392.04,1210.71 391.75,1207.00
             391.55,1204.34 389.95,1201.46 390.70,1199.27
             392.16,1195.05 401.34,1194.93 405.00,1195.01
             410.85,1195.16 416.56,1197.17 420.90,1201.21
             423.99,1204.10 425.18,1207.37 428.10,1208.36
             430.84,1209.29 433.80,1207.72 436.00,1206.20
             445.02,1199.92 443.96,1192.67 444.00,1183.00
             444.00,1183.00 445.12,1169.00 445.12,1169.00
             445.12,1169.00 445.12,1153.00 445.12,1153.00
             445.12,1153.00 445.12,1141.00 445.12,1141.00
             445.12,1141.00 445.12,1114.00 445.12,1114.00 Z" />
  <path id="Dangcagan"
        fill="none" stroke="black" stroke-width="1"
        d="M 657.00,1217.00
           C 652.44,1217.00 646.11,1217.02 642.00,1214.84
             637.49,1212.45 635.11,1207.70 631.82,1204.00
             631.82,1204.00 618.00,1191.28 618.00,1191.28
             612.93,1186.84 608.25,1181.63 602.00,1178.88
             595.04,1175.81 584.93,1174.53 579.04,1170.20
             571.54,1164.70 569.63,1154.58 562.96,1149.27
             555.50,1143.32 548.22,1158.01 539.35,1148.58
             536.17,1145.20 538.82,1141.58 537.67,1135.00
             536.57,1128.70 532.33,1124.01 531.97,1121.00
             531.43,1116.50 538.47,1107.18 547.00,1108.23
             554.37,1109.13 569.37,1121.80 578.00,1125.24
             585.62,1128.28 593.89,1128.99 602.00,1129.00
             602.00,1129.00 617.00,1130.00 617.00,1130.00
             617.00,1130.00 641.00,1131.00 641.00,1131.00
             641.00,1131.00 650.00,1131.83 650.00,1131.83
             656.36,1132.47 661.31,1132.17 664.69,1139.00
             669.79,1149.33 658.63,1149.60 657.48,1161.00
             656.88,1166.93 660.33,1168.14 662.11,1173.00
             663.28,1176.16 663.02,1181.53 663.00,1185.00
             663.00,1185.00 661.51,1202.00 661.51,1202.00
             659.81,1208.26 657.25,1207.11 657.00,1217.00 Z" />
  <path id="Kitaotao"
        fill="none" stroke="black" stroke-width="1"
        d="M 530.00,1118.00
           C 527.86,1116.52 519.41,1110.83 518.78,1108.74
             518.12,1106.55 520.24,1101.27 521.00,1099.00
             523.51,1091.48 526.72,1084.98 527.01,1077.00
             527.01,1077.00 528.15,1061.02 528.15,1061.02
             528.42,1059.34 529.03,1057.20 531.15,1057.20
             533.76,1057.19 541.85,1064.98 544.00,1067.04
             549.29,1072.10 564.22,1088.34 570.00,1090.41
             571.99,1091.12 574.87,1091.00 577.00,1091.00
             577.00,1091.00 613.00,1091.00 613.00,1091.00
             613.00,1091.00 628.00,1090.00 628.00,1090.00
             628.00,1090.00 645.00,1090.00 645.00,1090.00
             656.09,1090.02 663.85,1094.26 674.00,1098.19
             674.00,1098.19 717.00,1114.58 717.00,1114.58
             717.00,1114.58 800.00,1146.19 800.00,1146.19
             800.00,1146.19 833.00,1159.00 833.00,1159.00
             832.45,1162.07 831.43,1173.39 829.40,1174.98
             827.87,1176.18 823.94,1176.06 822.02,1175.98
             814.57,1175.70 813.67,1168.74 808.21,1171.92
             805.68,1173.39 803.59,1178.39 802.14,1181.00
             802.14,1181.00 789.00,1204.00 789.00,1204.00
             789.00,1204.00 778.00,1199.09 778.00,1199.09
             771.66,1196.81 757.16,1195.67 751.00,1198.41
             746.00,1200.63 735.70,1208.35 731.00,1211.87
             729.09,1213.30 724.10,1217.38 722.00,1217.75
             719.08,1218.27 716.92,1215.79 715.00,1213.98
             711.18,1210.40 706.85,1205.44 701.00,1206.43
             696.15,1207.26 691.59,1212.41 687.00,1214.16
             684.43,1215.14 673.28,1215.88 670.00,1216.04
             667.42,1216.16 661.73,1217.70 660.06,1215.40
             658.48,1213.23 660.40,1209.10 661.36,1207.00
             664.67,1199.75 664.99,1196.91 665.00,1189.00
             665.01,1185.48 665.26,1176.96 664.43,1174.00
             663.01,1168.94 659.23,1167.21 659.41,1162.00
             659.83,1149.47 672.94,1150.66 666.32,1138.01
             665.59,1136.62 664.78,1135.45 663.66,1134.34
             659.15,1129.82 650.15,1129.08 644.00,1129.00
             644.00,1129.00 623.00,1128.00 623.00,1128.00
             623.00,1128.00 608.00,1127.00 608.00,1127.00
             600.02,1126.99 591.81,1127.00 584.00,1125.10
             569.91,1121.67 557.20,1108.33 548.00,1106.39
             539.35,1104.56 534.11,1111.53 530.00,1118.00 Z" />
  <path id="Don Carlos"
        fill="none" stroke="black" stroke-width="1"
        d="M 430.00,944.00
           C 435.28,946.24 439.49,950.54 445.00,952.20
             450.72,953.93 455.70,951.77 459.48,954.74
             459.48,954.74 470.30,969.00 470.30,969.00
             478.09,978.10 488.81,987.01 500.00,991.55
             523.36,1001.02 557.37,999.37 572.00,1003.94
             581.35,1006.85 580.44,1014.36 589.00,1020.35
             595.25,1024.72 601.43,1023.37 605.00,1024.74
             608.72,1026.16 611.01,1029.51 615.00,1031.55
             623.40,1035.84 639.45,1033.80 645.16,1042.10
             648.17,1046.48 647.70,1051.12 648.17,1056.00
             648.17,1056.00 649.17,1078.00 649.17,1078.00
             649.17,1078.00 651.00,1087.94 651.00,1087.94
             651.00,1087.94 580.00,1087.94 580.00,1087.94
             577.42,1088.00 570.92,1088.59 569.00,1087.94
             566.61,1086.84 563.09,1083.12 561.00,1081.28
             561.00,1081.28 544.00,1065.00 544.00,1065.00
             541.20,1062.20 533.49,1052.99 529.15,1055.62
             524.61,1058.37 525.06,1072.08 525.00,1077.00
             524.90,1084.17 518.10,1102.94 515.00,1110.00
             515.00,1110.00 495.00,1109.00 495.00,1109.00
             495.00,1109.00 482.00,1109.00 482.00,1109.00
             482.00,1109.00 445.00,1112.00 445.00,1112.00
             445.00,1112.00 442.33,1074.00 442.33,1074.00
             442.33,1074.00 433.28,1040.00 433.28,1040.00
             433.28,1040.00 432.00,1013.00 432.00,1013.00
             432.00,1013.00 431.00,996.00 431.00,996.00
             431.00,996.00 431.00,959.00 431.00,959.00
             431.00,959.00 430.00,944.00 430.00,944.00 Z" />
  <path id="San Fernando"
        fill="none" stroke="black" stroke-width="1"
        d="M 938.00,704.00
           C 938.00,704.00 965.00,705.83 965.00,705.83
             965.00,705.83 1003.00,708.72 1003.00,708.72
             1006.99,709.19 1011.16,708.66 1015.00,710.03
             1018.08,711.12 1022.76,714.70 1026.00,716.57
             1035.52,722.06 1041.84,722.39 1042.00,735.00
             1042.00,735.00 1042.00,743.00 1042.00,743.00
             1041.91,750.30 1039.97,758.23 1044.01,765.00
             1048.40,772.37 1057.93,777.21 1061.72,784.00
             1064.07,788.21 1063.99,792.36 1064.00,797.00
             1064.00,797.00 1064.00,806.00 1064.00,806.00
             1064.00,806.00 1057.91,864.00 1057.91,864.00
             1057.91,864.00 1057.00,874.00 1057.00,874.00
             1056.92,880.74 1057.59,892.89 1060.13,899.00
             1062.60,904.95 1067.19,907.07 1070.64,913.00
             1070.64,913.00 1083.68,946.00 1083.68,946.00
             1087.18,955.47 1090.22,958.52 1089.99,969.00
             1089.99,969.00 1086.04,997.00 1086.04,997.00
             1086.42,1005.81 1090.68,1008.00 1087.40,1018.00
             1084.38,1027.23 1071.96,1042.67 1070.62,1051.00
             1070.62,1051.00 1074.00,1080.00 1074.00,1080.00
             1074.19,1096.64 1070.87,1096.46 1059.00,1106.85
             1054.43,1110.84 1049.53,1115.67 1043.00,1114.47
             1032.39,1112.51 1019.72,1100.29 1004.00,1100.34
             993.50,1100.37 983.96,1107.86 973.00,1108.00
             956.84,1108.19 949.17,1109.37 934.00,1102.00
             934.80,1098.58 935.35,1096.27 933.27,1093.10
             931.61,1090.58 929.08,1089.66 928.15,1086.79
             928.15,1086.79 928.15,1070.00 928.15,1070.00
             927.94,1058.03 925.40,1058.33 928.90,1044.00
             928.90,1044.00 942.33,1007.00 942.33,1007.00
             942.33,1007.00 946.90,961.00 946.90,961.00
             948.78,953.30 953.78,942.30 957.25,935.00
             958.71,931.93 962.07,925.36 961.22,922.02
             959.90,916.83 952.34,914.93 948.00,913.14
             943.08,911.11 938.19,909.16 933.00,907.90
             923.03,905.46 918.23,906.91 910.01,898.96
             901.97,891.17 896.45,877.31 897.09,866.00
             897.09,866.00 903.00,829.00 903.00,829.00
             903.03,822.49 902.34,814.02 904.56,808.00
             906.48,802.78 911.79,796.44 912.57,792.00
             913.79,785.05 906.96,780.17 909.99,772.00
             909.99,772.00 920.22,753.00 920.22,753.00
             925.66,741.52 935.24,716.10 938.00,704.00 Z" />
  <path id="Kalilangan"
        fill="none" stroke="black" stroke-width="1"
        d="M 258.00,779.00
           C 260.46,785.01 259.66,791.67 260.09,798.00
             260.09,798.00 261.99,822.00 261.99,822.00
             262.10,826.80 262.16,838.14 264.60,842.00
             264.60,842.00 283.83,863.00 283.83,863.00
             283.83,863.00 329.04,912.00 329.04,912.00
             333.62,916.79 350.92,934.59 353.23,939.00
             355.59,943.47 354.53,947.24 355.12,952.00
             355.12,952.00 358.07,975.00 358.07,975.00
             358.07,975.00 362.91,1033.00 362.91,1033.00
             362.91,1033.00 364.17,1056.00 364.17,1056.00
             365.30,1066.41 378.16,1084.71 379.18,1091.00
             379.72,1094.27 377.41,1099.77 376.33,1103.00
             374.36,1108.93 369.74,1124.52 367.00,1129.00
             365.96,1126.82 364.85,1124.05 363.35,1122.18
             358.23,1115.78 344.81,1111.76 338.09,1107.04
             334.16,1104.27 332.42,1100.43 328.91,1097.21
             326.02,1094.56 322.47,1093.40 320.44,1089.90
             320.44,1089.90 312.99,1059.13 312.99,1059.13
             310.03,1054.22 304.31,1055.94 301.60,1053.26
             298.54,1050.25 301.30,1043.57 298.83,1039.10
             295.58,1033.24 288.08,1034.74 284.88,1027.00
             283.43,1023.49 281.38,1014.44 283.02,1011.00
             284.96,1006.93 290.04,1004.11 289.23,999.00
             288.96,997.25 287.47,994.53 286.53,993.00
             283.87,988.67 280.37,984.97 276.00,982.35
             272.47,980.24 264.90,977.28 262.43,974.61
             257.74,969.56 261.95,964.25 260.27,959.00
             257.55,950.56 252.49,948.96 247.00,943.93
             233.21,931.31 220.21,916.82 211.81,900.00
             206.24,888.86 207.87,882.53 198.00,883.17
             184.44,884.05 183.34,880.30 175.96,870.00
             175.96,870.00 169.42,862.00 169.42,862.00
             163.91,855.57 158.78,852.09 158.09,843.00
             157.72,838.07 158.51,835.29 160.87,831.00
             162.32,828.37 165.07,825.18 163.85,822.04
             161.82,816.85 149.89,812.11 145.00,809.68
             142.20,808.28 139.05,806.66 140.66,803.00
             141.45,801.19 143.40,799.37 145.17,798.51
             145.17,798.51 170.00,793.92 170.00,793.92
             170.00,793.92 222.00,785.27 222.00,785.27
             222.00,785.27 258.00,779.00 258.00,779.00 Z" />
  <path id="Quezon"
        fill="none" stroke="black" stroke-width="1"
        d="M 689.00,880.00
           C 699.37,883.61 704.56,869.79 714.90,877.65
             719.09,880.84 723.15,891.01 725.78,896.00
             733.99,911.56 743.88,924.42 763.00,923.99
             777.55,923.66 806.03,910.91 821.00,905.69
             837.49,899.95 854.97,897.41 872.00,893.79
             872.00,893.79 900.00,887.00 900.00,887.00
             902.86,896.00 910.97,904.40 920.00,907.40
             920.00,907.40 940.00,912.00 940.00,912.00
             944.30,913.45 957.84,917.81 959.08,922.10
             960.16,925.85 955.92,933.56 954.26,937.00
             949.93,945.98 945.99,955.20 944.00,965.00
             942.77,971.10 943.29,971.49 942.91,977.00
             942.91,977.00 942.09,984.00 942.09,984.00
             942.09,984.00 940.19,1007.00 940.19,1007.00
             940.19,1007.00 926.00,1047.00 926.00,1047.00
             923.60,1058.16 925.95,1063.78 926.00,1074.00
             926.00,1074.00 926.00,1088.00 926.00,1088.00
             920.62,1086.69 915.85,1086.21 911.17,1089.80
             907.40,1092.70 906.08,1096.94 900.99,1097.76
             892.84,1099.07 885.04,1091.64 880.00,1092.42
             876.23,1093.00 873.91,1096.53 873.10,1100.00
             870.79,1109.86 880.03,1127.75 879.85,1138.00
             879.73,1144.84 873.84,1145.29 872.81,1150.01
             871.89,1154.25 879.48,1161.17 871.89,1164.41
             870.81,1164.88 870.05,1164.83 869.00,1165.00
             868.35,1162.53 867.86,1160.29 865.73,1158.60
             863.09,1156.51 859.18,1157.13 856.00,1156.91
             851.62,1156.61 850.04,1155.84 845.00,1156.04
             845.00,1156.04 835.00,1156.80 835.00,1156.80
             831.38,1156.44 821.09,1152.12 817.00,1150.58
             817.00,1150.58 691.00,1102.58 691.00,1102.58
             691.00,1102.58 665.00,1092.68 665.00,1092.68
             661.54,1091.40 656.04,1089.82 653.85,1086.78
             651.38,1083.33 651.01,1074.28 651.00,1070.00
             651.00,1070.00 651.00,1060.00 651.00,1060.00
             650.92,1053.44 649.76,1043.95 644.87,1039.21
             640.69,1035.16 636.95,1035.63 633.97,1031.78
             631.34,1028.39 625.14,1011.77 623.72,1007.00
             621.73,1000.29 620.38,990.79 622.38,984.00
             624.24,977.68 629.10,976.41 627.90,971.00
             626.88,966.34 621.28,959.24 618.88,955.00
             614.57,947.40 614.10,941.25 616.72,933.00
             619.70,923.63 624.37,927.45 627.83,920.96
             630.46,916.00 626.77,903.04 634.11,900.69
             637.61,899.57 643.78,903.22 647.00,904.69
             654.00,907.89 670.69,913.83 677.96,909.98
             680.37,908.70 681.95,906.36 683.17,904.00
             684.54,901.34 685.79,896.95 686.53,894.00
             686.53,894.00 689.00,880.00 689.00,880.00 Z" />
  <path id="Maramag"
        fill="none" stroke="black" stroke-width="1"
        d="M 430.00,941.00
           C 434.79,926.76 439.87,925.38 446.32,914.00
             450.72,906.25 453.05,896.55 455.42,888.00
             456.57,883.86 459.22,876.06 458.62,872.00
             457.61,865.12 449.11,857.97 446.81,853.00
             444.31,847.61 449.52,842.51 454.00,840.16
             459.83,837.10 472.31,837.37 479.00,836.91
             479.00,836.91 490.00,836.00 490.00,836.00
             490.00,836.00 524.00,836.00 524.00,836.00
             524.00,836.00 541.00,837.00 541.00,837.00
             541.00,837.00 601.00,837.00 601.00,837.00
             601.00,837.00 616.00,836.00 616.00,836.00
             616.00,836.00 656.00,832.84 656.00,832.84
             656.00,832.84 670.00,831.05 670.00,831.05
             681.24,830.91 693.89,847.15 692.89,858.00
             692.39,863.43 689.05,866.06 687.64,871.00
             686.84,873.78 686.95,886.50 682.97,899.00
             681.55,903.48 680.23,908.02 674.98,908.85
             665.88,910.30 654.18,905.75 646.00,902.14
             641.33,900.08 635.84,896.26 631.21,900.32
             624.87,905.87 628.05,913.84 626.57,918.96
             625.27,923.43 622.01,923.44 619.13,925.69
             616.63,927.65 615.50,930.04 614.57,933.00
             611.90,941.53 612.94,948.35 617.45,956.00
             619.74,959.88 624.99,966.73 625.55,971.00
             626.11,975.19 623.19,977.53 621.43,981.00
             619.89,984.05 619.16,987.59 619.04,991.00
             618.60,1004.24 626.90,1020.97 632.00,1033.00
             627.43,1032.63 619.03,1031.40 615.00,1029.43
             610.71,1027.35 608.87,1024.25 605.00,1022.73
             601.59,1021.40 594.38,1021.89 589.04,1018.15
             582.24,1013.38 582.75,1005.84 573.00,1002.13
             567.60,1000.07 558.86,999.46 553.00,998.84
             537.82,997.21 517.04,995.86 503.00,990.58
             491.51,986.25 481.33,979.36 473.30,970.00
             473.30,970.00 459.82,952.70 459.82,952.70
             454.37,948.60 449.70,951.32 444.00,949.66
             439.63,948.38 434.14,943.62 430.00,941.00 Z" />
  <path id="Pangatucan"
        fill="none" stroke="black" stroke-width="1"
        d="M 261.00,779.00
           C 261.00,779.00 349.00,764.27 349.00,764.27
             349.00,764.27 410.00,754.00 410.00,754.00
             410.00,754.00 427.97,777.00 427.97,777.00
             437.26,790.59 441.22,802.66 446.33,818.00
             446.33,818.00 452.07,834.99 452.07,834.99
             452.87,841.38 442.75,844.24 444.00,851.00
             445.29,857.97 457.67,865.22 456.50,875.00
             455.38,884.25 447.92,908.02 443.07,916.00
             436.59,926.68 428.17,931.51 428.00,945.00
             428.00,945.00 429.00,968.00 429.00,968.00
             429.00,968.00 429.00,1004.00 429.00,1004.00
             429.00,1004.00 430.00,1023.00 430.00,1023.00
             430.00,1023.00 431.29,1042.00 431.29,1042.00
             432.57,1051.85 436.62,1060.53 439.12,1070.00
             440.79,1076.36 441.97,1089.34 442.00,1096.00
             442.00,1096.00 443.00,1115.00 443.00,1115.00
             443.00,1115.00 443.00,1162.00 443.00,1162.00
             443.00,1162.00 440.57,1198.00 440.57,1198.00
             439.48,1201.87 434.32,1206.82 430.04,1206.46
             426.76,1206.19 423.50,1201.39 420.99,1199.21
             416.45,1195.28 408.09,1191.80 402.00,1192.33
             397.16,1192.75 392.69,1194.90 388.00,1196.00
             387.51,1190.02 383.43,1163.55 381.35,1159.00
             379.20,1154.29 376.12,1153.09 373.42,1149.83
             370.72,1146.58 368.51,1139.23 368.47,1135.00
             368.47,1135.00 381.27,1093.00 381.27,1093.00
             381.50,1089.23 377.97,1083.45 376.25,1080.00
             371.26,1070.03 367.64,1065.30 366.28,1054.00
             366.28,1054.00 364.91,1030.00 364.91,1030.00
             364.91,1030.00 360.16,974.00 360.16,974.00
             360.16,974.00 355.85,940.00 355.85,940.00
             354.14,935.61 350.24,932.32 347.01,929.00
             347.01,929.00 332.09,913.00 332.09,913.00
             332.09,913.00 287.83,865.00 287.83,865.00
             287.83,865.00 266.60,842.00 266.60,842.00
             264.65,838.91 264.05,824.31 264.00,820.00
             264.00,820.00 263.04,809.00 263.04,809.00
             263.04,809.00 261.00,779.00 261.00,779.00 Z" />
  <path id="Valencia"
        fill="none" stroke="black" stroke-width="1"
        d="M 423.00,661.00
           C 423.00,661.00 508.00,694.22 508.00,694.22
             508.00,694.22 531.00,696.17 531.00,696.17
             531.00,696.17 577.00,700.10 577.00,700.10
             577.00,700.10 605.00,709.19 605.00,709.19
             605.00,709.19 645.00,710.00 645.00,710.00
             650.97,710.03 658.46,710.80 664.00,713.01
             668.00,714.61 678.40,719.78 682.00,719.79
             684.73,719.79 693.95,716.00 697.00,714.80
             697.00,714.80 720.00,705.81 720.00,705.81
             722.61,704.80 729.58,701.97 732.00,701.90
             735.67,701.81 746.20,706.95 750.00,708.70
             751.96,709.60 754.75,710.56 755.98,712.41
             757.40,714.56 757.00,720.32 757.00,723.00
             757.00,723.00 785.00,723.00 785.00,723.00
             792.36,723.13 791.81,724.79 798.00,726.32
             798.00,726.32 810.00,729.09 810.00,729.09
             824.87,734.55 825.19,743.97 845.00,744.00
             845.00,744.00 922.00,744.00 922.00,744.00
             918.59,752.52 917.42,754.99 912.85,763.00
             911.21,765.88 907.32,771.98 906.96,775.00
             906.27,780.70 912.16,786.36 910.34,793.00
             908.21,800.77 901.17,803.57 901.00,818.00
             900.90,826.48 901.45,829.27 899.92,838.00
             899.92,838.00 895.04,865.00 895.04,865.00
             894.67,873.75 896.86,876.91 898.00,885.00
             898.00,885.00 872.00,891.58 872.00,891.58
             872.00,891.58 821.00,903.67 821.00,903.67
             804.91,908.97 778.94,921.34 763.00,921.96
             744.45,922.69 734.99,909.97 727.26,895.00
             724.05,888.78 720.68,879.68 714.98,875.65
             708.50,871.06 705.02,873.64 699.00,876.68
             696.36,878.01 692.40,879.99 690.33,876.68
             686.88,871.17 694.58,863.52 695.30,858.00
             696.52,848.56 681.80,830.01 672.58,828.93
             672.58,828.93 645.00,831.83 645.00,831.83
             645.00,831.83 609.00,834.00 609.00,834.00
             609.00,834.00 592.00,835.00 592.00,835.00
             592.00,835.00 556.00,835.00 556.00,835.00
             556.00,835.00 540.00,834.00 540.00,834.00
             540.00,834.00 486.00,834.00 486.00,834.00
             486.00,834.00 455.00,837.00 455.00,837.00
             449.88,821.65 441.78,796.22 433.80,783.00
             428.74,774.63 425.90,771.38 419.75,764.00
             417.24,760.99 413.21,756.81 412.31,753.00
             411.29,748.70 414.20,732.42 414.85,727.00
             414.85,727.00 423.00,661.00 423.00,661.00 Z" />
  <path id="Cabanglasan"
        fill="none" stroke="black" stroke-width="1"
        d="M 1015.00,707.00
           C 1015.00,707.00 989.00,705.17 989.00,705.17
             989.00,705.17 963.00,703.17 963.00,703.17
             957.30,702.63 942.39,702.55 938.00,700.47
             934.20,698.67 929.16,695.32 926.64,691.96
             923.39,687.63 923.10,683.03 917.98,679.74
             913.25,676.70 908.57,679.03 902.00,677.06
             896.48,675.40 889.99,668.41 886.32,664.00
             883.18,660.22 880.57,655.85 879.52,651.00
             878.60,646.80 879.50,641.95 876.91,638.23
             873.24,632.92 862.67,635.03 857.23,631.00
             853.70,628.38 854.06,624.92 854.15,621.00
             854.15,621.00 854.15,603.00 854.15,603.00
             854.01,598.61 853.75,591.01 854.15,587.00
             854.15,587.00 861.57,564.00 861.57,564.00
             863.58,557.42 864.56,549.95 871.04,546.09
             875.64,543.34 880.93,544.18 886.00,543.96
             886.00,543.96 894.00,543.04 894.00,543.04
             894.00,543.04 908.00,543.04 908.00,543.04
             908.00,543.04 924.00,542.00 924.00,542.00
             924.00,542.00 955.00,542.00 955.00,542.00
             955.00,542.00 970.00,541.00 970.00,541.00
             970.00,541.00 995.00,540.00 995.00,540.00
             996.99,546.80 1001.76,551.38 1001.16,556.00
             1000.75,559.07 992.34,572.90 996.01,582.00
             1001.77,596.29 1020.91,596.51 1021.90,611.00
             1022.78,623.78 1011.81,624.73 1010.21,635.00
             1010.21,635.00 1011.82,658.00 1011.82,658.00
             1010.44,677.45 1011.40,687.87 1015.00,707.00 Z" />
  <path id="Lantapan"
        fill="none" stroke="black" stroke-width="1"
        d="M 731.00,700.00
           C 731.00,700.00 697.00,712.68 697.00,712.68
             693.71,713.90 685.93,717.31 683.00,717.58
             679.06,717.94 674.58,715.53 671.00,714.00
             661.84,710.08 660.36,708.02 650.00,708.00
             650.00,708.00 630.00,708.00 630.00,708.00
             630.00,708.00 610.00,707.00 610.00,707.00
             596.67,706.98 590.62,700.82 579.00,698.37
             579.00,698.37 521.00,693.17 521.00,693.17
             521.00,693.17 511.00,692.38 511.00,692.38
             501.64,690.70 468.06,676.42 457.00,672.00
             457.00,672.00 438.00,664.42 438.00,664.42
             435.48,663.47 428.10,660.92 426.29,659.59
             423.26,657.35 424.14,654.23 424.58,651.00
             425.54,643.87 424.93,640.01 429.63,634.00
             429.63,634.00 474.91,586.00 474.91,586.00
             478.82,581.81 490.25,568.06 495.00,566.69
             498.32,565.73 511.11,570.41 515.00,571.66
             515.00,571.66 564.00,586.98 564.00,586.98
             574.42,590.21 596.29,597.88 606.00,598.00
             606.00,598.00 642.00,599.00 642.00,599.00
             646.33,599.01 650.89,599.10 655.00,600.66
             655.00,600.66 692.00,626.35 692.00,626.35
             695.64,628.31 699.04,627.90 703.00,628.42
             703.00,628.42 731.00,631.00 731.00,631.00
             731.00,631.00 731.00,700.00 731.00,700.00 Z" />
  <path id="Talakag"
        fill="none" stroke="black" stroke-width="1"
        d="M 491.00,564.00
           C 487.94,571.81 480.67,576.92 475.17,583.00
             475.17,583.00 438.91,622.00 438.91,622.00
             434.53,626.70 426.61,633.26 424.34,639.00
             424.34,639.00 420.72,664.00 420.72,664.00
             420.72,664.00 413.27,722.00 413.27,722.00
             413.27,722.00 410.58,743.00 410.58,743.00
             410.25,745.36 410.10,749.59 408.40,751.26
             406.69,752.94 402.36,753.36 400.00,753.75
             400.00,753.75 379.00,757.25 379.00,757.25
             379.00,757.25 299.00,770.41 299.00,770.41
             299.00,770.41 186.00,789.08 186.00,789.08
             186.00,789.08 156.00,794.08 156.00,794.08
             152.59,794.64 146.06,796.35 143.00,794.94
             140.08,793.59 137.06,789.58 135.16,787.00
             135.16,787.00 121.31,765.00 121.31,765.00
             121.31,765.00 112.31,751.00 112.31,751.00
             112.31,751.00 104.07,735.00 104.07,735.00
             99.08,726.77 94.14,724.45 94.00,714.00
             93.88,704.95 94.81,700.92 91.56,692.00
             91.56,692.00 75.79,661.00 75.79,661.00
             72.54,649.53 83.03,647.83 78.12,636.00
             78.12,636.00 66.25,612.00 66.25,612.00
             66.25,612.00 50.75,580.00 50.75,580.00
             47.83,574.12 38.93,558.22 38.21,553.00
             37.92,550.92 37.77,547.47 39.60,546.02
             41.08,544.85 45.87,544.90 48.00,544.56
             54.46,543.54 58.91,541.55 65.00,539.72
             75.55,536.54 94.79,530.76 100.47,520.99
             103.83,515.20 104.07,507.52 104.00,501.00
             103.90,492.88 101.78,472.05 100.20,464.00
             99.16,458.73 95.71,446.79 96.64,442.00
             97.74,436.40 102.44,434.76 106.52,428.00
             109.82,422.54 113.30,410.43 114.87,404.00
             116.72,396.43 118.97,374.74 122.00,370.09
             124.18,366.75 127.45,364.60 131.00,363.00
             131.00,363.00 131.00,372.00 131.00,372.00
             131.00,374.51 130.86,377.65 131.73,380.00
             132.88,383.11 142.27,395.46 145.09,396.98
             147.18,398.10 149.70,397.98 152.00,398.00
             152.00,398.00 193.00,398.00 193.00,398.00
             195.41,398.00 198.57,397.78 200.70,399.02
             202.81,400.25 206.15,404.92 207.80,407.00
             207.80,407.00 221.12,424.00 221.12,424.00
             221.12,424.00 263.40,478.00 263.40,478.00
             263.40,478.00 282.29,501.44 282.29,501.44
             285.33,503.82 295.78,506.34 300.00,507.66
             300.00,507.66 342.00,520.02 342.00,520.02
             342.00,520.02 432.00,546.72 432.00,546.72
             432.00,546.72 475.00,559.42 475.00,559.42
             475.00,559.42 491.00,564.00 491.00,564.00 Z" />
  <path id="Baungon"
        fill="none" stroke="black" stroke-width="1"
        d="M 491.00,562.00
           C 491.00,562.00 467.00,555.02 467.00,555.02
             467.00,555.02 439.00,546.72 439.00,546.72
             439.00,546.72 348.00,519.72 348.00,519.72
             348.00,519.72 304.00,506.72 304.00,506.72
             300.35,505.63 285.66,501.65 283.46,500.10
             283.46,500.10 262.35,474.00 262.35,474.00
             262.35,474.00 221.65,422.00 221.65,422.00
             221.65,422.00 209.12,406.00 209.12,406.00
             207.17,403.47 203.61,398.47 200.91,397.02
             198.64,395.80 195.53,396.01 193.00,396.00
             193.00,396.00 153.00,396.00 153.00,396.00
             151.07,396.00 147.92,396.12 146.17,395.40
             142.85,394.03 134.55,382.53 133.51,379.00
             132.91,376.96 133.00,374.14 133.00,372.00
             132.96,351.04 137.97,360.40 138.00,342.00
             138.00,342.00 138.00,332.00 138.00,332.00
             137.95,321.77 135.62,319.39 138.51,308.00
             140.35,300.75 146.42,292.95 147.67,286.00
             147.67,286.00 150.72,247.00 150.72,247.00
             151.60,240.22 152.52,233.53 154.67,227.00
             155.42,224.73 156.34,221.40 158.42,220.02
             160.29,218.78 163.79,219.00 166.00,219.00
             166.00,219.00 213.00,219.00 213.00,219.00
             213.00,219.00 213.00,244.00 213.00,244.00
             213.00,244.00 212.00,259.00 212.00,259.00
             211.91,267.30 212.48,280.33 215.47,288.00
             217.21,292.48 219.77,296.43 224.00,298.92
             228.11,301.33 233.36,301.42 237.61,306.19
             243.43,312.72 241.99,325.65 242.00,334.00
             242.00,336.84 241.87,340.33 242.89,343.00
             247.17,354.20 263.77,354.86 272.99,361.63
             280.24,366.97 282.89,376.36 283.00,385.00
             283.11,394.46 283.89,403.37 290.33,410.98
             296.06,417.75 305.93,420.37 314.00,423.60
             314.00,423.60 357.00,442.25 357.00,442.25
             383.33,455.32 397.20,462.46 422.00,479.00
             430.52,484.68 445.09,494.90 451.96,502.00
             451.96,502.00 460.43,512.00 460.43,512.00
             475.12,529.64 473.26,530.47 483.31,549.00
             483.31,549.00 491.00,562.00 491.00,562.00 Z" />
  <path id="Lilbona"
        fill="none" stroke="black" stroke-width="1"
        d="M 215.00,219.00
           C 215.00,219.00 232.00,218.00 232.00,218.00
             232.00,218.00 318.00,218.00 318.00,218.00
             318.00,218.00 332.00,217.00 332.00,217.00
             332.00,217.00 358.00,217.00 358.00,217.00
             358.00,217.00 359.83,248.00 359.83,248.00
             359.83,248.00 360.39,259.00 360.39,259.00
             361.61,264.64 369.19,275.76 369.39,280.00
             369.55,283.30 367.11,286.01 365.99,289.00
             364.84,292.07 365.01,294.79 365.00,298.00
             365.00,298.00 365.00,305.00 365.00,305.00
             365.10,313.07 368.84,320.61 371.80,328.00
             371.80,328.00 379.89,348.00 379.89,348.00
             379.89,348.00 409.42,401.00 409.42,401.00
             409.42,401.00 423.65,427.00 423.65,427.00
             423.65,427.00 430.40,457.00 430.40,457.00
             430.40,457.00 445.80,483.00 445.80,483.00
             448.82,488.04 452.32,491.95 452.00,498.00
             452.00,498.00 419.00,474.69 419.00,474.69
             397.86,460.92 377.65,450.22 355.00,439.26
             355.00,439.26 314.00,421.60 314.00,421.60
             308.43,419.37 297.19,415.66 293.18,411.79
             280.50,399.54 289.30,380.00 280.20,367.00
             274.94,359.48 269.13,357.06 261.00,353.80
             256.40,351.95 249.56,349.90 246.56,345.90
             243.84,342.27 244.01,337.31 244.00,333.00
             243.99,323.56 245.74,312.63 238.79,305.09
             230.07,295.64 222.41,301.55 217.55,288.00
             215.83,283.21 213.83,266.95 214.18,262.00
             214.18,262.00 215.00,248.00 215.00,248.00
             215.00,248.00 216.00,230.00 216.00,230.00
             216.00,230.00 215.00,219.00 215.00,219.00 Z" />
  <path id="Manolo Fortich"
        fill="none" stroke="black" stroke-width="1"
        d="M 360.00,217.00
           C 362.59,217.00 367.47,217.35 369.61,215.98
             375.34,212.32 376.99,195.39 377.00,189.00
             377.03,170.45 371.26,168.64 373.52,158.00
             376.17,145.47 386.20,128.28 392.58,117.00
             395.79,111.31 398.30,102.37 405.77,110.19
             406.60,111.05 407.28,111.95 407.83,113.01
             410.97,119.13 406.57,130.85 407.10,138.00
             408.41,155.86 432.19,149.72 440.26,162.04
             445.39,169.87 436.36,182.43 442.31,188.72
             447.00,193.68 458.51,191.80 465.00,195.89
             478.79,204.58 483.72,224.06 504.00,222.91
             509.87,222.57 518.62,220.47 524.00,218.13
             528.02,216.37 531.79,213.53 536.00,212.53
             541.33,211.26 551.96,212.83 560.00,208.48
             570.17,202.98 578.19,193.90 584.00,190.26
             591.52,185.55 591.98,191.87 600.00,185.86
             612.28,176.67 616.98,165.94 624.00,160.00
             624.00,160.00 639.59,178.00 639.59,178.00
             641.14,179.86 644.82,183.57 644.80,186.00
             644.79,189.18 637.35,195.65 635.00,198.00
             635.00,198.00 603.00,229.00 603.00,229.00
             603.00,229.00 567.00,264.00 567.00,264.00
             563.23,267.77 550.59,281.07 547.00,283.02
             543.77,284.77 529.53,286.65 525.00,287.41
             525.00,287.41 477.00,295.00 477.00,295.00
             477.00,295.00 471.61,326.00 471.61,326.00
             471.61,326.00 462.20,376.00 462.20,376.00
             462.20,376.00 457.18,404.00 457.18,404.00
             457.18,404.00 461.58,421.00 461.58,421.00
             461.58,421.00 472.00,455.00 472.00,455.00
             468.62,455.96 460.95,458.66 458.85,461.39
             457.12,463.64 457.00,467.25 456.58,470.00
             455.54,476.62 454.15,483.29 454.00,490.00
             449.12,487.18 446.46,480.76 443.60,476.00
             440.59,470.99 432.72,458.83 431.30,454.00
             428.78,445.40 428.71,432.75 424.82,425.00
             424.82,425.00 410.86,400.00 410.86,400.00
             410.86,400.00 392.58,367.00 392.58,367.00
             381.68,347.76 382.29,349.58 374.20,329.00
             371.24,321.46 368.04,315.17 368.00,307.00
             368.00,307.00 368.00,296.00 368.00,296.00
             368.00,293.34 367.87,290.56 368.70,288.00
             369.60,285.19 371.73,282.77 371.66,280.00
             371.66,280.00 363.04,260.00 363.04,260.00
             361.51,253.81 362.31,250.81 361.91,245.00
             361.91,245.00 360.00,217.00 360.00,217.00 Z" />
  <path id="Sumilao"
        fill="none" stroke="black" stroke-width="1"
        d="M 479.00,297.00
           C 479.00,297.00 522.00,290.08 522.00,290.08
             522.00,290.08 546.00,285.57 546.00,285.57
             546.00,285.57 567.00,268.00 567.00,268.00
             576.16,282.09 573.82,290.20 574.10,306.00
             574.05,309.95 575.15,314.34 574.10,318.00
             572.70,323.76 566.67,331.85 566.38,337.00
             566.38,337.00 569.84,368.00 569.84,368.00
             569.84,368.00 577.08,428.00 577.08,428.00
             579.62,443.36 580.20,447.11 590.93,459.00
             593.52,461.88 599.79,468.50 597.87,472.72
             596.98,474.69 591.82,479.01 590.00,480.58
             590.00,480.58 574.00,494.27 574.00,494.27
             574.00,494.27 519.00,541.73 519.00,541.73
             519.00,541.73 502.00,556.28 502.00,556.28
             500.03,557.97 496.94,561.44 494.09,560.66
             490.81,559.77 485.87,550.13 484.26,547.00
             478.54,535.93 474.91,526.86 466.72,517.00
             462.82,512.31 454.32,504.26 454.53,498.00
             454.53,498.00 457.87,476.00 457.87,476.00
             458.27,473.13 459.05,465.37 460.31,463.22
             463.22,458.28 471.94,459.10 472.89,453.89
             473.34,451.44 470.23,442.77 469.34,440.00
             469.34,440.00 462.41,417.00 462.41,417.00
             461.21,413.06 459.20,408.05 459.18,404.00
             459.18,404.00 463.75,379.00 463.75,379.00
             463.75,379.00 479.00,297.00 479.00,297.00 Z" />
  <path id="Malaybalay"
        fill="none" stroke="black" stroke-width="1"
        d="M 497.00,564.00
           C 501.89,557.32 519.69,543.44 527.00,536.95
             527.00,536.95 599.00,474.87 599.00,474.87
             599.00,474.87 633.00,445.58 633.00,445.58
             636.65,442.46 645.23,434.55 649.00,432.77
             652.89,430.93 661.45,430.32 666.00,429.72
             666.00,429.72 701.00,425.00 701.00,425.00
             704.50,424.52 716.55,423.31 718.90,421.98
             721.60,420.46 723.67,416.61 725.32,414.00
             725.32,414.00 736.58,396.00 736.58,396.00
             736.58,396.00 776.81,332.00 776.81,332.00
             776.81,332.00 788.81,313.00 788.81,313.00
             790.21,310.73 793.27,305.34 795.38,304.02
             797.37,302.78 800.69,303.00 803.00,303.00
             803.00,303.00 817.00,303.00 817.00,303.00
             817.00,303.00 833.00,302.00 833.00,302.00
             833.00,302.00 889.00,302.00 889.00,302.00
             898.93,302.02 913.07,303.66 918.64,313.01
             923.15,320.60 921.56,326.54 927.36,334.98
             934.79,345.79 943.92,340.76 949.64,350.04
             949.64,350.04 965.36,397.99 965.36,397.99
             969.04,404.15 975.87,406.64 982.00,409.76
             984.40,410.98 989.73,413.46 990.51,416.18
             991.37,419.17 987.85,421.91 986.23,424.00
             983.75,427.22 983.74,428.10 983.87,432.00
             984.07,437.93 984.42,443.39 982.05,449.00
             979.57,454.84 974.72,458.51 975.48,464.00
             975.98,467.57 982.12,476.52 984.32,480.00
             990.23,489.38 997.52,501.24 1000.24,512.00
             1003.53,524.99 995.66,523.57 995.00,537.00
             986.48,538.53 971.88,538.99 963.00,539.00
             963.00,539.00 946.00,540.00 946.00,540.00
             946.00,540.00 917.00,540.00 917.00,540.00
             917.00,540.00 901.00,541.00 901.00,541.00
             894.31,541.03 876.30,541.04 871.00,544.09
             863.39,548.46 862.07,555.46 859.66,563.00
             854.13,580.28 851.03,588.29 851.00,607.00
             850.99,615.28 849.72,629.07 858.02,633.56
             862.30,635.88 872.19,636.38 874.41,638.59
             876.92,641.11 876.44,648.53 878.39,654.00
             880.52,659.99 886.67,667.36 891.17,671.83
             894.65,675.30 899.06,678.78 904.00,679.67
             908.14,680.42 913.15,679.32 916.95,681.31
             921.91,683.92 921.26,688.40 926.21,693.96
             929.93,698.14 933.77,699.63 934.97,701.61
             936.70,704.46 933.68,711.95 932.67,715.00
             932.67,715.00 926.19,734.00 926.19,734.00
             925.40,736.03 924.14,739.73 922.35,741.01
             920.61,742.25 917.10,742.00 915.00,742.00
             915.00,742.00 845.00,742.00 845.00,742.00
             825.64,741.97 824.27,732.33 810.00,727.09
             810.00,727.09 798.00,724.18 798.00,724.18
             798.00,724.18 789.00,721.14 789.00,721.14
             789.00,721.14 759.00,721.14 759.00,721.14
             759.00,717.91 759.53,713.04 757.40,710.64
             754.33,707.17 737.22,702.31 734.99,699.30
             733.74,697.61 734.00,694.06 734.00,692.00
             734.00,692.00 734.00,629.00 734.00,629.00
             734.00,629.00 704.00,626.28 704.00,626.28
             704.00,626.28 693.00,624.73 693.00,624.73
             693.00,624.73 654.00,597.84 654.00,597.84
             654.00,597.84 638.00,597.00 638.00,597.00
             638.00,597.00 624.00,596.00 624.00,596.00
             624.00,596.00 596.00,594.54 596.00,594.54
             596.00,594.54 554.00,581.67 554.00,581.67
             554.00,581.67 497.00,564.00 497.00,564.00 Z" />
  <path id="Impasug-ong"
        fill="none" stroke="black" stroke-width="1"
        d="M 601.00,468.00
           C 595.48,458.39 588.18,453.12 584.45,444.00
             580.46,434.23 577.13,401.09 575.84,389.00
             575.84,389.00 571.85,355.00 571.85,355.00
             571.85,355.00 570.11,338.00 570.11,338.00
             570.52,330.78 575.76,324.64 577.37,319.00
             578.42,315.29 578.02,299.85 578.00,295.00
             577.97,288.85 576.84,280.70 574.53,275.00
             573.10,271.48 569.68,267.85 571.70,264.00
             573.27,261.02 585.54,250.45 589.00,247.00
             589.00,247.00 620.00,216.04 620.00,216.04
             620.00,216.04 631.00,206.00 631.00,206.00
             633.97,203.06 646.86,190.70 648.04,188.00
             649.74,184.09 645.72,180.73 643.42,178.00
             643.42,178.00 630.77,163.00 630.77,163.00
             628.75,160.44 626.90,158.45 627.90,155.00
             628.39,153.31 631.88,147.86 633.00,146.00
             633.00,146.00 645.20,126.00 645.20,126.00
             658.15,104.67 671.58,83.33 682.75,61.00
             682.75,61.00 691.69,43.00 691.69,43.00
             693.04,40.07 694.33,35.73 697.21,34.02
             699.28,32.80 702.63,33.00 705.00,33.00
             705.00,33.00 727.00,33.00 727.00,33.00
             727.00,33.00 744.00,32.00 744.00,32.00
             744.00,32.00 821.00,31.00 821.00,31.00
             821.00,31.00 837.00,30.00 837.00,30.00
             837.00,30.00 851.04,30.00 851.04,30.00
             851.04,30.00 851.04,42.00 851.04,42.00
             851.04,42.00 852.00,54.00 852.00,54.00
             852.00,54.00 853.00,121.00 853.00,121.00
             853.00,121.00 854.00,136.00 854.00,136.00
             854.00,136.00 854.00,156.00 854.00,156.00
             854.02,166.54 861.34,199.69 863.80,212.00
             863.80,212.00 874.15,264.00 874.15,264.00
             874.15,264.00 886.00,298.00 886.00,298.00
             886.00,298.00 861.00,298.00 861.00,298.00
             861.00,298.00 844.00,299.00 844.00,299.00
             844.00,299.00 809.00,299.00 809.00,299.00
             805.45,299.01 797.13,299.30 794.18,301.02
             791.57,302.54 788.71,307.39 787.05,310.00
             787.05,310.00 774.42,330.00 774.42,330.00
             774.42,330.00 736.68,390.00 736.68,390.00
             736.68,390.00 718.68,417.69 718.68,417.69
             715.10,420.91 703.07,421.38 698.00,421.95
             698.00,421.95 650.00,428.80 650.00,428.80
             644.84,430.47 638.21,437.15 634.00,440.85
             627.76,446.33 606.74,464.92 601.00,468.00 Z" />
  <path id="Malitbog"
        fill="none" stroke="black" stroke-width="1"
        d="M 400.00,104.00
           C 400.00,104.00 406.12,85.00 406.12,85.00
             411.05,66.33 413.10,47.64 427.04,33.00
             429.13,30.80 433.42,26.31 436.00,25.02
             438.81,23.62 442.88,24.06 446.00,23.99
             446.00,23.99 460.00,23.00 460.00,23.00
             460.00,23.00 482.00,23.00 482.00,23.00
             491.00,23.04 507.42,26.81 517.00,28.61
             525.50,30.20 547.76,35.24 555.00,34.96
             555.00,34.96 568.00,34.00 568.00,34.00
             568.00,34.00 646.00,33.00 646.00,33.00
             646.00,33.00 662.00,32.00 662.00,32.00
             662.00,32.00 692.00,32.00 692.00,32.00
             690.60,39.51 685.69,48.11 682.25,55.00
             682.25,55.00 657.20,100.00 657.20,100.00
             657.20,100.00 625.68,152.00 625.68,152.00
             619.07,162.48 609.05,177.38 599.00,184.57
             593.10,188.79 591.36,184.28 585.00,187.57
             578.54,190.91 568.79,202.48 558.00,207.35
             552.30,209.93 541.86,208.73 535.00,210.80
             528.60,212.73 521.82,219.81 506.00,220.00
             501.19,220.05 495.36,220.49 491.00,218.31
             481.46,213.55 474.40,198.30 464.00,193.10
             458.96,190.58 445.77,190.82 443.02,186.70
             441.61,184.22 442.50,180.72 443.02,178.00
             443.78,171.37 445.62,165.62 440.77,160.04
             428.86,146.32 407.81,154.39 409.18,135.00
             409.60,129.15 412.61,118.24 409.98,113.00
             408.02,109.10 403.66,106.14 400.00,104.00 Z" />
</svg>
