<?xml version="1.0" encoding="UTF-8" standalone="no"?>
<!DOCTYPE svg PUBLIC "-//W3C//DTD SVG 20010904//EN"
              "http://www.w3.org/TR/2001/REC-SVG-20010904/DTD/svg10.dtd">

<svg xmlns="http://www.w3.org/2000/svg"
     width="79.6378mm" height="61.1036mm"
     viewBox="0 0 941 722">
  <path id="Dona Remedios Trinidad"
        fill="none" stroke="black" stroke-width="1"
        d="M 572.00,57.00
           C 576.60,57.00 582.65,57.34 587.00,56.24
             587.00,56.24 626.00,44.09 626.00,44.09
             633.81,43.61 640.11,46.60 647.00,49.70
             653.83,52.77 657.77,53.56 664.00,58.52
             667.77,61.52 681.10,78.30 684.66,83.00
             689.37,89.22 692.50,96.65 699.00,101.37
             705.48,106.06 728.29,114.30 737.00,117.80
             748.09,122.25 750.66,125.98 763.00,126.00
             763.00,126.00 814.00,126.00 814.00,126.00
             814.86,136.59 816.85,160.00 823.39,167.96
             830.53,176.63 838.74,172.32 843.52,184.00
             847.93,194.79 842.52,200.35 832.00,202.00
             832.00,202.00 833.00,225.00 833.00,225.00
             833.00,225.00 834.00,241.00 834.00,241.00
             834.00,241.00 834.91,259.00 834.91,259.00
             834.91,259.00 836.28,280.00 836.28,280.00
             836.28,280.00 839.21,299.00 839.21,299.00
             839.21,299.00 844.00,324.00 844.00,324.00
             844.00,324.00 844.00,430.00 844.00,430.00
             844.00,430.00 843.00,449.00 843.00,449.00
             843.00,449.00 805.00,445.17 805.00,445.17
             805.00,445.17 729.00,437.83 729.00,437.83
             729.00,437.83 708.00,435.83 708.00,435.83
             708.00,435.83 689.00,434.00 689.00,434.00
             689.23,430.36 689.34,429.18 686.76,426.28
             684.78,424.06 679.66,420.89 681.17,417.33
             684.28,409.96 695.44,416.34 697.87,411.69
             700.47,406.71 690.78,402.87 691.96,397.00
             692.55,394.05 697.56,387.96 698.18,384.00
             698.76,380.27 696.43,378.06 696.56,375.00
             696.67,372.30 698.58,370.44 698.89,368.00
             699.26,365.16 697.53,363.40 697.52,360.00
             697.46,353.04 699.07,357.94 697.52,346.00
             696.96,340.10 700.40,336.96 697.52,333.43
             693.42,328.76 684.25,332.36 683.06,338.00
             682.27,341.79 685.93,345.94 686.52,350.00
             686.52,350.00 685.18,367.00 685.18,367.00
             685.18,367.00 686.77,377.96 686.77,377.96
             686.40,382.24 683.01,382.77 680.56,386.10
             677.76,389.90 677.99,393.69 679.00,398.00
             672.26,398.17 672.54,403.18 669.78,408.00
             665.17,416.03 658.90,414.75 666.00,425.00
             666.00,425.00 654.00,427.00 654.00,427.00
             654.00,427.00 661.18,409.00 661.18,409.00
             662.69,404.21 662.20,390.92 661.18,386.00
             652.23,387.11 646.77,378.58 641.61,380.43
             641.61,380.43 627.72,388.78 627.72,388.78
             624.33,390.50 621.28,390.36 615.00,394.78
             611.99,396.90 606.88,401.74 604.00,403.01
             597.80,405.74 596.78,399.63 590.00,401.65
             583.10,403.71 586.43,406.86 575.89,407.00
             575.89,407.00 575.89,402.00 575.89,402.00
             575.99,400.21 576.02,397.72 575.89,396.00
             574.33,389.61 569.48,387.99 564.00,391.09
             558.81,394.03 552.45,403.83 549.00,409.00
             549.00,409.00 547.00,409.00 547.00,409.00
             541.14,400.75 535.60,396.70 536.04,386.00
             536.40,377.22 539.48,376.78 542.59,371.00
             545.09,366.35 547.29,351.98 545.40,347.02
             544.42,344.44 543.04,343.59 541.00,342.00
             541.00,342.00 544.72,327.00 544.72,327.00
             544.72,327.00 552.67,304.00 552.67,304.00
             553.97,300.09 557.87,289.59 557.56,286.00
             557.28,282.87 554.97,279.92 553.73,277.00
             553.73,277.00 551.05,269.00 551.05,269.00
             547.42,260.44 545.06,262.27 544.97,250.00
             544.97,250.00 544.97,235.00 544.97,235.00
             544.93,229.53 543.26,224.39 544.97,219.00
             544.97,219.00 565.42,170.00 565.42,170.00
             569.63,160.13 573.98,152.89 574.00,142.00
             574.00,142.00 574.00,124.00 574.00,124.00
             574.00,124.00 573.00,108.00 573.00,108.00
             573.00,108.00 572.00,57.00 572.00,57.00 Z" />
  <path id="San Miguel"
        fill="none" stroke="black" stroke-width="1"
        d="M 407.00,106.00
           C 410.23,103.03 419.27,94.87 423.00,93.58
             423.00,93.58 459.00,91.04 459.00,91.04
             471.98,86.52 482.40,75.08 495.00,69.12
             506.72,63.58 512.12,64.93 519.00,62.78
             519.00,62.78 537.00,54.69 537.00,54.69
             537.00,54.69 565.00,47.00 565.00,47.00
             571.79,59.00 569.85,73.66 570.00,87.00
             570.00,87.00 571.00,101.00 571.00,101.00
             571.00,101.00 571.00,116.00 571.00,116.00
             571.00,116.00 571.79,128.00 571.79,128.00
             571.79,128.00 571.79,142.00 571.79,142.00
             572.00,144.67 572.07,147.38 571.79,150.00
             571.79,150.00 558.28,182.00 558.28,182.00
             558.28,182.00 547.72,207.00 547.72,207.00
             546.63,209.53 544.48,215.52 542.36,217.01
             540.59,218.25 537.13,218.00 535.00,218.00
             535.00,218.00 514.00,218.00 514.00,218.00
             506.22,218.11 502.82,221.37 496.00,224.75
             488.35,228.56 477.68,232.70 469.02,231.94
             461.52,231.28 465.47,226.26 456.98,222.47
             449.08,218.93 425.65,212.71 417.00,212.00
             419.15,206.95 422.45,203.11 426.05,199.01
             427.42,197.45 430.13,195.14 429.44,192.81
             428.71,190.35 421.32,185.82 419.00,184.12
             414.64,180.90 404.38,173.82 402.60,169.00
             401.80,166.83 402.00,162.43 402.00,160.00
             402.00,160.00 401.31,144.04 401.31,144.04
             402.42,139.73 406.98,137.94 408.98,134.00
             410.12,131.74 409.92,129.43 410.17,127.00
             411.14,117.51 411.19,114.96 407.00,106.00 Z" />
  <path id="San Ildefonso"
        fill="none" stroke="black" stroke-width="1"
        d="M 399.00,300.00
           C 396.75,288.16 385.91,281.04 378.02,273.00
             374.46,269.37 368.75,262.45 369.20,257.00
             369.60,252.20 373.87,250.08 378.00,248.93
             384.21,247.19 399.31,246.40 403.61,242.49
             407.91,238.58 408.87,227.77 411.06,222.00
             412.04,219.45 413.46,215.69 416.21,214.64
             418.55,213.74 424.40,215.27 427.00,215.80
             433.07,217.03 453.44,222.15 457.87,225.08
             462.31,228.02 462.36,234.04 469.00,234.61
             470.42,234.73 473.50,234.18 475.00,233.92
             481.28,232.82 488.27,230.51 494.00,227.74
             501.08,224.32 504.89,221.11 513.00,221.00
             513.00,221.00 542.00,221.00 542.00,221.00
             542.00,221.00 542.83,248.00 542.83,248.00
             542.83,248.00 543.65,259.00 543.65,259.00
             543.65,259.00 548.57,268.00 548.57,268.00
             548.57,268.00 551.65,277.00 551.65,277.00
             551.65,277.00 555.57,287.00 555.57,287.00
             555.57,287.00 550.67,304.00 550.67,304.00
             550.67,304.00 539.00,342.00 539.00,342.00
             539.00,342.00 528.09,341.41 528.09,341.41
             528.09,341.41 522.12,338.60 522.12,338.60
             522.12,338.60 517.63,341.44 517.63,341.44
             517.63,341.44 511.09,343.17 511.09,343.17
             511.09,343.17 503.00,350.00 503.00,350.00
             500.51,346.96 498.02,343.75 496.68,340.00
             495.84,337.65 495.64,333.31 492.77,332.45
             490.58,331.79 488.32,333.86 486.00,334.34
             482.76,335.01 480.78,333.21 478.00,333.80
             475.45,334.34 473.54,336.65 471.00,337.31
             472.70,336.86 457.88,337.23 459.00,337.31
             457.70,337.22 457.13,337.01 456.00,336.36
             452.10,334.11 436.62,316.35 433.42,312.00
             431.45,309.32 430.68,305.82 427.86,303.85
             422.78,300.31 405.50,300.00 399.00,300.00 Z" />
  <path id="San Rafael"
        fill="none" stroke="black" stroke-width="1"
        d="M 366.00,335.00
           C 365.19,331.44 361.56,323.43 363.98,320.57
             368.42,315.35 377.87,326.13 379.14,317.94
             379.14,317.94 379.14,315.00 379.14,315.00
             379.03,311.39 378.97,307.19 382.48,304.83
             385.50,303.11 389.23,305.28 393.00,304.83
             393.00,304.83 400.00,302.30 400.00,302.30
             403.09,301.70 405.97,302.54 409.00,302.83
             414.02,303.31 422.21,302.66 426.69,305.43
             429.02,306.86 428.88,308.77 431.30,312.00
             431.30,312.00 442.42,325.00 442.42,325.00
             445.31,328.35 454.13,338.17 458.00,339.38
             458.00,339.38 471.28,339.38 471.28,339.38
             473.40,338.75 475.42,336.36 478.00,335.80
             480.41,335.28 482.51,336.65 485.00,336.52
             486.97,336.42 490.74,334.69 493.00,334.00
             494.30,338.83 497.39,349.18 502.98,350.55
             505.89,351.26 507.99,347.98 510.09,346.42
             516.24,341.83 515.61,347.05 523.00,339.00
             525.57,342.31 526.63,343.57 531.00,343.94
             534.14,344.21 540.09,343.25 542.40,345.60
             544.54,347.78 543.01,356.52 543.00,360.00
             536.69,361.27 517.43,366.30 513.21,370.27
             507.50,375.65 507.46,385.65 501.81,388.49
             498.92,389.95 494.19,389.85 491.00,390.17
             491.00,390.17 477.00,391.99 477.00,391.99
             477.00,391.99 471.02,391.99 471.02,391.99
             464.07,393.27 466.32,399.97 459.96,401.55
             453.39,403.19 449.45,395.52 443.00,396.74
             443.00,396.74 431.00,402.00 431.00,402.00
             428.80,399.10 426.99,396.80 424.00,394.63
             418.30,390.51 398.17,384.33 391.00,383.15
             391.00,383.15 380.00,383.15 380.00,383.15
             380.00,383.15 375.41,371.00 375.41,371.00
             375.41,371.00 375.41,360.00 375.41,360.00
             375.41,360.00 372.24,349.00 372.24,349.00
             372.24,349.00 377.00,336.00 377.00,336.00
             377.00,336.00 366.00,335.00 366.00,335.00 Z" />
  <path id="Baliuag"
        fill="none" stroke="black" stroke-width="1"
        d="M 360.00,325.00
           C 365.63,333.67 361.96,337.87 375.00,338.00
             375.00,338.00 369.83,349.00 369.83,349.00
             369.83,349.00 373.40,360.00 373.40,360.00
             373.40,360.00 373.40,372.00 373.40,372.00
             373.40,372.00 377.46,384.00 377.46,384.00
             377.46,384.00 373.14,395.00 373.14,395.00
             373.14,395.00 364.69,415.00 364.69,415.00
             364.69,415.00 356.85,429.00 356.85,429.00
             356.85,429.00 356.85,448.00 356.85,448.00
             344.48,446.04 339.14,438.16 329.00,433.16
             324.75,431.06 323.62,432.81 321.17,432.16
             318.04,431.33 314.77,425.86 313.61,423.00
             310.70,415.81 312.75,409.66 312.53,406.00
             312.26,401.63 309.98,399.18 309.58,396.00
             309.20,392.94 311.79,383.25 312.81,380.00
             313.40,378.13 314.07,375.22 315.70,373.99
             317.42,372.70 321.84,372.98 324.00,373.00
             324.00,373.00 335.00,373.57 335.00,373.57
             339.68,372.70 345.86,366.73 348.57,363.00
             352.07,358.18 350.18,356.17 350.71,352.00
             350.73,349.77 351.94,347.45 350.71,345.27
             350.03,343.52 347.84,342.63 346.73,341.32
             344.93,339.20 344.83,335.71 345.05,333.04
             345.72,324.88 351.35,331.11 360.00,325.00 Z" />
  <path id="Pulilan"
        fill="none" stroke="black" stroke-width="1"
        d="M 259.00,457.00
           C 258.97,446.80 255.63,441.38 252.34,432.00
             251.47,429.52 248.83,423.75 250.12,421.43
             253.41,415.55 269.47,422.06 272.69,420.08
             276.25,417.89 276.20,406.46 279.70,402.28
             283.27,398.00 296.56,397.91 302.00,398.00
             304.14,398.04 306.49,397.91 308.11,399.57
             310.76,402.29 309.96,410.25 310.00,414.00
             310.08,420.14 314.17,432.32 320.59,434.48
             323.24,435.37 324.31,432.86 329.00,435.16
             329.00,435.16 344.00,444.94 344.00,444.94
             344.00,444.94 355.00,451.00 355.00,451.00
             355.00,451.00 340.00,451.00 340.00,451.00
             340.03,454.82 342.23,465.74 339.40,467.98
             337.76,469.28 333.11,469.02 331.00,469.00
             328.15,468.96 324.90,469.09 323.00,466.57
             321.80,464.97 321.92,462.49 319.69,461.02
             317.72,459.73 313.36,459.99 311.00,460.00
             301.08,460.04 296.90,463.72 293.18,462.36
             289.01,460.84 287.85,453.75 282.98,452.99
             280.20,452.55 276.41,455.40 273.00,456.37
             269.73,457.29 262.69,457.00 259.00,457.00 Z" />
  <path id="Plaridel"
        fill="none" stroke="black" stroke-width="1"
        d="M 358.00,433.00
           C 362.20,433.00 375.80,432.10 378.26,435.56
             380.36,438.53 375.57,441.97 374.45,445.00
             372.96,449.05 376.51,451.18 375.21,454.76
             374.33,457.17 370.73,458.27 367.06,463.00
             374.45,468.59 364.37,474.60 367.06,480.99
             369.36,486.22 376.18,487.11 381.00,496.00
             370.00,496.25 362.15,501.71 350.00,501.99
             341.42,502.18 326.62,499.61 318.00,497.79
             318.00,497.79 306.01,495.41 306.01,495.41
             299.93,493.04 293.62,479.15 287.00,476.42
             282.33,474.50 280.16,478.83 274.00,479.79
             257.81,482.30 259.00,470.04 259.00,458.77
             264.19,460.26 267.90,460.47 273.00,458.77
             275.53,457.58 280.46,454.58 282.90,454.99
             287.06,455.68 288.08,462.75 293.04,464.54
             296.42,465.76 301.55,463.25 305.00,462.52
             308.63,461.75 315.98,462.00 320.00,462.00
             320.14,464.30 320.10,466.64 321.74,468.59
             324.86,472.02 338.32,472.27 341.45,468.59
             344.50,465.20 342.35,457.37 342.00,453.16
             342.00,453.16 353.00,453.16 353.00,453.16
             362.22,450.50 359.23,439.75 358.00,433.00 Z" />
  <path id="Bustos"
        fill="none" stroke="black" stroke-width="1"
        d="M 358.00,430.00
           C 364.49,416.70 366.61,417.21 373.05,400.00
             374.38,396.45 377.20,387.92 380.34,386.03
             382.83,384.52 388.90,385.80 392.00,386.03
             397.07,386.39 399.26,387.50 404.00,388.86
             413.40,391.55 426.73,394.45 430.30,405.00
             432.32,410.95 428.61,428.51 428.00,436.00
             412.74,436.85 409.42,450.44 400.00,456.40
             395.55,459.22 391.35,457.02 384.00,459.06
             379.21,460.38 375.94,464.19 372.00,467.00
             372.00,467.00 370.00,461.00 370.00,461.00
             373.35,459.31 377.77,457.48 377.56,453.00
             377.44,450.52 375.57,448.68 376.31,446.00
             377.36,442.27 384.51,438.38 378.84,433.51
             374.02,429.37 365.41,432.11 358.00,430.00 Z" />
  <path id="Angat"
        fill="none" stroke="black" stroke-width="1"
        d="M 542.00,362.00
           C 544.17,369.77 537.15,374.01 534.89,380.00
             534.15,381.96 534.07,383.94 534.01,386.00
             533.77,396.06 536.30,397.16 542.13,405.00
             544.60,408.33 548.00,411.74 545.38,415.96
             543.09,419.66 526.81,430.38 522.00,434.44
             516.61,438.98 512.45,444.04 508.71,450.00
             506.51,453.50 505.18,457.92 501.89,460.49
             496.25,464.91 482.47,463.93 478.27,457.89
             474.39,452.32 475.00,447.37 475.00,441.00
             468.06,444.28 459.93,455.68 453.04,454.33
             446.44,453.03 445.72,443.72 443.16,440.13
             439.95,435.63 434.91,436.01 430.00,436.00
             430.00,436.00 433.01,414.00 433.01,414.00
             433.33,409.35 432.03,405.34 436.15,402.10
             438.53,400.23 442.90,398.02 446.00,398.78
             450.60,399.48 459.14,409.58 466.00,398.78
             467.10,397.26 467.44,395.88 468.00,394.00
             468.00,394.00 492.00,392.17 492.00,392.17
             495.33,391.85 498.88,392.27 501.96,390.69
             509.26,386.95 509.38,376.06 514.39,371.51
             518.16,368.07 536.14,363.95 542.00,362.00 Z" />
  <path id="Norzagaray"
        fill="none" stroke="black" stroke-width="1"
        d="M 574.00,408.81
           C 576.05,409.01 580.72,409.32 582.42,408.81
             585.20,407.47 587.91,403.54 591.96,403.37
             596.37,403.18 597.49,407.80 603.00,405.68
             606.77,404.24 611.49,399.28 615.00,396.79
             621.16,392.40 621.73,393.57 626.96,391.46
             626.96,391.46 635.02,387.31 635.02,387.31
             638.51,385.62 640.04,383.30 642.17,382.70
             645.20,381.84 657.11,387.68 658.43,390.42
             659.14,391.89 659.00,395.29 659.00,397.00
             659.01,401.52 659.44,407.81 658.05,412.00
             658.05,412.00 647.98,434.00 647.98,434.00
             646.90,437.32 646.10,441.79 648.57,444.69
             650.15,446.54 652.80,447.19 655.00,448.00
             650.93,454.42 648.29,451.15 644.51,455.30
             641.58,458.52 641.85,463.11 640.73,467.00
             639.46,471.35 636.47,473.14 635.61,476.00
             634.85,478.52 636.24,480.58 636.71,483.00
             637.84,488.76 635.98,491.81 643.00,494.00
             643.00,497.76 642.28,505.88 644.60,508.76
             647.07,511.82 657.65,511.64 659.25,507.85
             660.66,504.50 658.47,500.92 657.00,498.00
             669.15,495.98 658.72,488.19 654.00,485.00
             655.81,482.50 657.79,479.60 661.00,478.84
             663.24,478.31 665.25,479.65 667.61,478.14
             670.01,476.60 670.37,473.36 674.10,471.43
             676.79,470.04 681.30,470.07 683.48,467.74
             686.42,464.57 681.13,462.83 679.53,459.63
             675.98,452.51 681.15,446.60 669.00,439.00
             669.00,439.00 681.00,435.47 681.00,435.47
             681.00,435.47 726.00,439.83 726.00,439.83
             726.00,439.83 802.00,447.17 802.00,447.17
             802.00,447.17 823.00,449.17 823.00,449.17
             823.00,449.17 842.00,451.00 842.00,451.00
             842.00,454.38 841.68,465.03 839.98,467.58
             838.77,469.40 830.56,473.09 828.00,474.60
             828.00,474.60 798.00,492.24 798.00,492.24
             793.02,494.78 790.15,495.88 786.09,500.04
             779.41,506.90 776.27,516.47 763.00,522.68
             745.24,530.99 716.87,528.16 701.00,532.49
             687.35,536.22 674.78,551.12 661.04,549.95
             655.30,549.46 656.46,545.84 655.32,541.00
             654.39,537.04 652.70,533.20 649.79,530.30
             648.24,528.75 645.44,526.43 643.09,526.74
             640.15,527.13 638.23,531.80 633.04,530.67
             629.36,529.87 617.61,515.08 609.00,517.64
             606.97,518.24 603.87,520.73 602.00,522.00
             598.66,518.67 589.04,508.99 584.09,509.38
             581.47,509.59 580.16,512.08 576.96,513.51
             572.85,515.50 564.18,515.25 560.09,513.51
             552.35,510.02 552.68,498.94 539.00,498.09
             521.08,496.99 527.15,508.27 508.00,514.00
             508.00,514.00 503.44,503.99 503.44,503.99
             503.44,503.99 502.35,471.00 502.35,471.00
             502.35,471.00 499.00,464.00 499.00,464.00
             507.21,460.71 508.52,452.67 513.48,446.00
             524.52,431.13 535.26,428.59 544.95,418.91
             549.63,414.24 548.60,412.97 550.92,409.00
             550.92,409.00 555.26,403.00 555.26,403.00
             558.13,399.02 563.81,390.18 569.89,391.78
             575.41,393.24 574.00,404.53 574.00,408.81 Z" />
  <path id="Meycauayan"
        fill="none" stroke="black" stroke-width="1"
        d="M 415.00,638.00
           C 431.71,635.38 453.82,614.01 467.28,603.41
             472.05,599.67 483.73,590.93 485.89,602.00
             485.89,602.00 485.89,608.00 485.89,608.00
             485.89,608.00 495.00,609.00 495.00,609.00
             495.00,609.00 484.00,611.77 484.00,611.77
             472.25,614.54 468.17,614.02 459.00,623.01
             457.38,624.61 454.80,627.15 453.58,629.00
             451.37,632.37 451.74,635.24 450.49,637.83
             449.10,640.72 446.50,642.13 445.02,645.01
             443.62,647.73 444.41,650.21 442.43,651.84
             440.98,653.03 436.89,653.63 435.00,653.76
             432.94,654.05 427.88,654.44 426.09,653.76
             422.12,652.04 416.31,642.10 415.00,638.00 Z" />
  <path id="San Jose Del Monte"
        fill="none" stroke="black" stroke-width="1"
        d="M 654.00,550.00
           C 649.70,550.20 646.55,550.45 643.04,553.30
             639.92,555.83 637.93,559.64 635.68,560.72
             632.56,562.22 630.06,559.59 627.00,559.95
             623.92,560.30 620.23,563.87 618.17,566.04
             609.68,574.99 594.84,594.14 584.00,598.52
             580.71,599.85 578.46,599.95 575.00,600.00
             569.48,600.06 551.50,599.77 547.00,598.30
             542.72,596.91 534.66,590.22 522.00,586.44
             519.05,585.56 515.05,584.46 512.00,584.51
             508.90,584.76 504.49,586.79 501.96,584.51
             499.88,582.46 498.45,576.73 494.68,572.04
             492.96,569.90 490.25,567.92 490.36,564.91
             490.56,559.06 501.00,552.38 503.72,546.83
             505.50,543.20 504.80,538.91 505.09,535.00
             505.09,535.00 509.56,517.42 509.56,517.42
             511.20,514.25 514.14,515.57 519.96,509.95
             522.81,507.19 525.30,503.21 529.01,501.74
             533.64,499.91 543.85,499.99 547.83,503.31
             552.86,507.51 554.73,514.19 562.00,516.28
             565.87,517.39 573.34,517.40 577.00,515.69
             579.91,514.33 582.07,511.72 585.00,511.73
             590.36,511.75 598.84,521.79 601.96,522.55
             605.71,523.46 606.76,518.71 612.00,519.45
             626.33,521.46 630.95,542.29 642.00,528.00
             652.39,531.54 653.91,540.27 654.00,550.00 Z" />
  <path id="Marilao"
        fill="none" stroke="black" stroke-width="1"
        d="M 436.00,587.00
           C 449.21,579.07 448.93,581.03 464.00,581.00
             467.12,580.99 470.05,581.31 472.72,579.40
             475.75,577.23 480.27,569.83 486.00,569.28
             490.87,568.82 494.15,573.13 496.10,577.00
             500.85,586.44 500.00,595.64 500.00,606.00
             500.00,606.00 488.00,606.00 488.00,606.00
             487.95,603.99 487.98,601.96 487.35,600.02
             485.42,594.06 481.18,593.39 476.00,595.82
             470.26,598.52 460.48,607.46 456.00,608.00
             453.43,613.41 450.55,615.16 446.00,618.80
             439.45,624.05 424.34,635.20 416.00,635.96
             411.43,636.37 410.25,633.37 407.00,633.24
             403.55,633.11 400.33,637.40 397.60,635.26
             394.00,632.45 398.46,624.93 398.31,622.00
             398.12,618.30 394.81,616.65 392.00,615.00
             398.03,603.90 405.38,608.76 415.00,605.46
             417.80,604.49 425.28,599.33 428.00,597.41
             432.64,594.13 435.32,592.93 436.00,587.00 Z" />
  <path id="Pandi"
        fill="none" stroke="black" stroke-width="1"
        d="M 390.00,513.81
           C 388.54,507.13 386.71,508.07 384.31,503.00
             382.13,498.41 384.13,496.11 379.77,491.04
             375.51,486.06 369.00,483.74 368.64,478.99
             368.15,472.56 378.10,462.66 384.00,461.30
             388.95,460.16 395.56,461.21 400.00,458.40
             410.86,451.52 413.43,438.21 429.00,438.00
             432.69,437.96 438.51,437.52 441.16,440.51
             443.60,443.26 445.01,454.81 453.00,456.33
             459.36,457.53 468.04,447.55 473.00,444.00
             473.01,447.71 472.83,450.44 474.21,454.00
             475.09,456.27 477.39,459.55 477.01,461.94
             476.17,467.25 469.92,464.33 465.90,472.02
             465.90,472.02 460.74,483.00 460.74,483.00
             460.74,483.00 455.27,493.00 455.27,493.00
             454.28,494.98 452.48,499.87 451.16,501.15
             448.58,503.65 440.94,503.88 437.00,505.33
             430.49,507.72 423.90,512.15 417.00,513.81
             417.00,513.81 390.00,513.81 390.00,513.81 Z" />
  <path id="Sta. Maria"
        fill="none" stroke="black" stroke-width="1"
        d="M 390.00,515.81
           C 390.00,515.81 417.00,515.81 417.00,515.81
             424.03,514.12 430.31,509.68 437.00,507.41
             441.77,505.79 449.02,506.12 452.50,502.57
             454.52,500.52 456.01,495.76 457.32,493.00
             457.32,493.00 464.74,479.00 464.74,479.00
             465.72,476.98 467.70,471.93 468.99,470.56
             468.99,470.56 480.00,464.57 480.00,464.57
             482.29,463.63 484.69,464.56 487.00,464.57
             491.96,465.38 496.63,463.69 499.43,469.06
             502.02,474.03 500.93,492.44 501.00,499.00
             501.16,512.27 505.62,508.31 505.98,517.00
             506.43,527.93 503.27,523.78 503.00,539.00
             502.74,553.23 488.75,554.18 488.00,567.00
             477.48,568.22 476.96,575.91 470.83,578.40
             468.31,579.43 455.61,578.96 452.00,579.00
             442.23,579.13 442.49,582.52 434.00,585.00
             428.88,576.09 414.43,561.07 415.12,551.00
             415.66,543.13 422.02,539.85 422.62,532.00
             422.96,530.42 422.87,528.54 422.62,527.00
             420.95,521.84 417.61,520.43 413.00,523.15
             407.88,526.17 401.35,535.21 395.22,533.69
             390.71,532.57 390.18,519.98 390.00,515.81 Z" />
  <path id="Obando"
        fill="none" stroke="black" stroke-width="1"
        d="M 378.00,617.00
           C 382.82,617.00 395.81,615.25 396.36,622.04
             396.60,624.96 393.87,628.85 393.95,632.00
             394.04,635.21 396.27,636.83 396.07,640.00
             395.83,643.59 391.99,646.78 394.02,651.96
             395.44,655.58 401.53,660.18 404.47,664.00
             410.03,671.20 412.80,680.10 414.00,689.00
             405.93,686.43 400.04,679.71 394.00,674.09
             394.00,674.09 373.99,655.41 373.99,655.41
             373.99,655.41 371.83,639.00 371.83,639.00
             371.47,637.12 370.08,633.51 370.23,632.00
             370.68,627.33 375.57,627.20 378.00,617.00 Z" />
  <path id="Bocaue"
        fill="none" stroke="black" stroke-width="1"
        d="M 394.00,537.00
           C 402.60,535.57 404.50,531.56 411.00,526.68
             412.79,525.34 416.10,522.78 418.44,524.13
             420.75,525.46 421.04,530.68 420.65,533.00
             419.50,539.87 411.27,546.79 412.73,554.00
             413.85,559.52 422.54,572.16 426.26,576.72
             428.26,579.18 433.81,585.92 433.70,588.96
             433.57,592.62 424.95,597.66 422.00,599.58
             419.43,601.24 416.01,603.61 413.09,604.37
             409.91,605.20 403.18,604.48 399.00,606.03
             393.56,608.04 392.45,612.25 388.91,613.85
             387.16,614.41 380.35,614.00 378.00,613.85
             378.00,613.85 371.59,591.00 371.59,591.00
             371.59,591.00 375.42,580.00 375.42,580.00
             375.42,580.00 384.26,557.00 384.26,557.00
             384.26,557.00 394.00,537.00 394.00,537.00 Z" />
  <path id="Balagtas"
        fill="none" stroke="black" stroke-width="1"
        d="M 369.00,500.00
           C 369.00,500.00 381.00,498.00 381.00,498.00
             381.00,498.00 386.97,511.00 386.97,511.00
             386.97,511.00 388.44,523.00 388.44,523.00
             388.44,523.00 391.29,538.00 391.29,538.00
             391.29,538.00 382.76,556.00 382.76,556.00
             382.76,556.00 370.00,589.00 370.00,589.00
             367.42,587.15 365.27,585.32 363.21,583.00
             350.19,569.25 360.12,557.85 363.21,543.00
             363.21,543.00 369.00,500.00 369.00,500.00 Z" />
  <path id="Bulakan"
        fill="none" stroke="black" stroke-width="1"
        d="M 288.00,574.00
           C 296.46,575.80 299.26,582.80 303.98,582.10
             309.65,581.26 309.34,573.08 311.82,569.42
             313.34,567.18 325.19,554.18 327.17,552.98
             329.48,551.58 335.23,550.43 338.00,550.00
             343.95,558.35 345.00,559.99 355.00,560.00
             355.00,564.56 354.33,573.14 356.31,577.00
             358.28,580.84 363.55,585.20 366.47,589.00
             371.10,595.00 376.69,609.37 375.81,617.00
             374.40,629.37 363.39,628.86 360.75,636.02
             358.31,642.65 367.40,651.76 357.98,655.89
             354.94,657.22 348.28,654.54 345.00,653.58
             327.48,648.45 323.02,643.52 314.90,627.00
             311.53,620.14 315.57,618.47 313.27,615.74
             311.58,613.72 307.91,614.45 305.00,612.98
             299.60,610.25 293.96,599.83 288.62,610.04
             288.62,610.04 287.00,614.00 287.00,614.00
             284.24,610.44 281.33,604.58 282.71,600.00
             283.73,596.64 287.56,592.53 287.35,589.05
             287.06,584.36 280.06,584.23 281.34,580.10
             281.84,578.47 286.25,575.81 288.00,574.00 Z
           M 357.04,600.45
           C 350.27,603.25 347.80,610.03 338.00,609.15
             333.26,608.72 324.55,600.32 321.02,604.61
             317.77,608.57 322.59,618.90 331.00,621.02
             333.44,621.64 337.62,621.75 339.40,623.59
             342.16,626.46 339.32,630.48 341.21,633.58
             342.56,635.80 346.37,637.03 348.79,636.17
             353.47,634.50 352.70,627.13 355.56,624.64
             358.70,621.90 364.36,626.06 366.43,618.96
             367.92,613.84 365.07,611.68 364.20,608.83
             362.78,604.22 365.30,599.80 357.04,600.45 Z" />
  <path id="Calumpit"
        fill="none" stroke="black" stroke-width="1"
        d="M 188.00,420.00
           C 200.18,416.54 204.76,424.72 217.00,427.33
             228.28,429.74 236.84,426.06 247.00,422.00
             247.00,422.00 256.77,450.00 256.77,450.00
             257.22,453.64 257.02,461.92 256.77,466.00
             256.94,476.12 254.68,471.89 244.00,482.04
             235.20,490.40 237.47,490.49 226.00,490.00
             226.00,490.00 226.00,485.00 226.00,485.00
             226.00,485.00 195.00,485.00 195.00,485.00
             178.47,485.09 182.29,495.94 163.00,496.00
             163.96,492.58 168.29,477.14 169.70,475.29
             169.70,475.29 178.87,466.91 178.87,466.91
             183.50,462.04 193.06,445.74 193.81,439.00
             194.59,432.01 189.83,426.43 188.00,420.00 Z" />
  <path id="Guiguinto"
        fill="none" stroke="black" stroke-width="1"
        d="M 316.00,500.00
           C 316.00,500.00 346.00,504.00 346.00,504.00
             354.82,504.10 358.52,503.45 367.00,501.00
             367.00,501.00 364.28,520.00 364.28,520.00
             364.28,520.00 360.58,546.00 360.58,546.00
             359.20,552.15 357.92,558.93 350.00,557.85
             344.36,557.08 342.45,551.96 338.71,549.40
             334.51,546.53 330.88,550.70 327.98,547.40
             326.88,546.14 324.22,536.25 323.58,534.00
             323.58,534.00 316.00,500.00 316.00,500.00 Z" />
  <path id="Malolos"
        fill="none" stroke="black" stroke-width="1"
        d="M 253.00,596.00
           C 259.45,588.07 253.79,588.45 254.92,583.13
             255.50,580.39 258.20,579.83 259.40,576.87
             260.11,575.13 259.97,571.99 260.17,570.00
             260.17,570.00 261.60,553.06 261.60,553.06
             260.72,548.57 257.17,550.18 255.14,545.87
             252.47,540.18 253.65,531.60 252.07,528.01
             248.96,521.01 244.18,523.65 244.00,514.00
             243.95,510.79 244.55,502.86 242.98,500.39
             240.94,497.19 234.46,496.33 236.17,492.24
             236.78,490.78 239.79,488.14 241.00,486.96
             244.14,483.92 252.36,475.35 257.00,475.99
             260.99,476.54 263.26,481.89 269.00,482.76
             276.60,483.92 281.25,476.67 286.00,478.24
             290.45,479.72 297.59,490.25 301.17,493.96
             307.88,500.92 310.01,496.50 313.15,500.33
             315.14,502.75 316.13,511.56 316.80,515.00
             316.80,515.00 321.42,534.00 321.42,534.00
             321.42,534.00 324.54,545.00 324.54,545.00
             326.55,556.60 313.38,562.37 309.17,570.09
             307.48,573.18 307.72,581.76 301.98,579.85
             298.39,578.65 293.85,572.17 289.00,572.77
             285.70,573.18 278.28,578.01 279.34,581.96
             280.12,584.88 283.48,586.14 286.00,587.00
             286.00,587.00 280.32,602.00 280.32,602.00
             280.32,602.00 283.00,613.00 283.00,613.00
             267.80,609.57 272.93,609.00 257.00,612.00
             258.12,604.76 256.51,602.22 253.00,596.00 Z
           M 261.02,525.47
           C 250.30,529.73 254.08,539.39 262.00,544.40
             265.41,546.56 267.50,545.60 271.00,546.41
             273.68,547.03 276.33,548.88 278.79,548.13
             283.15,546.80 283.53,540.29 281.40,537.04
             277.82,531.58 267.69,524.99 261.02,525.47 Z" />
  <path id="Paombong"
        fill="none" stroke="black" stroke-width="1"
        d="M 226.00,492.00
           C 227.61,492.10 229.26,492.06 230.76,492.74
             232.00,493.29 240.92,501.10 241.40,502.21
             242.34,504.38 241.95,512.19 242.00,515.00
             242.20,525.49 248.67,521.98 250.69,530.00
             252.33,536.55 249.01,549.18 260.00,551.00
             260.00,551.00 257.57,574.91 257.57,574.91
             257.57,574.91 252.00,585.00 252.00,585.00
             244.84,579.27 242.55,567.30 236.00,569.40
             231.18,570.94 226.93,579.81 221.02,576.35
             212.98,571.64 220.06,564.10 217.69,555.04
             216.04,548.75 209.07,549.76 208.16,542.98
             207.81,540.35 208.78,534.45 209.99,532.09
             210.98,530.15 212.81,528.66 212.81,527.04
             212.81,524.47 207.91,522.95 209.62,518.04
             211.49,512.64 222.08,509.00 224.40,506.37
             226.79,503.65 226.00,495.65 226.00,492.00 Z
           M 214.00,612.00
           C 214.00,612.00 211.61,609.00 211.61,609.00
             207.00,601.08 218.04,603.09 221.57,599.57
             223.83,597.31 225.06,584.94 232.78,589.78
             233.88,590.47 234.23,591.17 235.00,592.00
             233.57,592.87 231.68,593.73 230.82,595.27
             228.41,599.63 236.74,604.75 240.00,606.08
             244.74,608.01 250.32,606.35 255.00,605.00
             255.00,605.00 254.00,614.00 254.00,614.00
             252.29,613.04 248.29,610.33 246.58,610.21
             243.42,610.00 241.53,613.35 236.00,612.66
             225.94,611.39 226.40,606.49 214.00,612.00 Z" />
  <path id="Hagonoy"
        fill="none" stroke="black" stroke-width="1"
        d="M 143.00,548.00
           C 141.49,544.72 138.34,541.50 139.22,538.00
             139.22,538.00 149.58,519.00 149.58,519.00
             151.41,515.81 159.47,501.16 161.37,499.61
             164.46,497.11 166.80,499.34 173.00,496.64
             173.00,496.64 188.00,487.70 188.00,487.70
             191.00,486.70 197.58,487.00 201.00,487.00
             201.00,487.00 224.00,487.00 224.00,487.00
             224.00,490.59 224.60,502.06 222.98,504.61
             220.69,508.22 196.97,517.22 211.00,526.00
             211.00,526.00 211.00,528.00 211.00,528.00
             206.73,532.10 203.87,541.55 207.60,546.90
             210.19,550.61 214.58,551.14 215.71,555.18
             217.14,560.29 214.44,569.97 214.94,571.96
             215.53,574.27 219.32,577.81 221.00,580.00
             221.00,580.00 212.70,591.00 212.70,591.00
             212.70,591.00 211.42,599.00 211.42,599.00
             211.42,599.00 208.65,607.00 208.65,607.00
             208.65,607.00 212.00,614.14 212.00,614.14
             212.00,614.14 208.00,614.14 208.00,614.14
             208.00,614.14 184.00,604.00 184.00,604.00
             191.56,597.53 189.09,592.53 182.91,586.02
             181.22,584.23 177.83,580.73 175.15,581.03
             171.46,581.44 171.93,587.44 172.30,590.00
             172.54,591.65 172.99,593.43 173.55,595.00
             174.67,598.15 176.44,601.05 178.00,604.00
             160.86,603.99 152.51,596.80 141.00,596.09
             141.00,596.09 130.00,596.68 130.00,596.68
             119.70,595.91 122.06,596.11 112.00,598.00
             113.51,588.36 119.79,580.30 127.00,574.00
             127.00,574.00 128.00,578.00 128.00,578.00
             142.17,578.05 134.16,583.15 146.00,582.00
             146.00,569.28 146.68,575.11 148.61,566.00
             148.61,566.00 149.21,560.00 149.21,560.00
             149.73,556.46 151.48,554.05 150.52,551.82
             149.22,548.81 145.83,548.33 143.00,548.00 Z" />
</svg>
