<?xml version="1.0" encoding="UTF-8" standalone="no"?>
<!DOCTYPE svg PUBLIC "-//W3C//DTD SVG 20010904//EN"
              "http://www.w3.org/TR/2001/REC-SVG-20010904/DTD/svg10.dtd">

<svg xmlns="http://www.w3.org/2000/svg"
     width="39.4306in" height="31.5417in"
     viewBox="0 0 2839 2271">
  <path id="Mercedes"
        fill="none" stroke="black" stroke-width="1"
        d="M 2426.01,1237.65
           C 2431.00,1236.61 2439.22,1236.50 2444.00,1238.34
             2450.45,1240.81 2452.20,1244.15 2456.46,1248.83
             2460.38,1253.13 2461.74,1253.31 2465.29,1259.00
             2469.14,1265.18 2472.95,1281.76 2472.49,1289.00
             2472.49,1289.00 2471.16,1302.00 2471.16,1302.00
             2470.09,1312.03 2470.08,1326.88 2458.00,1330.28
             2447.13,1333.34 2440.33,1321.47 2435.00,1314.00
             2425.92,1301.27 2424.62,1300.95 2419.98,1286.00
             2418.07,1279.86 2417.08,1278.71 2417.00,1272.00
             2417.00,1272.00 2417.00,1253.00 2417.00,1253.00
             2417.05,1245.64 2418.91,1240.77 2426.01,1237.65 Z
           M 2198.00,1370.00
           C 2202.55,1368.89 2199.54,1368.05 2207.00,1368.00
             2207.00,1368.00 2246.00,1368.00 2246.00,1368.00
             2255.33,1367.82 2254.02,1363.90 2254.00,1354.00
             2254.00,1352.03 2254.12,1348.88 2253.40,1347.09
             2251.72,1342.91 2241.09,1337.73 2237.00,1335.19
             2228.85,1330.13 2206.07,1313.64 2200.51,1306.96
             2195.02,1300.36 2187.52,1290.81 2193.01,1282.04
             2195.68,1277.77 2203.48,1273.07 2208.00,1270.76
             2213.11,1268.14 2226.53,1261.08 2232.04,1262.03
             2234.10,1262.39 2236.92,1264.05 2239.00,1264.91
             2255.46,1271.73 2252.80,1272.00 2267.00,1280.40
             2277.21,1286.43 2278.13,1284.97 2285.00,1288.37
             2287.12,1289.43 2290.41,1291.14 2291.43,1293.38
             2292.25,1295.17 2292.02,1301.73 2292.00,1304.00
             2291.94,1308.76 2291.30,1315.00 2288.35,1318.90
             2285.22,1323.03 2280.81,1323.65 2279.03,1330.00
             2277.79,1334.40 2279.25,1341.56 2284.00,1343.00
             2284.38,1346.32 2285.22,1347.25 2288.03,1349.21
             2293.44,1353.00 2298.29,1351.25 2302.68,1346.79
             2311.16,1338.16 2315.32,1319.85 2318.00,1308.01
             2322.64,1307.62 2330.81,1305.88 2334.99,1308.01
             2343.02,1312.14 2345.86,1325.22 2352.30,1330.49
             2355.56,1333.16 2363.77,1333.89 2368.00,1333.99
             2372.74,1334.09 2384.09,1331.59 2387.18,1334.74
             2389.46,1337.06 2390.78,1347.46 2391.42,1351.00
             2391.42,1351.00 2395.83,1381.00 2395.83,1381.00
             2395.83,1381.00 2396.62,1393.00 2396.62,1393.00
             2398.51,1402.75 2404.51,1403.87 2404.56,1410.00
             2404.57,1412.20 2399.81,1430.02 2398.70,1431.70
             2396.61,1434.87 2392.36,1434.76 2389.00,1435.07
             2389.00,1435.07 2368.00,1437.80 2368.00,1437.80
             2360.94,1440.05 2360.80,1444.43 2355.00,1448.00
             2351.58,1445.25 2348.15,1444.76 2344.00,1443.58
             2337.37,1441.69 2324.29,1437.04 2318.00,1438.00
             2316.99,1436.00 2316.07,1436.68 2314.00,1437.00
             2312.99,1435.00 2312.07,1435.68 2310.00,1436.00
             2310.00,1436.00 2307.00,1435.00 2307.00,1435.00
             2305.99,1433.00 2305.07,1433.68 2303.00,1434.00
             2301.98,1430.17 2297.74,1426.89 2295.08,1424.00
             2290.93,1419.49 2278.63,1405.12 2273.96,1402.93
             2271.25,1401.66 2269.86,1401.75 2267.00,1402.00
             2265.93,1399.35 2264.61,1399.84 2262.00,1400.00
             2262.00,1400.00 2259.00,1399.00 2259.00,1399.00
             2257.93,1396.52 2256.49,1396.97 2254.00,1397.00
             2252.67,1393.73 2249.11,1393.81 2246.00,1394.00
             2244.89,1391.27 2241.65,1390.66 2239.00,1389.68
             2232.51,1387.28 2223.76,1382.42 2217.00,1383.00
             2215.93,1380.35 2214.61,1380.84 2212.00,1381.00
             2212.00,1381.00 2209.00,1380.00 2209.00,1380.00
             2209.00,1380.00 2210.00,1378.00 2210.00,1378.00
             2210.00,1378.00 2207.00,1379.00 2207.00,1379.00
             2207.00,1379.00 2204.00,1378.00 2204.00,1378.00
             2202.90,1375.19 2200.78,1375.03 2198.00,1375.00
             2198.00,1375.00 2198.00,1370.00 2198.00,1370.00 Z
           M 2553.00,1367.02
           C 2558.95,1365.03 2563.56,1365.92 2569.00,1368.86
             2581.67,1375.73 2582.65,1379.40 2597.00,1384.57
             2606.44,1387.97 2618.91,1388.74 2625.69,1396.43
             2630.18,1401.53 2627.59,1415.27 2621.81,1418.69
             2619.22,1420.22 2605.60,1420.99 2602.00,1421.00
             2586.88,1421.02 2581.02,1421.05 2566.00,1417.37
             2562.18,1416.44 2557.28,1415.95 2554.00,1413.99
             2536.95,1403.84 2536.54,1377.98 2553.00,1367.02 Z
           M 2478.00,1406.51
           C 2480.97,1406.45 2486.37,1406.70 2489.00,1408.02
             2499.61,1413.34 2500.98,1427.82 2498.37,1438.00
             2496.41,1445.67 2493.35,1455.29 2484.00,1455.94
             2480.37,1456.19 2477.40,1455.44 2474.00,1454.33
             2463.97,1451.06 2461.62,1447.10 2457.39,1438.00
             2452.87,1429.32 2450.76,1423.62 2457.39,1415.18
             2462.91,1408.70 2470.25,1407.41 2478.00,1406.51 Z
           M 2577.00,1487.46
           C 2585.21,1486.33 2597.89,1489.43 2601.03,1498.00
             2602.81,1502.86 2601.33,1507.73 2602.60,1510.91
             2604.04,1514.51 2607.96,1515.49 2609.40,1519.09
             2609.98,1520.55 2609.97,1522.45 2610.00,1524.00
             2610.12,1530.94 2610.24,1546.05 2605.19,1551.28
             2603.46,1553.07 2598.47,1554.10 2596.00,1554.29
             2589.38,1555.71 2586.94,1554.31 2581.00,1554.29
             2581.00,1554.29 2563.00,1552.59 2563.00,1552.59
             2560.47,1551.97 2558.27,1550.53 2556.00,1549.31
             2545.54,1543.66 2542.09,1537.10 2538.66,1526.00
             2536.98,1520.57 2534.45,1510.20 2537.43,1505.05
             2541.19,1498.57 2549.82,1499.24 2556.00,1496.98
             2562.05,1494.76 2563.66,1490.43 2577.00,1487.46 Z
           M 2338.00,1586.00
           C 2338.00,1586.00 2356.00,1584.08 2356.00,1584.08
             2356.00,1584.08 2366.00,1584.08 2366.00,1584.08
             2368.32,1584.00 2371.78,1583.86 2373.91,1584.74
             2378.06,1586.45 2386.29,1598.83 2388.95,1603.00
             2399.51,1619.59 2413.38,1643.32 2427.00,1657.00
             2435.85,1665.89 2441.57,1673.86 2454.00,1677.49
             2458.72,1678.86 2461.40,1678.71 2466.00,1679.17
             2474.93,1680.06 2490.13,1682.28 2496.99,1688.09
             2510.62,1699.65 2513.40,1716.23 2519.60,1732.00
             2521.34,1736.43 2525.38,1746.53 2523.90,1751.00
             2522.15,1756.29 2505.28,1772.03 2504.25,1782.00
             2503.40,1790.18 2510.52,1794.34 2511.78,1801.00
             2513.85,1812.00 2512.94,1833.88 2513.00,1846.00
             2513.07,1860.43 2517.06,1878.34 2524.03,1891.00
             2527.30,1896.93 2538.02,1906.81 2538.93,1912.00
             2539.29,1913.45 2539.00,1917.41 2538.93,1919.00
             2537.02,1936.21 2528.59,1928.37 2529.01,1947.00
             2529.23,1956.40 2530.88,1961.94 2541.00,1964.00
             2539.28,1971.10 2540.97,1973.98 2541.00,1981.00
             2541.00,1981.00 2540.03,1996.00 2540.03,1996.00
             2539.89,1998.62 2539.33,2007.77 2537.98,2009.60
             2536.31,2011.86 2533.81,2010.80 2530.00,2011.72
             2526.14,2012.65 2522.29,2014.84 2519.97,2018.10
             2515.66,2024.17 2512.50,2039.90 2504.98,2042.36
             2494.03,2045.95 2483.63,2022.12 2472.32,2033.23
             2472.32,2033.23 2458.58,2053.00 2458.58,2053.00
             2458.58,2053.00 2443.63,2074.00 2443.63,2074.00
             2439.89,2079.00 2434.35,2085.98 2432.72,2092.00
             2431.45,2096.17 2432.01,2102.74 2432.72,2107.00
             2433.53,2110.85 2433.61,2113.81 2436.00,2117.00
             2436.00,2117.00 2436.54,2130.00 2436.54,2130.00
             2436.54,2130.00 2433.00,2144.00 2433.00,2144.00
             2433.00,2144.00 2388.00,2108.80 2388.00,2108.80
             2388.00,2108.80 2334.00,2065.57 2334.00,2065.57
             2334.00,2065.57 2298.00,2036.55 2298.00,2036.55
             2298.00,2036.55 2277.00,2020.00 2277.00,2020.00
             2279.81,2013.41 2285.29,2008.45 2289.80,2003.00
             2292.12,2000.21 2293.70,1996.55 2297.10,1995.01
             2297.10,1995.01 2324.00,1990.73 2324.00,1990.73
             2324.00,1990.73 2347.00,1987.11 2347.00,1987.11
             2349.92,1986.38 2353.91,1985.99 2355.00,1983.00
             2358.15,1983.20 2361.78,1983.39 2363.00,1980.00
             2365.74,1980.24 2366.98,1980.82 2368.00,1978.00
             2370.48,1978.15 2371.60,1978.28 2374.00,1977.24
             2389.17,1970.61 2372.72,1959.68 2367.00,1953.99
             2365.80,1952.79 2363.46,1950.48 2362.74,1949.00
             2361.11,1945.66 2364.15,1943.95 2365.00,1941.00
             2365.00,1941.00 2382.00,1940.00 2382.00,1940.00
             2383.14,1942.51 2391.92,1942.85 2394.17,1941.49
             2395.17,1940.89 2394.79,1940.54 2395.00,1940.00
             2400.34,1941.05 2402.69,1940.44 2406.98,1936.95
             2419.96,1926.40 2415.17,1913.95 2415.00,1900.00
             2415.00,1900.00 2413.99,1880.00 2413.99,1880.00
             2413.90,1876.94 2414.21,1873.18 2411.00,1872.00
             2410.83,1861.80 2401.89,1863.03 2399.00,1854.00
             2399.00,1854.00 2402.00,1852.00 2402.00,1852.00
             2402.00,1852.00 2405.00,1851.00 2405.00,1851.00
             2405.00,1851.00 2408.00,1850.00 2408.00,1850.00
             2408.00,1850.00 2411.00,1849.00 2411.00,1849.00
             2417.45,1849.26 2423.56,1844.86 2423.00,1838.00
             2425.34,1836.89 2424.45,1835.26 2424.00,1833.00
             2424.00,1833.00 2426.00,1828.00 2426.00,1828.00
             2426.00,1828.00 2427.00,1830.00 2427.00,1830.00
             2427.00,1830.00 2427.00,1823.00 2427.00,1823.00
             2427.00,1823.00 2428.00,1825.00 2428.00,1825.00
             2428.00,1825.00 2428.00,1817.00 2428.00,1817.00
             2431.29,1815.57 2431.28,1810.13 2431.00,1807.00
             2434.92,1805.65 2443.62,1793.12 2445.16,1789.00
             2446.33,1785.87 2446.61,1781.26 2443.00,1780.00
             2442.81,1773.50 2438.92,1769.02 2435.10,1764.00
             2432.06,1760.00 2424.03,1750.24 2420.00,1747.93
             2413.97,1744.47 2404.75,1745.03 2398.00,1745.00
             2394.00,1744.98 2387.42,1744.72 2384.09,1742.41
             2378.51,1738.53 2375.80,1728.76 2368.00,1723.72
             2360.93,1719.16 2349.12,1720.09 2341.00,1720.00
             2336.42,1719.94 2334.67,1719.24 2330.00,1720.00
             2328.90,1717.04 2325.73,1716.10 2323.00,1714.76
             2318.21,1712.39 2309.70,1709.49 2307.03,1704.71
             2304.25,1699.76 2309.57,1694.24 2311.64,1690.00
             2313.81,1685.54 2314.33,1679.88 2313.64,1675.00
             2312.02,1663.56 2293.39,1647.36 2290.70,1639.00
             2288.40,1631.81 2295.40,1628.22 2296.00,1620.00
             2299.82,1618.73 2301.18,1614.05 2303.53,1611.00
             2307.33,1606.06 2312.30,1602.01 2317.00,1597.97
             2319.15,1596.11 2322.07,1594.67 2323.00,1592.00
             2325.63,1592.10 2326.98,1592.66 2328.00,1590.00
             2328.00,1590.00 2331.00,1589.00 2331.00,1589.00
             2331.00,1589.00 2334.00,1590.00 2334.00,1590.00
             2334.00,1590.00 2333.00,1588.00 2333.00,1588.00
             2335.74,1588.24 2336.98,1588.82 2338.00,1586.00 Z" />
  <path id="Talisay"
        fill="none" stroke="black" stroke-width="1"
        d="M 2071.00,1079.00
           C 2071.00,1079.00 2077.00,1075.00 2077.00,1075.00
             2094.85,1101.78 2109.10,1124.39 2130.42,1149.00
             2133.93,1153.05 2148.12,1168.80 2152.00,1170.49
             2155.44,1171.99 2160.29,1171.99 2164.00,1172.00
             2167.65,1172.01 2179.82,1171.05 2182.01,1173.74
             2182.98,1174.93 2183.54,1180.29 2183.71,1182.00
             2183.97,1184.54 2183.99,1186.54 2182.69,1188.83
             2180.71,1192.33 2171.41,1199.78 2168.00,1203.04
             2168.00,1203.04 2139.58,1228.71 2139.58,1228.71
             2133.88,1233.49 2128.19,1238.73 2121.00,1241.00
             2121.00,1241.00 2122.00,1243.00 2122.00,1243.00
             2122.00,1243.00 2108.00,1254.00 2108.00,1254.00
             2103.72,1254.24 2101.76,1255.86 2099.00,1259.00
             2099.00,1259.00 2097.00,1258.00 2097.00,1258.00
             2097.00,1258.00 2097.00,1260.00 2097.00,1260.00
             2092.72,1260.24 2090.76,1261.86 2088.00,1265.00
             2083.37,1265.26 2080.00,1267.60 2077.00,1271.00
             2077.00,1271.00 2073.00,1273.00 2073.00,1273.00
             2068.53,1273.19 2067.17,1273.85 2064.00,1277.00
             2064.00,1277.00 2062.00,1278.00 2062.00,1278.00
             2058.16,1278.19 2057.78,1278.34 2055.00,1281.00
             2055.00,1281.00 2053.00,1282.00 2053.00,1282.00
             2049.16,1282.19 2048.78,1282.34 2046.00,1285.00
             2041.53,1285.19 2040.17,1285.85 2037.00,1289.00
             2037.00,1289.00 2035.00,1290.00 2035.00,1290.00
             2035.00,1290.00 2032.00,1289.00 2032.00,1289.00
             2032.00,1289.00 2031.00,1292.00 2031.00,1292.00
             2031.00,1292.00 2029.00,1293.00 2029.00,1293.00
             2025.16,1293.19 2024.78,1293.34 2022.00,1296.00
             2022.00,1296.00 2020.00,1297.00 2020.00,1297.00
             2020.00,1297.00 2015.00,1299.00 2015.00,1299.00
             2015.00,1299.00 2013.00,1298.00 2013.00,1298.00
             2013.00,1298.00 2013.00,1300.00 2013.00,1300.00
             2013.00,1300.00 2011.00,1301.00 2011.00,1301.00
             2011.00,1301.00 2006.00,1303.00 2006.00,1303.00
             2006.00,1303.00 2004.00,1304.00 2004.00,1304.00
             2000.16,1304.19 1999.78,1304.34 1997.00,1307.00
             1997.00,1307.00 1995.00,1308.00 1995.00,1308.00
             1991.16,1308.19 1990.78,1308.34 1988.00,1311.00
             1984.16,1311.19 1983.78,1311.34 1981.00,1314.00
             1981.00,1314.00 1979.00,1315.00 1979.00,1315.00
             1979.00,1315.00 1974.00,1317.00 1974.00,1317.00
             1974.00,1317.00 1972.00,1318.00 1972.00,1318.00
             1972.00,1318.00 1967.00,1320.00 1967.00,1320.00
             1967.00,1320.00 1965.00,1321.00 1965.00,1321.00
             1965.00,1321.00 1960.00,1323.00 1960.00,1323.00
             1960.00,1323.00 1958.00,1324.00 1958.00,1324.00
             1958.00,1324.00 1952.00,1324.00 1952.00,1324.00
             1951.67,1314.65 1945.79,1312.34 1939.00,1307.00
             1939.00,1307.00 1915.00,1288.08 1915.00,1288.08
             1915.00,1288.08 1905.72,1280.25 1905.72,1280.25
             1902.24,1276.22 1905.95,1273.32 1905.72,1265.00
             1905.72,1265.00 1905.72,1248.29 1905.72,1248.29
             1906.56,1245.88 1912.18,1241.76 1915.00,1238.00
             1919.75,1236.93 1929.63,1228.02 1934.00,1224.65
             1934.00,1224.65 1961.00,1203.79 1961.00,1203.79
             1964.07,1201.38 1974.21,1193.15 1977.00,1191.93
             1980.94,1190.22 1990.52,1190.05 1995.00,1190.00
             1995.00,1190.00 2004.00,1189.17 2004.00,1189.17
             2008.85,1188.67 2013.40,1189.11 2014.00,1183.00
             2017.18,1180.21 2018.87,1178.36 2019.00,1174.00
             2019.00,1174.00 2020.00,1172.00 2020.00,1172.00
             2023.18,1169.21 2024.87,1167.36 2025.00,1163.00
             2025.00,1163.00 2026.00,1161.00 2026.00,1161.00
             2029.18,1158.21 2030.87,1156.36 2031.00,1152.00
             2034.41,1148.99 2036.86,1145.67 2037.00,1141.00
             2037.00,1141.00 2040.00,1140.00 2040.00,1140.00
             2040.00,1140.00 2039.00,1137.00 2039.00,1137.00
             2039.00,1137.00 2042.00,1132.00 2042.00,1132.00
             2042.00,1132.00 2043.00,1130.00 2043.00,1130.00
             2046.18,1127.21 2047.87,1125.36 2048.00,1121.00
             2048.00,1121.00 2049.00,1119.00 2049.00,1119.00
             2052.18,1116.21 2053.87,1114.36 2054.00,1110.00
             2057.18,1107.21 2058.87,1105.36 2059.00,1101.00
             2059.00,1101.00 2060.00,1099.00 2060.00,1099.00
             2063.18,1096.21 2064.87,1094.36 2065.00,1090.00
             2068.41,1086.99 2070.86,1083.67 2071.00,1079.00 Z" />
  <path id="San Vicente"
        fill="none" stroke="black" stroke-width="1"
        d="M 1812.00,1349.00
           C 1819.01,1346.72 1816.95,1333.13 1817.00,1327.00
             1817.00,1327.00 1817.89,1308.00 1817.89,1308.00
             1818.71,1305.25 1822.05,1301.37 1823.88,1299.00
             1830.25,1290.72 1830.53,1287.02 1841.00,1287.00
             1841.00,1287.00 1893.00,1287.00 1893.00,1287.00
             1895.17,1287.00 1897.95,1286.89 1900.00,1287.56
             1903.56,1288.72 1918.15,1300.53 1922.00,1303.60
             1925.69,1306.55 1940.31,1317.19 1941.98,1320.17
             1943.21,1322.37 1943.00,1325.54 1943.00,1328.00
             1943.00,1328.00 1943.00,1382.00 1943.00,1382.00
             1942.97,1397.45 1935.33,1399.76 1930.65,1412.00
             1925.88,1424.50 1926.51,1433.03 1917.40,1443.83
             1917.40,1443.83 1886.00,1474.08 1886.00,1474.08
             1878.37,1481.11 1875.72,1485.98 1865.00,1485.99
             1865.00,1485.99 1838.00,1485.99 1838.00,1485.99
             1838.00,1485.99 1831.28,1485.99 1831.28,1485.99
             1826.87,1486.47 1816.90,1495.34 1813.00,1498.35
             1813.00,1498.35 1781.00,1522.31 1781.00,1522.31
             1757.94,1537.32 1734.11,1551.07 1710.00,1564.30
             1710.00,1564.30 1695.91,1573.21 1695.91,1573.21
             1695.91,1573.21 1669.00,1586.31 1669.00,1586.31
             1669.00,1586.31 1634.00,1603.00 1634.00,1603.00
             1634.00,1603.00 1646.66,1584.00 1646.66,1584.00
             1646.66,1584.00 1676.98,1541.00 1676.98,1541.00
             1676.98,1541.00 1770.72,1408.00 1770.72,1408.00
             1770.72,1408.00 1812.00,1349.00 1812.00,1349.00 Z" />
  <path id="San Lorenzo Luis"
        fill="none" stroke="black" stroke-width="1"
        d="M 1951.00,1387.00
           C 1957.28,1387.00 1966.59,1386.73 1972.00,1383.28
             1976.28,1380.54 1983.98,1371.28 1988.01,1370.60
             1993.04,1369.75 2002.05,1374.81 2007.00,1376.21
             2012.50,1377.77 2021.22,1376.37 2027.00,1378.93
             2030.25,1380.37 2036.98,1386.53 2040.00,1389.13
             2040.00,1389.13 2062.00,1408.00 2062.00,1408.00
             2062.00,1408.00 2082.00,1425.13 2082.00,1425.13
             2083.71,1426.62 2087.80,1429.67 2087.80,1432.07
             2087.80,1435.45 2076.83,1443.41 2074.00,1445.75
             2074.00,1445.75 2032.00,1480.41 2032.00,1480.41
             2032.00,1480.41 1910.00,1583.13 1910.00,1583.13
             1910.00,1583.13 1872.00,1615.59 1872.00,1615.59
             1864.96,1621.61 1862.25,1627.06 1853.00,1631.00
             1853.90,1633.18 1854.80,1635.81 1856.50,1637.50
             1858.72,1639.73 1871.40,1644.60 1875.00,1645.95
             1875.00,1645.95 1914.00,1661.54 1914.00,1661.54
             1914.00,1661.54 1923.00,1664.12 1923.00,1664.12
             1923.00,1664.12 1930.00,1667.76 1930.00,1667.76
             1930.00,1667.76 1964.00,1681.40 1964.00,1681.40
             1964.00,1681.40 2028.00,1707.00 2028.00,1707.00
             2028.00,1707.00 2057.00,1718.60 2057.00,1718.60
             2060.62,1720.08 2067.35,1722.26 2069.68,1725.25
             2071.62,1727.75 2076.07,1735.94 2076.52,1739.00
             2076.52,1739.00 2074.16,1764.00 2074.16,1764.00
             2071.25,1791.24 2068.40,1827.46 2059.00,1853.00
             2052.31,1850.53 2038.93,1841.83 2032.00,1837.85
             2032.00,1837.85 1973.00,1803.42 1973.00,1803.42
             1973.00,1803.42 1821.00,1714.58 1821.00,1714.58
             1821.00,1714.58 1775.00,1687.43 1775.00,1687.43
             1775.00,1687.43 1675.00,1631.86 1675.00,1631.86
             1665.27,1626.46 1640.58,1616.12 1634.00,1610.00
             1634.00,1610.00 1674.00,1590.22 1674.00,1590.22
             1674.00,1590.22 1694.00,1580.27 1694.00,1580.27
             1694.00,1580.27 1704.04,1576.64 1704.04,1576.64
             1731.14,1563.14 1757.18,1546.59 1783.00,1530.80
             1783.00,1530.80 1818.00,1504.63 1818.00,1504.63
             1821.25,1502.18 1829.84,1494.99 1833.00,1493.96
             1835.32,1493.08 1842.75,1493.99 1846.00,1493.96
             1846.00,1493.96 1868.00,1493.96 1868.00,1493.96
             1870.13,1494.00 1873.01,1494.12 1875.00,1493.41
             1879.14,1491.93 1893.86,1477.90 1898.00,1474.08
             1905.54,1467.14 1912.50,1459.70 1919.28,1452.00
             1922.07,1448.84 1925.83,1445.53 1927.93,1442.00
             1927.93,1442.00 1937.91,1414.00 1937.91,1414.00
             1942.08,1405.03 1949.13,1396.99 1951.00,1387.00 Z" />
  <path id="Basud"
        fill="none" stroke="black" stroke-width="1"
        d="M 1865.00,1633.00
           C 1870.25,1621.69 1877.22,1620.44 1884.99,1613.78
             1884.99,1613.78 1894.04,1604.46 1894.04,1604.46
             1894.04,1604.46 1911.00,1591.96 1911.00,1591.96
             1911.00,1591.96 1933.00,1573.58 1933.00,1573.58
             1933.00,1573.58 2021.00,1499.25 2021.00,1499.25
             2021.00,1499.25 2099.00,1435.00 2099.00,1435.00
             2099.00,1435.00 2153.00,1390.58 2153.00,1390.58
             2153.00,1390.58 2167.00,1378.92 2167.00,1378.92
             2169.33,1377.02 2171.82,1374.70 2175.00,1374.60
             2177.31,1374.53 2181.69,1376.46 2184.00,1377.32
             2184.00,1377.32 2201.00,1383.68 2201.00,1383.68
             2201.00,1383.68 2248.00,1401.58 2248.00,1401.58
             2253.52,1403.68 2268.01,1408.41 2272.00,1411.42
             2272.00,1411.42 2299.01,1438.91 2299.01,1438.91
             2301.56,1440.41 2313.43,1443.45 2317.00,1444.37
             2317.00,1444.37 2357.00,1456.00 2357.00,1456.00
             2351.68,1474.40 2352.00,1491.14 2352.00,1510.00
             2352.00,1516.11 2352.45,1534.84 2353.76,1540.00
             2358.51,1558.77 2361.82,1560.72 2370.00,1576.00
             2361.48,1574.50 2361.07,1575.87 2353.00,1576.85
             2353.00,1576.85 2342.00,1578.36 2342.00,1578.36
             2338.84,1579.07 2319.48,1586.29 2317.00,1587.84
             2314.54,1589.37 2312.21,1591.78 2310.00,1593.72
             2300.16,1602.33 2298.32,1603.66 2291.85,1615.00
             2289.33,1619.42 2283.39,1628.32 2282.97,1633.00
             2281.39,1650.38 2301.29,1661.19 2306.19,1675.00
             2310.46,1687.04 2292.82,1694.36 2299.17,1707.00
             2301.81,1712.24 2309.79,1717.02 2315.00,1719.52
             2315.00,1719.52 2330.00,1726.38 2330.00,1726.38
             2336.73,1728.45 2344.99,1727.99 2352.00,1728.00
             2356.67,1728.01 2360.93,1727.88 2364.96,1730.70
             2371.15,1735.04 2372.18,1743.53 2380.01,1749.28
             2385.00,1752.94 2398.61,1753.84 2405.00,1754.09
             2407.55,1754.04 2414.00,1753.37 2415.83,1754.09
             2417.91,1755.12 2421.18,1759.17 2422.73,1761.00
             2427.06,1766.12 2439.04,1780.12 2437.45,1787.00
             2436.45,1791.34 2431.21,1796.51 2428.47,1800.00
             2425.32,1804.03 2424.53,1806.23 2423.02,1811.00
             2421.15,1816.94 2419.16,1822.85 2418.08,1829.00
             2417.58,1831.87 2417.01,1838.25 2415.18,1840.30
             2411.58,1844.31 2392.86,1845.07 2390.41,1854.00
             2388.66,1860.38 2401.60,1866.24 2404.98,1873.00
             2406.42,1875.88 2405.87,1879.80 2406.09,1883.00
             2406.09,1883.00 2407.00,1903.00 2407.00,1903.00
             2407.15,1915.69 2412.84,1930.01 2395.00,1933.38
             2392.54,1933.85 2390.51,1934.05 2388.00,1933.91
             2388.00,1933.91 2374.00,1932.58 2374.00,1932.58
             2367.95,1932.74 2359.11,1935.91 2355.56,1941.02
             2348.52,1951.14 2364.37,1963.20 2372.00,1968.00
             2372.00,1968.00 2372.00,1970.00 2372.00,1970.00
             2353.06,1976.32 2354.17,1978.94 2333.00,1981.72
             2333.00,1981.72 2308.00,1985.00 2308.00,1985.00
             2304.40,1985.49 2295.93,1986.60 2293.00,1988.16
             2288.72,1990.44 2287.04,1994.06 2284.31,1997.72
             2279.54,2004.08 2276.40,2006.34 2272.00,2014.00
             2265.77,2011.56 2260.23,2006.19 2255.00,2002.00
             2255.00,2002.00 2227.00,1979.88 2227.00,1979.88
             2227.00,1979.88 2119.00,1896.15 2119.00,1896.15
             2119.00,1896.15 2081.00,1867.58 2081.00,1867.58
             2078.40,1865.55 2068.49,1859.17 2067.69,1856.81
             2066.91,1854.52 2068.50,1849.40 2069.15,1847.00
             2069.15,1847.00 2074.04,1827.42 2074.04,1827.42
             2074.04,1827.42 2082.17,1763.00 2082.17,1763.00
             2082.69,1757.89 2085.19,1742.53 2084.52,1738.00
             2084.08,1734.99 2077.22,1721.57 2075.31,1719.22
             2072.44,1715.71 2061.58,1712.23 2057.00,1710.40
             2057.00,1710.40 2014.00,1693.19 2014.00,1693.19
             2014.00,1693.19 1930.00,1659.20 1930.00,1659.20
             1930.00,1659.20 1890.00,1643.20 1890.00,1643.20
             1890.00,1643.20 1865.00,1633.00 1865.00,1633.00 Z" />
  <path id="Vinzons"
        fill="none" stroke="black" stroke-width="1"
        d="M 2015.00,218.00
           C 2015.86,200.45 2026.14,201.16 2040.00,201.00
             2049.29,200.89 2056.16,198.37 2062.95,191.83
             2073.20,181.96 2065.55,163.75 2071.98,152.00
             2074.41,147.58 2081.08,143.14 2085.00,139.71
             2090.58,134.84 2095.47,127.44 2101.00,123.51
             2104.22,121.21 2115.98,117.66 2120.00,117.71
             2120.00,117.71 2127.00,117.71 2127.00,117.71
             2129.78,118.08 2133.42,117.75 2136.00,118.74
             2139.15,119.94 2142.26,123.07 2143.86,126.00
             2146.71,131.21 2146.08,141.92 2146.00,148.00
             2145.83,160.36 2140.54,156.35 2134.29,162.22
             2134.29,162.22 2127.57,169.91 2127.57,169.91
             2120.77,177.37 2118.25,179.14 2118.00,190.00
             2123.41,190.00 2135.68,189.08 2139.94,191.85
             2141.59,192.93 2142.70,194.17 2143.40,196.02
             2144.78,199.63 2143.40,213.35 2142.01,217.00
             2140.95,219.76 2139.02,222.52 2136.82,224.47
             2129.97,230.53 2122.64,230.96 2114.00,231.00
             2114.00,231.00 2102.00,232.00 2102.00,232.00
             2102.00,232.00 2099.37,260.00 2099.37,260.00
             2098.49,263.16 2096.01,268.34 2093.66,270.61
             2087.02,277.04 2068.92,278.87 2062.56,271.33
             2059.84,268.10 2060.01,262.03 2060.00,258.00
             2050.85,258.00 2035.98,258.20 2028.00,262.79
             2020.35,267.18 2014.07,275.84 2009.58,279.22
             2002.79,284.32 1997.06,284.91 1989.00,285.00
             1984.64,285.05 1980.32,286.25 1976.00,285.53
             1973.75,285.16 1970.01,284.17 1968.00,283.16
             1949.90,274.01 1964.92,258.13 1970.13,246.00
             1972.21,241.16 1976.98,225.76 1980.41,223.07
             1987.05,217.87 2006.51,218.00 2015.00,218.00 Z
           M 1750.00,158.67
           C 1759.48,157.46 1772.36,162.27 1776.99,171.00
             1780.17,177.00 1778.91,189.38 1778.00,196.00
             1777.57,199.12 1777.17,203.12 1775.27,205.70
             1771.05,211.42 1762.74,213.29 1756.00,212.91
             1738.37,211.90 1737.23,200.18 1734.41,186.00
             1733.36,180.79 1731.74,172.88 1734.41,168.02
             1737.48,162.50 1744.36,160.56 1750.00,158.67 Z
           M 2173.00,242.43
           C 2181.49,241.58 2193.15,245.28 2196.40,254.00
             2198.72,260.21 2198.15,276.60 2193.36,281.57
             2191.69,283.32 2189.35,284.14 2187.00,284.49
             2177.95,285.86 2162.71,280.60 2156.43,273.90
             2154.76,272.12 2152.41,269.29 2151.59,267.00
             2148.69,258.83 2154.87,248.89 2162.00,245.28
             2166.27,243.12 2168.45,243.11 2173.00,242.43 Z
           M 2076.00,347.00
           C 2076.00,347.00 2063.00,346.00 2063.00,346.00
             2056.21,345.92 2042.83,345.97 2037.28,341.92
             2034.35,339.78 2033.73,335.39 2033.29,332.00
             2032.22,323.76 2034.05,311.09 2040.05,305.09
             2050.66,294.49 2067.41,296.81 2081.00,298.17
             2085.70,298.64 2093.22,298.80 2096.49,302.39
             2099.27,305.45 2099.90,320.34 2100.00,325.00
             2105.57,325.00 2117.48,324.06 2121.96,326.85
             2132.20,333.23 2127.51,341.16 2140.00,349.24
             2147.03,353.78 2156.86,351.53 2164.96,355.72
             2171.14,358.92 2171.93,366.17 2177.09,368.98
             2180.25,370.70 2184.67,369.39 2188.98,371.03
             2196.00,373.69 2199.14,385.18 2199.68,392.00
             2199.96,395.64 2199.09,399.91 2197.11,403.00
             2191.22,412.19 2180.35,410.41 2171.00,409.28
             2167.66,408.88 2165.28,409.18 2162.00,408.04
             2162.00,408.04 2147.00,400.78 2147.00,400.78
             2138.13,397.91 2128.66,397.23 2120.00,393.25
             2120.00,393.25 2105.00,384.04 2105.00,384.04
             2097.40,380.49 2085.16,378.34 2080.07,370.82
             2076.25,365.17 2076.94,354.15 2076.00,347.00 Z
           M 1680.00,367.53
           C 1695.41,365.16 1697.65,378.96 1702.39,383.53
             1705.73,386.75 1710.56,386.98 1715.47,393.04
             1722.05,401.15 1722.62,408.33 1725.98,417.00
             1727.90,421.96 1731.31,424.90 1732.49,429.00
             1733.19,431.41 1733.00,436.32 1733.00,439.00
             1732.99,446.41 1731.96,454.45 1725.70,459.44
             1723.54,461.16 1714.90,463.90 1712.00,464.48
             1704.33,466.02 1695.54,462.86 1690.62,456.98
             1682.99,447.87 1682.46,439.72 1679.28,429.00
             1679.28,429.00 1675.91,418.00 1675.91,418.00
             1671.48,405.68 1662.46,392.59 1666.97,379.00
             1667.90,376.19 1668.81,372.75 1671.27,370.92
             1673.12,369.54 1677.70,368.19 1680.00,367.53 Z
           M 2133.00,486.43
           C 2139.48,485.69 2148.25,487.57 2152.02,493.46
             2153.54,495.83 2153.81,501.16 2154.07,504.00
             2154.35,507.00 2155.08,509.98 2154.81,513.00
             2153.93,522.88 2145.99,526.52 2137.00,525.90
             2132.95,525.63 2122.64,522.52 2119.96,519.53
             2109.06,507.34 2117.83,489.10 2133.00,486.43 Z
           M 1827.00,801.00
           C 1834.73,804.29 1845.82,814.08 1852.00,819.96
             1857.59,825.28 1860.08,826.51 1865.56,833.00
             1865.56,833.00 1900.35,884.00 1900.35,884.00
             1904.30,889.72 1909.06,894.74 1913.58,900.00
             1913.58,900.00 1928.09,916.83 1928.09,916.83
             1937.92,926.33 1950.31,933.84 1962.00,940.80
             1972.16,946.84 1994.62,950.78 2007.00,953.87
             2019.46,956.99 2021.84,955.71 2022.00,964.00
             2022.00,964.00 2022.00,970.00 2022.00,970.00
             2022.00,970.00 1999.00,970.00 1999.00,970.00
             1999.00,970.00 1986.00,969.00 1986.00,969.00
             1985.38,966.89 1984.89,965.01 1983.35,963.31
             1979.84,959.44 1971.22,959.03 1967.32,962.43
             1961.93,967.15 1961.18,973.49 1963.22,980.00
             1967.01,992.10 1974.26,991.82 1985.00,992.00
             1997.07,992.21 1995.23,999.70 1996.17,1009.00
             1997.67,1024.01 1999.16,1023.62 1997.00,1040.00
             1997.00,1040.00 1983.00,1037.79 1983.00,1037.79
             1969.79,1033.91 1957.04,1028.33 1943.00,1028.01
             1937.38,1027.89 1932.36,1028.58 1928.39,1033.21
             1924.74,1037.73 1923.16,1049.33 1928.39,1053.40
             1930.65,1055.29 1934.13,1054.99 1937.00,1055.00
             1937.00,1055.00 1966.00,1055.00 1966.00,1055.00
             1976.74,1055.06 1972.15,1058.77 1979.09,1062.55
             1982.12,1064.19 1985.67,1063.99 1989.00,1063.84
             1989.00,1063.84 2020.00,1063.84 2020.00,1063.84
             2028.54,1063.99 2051.91,1061.42 2059.00,1063.84
             2061.97,1064.39 2065.42,1067.18 2068.00,1069.00
             2068.00,1069.00 2055.31,1094.00 2055.31,1094.00
             2055.31,1094.00 2026.31,1147.00 2026.31,1147.00
             2026.31,1147.00 2014.78,1168.00 2014.78,1168.00
             2014.78,1168.00 2007.62,1179.40 2007.62,1179.40
             2007.62,1179.40 1998.00,1181.17 1998.00,1181.17
             1998.00,1181.17 1975.00,1183.98 1975.00,1183.98
             1975.00,1183.98 1953.00,1200.60 1953.00,1200.60
             1953.00,1200.60 1915.00,1230.12 1915.00,1230.12
             1915.00,1230.12 1898.60,1244.17 1898.60,1244.17
             1898.60,1244.17 1898.00,1251.00 1898.00,1251.00
             1898.00,1251.00 1897.00,1279.00 1897.00,1279.00
             1897.00,1279.00 1869.00,1279.00 1869.00,1279.00
             1869.00,1279.00 1869.00,1230.00 1869.00,1230.00
             1869.00,1230.00 1868.00,1207.00 1868.00,1207.00
             1867.98,1196.24 1864.32,1193.04 1859.01,1184.00
             1857.64,1181.67 1853.71,1175.45 1853.73,1173.00
             1853.75,1169.23 1858.55,1165.86 1860.69,1163.00
             1863.13,1159.74 1862.97,1157.86 1863.00,1154.00
             1863.00,1154.00 1862.00,1137.00 1862.00,1137.00
             1862.00,1137.00 1862.00,1106.00 1862.00,1106.00
             1862.00,1102.95 1862.19,1098.91 1860.69,1096.18
             1858.79,1092.75 1848.69,1086.79 1845.00,1084.33
             1842.53,1082.69 1834.20,1078.04 1834.20,1075.00
             1834.20,1072.20 1840.83,1068.00 1843.00,1066.37
             1850.12,1061.01 1850.98,1060.88 1851.00,1052.00
             1851.00,1052.00 1851.00,1030.00 1851.00,1030.00
             1850.99,1028.02 1851.13,1025.11 1849.98,1023.43
             1847.30,1019.52 1838.36,1021.37 1836.02,1018.40
             1835.01,1017.12 1834.84,1013.64 1834.77,1012.00
             1834.51,1005.24 1838.30,1004.92 1841.40,1000.00
             1843.27,997.03 1842.99,994.35 1843.00,991.00
             1843.00,991.00 1843.00,900.00 1843.00,900.00
             1842.96,897.83 1842.98,896.00 1841.98,894.00
             1839.06,888.17 1820.76,873.88 1818.60,868.00
             1817.88,866.06 1818.00,863.09 1818.00,861.00
             1818.00,861.00 1817.00,837.00 1817.00,837.00
             1817.00,837.00 1816.40,824.00 1816.40,824.00
             1817.11,820.28 1824.79,804.88 1827.00,801.00 Z
           M 2014.00,987.00
           C 2017.54,986.04 2022.88,983.52 2026.00,983.30
             2028.20,983.14 2030.98,983.78 2033.00,984.63
             2049.21,991.45 2043.56,1003.38 2047.84,1017.00
             2050.52,1025.54 2058.56,1032.50 2053.07,1042.00
             2048.66,1049.62 2038.82,1050.03 2031.00,1050.00
             2025.69,1049.98 2019.09,1049.72 2015.74,1044.89
             2013.68,1041.92 2014.05,1037.54 2013.58,1034.00
             2013.58,1034.00 2011.04,1004.00 2011.04,1004.00
             2011.04,1004.00 2014.00,987.00 2014.00,987.00 Z" />
  <path id="Daet"
        fill="none" stroke="black" stroke-width="1"
        d="M 1951.00,1378.00
           C 1951.00,1378.00 1951.00,1362.00 1951.00,1362.00
             1951.00,1362.00 1952.00,1348.00 1952.00,1348.00
             1952.03,1344.94 1951.45,1336.78 1953.02,1334.49
             1954.59,1332.20 1962.22,1329.34 1965.00,1328.15
             1965.00,1328.15 1994.00,1315.58 1994.00,1315.58
             1994.00,1315.58 2059.00,1286.31 2059.00,1286.31
             2077.04,1278.02 2104.50,1265.74 2120.00,1254.13
             2120.00,1254.13 2144.00,1235.71 2144.00,1235.71
             2144.00,1235.71 2170.00,1212.42 2170.00,1212.42
             2174.12,1208.85 2183.90,1197.95 2189.00,1198.02
             2189.00,1198.02 2193.00,1198.79 2193.00,1198.79
             2202.47,1200.64 2201.46,1202.78 2205.78,1211.00
             2207.34,1213.97 2209.21,1216.63 2209.89,1220.00
             2209.89,1220.00 2209.89,1233.00 2209.89,1233.00
             2210.16,1244.38 2215.99,1247.57 2222.00,1256.00
             2216.33,1257.97 2205.06,1262.65 2200.00,1265.52
             2197.03,1267.21 2192.47,1270.65 2190.10,1273.09
             2168.72,1295.06 2198.98,1317.06 2215.00,1329.71
             2215.00,1329.71 2226.00,1337.33 2226.00,1337.33
             2229.24,1339.49 2243.61,1348.32 2245.01,1350.52
             2245.93,1351.97 2246.11,1354.27 2245.85,1355.95
             2245.11,1360.78 2240.83,1359.99 2237.00,1360.00
             2237.00,1360.00 2207.00,1360.00 2207.00,1360.00
             2204.09,1360.00 2196.53,1359.55 2194.31,1361.02
             2191.92,1362.62 2191.80,1367.23 2191.00,1370.00
             2186.72,1369.02 2175.89,1364.45 2173.00,1364.83
             2169.12,1365.35 2160.36,1373.62 2157.00,1376.41
             2157.00,1376.41 2119.00,1407.92 2119.00,1407.92
             2119.00,1407.92 2104.00,1420.25 2104.00,1420.25
             2102.23,1421.70 2099.30,1424.42 2097.00,1424.72
             2093.01,1425.24 2082.39,1414.59 2079.00,1411.75
             2079.00,1411.75 2045.00,1382.92 2045.00,1382.92
             2041.22,1379.76 2032.95,1372.15 2029.00,1370.42
             2022.86,1367.72 2015.19,1368.95 2009.00,1367.61
             2001.64,1366.02 1994.08,1360.36 1986.00,1362.66
             1979.09,1364.63 1972.45,1373.60 1968.00,1376.02
             1963.57,1378.42 1956.01,1378.00 1951.00,1378.00 Z" />
  <path id="Labo"
        fill="none" stroke="black" stroke-width="1"
        d="M 971.00,1005.00
           C 971.00,1005.00 981.00,1005.00 981.00,1005.00
             984.04,1007.86 984.85,1008.02 989.00,1008.00
             989.00,1008.00 992.00,1009.00 992.00,1009.00
             992.00,1009.00 997.00,1011.00 997.00,1011.00
             997.00,1011.00 1000.00,1012.00 1000.00,1012.00
             1000.00,1012.00 1005.00,1014.00 1005.00,1014.00
             1005.00,1014.00 1008.00,1015.00 1008.00,1015.00
             1008.00,1015.00 1013.00,1017.00 1013.00,1017.00
             1013.00,1017.00 1016.00,1018.00 1016.00,1018.00
             1016.00,1018.00 1021.00,1020.00 1021.00,1020.00
             1024.04,1022.86 1024.85,1023.02 1029.00,1023.00
             1029.00,1023.00 1032.00,1024.00 1032.00,1024.00
             1032.00,1024.00 1037.00,1026.00 1037.00,1026.00
             1037.00,1026.00 1040.00,1027.00 1040.00,1027.00
             1040.00,1027.00 1042.00,1030.00 1042.00,1030.00
             1042.00,1030.00 1045.00,1029.00 1045.00,1029.00
             1045.00,1029.00 1048.00,1030.00 1048.00,1030.00
             1048.00,1030.00 1053.00,1032.00 1053.00,1032.00
             1053.00,1032.00 1056.00,1033.00 1056.00,1033.00
             1056.00,1033.00 1061.00,1035.00 1061.00,1035.00
             1061.00,1035.00 1064.00,1036.00 1064.00,1036.00
             1064.00,1036.00 1069.00,1038.00 1069.00,1038.00
             1069.00,1038.00 1072.00,1039.00 1072.00,1039.00
             1072.00,1039.00 1077.00,1041.00 1077.00,1041.00
             1077.00,1041.00 1082.00,1043.00 1082.00,1043.00
             1082.00,1043.00 1085.00,1044.00 1085.00,1044.00
             1085.00,1044.00 1088.00,1045.00 1088.00,1045.00
             1088.00,1045.00 1090.00,1048.00 1090.00,1048.00
             1090.00,1048.00 1093.00,1047.00 1093.00,1047.00
             1097.49,1051.27 1104.07,1052.31 1110.00,1051.00
             1112.99,1053.11 1113.48,1052.75 1117.00,1052.00
             1120.48,1054.58 1124.77,1054.54 1129.00,1055.13
             1136.33,1056.15 1145.88,1058.67 1153.00,1057.00
             1155.99,1059.11 1156.48,1058.75 1160.00,1058.00
             1163.25,1060.29 1164.22,1059.63 1168.00,1059.00
             1170.98,1060.99 1171.54,1060.51 1175.00,1060.00
             1177.98,1061.99 1178.54,1061.51 1182.00,1061.00
             1184.98,1062.99 1185.54,1062.51 1189.00,1062.00
             1191.98,1063.99 1192.54,1063.51 1196.00,1063.00
             1198.98,1064.99 1199.54,1064.51 1203.00,1064.00
             1206.25,1066.29 1207.22,1065.63 1211.00,1065.00
             1213.98,1066.99 1214.54,1066.51 1218.00,1066.00
             1220.84,1067.79 1227.64,1068.60 1231.00,1068.00
             1234.25,1070.29 1235.22,1069.63 1239.00,1069.00
             1239.00,1069.00 1245.00,1070.00 1245.00,1070.00
             1248.27,1072.42 1251.07,1072.27 1255.00,1072.92
             1260.99,1073.90 1272.46,1076.09 1278.00,1075.00
             1278.00,1075.00 1283.00,1076.00 1283.00,1076.00
             1283.00,1076.00 1289.00,1077.00 1289.00,1077.00
             1289.00,1077.00 1294.00,1078.00 1294.00,1078.00
             1294.00,1078.00 1299.00,1079.00 1299.00,1079.00
             1299.00,1079.00 1305.00,1080.00 1305.00,1080.00
             1305.00,1080.00 1310.00,1081.00 1310.00,1081.00
             1314.65,1084.06 1318.82,1080.61 1322.00,1077.00
             1322.00,1077.00 1324.00,1078.00 1324.00,1078.00
             1324.00,1078.00 1324.00,1076.00 1324.00,1076.00
             1324.00,1076.00 1326.00,1077.00 1326.00,1077.00
             1326.00,1077.00 1326.00,1075.00 1326.00,1075.00
             1326.00,1075.00 1328.00,1076.00 1328.00,1076.00
             1328.00,1076.00 1328.00,1074.00 1328.00,1074.00
             1333.12,1073.72 1339.67,1069.78 1343.00,1066.00
             1343.00,1066.00 1345.00,1067.00 1345.00,1067.00
             1345.00,1067.00 1345.00,1065.00 1345.00,1065.00
             1345.00,1065.00 1347.00,1066.00 1347.00,1066.00
             1347.00,1066.00 1347.00,1064.00 1347.00,1064.00
             1352.29,1063.71 1360.54,1058.92 1364.00,1055.00
             1364.00,1055.00 1366.00,1056.00 1366.00,1056.00
             1366.00,1056.00 1366.00,1054.00 1366.00,1054.00
             1366.00,1054.00 1368.00,1055.00 1368.00,1055.00
             1368.00,1055.00 1368.00,1053.00 1368.00,1053.00
             1368.00,1053.00 1370.00,1054.00 1370.00,1054.00
             1370.00,1054.00 1370.00,1052.00 1370.00,1052.00
             1370.00,1052.00 1372.00,1053.00 1372.00,1053.00
             1372.00,1053.00 1372.00,1051.00 1372.00,1051.00
             1376.51,1050.75 1380.86,1048.14 1384.00,1045.00
             1384.00,1045.00 1386.00,1045.00 1386.00,1045.00
             1391.84,1049.30 1408.61,1046.15 1416.00,1046.02
             1424.74,1045.85 1421.38,1047.98 1432.00,1048.00
             1432.00,1048.00 1456.91,1047.11 1456.91,1047.11
             1456.91,1047.11 1464.04,1048.87 1464.04,1048.87
             1469.73,1049.56 1481.30,1049.02 1487.00,1048.00
             1487.00,1048.00 1495.00,1050.00 1495.00,1050.00
             1495.00,1050.00 1523.00,1049.00 1523.00,1049.00
             1526.31,1051.44 1528.03,1050.99 1532.00,1051.00
             1539.71,1051.01 1553.01,1051.70 1560.00,1050.00
             1563.31,1052.44 1565.03,1051.99 1569.00,1052.00
             1576.71,1052.01 1590.01,1052.70 1597.00,1051.00
             1599.79,1052.96 1600.21,1052.96 1603.00,1051.00
             1603.00,1051.00 1607.00,1049.00 1607.00,1049.00
             1607.00,1049.00 1609.00,1050.00 1609.00,1050.00
             1609.00,1050.00 1609.00,1048.00 1609.00,1048.00
             1609.00,1048.00 1611.00,1049.00 1611.00,1049.00
             1611.00,1049.00 1611.00,1047.00 1611.00,1047.00
             1611.00,1047.00 1615.00,1045.00 1615.00,1045.00
             1615.00,1045.00 1617.00,1046.00 1617.00,1046.00
             1617.00,1046.00 1617.00,1044.00 1617.00,1044.00
             1617.00,1044.00 1619.00,1045.00 1619.00,1045.00
             1619.00,1045.00 1619.00,1043.00 1619.00,1043.00
             1619.00,1043.00 1621.00,1044.00 1621.00,1044.00
             1621.00,1044.00 1621.00,1042.00 1621.00,1042.00
             1621.00,1042.00 1623.00,1043.00 1623.00,1043.00
             1623.00,1043.00 1623.00,1041.00 1623.00,1041.00
             1623.00,1041.00 1625.00,1040.00 1625.00,1040.00
             1630.71,1039.76 1641.95,1034.04 1646.00,1030.00
             1646.00,1030.00 1651.00,1029.00 1651.00,1029.00
             1651.00,1029.00 1655.00,1030.00 1655.00,1030.00
             1655.00,1030.00 1659.00,1031.00 1659.00,1031.00
             1659.00,1031.00 1663.00,1032.00 1663.00,1032.00
             1663.00,1032.00 1667.00,1033.00 1667.00,1033.00
             1670.63,1036.10 1673.48,1036.24 1678.00,1037.37
             1684.22,1038.93 1691.66,1041.65 1698.00,1041.00
             1698.00,1041.00 1702.00,1042.00 1702.00,1042.00
             1702.00,1042.00 1706.00,1043.00 1706.00,1043.00
             1706.00,1043.00 1710.00,1044.00 1710.00,1044.00
             1710.00,1044.00 1714.00,1045.00 1714.00,1045.00
             1714.00,1045.00 1718.00,1046.00 1718.00,1046.00
             1718.00,1046.00 1722.00,1047.00 1722.00,1047.00
             1722.00,1047.00 1727.00,1048.00 1727.00,1048.00
             1727.00,1048.00 1727.00,1050.00 1727.00,1050.00
             1727.00,1050.00 1731.00,1049.00 1731.00,1049.00
             1731.00,1049.00 1731.00,1051.00 1731.00,1051.00
             1731.00,1051.00 1735.00,1050.00 1735.00,1050.00
             1738.66,1053.12 1741.30,1053.48 1746.00,1053.00
             1746.00,1053.00 1753.00,1055.00 1753.00,1055.00
             1753.00,1055.00 1768.91,1053.98 1768.91,1053.98
             1768.91,1053.98 1785.76,1031.31 1785.76,1031.31
             1785.76,1031.31 1796.00,1027.00 1796.00,1027.00
             1805.01,1028.61 1828.99,1028.61 1838.00,1027.00
             1838.00,1027.00 1844.01,1030.73 1844.01,1030.73
             1845.26,1032.34 1845.00,1036.00 1845.00,1038.00
             1845.01,1042.18 1846.03,1053.15 1843.43,1056.13
             1839.69,1060.40 1824.04,1068.96 1818.00,1077.00
             1818.00,1077.00 1828.00,1081.00 1828.00,1081.00
             1831.29,1084.88 1839.89,1091.65 1845.00,1092.00
             1847.48,1095.15 1851.84,1097.97 1852.69,1101.09
             1854.18,1106.61 1851.10,1111.70 1855.00,1117.00
             1851.05,1133.26 1858.95,1142.71 1854.49,1157.00
             1852.98,1161.85 1849.10,1164.26 1846.19,1168.00
             1843.29,1171.72 1843.85,1173.00 1847.00,1176.00
             1847.00,1176.00 1850.00,1181.00 1850.00,1181.00
             1850.00,1181.00 1853.00,1186.00 1853.00,1186.00
             1853.89,1195.23 1861.98,1195.80 1862.00,1209.00
             1862.00,1209.00 1861.00,1229.00 1861.00,1229.00
             1861.00,1229.00 1861.00,1254.00 1861.00,1254.00
             1861.02,1263.64 1862.28,1260.81 1862.94,1266.09
             1862.94,1266.09 1862.94,1279.00 1862.94,1279.00
             1862.94,1279.00 1842.00,1279.00 1842.00,1279.00
             1839.33,1279.00 1833.27,1278.75 1831.01,1279.60
             1826.89,1281.15 1821.70,1287.71 1821.00,1292.00
             1816.92,1295.06 1811.36,1301.09 1809.70,1306.00
             1808.41,1309.81 1809.04,1333.19 1809.00,1339.00
             1808.93,1349.28 1801.67,1355.84 1796.02,1364.00
             1796.02,1364.00 1759.42,1416.00 1759.42,1416.00
             1759.42,1416.00 1671.28,1541.00 1671.28,1541.00
             1671.28,1541.00 1640.28,1585.00 1640.28,1585.00
             1640.28,1585.00 1625.00,1607.00 1625.00,1607.00
             1625.00,1607.00 1607.00,1601.00 1607.00,1601.00
             1607.00,1601.00 1602.00,1599.00 1602.00,1599.00
             1597.65,1594.84 1587.87,1592.15 1582.00,1589.80
             1582.00,1589.80 1537.00,1572.19 1537.00,1572.19
             1537.00,1572.19 1436.00,1532.55 1436.00,1532.55
             1436.00,1532.55 1400.00,1518.32 1400.00,1518.32
             1400.00,1518.32 1368.00,1505.72 1368.00,1505.72
             1362.27,1503.31 1352.99,1498.95 1347.00,1499.00
             1342.30,1494.51 1322.18,1487.67 1315.00,1484.80
             1315.00,1484.80 1242.00,1456.32 1242.00,1456.32
             1233.78,1453.28 1214.48,1443.93 1207.00,1444.00
             1207.00,1444.00 1193.00,1437.00 1193.00,1437.00
             1193.00,1437.00 1171.00,1428.40 1171.00,1428.40
             1171.00,1428.40 1156.00,1424.00 1156.00,1424.00
             1151.84,1420.02 1145.32,1418.33 1140.00,1416.20
             1140.00,1416.20 1108.00,1403.60 1108.00,1403.60
             1108.00,1403.60 1009.00,1364.80 1009.00,1364.80
             1009.00,1364.80 980.00,1353.32 980.00,1353.32
             974.77,1351.39 970.66,1348.95 965.00,1349.00
             960.33,1344.54 941.06,1338.03 934.00,1335.20
             934.00,1335.20 863.00,1307.40 863.00,1307.40
             863.00,1307.40 839.00,1297.95 839.00,1297.95
             833.87,1296.03 830.60,1293.95 825.00,1294.00
             825.00,1294.00 820.00,1292.00 820.00,1292.00
             815.73,1287.74 805.90,1284.56 800.00,1282.32
             800.00,1282.32 763.00,1267.80 763.00,1267.80
             763.00,1267.80 659.00,1227.00 659.00,1227.00
             659.00,1227.00 626.00,1214.05 626.00,1214.05
             626.00,1214.05 606.18,1205.79 606.18,1205.79
             602.45,1203.33 601.84,1200.10 597.00,1196.00
             598.07,1191.61 598.82,1188.83 596.00,1185.00
             596.00,1185.00 596.00,1179.00 596.00,1179.00
             598.38,1176.09 598.29,1175.71 598.00,1172.00
             598.00,1172.00 599.00,1168.00 599.00,1168.00
             599.00,1168.00 600.00,1164.00 600.00,1164.00
             603.47,1160.76 608.82,1152.78 609.00,1148.00
             609.00,1148.00 610.00,1146.00 610.00,1146.00
             610.00,1146.00 613.00,1140.00 613.00,1140.00
             613.00,1140.00 614.00,1138.00 614.00,1138.00
             614.00,1138.00 616.00,1138.00 616.00,1138.00
             616.00,1138.00 615.00,1136.00 615.00,1136.00
             615.00,1136.00 617.00,1136.00 617.00,1136.00
             617.00,1136.00 616.00,1134.00 616.00,1134.00
             616.00,1134.00 618.00,1134.00 618.00,1134.00
             618.00,1134.00 620.00,1125.00 620.00,1125.00
             620.00,1125.00 622.00,1120.00 622.00,1120.00
             622.00,1120.00 623.00,1117.00 623.00,1117.00
             623.00,1117.00 626.00,1115.00 626.00,1115.00
             626.00,1115.00 625.00,1112.00 625.00,1112.00
             625.00,1112.00 627.00,1107.00 627.00,1107.00
             627.00,1107.00 629.00,1102.00 629.00,1102.00
             631.58,1100.03 631.81,1098.12 632.00,1095.00
             634.66,1092.22 634.81,1091.84 635.00,1088.00
             638.47,1084.76 643.82,1076.78 644.00,1072.00
             644.00,1072.00 667.00,1051.00 667.00,1051.00
             667.00,1051.00 670.00,1049.00 670.00,1049.00
             674.56,1048.55 687.86,1039.59 691.00,1036.00
             691.00,1036.00 693.00,1037.00 693.00,1037.00
             693.00,1037.00 693.00,1035.00 693.00,1035.00
             693.00,1035.00 698.00,1032.00 698.00,1032.00
             698.00,1032.00 700.00,1033.00 700.00,1033.00
             700.00,1033.00 700.00,1031.00 700.00,1031.00
             705.17,1030.50 714.65,1023.94 718.00,1020.00
             724.41,1020.54 730.65,1019.52 737.00,1019.09
             741.56,1018.78 744.08,1019.88 748.00,1017.00
             757.93,1019.41 764.57,1017.05 774.00,1017.00
             778.46,1016.98 781.28,1017.74 785.00,1015.00
             794.93,1017.41 801.57,1015.05 811.00,1015.00
             815.46,1014.98 818.28,1015.74 822.00,1013.00
             827.31,1014.29 836.46,1015.35 841.00,1012.00
             846.20,1013.26 854.53,1014.29 859.00,1011.00
             864.31,1012.29 873.46,1013.35 878.00,1010.00
             883.20,1011.26 891.53,1012.29 896.00,1009.00
             901.59,1010.00 910.21,1011.53 915.00,1008.00
             920.31,1009.29 929.46,1010.35 934.00,1007.00
             939.31,1008.29 948.46,1009.35 953.00,1006.00
             958.20,1007.26 966.53,1008.29 971.00,1005.00 Z" />
  <path id="Paracale"
        fill="none" stroke="black" stroke-width="1"
        d="M 1473.00,870.00
           C 1473.00,870.00 1463.12,820.00 1463.12,820.00
             1463.12,820.00 1455.98,793.00 1455.98,793.00
             1455.98,793.00 1436.72,735.00 1436.72,735.00
             1436.72,735.00 1430.97,709.00 1430.97,709.00
             1430.51,706.52 1429.37,701.72 1430.97,699.60
             1432.73,697.40 1441.22,697.03 1444.00,696.88
             1446.76,696.97 1451.57,697.30 1454.00,696.88
             1464.95,694.27 1467.01,686.62 1473.32,679.00
             1476.62,675.02 1480.48,671.81 1482.74,667.00
             1485.22,661.70 1486.11,651.36 1490.39,647.70
             1494.80,643.93 1508.07,644.93 1514.00,645.00
             1525.91,645.15 1527.63,651.79 1538.00,656.56
             1538.00,656.56 1581.00,672.27 1581.00,672.27
             1595.31,679.47 1596.60,685.62 1604.00,688.53
             1611.55,691.49 1633.24,687.91 1637.40,698.10
             1638.12,699.86 1638.00,703.06 1638.00,705.00
             1638.00,705.00 1638.00,718.00 1638.00,718.00
             1637.94,723.04 1637.60,729.81 1633.77,733.48
             1630.70,736.43 1623.83,739.35 1622.02,742.33
             1620.84,744.28 1621.00,747.68 1620.72,750.00
             1619.85,757.19 1619.41,767.46 1623.41,773.87
             1626.04,778.06 1629.75,778.11 1634.00,776.53
             1642.25,773.47 1644.46,768.90 1658.00,765.04
             1664.97,763.05 1670.84,762.23 1671.00,771.00
             1671.11,777.58 1671.22,780.67 1666.79,786.00
             1663.87,789.52 1655.65,796.90 1657.35,801.98
             1659.01,806.94 1664.69,807.14 1669.00,806.96
             1678.04,806.59 1694.25,803.25 1702.00,798.65
             1711.10,793.25 1723.34,777.69 1731.00,774.05
             1736.28,771.54 1742.31,771.40 1748.00,770.83
             1758.60,769.77 1769.68,769.22 1780.00,772.60
             1785.24,774.31 1794.68,779.96 1800.00,782.78
             1803.70,784.75 1818.34,792.48 1819.94,795.37
             1821.44,798.12 1819.28,802.39 1818.14,805.00
             1815.54,810.94 1810.37,819.77 1810.04,826.00
             1810.04,826.00 1811.00,840.00 1811.00,840.00
             1811.00,840.00 1811.00,864.00 1811.00,864.00
             1811.04,866.51 1811.01,868.69 1812.17,871.00
             1814.85,876.33 1832.96,889.36 1835.40,896.00
             1836.12,897.94 1836.00,900.91 1836.00,903.00
             1836.00,903.00 1836.00,990.00 1836.00,990.00
             1835.99,992.66 1836.19,995.56 1834.98,998.00
             1833.33,1001.32 1829.93,1003.36 1828.60,1007.00
             1826.32,1013.21 1832.14,1020.24 1823.96,1020.98
             1823.96,1020.98 1820.00,1020.98 1820.00,1020.98
             1820.00,1020.98 1807.00,1020.98 1807.00,1020.98
             1803.07,1021.01 1786.82,1021.71 1784.32,1023.60
             1780.08,1026.81 1772.08,1043.34 1767.82,1046.40
             1765.37,1048.16 1754.26,1049.11 1751.00,1048.91
             1751.00,1048.91 1725.00,1042.87 1725.00,1042.87
             1725.00,1042.87 1676.00,1030.63 1676.00,1030.63
             1676.00,1030.63 1650.00,1024.51 1650.00,1024.51
             1646.62,1024.54 1641.32,1027.57 1638.00,1029.00
             1638.00,1029.00 1603.00,1045.16 1603.00,1045.16
             1598.05,1046.60 1593.01,1045.06 1588.00,1045.16
             1588.00,1045.16 1562.00,1045.16 1562.00,1045.16
             1562.00,1045.16 1546.00,1044.00 1546.00,1044.00
             1546.00,1044.00 1520.00,1044.00 1520.00,1044.00
             1520.00,1044.00 1505.00,1043.00 1505.00,1043.00
             1505.00,1043.00 1486.00,1043.00 1486.00,1043.00
             1483.15,1043.00 1478.98,1043.37 1476.79,1041.26
             1474.96,1039.51 1470.80,1028.02 1469.68,1025.00
             1469.68,1025.00 1456.19,990.00 1456.19,990.00
             1456.19,990.00 1435.00,939.00 1435.00,939.00
             1433.29,934.98 1426.45,920.37 1426.63,917.00
             1426.84,912.90 1433.52,906.22 1436.27,903.00
             1445.51,892.21 1460.26,876.25 1473.00,870.00 Z" />
  <path id="Jose Panganiban"
        fill="none" stroke="black" stroke-width="1"
        d="M 1292.00,591.00
           C 1298.40,592.56 1303.39,591.05 1306.49,594.31
             1309.97,597.97 1312.38,613.66 1321.01,617.49
             1332.44,622.55 1343.66,611.80 1347.28,610.52
             1347.28,610.52 1369.00,609.18 1369.00,609.18
             1372.05,608.97 1388.33,610.13 1390.26,611.90
             1392.09,613.59 1392.69,624.94 1392.91,628.00
             1392.91,628.00 1394.00,651.00 1394.00,651.00
             1394.00,651.00 1394.96,663.00 1394.96,663.00
             1394.96,663.00 1394.96,674.00 1394.96,674.00
             1395.08,680.81 1395.82,692.80 1401.21,697.43
             1406.58,702.05 1416.28,701.00 1423.00,701.00
             1424.52,719.77 1430.97,738.21 1436.66,756.00
             1436.66,756.00 1450.28,798.00 1450.28,798.00
             1450.28,798.00 1456.15,820.00 1456.15,820.00
             1456.15,820.00 1462.25,850.00 1462.25,850.00
             1462.25,850.00 1464.57,863.99 1464.57,863.99
             1464.39,869.48 1454.93,874.75 1451.04,878.29
             1444.47,884.26 1434.78,895.99 1428.72,903.00
             1426.49,905.57 1420.17,912.05 1419.39,915.00
             1418.69,917.68 1421.15,922.41 1422.20,925.00
             1422.20,925.00 1431.80,948.00 1431.80,948.00
             1431.80,948.00 1469.00,1040.00 1469.00,1040.00
             1469.00,1040.00 1438.00,1040.00 1438.00,1040.00
             1438.00,1040.00 1421.00,1039.00 1421.00,1039.00
             1421.00,1039.00 1395.00,1039.00 1395.00,1039.00
             1390.60,1038.94 1384.89,1037.54 1381.00,1038.39
             1377.74,1039.11 1371.43,1043.02 1368.00,1044.75
             1368.00,1044.75 1335.00,1062.31 1335.00,1062.31
             1330.36,1064.82 1316.49,1072.91 1312.00,1073.33
             1312.00,1073.33 1287.00,1069.08 1287.00,1069.08
             1287.00,1069.08 1235.00,1061.27 1235.00,1061.27
             1235.00,1061.27 1148.00,1049.28 1148.00,1049.28
             1148.00,1049.28 1105.00,1043.48 1105.00,1043.48
             1105.00,1043.48 1086.00,1036.68 1086.00,1036.68
             1086.00,1036.68 1046.00,1021.68 1046.00,1021.68
             1046.00,1021.68 1004.00,1006.05 1004.00,1006.05
             1000.48,1004.74 988.87,1001.08 987.01,998.50
             984.24,994.67 985.06,978.34 985.00,973.00
             985.00,973.00 984.00,960.00 984.00,960.00
             984.00,960.00 983.00,919.00 983.00,919.00
             983.00,919.00 982.00,903.00 982.00,903.00
             982.00,903.00 981.00,864.00 981.00,864.00
             981.00,864.00 980.00,851.00 980.00,851.00
             980.00,851.00 980.00,837.00 980.00,837.00
             980.00,837.00 978.96,821.00 978.96,821.00
             978.96,821.00 978.96,806.00 978.96,806.00
             978.96,806.00 977.96,794.00 977.96,794.00
             977.96,794.00 977.96,779.00 977.96,779.00
             977.96,779.00 977.00,767.00 977.00,767.00
             977.00,767.00 976.00,728.00 976.00,728.00
             976.00,728.00 975.00,712.00 975.00,712.00
             975.00,712.00 974.00,673.00 974.00,673.00
             973.98,669.16 973.42,665.80 974.00,662.00
             982.16,663.98 988.30,661.98 994.00,663.96
             1003.56,667.29 1018.80,677.02 1029.00,678.80
             1029.00,678.80 1057.00,680.72 1057.00,680.72
             1058.84,680.93 1063.22,680.91 1064.58,681.57
             1068.69,683.57 1069.09,693.02 1068.98,697.00
             1068.92,699.43 1068.82,700.65 1068.10,703.00
             1064.02,716.25 1057.61,710.43 1046.00,715.80
             1041.90,717.70 1037.80,722.10 1040.78,726.72
             1043.34,730.69 1051.71,736.74 1056.00,739.14
             1056.00,739.14 1069.00,745.42 1069.00,745.42
             1081.18,750.74 1104.86,762.07 1118.00,761.10
             1127.68,760.38 1127.99,751.68 1127.91,744.00
             1127.91,744.00 1127.91,704.00 1127.91,704.00
             1127.91,704.00 1127.91,696.00 1127.91,696.00
             1127.91,696.00 1129.00,672.00 1129.00,672.00
             1133.10,670.83 1142.00,669.73 1145.07,673.51
             1147.92,677.03 1146.99,692.90 1147.00,698.00
             1147.01,704.60 1148.61,711.43 1152.70,716.83
             1155.19,720.13 1158.73,721.35 1160.49,725.09
             1162.40,729.14 1162.00,737.40 1162.00,742.00
             1157.78,742.19 1151.50,742.63 1148.19,745.43
             1142.14,750.54 1143.79,761.93 1144.72,769.00
             1145.07,771.64 1145.03,774.51 1146.74,776.73
             1150.32,781.39 1158.74,781.04 1160.86,783.57
             1162.51,785.53 1162.63,789.84 1163.56,791.96
             1165.23,795.75 1170.02,798.01 1174.00,798.13
             1174.00,798.13 1185.00,798.13 1185.00,798.13
             1185.00,798.13 1193.00,796.76 1193.00,796.76
             1200.40,794.90 1202.03,788.77 1200.47,782.00
             1198.30,772.51 1188.95,761.58 1189.02,753.00
             1189.05,748.58 1191.21,739.52 1192.38,735.00
             1192.95,732.80 1193.72,729.39 1195.65,727.99
             1197.24,726.84 1200.10,727.00 1202.00,727.00
             1203.82,727.00 1206.79,726.84 1208.28,727.99
             1210.29,729.56 1211.70,737.31 1212.37,740.00
             1214.48,748.43 1217.57,764.36 1225.04,769.15
             1235.63,775.95 1237.24,762.23 1236.96,755.00
             1236.96,755.00 1236.02,746.00 1236.02,746.00
             1236.02,746.00 1236.02,729.00 1236.02,729.00
             1243.07,731.08 1247.21,735.57 1253.00,739.85
             1265.14,748.81 1276.33,759.33 1287.00,770.00
             1291.37,774.37 1303.31,786.36 1309.00,787.69
             1317.47,789.67 1333.75,782.94 1334.07,773.00
             1334.30,765.80 1327.24,755.49 1323.13,750.00
             1323.13,750.00 1304.43,728.00 1304.43,728.00
             1304.43,728.00 1282.16,701.00 1282.16,701.00
             1282.16,701.00 1272.33,686.00 1272.33,686.00
             1272.33,686.00 1263.18,672.00 1263.18,672.00
             1263.18,672.00 1256.05,653.00 1256.05,653.00
             1256.05,653.00 1247.74,621.00 1247.74,621.00
             1247.09,617.64 1245.07,611.50 1247.74,608.65
             1252.85,602.73 1267.73,606.01 1275.00,606.00
             1287.81,605.98 1287.70,601.10 1292.00,591.00 Z" />
  <path id="Capalonga"
        fill="none" stroke="black" stroke-width="1"
        d="M 772.00,584.00
           C 772.00,584.00 793.00,582.04 793.00,582.04
             793.00,582.04 807.00,583.00 807.00,583.00
             819.06,583.09 816.26,590.72 823.63,601.00
             829.40,609.03 834.69,609.89 844.00,609.91
             844.00,609.91 874.00,609.91 874.00,609.91
             879.07,610.31 881.29,609.28 886.00,612.26
             894.33,617.53 894.12,622.68 908.00,631.79
             908.00,631.79 936.00,645.37 936.00,645.37
             945.09,651.03 954.17,659.44 965.00,661.00
             965.00,661.00 966.00,683.00 966.00,683.00
             966.00,683.00 968.00,748.00 968.00,748.00
             968.00,748.00 969.04,765.00 969.04,765.00
             969.04,765.00 969.04,780.00 969.04,780.00
             969.04,780.00 970.00,792.00 970.00,792.00
             970.00,792.00 971.00,832.00 971.00,832.00
             971.00,832.00 972.00,847.00 972.00,847.00
             972.00,847.00 973.00,885.00 973.00,885.00
             973.00,885.00 974.04,902.00 974.04,902.00
             974.04,902.00 974.04,917.00 974.04,917.00
             974.04,917.00 975.00,929.00 975.00,929.00
             975.00,929.00 977.00,999.00 977.00,999.00
             977.00,999.00 926.00,1001.04 926.00,1001.04
             926.00,1001.04 910.00,1002.00 910.00,1002.00
             910.00,1002.00 886.00,1003.00 886.00,1003.00
             886.00,1003.00 872.00,1004.00 872.00,1004.00
             872.00,1004.00 854.00,1005.00 854.00,1005.00
             854.00,1005.00 826.17,1006.87 826.17,1006.87
             826.17,1006.87 813.00,1006.87 813.00,1006.87
             813.00,1006.87 793.00,1008.00 793.00,1008.00
             793.00,1008.00 774.00,1009.00 774.00,1009.00
             774.00,1009.00 761.00,1010.00 761.00,1010.00
             761.00,1010.00 738.00,1011.13 738.00,1011.13
             734.10,1011.02 726.99,1012.35 724.00,1011.13
             720.43,1009.96 708.56,999.46 705.00,996.42
             690.11,983.69 679.13,972.71 662.00,962.60
             657.94,960.21 653.86,958.15 649.00,958.26
             643.18,958.39 637.31,961.44 632.09,957.49
             622.78,950.43 621.07,928.71 608.00,923.58
             591.61,917.15 568.63,932.57 554.00,927.91
             535.64,922.06 526.53,911.65 512.00,900.21
             508.17,897.19 496.33,887.77 492.00,887.47
             487.65,887.17 482.09,892.40 479.00,895.17
             479.00,895.17 459.00,913.91 459.00,913.91
             456.39,916.33 451.63,920.65 448.00,920.98
             442.26,921.50 432.64,916.48 428.00,913.33
             414.62,904.25 401.62,880.41 392.23,867.00
             389.27,862.77 378.53,851.80 377.95,849.00
             377.95,849.00 377.95,839.00 377.95,839.00
             377.95,839.00 377.95,821.00 377.95,821.00
             377.96,817.64 376.48,810.79 377.95,808.28
             379.76,805.46 383.22,805.41 386.00,804.47
             389.39,803.33 392.46,801.02 394.40,798.00
             396.99,793.97 395.92,783.09 396.00,778.00
             396.13,770.33 398.46,771.45 405.00,770.95
             407.01,770.64 409.69,769.92 411.50,770.95
             414.03,772.65 415.48,779.18 416.91,781.96
             418.87,785.74 422.91,787.99 427.00,788.94
             432.01,790.12 444.07,782.71 449.00,780.25
             458.57,775.46 473.70,768.00 479.58,758.99
             482.66,754.26 485.93,736.93 486.00,731.00
             486.00,731.00 486.00,718.00 486.00,718.00
             501.75,714.62 488.53,693.00 491.31,682.00
             493.15,674.74 505.55,672.54 512.00,672.00
             513.08,679.64 518.42,697.12 521.76,704.00
             522.87,706.29 524.97,711.04 526.49,712.78
             532.85,720.02 548.01,719.43 546.94,706.00
             546.77,703.84 546.54,702.89 545.42,701.00
             544.16,698.86 542.66,697.70 541.43,695.00
             539.61,691.01 538.68,682.84 544.11,681.16
             545.30,680.98 547.70,681.01 549.00,681.16
             555.18,680.96 561.44,681.86 566.99,678.64
             572.05,675.69 573.13,671.85 577.01,670.77
             583.11,669.07 601.80,676.22 607.70,665.89
             608.54,664.43 609.23,661.69 609.77,660.00
             610.05,657.17 610.00,654.84 609.77,652.00
             610.00,649.06 609.44,639.75 610.99,637.70
             612.93,635.13 620.82,634.31 624.00,633.75
             630.44,632.62 640.09,628.90 645.96,625.95
             650.29,623.77 651.50,620.38 653.05,616.00
             653.69,614.20 654.09,611.19 655.59,610.02
             657.22,608.76 660.98,609.00 663.00,609.00
             663.00,609.00 680.00,609.00 680.00,609.00
             680.00,609.00 680.00,617.00 680.00,617.00
             680.01,620.59 679.89,624.68 681.43,628.00
             686.57,639.09 695.39,637.68 705.00,634.66
             707.72,633.81 710.63,633.06 713.00,631.44
             713.00,631.44 735.00,610.74 735.00,610.74
             738.91,608.31 745.44,609.00 750.00,609.00
             750.99,613.94 752.83,621.50 754.90,626.00
             758.40,633.62 775.84,655.76 782.09,661.58
             787.08,666.22 794.51,674.57 801.94,670.55
             804.40,669.21 805.42,667.71 805.85,664.98
             808.02,651.39 797.49,641.71 789.61,632.00
             777.25,616.77 768.36,604.30 772.00,584.00 Z" />
  <path id="Santa Elena"
        fill="none" stroke="black" stroke-width="1"
        d="M 325.00,862.00
           C 325.00,862.00 338.00,862.96 338.00,862.96
             346.49,863.29 345.70,861.41 352.00,859.63
             352.00,859.63 363.00,858.58 363.00,858.58
             367.05,858.04 371.34,857.26 375.00,859.60
             382.05,864.11 391.20,880.50 395.95,888.00
             400.69,895.46 401.86,896.39 407.20,903.00
             418.98,917.58 425.01,924.26 444.00,928.54
             452.01,930.34 456.39,926.03 462.00,921.05
             462.00,921.05 480.00,904.83 480.00,904.83
             483.01,902.11 487.67,896.35 492.00,896.64
             496.65,896.95 509.95,908.71 514.00,912.08
             523.71,920.17 542.65,933.95 555.00,936.80
             557.20,937.09 560.69,937.02 563.00,936.80
             574.71,936.86 586.06,930.28 598.00,930.01
             600.43,929.96 603.74,929.84 605.91,931.02
             609.24,932.84 611.57,937.71 613.24,941.00
             618.52,951.38 624.85,968.84 639.00,967.82
             643.29,967.51 647.72,965.78 652.00,966.83
             657.23,968.10 670.45,977.40 675.00,981.00
             675.00,981.00 699.00,1001.58 699.00,1001.58
             702.99,1005.03 711.02,1011.42 714.00,1015.00
             714.00,1015.00 693.00,1027.57 693.00,1027.57
             673.29,1038.85 664.74,1042.31 648.00,1059.00
             645.20,1061.80 641.96,1064.85 639.61,1068.00
             624.81,1087.81 621.06,1108.68 610.74,1130.00
             603.99,1143.95 590.92,1164.83 589.80,1180.00
             589.80,1180.00 589.80,1187.00 589.80,1187.00
             590.08,1189.94 589.81,1193.14 590.56,1196.00
             591.51,1199.67 595.94,1206.14 598.00,1210.00
             598.00,1210.00 587.00,1220.04 587.00,1220.04
             587.00,1220.04 568.00,1238.91 568.00,1238.91
             568.00,1238.91 541.00,1263.17 541.00,1263.17
             541.00,1263.17 530.00,1273.91 530.00,1273.91
             520.07,1283.16 501.65,1300.07 493.46,1310.00
             493.46,1310.00 461.56,1351.00 461.56,1351.00
             461.56,1351.00 451.26,1372.00 451.26,1372.00
             451.26,1372.00 441.69,1397.00 441.69,1397.00
             439.67,1402.68 438.85,1407.25 434.79,1412.00
             427.47,1420.55 407.79,1428.85 397.00,1432.69
             397.00,1432.69 379.00,1439.09 379.00,1439.09
             379.00,1439.09 328.00,1449.27 328.00,1449.27
             316.43,1450.94 304.71,1452.98 293.00,1453.00
             277.10,1453.02 256.44,1452.95 241.00,1449.49
             232.80,1447.65 220.83,1442.32 213.00,1438.86
             207.23,1436.31 193.55,1431.50 190.07,1426.67
             188.60,1424.63 186.89,1419.53 185.95,1417.00
             185.95,1417.00 181.19,1404.00 181.19,1404.00
             181.19,1404.00 181.19,1379.00 181.19,1379.00
             181.07,1373.14 182.11,1369.62 183.20,1364.00
             183.20,1364.00 185.75,1351.00 185.75,1351.00
             189.62,1337.18 198.55,1317.19 204.78,1304.00
             212.64,1287.36 221.00,1271.82 221.00,1253.00
             221.00,1253.00 242.00,1262.69 242.00,1262.69
             246.01,1264.55 256.69,1269.56 259.47,1272.39
             262.99,1275.96 266.19,1284.33 268.49,1289.00
             269.81,1291.68 271.94,1295.46 275.04,1296.29
             278.44,1297.21 281.47,1294.39 283.39,1291.96
             286.49,1288.06 291.81,1276.94 294.24,1272.00
             298.07,1264.20 305.17,1242.43 304.48,1234.00
             303.83,1226.00 294.12,1215.23 288.00,1210.39
             284.06,1207.27 271.84,1200.66 267.00,1198.58
             263.97,1197.28 256.48,1194.65 254.60,1192.44
             252.67,1190.18 253.01,1186.79 253.00,1184.00
             253.00,1184.00 253.00,1157.00 253.00,1157.00
             253.00,1157.00 252.00,1142.00 252.00,1142.00
             252.00,1142.00 251.00,1125.00 251.00,1125.00
             251.00,1125.00 249.17,1099.00 249.17,1099.00
             249.17,1099.00 245.64,1054.00 245.64,1054.00
             244.67,1048.25 242.51,1030.65 245.64,1026.30
             248.36,1023.04 258.05,1021.90 262.00,1022.18
             265.73,1022.45 277.88,1023.01 280.01,1025.72
             281.35,1027.43 281.89,1036.43 282.16,1039.00
             282.72,1044.09 285.80,1063.31 287.93,1067.00
             293.66,1076.91 309.77,1077.83 316.15,1067.91
             318.32,1064.53 318.68,1049.86 319.05,1045.00
             319.73,1036.24 324.27,1038.47 323.99,1026.00
             323.53,1006.05 304.74,1004.01 289.00,1004.00
             288.85,987.19 285.90,984.22 288.07,964.00
             288.07,964.00 288.07,957.05 288.07,957.05
             290.00,950.79 305.14,948.83 309.96,951.85
             318.83,957.43 313.67,970.33 326.00,976.28
             331.41,978.89 338.83,977.59 342.68,980.01
             345.47,981.76 348.30,988.07 355.00,992.45
             360.05,995.76 367.16,995.01 373.00,995.00
             379.03,994.99 396.46,993.95 393.92,984.09
             392.92,980.17 384.12,972.95 381.09,969.91
             381.09,969.91 360.91,948.00 360.91,948.00
             360.91,948.00 353.27,940.58 353.27,940.58
             350.13,937.15 345.83,922.87 342.74,917.00
             338.88,909.67 331.81,904.52 328.28,897.00
             325.20,890.46 325.00,869.84 325.00,862.00 Z" />
</svg>
