<?xml version="1.0" encoding="UTF-8" standalone="no"?>
<!DOCTYPE svg PUBLIC "-//W3C//DTD SVG 20010904//EN"
              "http://www.w3.org/TR/2001/REC-SVG-20010904/DTD/svg10.dtd">

<svg xmlns="http://www.w3.org/2000/svg"
     width="23.7914mm" height="19.812mm"
     viewBox="0 0 281 234">
  <path id="Mahinog"
        fill="none" stroke="black" stroke-width="1"
        d="M 163.00,130.00
           C 165.30,125.13 172.90,116.93 177.00,113.17
             179.31,111.06 181.60,109.42 183.61,106.96
             188.28,101.26 190.20,92.41 194.79,86.00
             196.68,83.36 202.88,75.50 206.61,77.17
             210.17,78.76 212.54,93.04 213.42,97.00
             215.55,106.57 218.81,115.90 222.45,125.00
             226.42,134.94 232.27,142.89 222.96,152.49
             220.13,155.41 215.74,154.92 212.00,155.42
             212.00,155.42 181.00,159.00 181.00,159.00
             175.44,148.67 171.54,147.70 168.98,143.00
             166.01,137.53 168.91,135.37 163.00,130.00 Z" />
  <path id="Guinsiliban"
        fill="none" stroke="black" stroke-width="1"
        d="M 182.00,161.00
           C 182.00,161.00 210.00,157.76 210.00,157.76
             213.84,157.61 219.33,156.25 223.00,157.76
             225.91,158.67 229.55,162.45 232.00,164.58
             235.12,167.28 238.61,170.01 240.11,174.00
             242.10,179.29 239.29,186.05 234.90,189.30
             231.48,191.83 228.16,191.45 224.18,195.22
             216.83,202.20 215.07,216.18 204.00,219.01
             201.05,219.78 197.99,219.22 195.00,219.01
             194.59,200.37 187.87,178.62 182.00,161.00 Z" />
  <path id="Sagay"
        fill="none" stroke="black" stroke-width="1"
        d="M 193.00,219.00
           C 191.31,218.50 190.65,218.49 189.09,217.41
             184.45,214.18 177.99,202.61 167.00,195.88
             157.57,189.98 155.84,196.09 147.00,195.88
             138.85,195.82 132.09,191.68 125.00,188.26
             119.20,185.46 113.52,185.96 114.17,178.00
             115.29,164.42 121.37,162.95 126.45,153.00
             130.19,145.67 129.21,128.25 136.11,123.94
             142.94,119.67 148.31,126.35 154.00,128.93
             157.01,130.29 161.17,130.46 163.26,132.70
             165.51,135.10 164.54,138.37 166.31,142.00
             168.75,147.00 174.38,149.77 178.87,159.00
             185.26,172.12 191.79,204.04 193.00,219.00 Z" />
  <path id="Catarman"
        fill="none" stroke="black" stroke-width="1"
        d="M 50.00,59.00
           C 57.57,64.35 68.85,75.28 76.00,81.91
             76.00,81.91 109.00,111.83 109.00,111.83
             109.00,111.83 122.00,123.10 122.00,123.10
             124.35,124.90 128.30,127.03 128.94,130.09
             129.31,131.87 128.00,136.95 127.61,139.00
             126.81,143.23 126.31,149.29 124.45,153.00
             124.45,153.00 114.44,168.00 114.44,168.00
             112.04,172.91 112.00,178.67 112.00,184.00
             106.70,183.03 99.70,182.14 95.00,179.59
             89.91,176.81 81.74,167.51 77.00,163.09
             72.26,158.67 64.18,152.68 60.53,148.00
             57.30,143.85 56.37,140.56 54.22,136.00
             54.22,136.00 47.77,122.00 47.77,122.00
             45.33,114.07 45.10,100.45 45.21,92.00
             44.91,84.80 42.18,70.50 45.21,64.17
             46.53,62.03 48.28,60.62 50.00,59.00 Z" />
  <path id="Mambajao"
        fill="none" stroke="black" stroke-width="1"
        d="M 131.00,127.00
           C 119.98,120.66 111.35,111.61 102.00,103.17
             102.00,103.17 72.00,76.03 72.00,76.03
             72.00,76.03 59.00,64.17 59.00,64.17
             56.74,62.11 53.68,60.09 52.90,56.99
             52.54,55.66 52.82,53.41 52.90,52.00
             53.54,42.87 59.47,42.65 65.91,36.70
             70.08,32.85 71.74,28.78 76.04,25.99
             82.54,21.77 94.21,21.75 102.00,20.19
             109.09,18.77 115.71,15.33 123.00,15.04
             133.94,14.60 139.21,19.17 148.00,24.68
             154.10,28.51 158.65,29.98 164.00,35.04
             177.70,47.98 186.04,63.92 203.00,73.00
             203.00,73.00 191.46,88.00 191.46,88.00
             191.46,88.00 183.04,104.91 183.04,104.91
             183.04,104.91 170.09,118.00 170.09,118.00
             167.62,120.64 164.12,125.47 161.00,126.96
             151.81,131.37 145.47,114.75 135.04,122.51
             133.18,123.90 132.34,125.19 131.00,127.00 Z" />
</svg>
