<?xml version="1.0" encoding="UTF-8" standalone="no"?>
<!DOCTYPE svg PUBLIC "-//W3C//DTD SVG 20010904//EN"
              "http://www.w3.org/TR/2001/REC-SVG-20010904/DTD/svg10.dtd">

<svg xmlns="http://www.w3.org/2000/svg"
     width="1399.91mm" height="903.142mm"
     viewBox="0 0 3252 2098">
  <path id="Umala"
        fill="none" stroke="black" stroke-width="1"
        d="M 1492.00,1472.00
           C 1492.00,1472.00 1493.00,1458.00 1493.00,1458.00
             1493.04,1433.98 1495.40,1420.39 1483.89,1398.00
             1483.89,1398.00 1462.86,1358.00 1462.86,1358.00
             1462.86,1358.00 1450.19,1323.00 1450.19,1323.00
             1446.43,1313.44 1438.24,1310.49 1438.52,1304.99
             1438.68,1301.94 1441.85,1296.09 1443.17,1293.17
             1443.17,1293.17 1447.20,1282.00 1447.20,1282.00
             1447.20,1282.00 1468.20,1230.00 1468.20,1230.00
             1468.20,1230.00 1474.60,1214.00 1474.60,1214.00
             1475.67,1211.33 1476.81,1207.64 1479.27,1205.98
             1481.25,1204.65 1488.32,1203.54 1491.00,1203.00
             1491.00,1203.00 1517.00,1197.60 1517.00,1197.60
             1517.00,1197.60 1605.00,1179.60 1605.00,1179.60
             1605.00,1179.60 1633.00,1174.00 1633.00,1174.00
             1636.02,1173.40 1642.09,1171.61 1644.79,1173.06
             1648.10,1174.84 1650.75,1182.54 1652.30,1186.00
             1659.42,1201.79 1660.31,1208.96 1660.00,1226.00
             1659.81,1235.78 1655.25,1233.10 1649.17,1237.08
             1645.30,1239.62 1642.52,1245.41 1642.49,1250.00
             1642.40,1263.41 1665.73,1263.74 1665.92,1278.00
             1666.06,1288.71 1657.03,1295.25 1657.10,1311.00
             1657.10,1311.00 1657.10,1327.00 1657.10,1327.00
             1658.04,1332.69 1660.50,1340.30 1658.40,1346.00
             1655.65,1353.46 1646.20,1354.64 1643.82,1365.00
             1643.82,1365.00 1642.54,1374.00 1642.54,1374.00
             1640.73,1383.97 1638.02,1389.12 1638.00,1400.00
             1638.00,1400.00 1641.00,1444.00 1641.00,1444.00
             1640.98,1455.40 1637.93,1461.05 1629.00,1468.38
             1626.73,1470.25 1623.17,1473.63 1620.00,1472.70
             1617.95,1472.10 1612.35,1466.66 1610.00,1464.92
             1604.17,1460.62 1594.31,1455.54 1587.00,1455.09
             1574.55,1454.32 1553.87,1464.90 1541.00,1468.57
             1525.46,1473.01 1508.09,1472.00 1492.00,1472.00 Z" />
  <path id="Pontevedra"
        fill="none" stroke="black" stroke-width="1"
        d="M 2039.00,846.00
           C 2039.00,846.00 2052.00,845.09 2052.00,845.09
             2080.96,843.06 2106.76,837.81 2135.00,831.58
             2152.55,827.70 2171.00,822.82 2189.00,822.04
             2210.67,821.10 2219.94,836.16 2237.00,837.00
             2237.91,843.39 2242.33,856.64 2250.67,848.65
             2252.14,847.24 2252.98,845.71 2254.00,844.00
             2254.00,844.00 2263.00,848.00 2263.00,848.00
             2262.86,857.32 2270.46,866.14 2271.58,874.00
             2272.25,878.65 2267.46,888.32 2263.81,891.15
             2261.81,892.71 2258.40,894.06 2256.00,895.00
             2253.74,895.87 2251.48,896.85 2249.00,896.48
             2244.45,895.81 2238.96,890.12 2234.21,892.92
             2227.89,896.65 2230.55,909.91 2224.77,913.91
             2219.32,917.69 2203.93,914.73 2196.02,917.89
             2187.22,921.40 2191.46,930.94 2187.41,935.35
             2183.83,939.25 2165.22,943.31 2162.60,950.09
             2160.60,955.27 2164.57,959.88 2169.00,961.93
             2178.65,966.39 2184.42,960.54 2195.00,969.33
             2199.77,973.29 2203.21,979.02 2209.00,981.70
             2214.42,984.21 2218.57,981.52 2225.00,985.70
             2225.00,985.70 2250.00,1005.91 2250.00,1005.91
             2254.85,1008.78 2260.51,1010.14 2266.00,1011.20
             2268.33,1011.64 2275.93,1012.71 2278.00,1012.44
             2285.26,1011.50 2294.06,1000.25 2300.00,997.85
             2304.03,996.23 2321.98,997.36 2328.00,997.00
             2328.00,997.00 2329.83,1022.00 2329.83,1022.00
             2329.83,1022.00 2330.74,1032.00 2330.74,1032.00
             2330.74,1032.00 2341.42,1045.00 2341.42,1045.00
             2341.42,1045.00 2355.96,1060.00 2355.96,1060.00
             2355.96,1060.00 2373.99,1079.00 2373.99,1079.00
             2373.99,1079.00 2421.01,1129.00 2421.01,1129.00
             2421.01,1129.00 2462.00,1173.00 2462.00,1173.00
             2462.00,1173.00 2439.00,1186.52 2439.00,1186.52
             2436.67,1188.09 2431.47,1192.83 2429.00,1192.81
             2426.25,1192.79 2420.13,1186.88 2418.00,1184.92
             2418.00,1184.92 2394.00,1163.17 2394.00,1163.17
             2392.04,1161.41 2387.06,1157.10 2385.00,1155.84
             2381.60,1153.75 2371.25,1150.44 2367.00,1149.00
             2367.00,1149.00 2341.00,1139.69 2341.00,1139.69
             2341.00,1139.69 2297.00,1124.52 2297.00,1124.52
             2297.00,1124.52 2249.00,1120.09 2249.00,1120.09
             2249.00,1120.09 2215.00,1117.17 2215.00,1117.17
             2210.70,1116.75 2205.19,1117.30 2201.61,1114.44
             2201.61,1114.44 2183.20,1092.00 2183.20,1092.00
             2183.20,1092.00 2164.21,1068.00 2164.21,1068.00
             2164.21,1068.00 2141.20,1031.00 2141.20,1031.00
             2141.20,1031.00 2135.32,1022.00 2135.32,1022.00
             2130.34,1015.52 2124.48,1011.10 2122.16,1003.00
             2118.35,989.76 2117.06,984.82 2117.00,971.00
             2117.00,971.00 2113.17,946.00 2113.17,946.00
             2111.71,932.32 2112.28,924.11 2105.73,911.00
             2096.73,893.00 2080.89,876.00 2065.00,863.88
             2065.00,863.88 2039.00,846.00 2039.00,846.00 Z
           M 2291.00,916.51
           C 2296.57,916.32 2298.13,918.21 2302.00,922.02
             2304.22,924.20 2307.15,927.06 2308.26,930.00
             2311.34,938.16 2304.33,952.65 2299.08,958.81
             2293.34,965.56 2284.81,964.25 2277.00,966.13
             2270.65,967.66 2269.79,970.72 2264.96,972.78
             2260.05,974.87 2249.48,975.07 2244.00,975.00
             2241.43,974.96 2239.46,974.96 2237.00,974.00
             2233.95,972.80 2219.70,962.30 2217.53,959.82
             2215.34,957.32 2211.34,951.07 2214.58,948.09
             2216.70,946.13 2226.74,944.55 2230.00,943.91
             2235.88,942.75 2255.07,938.06 2260.00,935.89
             2267.27,932.70 2270.58,926.12 2275.09,922.39
             2278.90,919.24 2286.14,917.50 2291.00,916.51 Z
           M 2256.00,991.00
           C 2260.15,988.06 2263.09,986.67 2268.00,985.28
             2268.00,985.28 2278.00,982.09 2278.00,982.09
             2281.12,981.07 2291.49,979.32 2289.66,985.97
             2288.89,988.79 2284.45,991.03 2282.00,992.21
             2273.74,996.20 2262.68,999.02 2256.00,991.00 Z" />
  <path id="Panitan"
        fill="none" stroke="black" stroke-width="1"
        d="M 1845.00,852.00
           C 1861.69,852.00 1878.66,852.41 1895.00,848.34
             1911.38,844.25 1916.80,835.97 1927.72,832.75
             1927.72,832.75 1969.00,829.57 1969.00,829.57
             1978.65,829.24 1988.73,828.87 1998.00,832.25
             1998.00,832.25 2020.00,844.12 2020.00,844.12
             2028.49,847.67 2030.38,844.32 2037.00,847.79
             2061.15,860.45 2093.70,887.67 2104.66,913.00
             2109.21,923.50 2109.99,933.71 2111.34,944.83
             2111.34,944.83 2113.71,959.00 2113.71,959.00
             2113.71,959.00 2114.81,977.00 2114.81,977.00
             2115.41,988.69 2122.98,1008.26 2121.05,1017.00
             2120.42,1019.83 2118.54,1023.07 2116.86,1025.42
             2102.65,1045.16 2065.53,1054.51 2043.00,1061.00
             2034.86,1063.35 2016.82,1068.68 2008.96,1068.95
             1998.74,1069.28 1989.98,1062.48 1981.00,1058.44
             1981.00,1058.44 1926.00,1035.61 1926.00,1035.61
             1909.47,1028.67 1893.07,1021.80 1878.00,1011.93
             1871.55,1007.70 1862.74,1001.34 1858.44,994.96
             1856.27,991.75 1853.72,987.04 1852.72,983.28
             1851.78,979.74 1852.11,975.68 1851.77,972.00
             1851.77,972.00 1850.00,938.00 1850.00,938.00
             1850.00,938.00 1849.00,917.00 1849.00,917.00
             1849.00,917.00 1848.07,901.00 1848.07,901.00
             1848.07,901.00 1846.86,878.00 1846.86,878.00
             1846.86,878.00 1845.00,852.00 1845.00,852.00 Z" />
  <path id="Pilar"
        fill="none" stroke="black" stroke-width="1"
        d="M 2436.00,903.00
           C 2442.31,905.10 2450.50,908.22 2457.00,908.83
             2460.20,909.13 2463.73,909.25 2465.26,905.85
             2467.64,900.58 2463.44,893.00 2466.60,889.72
             2470.10,886.10 2481.17,887.51 2485.14,881.79
             2487.34,878.62 2486.55,861.99 2495.09,859.43
             2498.06,858.54 2510.34,858.12 2514.00,857.96
             2514.00,857.96 2522.00,857.09 2522.00,857.09
             2522.00,857.09 2544.00,854.92 2544.00,854.92
             2547.40,854.35 2552.86,853.35 2556.00,852.19
             2566.58,848.29 2569.31,845.15 2582.00,845.00
             2589.62,844.91 2606.47,844.19 2613.00,841.08
             2621.25,837.16 2621.77,830.87 2632.00,822.46
             2632.00,822.46 2651.00,808.58 2651.00,808.58
             2651.00,808.58 2691.00,777.42 2691.00,777.42
             2707.26,765.68 2717.62,757.23 2738.00,753.61
             2738.00,753.61 2771.00,750.17 2771.00,750.17
             2778.33,749.46 2783.08,749.83 2790.00,746.10
             2808.14,736.31 2819.14,717.61 2834.00,704.17
             2837.02,701.44 2841.48,697.90 2845.00,695.88
             2849.46,693.32 2871.86,684.39 2877.00,683.00
             2877.00,683.00 2866.20,707.00 2866.20,707.00
             2859.75,722.99 2850.79,748.35 2839.53,761.08
             2835.24,765.94 2829.76,770.21 2824.00,773.21
             2817.83,776.42 2812.57,776.09 2809.00,783.02
             2806.59,787.68 2806.02,796.69 2806.00,802.00
             2806.00,802.00 2806.00,833.00 2806.00,833.00
             2806.00,833.00 2805.00,848.00 2805.00,848.00
             2791.59,860.15 2787.38,876.98 2777.10,889.72
             2770.85,897.47 2764.11,899.13 2760.13,905.02
             2757.24,909.31 2757.06,913.99 2757.00,919.00
             2756.96,923.55 2757.44,930.96 2755.50,935.00
             2750.00,946.40 2733.32,943.62 2724.39,954.09
             2718.74,960.71 2716.72,975.02 2714.87,983.58
             2714.87,983.58 2709.93,1000.58 2709.93,1000.58
             2708.18,1008.20 2713.19,1015.56 2718.16,1020.91
             2726.51,1029.91 2740.73,1041.65 2739.68,1055.00
             2738.60,1068.62 2732.28,1078.17 2724.59,1089.00
             2718.14,1098.08 2702.13,1115.54 2693.41,1121.76
             2687.69,1125.84 2668.94,1134.92 2662.17,1137.02
             2656.07,1138.91 2647.56,1138.19 2641.00,1139.00
             2641.00,1139.00 2632.42,1054.00 2632.42,1054.00
             2632.42,1054.00 2630.42,1033.00 2630.42,1033.00
             2630.12,1030.12 2630.35,1025.84 2628.40,1023.63
             2627.07,1022.13 2622.93,1020.20 2621.00,1019.14
             2621.00,1019.14 2604.00,1009.70 2604.00,1009.70
             2604.00,1009.70 2577.17,995.38 2577.17,995.38
             2568.21,990.70 2568.99,989.02 2558.00,989.00
             2558.00,989.00 2539.00,989.00 2539.00,989.00
             2539.00,989.00 2516.00,990.00 2516.00,990.00
             2516.00,990.00 2503.00,989.00 2503.00,989.00
             2499.71,988.97 2493.85,989.45 2491.04,987.98
             2488.50,986.65 2485.92,983.16 2483.91,981.00
             2483.91,981.00 2469.00,966.17 2469.00,966.17
             2454.07,952.66 2446.01,947.24 2438.01,928.00
             2434.21,918.86 2432.10,912.69 2436.00,903.00 Z
           M 2538.00,862.39
           C 2515.14,865.65 2499.90,872.61 2484.17,890.00
             2481.34,893.13 2472.91,902.20 2472.42,905.99
             2471.46,913.33 2484.83,918.80 2490.94,917.85
             2498.38,916.70 2494.00,905.99 2500.22,902.31
             2502.60,900.91 2506.31,901.01 2509.00,901.00
             2520.99,900.94 2530.98,903.26 2539.68,893.00
             2544.82,886.93 2553.38,875.13 2549.23,867.06
             2547.80,864.27 2546.01,863.12 2542.99,862.39
             2541.03,862.07 2539.93,862.20 2538.00,862.39 Z
           M 2441.00,863.38
           C 2445.49,862.84 2461.64,862.65 2466.00,863.38
             2468.29,863.64 2472.78,864.60 2473.55,867.18
             2474.41,870.09 2469.96,872.42 2468.00,873.68
             2462.39,877.29 2450.38,884.60 2444.00,885.49
             2429.29,887.55 2432.44,869.01 2435.72,865.72
             2437.19,864.26 2439.10,863.95 2441.00,863.38 Z" />
  <path id="Panay"
        fill="none" stroke="black" stroke-width="1"
        d="M 2236.00,835.00
           C 2220.06,832.54 2209.43,819.93 2193.00,819.85
             2173.35,819.75 2144.75,827.24 2125.00,831.58
             2102.26,836.57 2079.17,840.62 2056.00,842.96
             2056.00,842.96 2046.00,842.96 2046.00,842.96
             2046.00,842.96 2036.00,844.00 2036.00,844.00
             2016.43,844.23 2015.31,837.74 1999.00,830.87
             1989.99,827.08 1978.51,827.37 1976.17,826.40
             1973.28,825.20 1970.27,820.53 1968.37,818.00
             1962.51,810.15 1955.85,802.37 1956.51,792.00
             1957.15,781.88 1959.45,768.69 1969.00,763.08
             1969.00,763.08 1982.00,758.31 1982.00,758.31
             1990.36,755.26 2001.89,749.32 2001.85,739.00
             2001.80,726.65 1980.37,727.73 1973.30,721.35
             1970.31,718.65 1969.73,712.85 1969.08,709.00
             1967.65,700.50 1965.13,686.25 1966.44,678.00
             1967.15,673.52 1969.53,664.62 1976.00,667.13
             1978.72,668.19 1981.55,672.09 1985.00,673.83
             1987.59,675.13 1994.95,675.92 1998.00,675.99
             2001.03,676.05 2006.06,676.39 2007.98,673.57
             2009.90,670.75 2008.14,665.07 2007.37,662.00
             2005.24,653.42 2002.10,644.92 2002.00,636.00
             2001.79,617.18 2010.95,616.98 2016.46,602.00
             2016.46,602.00 2032.13,546.00 2032.13,546.00
             2032.13,546.00 2038.51,520.31 2038.51,520.31
             2039.84,518.02 2042.71,517.59 2045.00,516.68
             2045.00,516.68 2057.00,511.31 2057.00,511.31
             2069.22,505.73 2082.06,502.86 2095.00,499.63
             2095.00,499.63 2121.00,493.00 2121.00,493.00
             2123.68,497.48 2127.44,502.73 2127.89,508.00
             2128.57,515.87 2124.81,523.63 2119.00,528.70
             2114.58,532.56 2106.76,537.53 2104.47,543.00
             2102.62,547.41 2104.89,555.49 2106.15,560.00
             2110.98,577.18 2120.94,591.69 2127.55,608.00
             2131.68,618.20 2135.72,635.20 2144.10,642.77
             2148.55,646.79 2158.78,646.40 2165.00,647.15
             2173.31,648.16 2186.74,651.08 2192.61,657.33
             2196.90,661.89 2198.92,671.86 2199.00,678.00
             2199.00,678.00 2199.00,682.00 2199.00,682.00
             2198.97,683.62 2199.04,686.07 2197.98,687.40
             2195.04,691.10 2182.85,686.31 2179.00,685.12
             2172.71,683.16 2158.75,677.58 2153.00,677.21
             2141.65,676.49 2124.40,686.42 2124.34,699.00
             2124.29,710.73 2131.02,710.14 2139.01,713.85
             2145.21,716.72 2153.33,721.85 2157.78,727.04
             2162.25,732.26 2162.74,738.71 2160.44,745.00
             2158.29,750.91 2152.93,756.35 2159.23,762.67
             2161.81,765.27 2166.30,767.53 2170.00,767.73
             2176.86,768.09 2193.79,761.11 2200.00,757.69
             2203.71,755.64 2211.24,750.44 2211.85,746.00
             2212.20,743.41 2209.86,740.08 2208.48,738.00
             2205.01,732.73 2200.94,728.09 2199.00,722.00
             2205.06,719.17 2214.21,718.59 2221.00,718.03
             2223.75,717.76 2227.49,716.90 2229.99,718.03
             2235.28,720.54 2235.99,727.20 2246.00,730.08
             2253.56,732.25 2269.19,731.66 2266.58,743.00
             2264.68,751.26 2254.54,755.89 2250.74,762.00
             2247.63,767.00 2249.82,773.39 2248.69,778.00
             2247.97,780.93 2245.57,783.75 2243.57,785.96
             2242.13,787.55 2240.17,789.62 2238.00,790.12
             2234.34,790.96 2231.50,787.27 2229.00,785.21
             2224.14,781.21 2220.28,780.23 2215.11,784.42
             2208.65,789.53 2209.30,795.29 2215.11,800.47
             2220.32,805.01 2232.21,808.78 2239.00,807.67
             2242.11,807.16 2245.38,805.62 2248.00,803.89
             2262.63,794.27 2260.43,777.86 2269.63,765.00
             2274.61,758.05 2283.47,753.21 2284.63,744.00
             2285.35,738.35 2281.83,732.86 2277.96,729.09
             2267.59,718.99 2248.14,717.53 2241.43,710.47
             2237.64,706.48 2237.38,700.13 2242.06,696.70
             2246.88,693.17 2256.12,691.87 2262.00,692.01
             2272.27,692.26 2285.38,700.31 2294.00,705.68
             2297.65,707.96 2302.45,710.43 2304.77,714.09
             2307.18,717.90 2306.99,721.71 2307.00,726.00
             2307.01,735.16 2305.47,750.52 2310.65,758.00
             2318.92,769.95 2341.58,778.66 2344.90,797.00
             2347.55,811.60 2339.43,819.66 2329.00,828.57
             2317.52,838.38 2318.71,834.68 2307.00,839.45
             2298.75,842.81 2296.42,846.66 2292.00,847.69
             2286.90,848.88 2277.39,845.70 2272.00,844.82
             2262.47,843.27 2268.06,847.73 2256.00,842.00
             2256.00,842.00 2262.60,825.00 2262.60,825.00
             2263.79,821.97 2265.51,818.36 2264.25,815.09
             2260.68,805.85 2245.23,811.02 2240.21,816.19
             2234.91,821.64 2236.00,828.05 2236.00,835.00 Z
           M 2056.00,520.38
           C 2053.16,520.76 2049.60,521.11 2047.60,523.43
             2044.66,526.83 2045.98,539.17 2048.14,542.96
             2050.07,546.37 2054.81,549.52 2058.00,551.85
             2058.00,551.85 2080.00,567.34 2080.00,567.34
             2083.51,569.75 2088.56,574.00 2093.00,573.75
             2097.14,573.52 2102.96,568.41 2102.35,564.00
             2101.98,561.41 2098.49,557.16 2096.87,555.00
             2091.07,547.24 2074.74,526.32 2067.00,522.31
             2064.01,520.76 2059.35,520.40 2056.00,520.38 Z
           M 2134.01,540.04
           C 2135.73,539.55 2135.99,539.11 2138.00,539.49
             2143.77,540.57 2154.09,554.20 2158.08,559.00
             2167.67,570.55 2171.05,581.57 2175.53,586.95
             2181.44,594.05 2188.10,591.50 2193.70,596.42
             2196.32,598.71 2200.48,604.90 2202.39,608.00
             2206.32,614.38 2211.04,620.24 2207.64,628.00
             2206.75,630.01 2205.59,631.84 2203.79,633.16
             2199.08,636.60 2190.63,636.06 2185.00,636.00
             2174.79,635.88 2170.16,632.48 2161.00,629.72
             2157.67,628.72 2152.03,627.90 2149.65,625.49
             2147.23,623.06 2144.51,614.51 2143.33,611.00
             2143.33,611.00 2133.32,582.00 2133.32,582.00
             2128.35,568.86 2118.78,559.09 2128.80,545.00
             2130.62,542.45 2131.50,541.77 2134.01,540.04 Z
           M 2058.00,626.57
           C 2055.87,626.70 2053.37,626.72 2051.53,627.98
             2042.69,634.05 2048.01,654.29 2060.00,654.80
             2064.18,654.98 2082.26,652.13 2085.98,650.28
             2090.36,648.11 2093.11,643.92 2091.26,639.01
             2087.32,628.58 2067.41,627.04 2058.00,626.57 Z
           M 2228.02,643.63
           C 2240.10,643.22 2239.66,659.77 2238.42,668.00
             2237.89,671.49 2237.12,676.56 2233.00,677.66
             2229.58,678.58 2226.33,673.45 2224.81,671.00
             2221.57,665.77 2220.17,651.54 2223.93,646.28
             2225.26,644.42 2226.10,644.39 2228.02,643.63 Z
           M 2324.21,735.02
           C 2330.80,732.63 2338.46,735.49 2345.00,737.13
             2361.97,741.39 2379.07,748.35 2394.00,757.46
             2402.31,762.53 2414.54,771.82 2402.91,780.79
             2401.12,782.17 2398.04,784.01 2396.00,785.03
             2386.79,789.65 2369.41,794.19 2360.00,788.27
             2360.00,788.27 2338.00,766.17 2338.00,766.17
             2330.02,758.96 2311.31,746.12 2324.21,735.02 Z" />
  <path id="Roxas"
        fill="none" stroke="black" stroke-width="1"
        d="M 2179.00,412.00
           C 2177.57,414.56 2175.12,419.19 2172.62,420.71
             2169.37,422.69 2160.12,422.65 2157.02,423.89
             2151.77,425.99 2149.12,438.93 2142.84,430.77
             2142.23,429.98 2141.77,428.91 2141.40,427.98
             2140.97,426.88 2140.50,425.17 2140.36,424.00
             2139.97,420.75 2140.94,417.81 2142.53,415.00
             2144.43,411.64 2148.31,406.94 2152.00,405.60
             2157.21,403.70 2173.52,409.82 2179.00,412.00 Z
           M 1818.00,535.00
           C 1825.39,535.34 1838.70,539.97 1845.00,536.69
             1851.56,533.27 1855.09,524.57 1847.94,519.74
             1844.99,517.74 1841.40,518.01 1838.00,518.00
             1838.00,518.00 1817.00,519.07 1817.00,519.07
             1812.01,519.53 1808.76,520.69 1804.02,517.91
             1789.88,509.64 1803.98,493.68 1809.00,491.74
             1818.58,488.03 1827.94,496.92 1836.00,500.68
             1845.54,505.13 1862.43,507.12 1873.00,507.00
             1882.55,506.88 1882.33,504.49 1889.00,503.16
             1889.00,503.16 1907.00,503.16 1907.00,503.16
             1912.11,503.01 1917.27,503.22 1922.00,505.41
             1930.85,509.51 1929.67,512.94 1941.00,513.00
             1941.00,513.00 1981.00,510.95 1981.00,510.95
             1991.06,509.78 2000.46,505.50 2010.00,502.33
             2013.39,501.21 2019.16,498.90 2022.48,500.99
             2024.41,502.20 2026.65,506.06 2028.04,508.00
             2030.26,511.10 2034.99,515.56 2035.60,519.00
             2036.14,522.11 2031.66,538.87 2030.63,543.00
             2030.63,543.00 2019.71,583.00 2019.71,583.00
             2018.02,588.89 2015.28,600.03 2012.68,605.00
             2007.34,615.17 1998.37,623.52 1999.32,636.00
             2000.01,644.95 2003.06,653.34 2005.12,662.00
             2005.66,664.31 2007.42,670.30 2005.97,672.26
             2004.06,674.85 1998.66,673.60 1996.00,673.28
             1992.70,672.89 1988.99,673.32 1986.00,671.83
             1979.44,668.55 1974.02,658.19 1967.00,669.04
             1966.04,670.52 1965.39,672.31 1964.93,674.00
             1964.13,676.90 1964.04,679.04 1964.00,682.00
             1964.00,682.00 1964.00,687.00 1964.00,687.00
             1964.09,694.17 1966.04,704.81 1967.39,712.00
             1968.11,715.84 1968.26,719.71 1971.28,722.59
             1974.80,725.94 1986.92,729.15 1992.00,731.05
             1997.00,732.93 2000.62,734.84 1999.43,741.00
             1996.69,755.20 1973.90,756.60 1966.02,762.50
             1956.21,769.83 1951.22,791.80 1955.95,803.00
             1959.20,810.68 1967.51,819.19 1972.00,827.00
             1972.00,827.00 1947.00,828.91 1947.00,828.91
             1942.25,829.24 1931.18,829.60 1927.00,830.79
             1918.70,833.15 1912.89,839.80 1902.00,843.94
             1887.77,849.34 1868.16,850.03 1853.00,850.00
             1851.05,850.00 1847.29,850.26 1845.74,849.01
             1843.91,847.54 1843.43,842.29 1843.15,840.00
             1842.04,830.78 1840.89,825.53 1841.00,816.00
             1841.27,793.74 1862.81,783.79 1864.47,764.00
             1865.83,747.89 1843.81,742.86 1832.33,729.00
             1824.16,719.14 1824.34,706.11 1811.99,694.04
             1809.82,691.93 1807.63,690.04 1805.00,688.53
             1799.22,685.23 1784.44,681.63 1778.00,683.65
             1770.49,686.00 1770.49,691.69 1760.00,691.98
             1747.82,692.32 1752.39,689.44 1744.00,684.35
             1738.13,680.79 1731.20,678.82 1726.34,673.70
             1722.72,669.89 1716.41,651.90 1714.34,646.00
             1712.50,640.73 1708.07,629.23 1709.43,624.00
             1712.21,613.37 1725.82,609.84 1735.00,608.00
             1741.63,606.67 1754.00,602.89 1760.00,603.21
             1760.00,603.21 1804.00,608.84 1804.00,608.84
             1813.73,607.54 1811.58,594.07 1819.04,591.64
             1827.05,589.04 1838.61,608.43 1841.86,595.98
             1841.86,595.98 1842.74,592.00 1842.74,592.00
             1842.88,589.87 1843.04,588.17 1842.74,586.00
             1842.13,573.49 1833.65,568.62 1822.00,570.44
             1815.66,571.43 1808.07,575.59 1804.18,567.98
             1801.14,562.04 1807.01,560.11 1811.36,554.00
             1815.04,548.84 1816.76,541.17 1818.00,535.00 Z
           M 1984.00,516.28
           C 1976.77,517.32 1958.95,516.22 1954.15,518.56
             1949.32,520.91 1950.18,528.99 1957.02,532.43
             1965.00,536.46 1975.55,534.02 1984.00,537.13
             1994.83,541.12 1998.14,552.92 2008.00,551.63
             2022.54,549.73 2015.99,528.39 2010.07,521.17
             2008.70,519.49 2006.96,517.84 2004.96,516.93
             2001.57,515.40 1988.17,515.90 1984.00,516.28 Z
           M 1870.00,524.43
           C 1867.79,525.31 1867.03,525.45 1865.22,527.23
             1861.76,530.64 1858.40,539.38 1861.74,543.73
             1864.50,547.33 1869.30,546.57 1872.15,550.27
             1872.15,550.27 1875.56,556.99 1875.56,556.99
             1879.06,561.99 1889.65,568.65 1896.00,567.57
             1899.07,567.05 1902.50,564.87 1905.00,563.08
             1908.17,560.80 1913.67,556.93 1914.53,552.99
             1915.76,547.27 1908.64,540.95 1905.29,537.00
             1905.29,537.00 1899.70,530.42 1899.70,530.42
             1894.10,525.50 1877.31,523.32 1870.00,524.43 Z
           M 1872.00,603.50
           C 1862.75,605.03 1862.91,613.32 1863.00,621.00
             1863.11,629.73 1865.46,636.56 1875.00,638.21
             1876.31,638.26 1878.71,638.57 1879.98,638.21
             1887.99,637.10 1889.99,621.45 1889.86,615.00
             1889.82,612.88 1890.08,610.20 1888.97,608.33
             1886.03,603.38 1877.06,603.31 1872.00,603.50 Z
           M 1909.00,606.51
           C 1899.02,610.37 1900.83,617.40 1898.51,626.00
             1896.31,634.16 1889.22,646.16 1901.00,650.85
             1902.58,651.48 1904.32,651.79 1906.00,651.90
             1907.90,652.04 1910.17,651.92 1912.00,651.35
             1915.28,650.32 1917.49,648.27 1920.00,646.05
             1926.26,640.50 1929.76,634.76 1928.50,626.00
             1927.68,620.40 1921.30,608.65 1915.96,606.51
             1913.70,605.73 1911.31,606.09 1909.00,606.51 Z" />
  <path id="Dumarao"
        fill="none" stroke="black" stroke-width="1"
        d="M 1660.42,1349.03
           C 1664.52,1347.83 1668.84,1349.39 1673.00,1350.08
             1673.00,1350.08 1698.00,1354.41 1698.00,1354.41
             1698.00,1354.41 1790.00,1370.58 1790.00,1370.58
             1790.00,1370.58 1995.00,1406.42 1995.00,1406.42
             1995.00,1406.42 2118.00,1428.08 2118.00,1428.08
             2118.00,1428.08 2222.00,1446.25 2222.00,1446.25
             2222.00,1446.25 2244.00,1450.20 2244.00,1450.20
             2246.11,1450.60 2250.68,1451.02 2252.16,1452.74
             2253.27,1454.41 2252.45,1457.09 2252.16,1459.00
             2251.42,1472.10 2262.57,1484.01 2260.56,1497.00
             2257.39,1517.45 2244.78,1534.56 2236.31,1553.00
             2236.31,1553.00 2223.69,1584.00 2223.69,1584.00
             2217.57,1601.18 2212.42,1618.61 2204.25,1635.00
             2198.68,1646.16 2190.83,1662.35 2179.00,1667.81
             2173.90,1670.17 2162.76,1670.99 2157.00,1671.00
             2157.00,1671.00 2110.00,1671.00 2110.00,1671.00
             2110.00,1671.00 2093.00,1670.00 2093.00,1670.00
             2093.00,1670.00 2064.00,1669.00 2064.00,1669.00
             2064.00,1669.00 2046.00,1668.00 2046.00,1668.00
             2042.39,1667.95 2027.72,1667.44 2026.06,1664.69
             2024.13,1661.48 2028.42,1652.07 2028.80,1648.00
             2029.39,1641.71 2025.51,1634.48 2022.75,1629.00
             2022.75,1629.00 1999.40,1590.00 1999.40,1590.00
             1996.49,1585.15 1987.57,1568.28 1983.90,1565.85
             1981.32,1564.16 1978.00,1563.92 1975.00,1564.09
             1975.00,1564.09 1911.00,1578.52 1911.00,1578.52
             1898.72,1579.73 1897.77,1563.29 1887.00,1561.43
             1879.87,1560.20 1878.60,1566.84 1867.00,1567.00
             1858.79,1567.11 1848.55,1565.23 1841.00,1568.21
             1835.83,1570.26 1826.66,1577.88 1822.00,1581.60
             1813.04,1588.74 1798.71,1599.07 1788.00,1602.91
             1773.71,1608.04 1766.89,1603.85 1754.00,1599.52
             1746.02,1596.83 1729.18,1592.64 1721.00,1593.05
             1711.99,1593.50 1706.82,1602.67 1700.00,1607.35
             1695.82,1610.22 1692.80,1609.99 1688.00,1610.04
             1688.00,1610.04 1675.00,1610.04 1675.00,1610.04
             1675.00,1610.04 1664.00,1611.00 1664.00,1611.00
             1664.00,1611.00 1644.00,1611.00 1644.00,1611.00
             1633.91,1610.98 1633.15,1607.23 1626.00,1600.00
             1626.00,1600.00 1599.00,1571.00 1599.00,1571.00
             1599.00,1571.00 1580.00,1551.00 1580.00,1551.00
             1577.97,1548.96 1573.46,1544.87 1573.05,1542.00
             1572.67,1539.39 1574.92,1536.92 1576.40,1535.00
             1576.40,1535.00 1588.40,1520.00 1588.40,1520.00
             1588.40,1520.00 1611.80,1491.00 1611.80,1491.00
             1611.80,1491.00 1623.51,1476.09 1623.51,1476.09
             1628.16,1470.67 1634.59,1466.60 1639.20,1460.00
             1643.60,1453.70 1643.28,1447.33 1643.08,1440.00
             1643.08,1440.00 1640.00,1402.00 1640.00,1402.00
             1640.02,1391.19 1642.52,1385.12 1644.55,1375.00
             1645.27,1371.44 1645.93,1363.91 1647.45,1361.17
             1649.10,1358.21 1657.46,1351.21 1660.42,1349.03 Z" />
  <path id="Cuartero"
        fill="none" stroke="black" stroke-width="1"
        d="M 1661.00,1346.00
           C 1661.00,1346.00 1658.63,1308.00 1658.63,1308.00
             1658.63,1308.00 1660.93,1298.83 1660.93,1298.83
             1660.93,1298.83 1664.61,1292.00 1664.61,1292.00
             1665.85,1289.52 1668.69,1279.66 1668.50,1277.00
             1667.64,1265.05 1650.72,1262.46 1646.26,1254.83
             1643.82,1250.63 1644.90,1243.06 1648.51,1239.82
             1649.95,1238.51 1652.19,1237.80 1654.00,1237.17
             1656.07,1236.45 1658.86,1235.48 1661.00,1235.23
             1661.00,1235.23 1686.00,1237.09 1686.00,1237.09
             1689.23,1237.32 1690.58,1237.90 1694.00,1237.82
             1700.62,1237.26 1699.18,1237.71 1705.00,1237.82
             1712.77,1238.30 1720.43,1237.19 1728.04,1235.75
             1728.04,1235.75 1779.00,1223.91 1779.00,1223.91
             1779.00,1223.91 1789.00,1223.91 1789.00,1223.91
             1808.82,1223.04 1826.31,1229.65 1845.17,1234.70
             1845.17,1234.70 1856.00,1237.54 1856.00,1237.54
             1872.76,1240.56 1898.60,1238.36 1914.01,1243.39
             1931.54,1249.11 1942.67,1281.09 1961.00,1285.67
             1961.00,1285.67 2002.09,1289.99 2002.09,1289.99
             2017.38,1294.45 2035.15,1306.89 2051.32,1306.30
             2058.49,1306.04 2075.16,1298.59 2083.01,1295.59
             2088.52,1293.48 2093.96,1291.08 2100.00,1292.39
             2108.87,1294.30 2117.31,1304.07 2126.00,1307.96
             2136.57,1312.69 2147.78,1310.67 2154.24,1318.07
             2161.89,1326.83 2164.52,1345.46 2172.33,1352.53
             2178.57,1358.18 2189.61,1356.20 2195.82,1361.36
             2199.75,1364.62 2202.38,1370.68 2205.44,1375.00
             2205.44,1375.00 2222.31,1395.97 2222.31,1395.97
             2222.31,1395.97 2245.00,1419.96 2245.00,1419.96
             2251.90,1426.55 2257.04,1429.68 2263.00,1438.00
             2263.00,1438.00 2252.83,1448.43 2252.83,1448.43
             2252.83,1448.43 2237.96,1446.95 2237.96,1446.95
             2237.96,1446.95 2214.00,1442.61 2214.00,1442.61
             2214.00,1442.61 2160.72,1433.53 2160.72,1433.53
             2160.72,1433.53 2114.09,1425.10 2114.09,1425.10
             2114.09,1425.10 2080.00,1419.09 2080.00,1419.09
             2080.00,1419.09 2023.00,1409.09 2023.00,1409.09
             2023.00,1409.09 1989.72,1403.53 1989.72,1403.53
             1989.72,1403.53 1852.00,1379.09 1852.00,1379.09
             1852.00,1379.09 1818.72,1373.53 1818.72,1373.53
             1818.72,1373.53 1721.72,1356.53 1721.72,1356.53
             1721.72,1356.53 1661.00,1346.00 1661.00,1346.00 Z" />
  <path id="Ivisan"
        fill="none" stroke="black" stroke-width="1"
        d="M 1604.00,610.00
           C 1604.00,610.00 1623.00,603.00 1623.00,603.00
             1626.62,611.64 1625.76,620.88 1626.85,630.00
             1627.20,633.00 1627.56,638.39 1629.01,640.95
             1633.46,648.83 1649.77,647.97 1656.96,654.22
             1656.96,654.22 1687.75,694.00 1687.75,694.00
             1693.72,701.14 1700.67,708.12 1710.00,710.49
             1717.70,712.44 1722.78,712.24 1729.00,706.81
             1731.59,704.55 1735.52,699.42 1738.09,698.29
             1738.09,698.29 1745.00,696.85 1745.00,696.85
             1748.03,695.78 1749.55,694.11 1753.00,693.98
             1755.60,693.80 1759.53,695.17 1763.99,693.98
             1769.19,692.69 1772.96,687.97 1778.00,686.00
             1784.74,683.36 1800.86,687.86 1806.57,691.68
             1821.08,701.39 1821.68,721.10 1833.09,732.96
             1841.20,741.40 1858.81,747.80 1861.81,759.00
             1863.39,764.92 1860.99,770.89 1858.23,776.00
             1858.23,776.00 1840.62,804.91 1840.62,804.91
             1835.81,817.67 1841.82,836.52 1842.00,850.00
             1812.67,850.00 1784.09,846.08 1755.00,843.17
             1755.00,843.17 1720.00,840.26 1720.00,840.26
             1714.89,839.75 1710.04,839.93 1705.00,838.38
             1705.00,838.38 1670.00,820.26 1670.00,820.26
             1670.00,820.26 1600.00,783.00 1600.00,783.00
             1601.90,772.68 1591.22,770.08 1583.00,770.26
             1580.38,770.08 1576.46,771.13 1574.29,770.26
             1572.38,769.84 1571.28,768.41 1570.00,767.00
             1576.55,764.11 1585.04,762.75 1588.55,756.00
             1594.49,744.57 1583.65,740.57 1591.36,728.09
             1593.53,724.58 1596.73,722.64 1600.00,720.29
             1609.19,713.70 1617.60,707.85 1621.98,697.00
             1624.79,690.05 1624.25,683.41 1616.91,679.45
             1610.46,675.97 1598.53,681.20 1594.61,677.98
             1592.12,675.93 1594.61,672.48 1592.94,669.04
             1590.35,663.72 1582.23,662.71 1577.00,662.00
             1577.00,662.00 1581.38,650.00 1581.38,650.00
             1582.16,645.16 1579.16,640.71 1584.79,634.23
             1585.79,633.07 1586.66,632.33 1588.09,631.74
             1590.32,630.81 1607.85,630.98 1606.51,619.00
             1606.51,619.00 1604.00,610.00 1604.00,610.00 Z" />
  <path id="President Roxas"
        fill="none" stroke="black" stroke-width="1"
        d="M 2421.00,873.00
           C 2406.18,876.48 2402.96,886.53 2383.00,886.99
             2371.98,887.24 2363.39,884.65 2363.04,872.00
             2362.99,869.94 2363.07,867.89 2364.02,866.01
             2365.14,863.81 2370.99,858.09 2373.09,856.56
             2378.46,852.65 2382.52,855.75 2388.00,857.66
             2394.61,859.95 2411.66,863.80 2415.96,866.85
             2418.68,868.78 2419.45,870.19 2421.00,873.00 Z
           M 2330.00,997.00
           C 2334.35,996.61 2339.54,995.69 2342.26,991.87
             2344.97,988.07 2344.22,978.09 2347.56,972.00
             2350.50,966.62 2356.32,961.58 2360.26,956.83
             2360.26,956.83 2366.85,948.00 2366.85,948.00
             2369.79,943.89 2372.75,939.29 2372.36,934.00
             2371.91,927.66 2367.72,920.71 2363.56,916.09
             2361.61,913.92 2356.20,909.94 2356.20,907.10
             2356.20,903.19 2365.88,900.54 2369.00,899.76
             2376.99,897.75 2382.12,901.88 2389.00,905.24
             2391.46,906.44 2396.12,908.80 2398.87,908.10
             2402.90,907.08 2402.51,901.83 2403.72,899.17
             2405.96,894.28 2416.82,887.93 2422.00,890.55
             2425.22,892.18 2432.34,898.43 2433.08,902.00
             2433.62,904.62 2431.75,906.92 2432.04,914.00
             2432.28,919.96 2434.78,926.64 2437.32,932.00
             2444.58,947.31 2447.86,948.14 2459.00,959.01
             2459.00,959.01 2477.00,977.00 2477.00,977.00
             2480.26,980.26 2488.15,988.98 2492.00,990.40
             2493.94,991.12 2496.91,991.00 2499.00,991.00
             2499.00,991.00 2517.00,992.00 2517.00,992.00
             2517.00,992.00 2559.00,992.00 2559.00,992.00
             2570.67,992.02 2571.44,994.79 2581.00,999.97
             2581.00,999.97 2604.00,1012.13 2604.00,1012.13
             2604.00,1012.13 2620.00,1020.72 2620.00,1020.72
             2622.46,1022.14 2626.12,1023.81 2627.52,1026.38
             2629.08,1029.28 2628.83,1036.48 2629.03,1040.00
             2629.03,1040.00 2631.08,1061.00 2631.08,1061.00
             2631.08,1061.00 2639.00,1138.96 2639.00,1138.96
             2639.00,1138.96 2623.00,1138.96 2623.00,1138.96
             2623.00,1138.96 2611.00,1138.00 2611.00,1138.00
             2611.00,1138.00 2591.00,1138.00 2591.00,1138.00
             2591.00,1138.00 2575.00,1137.00 2575.00,1137.00
             2575.00,1137.00 2547.00,1137.00 2547.00,1137.00
             2547.00,1137.00 2517.00,1139.51 2517.00,1139.51
             2505.45,1142.11 2490.17,1155.19 2480.00,1162.00
             2476.91,1164.07 2468.50,1170.51 2465.00,1170.01
             2461.74,1169.54 2455.45,1162.53 2453.09,1160.00
             2453.09,1160.00 2425.99,1131.00 2425.99,1131.00
             2425.99,1131.00 2378.04,1081.00 2378.04,1081.00
             2378.04,1081.00 2366.00,1068.00 2366.00,1068.00
             2366.00,1068.00 2347.00,1048.00 2347.00,1048.00
             2342.98,1043.98 2335.65,1037.08 2333.42,1032.00
             2331.53,1027.70 2332.22,1023.47 2331.91,1019.00
             2331.91,1019.00 2330.00,997.00 2330.00,997.00 Z
           M 2370.00,971.34
           C 2358.77,974.35 2353.96,985.46 2347.34,994.00
             2344.44,997.74 2339.12,1003.57 2337.70,1008.00
             2335.21,1015.79 2342.28,1024.52 2350.00,1024.96
             2352.51,1025.10 2355.70,1025.01 2357.96,1023.83
             2364.39,1020.46 2371.94,1005.97 2376.53,1000.00
             2379.30,996.40 2384.18,992.41 2385.31,988.00
             2386.52,983.29 2382.55,970.20 2370.00,971.34 Z" />
  <path id="Sapi-an"
        fill="none" stroke="black" stroke-width="1"
        d="M 1413.00,664.00
           C 1425.82,665.30 1433.05,651.77 1444.00,658.09
             1446.02,659.25 1447.90,660.92 1448.98,663.02
             1449.98,664.95 1449.96,666.89 1450.00,669.00
             1450.00,669.00 1450.00,692.00 1450.00,692.00
             1450.00,692.00 1451.00,708.00 1451.00,708.00
             1451.00,708.00 1451.00,736.00 1451.00,736.00
             1450.99,744.38 1450.12,747.08 1445.11,754.00
             1442.03,758.25 1435.65,765.42 1436.52,771.00
             1437.21,775.43 1440.45,778.65 1445.00,776.71
             1451.32,774.01 1458.97,765.53 1465.67,773.23
             1470.55,778.84 1462.09,783.30 1460.28,788.00
             1458.60,792.37 1463.72,797.24 1467.17,799.23
             1471.62,801.81 1479.39,800.79 1481.97,795.94
             1484.66,790.91 1479.01,783.85 1485.15,780.16
             1489.39,777.87 1502.22,780.06 1508.00,780.16
             1519.29,779.86 1522.33,775.59 1531.00,776.09
             1537.44,776.46 1542.42,779.32 1549.00,777.04
             1558.82,773.62 1566.05,763.84 1571.00,773.00
             1564.53,774.84 1554.04,780.54 1551.41,787.00
             1548.86,793.26 1556.91,808.67 1569.00,808.25
             1576.43,807.99 1580.37,800.75 1585.09,796.09
             1587.89,793.33 1596.43,787.38 1600.00,785.00
             1600.00,785.00 1645.00,809.31 1645.00,809.31
             1645.00,809.31 1677.00,826.31 1677.00,826.31
             1677.00,826.31 1703.00,840.00 1703.00,840.00
             1700.17,845.49 1691.77,851.86 1687.00,856.17
             1687.00,856.17 1657.00,883.58 1657.00,883.58
             1653.34,886.75 1645.18,895.57 1641.00,896.31
             1637.38,896.94 1626.03,891.56 1622.00,890.05
             1622.00,890.05 1591.00,878.00 1591.00,878.00
             1583.81,875.13 1577.90,872.01 1570.00,872.01
             1570.00,872.01 1538.00,874.83 1538.00,874.83
             1538.00,874.83 1485.00,879.17 1485.00,879.17
             1485.00,879.17 1451.00,881.96 1451.00,881.96
             1451.00,881.96 1425.00,876.21 1425.00,876.21
             1425.00,876.21 1356.00,859.37 1356.00,859.37
             1356.00,859.37 1309.00,847.87 1309.00,847.87
             1305.52,847.00 1292.84,844.51 1290.95,842.28
             1289.33,840.36 1287.93,829.10 1287.41,826.00
             1287.41,826.00 1282.60,796.00 1282.60,796.00
             1282.60,796.00 1284.00,781.00 1284.00,781.00
             1284.01,772.59 1283.25,757.54 1285.85,750.00
             1285.85,750.00 1298.69,727.00 1298.69,727.00
             1301.79,721.27 1307.43,709.25 1313.04,706.16
             1316.72,704.13 1322.85,704.01 1327.00,704.00
             1327.00,704.00 1352.00,704.00 1352.00,704.00
             1352.00,704.00 1367.00,705.00 1367.00,705.00
             1367.00,705.00 1385.00,705.00 1385.00,705.00
             1391.24,704.92 1401.13,703.88 1405.95,699.73
             1412.09,694.42 1410.61,689.99 1411.09,683.00
             1411.09,683.00 1413.00,664.00 1413.00,664.00 Z
           M 1438.00,814.34
           C 1431.89,815.97 1425.32,821.20 1420.00,821.91
             1414.35,822.68 1411.77,818.67 1408.00,818.57
             1405.97,818.52 1393.03,824.29 1391.04,825.70
             1388.28,827.65 1386.52,830.23 1384.67,833.00
             1379.94,840.09 1378.15,845.27 1383.13,853.00
             1384.65,855.35 1386.47,857.42 1389.01,858.69
             1393.10,860.73 1406.80,860.01 1412.00,860.00
             1418.30,859.99 1427.94,858.74 1432.30,853.61
             1435.19,850.22 1434.18,846.62 1439.13,841.00
             1443.18,836.41 1450.78,831.64 1452.87,826.00
             1455.96,817.65 1444.45,813.65 1438.00,814.34 Z" />
  <path id="Ma-ayon"
        fill="none" stroke="black" stroke-width="1"
        d="M 2124.00,1013.00
           C 2133.79,1020.35 2141.46,1035.47 2148.05,1046.00
             2148.05,1046.00 2161.75,1068.00 2161.75,1068.00
             2161.75,1068.00 2183.80,1096.00 2183.80,1096.00
             2187.32,1100.36 2199.10,1115.82 2203.01,1117.83
             2206.13,1119.42 2220.58,1119.76 2225.00,1120.28
             2225.00,1120.28 2275.00,1124.83 2275.00,1124.83
             2275.00,1124.83 2296.00,1126.67 2296.00,1126.67
             2296.00,1126.67 2350.00,1145.31 2350.00,1145.31
             2350.00,1145.31 2385.00,1158.33 2385.00,1158.33
             2385.00,1158.33 2427.00,1195.00 2427.00,1195.00
             2427.00,1195.00 2420.29,1216.00 2420.29,1216.00
             2415.84,1237.15 2417.52,1261.51 2424.35,1282.00
             2428.81,1295.36 2435.52,1307.78 2442.42,1320.00
             2446.21,1326.70 2452.20,1335.46 2453.00,1343.00
             2444.53,1343.71 2433.86,1347.93 2427.00,1352.93
             2418.91,1358.82 2414.16,1365.22 2404.00,1369.24
             2384.77,1376.86 2354.57,1370.78 2335.00,1384.79
             2335.00,1384.79 2311.00,1407.83 2311.00,1407.83
             2302.95,1415.01 2293.33,1420.15 2284.00,1425.42
             2280.97,1427.14 2268.43,1434.92 2266.00,1434.76
             2262.79,1434.54 2258.42,1429.36 2256.00,1427.17
             2256.00,1427.17 2232.09,1404.00 2232.09,1404.00
             2224.12,1395.45 2216.25,1386.50 2209.43,1377.00
             2206.54,1372.97 2199.94,1361.91 2196.90,1359.43
             2190.26,1354.01 2178.15,1356.57 2172.63,1349.87
             2166.05,1341.86 2161.49,1319.29 2151.91,1313.22
             2146.44,1309.76 2133.99,1309.28 2127.00,1306.27
             2117.45,1302.17 2106.02,1288.76 2096.00,1289.39
             2085.66,1290.04 2060.15,1305.06 2049.00,1304.22
             2026.60,1302.52 2011.66,1286.12 1987.00,1286.00
             1978.15,1285.96 1962.49,1285.65 1955.00,1281.01
             1948.02,1276.68 1937.66,1261.84 1931.71,1255.00
             1929.32,1252.25 1924.80,1247.63 1922.00,1245.39
             1920.23,1243.97 1917.54,1242.66 1916.57,1240.61
             1915.71,1238.82 1915.03,1230.30 1915.00,1228.00
             1915.00,1228.00 1915.00,1197.00 1915.00,1197.00
             1915.00,1197.00 1916.76,1171.00 1916.76,1171.00
             1916.43,1168.69 1915.53,1166.99 1914.37,1165.00
             1914.37,1165.00 1894.00,1139.00 1894.00,1139.00
             1890.25,1134.25 1885.83,1129.45 1886.93,1123.00
             1888.70,1112.58 1897.61,1089.62 1908.00,1085.84
             1919.36,1081.70 1931.41,1087.13 1938.61,1079.66
             1944.68,1073.36 1943.00,1053.75 1943.00,1045.00
             1943.00,1045.00 1982.00,1061.25 1982.00,1061.25
             1991.15,1065.61 1998.64,1071.22 2009.00,1070.99
             2017.36,1070.80 2035.36,1065.49 2044.00,1063.00
             2063.61,1057.35 2083.29,1052.11 2101.00,1041.55
             2111.82,1035.10 2121.96,1025.99 2124.00,1013.00 Z" />
  <path id="Dao"
        fill="none" stroke="black" stroke-width="1"
        d="M 1662.00,1233.00
           C 1662.00,1233.00 1662.82,1218.00 1662.82,1218.00
             1662.33,1211.17 1660.81,1202.49 1658.65,1196.00
             1658.65,1196.00 1647.25,1169.00 1647.25,1169.00
             1646.87,1165.35 1649.50,1157.80 1650.58,1154.00
             1650.58,1154.00 1659.58,1123.00 1659.58,1123.00
             1659.58,1123.00 1666.14,1100.00 1666.14,1100.00
             1666.93,1097.20 1667.98,1091.83 1670.43,1090.17
             1672.20,1088.98 1683.25,1088.16 1686.00,1087.98
             1686.00,1087.98 1712.00,1085.17 1712.00,1085.17
             1717.39,1084.63 1721.30,1085.17 1726.00,1081.70
             1733.92,1075.86 1749.24,1059.67 1757.00,1052.00
             1763.28,1045.80 1767.81,1040.06 1777.00,1040.04
             1777.00,1040.04 1792.00,1040.04 1792.00,1040.04
             1792.00,1040.04 1802.00,1041.08 1802.00,1041.08
             1802.00,1041.08 1822.00,1041.08 1822.00,1041.08
             1826.32,1041.58 1830.98,1043.08 1834.91,1040.40
             1834.91,1040.40 1850.61,1021.39 1850.61,1021.39
             1853.78,1018.40 1858.95,1016.82 1863.00,1015.20
             1866.25,1013.90 1870.48,1011.74 1874.00,1012.55
             1874.00,1012.55 1889.00,1020.74 1889.00,1020.74
             1889.00,1020.74 1926.00,1037.99 1926.00,1037.99
             1929.18,1039.30 1939.04,1042.55 1940.43,1045.41
             1941.14,1046.89 1941.00,1050.30 1941.00,1052.00
             1941.01,1058.97 1941.85,1074.86 1935.87,1079.28
             1931.50,1082.50 1924.18,1081.94 1919.00,1082.00
             1915.19,1082.05 1909.41,1082.61 1906.00,1084.31
             1897.80,1088.40 1890.90,1103.51 1888.00,1112.00
             1886.13,1117.49 1882.91,1124.33 1885.42,1130.00
             1887.69,1135.14 1902.28,1152.26 1906.79,1158.00
             1909.40,1161.32 1913.87,1166.82 1914.52,1171.00
             1914.52,1171.00 1913.00,1193.00 1913.00,1193.00
             1913.00,1193.00 1912.34,1207.00 1912.34,1207.00
             1912.34,1207.00 1913.00,1216.00 1913.00,1216.00
             1913.09,1223.60 1912.27,1233.87 1914.00,1241.00
             1901.03,1239.25 1888.13,1237.03 1875.00,1237.00
             1867.98,1236.99 1860.87,1236.24 1854.00,1234.79
             1831.14,1229.96 1812.14,1220.73 1788.00,1221.00
             1768.25,1221.23 1742.00,1231.64 1722.00,1234.86
             1704.64,1237.41 1705.47,1235.02 1691.00,1234.86
             1691.00,1234.86 1662.00,1233.00 1662.00,1233.00 Z" />
  <path id="Sigma"
        fill="none" stroke="black" stroke-width="1"
        d="M 1480.00,1203.00
           C 1480.00,1203.00 1511.58,1159.00 1511.58,1159.00
             1511.58,1159.00 1544.92,1113.00 1544.92,1113.00
             1544.92,1113.00 1570.30,1068.00 1570.30,1068.00
             1570.30,1068.00 1585.12,1041.00 1585.12,1041.00
             1585.12,1041.00 1589.42,1016.00 1589.42,1016.00
             1589.42,1016.00 1596.87,964.00 1596.87,964.00
             1596.87,964.00 1601.02,938.01 1601.02,938.01
             1601.02,938.01 1609.00,929.91 1609.00,929.91
             1609.00,929.91 1629.00,911.72 1629.00,911.72
             1629.00,911.72 1685.00,860.83 1685.00,860.83
             1685.00,860.83 1706.00,842.74 1706.00,842.74
             1706.00,842.74 1716.00,842.00 1716.00,842.00
             1716.00,842.00 1726.00,842.91 1726.00,842.91
             1726.00,842.91 1766.00,846.83 1766.00,846.83
             1766.00,846.83 1814.00,851.09 1814.00,851.09
             1814.00,851.09 1826.00,852.00 1826.00,852.00
             1826.00,852.00 1843.00,852.00 1843.00,852.00
             1843.00,852.00 1846.00,898.00 1846.00,898.00
             1846.00,898.00 1847.00,919.00 1847.00,919.00
             1847.00,919.00 1848.00,949.00 1848.00,949.00
             1848.00,949.00 1848.91,959.00 1848.91,959.00
             1848.91,959.00 1849.83,974.00 1849.83,974.00
             1850.36,979.53 1849.47,981.20 1851.76,987.00
             1856.61,999.30 1864.04,1002.06 1870.00,1010.00
             1865.20,1012.03 1853.46,1016.35 1850.09,1019.27
             1845.13,1023.57 1837.81,1036.53 1832.96,1038.40
             1831.11,1039.12 1828.02,1039.00 1826.00,1039.00
             1826.00,1039.00 1782.00,1038.06 1782.00,1038.06
             1779.13,1038.00 1772.07,1037.22 1770.00,1038.06
             1767.08,1039.37 1760.63,1046.42 1758.00,1048.99
             1758.00,1048.99 1737.00,1069.00 1737.00,1069.00
             1734.19,1071.81 1727.06,1079.43 1724.00,1080.98
             1721.40,1082.29 1713.24,1082.82 1710.00,1083.16
             1710.00,1083.16 1684.00,1085.93 1684.00,1085.93
             1681.33,1086.17 1670.96,1086.97 1669.22,1088.02
             1665.57,1090.24 1662.85,1103.54 1661.58,1108.00
             1661.58,1108.00 1649.14,1151.00 1649.14,1151.00
             1648.17,1154.43 1645.29,1166.37 1643.28,1168.42
             1641.35,1170.38 1633.97,1171.44 1631.00,1172.12
             1631.00,1172.12 1599.00,1178.60 1599.00,1178.60
             1599.00,1178.60 1480.00,1203.00 1480.00,1203.00 Z" />
  <path id="Mambusao"
        fill="none" stroke="black" stroke-width="1"
        d="M 1291.00,846.00
           C 1291.00,846.00 1319.83,852.82 1319.83,852.82
             1319.83,852.82 1406.00,873.87 1406.00,873.87
             1406.00,873.87 1430.00,879.44 1430.00,879.44
             1430.00,879.44 1449.00,884.05 1449.00,884.05
             1449.00,884.05 1475.17,882.15 1475.17,882.15
             1475.17,882.15 1538.00,876.86 1538.00,876.86
             1538.00,876.86 1573.00,874.06 1573.00,874.06
             1573.00,874.06 1605.00,885.77 1605.00,885.77
             1605.00,885.77 1640.00,900.00 1640.00,900.00
             1640.00,900.00 1613.96,923.00 1613.96,923.00
             1613.96,923.00 1598.57,938.05 1598.57,938.05
             1598.57,938.05 1595.30,960.09 1595.30,960.09
             1595.30,960.09 1591.57,988.00 1591.57,988.00
             1591.57,988.00 1588.15,1009.00 1588.15,1009.00
             1588.15,1009.00 1583.74,1039.04 1583.74,1039.04
             1583.74,1039.04 1562.93,1077.00 1562.93,1077.00
             1562.93,1077.00 1543.48,1111.91 1543.48,1111.91
             1543.48,1111.91 1529.43,1131.01 1529.43,1131.01
             1529.43,1131.01 1492.37,1182.20 1492.37,1182.20
             1492.37,1182.20 1478.00,1202.00 1478.00,1202.00
             1466.95,1194.09 1447.10,1171.60 1436.96,1161.00
             1436.96,1161.00 1420.17,1144.83 1420.17,1144.83
             1420.17,1144.83 1412.00,1136.00 1412.00,1136.00
             1412.00,1136.00 1401.46,1125.00 1401.46,1125.00
             1395.37,1117.56 1390.70,1108.28 1385.80,1100.00
             1385.80,1100.00 1370.58,1074.09 1370.58,1074.09
             1370.58,1074.09 1361.44,1031.10 1361.44,1031.10
             1359.37,1027.12 1352.90,1023.32 1349.17,1020.82
             1349.17,1020.82 1327.09,1005.30 1327.09,1005.30
             1324.35,1003.42 1317.58,999.04 1315.98,996.54
             1314.64,994.44 1313.72,986.82 1313.25,984.00
             1313.25,984.00 1308.55,955.00 1308.55,955.00
             1308.55,955.00 1305.92,938.00 1305.92,938.00
             1305.92,938.00 1297.92,889.00 1297.92,889.00
             1297.92,889.00 1291.00,846.00 1291.00,846.00 Z" />
  <path id="Jamindan"
        fill="none" stroke="black" stroke-width="1"
        d="M 797.00,971.00
           C 810.41,972.89 826.28,982.04 839.00,987.58
             843.90,989.71 852.73,994.18 858.00,992.61
             870.32,988.92 880.01,970.87 888.46,962.14
             894.18,956.24 901.60,959.75 906.35,954.58
             910.98,949.55 909.81,936.89 911.89,932.11
             914.74,925.54 920.70,930.63 925.26,923.94
             929.15,918.25 927.99,895.77 928.00,888.00
             928.01,883.57 928.05,875.76 931.43,872.51
             934.00,870.03 944.20,867.81 948.00,867.00
             960.98,864.22 977.81,861.16 991.00,860.96
             991.00,860.96 1004.00,860.96 1004.00,860.96
             1007.87,860.65 1009.71,859.85 1014.00,860.09
             1014.00,860.09 1026.00,861.00 1026.00,861.00
             1026.00,861.00 1083.00,861.00 1083.00,861.00
             1097.31,861.00 1129.14,860.46 1142.00,856.44
             1150.16,853.90 1151.16,846.05 1153.15,839.00
             1154.43,834.48 1155.76,829.98 1161.02,829.15
             1167.65,828.09 1174.81,830.60 1181.00,832.67
             1189.92,835.64 1203.88,840.61 1213.00,840.96
             1229.51,841.60 1238.00,826.79 1245.14,814.00
             1252.78,800.31 1250.59,798.16 1259.00,798.00
             1267.16,797.85 1271.67,798.49 1280.00,797.00
             1280.00,797.00 1288.41,846.00 1288.41,846.00
             1288.41,846.00 1303.92,939.00 1303.92,939.00
             1303.92,939.00 1309.92,977.00 1309.92,977.00
             1310.58,981.00 1312.26,992.99 1313.65,995.99
             1315.69,1000.40 1321.98,1004.20 1326.00,1006.98
             1326.00,1006.98 1348.00,1022.28 1348.00,1022.28
             1350.82,1024.26 1356.45,1027.78 1358.44,1030.30
             1360.90,1033.41 1361.56,1040.04 1362.25,1044.00
             1362.25,1044.00 1367.77,1072.00 1367.77,1072.00
             1369.28,1076.84 1373.64,1083.36 1376.28,1088.00
             1376.28,1088.00 1394.62,1119.00 1394.62,1119.00
             1399.03,1126.02 1405.32,1130.91 1410.83,1137.00
             1410.83,1137.00 1455.17,1183.00 1455.17,1183.00
             1455.17,1183.00 1469.00,1197.00 1469.00,1197.00
             1470.70,1198.72 1473.99,1201.76 1474.77,1204.00
             1475.69,1206.63 1474.00,1209.58 1473.01,1212.00
             1473.01,1212.00 1465.80,1230.00 1465.80,1230.00
             1465.80,1230.00 1445.40,1281.00 1445.40,1281.00
             1445.40,1281.00 1435.00,1306.00 1435.00,1306.00
             1428.45,1302.13 1402.82,1294.72 1394.00,1291.98
             1364.63,1282.85 1335.05,1274.21 1305.00,1267.58
             1305.00,1267.58 1232.00,1253.43 1232.00,1253.43
             1232.00,1253.43 1182.00,1247.83 1182.00,1247.83
             1182.00,1247.83 1144.00,1244.09 1144.00,1244.09
             1144.00,1244.09 1109.00,1241.91 1109.00,1241.91
             1109.00,1241.91 1092.00,1241.00 1092.00,1241.00
             1092.00,1241.00 1078.00,1240.00 1078.00,1240.00
             1078.00,1240.00 1057.00,1238.96 1057.00,1238.96
             1057.00,1238.96 1044.00,1238.96 1044.00,1238.96
             1044.00,1238.96 1032.00,1238.00 1032.00,1238.00
             1032.00,1238.00 1017.00,1238.00 1017.00,1238.00
             1017.00,1238.00 1001.00,1237.00 1001.00,1237.00
             1001.00,1237.00 978.00,1237.00 978.00,1237.00
             978.00,1237.00 965.00,1236.00 965.00,1236.00
             965.00,1236.00 941.00,1236.00 941.00,1236.00
             941.00,1236.00 926.00,1235.00 926.00,1235.00
             926.00,1235.00 913.00,1235.00 913.00,1235.00
             913.00,1235.00 894.00,1234.00 894.00,1234.00
             894.00,1234.00 882.00,1233.09 882.00,1233.09
             882.00,1233.09 852.00,1232.00 852.00,1232.00
             825.32,1232.04 799.32,1250.61 789.01,1275.00
             783.39,1288.30 779.42,1314.62 775.63,1330.00
             765.36,1371.59 749.07,1419.51 718.96,1451.00
             686.18,1485.28 641.69,1506.89 598.00,1523.81
             562.99,1537.37 529.98,1547.17 494.00,1557.42
             494.00,1557.42 454.00,1568.15 454.00,1568.15
             454.00,1568.15 415.00,1578.00 415.00,1578.00
             415.00,1578.00 411.37,1565.00 411.37,1565.00
             407.98,1551.41 406.84,1538.95 407.00,1525.00
             407.18,1510.01 411.86,1486.68 415.73,1472.00
             421.62,1449.70 425.28,1445.51 425.00,1421.00
             424.70,1395.62 412.49,1355.75 399.55,1334.00
             399.55,1334.00 384.00,1313.00 384.00,1313.00
             384.00,1313.00 416.00,1313.00 416.00,1313.00
             416.00,1313.00 430.00,1312.10 430.00,1312.10
             437.92,1312.49 441.97,1316.28 453.00,1314.70
             453.00,1314.70 486.00,1305.67 486.00,1305.67
             517.28,1295.47 531.89,1287.64 561.00,1274.31
             577.97,1266.54 601.81,1259.75 617.00,1248.85
             648.39,1226.31 660.51,1208.37 687.00,1183.04
             687.00,1183.04 701.96,1169.00 701.96,1169.00
             701.96,1169.00 722.00,1148.09 722.00,1148.09
             731.12,1139.59 745.05,1128.50 751.53,1118.00
             754.59,1113.05 756.14,1107.40 758.19,1102.00
             758.19,1102.00 770.88,1061.00 770.88,1061.00
             770.88,1061.00 780.12,1027.00 780.12,1027.00
             780.12,1027.00 791.74,985.00 791.74,985.00
             791.74,985.00 797.00,971.00 797.00,971.00 Z" />
  <path id="Tapaz"
        fill="none" stroke="black" stroke-width="1"
        d="M 417.00,1580.00
           C 417.00,1580.00 472.00,1565.85 472.00,1565.85
             521.09,1552.57 570.15,1538.41 617.00,1518.42
             650.56,1504.11 685.13,1485.94 712.00,1460.91
             745.69,1429.54 764.52,1382.87 775.63,1339.00
             775.63,1339.00 790.45,1277.00 790.45,1277.00
             800.51,1252.11 826.04,1234.13 853.00,1234.00
             853.00,1234.00 891.00,1236.00 891.00,1236.00
             891.00,1236.00 907.00,1237.04 907.00,1237.04
             907.00,1237.04 921.00,1237.04 921.00,1237.04
             921.00,1237.04 932.00,1238.00 932.00,1238.00
             932.00,1238.00 954.00,1238.00 954.00,1238.00
             954.00,1238.00 969.00,1239.00 969.00,1239.00
             969.00,1239.00 990.00,1239.00 990.00,1239.00
             990.00,1239.00 1005.00,1240.00 1005.00,1240.00
             1005.00,1240.00 1023.00,1240.00 1023.00,1240.00
             1023.00,1240.00 1038.00,1241.00 1038.00,1241.00
             1038.00,1241.00 1052.00,1241.00 1052.00,1241.00
             1052.00,1241.00 1068.00,1242.00 1068.00,1242.00
             1068.00,1242.00 1089.00,1243.00 1089.00,1243.00
             1089.00,1243.00 1133.00,1245.91 1133.00,1245.91
             1199.43,1250.46 1256.06,1257.39 1321.00,1273.63
             1348.86,1280.59 1376.75,1288.28 1404.00,1297.33
             1412.93,1300.30 1432.35,1305.85 1438.91,1311.48
             1448.53,1319.73 1455.20,1345.42 1460.58,1358.00
             1468.56,1376.68 1484.23,1398.41 1488.84,1416.00
             1491.85,1427.44 1491.02,1442.05 1491.00,1454.00
             1491.00,1454.00 1490.00,1472.00 1490.00,1472.00
             1476.00,1472.00 1458.98,1473.20 1447.00,1481.10
             1431.75,1491.16 1423.79,1508.32 1412.39,1522.00
             1404.40,1531.57 1394.72,1532.17 1389.88,1539.09
             1385.82,1544.89 1387.01,1557.82 1387.00,1565.00
             1387.00,1568.02 1387.15,1571.15 1385.99,1574.00
             1384.02,1578.84 1369.60,1591.23 1365.00,1595.08
             1361.87,1597.70 1356.87,1601.46 1355.01,1605.00
             1353.45,1607.96 1353.04,1613.64 1353.00,1617.00
             1352.97,1620.05 1353.45,1626.29 1351.98,1628.79
             1350.32,1631.60 1345.92,1633.21 1343.00,1634.40
             1343.00,1634.40 1322.00,1641.81 1322.00,1641.81
             1322.00,1641.81 1284.00,1656.66 1284.00,1656.66
             1284.00,1656.66 1248.00,1669.38 1248.00,1669.38
             1244.17,1671.30 1239.65,1674.83 1236.00,1677.34
             1236.00,1677.34 1209.00,1696.02 1209.00,1696.02
             1205.79,1698.24 1201.01,1702.60 1197.00,1702.14
             1194.78,1701.89 1188.27,1698.42 1186.00,1697.22
             1186.00,1697.22 1164.00,1685.42 1164.00,1685.42
             1164.00,1685.42 1140.00,1672.75 1140.00,1672.75
             1133.95,1669.72 1130.95,1667.12 1124.00,1667.00
             1124.00,1667.00 1104.00,1666.00 1104.00,1666.00
             1104.00,1666.00 1046.00,1664.00 1046.00,1664.00
             1046.00,1664.00 1034.00,1663.04 1034.00,1663.04
             1034.00,1663.04 1021.00,1663.04 1021.00,1663.04
             1021.00,1663.04 1005.00,1661.96 1005.00,1661.96
             1005.00,1661.96 991.00,1661.96 991.00,1661.96
             991.00,1661.96 979.00,1660.96 979.00,1660.96
             979.00,1660.96 966.00,1660.96 966.00,1660.96
             966.00,1660.96 954.00,1660.00 954.00,1660.00
             954.00,1660.00 921.00,1659.00 921.00,1659.00
             921.00,1659.00 898.00,1657.30 898.00,1657.30
             898.00,1657.30 883.00,1649.31 883.00,1649.31
             883.00,1649.31 847.00,1629.69 847.00,1629.69
             847.00,1629.69 763.00,1583.58 763.00,1583.58
             763.00,1583.58 743.00,1572.58 743.00,1572.58
             740.52,1571.18 737.10,1568.63 734.17,1569.99
             731.67,1571.15 724.70,1581.23 722.63,1584.00
             722.63,1584.00 694.87,1621.00 694.87,1621.00
             694.87,1621.00 619.37,1722.00 619.37,1722.00
             619.37,1722.00 596.13,1753.00 596.13,1753.00
             591.93,1758.59 587.44,1765.75 582.00,1770.00
             582.00,1770.00 557.00,1751.53 557.00,1751.53
             557.00,1751.53 527.00,1726.83 527.00,1726.83
             496.37,1699.13 472.84,1671.07 449.66,1637.00
             449.66,1637.00 427.40,1603.00 427.40,1603.00
             423.10,1595.84 418.51,1588.32 417.00,1580.00 Z
           M -858.12,1249.33" />
</svg>
