<?xml version="1.0" encoding="UTF-8" standalone="no"?>
<!DOCTYPE svg PUBLIC "-//W3C//DTD SVG 20010904//EN"
              "http://www.w3.org/TR/2001/REC-SVG-20010904/DTD/svg10.dtd">

<svg xmlns="http://www.w3.org/2000/svg"
     width="767.901mm" height="1075.13mm"
     viewBox="0 0 2177 3048">
  <path id="Bagamanoc"
        fill="none" stroke="black" stroke-width="1"
        d="M 1004.00,1168.79
           C 1002.52,1160.77 1002.96,1152.34 1003.00,1144.00
             1003.00,1144.00 1004.00,1128.00 1004.00,1128.00
             1004.00,1128.00 1004.00,1099.00 1004.00,1099.00
             1004.00,1099.00 1004.82,1085.00 1004.82,1085.00
             1004.82,1085.00 1004.00,1076.00 1004.00,1076.00
             1004.00,1076.00 1004.00,954.00 1004.00,954.00
             1004.00,954.00 1005.00,939.00 1005.00,939.00
             1005.00,939.00 1005.00,867.00 1005.00,867.00
             1005.03,850.72 1012.62,846.64 1017.94,833.00
             1017.94,833.00 1039.53,782.00 1039.53,782.00
             1039.53,782.00 1044.90,770.00 1044.90,770.00
             1044.90,770.00 1062.02,744.28 1062.02,744.28
             1062.02,744.28 1069.98,734.00 1069.98,734.00
             1069.98,734.00 1080.20,718.00 1080.20,718.00
             1080.20,718.00 1121.45,661.00 1121.45,661.00
             1121.45,661.00 1137.74,641.32 1137.74,641.32
             1137.74,641.32 1152.55,626.58 1152.55,626.58
             1152.55,626.58 1164.44,612.42 1164.44,612.42
             1164.44,612.42 1181.91,595.00 1181.91,595.00
             1181.91,595.00 1213.28,564.37 1213.28,564.37
             1213.28,564.37 1220.00,558.90 1220.00,558.90
             1223.50,555.71 1232.19,545.78 1236.00,544.65
             1239.91,543.50 1245.63,547.80 1249.00,549.72
             1255.89,553.65 1270.17,560.72 1274.28,567.00
             1275.63,569.07 1275.97,570.78 1276.79,573.00
             1280.20,582.23 1283.51,590.41 1288.43,599.00
             1288.43,599.00 1298.11,615.00 1298.11,615.00
             1298.11,615.00 1302.49,625.00 1302.49,625.00
             1304.41,629.14 1306.02,631.32 1307.43,636.00
             1309.04,641.34 1311.06,661.10 1311.00,667.00
             1311.00,667.00 1309.96,682.00 1309.96,682.00
             1309.96,682.00 1309.96,695.00 1309.96,695.00
             1309.96,695.00 1309.00,707.00 1309.00,707.00
             1309.00,707.00 1309.00,722.00 1309.00,722.00
             1309.00,722.00 1310.00,735.00 1310.00,735.00
             1310.28,759.40 1314.06,765.10 1317.72,787.00
             1317.72,787.00 1319.96,807.00 1319.96,807.00
             1319.96,807.00 1319.96,817.00 1319.96,817.00
             1319.96,817.00 1323.00,843.00 1323.00,843.00
             1323.52,847.03 1323.61,854.88 1325.60,858.00
             1331.63,867.48 1341.01,868.29 1351.00,869.08
             1351.00,869.08 1367.00,870.91 1367.00,870.91
             1367.00,870.91 1390.00,872.58 1390.00,872.58
             1397.74,873.63 1404.58,873.37 1408.94,881.04
             1410.38,883.57 1411.17,886.06 1410.76,889.00
             1409.79,896.02 1400.20,903.11 1397.47,909.00
             1394.23,915.96 1402.75,920.53 1399.01,926.48
             1397.76,928.47 1394.08,930.48 1392.09,931.86
             1392.09,931.86 1376.00,942.42 1376.00,942.42
             1376.00,942.42 1343.00,963.95 1343.00,963.95
             1343.00,963.95 1325.00,974.81 1325.00,974.81
             1325.00,974.81 1263.91,1014.77 1263.91,1014.77
             1263.91,1014.77 1255.00,1019.75 1255.00,1019.75
             1255.00,1019.75 1233.00,1033.86 1233.00,1033.86
             1233.00,1033.86 1207.00,1050.94 1207.00,1050.94
             1207.00,1050.94 1151.00,1084.45 1151.00,1084.45
             1151.00,1084.45 1135.00,1094.80 1135.00,1094.80
             1135.00,1094.80 1106.00,1111.69 1106.00,1111.69
             1106.00,1111.69 1080.00,1128.13 1080.00,1128.13
             1080.00,1128.13 1047.00,1147.29 1047.00,1147.29
             1047.00,1147.29 1025.00,1161.32 1025.00,1161.32
             1022.85,1162.66 1013.85,1168.08 1011.91,1168.79
             1009.89,1169.11 1006.19,1169.00 1004.00,1168.79 Z
           M 1507.00,691.87
           C 1512.74,691.24 1516.81,695.92 1518.74,701.00
             1518.74,701.00 1526.19,724.00 1526.19,724.00
             1529.07,730.24 1541.85,745.98 1547.00,750.96
             1561.21,764.69 1569.99,765.36 1585.00,775.27
             1593.82,781.09 1600.31,786.07 1602.48,797.00
             1604.33,806.32 1597.48,807.81 1591.00,811.44
             1591.00,811.44 1580.00,817.77 1580.00,817.77
             1580.00,817.77 1553.00,833.69 1553.00,833.69
             1553.00,833.69 1518.00,853.28 1518.00,853.28
             1513.32,855.98 1497.18,866.53 1493.00,867.06
             1488.22,867.67 1485.91,864.42 1483.46,861.00
             1476.10,850.73 1477.67,849.98 1467.00,840.09
             1463.20,836.57 1451.51,827.95 1447.00,825.20
             1443.78,823.25 1437.63,820.39 1436.08,816.97
             1434.45,813.39 1438.34,809.89 1440.19,806.99
             1444.16,800.71 1447.43,795.67 1446.91,788.00
             1446.33,779.43 1441.29,771.01 1438.44,763.00
             1435.58,754.99 1436.91,752.86 1431.97,742.00
             1429.33,736.20 1423.17,726.83 1427.02,720.19
             1430.09,714.89 1438.71,715.91 1444.00,716.00
             1452.02,716.15 1453.55,719.94 1460.00,724.14
             1471.73,731.77 1481.33,733.54 1489.71,745.00
             1490.97,746.71 1493.20,749.98 1493.72,752.00
             1494.50,755.06 1492.77,758.23 1491.58,761.00
             1485.94,774.06 1476.86,784.51 1490.00,790.72
             1492.21,791.77 1494.55,792.11 1496.99,791.94
             1498.79,791.81 1500.03,791.58 1501.47,790.40
             1503.02,789.14 1511.99,775.38 1513.19,773.00
             1513.19,773.00 1521.04,753.00 1521.04,753.00
             1521.21,751.11 1520.55,748.79 1519.96,747.00
             1518.66,743.06 1517.49,741.34 1515.14,738.00
             1508.13,728.07 1496.70,719.15 1497.02,706.00
             1497.12,701.60 1498.07,698.54 1501.33,695.38
             1503.21,693.55 1504.68,692.90 1507.00,691.87 Z" />
  <path id="Panganiban"
        fill="none" stroke="black" stroke-width="1"
        d="M 1599.00,810.55
           C 1601.09,810.28 1601.77,809.97 1604.00,810.55
             1607.45,811.07 1620.22,818.28 1622.07,821.13
             1623.99,824.10 1623.98,828.58 1624.00,832.00
             1624.03,838.67 1624.93,853.65 1620.49,858.66
             1615.30,864.50 1603.16,858.69 1595.83,861.51
             1585.83,865.34 1569.39,879.37 1553.00,883.24
             1547.02,884.93 1538.53,883.01 1532.00,883.24
             1532.00,883.24 1516.00,883.24 1516.00,883.24
             1513.16,883.62 1506.43,885.04 1504.00,884.31
             1499.81,883.06 1494.25,876.84 1495.33,872.10
             1496.13,868.60 1501.11,866.32 1504.00,864.60
             1504.00,864.60 1529.00,850.28 1529.00,850.28
             1529.00,850.28 1557.00,834.28 1557.00,834.28
             1557.00,834.28 1578.00,821.90 1578.00,821.90
             1578.00,821.90 1585.72,818.37 1585.72,818.37
             1585.72,818.37 1599.00,810.55 1599.00,810.55 Z
           M 1443.00,927.98
           C 1449.43,926.72 1456.34,931.45 1451.52,939.00
             1445.52,948.39 1432.16,960.80 1424.00,969.00
             1420.53,972.49 1413.96,978.41 1415.36,983.96
             1416.45,988.31 1426.14,994.22 1430.00,996.55
             1442.19,1003.92 1464.77,1014.66 1465.00,1031.00
             1465.00,1031.00 1465.00,1044.00 1465.00,1044.00
             1464.99,1053.04 1462.65,1069.36 1464.23,1078.00
             1465.63,1085.68 1475.21,1086.62 1471.10,1092.61
             1469.66,1094.72 1464.41,1097.07 1462.00,1098.42
             1462.00,1098.42 1437.00,1111.78 1437.00,1111.78
             1437.00,1111.78 1393.00,1136.45 1393.00,1136.45
             1393.00,1136.45 1370.00,1151.54 1370.00,1151.54
             1370.00,1151.54 1355.00,1159.71 1355.00,1159.71
             1355.00,1159.71 1316.00,1184.04 1316.00,1184.04
             1316.00,1184.04 1289.00,1202.98 1289.00,1202.98
             1289.00,1202.98 1255.00,1226.90 1255.00,1226.90
             1255.00,1226.90 1240.00,1239.19 1240.00,1239.19
             1240.00,1239.19 1195.00,1275.29 1195.00,1275.29
             1173.53,1293.87 1153.08,1313.92 1133.00,1334.00
             1133.00,1334.00 1117.96,1350.00 1117.96,1350.00
             1117.96,1350.00 1086.58,1381.72 1086.58,1381.72
             1086.58,1381.72 1055.09,1413.00 1055.09,1413.00
             1055.09,1413.00 1027.00,1442.00 1027.00,1442.00
             1024.16,1444.84 1016.00,1453.52 1013.00,1454.97
             1009.65,1456.60 1006.53,1455.63 1005.43,1451.94
             1005.43,1451.94 1004.72,1443.00 1004.72,1443.00
             1004.72,1443.00 1003.00,1422.00 1003.00,1422.00
             1003.00,1422.00 1003.00,1331.00 1003.00,1331.00
             1003.00,1331.00 1004.00,1316.00 1004.00,1316.00
             1004.00,1316.00 1004.00,1186.00 1004.00,1186.00
             1004.00,1184.16 1003.87,1180.90 1004.60,1179.26
             1005.59,1177.01 1008.98,1175.08 1011.00,1173.71
             1011.00,1173.71 1027.00,1163.58 1027.00,1163.58
             1027.00,1163.58 1107.00,1115.26 1107.00,1115.26
             1107.00,1115.26 1173.00,1074.62 1173.00,1074.62
             1173.00,1074.62 1194.00,1062.56 1194.00,1062.56
             1194.00,1062.56 1317.00,984.63 1317.00,984.63
             1317.00,984.63 1380.00,944.19 1380.00,944.19
             1380.00,944.19 1395.00,935.26 1395.00,935.26
             1397.51,933.59 1402.09,930.02 1405.00,929.64
             1409.10,929.09 1412.85,933.36 1416.00,935.47
             1419.41,937.75 1421.94,938.22 1426.00,937.95
             1433.05,937.47 1437.12,931.18 1443.00,927.98 Z" />
  <path id="Viga"
        fill="none" stroke="black" stroke-width="1"
        d="M 1618.00,896.46
           C 1620.75,896.32 1622.38,896.08 1624.49,898.31
             1626.23,900.15 1627.03,903.60 1627.86,906.00
             1629.52,910.75 1633.55,921.28 1632.69,926.00
             1632.07,929.40 1628.42,934.36 1630.25,940.00
             1633.08,948.71 1640.52,948.79 1643.69,954.18
             1645.72,957.66 1645.01,968.57 1645.00,973.00
             1644.99,980.05 1644.20,982.83 1640.53,989.00
             1637.45,994.18 1632.74,999.48 1633.61,1006.00
             1634.70,1014.18 1644.85,1034.69 1650.30,1041.00
             1650.30,1041.00 1680.00,1067.09 1680.00,1067.09
             1685.12,1071.85 1697.19,1085.07 1702.00,1087.93
             1712.48,1094.16 1728.14,1096.21 1739.00,1100.60
             1739.00,1100.60 1749.00,1106.01 1749.00,1106.01
             1756.97,1110.79 1762.93,1114.12 1763.00,1124.00
             1763.00,1124.00 1764.00,1143.00 1764.00,1143.00
             1764.00,1143.00 1765.83,1177.00 1765.83,1177.00
             1766.22,1180.85 1766.45,1188.72 1768.17,1191.98
             1771.31,1197.93 1785.79,1200.17 1790.18,1194.72
             1793.46,1190.66 1796.27,1172.10 1795.52,1167.00
             1794.68,1161.25 1792.05,1162.59 1792.00,1152.00
             1792.00,1152.00 1792.00,1129.00 1792.00,1129.00
             1792.06,1124.51 1792.72,1117.69 1795.51,1114.06
             1800.11,1108.06 1806.15,1109.52 1809.20,1116.00
             1816.51,1131.54 1816.46,1147.76 1820.23,1164.00
             1821.69,1170.28 1823.42,1179.23 1829.72,1182.31
             1834.29,1184.55 1839.74,1180.08 1841.44,1176.00
             1841.44,1176.00 1844.85,1154.00 1844.85,1154.00
             1845.58,1150.17 1845.31,1146.83 1850.02,1146.15
             1857.82,1145.03 1860.15,1150.59 1861.25,1157.00
             1862.26,1162.98 1863.12,1170.27 1865.10,1176.00
             1865.10,1176.00 1877.40,1203.00 1877.40,1203.00
             1877.40,1203.00 1883.58,1214.00 1883.58,1214.00
             1885.84,1219.16 1891.30,1231.31 1887.98,1236.62
             1883.63,1243.58 1863.78,1246.15 1856.00,1247.88
             1851.83,1248.81 1845.38,1249.36 1843.83,1254.05
             1842.14,1259.14 1847.47,1265.73 1852.00,1267.40
             1853.93,1268.11 1856.92,1268.00 1859.00,1268.00
             1859.00,1268.00 1885.00,1268.00 1885.00,1268.00
             1888.31,1268.02 1891.93,1267.92 1894.73,1270.01
             1897.21,1271.86 1898.10,1275.22 1899.20,1278.00
             1899.20,1278.00 1905.58,1297.00 1905.58,1297.00
             1906.81,1300.57 1909.94,1310.43 1907.96,1313.72
             1905.15,1318.42 1890.15,1317.07 1885.00,1317.00
             1879.89,1316.93 1878.40,1316.51 1874.00,1313.76
             1870.98,1311.87 1867.69,1308.58 1864.00,1308.71
             1859.71,1308.85 1855.15,1313.15 1852.00,1315.75
             1842.12,1323.90 1838.82,1326.01 1830.16,1336.00
             1827.80,1338.72 1823.03,1344.09 1823.95,1347.96
             1824.95,1352.15 1834.04,1356.27 1838.00,1356.78
             1840.53,1357.10 1843.47,1356.51 1846.00,1356.13
             1855.06,1354.75 1859.22,1349.94 1865.00,1348.72
             1869.36,1347.80 1880.58,1351.21 1883.78,1354.27
             1886.07,1356.48 1887.03,1359.14 1888.20,1362.00
             1889.31,1364.71 1892.04,1370.09 1891.47,1372.87
             1890.86,1375.79 1888.42,1375.87 1885.98,1376.27
             1885.98,1376.27 1868.00,1378.08 1868.00,1378.08
             1868.00,1378.08 1853.00,1379.83 1853.00,1379.83
             1853.00,1379.83 1826.00,1382.28 1826.00,1382.28
             1826.00,1382.28 1794.00,1387.16 1794.00,1387.16
             1794.00,1387.16 1742.00,1395.42 1742.00,1395.42
             1742.00,1395.42 1709.00,1403.49 1709.00,1403.49
             1709.00,1403.49 1647.00,1419.58 1647.00,1419.58
             1647.00,1419.58 1625.00,1425.75 1625.00,1425.75
             1625.00,1425.75 1603.00,1434.31 1603.00,1434.31
             1603.00,1434.31 1558.09,1451.58 1558.09,1451.58
             1558.09,1451.58 1547.00,1457.10 1547.00,1457.10
             1547.00,1457.10 1532.00,1463.31 1532.00,1463.31
             1532.00,1463.31 1506.00,1476.79 1506.00,1476.79
             1506.00,1476.79 1497.00,1482.41 1497.00,1482.41
             1497.00,1482.41 1461.00,1501.87 1461.00,1501.87
             1461.00,1501.87 1450.00,1508.69 1450.00,1508.69
             1450.00,1508.69 1439.00,1514.11 1439.00,1514.11
             1439.00,1514.11 1400.00,1533.68 1400.00,1533.68
             1400.00,1533.68 1369.00,1546.31 1369.00,1546.31
             1369.00,1546.31 1358.00,1551.69 1358.00,1551.69
             1358.00,1551.69 1349.09,1555.51 1349.09,1555.51
             1349.09,1555.51 1338.00,1562.31 1338.00,1562.31
             1338.00,1562.31 1307.01,1580.24 1307.01,1580.24
             1307.01,1580.24 1293.00,1590.86 1293.00,1590.86
             1293.00,1590.86 1270.04,1606.33 1270.04,1606.33
             1270.04,1606.33 1262.00,1612.62 1262.00,1612.62
             1262.00,1612.62 1244.00,1624.41 1244.00,1624.41
             1238.80,1627.72 1223.14,1638.52 1218.00,1638.88
             1212.08,1639.28 1207.80,1635.27 1202.96,1632.61
             1202.96,1632.61 1186.00,1624.05 1186.00,1624.05
             1186.00,1624.05 1170.00,1613.96 1170.00,1613.96
             1170.00,1613.96 1150.00,1600.69 1150.00,1600.69
             1135.83,1591.54 1121.19,1583.27 1108.00,1572.63
             1108.00,1572.63 1087.91,1554.51 1087.91,1554.51
             1070.61,1539.88 1061.64,1534.09 1046.59,1516.00
             1046.59,1516.00 1017.13,1481.00 1017.13,1481.00
             1013.63,1476.41 1007.89,1471.28 1011.02,1465.00
             1012.51,1462.03 1019.33,1455.67 1022.00,1453.00
             1022.00,1453.00 1039.00,1435.00 1039.00,1435.00
             1039.00,1435.00 1055.17,1418.09 1055.17,1418.09
             1055.17,1418.09 1065.00,1409.00 1065.00,1409.00
             1065.00,1409.00 1082.59,1390.58 1082.59,1390.58
             1082.59,1390.58 1098.05,1375.72 1098.05,1375.72
             1098.05,1375.72 1105.02,1367.52 1105.02,1367.52
             1105.02,1367.52 1120.00,1353.00 1120.00,1353.00
             1120.00,1353.00 1131.05,1341.18 1131.05,1341.18
             1131.05,1341.18 1140.58,1332.70 1140.58,1332.70
             1140.58,1332.70 1157.45,1315.12 1157.45,1315.12
             1157.45,1315.12 1178.91,1295.72 1178.91,1295.72
             1178.91,1295.72 1187.12,1287.45 1187.12,1287.45
             1187.12,1287.45 1207.99,1270.25 1207.99,1270.25
             1207.99,1270.25 1242.00,1242.54 1242.00,1242.54
             1242.00,1242.54 1259.00,1228.48 1259.00,1228.48
             1259.00,1228.48 1271.00,1220.70 1271.00,1220.70
             1271.00,1220.70 1285.00,1210.03 1285.00,1210.03
             1285.00,1210.03 1304.00,1198.06 1304.00,1198.06
             1304.00,1198.06 1319.09,1185.97 1319.09,1185.97
             1319.09,1185.97 1334.00,1176.66 1334.00,1176.66
             1334.00,1176.66 1347.00,1168.45 1347.00,1168.45
             1347.00,1168.45 1356.83,1163.09 1356.83,1163.09
             1356.83,1163.09 1370.00,1153.95 1370.00,1153.95
             1370.00,1153.95 1389.00,1142.99 1389.00,1142.99
             1389.00,1142.99 1401.00,1135.34 1401.00,1135.34
             1401.00,1135.34 1435.00,1117.69 1435.00,1117.69
             1435.00,1117.69 1453.00,1107.17 1453.00,1107.17
             1453.00,1107.17 1470.00,1098.25 1470.00,1098.25
             1472.14,1097.18 1476.94,1095.03 1478.40,1093.37
             1480.90,1090.54 1479.13,1087.38 1481.60,1084.41
             1483.34,1082.32 1486.22,1081.86 1488.79,1079.59
             1494.76,1074.29 1496.08,1067.51 1496.00,1060.00
             1495.87,1049.60 1490.79,1042.45 1491.00,1026.00
             1491.11,1017.78 1493.36,1016.16 1495.91,1009.00
             1495.91,1009.00 1499.12,998.00 1499.12,998.00
             1504.95,975.90 1509.90,955.45 1520.78,935.00
             1523.87,929.19 1532.57,916.33 1538.00,913.07
             1550.87,905.36 1577.73,911.90 1594.00,908.78
             1599.75,907.68 1603.33,902.59 1608.00,899.55
             1611.12,897.51 1614.42,897.09 1618.00,896.46 Z" />
  <path id="Gigmoto"
        fill="none" stroke="black" stroke-width="1"
        d="M 1886.00,1380.43
           C 1890.89,1379.94 1894.31,1379.96 1896.52,1385.05
             1897.08,1386.34 1897.70,1388.46 1897.50,1389.87
             1897.08,1392.82 1893.24,1394.32 1891.00,1395.94
             1887.65,1398.34 1878.09,1405.47 1876.75,1409.01
             1874.75,1414.33 1880.23,1418.10 1882.21,1424.00
             1885.76,1434.58 1884.58,1446.21 1886.62,1457.00
             1888.45,1466.70 1892.04,1466.21 1894.86,1471.09
             1896.99,1474.76 1897.95,1481.76 1897.91,1486.00
             1897.91,1486.00 1897.91,1507.00 1897.91,1507.00
             1897.27,1510.74 1896.10,1517.50 1897.91,1520.87
             1901.13,1526.30 1912.31,1526.41 1918.00,1527.66
             1921.01,1528.32 1924.70,1528.76 1925.69,1532.14
             1925.69,1532.14 1926.91,1546.00 1926.91,1546.00
             1927.31,1548.04 1928.14,1550.57 1926.91,1552.51
             1925.03,1555.58 1917.62,1556.15 1915.03,1563.01
             1915.03,1563.01 1912.30,1585.00 1912.30,1585.00
             1911.54,1587.30 1909.69,1589.97 1908.33,1592.00
             1899.33,1605.35 1888.63,1604.98 1874.00,1605.00
             1870.88,1605.01 1867.93,1604.82 1865.00,1606.09
             1858.16,1609.03 1859.12,1612.83 1850.00,1613.00
             1833.34,1613.30 1834.00,1611.39 1825.00,1611.04
             1818.55,1610.79 1811.82,1612.01 1812.07,1620.00
             1812.33,1628.29 1827.29,1641.66 1831.59,1651.00
             1835.25,1658.98 1832.19,1670.17 1837.94,1683.00
             1840.48,1688.67 1847.51,1694.22 1851.83,1699.00
             1862.35,1710.63 1866.94,1715.30 1872.55,1730.00
             1874.57,1735.90 1873.84,1739.96 1872.55,1746.00
             1872.34,1748.01 1871.80,1750.74 1869.70,1751.65
             1868.54,1752.16 1857.10,1750.70 1855.00,1750.21
             1855.00,1750.21 1831.00,1750.21 1831.00,1750.21
             1826.81,1750.06 1822.01,1750.50 1821.10,1755.59
             1820.62,1758.27 1823.22,1764.99 1823.97,1768.00
             1827.99,1784.26 1829.03,1779.04 1829.00,1797.00
             1828.99,1802.27 1827.44,1813.74 1823.49,1817.42
             1821.72,1819.07 1816.49,1820.15 1814.00,1820.86
             1809.05,1822.28 1801.33,1825.12 1797.00,1827.76
             1794.40,1829.35 1791.78,1831.12 1790.59,1834.04
             1789.69,1836.27 1790.25,1839.12 1787.69,1841.69
             1784.78,1844.59 1770.50,1844.99 1766.00,1845.00
             1766.00,1845.00 1741.00,1845.00 1741.00,1845.00
             1741.00,1845.00 1724.00,1846.00 1724.00,1846.00
             1724.00,1846.00 1656.00,1847.00 1656.00,1847.00
             1656.00,1847.00 1641.00,1848.00 1641.00,1848.00
             1641.00,1848.00 1625.00,1848.00 1625.00,1848.00
             1625.00,1848.00 1587.00,1851.84 1587.00,1851.84
             1548.94,1855.91 1544.90,1855.16 1506.00,1864.89
             1506.00,1864.89 1475.00,1875.00 1475.00,1875.00
             1470.94,1876.35 1464.36,1879.09 1460.21,1877.26
             1455.80,1875.32 1452.39,1864.47 1450.60,1860.00
             1446.36,1849.40 1436.72,1833.90 1430.36,1824.00
             1430.36,1824.00 1407.39,1787.00 1407.39,1787.00
             1407.39,1787.00 1385.16,1762.00 1385.16,1762.00
             1385.16,1762.00 1359.00,1733.17 1359.00,1733.17
             1359.00,1733.17 1333.00,1712.05 1333.00,1712.05
             1308.88,1690.78 1291.07,1682.29 1264.00,1666.96
             1264.00,1666.96 1251.00,1659.01 1251.00,1659.01
             1251.00,1659.01 1232.06,1648.68 1232.06,1648.68
             1228.87,1646.50 1226.94,1643.10 1228.60,1639.21
             1229.87,1636.24 1236.97,1633.43 1240.00,1631.57
             1240.00,1631.57 1268.00,1612.01 1268.00,1612.01
             1291.81,1594.73 1316.13,1578.33 1342.00,1564.31
             1342.00,1564.31 1363.00,1553.74 1363.00,1553.74
             1363.00,1553.74 1372.00,1548.89 1372.00,1548.89
             1372.00,1548.89 1398.00,1537.69 1398.00,1537.69
             1398.00,1537.69 1420.00,1528.09 1420.00,1528.09
             1420.00,1528.09 1427.00,1524.17 1427.00,1524.17
             1427.00,1524.17 1442.00,1516.70 1442.00,1516.70
             1442.00,1516.70 1475.00,1497.90 1475.00,1497.90
             1475.00,1497.90 1507.00,1480.58 1507.00,1480.58
             1507.00,1480.58 1526.00,1469.32 1526.00,1469.32
             1526.00,1469.32 1578.00,1446.46 1578.00,1446.46
             1578.00,1446.46 1587.00,1443.57 1587.00,1443.57
             1587.00,1443.57 1620.00,1431.52 1620.00,1431.52
             1620.00,1431.52 1642.00,1425.28 1642.00,1425.28
             1642.00,1425.28 1657.00,1420.17 1657.00,1420.17
             1657.00,1420.17 1688.00,1411.89 1688.00,1411.89
             1688.00,1411.89 1705.00,1408.58 1705.00,1408.58
             1705.00,1408.58 1743.00,1400.26 1743.00,1400.26
             1743.00,1400.26 1763.00,1397.41 1763.00,1397.41
             1763.00,1397.41 1772.00,1395.17 1772.00,1395.17
             1772.00,1395.17 1788.00,1392.43 1788.00,1392.43
             1788.00,1392.43 1834.00,1386.17 1834.00,1386.17
             1834.00,1386.17 1886.00,1380.43 1886.00,1380.43 Z" />
  <path id="Baras"
        fill="none" stroke="black" stroke-width="1"
        d="M 1900.00,2120.00
           C 1894.19,2122.30 1880.38,2132.21 1876.61,2137.04
             1873.33,2141.24 1868.71,2151.36 1864.68,2154.40
             1859.53,2158.29 1851.26,2152.94 1845.97,2160.13
             1842.43,2164.93 1841.79,2173.15 1841.16,2179.00
             1840.83,2182.15 1841.07,2186.97 1837.72,2188.66
             1833.04,2191.02 1821.28,2185.48 1817.00,2183.22
             1811.89,2180.52 1798.87,2173.02 1794.00,2171.63
             1790.83,2170.73 1787.30,2171.11 1784.00,2170.66
             1780.47,2170.30 1775.40,2169.35 1772.00,2170.66
             1762.28,2174.18 1751.78,2195.11 1746.19,2204.00
             1743.16,2208.81 1737.63,2215.38 1731.11,2213.68
             1725.28,2212.16 1727.55,2204.29 1728.05,2200.00
             1728.05,2200.00 1733.13,2174.00 1733.13,2174.00
             1733.72,2170.59 1734.77,2165.24 1733.13,2162.13
             1731.04,2158.77 1727.50,2158.22 1724.00,2158.96
             1724.00,2158.96 1711.00,2163.81 1711.00,2163.81
             1711.00,2163.81 1689.00,2163.81 1689.00,2163.81
             1685.25,2164.05 1674.08,2164.98 1671.00,2166.44
             1657.58,2172.80 1650.15,2189.19 1639.00,2197.21
             1629.30,2204.18 1620.81,2201.43 1610.00,2203.33
             1597.61,2205.50 1589.70,2214.41 1586.09,2226.00
             1584.68,2230.52 1584.94,2235.32 1585.00,2240.00
             1585.18,2252.94 1593.29,2261.32 1598.14,2272.00
             1604.54,2286.12 1604.93,2293.89 1607.00,2309.00
             1607.00,2309.00 1608.94,2326.00 1608.94,2326.00
             1608.95,2328.67 1608.75,2330.82 1605.85,2331.69
             1605.85,2331.69 1584.00,2333.16 1584.00,2333.16
             1579.40,2333.61 1573.43,2334.94 1569.00,2333.16
             1565.69,2331.81 1561.82,2327.82 1559.00,2325.43
             1559.00,2325.43 1541.00,2310.15 1541.00,2310.15
             1536.87,2306.53 1524.25,2297.35 1522.60,2292.99
             1521.89,2291.10 1522.00,2288.05 1522.00,2286.00
             1522.00,2286.00 1522.00,2219.00 1522.00,2219.00
             1522.00,2219.00 1521.00,2203.00 1521.00,2203.00
             1521.00,2203.00 1520.00,2171.00 1520.00,2171.00
             1520.00,2171.00 1519.00,2161.00 1519.00,2161.00
             1519.00,2161.00 1519.00,2152.00 1519.00,2152.00
             1519.00,2152.00 1517.00,2135.00 1517.00,2135.00
             1517.00,2135.00 1517.00,2125.00 1517.00,2125.00
             1517.00,2125.00 1511.72,2077.00 1511.72,2077.00
             1511.72,2077.00 1507.04,2053.00 1507.04,2053.00
             1507.04,2053.00 1504.56,2035.00 1504.56,2035.00
             1504.56,2035.00 1499.46,2010.00 1499.46,2010.00
             1499.46,2010.00 1490.28,1968.00 1490.28,1968.00
             1490.28,1968.00 1484.98,1948.00 1484.98,1948.00
             1484.98,1948.00 1475.61,1923.00 1475.61,1923.00
             1475.61,1923.00 1470.58,1909.00 1470.58,1909.00
             1468.24,1903.43 1461.27,1889.71 1463.60,1884.13
             1465.27,1880.13 1474.98,1877.93 1479.00,1876.72
             1479.00,1876.72 1525.00,1864.92 1525.00,1864.92
             1525.00,1864.92 1543.00,1860.29 1543.00,1860.29
             1543.00,1860.29 1567.00,1857.85 1567.00,1857.85
             1567.00,1857.85 1632.00,1851.00 1632.00,1851.00
             1632.00,1851.00 1656.00,1851.00 1656.00,1851.00
             1656.00,1851.00 1673.00,1850.00 1673.00,1850.00
             1673.00,1850.00 1699.00,1850.00 1699.00,1850.00
             1699.00,1850.00 1715.00,1849.00 1715.00,1849.00
             1715.00,1849.00 1780.00,1849.00 1780.00,1849.00
             1790.99,1849.02 1791.33,1851.63 1796.25,1861.00
             1798.66,1865.58 1808.31,1878.32 1804.97,1883.35
             1803.45,1885.64 1799.49,1885.96 1797.00,1885.97
             1791.24,1885.99 1780.22,1881.78 1774.00,1880.00
             1768.75,1878.50 1763.48,1876.88 1761.74,1884.00
             1760.87,1887.56 1763.16,1893.53 1764.33,1897.00
             1768.40,1909.06 1779.35,1926.16 1792.00,1929.96
             1792.00,1929.96 1810.00,1932.93 1810.00,1932.93
             1813.17,1933.23 1816.73,1933.07 1818.49,1936.28
             1819.46,1938.04 1820.97,1950.94 1821.41,1954.00
             1821.74,1956.37 1822.09,1958.59 1820.82,1960.79
             1818.91,1964.10 1814.29,1965.06 1811.00,1966.46
             1807.01,1968.16 1801.26,1971.98 1798.50,1975.29
             1796.32,1977.89 1792.18,1988.60 1791.91,1992.00
             1791.91,1992.00 1791.91,2003.00 1791.91,2003.00
             1792.02,2006.40 1791.83,2008.98 1794.31,2011.66
             1799.74,2017.51 1810.62,2017.92 1818.00,2018.00
             1818.00,2018.00 1836.00,2019.00 1836.00,2019.00
             1841.06,2019.06 1863.59,2022.84 1868.00,2024.61
             1871.44,2025.99 1876.19,2029.24 1878.53,2032.09
             1882.30,2036.67 1882.97,2040.31 1883.00,2046.00
             1883.05,2055.23 1882.85,2071.30 1880.59,2080.00
             1878.58,2087.71 1867.06,2094.77 1868.37,2101.98
             1869.24,2106.82 1873.98,2107.75 1878.00,2108.60
             1881.94,2109.43 1895.87,2113.13 1898.26,2115.70
             1899.56,2117.09 1899.61,2118.28 1900.00,2120.00 Z" />
  <path id="San Miguel"
        fill="none" stroke="black" stroke-width="1"
        d="M 1280.00,1683.65
           C 1286.54,1682.68 1290.60,1686.16 1296.00,1689.40
             1309.04,1697.22 1312.29,1700.03 1324.00,1709.40
             1324.00,1709.40 1338.00,1720.76 1338.00,1720.76
             1338.00,1720.76 1355.04,1734.18 1355.04,1734.18
             1355.04,1734.18 1370.80,1750.00 1370.80,1750.00
             1370.80,1750.00 1382.28,1764.00 1382.28,1764.00
             1382.28,1764.00 1402.76,1787.00 1402.76,1787.00
             1402.76,1787.00 1419.40,1813.00 1419.40,1813.00
             1419.40,1813.00 1443.68,1853.04 1443.68,1853.04
             1443.68,1853.04 1448.01,1864.00 1448.01,1864.00
             1448.01,1864.00 1458.60,1890.00 1458.60,1890.00
             1458.60,1890.00 1474.95,1930.00 1474.95,1930.00
             1474.95,1930.00 1490.11,1982.00 1490.11,1982.00
             1490.11,1982.00 1494.66,2005.00 1494.66,2005.00
             1494.66,2005.00 1500.56,2032.00 1500.56,2032.00
             1500.56,2032.00 1509.17,2102.00 1509.17,2102.00
             1509.17,2102.00 1512.00,2127.00 1512.00,2127.00
             1512.00,2127.00 1512.00,2137.00 1512.00,2137.00
             1512.00,2137.00 1514.00,2158.00 1514.00,2158.00
             1514.00,2158.00 1515.00,2185.00 1515.00,2185.00
             1515.00,2185.00 1516.04,2200.00 1516.04,2200.00
             1516.04,2200.00 1516.04,2213.00 1516.04,2213.00
             1516.04,2213.00 1517.00,2225.00 1517.00,2225.00
             1517.00,2225.00 1517.00,2282.00 1517.00,2282.00
             1517.00,2284.04 1517.24,2287.77 1515.98,2289.42
             1514.58,2291.26 1510.21,2291.76 1508.00,2292.20
             1508.00,2292.20 1489.00,2296.13 1489.00,2296.13
             1489.00,2296.13 1465.00,2300.58 1465.00,2300.58
             1465.00,2300.58 1422.00,2308.42 1422.00,2308.42
             1412.35,2310.16 1402.85,2312.98 1393.00,2313.00
             1393.00,2313.00 1313.00,2313.00 1313.00,2313.00
             1313.00,2313.00 1297.00,2312.00 1297.00,2312.00
             1297.00,2312.00 1266.00,2312.00 1266.00,2312.00
             1266.00,2312.00 1235.00,2312.00 1235.00,2312.00
             1232.46,2311.99 1228.53,2312.32 1226.60,2310.40
             1224.34,2308.15 1224.01,2297.38 1224.00,2294.00
             1224.00,2294.00 1224.00,2262.00 1224.00,2262.00
             1224.00,2262.00 1223.04,2252.00 1223.04,2252.00
             1223.04,2252.00 1223.04,2238.00 1223.04,2238.00
             1222.98,2226.37 1217.57,2219.99 1212.30,2210.00
             1212.30,2210.00 1189.50,2167.83 1189.50,2167.83
             1189.50,2167.83 1174.26,2139.00 1174.26,2139.00
             1174.26,2139.00 1165.55,2122.30 1165.55,2122.30
             1165.55,2122.30 1156.46,2109.12 1156.46,2109.12
             1141.43,2085.24 1124.90,2062.81 1107.13,2040.91
             1092.38,2022.73 1089.98,2021.58 1074.02,2005.91
             1068.24,2000.24 1060.90,1992.07 1054.42,1987.53
             1054.42,1987.53 1012.00,1956.09 1012.00,1956.09
             1012.00,1956.09 984.00,1941.12 984.00,1941.12
             977.16,1937.51 968.11,1932.43 961.00,1930.00
             961.00,1930.00 938.00,1923.07 938.00,1923.07
             933.91,1921.63 930.22,1920.34 931.33,1915.00
             932.00,1911.78 934.79,1909.26 937.00,1907.00
             937.00,1907.00 951.00,1893.01 951.00,1893.01
             951.00,1893.01 970.00,1875.00 970.00,1875.00
             970.00,1875.00 992.00,1853.32 992.00,1853.32
             992.00,1853.32 1011.00,1839.37 1011.00,1839.37
             1011.00,1839.37 1024.04,1829.20 1024.04,1829.20
             1024.04,1829.20 1045.00,1814.11 1045.00,1814.11
             1045.00,1814.11 1083.00,1786.18 1083.00,1786.18
             1083.00,1786.18 1119.00,1765.57 1119.00,1765.57
             1119.00,1765.57 1173.00,1733.31 1173.00,1733.31
             1173.00,1733.31 1184.00,1728.22 1184.00,1728.22
             1184.00,1728.22 1215.00,1713.74 1215.00,1713.74
             1215.00,1713.74 1280.00,1683.65 1280.00,1683.65 Z" />
  <path id="Bato"
        fill="none" stroke="black" stroke-width="1"
        d="M 1512.00,2296.43
           C 1523.30,2295.14 1526.48,2301.20 1534.04,2308.15
             1534.04,2308.15 1554.00,2324.73 1554.00,2324.73
             1558.15,2328.33 1564.28,2336.06 1569.00,2337.86
             1571.05,2338.26 1575.65,2338.00 1578.00,2337.86
             1578.00,2337.86 1597.00,2337.86 1597.00,2337.86
             1605.76,2337.96 1613.88,2335.06 1613.57,2348.00
             1613.33,2357.91 1595.43,2359.35 1596.94,2367.91
             1597.62,2371.75 1605.06,2375.39 1607.69,2378.32
             1610.29,2381.23 1610.07,2384.34 1609.99,2388.00
             1609.69,2400.87 1599.71,2414.97 1601.60,2428.00
             1602.84,2436.49 1613.97,2448.38 1610.40,2455.69
             1609.20,2458.15 1606.32,2458.02 1604.00,2457.67
             1599.97,2457.07 1592.25,2453.44 1588.72,2454.27
             1583.04,2455.60 1583.27,2459.31 1582.91,2464.00
             1582.91,2464.00 1582.00,2483.00 1582.00,2483.00
             1582.00,2483.00 1586.00,2528.00 1586.00,2528.00
             1586.00,2528.00 1585.03,2545.00 1585.03,2545.00
             1584.88,2547.56 1585.06,2550.54 1582.69,2552.23
             1580.83,2553.56 1578.15,2553.03 1576.00,2553.12
             1576.00,2553.12 1569.00,2553.96 1569.00,2553.96
             1569.00,2553.96 1555.00,2553.96 1555.00,2553.96
             1550.64,2554.06 1542.22,2554.86 1540.88,2560.05
             1539.46,2565.57 1551.53,2574.37 1547.94,2580.61
             1546.61,2582.92 1539.65,2585.85 1537.00,2587.54
             1528.73,2592.80 1525.19,2595.36 1520.54,2604.00
             1519.41,2606.10 1517.91,2608.64 1517.58,2611.00
             1517.35,2612.63 1517.85,2616.36 1518.23,2618.00
             1518.68,2619.88 1519.26,2621.34 1520.29,2622.98
             1528.44,2636.09 1543.43,2617.29 1552.00,2619.06
             1556.16,2619.92 1568.45,2633.16 1571.10,2637.00
             1574.50,2641.94 1577.30,2647.95 1574.97,2653.96
             1573.34,2658.16 1563.30,2664.26 1559.00,2665.49
             1556.91,2666.09 1554.19,2666.00 1552.00,2666.00
             1552.00,2666.00 1544.00,2666.00 1544.00,2666.00
             1530.21,2665.81 1513.58,2654.86 1503.00,2646.64
             1498.03,2642.78 1493.41,2638.41 1488.00,2635.12
             1488.00,2635.12 1468.18,2627.42 1468.18,2627.42
             1465.10,2625.10 1463.04,2620.32 1461.13,2617.00
             1458.37,2612.20 1448.77,2600.26 1448.38,2596.00
             1448.03,2592.17 1451.13,2589.03 1453.06,2586.00
             1455.59,2582.03 1464.22,2566.91 1463.87,2562.72
             1463.71,2560.79 1460.23,2551.77 1459.16,2550.00
             1459.16,2550.00 1454.93,2544.00 1454.93,2544.00
             1453.34,2541.13 1453.20,2538.13 1452.50,2535.00
             1451.93,2532.44 1451.15,2530.71 1451.55,2528.00
             1452.14,2523.90 1455.39,2516.85 1454.75,2511.00
             1454.35,2507.27 1450.97,2501.62 1449.31,2498.00
             1449.31,2498.00 1437.31,2472.00 1437.31,2472.00
             1434.40,2465.67 1428.71,2452.40 1421.96,2449.74
             1412.65,2446.07 1403.77,2458.83 1391.00,2459.00
             1382.26,2459.11 1375.69,2458.85 1367.00,2457.72
             1364.01,2457.33 1360.09,2457.04 1358.75,2453.85
             1357.28,2450.35 1359.89,2444.50 1360.98,2441.00
             1360.98,2441.00 1368.91,2412.00 1368.91,2412.00
             1369.32,2406.78 1368.53,2398.50 1361.96,2397.48
             1354.30,2396.30 1347.47,2405.36 1344.00,2411.00
             1344.00,2411.00 1328.26,2438.00 1328.26,2438.00
             1326.41,2441.58 1320.36,2454.54 1318.37,2456.70
             1315.70,2459.59 1308.84,2460.95 1305.00,2461.87
             1286.19,2466.37 1267.83,2456.17 1252.00,2455.60
             1248.50,2455.47 1242.30,2457.28 1239.00,2458.60
             1236.73,2459.51 1233.45,2461.68 1231.06,2461.46
             1226.30,2461.04 1227.62,2456.13 1227.82,2453.00
             1227.82,2453.00 1227.00,2439.00 1227.00,2439.00
             1227.00,2439.00 1226.00,2361.00 1226.00,2361.00
             1226.00,2361.00 1225.00,2344.00 1225.00,2344.00
             1225.00,2344.00 1225.00,2326.00 1225.00,2326.00
             1225.04,2323.86 1224.96,2321.23 1226.60,2319.60
             1228.52,2317.68 1232.46,2318.01 1235.00,2318.00
             1235.00,2318.00 1318.00,2318.00 1318.00,2318.00
             1318.00,2318.00 1336.00,2319.00 1336.00,2319.00
             1336.00,2319.00 1351.00,2318.00 1351.00,2318.00
             1351.00,2318.00 1390.00,2318.00 1390.00,2318.00
             1402.29,2317.98 1422.15,2313.24 1435.00,2310.80
             1435.00,2310.80 1462.00,2306.20 1462.00,2306.20
             1462.00,2306.20 1483.00,2301.51 1483.00,2301.51
             1483.00,2301.51 1512.00,2296.43 1512.00,2296.43 Z" />
  <path id="Virac"
        fill="none" stroke="black" stroke-width="1"
        d="M 922.09,1924.60
           C 929.74,1923.76 949.78,1931.29 958.00,1934.00
             970.35,1938.08 975.71,1942.11 987.00,1947.75
             987.00,1947.75 1011.00,1959.45 1011.00,1959.45
             1011.00,1959.45 1035.00,1977.35 1035.00,1977.35
             1050.96,1989.53 1050.52,1987.52 1066.00,2003.00
             1066.00,2003.00 1093.83,2031.00 1093.83,2031.00
             1093.83,2031.00 1115.77,2057.91 1115.77,2057.91
             1115.77,2057.91 1128.52,2073.00 1128.52,2073.00
             1128.52,2073.00 1145.23,2099.00 1145.23,2099.00
             1145.23,2099.00 1160.55,2123.00 1160.55,2123.00
             1160.55,2123.00 1170.31,2141.00 1170.31,2141.00
             1170.31,2141.00 1180.22,2158.09 1180.22,2158.09
             1180.22,2158.09 1187.78,2173.00 1187.78,2173.00
             1187.78,2173.00 1209.11,2211.83 1209.11,2211.83
             1214.12,2221.16 1218.98,2227.05 1219.00,2238.00
             1219.00,2238.00 1219.00,2280.00 1219.00,2280.00
             1219.00,2280.00 1220.00,2297.00 1220.00,2297.00
             1220.00,2297.00 1220.00,2340.00 1220.00,2340.00
             1220.00,2340.00 1221.00,2355.00 1221.00,2355.00
             1221.00,2355.00 1221.00,2400.00 1221.00,2400.00
             1221.00,2400.00 1222.00,2417.00 1222.00,2417.00
             1222.00,2417.00 1222.00,2455.00 1222.00,2455.00
             1221.99,2458.26 1222.24,2463.01 1220.15,2465.69
             1218.12,2468.28 1214.03,2468.57 1211.00,2469.08
             1211.00,2469.08 1192.00,2472.58 1192.00,2472.58
             1192.00,2472.58 1135.00,2482.60 1135.00,2482.60
             1124.47,2484.71 1113.17,2486.41 1105.06,2494.18
             1098.33,2500.63 1101.59,2507.74 1098.99,2513.99
             1096.78,2519.32 1089.30,2523.25 1085.85,2529.00
             1083.11,2533.57 1082.73,2544.37 1082.17,2550.00
             1082.17,2550.00 1080.02,2572.00 1080.02,2572.00
             1079.76,2575.61 1079.18,2580.88 1075.73,2582.99
             1073.28,2584.46 1069.63,2583.53 1067.00,2582.99
             1060.29,2581.64 1056.07,2580.09 1049.00,2580.00
             1033.35,2579.82 1027.86,2580.12 1015.00,2590.04
             1011.15,2593.01 1006.16,2597.57 1007.16,2603.00
             1009.08,2613.39 1021.28,2613.40 1020.36,2621.00
             1019.97,2624.23 1012.23,2634.62 1010.00,2638.00
             1004.16,2646.87 997.12,2662.17 997.94,2673.00
             998.24,2676.97 1002.25,2688.88 1003.81,2693.00
             1003.81,2693.00 1013.81,2717.00 1013.81,2717.00
             1020.51,2730.41 1028.62,2744.61 1028.98,2760.01
             1029.25,2771.84 1026.87,2776.15 1018.00,2783.59
             1009.13,2791.03 1010.37,2789.73 1000.00,2794.15
             997.23,2795.33 988.59,2799.16 986.04,2799.04
             983.12,2798.92 981.20,2796.46 978.91,2794.95
             976.93,2793.65 967.26,2789.27 965.00,2788.63
             965.00,2788.63 937.00,2788.00 937.00,2788.00
             918.61,2787.78 908.56,2783.30 893.00,2774.33
             880.30,2767.01 874.42,2763.64 863.00,2753.71
             851.98,2744.13 835.69,2727.51 824.00,2719.85
             819.74,2717.06 808.19,2713.57 803.00,2712.61
             799.74,2712.01 794.03,2711.90 791.73,2709.44
             790.10,2707.69 789.43,2703.38 788.88,2701.00
             787.46,2694.86 786.86,2688.55 783.64,2683.00
             779.20,2675.34 762.15,2661.83 758.98,2656.00
             757.00,2652.36 757.01,2647.06 757.00,2643.00
             757.00,2643.00 757.00,2509.00 757.00,2509.00
             757.00,2509.00 757.00,2261.00 757.00,2261.00
             757.02,2248.83 764.31,2227.49 767.52,2215.00
             767.52,2215.00 781.09,2163.00 781.09,2163.00
             781.09,2163.00 785.94,2151.00 785.94,2151.00
             785.94,2151.00 806.60,2101.00 806.60,2101.00
             806.60,2101.00 817.78,2074.00 817.78,2074.00
             817.78,2074.00 835.52,2044.00 835.52,2044.00
             835.52,2044.00 856.77,2008.00 856.77,2008.00
             856.77,2008.00 865.44,1994.00 865.44,1994.00
             865.44,1994.00 886.10,1968.00 886.10,1968.00
             886.10,1968.00 895.42,1955.01 895.42,1955.01
             895.42,1955.01 908.85,1938.99 908.85,1938.99
             912.66,1933.88 915.98,1927.12 922.09,1924.60 Z" />
  <path id="San Andres"
        fill="none" stroke="black" stroke-width="1"
        d="M 753.00,2645.00
           C 744.38,2644.78 743.35,2642.05 737.00,2636.58
             733.88,2633.89 729.56,2630.32 727.35,2626.91
             719.15,2614.28 717.48,2598.11 709.65,2585.00
             706.75,2580.15 700.17,2574.17 696.00,2570.00
             686.75,2560.75 677.24,2552.11 667.00,2543.94
             657.59,2536.43 649.90,2538.48 642.00,2533.21
             642.00,2533.21 617.00,2513.74 617.00,2513.74
             613.40,2510.81 606.96,2505.07 603.00,2503.27
             597.31,2500.69 584.43,2500.25 580.00,2497.41
             580.00,2497.41 548.00,2468.17 548.00,2468.17
             541.86,2462.65 522.10,2448.36 515.00,2444.20
             515.00,2444.20 507.00,2440.14 507.00,2440.14
             507.00,2440.14 484.00,2428.55 484.00,2428.55
             484.00,2428.55 472.00,2425.80 472.00,2425.80
             472.00,2425.80 459.00,2423.10 459.00,2423.10
             459.00,2423.10 449.00,2423.10 449.00,2423.10
             449.00,2423.10 439.00,2422.00 439.00,2422.00
             439.00,2422.00 413.00,2422.00 413.00,2422.00
             413.00,2422.00 401.00,2422.96 401.00,2422.96
             401.00,2422.96 389.00,2422.96 389.00,2422.96
             370.41,2423.23 354.70,2440.27 334.00,2440.00
             331.83,2439.97 330.12,2439.98 328.00,2439.32
             321.68,2437.34 305.11,2427.62 300.00,2423.27
             297.45,2421.10 286.09,2411.17 285.08,2408.91
             282.66,2403.53 293.14,2393.38 297.00,2390.35
             302.85,2385.76 316.77,2374.87 324.00,2374.22
             331.35,2373.57 338.95,2377.78 346.00,2378.66
             349.91,2379.15 353.52,2377.56 352.09,2373.00
             351.47,2371.01 345.84,2363.23 344.28,2361.00
             344.28,2361.00 328.59,2338.00 328.59,2338.00
             312.80,2314.15 312.29,2304.59 291.33,2278.00
             291.33,2278.00 261.65,2248.72 261.65,2248.72
             259.28,2245.74 257.71,2240.60 256.31,2237.00
             256.31,2237.00 252.37,2228.00 252.37,2228.00
             249.42,2220.18 246.76,2208.83 242.04,2202.09
             236.97,2194.86 207.92,2175.80 201.27,2162.00
             199.82,2158.99 198.45,2149.57 198.17,2146.00
             197.40,2136.03 205.49,2136.18 213.00,2135.13
             228.04,2133.04 248.62,2132.30 261.00,2123.36
             264.18,2121.06 268.84,2118.04 271.03,2114.91
             276.39,2107.25 281.94,2083.73 290.63,2072.01
             293.42,2068.26 302.92,2060.67 307.00,2057.05
             307.00,2057.05 351.00,2019.83 351.00,2019.83
             356.01,2015.35 371.13,2000.99 376.00,1998.56
             379.15,1996.98 382.62,1996.40 386.00,1995.56
             389.32,1994.74 392.52,1993.00 396.00,1993.51
             396.00,1993.51 401.00,1994.74 401.00,1994.74
             411.01,1996.42 421.87,1996.98 432.00,1997.00
             448.56,1997.03 445.53,1999.50 465.00,1996.25
             470.55,1995.32 485.72,1990.60 489.30,1986.59
             494.29,1981.01 495.91,1967.34 496.00,1960.00
             496.05,1955.49 495.29,1943.57 497.17,1940.09
             499.38,1936.03 507.99,1931.64 512.00,1928.91
             517.59,1925.10 526.15,1917.16 530.57,1912.00
             544.18,1896.11 545.92,1887.61 550.35,1868.00
             550.35,1868.00 554.03,1847.00 554.03,1847.00
             554.09,1836.02 540.89,1831.76 532.00,1830.93
             528.71,1830.62 521.84,1830.29 519.98,1827.69
             517.33,1824.71 519.08,1815.52 519.98,1812.02
             522.04,1806.49 529.25,1803.79 534.00,1801.14
             534.00,1801.14 556.00,1788.90 556.00,1788.90
             556.00,1788.90 568.00,1780.12 568.00,1780.12
             578.85,1772.12 587.86,1765.54 596.68,1755.00
             606.80,1742.90 613.29,1729.70 620.69,1716.00
             620.69,1716.00 637.60,1685.00 637.60,1685.00
             639.28,1682.23 644.85,1673.47 647.26,1671.95
             653.38,1668.09 659.52,1678.94 662.80,1683.00
             662.80,1683.00 698.12,1730.00 698.12,1730.00
             698.12,1730.00 712.58,1748.00 712.58,1748.00
             712.58,1748.00 731.54,1772.00 731.54,1772.00
             731.54,1772.00 742.09,1785.00 742.09,1785.00
             776.57,1822.07 815.35,1854.85 854.00,1887.41
             863.50,1895.41 876.55,1904.72 888.00,1909.66
             888.00,1909.66 901.00,1914.54 901.00,1914.54
             906.06,1916.78 915.17,1918.63 913.67,1926.00
             912.82,1930.18 901.28,1942.88 898.00,1947.00
             898.00,1947.00 859.10,1996.00 859.10,1996.00
             859.10,1996.00 837.69,2034.00 837.69,2034.00
             837.69,2034.00 815.37,2072.00 815.37,2072.00
             815.37,2072.00 809.34,2086.00 809.34,2086.00
             809.34,2086.00 792.40,2126.00 792.40,2126.00
             792.40,2126.00 784.72,2145.00 784.72,2145.00
             784.72,2145.00 776.75,2163.00 776.75,2163.00
             776.75,2163.00 774.27,2173.00 774.27,2173.00
             774.27,2173.00 762.27,2220.00 762.27,2220.00
             762.27,2220.00 756.91,2241.00 756.91,2241.00
             754.06,2251.09 752.02,2252.47 752.00,2264.00
             752.00,2264.00 752.00,2401.00 752.00,2401.00
             752.00,2401.00 752.00,2631.00 752.00,2631.00
             752.00,2631.00 753.00,2645.00 753.00,2645.00 Z" />
  <path id="Pandan"
        fill="none" stroke="black" stroke-width="1"
        d="M 685.00,620.00
           C 685.00,620.00 688.73,609.00 688.73,609.00
             689.61,604.29 688.03,597.29 688.00,592.00
             687.96,583.90 684.80,562.38 682.05,555.00
             682.05,555.00 670.02,530.00 670.02,530.00
             670.02,530.00 647.25,461.00 647.25,461.00
             641.61,446.96 636.30,432.69 632.48,418.00
             631.50,414.25 628.66,404.39 629.47,401.02
             630.68,395.93 634.74,395.89 639.00,396.42
             644.82,397.15 654.40,398.52 657.39,391.95
             659.19,387.98 657.01,384.50 655.24,381.00
             655.24,381.00 641.81,358.00 641.81,358.00
             636.81,348.06 638.08,343.75 650.00,344.01
             656.33,344.16 663.67,346.84 669.00,346.08
             677.56,344.87 688.06,338.21 696.00,340.96
             707.71,345.02 713.88,352.12 723.00,359.68
             723.00,359.68 742.00,372.55 742.00,372.55
             749.99,377.30 763.76,381.84 773.00,382.91
             773.00,382.91 793.00,382.91 793.00,382.91
             793.00,382.91 824.00,381.02 824.00,381.02
             828.55,380.72 835.30,380.24 838.57,376.72
             841.13,373.98 841.64,369.55 842.42,366.00
             842.42,366.00 846.42,338.00 846.42,338.00
             846.91,334.57 847.43,326.18 853.02,328.17
             855.28,328.98 859.18,333.20 861.00,335.00
             867.13,341.04 874.90,347.66 884.00,346.95
             888.77,346.58 891.48,346.61 893.75,341.95
             893.75,341.95 899.40,327.00 899.40,327.00
             901.73,321.18 902.91,319.44 903.00,313.00
             903.00,313.00 903.00,285.00 903.00,285.00
             903.00,285.00 901.73,266.00 901.73,266.00
             901.28,262.35 900.33,257.57 901.73,254.04
             902.99,250.90 915.65,239.43 918.91,236.01
             930.76,223.61 944.38,213.62 959.00,204.80
             969.56,198.42 981.40,192.52 994.00,192.04
             1008.12,191.50 1012.60,202.07 1016.46,213.72
             1018.35,219.40 1020.30,225.10 1021.39,231.00
             1024.79,249.44 1023.04,260.75 1031.79,279.00
             1035.23,286.19 1053.16,300.73 1060.00,306.84
             1064.97,311.28 1073.81,319.76 1079.00,323.04
             1083.43,325.84 1088.76,326.83 1092.71,330.39
             1092.71,330.39 1113.00,354.00 1113.00,354.00
             1113.00,354.00 1145.00,385.96 1145.00,385.96
             1145.00,385.96 1167.90,408.00 1167.90,408.00
             1173.32,413.98 1174.99,419.98 1183.09,427.83
             1183.09,427.83 1222.00,462.00 1222.00,462.00
             1227.78,467.78 1234.97,475.94 1237.35,484.00
             1239.17,490.15 1235.76,497.41 1233.42,503.00
             1230.86,509.13 1229.47,514.33 1229.09,521.00
             1228.63,529.27 1233.31,535.10 1231.42,541.00
             1229.36,547.42 1218.23,556.87 1213.00,561.25
             1213.00,561.25 1178.00,594.00 1178.00,594.00
             1178.00,594.00 1150.55,623.72 1150.55,623.72
             1150.55,623.72 1132.44,643.00 1132.44,643.00
             1132.44,643.00 1111.58,670.00 1111.58,670.00
             1111.58,670.00 1089.67,699.00 1089.67,699.00
             1089.67,699.00 1051.63,755.00 1051.63,755.00
             1051.63,755.00 1041.68,770.00 1041.68,770.00
             1041.68,770.00 1025.94,807.00 1025.94,807.00
             1021.69,817.98 1016.82,828.67 1011.17,839.00
             1009.47,842.11 1007.46,847.69 1003.87,848.69
             998.31,850.23 993.16,846.75 989.00,843.57
             989.00,843.57 970.00,829.37 970.00,829.37
             970.00,829.37 905.04,781.62 905.04,781.62
             905.04,781.62 896.96,775.17 896.96,775.17
             896.96,775.17 890.42,770.62 890.42,770.62
             887.36,768.17 885.98,765.94 882.00,765.00
             882.00,765.00 881.00,762.00 881.00,762.00
             874.74,761.12 867.04,753.96 862.00,750.00
             862.00,750.00 826.00,723.15 826.00,723.15
             826.00,723.15 773.00,684.85 773.00,684.85
             773.00,684.85 731.00,653.58 731.00,653.58
             731.00,653.58 693.04,625.84 693.04,625.84
             693.04,625.84 685.00,620.00 685.00,620.00 Z
           M 331.00,464.00
           C 331.73,458.81 336.59,460.47 341.00,460.00
             341.54,462.21 341.81,461.92 344.00,462.00
             344.00,462.00 347.00,464.00 347.00,464.00
             347.00,464.00 348.00,467.00 348.00,467.00
             348.00,467.00 352.00,470.00 352.00,470.00
             352.00,470.00 354.00,469.00 354.00,469.00
             354.00,469.00 355.00,470.00 355.00,470.00
             355.00,470.00 356.00,472.00 356.00,472.00
             356.00,472.00 355.00,475.00 355.00,475.00
             355.00,475.00 356.00,477.00 356.00,477.00
             356.00,477.00 359.00,478.00 359.00,478.00
             359.00,478.00 362.00,485.00 362.00,485.00
             362.03,488.39 362.83,488.40 363.57,491.29
             364.51,495.00 364.92,503.39 362.00,506.00
             362.00,506.00 363.00,509.00 363.00,509.00
             363.00,509.00 360.00,518.00 360.00,518.00
             360.00,518.00 358.00,518.00 358.00,518.00
             357.61,520.82 357.52,520.69 355.00,522.00
             353.47,528.78 348.15,524.77 344.00,524.00
             344.00,524.00 341.00,522.00 341.00,522.00
             341.00,522.00 339.00,516.00 339.00,516.00
             339.00,516.00 336.00,515.00 336.00,515.00
             336.00,515.00 337.00,513.00 337.00,513.00
             337.00,513.00 335.00,513.00 335.00,513.00
             335.00,513.00 332.00,497.00 332.00,497.00
             332.00,497.00 330.00,497.00 330.00,497.00
             330.00,497.00 328.02,490.00 328.02,490.00
             328.02,490.00 328.02,472.00 328.02,472.00
             328.02,472.00 329.00,464.00 329.00,464.00
             329.00,464.00 331.00,464.00 331.00,464.00 Z
           M 263.00,477.00
           C 263.00,477.00 264.54,475.54 264.54,475.54
             264.54,475.54 285.00,475.00 285.00,475.00
             285.00,475.00 291.00,477.00 291.00,477.00
             291.00,477.00 294.00,476.00 294.00,476.00
             294.00,476.00 301.00,480.00 301.00,480.00
             301.00,480.00 304.00,479.00 304.00,479.00
             304.00,479.00 306.00,480.00 306.00,480.00
             306.00,480.00 307.00,481.00 307.00,481.00
             307.00,481.00 309.00,484.00 309.00,484.00
             309.00,484.00 312.00,488.00 312.00,488.00
             312.09,492.33 314.06,496.64 313.59,500.91
             313.59,500.91 309.18,524.08 309.18,524.08
             308.33,528.25 307.54,535.53 304.00,538.00
             304.00,538.00 305.00,541.00 305.00,541.00
             305.00,541.00 303.00,541.00 303.00,541.00
             303.00,541.00 304.00,543.00 304.00,543.00
             304.00,543.00 302.00,543.00 302.00,543.00
             302.00,543.00 303.00,545.00 303.00,545.00
             303.00,545.00 301.00,545.00 301.00,545.00
             301.00,545.00 302.00,547.00 302.00,547.00
             302.00,547.00 300.00,547.00 300.00,547.00
             300.00,547.00 301.00,549.00 301.00,549.00
             301.00,549.00 300.00,551.00 300.00,551.00
             300.00,551.00 291.00,552.00 291.00,552.00
             291.00,552.00 291.00,554.00 291.00,554.00
             286.35,553.77 276.97,553.07 273.00,555.00
             273.00,555.00 270.00,554.00 270.00,554.00
             270.00,554.00 270.00,556.00 270.00,556.00
             270.00,556.00 267.00,555.00 267.00,555.00
             267.00,555.00 264.00,556.00 264.00,556.00
             260.59,559.81 258.36,556.27 254.00,556.00
             254.00,556.00 250.00,553.00 250.00,553.00
             249.76,548.72 248.14,546.76 245.00,544.00
             245.00,544.00 246.00,542.00 246.00,542.00
             246.00,542.00 244.00,542.00 244.00,542.00
             244.00,542.00 245.00,540.00 245.00,540.00
             245.00,540.00 243.00,540.00 243.00,540.00
             243.00,540.00 242.00,538.00 242.00,538.00
             242.00,538.00 242.00,527.00 242.00,527.00
             239.62,524.82 240.22,523.98 241.00,521.00
             237.49,517.85 238.99,511.14 240.00,507.00
             237.19,504.48 237.19,499.52 240.00,497.00
             239.20,493.67 238.23,491.49 241.00,489.00
             241.00,489.00 240.00,486.00 240.00,486.00
             246.00,483.08 249.04,476.46 256.00,478.00
             258.36,475.38 259.82,476.12 263.00,477.00 Z
           M 169.00,497.00
           C 169.00,497.00 174.02,496.22 174.02,496.22
             174.02,496.22 184.00,497.00 184.00,497.00
             184.00,497.00 186.00,498.00 186.00,498.00
             186.00,498.00 189.00,500.00 189.00,500.00
             189.00,500.00 192.00,502.00 192.00,502.00
             192.00,502.00 197.00,510.00 197.00,510.00
             205.07,514.83 207.09,531.52 204.34,539.88
             203.22,543.27 203.05,545.91 200.00,548.00
             200.00,548.00 201.00,551.00 201.00,551.00
             201.00,551.00 196.00,557.00 196.00,557.00
             196.00,557.00 192.00,557.00 192.00,557.00
             192.00,557.00 191.00,560.00 191.00,560.00
             191.00,560.00 189.00,559.00 189.00,559.00
             189.00,559.00 187.00,561.00 187.00,561.00
             187.00,561.00 176.64,554.51 176.64,554.51
             176.64,554.51 170.00,548.00 170.00,548.00
             170.00,548.00 167.00,544.00 167.00,544.00
             167.00,544.00 166.00,542.00 166.00,542.00
             166.00,542.00 167.00,539.00 167.00,539.00
             167.00,539.00 164.00,537.00 164.00,537.00
             164.00,537.00 165.00,534.00 165.00,534.00
             165.00,534.00 164.00,532.00 164.00,532.00
             164.00,532.00 162.00,532.00 162.00,532.00
             162.00,532.00 161.00,530.00 161.00,530.00
             161.00,530.00 160.00,525.00 160.00,525.00
             160.00,525.00 161.00,522.00 161.00,522.00
             159.01,520.03 159.51,519.70 160.00,517.00
             160.00,517.00 158.00,517.00 158.00,517.00
             158.00,517.00 160.00,512.00 160.00,512.00
             160.00,512.00 161.00,509.00 161.00,509.00
             161.00,509.00 160.00,506.00 160.00,506.00
             160.00,506.00 162.00,506.00 162.00,506.00
             162.00,506.00 161.00,503.00 161.00,503.00
             161.00,503.00 164.00,500.00 164.00,500.00
             164.00,500.00 166.00,501.00 166.00,501.00
             166.00,501.00 167.00,498.00 167.00,498.00
             167.00,498.00 169.00,499.00 169.00,499.00
             169.00,499.00 169.00,497.00 169.00,497.00 Z" />
  <path id="Caramoran"
        fill="none" stroke="black" stroke-width="1"
        d="M 758.00,676.00
           C 761.70,679.80 773.10,687.55 778.00,691.15
             778.00,691.15 797.00,705.58 797.00,705.58
             797.00,705.58 818.00,720.38 818.00,720.38
             818.00,720.38 942.00,812.12 942.00,812.12
             942.00,812.12 985.00,844.00 985.00,844.00
             988.40,846.40 999.05,853.70 1000.40,857.09
             1001.12,858.88 1001.00,862.03 1001.00,864.00
             1001.00,864.00 1001.00,1039.00 1001.00,1039.00
             1001.00,1039.00 1000.00,1054.00 1000.00,1054.00
             1000.00,1054.00 1000.00,1228.00 1000.00,1228.00
             1000.00,1228.00 999.00,1243.00 999.00,1243.00
             999.00,1243.00 999.00,1427.00 999.00,1427.00
             999.00,1427.00 999.91,1439.00 999.91,1439.00
             999.91,1439.00 1000.83,1454.00 1000.83,1454.00
             1001.15,1457.38 1000.65,1461.99 1001.72,1465.00
             1003.11,1468.88 1010.01,1476.51 1012.92,1480.00
             1012.92,1480.00 1035.59,1507.00 1035.59,1507.00
             1035.59,1507.00 1055.13,1530.83 1055.13,1530.83
             1055.13,1530.83 1076.00,1548.19 1076.00,1548.19
             1076.00,1548.19 1111.00,1578.33 1111.00,1578.33
             1111.00,1578.33 1140.00,1597.74 1140.00,1597.74
             1140.00,1597.74 1178.00,1622.99 1178.00,1622.99
             1178.00,1622.99 1248.00,1660.70 1248.00,1660.70
             1248.00,1660.70 1265.00,1670.58 1265.00,1670.58
             1267.79,1672.22 1270.89,1673.56 1271.67,1677.04
             1272.00,1678.53 1271.80,1680.31 1270.98,1681.61
             1269.30,1684.28 1257.34,1689.93 1254.00,1691.18
             1254.00,1691.18 1238.00,1698.69 1238.00,1698.69
             1238.00,1698.69 1210.00,1711.66 1210.00,1711.66
             1210.00,1711.66 1191.00,1721.00 1191.00,1721.00
             1170.07,1730.04 1127.74,1755.51 1107.00,1768.19
             1107.00,1768.19 1077.00,1785.35 1077.00,1785.35
             1077.00,1785.35 1062.00,1796.63 1062.00,1796.63
             1062.00,1796.63 1021.00,1828.12 1021.00,1828.12
             1021.00,1828.12 1000.00,1844.48 1000.00,1844.48
             1000.00,1844.48 989.09,1852.30 989.09,1852.30
             989.09,1852.30 970.83,1870.87 970.83,1870.87
             970.83,1870.87 962.01,1878.05 962.01,1878.05
             962.01,1878.05 944.72,1895.63 944.72,1895.63
             944.72,1895.63 938.00,1901.10 938.00,1901.10
             932.65,1905.96 924.64,1917.39 917.00,1916.80
             911.84,1916.40 900.18,1911.51 895.00,1909.40
             874.81,1901.15 861.49,1890.16 845.00,1876.43
             845.00,1876.43 825.00,1860.25 825.00,1860.25
             825.00,1860.25 806.00,1843.28 806.00,1843.28
             806.00,1843.28 782.17,1822.58 782.17,1822.58
             782.17,1822.58 760.00,1800.00 760.00,1800.00
             760.00,1800.00 741.17,1781.00 741.17,1781.00
             741.17,1781.00 732.55,1770.00 732.55,1770.00
             732.55,1770.00 686.98,1711.09 686.98,1711.09
             686.98,1711.09 670.71,1689.00 670.71,1689.00
             666.40,1683.90 655.15,1671.28 652.44,1666.00
             652.44,1666.00 643.58,1633.00 643.58,1633.00
             643.58,1633.00 637.17,1606.00 637.17,1606.00
             635.99,1594.41 643.00,1595.29 651.83,1585.96
             659.75,1577.61 671.54,1561.33 674.04,1550.00
             677.62,1533.80 677.80,1516.28 674.74,1500.00
             674.74,1500.00 670.42,1482.00 670.42,1482.00
             670.42,1482.00 667.79,1468.00 667.79,1468.00
             667.79,1468.00 664.06,1451.00 664.06,1451.00
             664.06,1451.00 664.06,1443.00 664.06,1443.00
             663.40,1438.50 662.90,1436.88 663.01,1432.00
             663.01,1432.00 663.92,1423.00 663.92,1423.00
             663.92,1423.00 668.83,1380.00 668.83,1380.00
             668.83,1380.00 678.09,1282.00 678.09,1282.00
             678.09,1282.00 681.82,1239.00 681.82,1239.00
             681.47,1235.29 677.82,1221.02 676.07,1218.00
             674.32,1214.98 657.69,1199.10 653.91,1195.58
             647.27,1189.39 635.80,1177.11 638.31,1167.00
             639.50,1162.24 644.09,1159.40 648.00,1157.00
             648.00,1157.00 669.96,1143.39 669.96,1143.39
             678.91,1136.31 684.72,1112.76 689.65,1106.04
             692.77,1101.77 700.60,1096.97 704.96,1093.33
             708.88,1090.07 711.64,1085.97 714.80,1082.00
             718.58,1077.24 721.49,1074.50 720.89,1068.00
             720.43,1063.06 716.47,1056.94 711.96,1054.80
             711.96,1054.80 703.72,1052.02 703.72,1052.02
             701.66,1050.33 699.89,1042.64 700.18,1040.02
             700.81,1034.43 704.89,1035.25 709.00,1035.72
             714.77,1036.37 728.34,1039.02 730.19,1030.96
             730.74,1028.57 728.84,1025.02 727.65,1023.00
             724.81,1018.21 717.21,1011.18 713.00,1007.01
             710.96,1004.99 707.02,1001.98 707.07,998.91
             707.12,995.64 711.67,989.70 713.58,987.00
             718.42,980.15 729.52,965.51 728.39,957.00
             728.39,957.00 721.02,936.00 721.02,936.00
             721.02,936.00 702.58,885.00 702.58,885.00
             702.58,885.00 692.72,858.00 692.72,858.00
             692.72,858.00 684.58,828.00 684.58,828.00
             679.43,810.40 673.00,792.76 665.56,776.00
             665.56,776.00 648.80,743.00 648.80,743.00
             647.60,740.00 644.63,733.86 644.43,731.00
             644.12,726.46 648.86,720.72 651.33,717.00
             657.64,707.54 662.53,702.28 660.70,690.00
             660.52,688.81 660.17,687.14 659.74,686.02
             656.51,677.63 648.63,682.99 644.56,679.98
             641.25,677.52 641.96,666.94 642.00,663.00
             642.00,663.00 642.96,650.00 642.96,650.00
             642.96,650.00 641.00,623.00 641.00,623.00
             641.04,621.05 640.90,618.37 642.60,617.02
             644.17,615.78 648.06,615.96 650.00,616.09
             650.00,616.09 668.00,617.00 668.00,617.00
             679.90,617.20 688.04,624.93 697.00,631.77
             697.00,631.77 711.00,641.44 711.00,641.44
             711.00,641.44 730.00,655.58 730.00,655.58
             735.89,659.83 745.83,665.61 749.00,672.00
             749.00,672.00 752.00,674.00 752.00,674.00
             752.00,674.00 756.00,677.00 756.00,677.00
             756.00,677.00 758.00,676.00 758.00,676.00 Z" />
</svg>
