<?xml version="1.0" encoding="UTF-8" standalone="no"?>
<!DOCTYPE svg PUBLIC "-//W3C//DTD SVG 20010904//EN"
              "http://www.w3.org/TR/2001/REC-SVG-20010904/DTD/svg10.dtd">

<svg xmlns="http://www.w3.org/2000/svg"
     width="488.889mm" height="426.455mm"
     viewBox="0 0 1848 1612">
  <path id="General Emilio Aguinaldo"
        fill="none" stroke="black" stroke-width="1"
        d="M 790.00,971.00
           C 797.38,973.22 801.36,982.67 805.00,989.00
             814.03,1004.71 815.21,1007.75 830.00,1019.34
             830.00,1019.34 839.96,1027.17 839.96,1027.17
             839.96,1027.17 867.42,1059.00 867.42,1059.00
             871.77,1064.01 880.90,1072.06 883.59,1077.00
             887.81,1084.77 884.90,1091.60 891.73,1104.00
             891.73,1104.00 944.86,1199.00 944.86,1199.00
             944.86,1199.00 957.69,1222.00 957.69,1222.00
             957.69,1222.00 967.62,1239.99 967.62,1239.99
             973.23,1248.83 980.84,1254.10 981.00,1266.00
             981.00,1266.00 981.00,1280.00 981.00,1280.00
             981.00,1282.13 981.25,1285.58 980.01,1287.37
             978.28,1289.84 966.32,1294.98 963.00,1296.42
             963.00,1296.42 909.00,1323.25 909.00,1323.25
             909.00,1323.25 887.00,1334.25 887.00,1334.25
             884.43,1335.53 880.94,1337.79 878.00,1336.77
             874.96,1335.71 863.07,1323.08 860.00,1320.00
             860.00,1320.00 848.96,1308.00 848.96,1308.00
             837.64,1296.17 826.47,1284.22 816.73,1271.00
             801.17,1249.87 793.04,1228.45 784.31,1204.00
             770.16,1164.37 762.48,1132.08 760.09,1090.00
             760.09,1090.00 763.13,1053.10 763.13,1053.10
             763.84,1049.12 766.80,1048.46 770.00,1046.69
             774.25,1044.34 780.46,1040.68 782.15,1036.00
             783.88,1031.81 782.21,1026.38 782.15,1022.00
             781.58,1010.04 787.15,1007.69 788.67,999.00
             789.97,991.59 787.77,980.18 790.00,971.00 Z" />
  <path id="Amadeo"
        fill="none" stroke="black" stroke-width="1"
        d="M 1306.00,1369.00
           C 1306.97,1359.44 1299.15,1351.25 1296.94,1342.00
             1294.04,1330.23 1299.33,1319.73 1296.94,1309.00
             1294.53,1297.75 1284.90,1285.92 1282.52,1274.00
             1280.72,1265.01 1288.49,1261.23 1290.32,1254.00
             1291.28,1250.17 1289.40,1246.35 1287.73,1243.00
             1281.75,1231.03 1264.26,1208.51 1255.63,1197.00
             1248.75,1187.83 1241.06,1178.90 1241.00,1167.00
             1241.00,1167.00 1241.00,1160.00 1241.00,1160.00
             1241.00,1160.00 1242.00,1145.00 1242.00,1145.00
             1242.04,1141.38 1242.42,1135.14 1240.83,1132.00
             1237.11,1124.66 1221.44,1118.89 1215.58,1110.00
             1211.68,1104.08 1214.28,1097.55 1211.47,1091.00
             1207.98,1082.86 1197.23,1072.55 1195.01,1067.00
             1193.33,1062.80 1194.07,1050.19 1194.00,1045.00
             1193.87,1035.20 1187.43,1027.00 1182.42,1019.00
             1175.78,1008.38 1171.68,1000.49 1166.72,989.00
             1165.48,986.12 1161.67,977.70 1161.65,975.00
             1161.63,972.22 1163.97,968.52 1165.24,966.00
             1167.88,960.80 1171.65,952.34 1175.04,948.04
             1181.89,939.35 1188.49,937.82 1199.00,938.00
             1213.18,938.25 1218.34,955.18 1223.75,966.00
             1225.21,968.92 1227.43,974.34 1230.21,975.98
             1232.29,977.20 1235.62,977.00 1238.00,977.00
             1238.00,977.00 1271.00,977.00 1271.00,977.00
             1271.00,977.00 1286.00,976.00 1286.00,976.00
             1288.31,975.98 1292.47,975.70 1294.39,976.99
             1296.52,978.42 1299.04,983.63 1300.24,986.00
             1300.24,986.00 1310.00,1005.00 1310.00,1005.00
             1310.00,1005.00 1321.26,1027.00 1321.26,1027.00
             1323.28,1030.93 1326.67,1035.87 1327.62,1040.00
             1327.62,1040.00 1336.37,1117.00 1336.37,1117.00
             1336.37,1117.00 1344.63,1147.00 1344.63,1147.00
             1345.52,1150.42 1348.31,1161.57 1349.85,1163.96
             1352.85,1168.60 1361.01,1171.14 1365.96,1174.93
             1372.01,1179.55 1377.35,1189.85 1379.91,1197.00
             1385.49,1212.57 1378.73,1214.56 1375.10,1225.00
             1373.17,1230.57 1372.68,1237.14 1373.09,1243.00
             1373.96,1255.45 1380.97,1264.50 1384.66,1276.00
             1388.80,1288.93 1389.18,1298.78 1390.09,1312.00
             1390.09,1312.00 1391.00,1322.00 1391.00,1322.00
             1391.00,1322.00 1391.00,1326.00 1391.00,1326.00
             1391.00,1328.04 1391.26,1331.63 1390.01,1333.30
             1388.64,1335.12 1374.08,1340.18 1371.00,1341.32
             1371.00,1341.32 1326.00,1360.42 1326.00,1360.42
             1326.00,1360.42 1306.00,1369.00 1306.00,1369.00 Z" />
  <path id="Kawit"
        fill="none" stroke="black" stroke-width="1"
        d="M 1287.00,151.00
           C 1298.27,148.70 1296.82,162.95 1301.65,168.85
             1304.15,171.91 1306.39,171.87 1310.00,172.00
             1310.00,172.00 1309.00,196.00 1309.00,196.00
             1309.00,196.00 1308.00,213.00 1308.00,213.00
             1295.71,213.00 1288.08,212.77 1276.00,216.75
             1255.66,223.44 1238.24,243.01 1224.92,259.00
             1224.92,259.00 1199.91,289.00 1199.91,289.00
             1197.49,291.60 1192.85,297.24 1189.00,296.68
             1185.73,296.22 1179.37,290.47 1177.21,287.99
             1174.67,285.07 1172.89,281.51 1171.31,278.00
             1163.67,261.06 1168.98,253.69 1169.00,237.00
             1169.01,232.29 1169.31,228.50 1167.52,224.00
             1165.00,217.63 1160.17,213.54 1158.00,207.00
             1158.00,207.00 1171.00,191.00 1171.00,191.00
             1173.77,191.50 1179.41,191.87 1181.37,193.60
             1183.95,195.87 1186.30,204.89 1195.00,204.79
             1209.55,204.62 1197.06,186.26 1208.02,182.81
             1212.47,181.40 1223.78,184.09 1229.00,184.72
             1237.55,185.74 1249.69,185.20 1258.00,183.00
             1259.23,189.52 1261.38,202.42 1267.10,206.26
             1270.78,208.73 1273.89,207.36 1276.99,204.77
             1280.81,201.57 1289.07,190.69 1290.90,186.00
             1292.51,181.04 1292.52,166.08 1290.90,161.00
             1290.90,161.00 1287.00,151.00 1287.00,151.00 Z" />
  <path id="General Mariano Alvarez"
        fill="none" stroke="black" stroke-width="1"
        d="M 1629.00,657.00
           C 1630.78,650.31 1645.30,649.99 1651.00,650.00
             1651.00,650.00 1680.00,652.00 1680.00,652.00
             1680.00,652.00 1722.00,648.33 1722.00,648.33
             1728.29,649.43 1745.93,659.36 1752.00,663.00
             1749.10,669.11 1742.10,673.91 1737.09,678.58
             1732.68,682.68 1726.96,690.17 1722.00,692.86
             1718.12,694.97 1697.12,697.46 1691.00,698.61
             1673.43,701.93 1649.23,709.15 1634.00,718.31
             1622.59,725.17 1611.73,736.32 1605.31,748.00
             1605.31,748.00 1593.56,773.00 1593.56,773.00
             1589.15,780.93 1581.92,790.26 1575.83,797.00
             1572.77,800.38 1563.41,810.39 1559.00,810.78
             1556.86,810.97 1553.97,809.30 1552.00,808.43
             1552.00,808.43 1536.00,802.00 1536.00,802.00
             1544.82,788.10 1549.80,790.75 1553.79,772.00
             1553.79,772.00 1556.92,728.00 1556.92,728.00
             1556.92,728.00 1558.57,717.28 1558.57,717.28
             1558.57,717.28 1568.20,705.00 1568.20,705.00
             1575.04,696.34 1580.95,687.78 1589.00,680.04
             1594.38,674.87 1600.11,671.06 1606.00,666.63
             1612.33,661.88 1620.66,655.84 1629.00,657.00 Z" />
  <path id="Carmona"
        fill="none" stroke="black" stroke-width="1"
        d="M 1754.00,664.00
           C 1757.02,665.20 1761.80,667.57 1765.00,666.50
             1775.46,663.00 1773.52,648.10 1789.00,648.00
             1800.54,647.92 1820.82,648.06 1831.00,653.00
             1816.80,701.61 1791.73,725.75 1764.34,766.00
             1749.51,787.80 1726.63,833.29 1716.00,858.00
             1716.00,858.00 1637.00,844.59 1637.00,844.59
             1637.00,844.59 1559.79,832.00 1559.79,832.00
             1559.81,827.96 1558.10,818.70 1559.79,815.32
             1560.63,812.92 1566.63,809.09 1569.00,806.91
             1575.16,801.24 1582.50,792.75 1587.52,786.00
             1600.51,768.54 1600.86,757.79 1611.52,742.00
             1619.15,730.70 1630.89,721.86 1643.00,715.81
             1647.38,713.62 1658.26,709.40 1663.00,708.16
             1663.00,708.16 1671.00,706.52 1671.00,706.52
             1671.00,706.52 1678.00,703.92 1678.00,703.92
             1678.00,703.92 1694.00,700.42 1694.00,700.42
             1699.59,699.42 1718.34,697.15 1722.00,695.31
             1728.88,691.87 1733.39,684.36 1739.01,679.28
             1744.28,674.53 1750.89,670.55 1754.00,664.00 Z" />
  <path id="Noveleta"
        fill="none" stroke="black" stroke-width="1"
        d="M 1141.00,197.00
           C 1154.04,203.05 1167.53,222.31 1166.96,237.00
             1166.96,237.00 1165.00,258.00 1165.00,258.00
             1164.81,275.20 1172.26,290.89 1188.00,299.00
             1185.46,304.35 1182.54,306.21 1178.00,309.79
             1174.61,312.46 1166.92,318.36 1163.00,319.49
             1160.38,320.25 1153.10,320.00 1150.00,320.00
             1150.00,320.00 1127.00,320.00 1127.00,320.00
             1125.13,320.00 1121.88,320.12 1120.21,319.40
             1116.03,317.59 1111.41,305.44 1110.71,301.00
             1109.71,294.64 1113.86,292.11 1114.26,287.00
             1114.55,283.34 1112.37,281.53 1112.84,278.00
             1112.84,278.00 1123.58,253.00 1123.58,253.00
             1128.97,238.71 1137.69,211.65 1141.00,197.00 Z" />
  <path id="Rosario"
        fill="none" stroke="black" stroke-width="1"
        d="M 1019.00,352.00
           C 1020.69,345.07 1019.22,339.90 1021.17,336.00
             1023.42,331.51 1030.22,326.43 1034.00,322.91
             1039.48,317.82 1052.41,305.08 1059.00,302.85
             1062.12,301.80 1065.73,302.02 1069.00,302.00
             1078.59,301.95 1084.36,297.74 1090.96,290.99
             1090.96,290.99 1098.32,282.93 1098.32,282.93
             1100.59,281.39 1106.16,280.53 1109.00,280.00
             1115.26,290.58 1107.41,290.02 1108.19,300.00
             1108.82,308.14 1113.57,314.88 1117.00,322.00
             1094.30,335.62 1071.60,349.83 1062.00,376.00
             1057.28,373.87 1050.81,368.76 1046.00,365.69
             1038.42,360.87 1027.45,354.95 1019.00,352.00 Z" />
  <path id="Imus"
        fill="none" stroke="black" stroke-width="1"
        d="M 1261.00,227.00
           C 1272.09,219.66 1281.88,216.85 1295.00,215.91
             1299.77,215.57 1304.42,214.60 1309.00,217.01
             1312.68,218.95 1316.19,223.88 1319.09,227.00
             1325.65,234.04 1332.68,240.85 1337.91,249.00
             1337.91,249.00 1351.44,274.00 1351.44,274.00
             1358.51,284.02 1369.04,293.33 1375.12,304.00
             1380.89,314.11 1380.12,321.90 1391.00,340.00
             1391.00,340.00 1414.19,376.00 1414.19,376.00
             1417.23,380.89 1420.82,385.61 1422.93,391.00
             1422.93,391.00 1435.02,431.00 1435.02,431.00
             1442.14,453.88 1448.81,470.34 1461.20,491.00
             1468.96,503.94 1473.19,513.11 1486.00,522.00
             1486.00,522.00 1349.00,522.00 1349.00,522.00
             1337.15,522.02 1330.50,527.87 1320.00,532.69
             1320.00,532.69 1297.00,543.38 1297.00,543.38
             1297.00,543.38 1275.00,547.00 1275.00,547.00
             1269.03,526.55 1248.60,467.75 1239.73,450.00
             1239.73,450.00 1216.45,412.00 1216.45,412.00
             1216.45,412.00 1192.14,367.00 1192.14,367.00
             1186.35,356.57 1183.11,351.40 1175.60,342.00
             1170.83,336.03 1163.94,328.90 1161.00,322.00
             1169.49,321.04 1178.79,312.55 1185.00,306.93
             1185.00,306.93 1194.91,297.96 1194.91,297.96
             1194.91,297.96 1226.39,261.00 1226.39,261.00
             1231.96,254.14 1256.01,230.31 1261.00,227.00 Z
           M 1200.38,-290.89" />
  <path id="Bacoor"
        fill="none" stroke="black" stroke-width="1"
        d="M 1312.00,172.00
           C 1312.00,172.00 1335.00,170.09 1335.00,170.09
             1355.70,168.67 1370.38,167.96 1390.00,159.57
             1409.04,151.43 1420.96,141.20 1437.00,128.82
             1442.21,124.80 1447.18,122.64 1453.00,119.75
             1455.07,118.73 1458.48,116.65 1460.82,117.41
             1463.38,118.24 1464.90,121.78 1466.00,124.00
             1462.55,124.91 1453.56,125.52 1453.59,130.06
             1453.61,132.81 1456.95,135.84 1455.76,138.73
             1454.30,142.23 1446.28,142.04 1444.90,148.02
             1444.06,151.62 1448.21,160.45 1449.72,164.00
             1453.13,172.07 1456.89,182.21 1457.00,191.00
             1457.00,191.00 1457.00,206.00 1457.00,206.00
             1457.11,213.78 1459.13,215.24 1462.14,222.00
             1466.72,232.30 1469.25,239.81 1478.01,247.83
             1482.02,251.50 1488.18,255.66 1493.00,258.22
             1495.27,259.42 1500.64,261.70 1502.01,263.63
             1503.46,265.70 1502.56,268.14 1504.48,273.00
             1504.48,273.00 1511.30,287.00 1511.30,287.00
             1511.30,287.00 1514.58,299.85 1514.58,299.85
             1516.34,303.65 1519.82,302.53 1522.77,304.31
             1526.19,306.37 1526.11,310.47 1525.94,314.00
             1525.84,316.86 1524.67,320.42 1525.94,322.96
             1527.71,326.60 1535.40,330.23 1538.90,340.00
             1541.91,348.41 1540.16,355.05 1542.31,358.79
             1544.43,362.47 1548.18,362.30 1551.70,365.41
             1555.19,368.49 1559.70,375.71 1561.74,380.00
             1563.46,383.61 1564.42,386.96 1564.66,391.00
             1564.43,394.56 1563.10,397.32 1564.66,400.06
             1568.40,405.43 1578.12,405.71 1580.98,410.34
             1582.41,412.65 1581.90,417.22 1582.09,420.00
             1582.40,424.52 1583.66,433.06 1585.68,437.00
             1590.20,445.79 1598.40,446.04 1600.36,452.02
             1601.47,455.38 1599.08,461.00 1597.51,464.00
             1592.51,473.56 1589.02,473.53 1589.00,485.00
             1589.00,485.00 1589.00,504.00 1589.00,504.00
             1589.00,504.00 1585.28,541.00 1585.28,541.00
             1585.28,541.00 1581.00,574.00 1581.00,574.00
             1581.00,574.00 1519.00,532.78 1519.00,532.78
             1511.89,529.03 1504.59,525.55 1497.00,522.86
             1489.71,520.28 1483.91,520.06 1478.44,513.96
             1472.75,507.61 1468.19,499.32 1463.80,492.00
             1450.95,470.57 1444.41,454.75 1437.02,431.00
             1437.02,431.00 1424.93,391.00 1424.93,391.00
             1423.04,386.15 1415.54,374.83 1412.33,370.00
             1412.33,370.00 1391.20,337.00 1391.20,337.00
             1382.73,322.80 1382.47,313.37 1377.12,304.00
             1377.12,304.00 1352.75,273.00 1352.75,273.00
             1345.48,262.33 1344.32,253.87 1335.54,243.00
             1335.54,243.00 1317.58,223.00 1317.58,223.00
             1315.44,220.54 1311.67,216.92 1310.80,214.00
             1309.26,210.35 1310.98,201.61 1310.80,197.00
             1311.04,188.62 1310.52,180.28 1312.00,172.00 Z" />
  <path id="Dasmariñas"
        fill="none" stroke="black" stroke-width="1"
        d="M 1276.00,549.00
           C 1294.32,548.60 1301.24,544.64 1317.00,536.75
             1327.11,531.70 1337.45,525.02 1349.00,525.00
             1349.00,525.00 1468.00,525.00 1468.00,525.00
             1474.51,524.99 1488.92,522.73 1494.00,523.94
             1519.94,530.11 1548.50,555.99 1571.00,570.19
             1571.00,570.19 1580.00,576.00 1580.00,576.00
             1578.07,581.79 1571.16,601.08 1571.38,606.00
             1571.63,611.57 1576.55,614.96 1575.35,621.00
             1575.35,621.00 1568.42,639.00 1568.42,639.00
             1568.42,639.00 1553.15,683.00 1553.15,683.00
             1550.26,693.57 1546.13,710.01 1556.00,718.00
             1554.81,726.42 1553.01,734.41 1553.00,743.00
             1552.98,755.34 1553.49,769.42 1548.53,781.00
             1541.91,796.47 1524.19,801.67 1521.29,824.00
             1518.92,842.24 1531.01,838.93 1534.98,857.00
             1535.81,860.75 1537.01,867.50 1534.40,870.85
             1530.58,875.39 1521.63,873.27 1517.00,870.85
             1517.00,870.85 1508.00,865.84 1508.00,865.84
             1505.40,864.86 1502.73,865.01 1500.00,865.00
             1500.00,865.00 1445.00,865.00 1445.00,865.00
             1445.00,865.00 1429.00,866.00 1429.00,866.00
             1429.00,866.00 1397.00,866.00 1397.00,866.00
             1385.74,865.98 1388.95,863.68 1380.00,859.32
             1373.74,856.28 1360.65,852.53 1356.30,847.79
             1353.23,844.45 1349.89,831.84 1348.63,827.00
             1348.63,827.00 1337.58,786.00 1337.58,786.00
             1337.58,786.00 1320.68,731.00 1320.68,731.00
             1315.79,720.71 1309.90,719.55 1305.84,713.00
             1303.27,708.86 1302.13,699.91 1302.01,695.00
             1301.66,679.52 1310.80,666.35 1306.38,652.00
             1302.47,639.32 1286.30,623.20 1280.47,608.00
             1275.65,595.46 1277.15,579.34 1277.00,566.00
             1277.00,566.00 1276.00,549.00 1276.00,549.00 Z" />
  <path id="Tanza"
        fill="none" stroke="black" stroke-width="1"
        d="M 1019.00,355.00
           C 1027.73,356.64 1044.44,366.81 1052.00,372.02
             1079.59,391.07 1087.87,407.81 1100.86,437.00
             1105.35,447.09 1110.32,457.08 1112.55,468.00
             1115.69,483.36 1115.03,497.48 1115.00,513.00
             1114.98,525.99 1111.81,522.56 1109.52,532.00
             1108.06,538.05 1104.87,564.86 1105.01,571.00
             1105.32,584.17 1114.71,593.22 1113.81,604.00
             1113.81,604.00 1100.32,647.00 1100.32,647.00
             1098.79,656.49 1103.50,658.77 1104.55,664.00
             1105.11,666.83 1103.98,671.11 1103.40,674.00
             1101.78,682.12 1102.14,681.06 1102.00,689.00
             1101.96,690.95 1102.10,693.63 1100.40,694.98
             1098.81,696.23 1094.99,696.00 1093.00,696.00
             1093.00,696.00 1065.00,697.00 1065.00,697.00
             1065.00,697.00 1043.00,698.79 1043.00,698.79
             1039.12,699.89 1027.79,705.79 1024.00,708.01
             1002.20,720.77 982.31,742.36 982.00,769.00
             981.81,785.30 986.66,799.48 995.75,813.00
             998.57,817.20 1001.74,821.20 1005.07,825.00
             1006.74,826.90 1009.37,829.16 1008.66,832.00
             1008.13,834.12 1004.61,837.40 1003.00,838.91
             1003.00,838.91 989.00,851.71 989.00,851.71
             986.93,853.49 983.96,856.33 981.00,855.76
             977.98,855.17 966.15,844.23 963.00,841.59
             963.00,841.59 944.00,825.27 944.00,825.27
             940.11,821.93 934.80,817.66 932.57,813.00
             929.99,807.61 930.07,798.90 930.00,793.00
             929.75,774.87 909.07,767.68 907.19,751.00
             904.96,731.24 927.79,725.26 927.82,706.00
             927.83,702.40 926.23,689.31 925.04,686.00
             925.04,686.00 921.63,678.00 921.63,678.00
             919.54,670.57 924.35,666.56 919.58,657.00
             917.51,652.87 908.12,641.15 904.80,637.00
             895.92,625.90 883.80,611.49 872.00,603.60
             865.10,598.98 858.99,598.86 852.00,595.39
             852.00,595.39 823.00,580.43 823.00,580.43
             823.00,580.43 792.00,570.00 792.00,570.00
             795.18,556.09 801.70,550.37 810.72,540.00
             823.74,525.03 839.51,511.59 855.00,499.20
             855.00,499.20 878.00,482.05 878.00,482.05
             885.03,478.37 889.51,481.60 896.00,477.91
             899.43,475.96 905.03,470.01 908.00,467.00
             908.00,467.00 944.00,427.09 944.00,427.09
             946.33,425.19 951.68,420.60 954.83,421.43
             958.10,422.30 961.12,429.42 968.00,425.26
             972.24,422.69 982.59,411.19 986.28,407.00
             990.88,401.78 996.36,396.69 1000.37,391.00
             1000.37,391.00 1019.00,355.00 1019.00,355.00 Z" />
  <path id="General Trias"
        fill="none" stroke="black" stroke-width="1"
        d="M 1105.12,695.00
           C 1104.25,685.69 1103.50,689.09 1105.12,679.00
             1105.85,675.56 1107.82,666.99 1107.44,664.00
             1106.59,657.31 1100.84,656.14 1102.90,647.00
             1102.90,647.00 1113.33,616.00 1113.33,616.00
             1114.81,611.58 1117.12,605.65 1116.66,601.00
             1115.78,592.07 1107.45,579.79 1107.34,571.00
             1107.34,571.00 1112.35,532.00 1112.35,532.00
             1114.17,524.97 1117.85,523.54 1118.00,511.00
             1118.00,511.00 1118.00,496.00 1118.00,496.00
             1118.00,496.00 1117.09,484.00 1117.09,484.00
             1115.55,462.06 1111.58,454.59 1102.86,435.00
             1098.44,425.06 1095.59,417.55 1089.80,408.00
             1083.81,398.14 1079.02,393.07 1071.00,385.00
             1068.38,382.36 1064.18,379.18 1065.22,375.00
             1065.22,375.00 1068.75,368.00 1068.75,368.00
             1077.42,351.45 1090.42,341.30 1106.00,331.58
             1114.67,326.17 1117.55,323.02 1128.00,323.00
             1138.42,322.98 1148.66,323.36 1159.00,322.00
             1160.28,328.02 1163.81,331.32 1167.61,336.00
             1173.24,342.93 1178.07,348.26 1182.80,356.00
             1182.80,356.00 1212.42,410.00 1212.42,410.00
             1212.42,410.00 1238.69,454.00 1238.69,454.00
             1248.61,475.59 1256.16,498.48 1263.67,521.00
             1268.23,534.68 1273.82,546.17 1274.00,561.00
             1274.00,561.00 1274.00,583.00 1274.00,583.00
             1274.02,593.21 1275.92,605.99 1280.86,615.00
             1286.37,625.02 1301.76,644.46 1304.21,653.00
             1307.66,665.01 1300.15,677.92 1300.00,690.00
             1299.93,696.51 1299.47,706.19 1302.45,712.00
             1306.57,720.04 1314.04,721.41 1319.55,735.00
             1325.02,748.49 1335.71,789.12 1339.88,805.00
             1339.88,805.00 1349.35,840.00 1349.35,840.00
             1349.63,844.62 1345.47,847.65 1342.93,854.00
             1341.17,858.38 1340.45,866.23 1337.92,869.61
             1334.82,873.75 1325.70,874.56 1321.00,877.70
             1321.00,877.70 1296.00,902.00 1296.00,902.00
             1289.09,908.91 1278.20,917.27 1279.11,928.00
             1279.63,934.19 1285.37,942.14 1287.96,948.00
             1292.44,958.13 1293.00,963.17 1293.00,974.00
             1293.00,974.00 1263.00,974.00 1263.00,974.00
             1263.00,974.00 1248.00,975.00 1248.00,975.00
             1245.19,975.03 1234.34,975.33 1232.39,974.43
             1230.25,973.44 1228.56,970.01 1227.42,968.00
             1227.42,968.00 1218.22,949.00 1218.22,949.00
             1212.40,938.07 1209.13,939.94 1206.88,934.90
             1205.60,932.04 1204.25,921.62 1203.73,918.00
             1203.73,918.00 1199.72,878.00 1199.72,878.00
             1199.01,872.34 1198.68,869.27 1196.22,864.00
             1194.89,861.15 1191.40,855.04 1191.64,852.05
             1191.95,848.15 1195.93,847.52 1199.00,846.79
             1204.74,845.44 1209.31,844.02 1208.69,837.00
             1207.81,826.96 1199.84,802.68 1194.65,794.00
             1187.79,782.54 1182.08,787.53 1180.29,773.00
             1179.82,769.23 1179.66,763.45 1181.31,760.00
             1183.84,754.73 1186.68,755.16 1186.98,748.00
             1187.16,743.85 1187.29,739.51 1184.57,736.10
             1181.97,732.85 1178.36,731.93 1176.74,727.96
             1175.79,725.64 1175.15,716.90 1174.92,714.00
             1174.39,707.46 1173.11,696.09 1171.28,690.00
             1169.66,684.62 1166.75,678.05 1161.00,676.05
             1152.84,673.22 1150.28,684.87 1145.62,689.86
             1141.55,694.22 1136.49,693.99 1131.00,694.00
             1131.00,694.00 1125.00,694.00 1125.00,694.00
             1125.00,694.00 1105.12,695.00 1105.12,695.00 Z" />
  <path id="Trece Marites"
        fill="none" stroke="black" stroke-width="1"
        d="M 1204.00,936.00
           C 1188.19,932.15 1176.64,939.42 1168.87,953.00
             1166.45,957.23 1161.57,969.87 1158.39,972.01
             1156.83,973.06 1154.80,972.97 1153.00,973.00
             1153.00,973.00 1104.00,973.00 1104.00,973.00
             1101.74,973.00 1098.47,973.25 1096.52,972.01
             1094.62,970.81 1092.31,966.94 1090.98,965.00
             1090.98,965.00 1080.60,951.00 1080.60,951.00
             1080.60,951.00 1067.96,936.13 1067.96,936.13
             1067.96,936.13 1059.09,928.95 1059.09,928.95
             1059.09,928.95 1050.00,919.00 1050.00,919.00
             1050.00,919.00 1028.00,898.04 1028.00,898.04
             1028.00,898.04 998.00,871.42 998.00,871.42
             995.66,869.42 987.00,862.47 986.34,859.98
             985.48,856.78 989.95,853.82 992.00,851.91
             992.00,851.91 1006.98,838.00 1006.98,838.00
             1008.69,836.22 1011.37,833.65 1011.37,831.00
             1011.37,828.32 1008.72,825.86 1007.07,824.00
             1003.63,820.10 1001.55,817.30 998.67,813.00
             990.46,800.76 986.08,789.64 984.29,775.00
             983.67,770.00 984.34,765.89 985.26,761.00
             989.71,737.31 1005.06,722.25 1025.00,710.20
             1034.14,704.68 1042.12,700.02 1053.00,700.00
             1053.00,700.00 1058.00,700.00 1058.00,700.00
             1058.00,700.00 1068.00,699.04 1068.00,699.04
             1068.00,699.04 1080.00,699.04 1080.00,699.04
             1080.00,699.04 1095.00,698.00 1095.00,698.00
             1095.00,698.00 1115.00,697.00 1115.00,697.00
             1115.00,697.00 1132.00,696.28 1132.00,696.28
             1134.97,695.93 1140.74,696.25 1142.99,695.40
             1151.08,692.34 1152.77,676.07 1160.91,678.91
             1165.50,680.51 1168.01,687.72 1169.10,692.00
             1169.10,692.00 1172.72,718.00 1172.72,718.00
             1173.11,721.22 1173.31,727.10 1174.56,729.96
             1177.47,736.61 1184.74,734.12 1184.55,745.00
             1184.33,756.89 1176.54,755.06 1177.21,768.00
             1177.38,771.35 1178.18,779.28 1179.85,781.96
             1182.61,786.39 1187.66,788.07 1191.53,794.04
             1196.73,802.04 1204.98,826.52 1205.82,836.00
             1207.00,849.19 1190.37,840.09 1189.19,852.00
             1188.57,858.24 1194.85,863.70 1196.56,874.00
             1196.56,874.00 1199.17,901.00 1199.17,901.00
             1199.17,901.00 1204.00,936.00 1204.00,936.00 Z" />
  <path id="Naic"
        fill="none" stroke="black" stroke-width="1"
        d="M 1060.00,934.00
           C 1060.00,934.00 1024.00,945.02 1024.00,945.02
             1024.00,945.02 953.00,966.72 953.00,966.72
             953.00,966.72 927.00,974.67 927.00,974.67
             923.79,975.71 917.20,978.28 914.01,977.31
             910.97,976.39 908.06,972.35 905.93,970.00
             905.93,970.00 888.59,950.00 888.59,950.00
             888.59,950.00 849.55,900.00 849.55,900.00
             849.55,900.00 827.83,875.00 827.83,875.00
             823.77,870.51 807.26,853.74 803.00,850.96
             803.00,850.96 780.00,839.69 780.00,839.69
             780.00,839.69 737.00,819.78 737.00,819.78
             731.12,817.00 724.43,814.52 719.00,810.90
             713.63,807.32 701.02,792.55 695.92,787.00
             695.92,787.00 670.91,759.00 670.91,759.00
             666.00,753.82 664.82,754.09 661.09,750.74
             661.09,750.74 652.99,742.00 652.99,742.00
             645.95,734.83 643.63,734.23 637.00,728.68
             637.00,728.68 625.00,717.00 625.00,717.00
             622.89,714.89 617.02,709.33 615.87,707.00
             614.06,703.32 617.10,699.43 618.55,696.00
             619.69,693.32 620.19,691.54 621.99,689.09
             632.40,674.91 638.96,685.20 657.00,685.00
             678.32,684.75 686.74,671.03 695.78,654.00
             699.45,647.08 706.59,633.57 714.00,630.74
             715.89,630.02 718.01,630.03 720.00,630.00
             728.38,629.89 737.28,632.63 745.00,627.99
             751.84,623.89 765.44,606.19 770.14,599.00
             770.14,599.00 777.78,587.30 777.78,587.30
             779.47,585.30 781.09,584.20 783.00,582.54
             783.00,582.54 791.39,573.66 791.39,573.66
             793.92,572.72 803.17,575.75 806.00,576.67
             819.10,580.94 832.13,586.59 844.00,593.60
             844.00,593.60 872.00,606.44 872.00,606.44
             884.94,615.42 897.90,631.38 907.37,644.00
             914.79,653.87 918.98,656.31 919.25,669.00
             919.00,671.78 918.81,676.46 919.25,679.00
             919.25,679.00 923.62,689.00 923.62,689.00
             924.81,694.22 925.06,701.61 925.00,707.00
             924.85,719.12 918.97,721.10 912.24,730.00
             906.76,737.24 903.68,744.80 905.33,754.00
             907.02,763.47 918.51,772.66 923.90,781.00
             928.82,788.63 927.90,792.54 928.00,801.00
             928.05,805.10 928.56,810.31 930.45,814.00
             932.92,818.82 938.91,823.72 943.00,827.28
             943.00,827.28 964.00,845.41 964.00,845.41
             964.00,845.41 1023.00,896.83 1023.00,896.83
             1031.26,904.29 1054.25,925.97 1060.00,934.00 Z" />
  <path id="Silang"
        fill="none" stroke="black" stroke-width="1"
        d="M 1352.00,846.00
           C 1356.70,855.46 1371.14,857.74 1380.00,862.27
             1386.31,865.50 1386.50,867.86 1394.00,868.00
             1394.00,868.00 1502.00,868.00 1502.00,868.00
             1513.12,868.19 1514.78,876.01 1527.00,875.97
             1531.40,875.96 1536.40,874.82 1537.84,869.96
             1538.07,868.50 1538.02,864.65 1537.84,863.00
             1537.93,857.57 1536.91,851.69 1534.01,847.00
             1529.46,839.66 1524.30,839.20 1524.02,829.00
             1523.83,822.38 1526.60,806.77 1534.09,804.78
             1537.04,804.00 1544.06,807.58 1547.00,808.85
             1549.42,809.89 1553.50,811.33 1555.07,813.41
             1557.18,816.23 1557.40,829.44 1558.00,834.00
             1558.00,834.00 1617.00,843.59 1617.00,843.59
             1617.00,843.59 1715.00,860.00 1715.00,860.00
             1709.87,872.82 1699.27,896.53 1700.04,910.00
             1700.12,911.36 1700.24,912.71 1700.74,914.00
             1706.00,927.53 1720.27,912.13 1729.99,915.89
             1739.12,919.42 1740.90,937.44 1741.00,946.00
             1741.22,964.91 1738.74,983.29 1736.28,1002.00
             1732.89,1027.75 1731.49,1041.77 1718.13,1065.00
             1697.48,1100.89 1663.81,1125.88 1646.31,1164.00
             1636.22,1185.96 1637.28,1193.65 1630.77,1211.00
             1630.77,1211.00 1616.45,1241.00 1616.45,1241.00
             1614.68,1245.45 1612.44,1252.27 1612.09,1257.00
             1611.89,1259.72 1612.56,1264.09 1610.40,1266.07
             1608.88,1267.47 1594.94,1271.30 1592.00,1272.14
             1592.00,1272.14 1549.00,1284.72 1549.00,1284.72
             1549.00,1284.72 1451.00,1314.67 1451.00,1314.67
             1451.00,1314.67 1416.00,1326.00 1416.00,1326.00
             1409.52,1328.16 1399.35,1332.02 1393.00,1333.00
             1393.00,1314.56 1392.76,1295.91 1387.85,1278.00
             1383.96,1263.80 1376.48,1256.39 1375.17,1241.00
             1374.77,1236.29 1376.43,1227.32 1378.35,1223.00
             1380.32,1218.55 1383.43,1214.97 1384.23,1210.00
             1384.87,1206.08 1383.59,1200.73 1382.30,1197.00
             1378.85,1186.98 1374.43,1179.12 1366.00,1172.38
             1360.84,1168.25 1352.69,1166.78 1350.64,1159.98
             1350.64,1159.98 1337.17,1108.00 1337.17,1108.00
             1337.17,1108.00 1332.17,1060.00 1332.17,1060.00
             1331.59,1054.27 1330.95,1043.11 1329.38,1038.00
             1327.86,1033.08 1322.77,1024.88 1320.26,1020.00
             1320.26,1020.00 1311.69,1003.00 1311.69,1003.00
             1311.69,1003.00 1297.21,975.00 1297.21,975.00
             1297.21,975.00 1292.56,953.00 1292.56,953.00
             1289.77,945.16 1280.54,931.86 1281.25,925.00
             1281.88,918.95 1286.96,914.06 1291.00,910.00
             1291.00,910.00 1311.00,890.00 1311.00,890.00
             1313.46,887.52 1318.67,881.61 1321.09,879.99
             1326.29,876.52 1334.38,876.30 1338.73,871.78
             1345.50,864.73 1341.87,851.68 1352.00,846.00 Z" />
  <path id="Indang"
        fill="none" stroke="black" stroke-width="1"
        d="M 915.00,981.00
           C 915.00,981.00 949.00,970.72 949.00,970.72
             949.00,970.72 1017.00,950.00 1017.00,950.00
             1017.00,950.00 1049.00,940.28 1049.00,940.28
             1052.08,939.35 1060.21,936.31 1062.96,936.61
             1066.74,937.03 1071.04,943.18 1073.41,946.00
             1073.41,946.00 1087.28,964.00 1087.28,964.00
             1089.19,966.72 1092.49,972.44 1095.18,973.98
             1097.34,975.21 1100.56,975.00 1103.00,975.00
             1103.00,975.00 1150.00,975.00 1150.00,975.00
             1160.61,975.02 1157.98,975.93 1164.30,990.00
             1168.99,1000.42 1171.36,1006.15 1177.69,1016.00
             1183.16,1024.51 1190.86,1034.57 1191.00,1045.00
             1191.07,1050.59 1190.32,1062.28 1192.14,1067.00
             1194.37,1072.75 1204.80,1082.83 1208.59,1091.00
             1212.87,1100.24 1208.56,1105.09 1214.23,1112.00
             1217.94,1116.53 1223.20,1120.64 1228.00,1123.98
             1231.52,1126.42 1236.43,1129.20 1238.43,1133.09
             1240.67,1137.45 1239.59,1140.56 1239.04,1145.00
             1239.04,1145.00 1239.04,1155.00 1239.04,1155.00
             1239.04,1155.00 1238.00,1165.00 1238.00,1165.00
             1237.86,1177.47 1242.12,1182.00 1249.02,1192.00
             1249.02,1192.00 1274.86,1227.00 1274.86,1227.00
             1278.64,1232.30 1288.64,1246.59 1287.57,1253.00
             1286.54,1259.13 1279.05,1264.97 1279.40,1272.00
             1279.77,1279.32 1290.43,1297.20 1293.46,1306.00
             1296.59,1315.09 1294.11,1320.31 1294.00,1329.00
             1293.86,1341.62 1293.14,1343.54 1299.41,1355.00
             1301.34,1358.52 1305.43,1365.70 1302.97,1369.61
             1301.40,1372.11 1293.92,1374.75 1291.00,1376.00
             1287.60,1377.46 1278.28,1382.54 1275.00,1381.59
             1271.96,1380.70 1268.19,1375.51 1266.21,1373.00
             1258.33,1362.99 1254.72,1355.97 1255.01,1343.00
             1255.01,1343.00 1256.00,1327.00 1256.00,1327.00
             1255.76,1307.10 1246.64,1304.30 1235.30,1291.00
             1230.96,1285.91 1228.31,1280.83 1225.22,1275.00
             1223.25,1271.29 1217.04,1257.97 1212.09,1259.34
             1209.29,1260.11 1205.71,1266.51 1204.20,1269.00
             1199.37,1276.96 1194.41,1285.80 1188.54,1293.00
             1182.72,1300.13 1174.27,1308.49 1166.00,1312.63
             1155.57,1317.84 1148.88,1317.34 1138.00,1318.09
             1138.00,1318.09 1128.00,1319.00 1128.00,1319.00
             1117.16,1319.12 1112.52,1320.00 1102.00,1321.75
             1097.88,1322.44 1089.90,1323.87 1086.01,1322.40
             1076.84,1318.93 1077.29,1304.32 1071.61,1297.00
             1068.87,1293.46 1058.66,1283.35 1055.00,1280.96
             1049.79,1277.56 1045.07,1276.56 1040.09,1271.82
             1034.16,1266.17 1030.70,1256.19 1024.68,1249.00
             1024.68,1249.00 1006.47,1231.83 1006.47,1231.83
             1003.41,1228.43 1002.24,1225.55 999.78,1222.00
             999.78,1222.00 989.83,1210.00 989.83,1210.00
             984.80,1204.43 975.30,1195.46 971.99,1189.00
             971.99,1189.00 962.95,1163.00 962.95,1163.00
             962.95,1163.00 946.29,1116.00 946.29,1116.00
             944.18,1108.66 938.69,1090.90 939.18,1084.00
             939.71,1076.66 942.15,1069.42 940.47,1062.00
             940.47,1062.00 925.52,1027.00 925.52,1027.00
             922.15,1016.79 922.33,1006.38 920.38,996.00
             919.12,989.28 916.84,986.94 915.00,981.00 Z" />
  <path id="Mendez"
        fill="none" stroke="black" stroke-width="1"
        d="M 1212.00,1261.00
           C 1212.00,1261.00 1214.00,1261.00 1214.00,1261.00
             1214.00,1261.00 1230.68,1289.00 1230.68,1289.00
             1241.32,1302.74 1252.91,1306.04 1253.00,1326.00
             1253.05,1336.40 1251.52,1351.62 1255.46,1361.00
             1259.08,1369.60 1265.77,1375.59 1271.00,1383.00
             1271.00,1383.00 1190.00,1415.81 1190.00,1415.81
             1190.00,1415.81 1151.00,1430.00 1151.00,1430.00
             1151.00,1430.00 1133.25,1392.00 1133.25,1392.00
             1133.25,1392.00 1122.21,1371.00 1122.21,1371.00
             1114.47,1360.19 1101.39,1354.51 1100.19,1340.00
             1099.97,1337.38 1100.73,1326.56 1102.60,1325.01
             1104.77,1323.21 1116.70,1322.19 1120.00,1321.84
             1134.25,1320.31 1149.47,1322.44 1163.00,1316.66
             1185.49,1307.05 1200.48,1281.61 1212.00,1261.00 Z" />
  <path id="Tagaytay"
        fill="none" stroke="black" stroke-width="1"
        d="M 1696.00,1355.00
           C 1689.18,1356.84 1673.96,1363.96 1667.00,1367.22
             1667.00,1367.22 1620.00,1388.55 1620.00,1388.55
             1620.00,1388.55 1572.00,1404.05 1572.00,1404.05
             1546.65,1413.35 1501.24,1432.84 1477.00,1444.76
             1477.00,1444.76 1412.00,1476.31 1412.00,1476.31
             1395.09,1485.46 1369.59,1500.52 1352.00,1505.98
             1352.00,1505.98 1323.00,1512.42 1323.00,1512.42
             1323.00,1512.42 1241.00,1529.00 1241.00,1529.00
             1241.00,1529.00 1217.00,1533.91 1217.00,1533.91
             1209.18,1534.38 1205.84,1531.11 1199.00,1528.70
             1199.00,1528.70 1189.51,1525.98 1189.51,1525.98
             1187.19,1524.32 1184.66,1515.93 1183.67,1513.00
             1183.67,1513.00 1172.58,1483.00 1172.58,1483.00
             1172.58,1483.00 1157.42,1446.00 1157.42,1446.00
             1156.09,1442.88 1152.13,1435.60 1154.06,1432.50
             1155.48,1430.22 1161.45,1428.55 1164.00,1427.66
             1164.00,1427.66 1188.00,1418.60 1188.00,1418.60
             1188.00,1418.60 1235.00,1399.99 1235.00,1399.99
             1235.00,1399.99 1266.00,1387.00 1266.00,1387.00
             1275.77,1383.23 1271.97,1387.22 1285.00,1381.58
             1285.00,1381.58 1370.00,1344.42 1370.00,1344.42
             1370.00,1344.42 1426.00,1325.33 1426.00,1325.33
             1426.00,1325.33 1519.00,1296.28 1519.00,1296.28
             1519.00,1296.28 1577.00,1278.98 1577.00,1278.98
             1577.00,1278.98 1612.00,1268.87 1612.00,1268.87
             1615.08,1268.48 1617.94,1269.74 1621.00,1269.97
             1621.00,1269.97 1631.00,1269.97 1631.00,1269.97
             1632.97,1270.00 1636.12,1269.88 1637.91,1270.60
             1641.66,1272.10 1649.11,1284.17 1651.67,1288.00
             1651.67,1288.00 1681.66,1332.00 1681.66,1332.00
             1685.45,1337.57 1694.11,1349.29 1696.00,1355.00 Z" />
  <path id="Alfonso"
        fill="none" stroke="black" stroke-width="1"
        d="M 975.00,1244.00
           C 975.00,1244.00 994.00,1235.42 994.00,1235.42
             996.03,1234.54 999.86,1232.66 1002.00,1232.99
             1004.67,1233.40 1009.80,1238.35 1012.00,1240.28
             1015.72,1243.56 1022.38,1250.09 1025.22,1254.00
             1025.22,1254.00 1036.18,1271.00 1036.18,1271.00
             1044.27,1280.12 1050.40,1280.54 1055.99,1284.63
             1058.39,1286.40 1065.52,1294.35 1067.90,1297.00
             1075.18,1305.13 1074.84,1322.67 1087.00,1325.69
             1090.19,1326.48 1094.79,1325.57 1098.00,1325.00
             1098.00,1331.28 1097.23,1342.50 1099.48,1348.00
             1102.45,1355.27 1112.41,1362.62 1117.67,1369.00
             1121.71,1373.89 1126.70,1384.89 1129.75,1391.00
             1151.86,1435.22 1171.33,1481.08 1187.00,1528.00
             1187.00,1528.00 1142.00,1547.56 1142.00,1547.56
             1142.00,1547.56 1112.00,1555.15 1112.00,1555.15
             1101.40,1558.05 1086.66,1564.08 1077.00,1569.31
             1068.31,1574.01 1060.06,1579.44 1052.00,1585.14
             1046.91,1588.74 1040.51,1592.74 1034.00,1590.26
             1028.88,1588.32 1023.98,1581.57 1021.20,1577.00
             1021.20,1577.00 1003.74,1543.00 1003.74,1543.00
             984.96,1506.61 959.57,1474.53 921.00,1458.00
             914.25,1455.11 894.76,1447.53 888.00,1448.25
             885.01,1448.57 880.88,1450.76 878.00,1452.00
             878.00,1452.00 878.00,1415.00 878.00,1415.00
             878.00,1415.00 879.00,1398.00 879.00,1398.00
             879.00,1398.00 879.00,1354.00 879.00,1354.00
             879.01,1350.77 879.10,1343.21 880.98,1340.63
             882.38,1338.72 887.72,1336.39 890.00,1335.25
             890.00,1335.25 912.00,1324.75 912.00,1324.75
             912.00,1324.75 965.00,1298.25 965.00,1298.25
             968.92,1296.29 981.05,1291.05 982.98,1287.79
             984.31,1285.53 984.03,1280.67 984.00,1278.00
             984.00,1278.00 982.51,1259.00 982.51,1259.00
             982.51,1259.00 975.00,1244.00 975.00,1244.00 Z" />
  <path id="Magallanes"
        fill="none" stroke="black" stroke-width="1"
        d="M 523.00,1225.00
           C 523.00,1225.00 532.00,1225.00 532.00,1225.00
             534.41,1225.00 537.74,1225.20 539.87,1223.98
             542.69,1222.36 543.84,1218.74 545.32,1216.00
             545.32,1216.00 553.55,1203.00 553.55,1203.00
             560.35,1191.51 560.76,1176.84 564.43,1164.00
             568.30,1150.42 574.85,1140.86 585.00,1131.04
             599.98,1116.55 621.94,1106.25 643.00,1106.00
             647.37,1105.95 652.09,1106.50 656.00,1104.15
             660.92,1101.18 662.67,1096.14 668.00,1093.28
             673.34,1090.41 679.74,1091.29 684.90,1086.73
             690.41,1081.84 689.54,1076.29 694.21,1073.08
             694.21,1073.08 711.00,1067.19 711.00,1067.19
             711.00,1067.19 761.00,1052.00 761.00,1052.00
             761.00,1052.00 758.00,1083.00 758.00,1083.00
             757.53,1123.15 766.41,1158.22 779.00,1196.00
             785.15,1214.46 794.81,1240.54 804.60,1257.00
             814.45,1273.55 827.99,1288.94 841.09,1303.00
             841.09,1303.00 858.28,1321.00 858.28,1321.00
             862.19,1325.44 874.81,1336.69 876.40,1341.00
             877.12,1342.94 877.00,1345.91 877.00,1348.00
             877.00,1348.00 877.00,1382.00 877.00,1382.00
             877.00,1382.00 876.00,1399.00 876.00,1399.00
             876.00,1399.00 876.00,1445.00 876.00,1445.00
             875.99,1447.86 876.34,1451.11 874.40,1453.47
             872.51,1455.78 866.83,1458.36 864.00,1459.57
             856.23,1462.90 841.32,1468.47 833.00,1466.61
             827.72,1465.43 818.20,1458.30 814.00,1454.70
             789.96,1434.07 776.09,1389.94 759.40,1362.00
             754.64,1354.04 742.42,1337.18 734.00,1333.70
             728.44,1331.40 725.38,1332.44 720.00,1332.82
             708.96,1333.60 699.82,1325.92 691.00,1320.42
             681.31,1314.40 671.61,1310.55 660.00,1311.04
             636.45,1312.03 622.29,1329.30 599.00,1334.00
             599.00,1334.00 545.98,1259.00 545.98,1259.00
             545.98,1259.00 523.00,1225.00 523.00,1225.00 Z" />
  <path id="Maragondon"
        fill="none" stroke="black" stroke-width="1"
        d="M 232.00,900.00
           C 237.78,902.49 250.93,906.78 254.37,911.10
             256.80,914.17 260.16,922.16 261.86,926.00
             261.86,926.00 275.31,961.00 275.31,961.00
             281.25,977.70 283.86,987.12 303.00,992.96
             307.43,994.31 311.38,994.94 316.00,995.00
             336.64,995.24 360.05,986.61 376.00,973.54
             376.00,973.54 413.00,936.00 413.00,936.00
             413.00,936.00 472.00,880.28 472.00,880.28
             472.00,880.28 508.00,850.71 508.00,850.71
             508.00,850.71 547.00,814.86 547.00,814.86
             552.50,810.86 553.94,812.43 560.00,812.92
             560.00,812.92 585.00,815.26 585.00,815.26
             588.74,815.73 595.67,817.02 599.00,815.26
             601.73,813.77 610.02,804.87 613.00,802.09
             613.00,802.09 636.00,780.04 636.00,780.04
             636.00,780.04 647.00,770.00 647.00,770.00
             647.00,770.00 659.00,758.15 659.00,758.15
             660.67,756.76 662.43,755.27 664.72,756.17
             666.98,757.06 676.58,768.42 678.93,771.00
             678.93,771.00 707.00,802.00 707.00,802.00
             710.49,805.54 714.00,810.16 718.01,812.90
             723.28,816.49 732.11,820.00 738.00,822.78
             738.00,822.78 780.00,842.14 780.00,842.14
             785.28,844.49 798.79,850.62 803.00,853.63
             806.51,856.15 816.33,866.33 820.00,870.00
             842.55,892.55 853.06,909.11 872.00,933.00
             872.00,933.00 896.15,962.00 896.15,962.00
             896.15,962.00 911.51,980.00 911.51,980.00
             919.46,993.24 918.21,1008.53 921.65,1023.00
             921.65,1023.00 938.47,1065.00 938.47,1065.00
             938.47,1065.00 937.01,1087.00 937.01,1087.00
             937.20,1094.78 941.15,1108.23 943.42,1116.00
             943.42,1116.00 959.00,1160.00 959.00,1160.00
             959.00,1160.00 969.53,1190.00 969.53,1190.00
             977.25,1203.63 993.78,1213.35 1001.00,1230.00
             1001.00,1230.00 975.04,1241.32 975.04,1241.32
             969.71,1242.45 967.22,1234.73 965.14,1231.00
             965.14,1231.00 944.14,1193.00 944.14,1193.00
             944.14,1193.00 910.14,1132.00 910.14,1132.00
             910.14,1132.00 892.64,1101.00 892.64,1101.00
             887.94,1091.92 889.68,1082.54 885.01,1075.00
             882.45,1070.87 874.78,1063.91 871.04,1060.00
             871.04,1060.00 853.92,1040.00 853.92,1040.00
             850.65,1036.08 843.49,1027.55 839.96,1024.44
             832.31,1017.69 825.34,1014.16 818.18,1006.00
             813.34,1000.48 810.13,993.31 806.40,987.00
             803.90,982.78 796.74,968.65 791.05,969.82
             783.78,971.32 787.06,987.57 787.00,993.00
             786.84,1005.76 778.42,1011.29 779.33,1022.00
             779.67,1026.09 781.78,1030.99 780.26,1034.99
             778.38,1039.93 770.55,1043.94 766.00,1046.24
             748.34,1055.20 736.71,1056.15 719.00,1062.00
             719.00,1062.00 694.02,1070.84 694.02,1070.84
             687.35,1075.11 688.07,1080.62 683.78,1084.72
             679.53,1088.79 672.19,1088.49 667.00,1091.28
             661.56,1094.20 659.64,1099.63 655.00,1101.98
             655.00,1101.98 628.00,1105.65 628.00,1105.65
             607.06,1110.45 590.58,1120.41 576.75,1137.00
             568.62,1146.77 564.64,1153.66 561.48,1166.00
             558.20,1178.79 557.95,1191.18 551.13,1203.00
             551.13,1203.00 543.31,1215.00 543.31,1215.00
             541.89,1217.55 540.87,1220.82 537.79,1221.71
             537.79,1221.71 523.01,1222.52 523.01,1222.52
             521.83,1222.33 521.17,1222.07 520.17,1221.39
             517.33,1219.45 507.42,1204.79 504.71,1201.00
             502.95,1198.54 500.69,1194.78 497.83,1193.60
             496.08,1192.88 492.93,1193.00 491.00,1193.00
             491.00,1193.00 469.00,1194.00 469.00,1194.00
             469.00,1194.00 442.00,1194.00 442.00,1194.00
             442.00,1194.00 428.00,1195.00 428.00,1195.00
             430.16,1187.42 435.12,1180.01 438.74,1173.00
             438.74,1173.00 465.25,1122.00 465.25,1122.00
             465.25,1122.00 474.14,1105.00 474.14,1105.00
             475.24,1103.02 477.97,1098.29 477.77,1096.10
             477.47,1092.92 472.49,1090.99 470.00,1089.58
             470.00,1089.58 447.00,1077.14 447.00,1077.14
             447.00,1077.14 375.00,1038.00 375.00,1038.00
             375.00,1038.00 353.00,1026.00 353.00,1026.00
             350.97,1024.85 343.35,1020.51 341.42,1020.39
             338.03,1020.18 328.04,1029.56 325.00,1032.00
             325.00,1032.00 281.00,1067.75 281.00,1067.75
             276.76,1071.25 266.42,1081.39 261.00,1080.31
             261.00,1080.31 233.00,1067.42 233.00,1067.42
             233.00,1067.42 214.00,1058.31 214.00,1058.31
             214.00,1058.31 155.00,1030.31 155.00,1030.31
             155.00,1030.31 134.00,1020.31 134.00,1020.31
             125.31,1016.32 119.95,1015.23 114.00,1007.00
             114.00,1007.00 118.92,1006.03 118.92,1006.03
             130.29,1003.05 121.76,995.94 118.92,991.00
             117.56,988.81 117.40,987.41 117.00,985.00
             117.00,985.00 144.00,985.00 144.00,985.00
             144.00,985.00 146.80,1000.00 146.80,1000.00
             147.52,1003.40 148.46,1006.75 149.71,1010.00
             150.51,1012.11 151.40,1014.10 152.80,1015.90
             157.78,1022.32 164.36,1021.87 169.47,1015.90
             174.78,1009.70 180.07,990.96 191.00,992.52
             200.54,993.88 199.25,1003.97 203.65,1009.96
             207.07,1014.62 215.24,1019.05 221.00,1019.59
             227.28,1020.18 240.41,1015.12 244.03,1009.91
             245.37,1007.98 246.50,1005.34 246.75,1003.00
             247.10,999.83 243.83,982.20 243.00,978.00
             243.00,978.00 234.28,925.00 234.28,925.00
             234.28,925.00 232.00,900.00 232.00,900.00 Z
           M 186.01,806.05
           C 196.44,807.54 196.37,830.30 193.61,838.00
             192.54,840.99 190.35,845.30 186.96,846.12
             182.74,847.14 179.30,840.94 177.24,838.00
             175.90,836.09 174.66,834.42 174.46,832.00
             174.23,829.20 176.05,825.67 176.91,823.00
             179.08,816.23 178.27,809.34 186.01,806.05 Z
           M 94.00,917.78
           C 107.82,915.46 115.64,930.77 120.75,941.00
             122.09,943.66 125.97,949.95 124.77,952.77
             123.24,956.36 117.21,956.06 114.00,955.99
             102.23,955.70 105.07,949.81 99.61,944.28
             96.15,940.76 92.67,941.65 89.34,938.57
             82.25,932.02 86.45,921.69 94.00,917.78 Z" />
  <path id="Ternate"
        fill="none" stroke="black" stroke-width="1"
        d="M 402.00,787.00
           C 409.35,789.34 415.24,795.19 421.00,800.13
             424.34,803.00 428.50,807.10 433.00,807.76
             441.07,808.95 451.91,797.20 459.00,792.69
             461.46,791.13 466.68,787.71 469.67,788.68
             475.07,790.43 473.94,800.94 482.02,803.34
             490.91,805.97 494.76,796.79 497.39,795.57
             498.66,794.99 500.61,795.03 502.00,795.00
             507.34,794.91 514.27,795.74 518.96,792.91
             523.39,790.24 526.72,782.52 529.45,778.00
             534.10,770.29 542.61,757.94 548.26,751.00
             557.40,739.77 568.63,734.12 580.00,725.35
             590.48,717.27 590.16,714.84 603.00,710.05
             606.18,708.86 609.72,706.94 613.00,708.70
             615.61,710.11 628.83,723.86 632.00,727.00
             632.00,727.00 649.99,742.01 649.99,742.01
             652.30,744.32 659.62,751.43 658.66,754.83
             658.16,756.61 647.09,766.91 645.00,769.00
             645.00,769.00 629.00,784.04 629.00,784.04
             629.00,784.04 609.00,803.28 609.00,803.28
             603.44,808.19 599.99,814.44 592.00,813.83
             592.00,813.83 563.00,810.76 563.00,810.76
             559.15,810.61 553.68,809.25 550.00,810.76
             546.84,811.75 538.70,819.38 536.00,822.01
             536.00,822.01 512.00,844.58 512.00,844.58
             512.00,844.58 484.00,867.43 484.00,867.43
             484.00,867.43 441.00,905.91 441.00,905.91
             441.00,905.91 413.09,933.00 413.09,933.00
             413.09,933.00 390.00,957.00 390.00,957.00
             372.24,974.76 363.64,982.39 339.00,989.42
             331.34,991.61 325.07,993.17 317.00,992.99
             306.96,992.76 293.25,988.60 286.53,980.83
             281.64,975.17 278.76,964.22 276.33,957.00
             272.95,946.95 262.34,918.91 257.04,911.02
             251.20,902.33 242.32,903.66 235.00,898.00
             237.66,897.99 241.46,898.22 243.78,896.83
             245.60,895.73 246.58,893.97 247.19,891.98
             249.45,884.68 244.28,880.85 238.00,879.00
             238.00,870.92 235.84,854.39 244.04,850.02
             248.02,847.90 253.46,850.33 259.96,847.08
             265.22,844.45 263.68,841.96 270.00,840.00
             270.00,843.11 269.55,850.38 271.02,852.85
             274.83,859.28 286.16,852.68 289.61,848.82
             296.19,841.47 292.92,834.78 294.43,829.00
             295.94,823.21 302.74,816.49 308.00,814.00
             309.57,817.64 312.27,824.05 315.21,826.57
             319.54,830.28 331.76,830.35 334.94,824.89
             337.43,820.26 334.59,812.81 334.94,807.00
             335.62,799.94 343.84,793.41 350.00,791.00
             350.00,791.00 354.43,810.94 354.43,810.94
             355.72,813.48 358.01,815.22 360.96,814.34
             366.42,812.71 370.62,800.04 373.00,795.00
             380.92,798.75 382.22,804.65 387.01,806.96
             396.12,811.35 400.64,792.95 402.00,787.00 Z" />
  <path id="Cavite City"
        fill="none" stroke="black" stroke-width="1"
        d="M 1142.00,195.00
           C 1142.89,189.24 1150.31,161.59 1152.67,157.00
             1156.33,149.85 1162.96,145.56 1169.69,131.00
             1169.69,131.00 1188.00,88.00 1188.00,88.00
             1191.21,78.57 1193.86,64.89 1199.10,57.00
             1202.51,51.87 1207.23,47.81 1212.00,44.00
             1229.48,30.07 1244.98,24.19 1267.00,21.84
             1274.96,20.98 1285.44,19.90 1293.00,23.00
             1293.00,23.00 1283.00,28.56 1283.00,28.56
             1268.86,34.86 1252.62,37.57 1242.33,50.00
             1238.13,55.06 1232.17,68.94 1238.43,74.26
             1240.84,76.31 1245.01,76.00 1248.00,76.00
             1248.00,76.00 1278.00,76.00 1278.00,76.00
             1278.00,76.00 1296.99,75.00 1296.99,75.00
             1297.38,77.90 1298.81,84.01 1296.99,86.42
             1295.15,88.82 1288.82,88.96 1286.00,89.00
             1286.00,89.00 1263.00,89.86 1263.00,89.86
             1257.83,89.14 1255.46,85.42 1251.00,85.42
             1246.18,85.42 1243.34,89.83 1238.00,90.78
             1231.46,91.93 1226.76,89.06 1220.01,94.39
             1208.23,103.71 1216.34,107.44 1203.00,119.91
             1195.84,126.60 1180.67,138.06 1176.65,147.00
             1173.54,153.92 1176.53,157.23 1175.66,163.00
             1174.87,168.22 1171.14,172.66 1169.36,178.00
             1167.02,185.03 1169.02,186.53 1168.11,190.00
             1166.97,194.35 1158.63,204.17 1155.00,207.00
             1155.00,207.00 1142.00,195.00 1142.00,195.00 Z
           M 210.00,436.00
           C 207.54,427.65 200.85,421.79 192.00,421.21
             192.00,421.21 177.00,422.87 177.00,422.87
             163.88,424.70 146.59,428.84 134.00,433.00
             126.99,435.32 117.32,437.80 112.85,444.04
             108.97,449.46 104.87,463.96 101.69,471.00
             100.25,474.19 98.02,479.25 94.90,480.98
             92.70,482.20 89.47,482.00 87.00,482.00
             77.51,482.02 55.83,483.20 48.00,479.43
             43.13,477.09 31.24,465.26 27.00,461.00
             19.39,453.35 13.76,449.22 14.01,438.00
             14.15,432.21 16.46,415.13 22.10,412.74
             26.59,410.84 32.02,413.92 40.00,408.87
             47.55,404.09 50.49,397.31 54.17,394.74
             58.28,391.87 68.01,391.95 73.00,392.00
             76.93,392.05 86.63,392.92 89.73,395.09
             92.16,396.79 92.77,399.30 95.22,401.89
             98.95,405.83 104.71,407.20 110.00,406.82
             119.60,406.13 132.86,402.49 142.00,399.31
             152.26,395.73 158.70,392.14 170.00,392.00
             189.32,391.78 201.68,394.55 217.00,407.32
             222.20,411.66 227.63,417.88 230.59,424.00
             232.12,427.06 233.44,430.58 230.59,433.30
             226.67,436.97 215.29,436.00 210.00,436.00 Z
           M 236.99,479.74
           C 244.71,480.82 239.70,492.87 236.99,497.00
             230.63,506.93 222.87,507.98 212.00,508.00
             212.00,508.00 191.00,508.00 191.00,508.00
             187.50,507.99 181.85,508.42 180.81,503.94
             179.54,498.44 186.87,494.58 191.00,493.09
             191.00,493.09 216.00,487.70 216.00,487.70
             222.99,485.71 229.13,481.21 236.99,479.74 Z" />
</svg>
