<?xml version="1.0" encoding="UTF-8" standalone="no"?>
<!DOCTYPE svg PUBLIC "-//W3C//DTD SVG 20010904//EN"
              "http://www.w3.org/TR/2001/REC-SVG-20010904/DTD/svg10.dtd">

<svg xmlns="http://www.w3.org/2000/svg"
     width="1210.69mm" height="1794.13mm"
     viewBox="0 0 2764 4096">
  <path id="Poro"
        fill="none" stroke="black" stroke-width="1"
        d="M 2297.00,1655.00
           C 2269.21,1674.67 2253.73,1693.13 2243.72,1726.00
             2243.72,1726.00 2235.80,1759.00 2235.80,1759.00
             2235.26,1761.79 2234.05,1771.81 2232.83,1773.52
             2231.30,1775.65 2228.39,1775.84 2226.00,1775.96
             2226.00,1775.96 2209.00,1776.96 2209.00,1776.96
             2209.00,1776.96 2187.00,1775.04 2187.00,1775.04
             2179.50,1775.37 2172.60,1778.37 2165.00,1776.21
             2155.90,1773.63 2154.82,1769.76 2148.91,1764.13
             2146.16,1761.51 2142.96,1760.04 2140.65,1756.95
             2136.04,1750.81 2132.94,1733.03 2136.45,1726.00
             2139.77,1719.36 2143.81,1719.89 2147.91,1707.00
             2149.79,1701.09 2147.46,1689.17 2149.79,1681.00
             2152.23,1672.40 2159.31,1667.21 2164.11,1660.00
             2171.09,1649.51 2167.53,1646.89 2171.85,1641.18
             2175.42,1636.46 2181.08,1635.60 2186.00,1633.02
             2192.19,1629.77 2194.55,1625.85 2203.00,1623.22
             2217.76,1618.62 2222.24,1627.17 2231.00,1629.24
             2235.77,1630.59 2238.27,1628.74 2244.00,1629.24
             2253.84,1629.70 2257.51,1634.95 2263.00,1637.56
             2263.00,1637.56 2270.74,1640.02 2270.74,1640.02
             2273.30,1641.57 2273.61,1644.05 2278.02,1646.59
             2284.03,1650.05 2291.31,1650.88 2297.00,1655.00 Z" />
  <path id="Pilar"
        fill="none" stroke="black" stroke-width="1"
        d="M 2416.00,1466.53
           C 2426.94,1464.75 2427.98,1469.20 2428.00,1479.00
             2428.01,1484.88 2428.34,1494.02 2423.44,1498.28
             2418.31,1502.74 2410.40,1498.76 2406.35,1510.00
             2405.59,1512.12 2404.61,1514.77 2405.35,1517.00
             2406.72,1521.20 2413.81,1524.63 2411.27,1532.00
             2411.27,1532.00 2396.16,1553.42 2396.16,1553.42
             2396.16,1553.42 2375.71,1578.68 2375.71,1578.68
             2372.08,1582.13 2365.43,1585.66 2361.00,1588.42
             2361.00,1588.42 2350.91,1595.33 2350.91,1595.33
             2348.08,1596.98 2333.38,1601.85 2330.00,1602.47
             2326.21,1603.16 2324.38,1602.28 2321.00,1600.76
             2318.38,1599.58 2313.53,1597.60 2311.70,1595.53
             2308.51,1591.92 2308.06,1579.91 2308.04,1575.00
             2307.96,1572.00 2307.25,1567.67 2308.04,1565.00
             2308.04,1565.00 2317.00,1549.04 2317.00,1549.04
             2317.00,1549.04 2339.04,1525.04 2339.04,1525.04
             2339.04,1525.04 2344.67,1519.72 2344.67,1519.72
             2349.01,1514.34 2342.22,1512.18 2346.36,1507.38
             2348.98,1504.34 2362.01,1497.36 2366.00,1494.39
             2373.79,1488.60 2376.93,1481.67 2383.04,1477.71
             2388.44,1474.22 2394.95,1474.43 2401.00,1472.70
             2401.00,1472.70 2416.00,1466.53 2416.00,1466.53 Z" />
  <path id="Tudela"
        fill="none" stroke="black" stroke-width="1"
        d="M 2236.00,1775.00
           C 2236.19,1766.29 2238.08,1760.26 2239.58,1752.00
             2244.43,1725.19 2254.01,1698.07 2272.75,1677.83
             2278.84,1671.26 2291.41,1659.33 2300.00,1657.00
             2303.57,1664.41 2312.77,1675.68 2320.00,1679.57
             2324.43,1681.95 2327.66,1680.31 2330.72,1681.57
             2335.56,1683.58 2346.63,1697.58 2348.20,1703.00
             2349.32,1706.85 2348.49,1709.26 2347.65,1713.00
             2347.06,1715.60 2346.57,1718.60 2345.44,1721.00
             2343.43,1725.24 2332.67,1735.72 2328.83,1739.42
             2324.24,1743.86 2314.08,1756.24 2309.96,1758.59
             2303.55,1762.23 2288.72,1760.99 2281.00,1761.00
             2268.39,1761.02 2269.21,1764.13 2259.00,1769.02
             2254.66,1771.10 2240.90,1774.59 2236.00,1775.00 Z" />
  <path id="San Francisco"
        fill="none" stroke="black" stroke-width="1"
        d="M 2018.02,1607.74
           C 2027.41,1605.67 2033.07,1613.21 2036.59,1621.00
             2038.01,1624.16 2039.26,1630.87 2034.85,1632.34
             2031.28,1633.54 2026.67,1629.14 2024.00,1627.13
             2018.93,1623.31 2007.73,1617.79 2014.43,1610.23
             2015.79,1608.69 2016.38,1608.64 2018.02,1607.74 Z
           M 2022.00,1639.84
           C 2031.76,1637.23 2041.38,1642.54 2050.00,1641.78
             2056.53,1641.20 2060.37,1636.80 2067.83,1640.55
             2070.37,1641.83 2072.88,1644.67 2075.16,1646.58
             2075.16,1646.58 2097.42,1666.18 2097.42,1666.18
             2103.63,1671.18 2113.56,1670.81 2117.16,1679.04
             2118.47,1682.04 2119.69,1694.36 2119.87,1698.00
             2119.87,1698.00 2122.29,1731.00 2122.29,1731.00
             2123.23,1736.76 2124.97,1738.28 2126.07,1742.00
             2127.52,1746.86 2127.57,1752.01 2128.07,1757.00
             2129.29,1766.13 2131.66,1767.76 2128.07,1777.98
             2125.40,1785.02 2122.64,1781.67 2115.00,1784.60
             2106.72,1787.76 2102.48,1793.69 2097.99,1795.72
             2094.40,1797.35 2091.18,1796.92 2087.43,1796.83
             2077.80,1796.59 2080.01,1799.01 2071.96,1801.99
             2071.96,1801.99 2046.00,1811.99 2046.00,1811.99
             2041.62,1813.69 2035.70,1815.33 2032.18,1818.39
             2026.60,1823.23 2017.50,1837.72 2011.91,1841.07
             2007.78,1843.55 1997.89,1844.05 1993.00,1844.00
             1993.00,1844.00 1978.00,1842.46 1978.00,1842.46
             1978.00,1842.46 1973.00,1840.54 1973.00,1840.54
             1967.09,1838.87 1956.49,1841.20 1950.53,1835.50
             1942.09,1827.44 1946.02,1805.60 1952.92,1797.58
             1952.92,1797.58 1973.37,1779.00 1973.37,1779.00
             1975.42,1776.48 1982.10,1766.69 1983.47,1764.00
             1985.33,1760.36 1986.26,1756.40 1988.65,1753.00
             1991.91,1748.35 1996.22,1746.11 1997.66,1742.92
             1997.66,1742.92 2000.16,1726.96 2000.16,1726.96
             2002.78,1719.12 2009.06,1715.82 2008.13,1706.42
             2007.60,1700.97 2004.27,1701.45 2002.76,1693.00
             2001.58,1686.42 2003.61,1673.36 2003.97,1666.00
             2004.17,1661.73 2003.94,1655.92 2006.27,1652.21
             2008.14,1649.24 2018.73,1641.49 2022.00,1639.84 Z" />
  <path id="Madridejos"
        fill="none" stroke="black" stroke-width="1"
        d="M 1112.00,754.00
           C 1112.00,754.00 1085.00,751.17 1085.00,751.17
             1085.00,751.17 1043.91,747.34 1043.91,747.34
             1043.91,747.34 1028.00,745.84 1028.00,745.84
             1025.59,745.66 1022.87,745.57 1021.28,743.48
             1016.93,737.79 1023.64,726.68 1026.10,721.00
             1026.10,721.00 1028.40,714.00 1028.40,714.00
             1028.40,714.00 1034.17,700.00 1034.17,700.00
             1034.17,700.00 1042.44,682.00 1042.44,682.00
             1042.44,682.00 1047.04,669.09 1047.04,669.09
             1048.98,665.23 1056.69,654.97 1061.04,654.52
             1068.87,653.70 1078.38,667.50 1082.83,673.08
             1086.74,677.97 1094.05,686.36 1095.89,692.00
             1097.96,698.33 1094.50,697.96 1099.49,713.00
             1102.94,723.40 1110.70,744.37 1112.00,754.00 Z" />
  <path id="Bantayan"
        fill="none" stroke="black" stroke-width="1"
        d="M 1039.00,889.00
           C 1039.00,889.00 1034.72,876.00 1034.72,876.00
             1034.72,876.00 1023.82,839.00 1023.82,839.00
             1020.76,832.28 1015.75,828.35 1013.38,823.00
             1013.38,823.00 1008.56,808.00 1008.56,808.00
             1006.36,803.80 1001.88,799.75 998.00,797.09
             995.27,795.23 991.06,793.49 990.41,789.91
             989.55,785.23 996.06,775.65 998.14,771.00
             1000.26,766.25 1006.18,753.32 1010.10,750.60
             1011.44,749.68 1020.07,747.98 1022.00,747.76
             1022.00,747.76 1047.00,749.83 1047.00,749.83
             1047.00,749.83 1113.00,756.00 1113.00,756.00
             1113.00,756.00 1118.73,788.00 1118.73,788.00
             1119.51,793.33 1121.39,808.82 1123.14,812.96
             1125.35,818.16 1129.10,818.55 1131.49,820.80
             1133.30,822.51 1138.09,834.55 1138.06,837.00
             1138.01,840.49 1134.65,844.36 1132.60,847.00
             1129.89,850.49 1123.15,860.29 1121.09,864.00
             1111.76,881.68 1115.11,891.38 1121.09,909.00
             1111.90,908.26 1095.82,903.86 1088.00,908.36
             1081.28,912.24 1081.76,916.24 1078.59,919.79
             1075.45,923.29 1062.81,928.71 1058.00,930.66
             1055.42,931.70 1051.81,932.77 1049.04,931.94
             1044.92,930.71 1044.05,926.74 1043.44,923.00
             1041.97,913.99 1043.03,907.46 1052.00,903.02
             1056.14,900.97 1061.42,902.29 1063.16,896.00
             1065.33,888.10 1055.27,886.71 1050.00,887.09
             1050.00,887.09 1039.00,889.00 1039.00,889.00 Z
           M 1004.10,930.78
           C 1014.71,929.23 1016.32,948.37 1005.00,952.24
             1000.98,953.62 997.81,951.09 997.47,947.00
             997.39,945.96 1000.59,934.18 1001.17,933.23
             1002.23,931.52 1002.63,931.69 1004.10,930.78 Z
           M 959.00,983.57
           C 961.46,983.13 965.28,982.48 967.43,984.17
             971.33,987.25 967.43,999.52 959.00,1002.30
             953.15,1004.22 946.68,1000.13 947.69,995.00
             948.65,990.12 954.64,985.28 959.00,983.57 Z
           M 932.00,1003.28
           C 933.99,1003.18 935.98,1002.89 938.00,1003.28
             946.50,1004.16 944.49,1014.37 942.04,1020.00
             942.04,1020.00 937.35,1028.00 937.35,1028.00
             935.72,1030.99 934.71,1035.41 932.57,1037.58
             929.84,1040.36 922.86,1041.84 919.00,1043.22
             913.26,1045.26 903.29,1048.72 900.84,1039.98
             899.44,1034.96 905.44,1031.74 906.81,1028.72
             908.14,1025.77 905.98,1021.81 908.02,1018.10
             909.76,1014.96 913.17,1013.97 915.91,1012.04
             923.79,1006.49 919.04,1005.56 932.00,1003.28 Z
           M 894.18,1058.74
           C 896.28,1058.19 896.78,1058.07 899.00,1058.02
             906.13,1057.84 908.55,1059.36 907.17,1066.83
             906.87,1068.45 906.48,1070.64 905.74,1072.09
             903.85,1075.78 897.78,1080.74 894.00,1082.40
             888.25,1084.92 884.30,1079.08 884.40,1074.00
             884.49,1068.94 890.06,1061.34 894.18,1058.74 Z" />
  <path id="Santa fe"
        fill="none" stroke="black" stroke-width="1"
        d="M 1329.00,569.70
           C 1344.38,566.39 1340.98,585.46 1341.00,595.00
             1341.02,606.63 1344.27,606.54 1343.75,612.00
             1343.75,612.00 1336.21,634.00 1336.21,634.00
             1335.20,638.76 1333.92,648.22 1334.18,653.00
             1334.10,657.28 1335.59,662.00 1334.18,666.00
             1333.08,670.12 1328.46,674.71 1325.58,678.00
             1322.94,681.00 1319.96,684.31 1316.00,685.49
             1301.07,689.96 1298.13,673.94 1298.00,663.00
             1297.88,652.83 1299.23,644.89 1301.50,635.00
             1301.50,635.00 1303.50,627.00 1303.50,627.00
             1304.39,621.94 1302.95,620.62 1303.50,616.00
             1303.50,616.00 1306.37,604.00 1306.37,604.00
             1310.13,589.56 1314.22,576.22 1329.00,569.70 Z
           M 1203.02,798.75
           C 1210.25,797.30 1224.22,801.31 1226.77,809.00
             1228.43,814.03 1226.48,821.00 1225.40,826.00
             1224.42,830.49 1220.47,841.32 1216.04,843.15
             1210.82,845.30 1197.30,839.80 1193.97,832.91
             1189.38,823.43 1193.56,803.89 1203.02,798.75 Z
           M 1140.00,839.00
           C 1140.00,839.00 1142.00,839.00 1142.00,839.00
             1142.00,839.00 1152.42,851.05 1152.42,851.05
             1155.17,854.33 1161.14,862.20 1164.04,864.36
             1169.34,868.33 1182.78,871.04 1187.39,884.00
             1189.68,890.45 1191.34,902.24 1186.21,907.57
             1182.33,911.61 1170.57,911.81 1165.00,912.58
             1165.00,912.58 1143.00,915.88 1143.00,915.88
             1138.43,915.49 1136.79,913.29 1133.00,911.42
             1133.00,911.42 1124.41,908.07 1124.41,908.07
             1120.16,904.84 1118.06,893.16 1118.00,888.00
             1117.71,862.78 1129.51,858.49 1140.00,839.00 Z" />
  <path id="Daanbantayan"
        fill="none" stroke="black" stroke-width="1"
        d="M 1654.02,285.48
           C 1657.61,284.95 1664.57,284.07 1666.91,287.43
             1669.64,291.11 1669.00,307.18 1666.91,310.85
             1665.88,312.45 1664.74,313.23 1662.96,313.68
             1654.12,315.91 1654.59,308.29 1653.02,305.17
             1653.02,305.17 1649.88,299.91 1649.88,299.91
             1648.80,297.53 1648.48,289.65 1649.88,287.56
             1651.09,286.12 1652.46,285.97 1654.02,285.48 Z
           M 1683.04,575.03
           C 1687.67,573.61 1690.56,574.83 1693.26,579.02
             1696.71,584.37 1693.30,588.23 1694.90,594.00
             1697.08,602.78 1709.52,613.06 1694.90,618.65
             1693.06,619.40 1691.07,619.71 1689.00,619.43
             1684.48,618.84 1676.95,614.09 1677.11,609.00
             1677.21,605.93 1679.69,604.72 1679.10,599.00
             1678.14,589.69 1673.56,582.03 1683.04,575.03 Z
           M 1518.00,882.00
           C 1518.00,882.00 1499.87,860.42 1499.87,860.42
             1499.87,860.42 1461.42,830.60 1461.42,830.60
             1457.82,827.28 1444.73,817.23 1444.15,813.00
             1443.66,809.40 1449.57,803.56 1451.95,801.04
             1458.58,794.03 1458.81,796.85 1465.00,793.01
             1468.84,790.62 1480.63,779.83 1483.01,776.00
             1483.01,776.00 1489.42,761.00 1489.42,761.00
             1492.02,755.00 1497.41,744.19 1497.91,738.00
             1498.79,727.13 1491.92,715.58 1499.08,704.99
             1504.13,697.80 1511.56,706.40 1526.00,704.99
             1537.48,703.58 1538.63,695.37 1547.00,694.43
             1552.26,693.84 1563.40,699.99 1574.00,697.07
             1583.40,694.48 1583.56,688.04 1596.00,689.06
             1604.52,689.76 1606.91,699.67 1602.30,705.89
             1599.13,710.18 1595.04,709.82 1593.02,713.22
             1591.84,715.21 1592.06,717.83 1592.52,720.00
             1595.05,731.93 1603.15,731.70 1613.00,733.00
             1613.33,735.47 1613.97,738.58 1613.78,741.00
             1613.20,748.53 1608.04,757.00 1602.00,761.37
             1594.24,766.96 1580.37,772.86 1576.93,782.00
             1575.34,786.49 1577.07,788.76 1576.93,793.00
             1576.75,795.06 1573.52,805.77 1572.61,807.90
             1570.30,813.32 1563.29,815.17 1562.57,822.00
             1561.95,828.00 1568.29,832.60 1567.78,840.00
             1567.78,840.00 1566.00,849.00 1566.00,849.00
             1566.00,849.00 1561.08,880.00 1561.08,880.00
             1561.08,880.00 1561.08,893.00 1561.08,893.00
             1560.98,907.60 1559.44,912.45 1552.13,925.00
             1550.48,927.83 1546.89,934.47 1542.97,933.53
             1539.66,932.73 1534.86,926.90 1533.21,924.00
             1533.21,924.00 1522.33,895.00 1522.33,895.00
             1520.88,890.72 1518.35,886.28 1518.00,882.00 Z" />
  <path id="Medellin"
        fill="none" stroke="black" stroke-width="1"
        d="M 1440.00,814.00
           C 1440.00,814.00 1466.04,837.11 1466.04,837.11
             1484.91,851.91 1498.30,857.57 1512.64,879.00
             1517.29,885.95 1524.72,907.08 1528.05,916.00
             1529.14,918.93 1531.46,925.62 1532.99,927.91
             1536.86,933.72 1544.52,935.59 1541.06,947.00
             1538.82,954.37 1529.76,957.50 1524.00,961.63
             1517.90,966.02 1514.44,972.19 1510.71,975.62
             1507.08,978.97 1502.27,980.68 1497.46,986.09
             1495.50,988.29 1490.75,994.46 1489.57,997.00
             1487.05,1002.40 1488.79,1006.33 1487.12,1011.00
             1484.10,1019.47 1469.55,1031.99 1460.00,1031.11
             1456.55,1030.79 1451.54,1026.67 1449.58,1023.91
             1447.40,1020.84 1448.32,1019.11 1444.25,1013.00
             1439.85,1006.40 1429.75,994.91 1428.90,987.00
             1428.40,982.26 1432.20,980.56 1432.26,977.04
             1432.33,972.62 1424.89,970.85 1426.66,966.30
             1428.22,962.27 1441.72,964.63 1441.81,958.05
             1441.83,956.09 1434.52,947.76 1432.91,946.00
             1426.58,939.11 1418.11,928.42 1413.99,920.00
             1411.24,914.37 1411.42,908.06 1410.83,902.00
             1410.83,902.00 1409.00,881.00 1409.00,881.00
             1408.76,860.44 1408.33,855.65 1418.72,837.00
             1420.39,833.99 1422.30,829.48 1424.30,827.01
             1428.06,822.36 1434.99,818.73 1440.00,814.00 Z
           M 1371.00,833.65
           C 1374.10,833.09 1377.05,832.77 1379.41,835.43
             1380.95,837.18 1381.43,840.72 1381.71,843.00
             1382.53,849.49 1383.11,856.46 1383.00,863.00
             1382.92,867.55 1382.15,872.23 1376.96,873.55
             1365.92,876.37 1366.77,863.30 1365.90,857.00
             1364.41,848.14 1354.47,843.77 1365.90,836.11
             1367.81,834.90 1369.03,834.43 1371.00,833.65 Z" />
  <path id="Bogo"
        fill="none" stroke="black" stroke-width="1"
        d="M 1428.00,1013.00
           C 1437.72,1017.00 1435.70,1019.98 1440.21,1023.15
             1442.52,1024.77 1445.08,1024.76 1448.00,1026.30
             1448.00,1026.30 1458.00,1033.00 1458.00,1033.00
             1458.00,1033.00 1456.99,1037.83 1456.99,1037.83
             1456.25,1044.13 1459.08,1046.49 1465.00,1043.66
             1465.00,1043.66 1483.00,1034.50 1483.00,1034.50
             1485.28,1033.90 1488.27,1033.03 1490.55,1034.50
             1492.63,1035.44 1493.18,1038.87 1493.65,1041.04
             1494.77,1052.34 1488.55,1054.04 1493.65,1060.41
             1493.65,1060.41 1497.80,1064.55 1497.80,1064.55
             1507.04,1073.40 1511.70,1063.42 1521.00,1061.83
             1526.63,1060.63 1532.31,1062.12 1538.00,1061.83
             1549.56,1061.72 1551.76,1057.40 1562.00,1055.00
             1564.80,1058.86 1568.07,1064.24 1568.79,1069.00
             1569.90,1076.41 1566.50,1082.64 1564.93,1089.58
             1564.93,1089.58 1563.09,1112.00 1563.09,1112.00
             1563.09,1112.00 1564.58,1124.00 1564.58,1124.00
             1566.91,1145.03 1569.11,1151.39 1578.00,1171.00
             1572.91,1172.18 1556.28,1168.93 1550.15,1168.03
             1550.15,1168.03 1511.00,1166.00 1511.00,1166.00
             1507.35,1165.96 1499.00,1165.51 1496.00,1167.02
             1493.27,1168.40 1490.19,1172.19 1487.83,1174.42
             1487.83,1174.42 1466.00,1192.98 1466.00,1192.98
             1463.84,1194.06 1458.60,1194.43 1456.00,1194.68
             1456.00,1194.68 1433.00,1196.00 1433.00,1196.00
             1433.00,1196.00 1437.35,1181.00 1437.35,1181.00
             1441.09,1170.03 1445.86,1161.23 1445.42,1149.00
             1445.42,1149.00 1443.00,1116.00 1443.00,1116.00
             1442.99,1106.64 1442.04,1095.23 1440.39,1086.00
             1435.29,1057.55 1428.00,1044.95 1428.00,1013.00 Z" />
  <path id="San Remigio"
        fill="none" stroke="black" stroke-width="1"
        d="M 1390.00,1146.00
           C 1382.38,1144.66 1370.66,1147.45 1366.21,1144.83
             1362.57,1142.68 1362.55,1138.51 1356.91,1133.67
             1352.96,1130.28 1348.94,1128.62 1345.99,1123.99
             1340.47,1115.30 1341.03,1101.57 1346.71,1093.09
             1346.71,1093.09 1351.39,1087.83 1351.39,1087.83
             1351.39,1087.83 1366.04,1071.17 1366.04,1071.17
             1366.04,1071.17 1376.00,1062.83 1376.00,1062.83
             1379.86,1059.31 1390.72,1047.39 1392.86,1043.00
             1399.91,1028.56 1392.56,1011.79 1390.27,997.00
             1389.39,991.30 1387.25,982.51 1395.04,980.55
             1403.52,978.43 1408.65,993.25 1411.86,999.00
             1413.65,1002.20 1416.62,1007.19 1419.30,1009.59
             1421.82,1011.85 1424.34,1012.16 1425.43,1014.41
             1426.25,1016.14 1425.95,1024.17 1426.28,1027.00
             1427.60,1038.10 1429.23,1049.18 1432.15,1060.00
             1437.80,1080.90 1440.97,1098.26 1441.00,1120.00
             1441.00,1120.00 1443.00,1143.00 1443.00,1143.00
             1443.12,1153.70 1443.41,1156.51 1440.28,1167.00
             1436.62,1179.28 1431.02,1188.78 1431.00,1202.00
             1431.00,1202.00 1431.00,1225.00 1431.00,1225.00
             1431.00,1225.00 1432.83,1249.00 1432.83,1249.00
             1432.83,1249.00 1434.09,1270.00 1434.09,1270.00
             1434.09,1270.00 1435.00,1282.00 1435.00,1282.00
             1435.00,1282.00 1435.00,1303.00 1435.00,1303.00
             1435.00,1303.00 1433.00,1329.00 1433.00,1329.00
             1433.00,1329.00 1408.00,1328.00 1408.00,1328.00
             1408.00,1328.00 1397.00,1327.04 1397.00,1327.04
             1397.00,1327.04 1373.00,1325.59 1373.00,1325.59
             1373.00,1325.59 1360.00,1319.25 1360.00,1319.25
             1360.00,1319.25 1347.00,1312.27 1347.00,1312.27
             1347.00,1312.27 1334.01,1306.00 1334.01,1306.00
             1334.01,1306.00 1334.01,1292.00 1334.01,1292.00
             1334.37,1283.34 1340.23,1283.08 1344.18,1276.00
             1346.99,1270.97 1344.87,1268.58 1348.00,1260.00
             1348.00,1260.00 1354.98,1262.34 1354.98,1262.34
             1362.67,1263.47 1360.01,1250.48 1363.59,1246.51
             1366.36,1243.45 1372.85,1243.88 1374.23,1238.95
             1375.52,1234.36 1370.15,1227.90 1370.52,1224.00
             1370.92,1219.88 1378.34,1214.05 1381.01,1207.00
             1385.31,1195.66 1375.76,1181.39 1390.09,1173.07
             1392.47,1171.68 1394.39,1170.82 1397.00,1170.00
             1393.05,1161.82 1383.52,1159.70 1384.74,1154.08
             1384.74,1154.08 1390.00,1146.00 1390.00,1146.00 Z" />
  <path id="Tabogon"
        fill="none" stroke="black" stroke-width="1"
        d="M 1433.00,1198.00
           C 1433.00,1198.00 1450.00,1197.01 1450.00,1197.01
             1454.95,1196.89 1462.64,1196.96 1467.00,1194.49
             1472.74,1191.24 1483.49,1180.56 1489.00,1175.72
             1491.55,1173.47 1494.91,1169.74 1498.00,1168.60
             1500.24,1167.77 1506.36,1167.97 1509.00,1168.00
             1509.00,1168.00 1520.00,1168.98 1520.00,1168.98
             1520.00,1168.98 1537.00,1168.98 1537.00,1168.98
             1537.00,1168.98 1578.00,1174.00 1578.00,1174.00
             1578.00,1174.00 1577.00,1195.00 1577.00,1195.00
             1576.98,1199.32 1577.26,1204.91 1575.85,1209.00
             1574.11,1214.05 1570.40,1215.63 1568.74,1220.00
             1567.42,1223.45 1568.54,1228.24 1567.40,1230.77
             1565.84,1234.25 1561.93,1233.60 1559.04,1235.17
             1554.35,1237.73 1550.85,1245.77 1551.22,1251.00
             1551.22,1251.00 1553.85,1263.00 1553.85,1263.00
             1553.85,1263.00 1553.85,1279.00 1553.85,1279.00
             1554.03,1282.39 1553.62,1286.95 1555.17,1289.99
             1558.45,1296.37 1570.47,1301.08 1576.21,1309.00
             1583.69,1319.32 1588.96,1343.15 1590.00,1356.00
             1590.00,1356.00 1555.00,1337.41 1555.00,1337.41
             1555.00,1337.41 1517.00,1334.91 1517.00,1334.91
             1517.00,1334.91 1492.00,1333.00 1492.00,1333.00
             1492.00,1333.00 1469.00,1331.91 1469.00,1331.91
             1469.00,1331.91 1435.00,1330.00 1435.00,1330.00
             1436.94,1322.04 1437.00,1300.95 1437.00,1292.00
             1437.00,1292.00 1434.91,1246.00 1434.91,1246.00
             1434.91,1246.00 1433.00,1221.00 1433.00,1221.00
             1433.00,1221.00 1433.00,1198.00 1433.00,1198.00 Z" />
  <path id="Tabuelan"
        fill="none" stroke="black" stroke-width="1"
        d="M 1275.00,1476.00
           C 1280.41,1470.20 1287.36,1461.54 1286.45,1453.00
             1286.01,1448.87 1283.00,1443.31 1285.04,1440.60
             1287.35,1437.52 1295.41,1440.73 1295.90,1435.85
             1296.09,1433.97 1293.58,1430.11 1292.84,1428.00
             1291.85,1425.24 1290.33,1416.88 1290.47,1414.00
             1290.75,1407.95 1293.85,1403.30 1296.05,1398.00
             1297.54,1394.42 1298.14,1390.52 1300.36,1387.21
             1302.24,1384.41 1304.80,1383.26 1305.94,1380.90
             1308.02,1376.60 1304.05,1373.52 1304.78,1368.00
             1305.79,1360.38 1311.22,1353.46 1314.82,1346.99
             1317.22,1342.68 1319.52,1337.84 1320.55,1333.00
             1323.36,1319.78 1320.36,1310.73 1332.00,1309.21
             1336.50,1308.63 1341.08,1311.80 1345.00,1313.75
             1345.00,1313.75 1372.00,1327.37 1372.00,1327.37
             1376.34,1328.60 1388.12,1328.83 1393.00,1329.04
             1393.00,1329.04 1401.00,1329.91 1401.00,1329.91
             1401.00,1329.91 1432.00,1332.00 1432.00,1332.00
             1431.54,1341.79 1427.29,1350.80 1424.34,1360.00
             1424.34,1360.00 1420.25,1376.00 1420.25,1376.00
             1420.25,1376.00 1415.49,1391.00 1415.49,1391.00
             1412.87,1398.84 1408.59,1409.74 1409.09,1418.00
             1409.68,1427.50 1415.09,1434.20 1416.40,1444.00
             1416.40,1444.00 1415.00,1475.00 1415.00,1475.00
             1414.89,1484.94 1415.58,1498.11 1404.00,1502.25
             1400.85,1503.37 1396.25,1502.05 1393.00,1501.40
             1393.00,1501.40 1369.00,1496.20 1369.00,1496.20
             1369.00,1496.20 1311.00,1484.00 1311.00,1484.00
             1311.00,1484.00 1275.00,1476.00 1275.00,1476.00 Z" />
  <path id="Borbon"
        fill="none" stroke="black" stroke-width="1"
        d="M 1435.00,1332.00
           C 1435.00,1332.00 1450.00,1332.96 1450.00,1332.96
             1450.00,1332.96 1490.00,1335.09 1490.00,1335.09
             1490.00,1335.09 1519.00,1337.00 1519.00,1337.00
             1519.00,1337.00 1529.00,1337.91 1529.00,1337.91
             1529.00,1337.91 1544.00,1338.83 1544.00,1338.83
             1547.53,1339.17 1551.73,1338.67 1555.00,1339.65
             1559.19,1340.90 1568.47,1347.43 1573.00,1349.96
             1579.10,1353.36 1581.93,1353.36 1587.00,1359.00
             1577.13,1365.33 1580.80,1369.86 1577.94,1380.00
             1576.12,1386.46 1571.95,1386.75 1569.86,1392.00
             1567.69,1397.47 1571.92,1399.41 1567.62,1408.00
             1562.86,1417.54 1551.44,1424.36 1551.02,1440.00
             1550.65,1453.32 1557.93,1465.23 1558.00,1482.00
             1558.06,1496.90 1554.90,1504.93 1548.37,1518.00
             1546.48,1521.77 1542.07,1533.22 1538.81,1535.08
             1536.63,1536.09 1533.45,1535.28 1531.00,1535.08
             1522.09,1534.98 1510.34,1529.56 1502.00,1526.00
             1502.00,1526.00 1476.00,1516.09 1476.00,1516.09
             1476.00,1516.09 1467.00,1513.54 1467.00,1513.54
             1467.00,1513.54 1416.00,1494.00 1416.00,1494.00
             1416.00,1494.00 1418.00,1463.00 1418.00,1463.00
             1418.01,1456.32 1419.68,1449.65 1418.70,1443.00
             1417.37,1433.99 1410.72,1425.41 1411.21,1416.00
             1411.64,1407.57 1417.22,1392.45 1420.00,1384.00
             1420.00,1384.00 1425.02,1365.00 1425.02,1365.00
             1425.02,1365.00 1435.00,1332.00 1435.00,1332.00 Z" />
  <path id="Sogod"
        fill="none" stroke="black" stroke-width="1"
        d="M 1416.00,1496.00
           C 1416.00,1496.00 1465.00,1515.05 1465.00,1515.05
             1465.00,1515.05 1473.00,1517.23 1473.00,1517.23
             1473.00,1517.23 1524.00,1537.00 1524.00,1537.00
             1521.44,1540.10 1518.14,1542.59 1515.99,1546.00
             1514.26,1548.77 1513.43,1551.98 1512.26,1555.00
             1510.62,1559.19 1508.74,1562.37 1508.18,1567.00
             1507.23,1574.95 1509.42,1576.40 1511.77,1583.00
             1512.75,1585.75 1513.27,1588.35 1514.67,1591.00
             1517.93,1597.19 1521.16,1597.01 1525.00,1604.00
             1525.00,1604.00 1512.00,1604.91 1512.00,1604.91
             1512.00,1604.91 1480.00,1606.91 1480.00,1606.91
             1474.88,1607.26 1465.60,1606.67 1461.00,1609.02
             1457.83,1610.64 1449.02,1619.95 1446.00,1623.00
             1446.00,1623.00 1434.99,1634.91 1434.99,1634.91
             1430.79,1638.91 1425.97,1642.29 1422.49,1647.00
             1417.02,1654.41 1413.38,1663.15 1407.00,1670.00
             1407.00,1670.00 1409.00,1627.00 1409.00,1627.00
             1409.00,1627.00 1409.96,1617.00 1409.96,1617.00
             1409.96,1617.00 1409.96,1608.00 1409.96,1608.00
             1409.96,1608.00 1411.00,1590.00 1411.00,1590.00
             1411.00,1590.00 1412.00,1571.00 1412.00,1571.00
             1412.00,1571.00 1413.00,1554.00 1413.00,1554.00
             1413.00,1554.00 1414.00,1539.00 1414.00,1539.00
             1414.00,1539.00 1416.00,1496.00 1416.00,1496.00 Z" />
  <path id="Catmon"
        fill="none" stroke="black" stroke-width="1"
        d="M 1548.00,1814.00
           C 1548.00,1814.00 1543.71,1810.96 1543.71,1810.96
             1543.71,1810.96 1521.00,1802.60 1521.00,1802.60
             1517.02,1801.52 1516.66,1802.01 1512.00,1800.19
             1512.00,1800.19 1493.09,1792.01 1493.09,1792.01
             1493.09,1792.01 1440.00,1770.81 1440.00,1770.81
             1440.00,1770.81 1421.91,1763.93 1421.91,1763.93
             1421.91,1763.93 1415.00,1761.09 1415.00,1761.09
             1411.82,1760.08 1404.87,1758.44 1402.82,1755.59
             1401.63,1753.42 1402.48,1748.62 1402.82,1746.00
             1402.82,1746.00 1403.97,1721.00 1403.97,1721.00
             1403.97,1721.00 1405.38,1692.00 1405.38,1692.00
             1405.58,1688.36 1406.02,1678.05 1406.95,1675.17
             1408.07,1671.71 1414.34,1663.02 1416.72,1659.70
             1416.72,1659.70 1424.27,1648.00 1424.27,1648.00
             1424.27,1648.00 1438.91,1633.00 1438.91,1633.00
             1438.91,1633.00 1454.00,1618.00 1454.00,1618.00
             1456.02,1615.97 1459.86,1611.65 1462.28,1610.54
             1465.11,1609.24 1475.41,1609.10 1479.00,1608.97
             1479.00,1608.97 1510.00,1607.00 1510.00,1607.00
             1512.92,1606.91 1523.39,1605.60 1525.28,1607.00
             1528.56,1609.44 1529.04,1622.00 1529.00,1626.00
             1528.85,1638.45 1524.15,1637.30 1524.00,1649.00
             1523.91,1656.93 1525.01,1669.08 1526.17,1677.00
             1527.61,1686.88 1535.16,1695.86 1537.15,1702.00
             1538.28,1705.48 1540.00,1713.00 1540.00,1713.00
             1540.00,1713.00 1542.49,1724.00 1542.49,1724.00
             1542.49,1724.00 1543.46,1731.00 1543.46,1731.00
             1543.46,1731.00 1547.87,1749.00 1547.87,1749.00
             1547.87,1749.00 1551.91,1774.00 1551.91,1774.00
             1551.91,1774.00 1546.34,1803.00 1546.34,1803.00
             1546.34,1803.00 1548.00,1814.00 1548.00,1814.00 Z" />
  <path id="Carmen"
        fill="none" stroke="black" stroke-width="1"
        d="M 1402.00,1759.00
           C 1419.41,1763.69 1448.42,1776.46 1466.00,1783.77
             1466.00,1783.77 1493.00,1794.40 1493.00,1794.40
             1493.00,1794.40 1511.00,1801.76 1511.00,1801.76
             1511.00,1801.76 1530.00,1808.40 1530.00,1808.40
             1530.00,1808.40 1547.79,1816.07 1547.79,1816.07
             1550.46,1817.92 1559.86,1831.88 1560.53,1835.00
             1561.02,1837.28 1560.40,1839.75 1560.00,1842.00
             1550.56,1836.33 1552.90,1838.68 1543.00,1838.99
             1540.80,1839.05 1536.28,1838.71 1535.32,1841.31
             1534.14,1844.53 1539.99,1849.36 1541.21,1854.00
             1541.21,1854.00 1540.00,1873.00 1540.00,1873.00
             1523.10,1873.00 1506.79,1873.10 1490.00,1870.72
             1467.72,1867.56 1438.49,1857.80 1417.00,1850.34
             1417.00,1850.34 1390.00,1841.02 1390.00,1841.02
             1387.05,1840.11 1380.89,1839.15 1379.95,1835.78
             1379.38,1833.73 1380.78,1830.92 1381.47,1829.00
             1381.47,1829.00 1386.74,1814.04 1386.74,1814.04
             1393.23,1794.41 1399.24,1779.94 1402.00,1759.00 Z" />
  <path id="Danao"
        fill="none" stroke="black" stroke-width="1"
        d="M 1377.00,1840.00
           C 1377.00,1840.00 1392.18,1844.66 1396.00,1845.53
             1396.00,1845.53 1413.00,1851.33 1413.00,1851.33
             1437.89,1859.66 1462.95,1868.71 1489.00,1872.73
             1507.25,1875.54 1521.78,1875.00 1540.00,1875.00
             1540.60,1879.53 1543.45,1896.82 1545.99,1899.69
             1549.17,1903.18 1552.28,1898.68 1555.77,1899.69
             1559.26,1900.77 1561.69,1914.51 1561.74,1918.00
             1561.86,1927.31 1551.59,1925.09 1551.11,1932.00
             1550.83,1935.95 1556.25,1938.57 1556.82,1944.00
             1557.45,1950.11 1551.73,1957.59 1552.04,1967.00
             1552.35,1976.24 1558.32,1985.45 1558.05,1990.00
             1557.87,1993.18 1555.34,1995.54 1553.59,1998.00
             1553.59,1998.00 1545.96,2010.00 1545.96,2010.00
             1542.31,2016.62 1542.00,2027.51 1542.00,2035.00
             1542.00,2035.00 1529.00,2024.63 1529.00,2024.63
             1529.00,2024.63 1503.00,2008.17 1503.00,2008.17
             1477.00,1993.69 1437.61,1975.44 1414.00,1959.92
             1414.00,1959.92 1392.00,1943.40 1392.00,1943.40
             1385.42,1938.14 1379.13,1932.05 1372.00,1927.56
             1372.00,1927.56 1362.00,1922.19 1362.00,1922.19
             1359.15,1920.54 1350.66,1916.67 1349.77,1913.79
             1348.69,1910.28 1353.92,1897.88 1355.31,1894.00
             1355.31,1894.00 1377.00,1840.00 1377.00,1840.00 Z
           M -1336.86,1839.31" />
  <path id="Compostela"
        fill="none" stroke="black" stroke-width="1"
        d="M 1347.00,1918.00
           C 1347.00,1918.00 1363.17,1925.05 1363.17,1925.05
             1363.17,1925.05 1371.58,1929.55 1371.58,1929.55
             1371.58,1929.55 1406.00,1956.69 1406.00,1956.69
             1406.00,1956.69 1437.00,1975.69 1437.00,1975.69
             1437.00,1975.69 1447.00,1980.51 1447.00,1980.51
             1447.00,1980.51 1501.00,2009.00 1501.00,2009.00
             1501.00,2009.00 1524.46,2023.47 1531.00,2028.53
             1531.00,2028.53 1541.00,2037.00 1541.00,2037.00
             1537.67,2041.79 1532.88,2042.37 1529.17,2047.52
             1529.17,2047.52 1525.16,2055.00 1525.16,2055.00
             1517.23,2070.37 1519.00,2073.95 1519.00,2090.00
             1513.44,2090.57 1510.99,2092.26 1505.00,2091.96
             1488.79,2091.14 1486.01,2072.94 1475.07,2066.25
             1469.98,2063.13 1463.07,2064.60 1459.00,2063.58
             1455.07,2062.61 1451.69,2059.56 1449.28,2056.41
             1441.77,2046.61 1438.22,2027.17 1429.83,2020.65
             1420.60,2013.47 1408.22,2022.83 1404.00,2023.88
             1400.84,2024.66 1389.34,2023.14 1385.95,2022.20
             1382.04,2021.10 1373.22,2012.93 1369.09,2010.20
             1359.77,2004.03 1347.97,2000.24 1341.05,1990.83
             1335.28,1982.99 1336.43,1973.09 1337.73,1964.00
             1337.73,1964.00 1340.68,1946.00 1340.68,1946.00
             1340.68,1946.00 1342.52,1933.72 1342.52,1933.72
             1342.52,1933.72 1347.00,1918.00 1347.00,1918.00 Z
           M -451.54,2146.51" />
  <path id="Liloan"
        fill="none" stroke="black" stroke-width="1"
        d="M 1508.00,2215.00
           C 1501.71,2212.03 1499.34,2207.94 1494.84,2203.01
             1494.84,2203.01 1479.59,2187.17 1479.59,2187.17
             1471.14,2178.12 1453.14,2160.63 1446.69,2151.00
             1446.69,2151.00 1438.63,2133.00 1438.63,2133.00
             1438.63,2133.00 1423.67,2096.96 1423.67,2096.96
             1423.67,2096.96 1416.80,2078.00 1416.80,2078.00
             1410.53,2062.31 1411.97,2058.37 1408.95,2043.84
             1408.24,2040.45 1405.72,2031.09 1406.02,2028.05
             1406.38,2024.52 1410.05,2022.33 1413.09,2021.24
             1436.25,2012.97 1435.18,2039.73 1446.61,2055.91
             1448.97,2059.26 1454.02,2064.48 1458.00,2065.57
             1462.43,2066.78 1468.60,2064.78 1474.71,2068.20
             1481.97,2072.27 1487.27,2087.45 1498.00,2092.56
             1501.38,2094.17 1506.34,2094.19 1510.12,2094.27
             1510.12,2094.27 1514.15,2094.27 1514.15,2094.27
             1522.87,2095.45 1515.70,2103.35 1513.63,2107.00
             1510.93,2111.77 1500.87,2127.97 1500.27,2132.00
             1499.35,2138.10 1508.45,2146.49 1505.00,2151.35
             1502.35,2155.09 1496.83,2153.14 1494.00,2153.31
             1488.80,2153.63 1483.24,2160.87 1483.76,2165.98
             1484.19,2170.25 1488.35,2171.36 1492.00,2170.77
             1499.14,2169.61 1503.03,2160.58 1510.00,2161.91
             1512.79,2162.44 1517.89,2165.79 1521.00,2167.12
             1521.00,2167.12 1529.77,2170.30 1529.77,2170.30
             1531.50,2171.38 1532.57,2172.93 1532.63,2175.02
             1532.74,2179.06 1527.00,2183.50 1524.51,2187.01
             1519.01,2194.77 1512.47,2206.46 1508.00,2215.00 Z" />
  <path id="Tuburan"
        fill="none" stroke="black" stroke-width="1"
        d="M 1271.00,1478.00
           C 1271.00,1478.00 1304.71,1485.01 1304.71,1485.01
             1304.71,1485.01 1369.00,1498.40 1369.00,1498.40
             1369.00,1498.40 1392.00,1503.40 1392.00,1503.40
             1392.00,1503.40 1403.00,1504.71 1403.00,1504.71
             1403.00,1504.71 1414.00,1497.00 1414.00,1497.00
             1414.00,1497.00 1411.07,1549.00 1411.07,1549.00
             1411.07,1549.00 1405.08,1660.00 1405.08,1660.00
             1405.08,1660.00 1401.13,1732.00 1401.13,1732.00
             1401.13,1732.00 1398.55,1767.96 1398.55,1767.96
             1394.96,1787.91 1386.38,1806.85 1379.96,1826.00
             1379.96,1826.00 1376.00,1837.00 1376.00,1837.00
             1376.00,1837.00 1336.00,1823.74 1336.00,1823.74
             1336.00,1823.74 1315.96,1818.93 1315.96,1818.93
             1308.91,1817.20 1297.08,1814.49 1290.00,1814.89
             1283.92,1815.24 1269.97,1824.94 1264.00,1828.61
             1260.78,1830.59 1256.92,1833.92 1253.00,1833.51
             1245.54,1832.71 1228.02,1817.51 1223.00,1815.72
             1220.59,1814.87 1217.55,1815.00 1215.00,1815.00
             1208.11,1814.99 1188.28,1816.24 1183.18,1814.18
             1183.18,1814.18 1167.83,1802.86 1167.83,1802.86
             1146.45,1789.35 1130.41,1774.70 1104.91,1769.17
             1098.07,1767.69 1091.02,1766.55 1084.00,1767.00
             1085.26,1761.45 1087.64,1761.35 1091.39,1756.99
             1091.39,1756.99 1105.68,1738.72 1105.68,1738.72
             1105.68,1738.72 1114.12,1726.54 1114.12,1726.54
             1114.12,1726.54 1134.96,1698.11 1134.96,1698.11
             1134.96,1698.11 1139.59,1690.43 1139.59,1690.43
             1139.59,1690.43 1150.78,1677.15 1150.78,1677.15
             1150.78,1677.15 1158.00,1667.00 1158.00,1667.00
             1160.43,1663.29 1162.25,1660.52 1162.82,1656.00
             1162.82,1656.00 1163.43,1644.04 1163.43,1644.04
             1164.63,1639.87 1167.69,1639.50 1170.11,1635.90
             1172.21,1632.76 1175.60,1622.00 1180.49,1616.17
             1187.91,1607.32 1195.47,1608.96 1204.96,1607.18
             1211.64,1605.92 1226.35,1600.87 1229.69,1594.91
             1231.16,1592.28 1231.05,1588.93 1230.99,1586.00
             1230.75,1575.72 1226.38,1572.20 1227.12,1565.09
             1227.76,1558.89 1232.09,1558.90 1234.56,1551.00
             1234.56,1551.00 1239.16,1530.00 1239.16,1530.00
             1243.31,1518.88 1247.69,1519.32 1251.43,1512.91
             1251.43,1512.91 1260.63,1490.17 1260.63,1490.17
             1260.63,1490.17 1271.00,1478.00 1271.00,1478.00 Z" />
  <path id="Asturias"
        fill="none" stroke="black" stroke-width="1"
        d="M 1082.00,1769.00
           C 1101.32,1769.00 1117.31,1772.85 1134.00,1782.92
             1134.00,1782.92 1160.00,1800.25 1160.00,1800.25
             1160.00,1800.25 1169.00,1805.91 1169.00,1805.91
             1176.53,1811.23 1180.21,1817.07 1190.00,1817.82
             1190.00,1817.82 1204.00,1817.00 1204.00,1817.00
             1210.46,1816.99 1219.34,1815.92 1225.00,1819.11
             1225.00,1819.11 1244.00,1831.94 1244.00,1831.94
             1246.81,1833.67 1250.59,1835.92 1254.00,1835.67
             1257.48,1835.43 1263.85,1831.12 1267.00,1829.19
             1278.85,1821.93 1283.50,1815.66 1298.00,1817.73
             1319.43,1820.79 1333.67,1825.53 1354.00,1831.72
             1354.00,1831.72 1367.00,1836.33 1367.00,1836.33
             1368.73,1836.93 1371.93,1837.80 1372.85,1839.51
             1373.97,1841.58 1372.05,1845.02 1371.22,1847.00
             1371.22,1847.00 1363.81,1866.00 1363.81,1866.00
             1363.81,1866.00 1347.00,1912.00 1347.00,1912.00
             1344.47,1919.67 1340.66,1930.16 1340.00,1938.00
             1324.31,1937.65 1305.95,1922.88 1286.00,1920.29
             1286.00,1920.29 1266.00,1919.00 1266.00,1919.00
             1266.00,1919.00 1250.00,1920.00 1250.00,1920.00
             1228.82,1920.03 1210.38,1922.92 1189.00,1918.55
             1172.39,1915.16 1156.96,1897.97 1143.00,1899.34
             1131.95,1900.42 1112.32,1909.80 1102.00,1914.70
             1102.00,1914.70 1085.00,1923.21 1085.00,1923.21
             1085.00,1923.21 1077.00,1926.33 1077.00,1926.33
             1077.00,1926.33 1061.00,1934.26 1061.00,1934.26
             1050.45,1939.70 1029.94,1949.90 1019.00,1953.00
             1019.00,1953.00 1020.60,1935.09 1020.60,1935.09
             1022.08,1931.32 1026.58,1929.71 1026.86,1926.00
             1027.00,1924.13 1025.14,1921.17 1024.39,1919.00
             1023.90,1916.49 1023.79,1909.58 1024.39,1907.00
             1025.52,1899.36 1030.85,1899.49 1031.00,1887.00
             1031.06,1881.63 1030.38,1873.77 1034.65,1869.70
             1039.22,1865.33 1050.29,1866.42 1055.54,1860.78
             1055.54,1860.78 1060.27,1854.00 1060.27,1854.00
             1072.03,1835.90 1069.16,1833.69 1077.26,1818.00
             1082.65,1807.54 1090.54,1797.57 1089.73,1785.00
             1089.40,1779.90 1084.36,1774.20 1082.00,1769.00 Z" />
  <path id="Consolacion"
        fill="none" stroke="black" stroke-width="1"
        d="M 1386.00,2024.00
           C 1386.00,2024.00 1402.43,2028.14 1402.43,2028.14
             1402.43,2028.14 1405.88,2041.00 1405.88,2041.00
             1405.88,2041.00 1411.44,2070.00 1411.44,2070.00
             1411.44,2070.00 1419.66,2090.00 1419.66,2090.00
             1419.66,2090.00 1422.44,2099.00 1422.44,2099.00
             1422.44,2099.00 1431.40,2121.00 1431.40,2121.00
             1431.40,2121.00 1444.70,2152.00 1444.70,2152.00
             1444.70,2152.00 1455.72,2164.00 1455.72,2164.00
             1455.72,2164.00 1470.75,2180.17 1470.75,2180.17
             1470.75,2180.17 1486.00,2197.00 1486.00,2197.00
             1486.00,2197.00 1505.00,2218.00 1505.00,2218.00
             1501.76,2220.44 1494.59,2225.80 1491.00,2226.92
             1487.06,2228.14 1484.98,2226.23 1481.00,2228.01
             1481.00,2228.01 1475.00,2231.41 1475.00,2231.41
             1471.22,2232.73 1462.46,2232.36 1460.02,2228.61
             1458.61,2226.42 1459.03,2222.46 1459.46,2220.00
             1461.77,2206.98 1469.12,2204.00 1471.63,2198.00
             1473.48,2193.58 1469.71,2190.60 1466.00,2191.66
             1457.67,2194.02 1455.14,2207.06 1452.49,2209.40
             1449.48,2212.07 1443.79,2210.37 1440.02,2211.43
             1436.58,2212.40 1435.65,2214.11 1434.00,2217.00
             1426.59,2213.52 1411.74,2198.36 1405.00,2192.09
             1401.64,2188.96 1395.07,2184.24 1393.61,2180.00
             1392.50,2176.77 1395.65,2164.13 1396.39,2160.00
             1396.39,2160.00 1401.00,2117.00 1401.00,2117.00
             1401.03,2096.17 1400.79,2077.57 1396.34,2057.00
             1396.34,2057.00 1386.00,2024.00 1386.00,2024.00 Z" />
  <path id="Lapu Lapu"
        fill="none" stroke="black" stroke-width="1"
        d="M 1394.00,2335.00
           C 1393.74,2326.72 1389.08,2320.57 1394.73,2312.04
             1398.27,2306.71 1405.55,2304.77 1411.00,2301.88
             1411.00,2301.88 1429.00,2291.35 1429.00,2291.35
             1439.19,2286.49 1442.99,2286.74 1452.96,2279.36
             1461.39,2273.12 1467.11,2265.55 1479.00,2267.30
             1493.66,2269.46 1489.94,2281.03 1499.30,2288.30
             1502.48,2290.77 1506.16,2290.95 1510.00,2291.00
             1521.46,2291.13 1533.60,2290.30 1542.72,2282.62
             1542.72,2282.62 1557.96,2268.93 1557.96,2268.93
             1562.03,2265.10 1565.69,2261.08 1571.89,2263.74
             1579.81,2267.12 1572.61,2277.70 1569.39,2282.00
             1562.78,2290.85 1555.95,2292.20 1548.00,2298.51
             1540.43,2304.52 1537.81,2308.80 1533.30,2317.00
             1524.09,2333.77 1520.81,2337.81 1505.00,2348.68
             1502.58,2350.34 1500.64,2352.37 1498.00,2353.70
             1498.00,2353.70 1488.04,2356.70 1488.04,2356.70
             1479.91,2360.42 1487.21,2365.47 1486.12,2369.99
             1485.53,2372.42 1481.88,2375.78 1480.23,2378.09
             1475.72,2384.40 1468.63,2395.49 1460.02,2396.50
             1453.37,2397.28 1453.19,2388.57 1452.41,2384.00
             1451.45,2378.31 1450.34,2372.71 1446.47,2368.17
             1446.47,2368.17 1438.63,2360.83 1438.63,2360.83
             1436.91,2358.71 1435.06,2354.26 1432.67,2353.21
             1429.41,2351.77 1424.77,2355.92 1422.00,2357.48
             1417.77,2359.85 1402.57,2366.14 1398.00,2367.00
             1400.33,2360.34 1401.04,2359.17 1406.01,2354.00
             1407.82,2352.12 1411.70,2348.81 1411.66,2346.03
             1411.65,2345.07 1411.20,2344.16 1410.51,2343.50
             1406.85,2339.98 1399.90,2346.74 1397.44,2349.29
             1393.55,2353.32 1389.82,2359.36 1388.80,2365.00
             1388.80,2365.00 1388.80,2373.72 1388.80,2373.72
             1388.80,2373.72 1385.00,2381.00 1385.00,2381.00
             1385.00,2381.00 1383.00,2381.00 1383.00,2381.00
             1381.74,2379.25 1380.62,2377.88 1379.82,2375.83
             1378.20,2371.70 1376.45,2359.22 1377.56,2355.00
             1378.37,2351.89 1380.29,2349.64 1381.72,2346.83
             1384.76,2340.85 1386.78,2336.17 1394.00,2335.00 Z
           M 1582.00,2358.00
           C 1586.73,2349.81 1589.94,2353.76 1595.95,2350.07
             1600.93,2347.00 1600.62,2341.77 1605.21,2337.21
             1611.95,2330.51 1625.70,2331.83 1625.73,2342.00
             1625.74,2346.01 1621.13,2364.73 1619.15,2368.00
             1619.15,2368.00 1611.97,2377.00 1611.97,2377.00
             1611.97,2377.00 1607.93,2384.61 1607.93,2384.61
             1605.31,2388.09 1601.54,2387.89 1598.81,2395.00
             1596.02,2402.27 1596.53,2410.40 1595.91,2418.00
             1595.63,2421.41 1594.43,2425.91 1590.90,2427.34
             1585.79,2429.42 1585.07,2423.39 1585.00,2420.00
             1584.78,2408.96 1582.99,2412.31 1582.27,2406.00
             1582.27,2406.00 1582.27,2396.11 1582.27,2396.11
             1582.08,2393.93 1580.99,2393.04 1578.94,2392.51
             1576.41,2391.67 1572.59,2392.18 1570.00,2392.51
             1552.64,2395.33 1557.46,2407.92 1540.80,2416.00
             1540.73,2413.91 1540.14,2411.06 1540.80,2409.04
             1541.19,2406.38 1546.86,2398.86 1547.87,2394.00
             1548.62,2390.37 1546.51,2382.19 1554.04,2381.16
             1557.74,2380.65 1562.64,2382.97 1565.58,2380.26
             1568.61,2377.48 1564.24,2370.83 1571.18,2366.97
             1576.61,2364.39 1585.77,2372.31 1589.26,2366.97
             1591.87,2362.56 1584.77,2359.39 1582.00,2358.00 Z" />
  <path id="Mandaue"
        fill="none" stroke="black" stroke-width="1"
        d="M 1391.00,2184.00
           C 1391.00,2184.00 1432.00,2220.00 1432.00,2220.00
             1431.76,2228.25 1437.53,2227.41 1441.40,2233.09
             1443.61,2236.33 1443.01,2242.12 1443.00,2246.00
             1442.98,2259.90 1439.90,2281.58 1422.00,2281.87
             1414.84,2281.98 1412.26,2277.06 1407.00,2275.51
             1399.35,2273.26 1393.46,2277.89 1387.00,2281.00
             1387.00,2281.00 1381.27,2263.00 1381.27,2263.00
             1377.87,2252.62 1373.46,2245.61 1375.21,2234.00
             1376.05,2228.46 1379.67,2224.06 1381.60,2219.00
             1385.30,2209.28 1390.14,2194.26 1391.00,2184.00 Z" />
  <path id="Cordova"
        fill="none" stroke="black" stroke-width="1"
        d="M 1400.00,2370.00
           C 1400.00,2370.00 1425.00,2360.00 1425.00,2360.00
             1426.16,2363.25 1427.13,2366.07 1429.53,2368.67
             1432.34,2371.71 1435.42,2372.57 1437.78,2374.63
             1441.45,2377.84 1443.93,2386.20 1442.69,2390.96
             1441.26,2396.44 1435.06,2396.12 1431.43,2399.64
             1428.73,2402.25 1429.61,2404.57 1426.69,2406.79
             1423.70,2409.06 1412.79,2414.22 1409.00,2413.57
             1405.80,2413.02 1401.76,2410.02 1399.00,2408.21
             1396.85,2406.81 1394.15,2405.14 1392.78,2402.91
             1390.29,2398.83 1393.52,2394.53 1395.60,2391.00
             1400.45,2382.79 1405.00,2379.07 1400.00,2370.00 Z
           M 1361.04,2386.95
           C 1370.39,2386.89 1372.95,2398.45 1372.39,2406.00
             1372.10,2409.83 1370.27,2414.86 1365.98,2415.63
             1360.61,2416.60 1360.51,2410.57 1359.67,2407.00
             1357.99,2399.97 1352.13,2391.37 1361.04,2386.95 Z" />
  <path id="Balamban"
        fill="none" stroke="black" stroke-width="1"
        d="M 1020.00,1955.00
           C 1029.85,1951.58 1039.63,1947.31 1049.00,1942.74
             1049.00,1942.74 1062.00,1935.78 1062.00,1935.78
             1062.00,1935.78 1080.00,1927.33 1080.00,1927.33
             1080.00,1927.33 1093.00,1921.74 1093.00,1921.74
             1104.49,1915.82 1127.62,1903.68 1140.00,1902.18
             1159.77,1899.79 1170.40,1917.01 1188.00,1920.71
             1202.95,1923.86 1217.82,1923.02 1233.00,1923.00
             1233.00,1923.00 1250.00,1922.00 1250.00,1922.00
             1250.00,1922.00 1277.00,1922.00 1277.00,1922.00
             1296.46,1922.03 1307.04,1929.02 1324.00,1936.28
             1326.81,1937.48 1337.42,1940.22 1338.39,1942.43
             1339.29,1944.50 1337.70,1949.66 1337.26,1952.00
             1337.26,1952.00 1333.85,1975.91 1333.85,1975.91
             1332.32,1980.04 1324.63,1985.12 1321.00,1987.87
             1321.00,1987.87 1298.72,2005.21 1298.72,2005.21
             1298.72,2005.21 1289.00,2012.00 1289.00,2012.00
             1289.00,2012.00 1263.04,2031.87 1263.04,2031.87
             1263.04,2031.87 1249.00,2043.33 1249.00,2043.33
             1249.00,2043.33 1240.00,2049.22 1240.00,2049.22
             1240.00,2049.22 1224.01,2061.37 1224.01,2061.37
             1224.01,2061.37 1215.91,2068.35 1215.91,2068.35
             1215.91,2068.35 1198.00,2082.12 1198.00,2082.12
             1198.00,2082.12 1185.00,2090.93 1185.00,2090.93
             1185.00,2090.93 1166.00,2106.21 1166.00,2106.21
             1166.00,2106.21 1129.00,2134.35 1129.00,2134.35
             1125.98,2136.66 1117.49,2143.94 1114.00,2143.79
             1111.02,2143.67 1100.79,2135.88 1098.00,2133.72
             1098.00,2133.72 1086.00,2125.96 1086.00,2125.96
             1086.00,2125.96 1067.00,2112.72 1067.00,2112.72
             1055.68,2104.81 1055.35,2104.83 1042.00,2102.42
             1038.17,2101.73 1024.82,2099.69 1022.21,2098.02
             1019.24,2096.11 1017.96,2092.02 1016.37,2089.00
             1014.63,2085.71 1007.70,2073.43 1005.62,2071.21
             1000.20,2065.40 985.46,2059.63 979.00,2052.00
             986.20,2048.61 997.18,2047.04 1000.26,2039.00
             1001.38,2036.08 1000.96,2028.48 1001.00,2025.00
             1001.19,2011.67 1011.13,2014.57 1017.28,2006.67
             1020.41,2002.64 1019.29,1997.12 1020.99,1994.53
             1024.22,1989.60 1037.67,1989.17 1037.79,1979.00
             1037.89,1970.34 1025.82,1964.08 1020.00,1955.00 Z" />
  <path id="Cebu City"
        fill="none" stroke="black" stroke-width="1"
        d="M 1333.00,1982.00
           C 1339.99,1994.81 1342.04,1997.70 1355.00,2005.62
             1364.65,2011.51 1376.81,2015.46 1382.61,2026.01
             1390.64,2040.63 1394.40,2060.51 1396.16,2077.00
             1396.16,2077.00 1398.00,2099.00 1398.00,2099.00
             1398.05,2132.73 1393.29,2167.25 1385.11,2200.00
             1385.11,2200.00 1379.64,2218.00 1379.64,2218.00
             1377.27,2223.49 1373.44,2227.65 1372.33,2234.00
             1370.00,2247.29 1378.16,2258.60 1381.10,2271.00
             1382.03,2274.88 1384.77,2279.99 1383.05,2283.72
             1378.14,2294.38 1360.07,2296.84 1354.89,2304.18
             1350.58,2310.29 1355.49,2317.77 1354.34,2323.00
             1353.42,2327.20 1349.59,2329.78 1346.01,2331.66
             1339.89,2334.89 1324.46,2336.05 1317.00,2337.90
             1306.42,2340.52 1303.62,2343.91 1296.00,2350.91
             1286.70,2359.45 1281.38,2358.73 1281.00,2376.00
             1274.47,2374.27 1275.73,2375.32 1270.96,2374.62
             1266.72,2374.01 1253.93,2368.93 1250.17,2366.69
             1235.96,2358.25 1231.24,2347.17 1222.93,2333.83
             1215.39,2321.73 1208.94,2314.99 1208.09,2300.00
             1207.37,2287.19 1216.79,2272.98 1203.00,2263.70
             1200.50,2262.02 1197.87,2261.37 1195.00,2260.63
             1181.71,2257.21 1173.00,2260.27 1161.00,2266.27
             1156.95,2268.30 1151.05,2272.21 1147.00,2273.37
             1143.96,2274.23 1139.26,2274.00 1136.00,2274.00
             1136.00,2274.00 1137.83,2252.00 1137.83,2252.00
             1137.83,2252.00 1137.83,2238.00 1137.83,2238.00
             1138.03,2221.21 1142.70,2216.21 1137.83,2199.00
             1137.83,2199.00 1122.00,2162.00 1122.00,2162.00
             1120.75,2158.89 1116.84,2151.05 1117.70,2148.09
             1118.66,2144.82 1128.90,2137.89 1132.00,2135.39
             1132.00,2135.39 1144.00,2126.56 1144.00,2126.56
             1144.00,2126.56 1173.99,2103.63 1173.99,2103.63
             1173.99,2103.63 1187.00,2092.90 1187.00,2092.90
             1187.00,2092.90 1196.00,2087.03 1196.00,2087.03
             1196.00,2087.03 1215.96,2071.87 1215.96,2071.87
             1215.96,2071.87 1240.00,2052.65 1240.00,2052.65
             1240.00,2052.65 1256.91,2040.85 1256.91,2040.85
             1256.91,2040.85 1274.00,2026.88 1274.00,2026.88
             1274.00,2026.88 1333.00,1982.00 1333.00,1982.00 Z" />
  <path id="Talisay"
        fill="none" stroke="black" stroke-width="1"
        d="M 1152.00,2275.00
           C 1160.74,2269.29 1175.28,2261.58 1186.00,2262.10
             1191.54,2262.37 1202.72,2265.14 1205.69,2270.18
             1207.26,2272.86 1207.06,2276.95 1206.99,2280.00
             1206.99,2280.00 1205.01,2299.00 1205.01,2299.00
             1204.68,2313.74 1213.81,2326.51 1221.81,2338.17
             1221.81,2338.17 1236.85,2359.91 1236.85,2359.91
             1242.56,2367.09 1253.27,2372.53 1262.00,2375.09
             1272.43,2378.15 1284.40,2376.18 1285.84,2388.00
             1286.05,2389.47 1286.00,2392.52 1285.84,2394.00
             1285.07,2399.92 1279.49,2407.93 1274.00,2410.30
             1270.89,2411.64 1267.01,2411.43 1263.00,2413.57
             1263.00,2413.57 1254.00,2420.04 1254.00,2420.04
             1254.00,2420.04 1242.00,2425.89 1242.00,2425.89
             1238.65,2427.65 1235.00,2430.64 1231.00,2429.82
             1227.16,2429.04 1221.53,2424.09 1218.00,2423.72
             1214.53,2423.35 1212.52,2426.00 1209.00,2426.06
             1197.53,2426.24 1200.09,2414.59 1200.00,2407.00
             1200.00,2407.00 1199.04,2393.00 1199.04,2393.00
             1199.04,2393.00 1199.83,2382.00 1199.83,2382.00
             1199.83,2382.00 1199.83,2364.00 1199.83,2364.00
             1200.00,2361.94 1200.10,2359.11 1199.83,2357.17
             1198.61,2354.23 1194.58,2349.49 1192.60,2347.00
             1192.60,2347.00 1177.68,2329.00 1177.68,2329.00
             1177.68,2329.00 1162.22,2308.00 1162.22,2308.00
             1159.20,2302.63 1153.53,2281.79 1152.00,2275.00 Z" />
  <path id="Minglanilla"
        fill="none" stroke="black" stroke-width="1"
        d="M 1058.00,2321.00
           C 1066.70,2315.34 1075.53,2309.58 1085.00,2305.30
             1092.88,2301.75 1103.27,2298.25 1109.83,2292.45
             1114.28,2288.52 1114.09,2282.67 1115.04,2277.27
             1115.46,2274.88 1115.72,2271.63 1118.26,2270.45
             1121.50,2268.95 1127.09,2273.80 1131.00,2275.49
             1137.62,2278.34 1143.22,2277.76 1150.00,2276.00
             1151.77,2283.85 1156.68,2302.66 1160.83,2308.83
             1160.83,2308.83 1169.91,2319.99 1169.91,2319.99
             1169.91,2319.99 1181.03,2335.83 1181.03,2335.83
             1184.00,2339.25 1194.93,2351.81 1196.35,2355.00
             1198.28,2359.33 1197.42,2361.73 1197.59,2366.00
             1197.59,2366.00 1197.00,2396.00 1197.00,2396.00
             1197.00,2396.00 1198.00,2416.00 1198.00,2416.00
             1197.99,2420.10 1198.22,2422.92 1193.95,2424.92
             1190.40,2426.57 1182.33,2425.03 1178.00,2424.92
             1164.45,2424.58 1163.58,2435.76 1151.00,2436.00
             1151.00,2436.00 1143.00,2436.00 1143.00,2436.00
             1143.00,2436.00 1136.04,2406.04 1136.04,2406.04
             1136.04,2406.04 1115.02,2379.92 1115.02,2379.92
             1115.02,2379.92 1104.16,2366.83 1104.16,2366.83
             1104.16,2366.83 1081.91,2339.09 1081.91,2339.09
             1081.91,2339.09 1058.00,2321.00 1058.00,2321.00 Z" />
  <path id="Toledo"
        fill="none" stroke="black" stroke-width="1"
        d="M 976.00,2055.00
           C 982.39,2057.36 1002.15,2069.72 1005.90,2075.04
             1005.90,2075.04 1015.44,2091.17 1015.44,2091.17
             1017.03,2094.36 1018.04,2097.96 1021.21,2100.07
             1023.58,2101.64 1028.13,2102.07 1031.00,2102.61
             1037.33,2103.80 1053.28,2106.09 1058.00,2109.01
             1058.00,2109.01 1085.00,2127.63 1085.00,2127.63
             1090.61,2131.17 1107.75,2142.01 1111.50,2146.32
             1114.15,2149.36 1119.53,2164.19 1121.78,2169.00
             1121.78,2169.00 1136.81,2205.00 1136.81,2205.00
             1137.07,2207.15 1137.00,2209.78 1136.81,2212.00
             1136.81,2212.00 1134.17,2253.00 1134.17,2253.00
             1133.65,2258.35 1133.36,2268.22 1132.00,2273.00
             1125.75,2271.18 1122.12,2267.33 1119.04,2267.87
             1111.74,2269.17 1113.17,2283.07 1110.69,2287.98
             1108.49,2292.32 1099.48,2296.89 1095.00,2299.02
             1088.68,2302.03 1087.74,2300.41 1077.00,2306.92
             1068.63,2312.00 1062.18,2318.86 1052.00,2319.00
             1043.85,2319.10 1027.51,2319.70 1020.00,2321.78
             1020.00,2321.78 993.00,2330.02 993.00,2330.02
             990.23,2330.88 983.47,2333.46 981.00,2333.45
             977.72,2333.45 970.33,2328.91 967.00,2327.25
             967.00,2327.25 933.00,2310.31 933.00,2310.31
             933.00,2310.31 875.00,2281.75 875.00,2281.75
             875.00,2281.75 826.00,2257.00 826.00,2257.00
             827.57,2251.66 830.12,2249.84 834.00,2246.00
             840.15,2239.91 851.43,2232.16 859.00,2227.73
             861.83,2226.07 868.60,2222.53 870.57,2220.47
             873.78,2217.13 872.88,2213.63 875.56,2210.32
             878.16,2207.13 883.77,2205.16 885.98,2200.96
             885.98,2200.96 888.28,2187.00 888.28,2187.00
             889.34,2183.37 893.68,2178.90 896.28,2176.01
             896.28,2176.01 939.09,2135.60 939.09,2135.60
             946.27,2129.48 952.55,2128.63 956.69,2123.82
             961.31,2118.44 959.27,2105.37 961.57,2098.04
             963.68,2091.30 971.00,2091.28 973.44,2085.90
             975.39,2081.60 974.95,2071.91 975.00,2067.00
             975.00,2067.00 976.00,2055.00 976.00,2055.00 Z" />
  <path id="Pinamungahan"
        fill="none" stroke="black" stroke-width="1"
        d="M 824.00,2258.00
           C 824.00,2258.00 862.00,2276.75 862.00,2276.75
             862.00,2276.75 933.00,2312.31 933.00,2312.31
             933.00,2312.31 962.00,2327.25 962.00,2327.25
             962.00,2327.25 979.00,2335.00 979.00,2335.00
             979.00,2335.00 975.32,2357.00 975.32,2357.00
             975.32,2357.00 974.52,2366.28 974.52,2366.28
             974.52,2366.28 971.15,2381.00 971.15,2381.00
             970.08,2385.10 968.82,2393.91 967.07,2397.00
             964.20,2402.02 950.87,2413.77 946.00,2418.17
             946.00,2418.17 926.00,2439.00 926.00,2439.00
             926.00,2439.00 904.00,2460.09 904.00,2460.09
             901.79,2462.15 896.57,2467.96 894.00,2468.68
             891.54,2469.37 889.11,2467.51 887.04,2466.39
             887.04,2466.39 871.04,2457.65 871.04,2457.65
             861.75,2453.78 856.37,2449.85 848.01,2444.95
             848.01,2444.95 825.54,2431.90 825.54,2431.90
             822.89,2429.46 819.48,2423.28 817.42,2420.04
             815.78,2417.46 812.60,2412.86 811.90,2410.00
             811.90,2410.00 813.00,2394.00 813.00,2394.00
             813.16,2380.57 818.88,2377.26 819.81,2369.00
             819.81,2369.00 818.00,2347.00 818.00,2347.00
             818.00,2347.00 818.00,2319.00 818.00,2319.00
             818.01,2316.16 817.81,2313.67 818.98,2311.00
             820.20,2308.21 822.54,2306.36 822.13,2303.00
             821.63,2298.88 816.42,2294.39 815.46,2290.00
             813.98,2283.18 820.56,2264.22 824.00,2258.00 Z" />
  <path id="Naga"
        fill="none" stroke="black" stroke-width="1"
        d="M 1067.00,2516.00
           C 1067.00,2516.00 1038.12,2476.00 1038.12,2476.00
             1038.12,2476.00 1023.05,2455.72 1023.05,2455.72
             1021.57,2453.26 1018.37,2441.29 1017.67,2438.00
             1016.91,2434.47 1017.36,2431.32 1014.69,2428.52
             1014.69,2428.52 982.00,2407.33 982.00,2407.33
             978.94,2405.26 971.80,2400.49 970.89,2396.91
             970.40,2395.01 971.40,2391.02 971.80,2389.00
             971.80,2389.00 975.34,2372.00 975.34,2372.00
             975.34,2372.00 976.29,2363.00 976.29,2363.00
             976.29,2363.00 979.40,2347.00 979.40,2347.00
             979.87,2344.67 980.86,2338.20 982.16,2336.56
             983.48,2334.89 994.38,2331.62 996.99,2330.82
             1011.04,2326.52 1025.31,2322.42 1040.00,2321.32
             1042.95,2321.10 1044.21,2321.54 1047.00,2321.84
             1059.15,2323.12 1058.31,2324.12 1068.00,2331.08
             1068.00,2331.08 1076.00,2336.39 1076.00,2336.39
             1089.29,2346.87 1097.18,2362.19 1108.12,2374.72
             1114.12,2381.59 1131.48,2401.10 1134.68,2408.00
             1134.68,2408.00 1141.00,2436.00 1141.00,2436.00
             1137.02,2436.01 1129.41,2436.11 1126.22,2438.59
             1120.81,2442.83 1122.06,2455.47 1118.95,2462.00
             1115.86,2468.50 1109.94,2471.63 1107.89,2477.00
             1106.18,2481.47 1107.88,2486.66 1105.98,2489.61
             1104.80,2491.43 1099.05,2494.09 1096.58,2495.96
             1091.14,2500.07 1072.02,2514.34 1067.00,2516.00 Z" />
  <path id="San Fernando"
        fill="none" stroke="black" stroke-width="1"
        d="M 999.00,2599.00
           C 999.00,2599.00 978.67,2576.91 978.67,2576.91
             978.67,2576.91 971.83,2568.00 971.83,2568.00
             971.83,2568.00 952.81,2545.99 952.81,2545.99
             952.81,2545.99 942.88,2534.96 942.88,2534.96
             942.88,2534.96 933.09,2521.00 933.09,2521.00
             933.09,2521.00 920.88,2505.00 920.88,2505.00
             920.88,2505.00 902.58,2482.00 902.58,2482.00
             900.84,2479.77 896.29,2474.76 896.32,2472.00
             896.36,2468.88 901.79,2464.15 904.00,2462.04
             904.00,2462.04 929.00,2438.00 929.00,2438.00
             929.00,2438.00 942.00,2424.00 942.00,2424.00
             942.00,2424.00 956.00,2411.00 956.00,2411.00
             958.49,2408.54 964.69,2401.37 968.00,2401.10
             970.56,2400.90 973.51,2403.53 975.42,2405.00
             975.42,2405.00 989.00,2414.29 989.00,2414.29
             995.10,2418.09 1009.20,2425.32 1013.44,2430.46
             1016.20,2433.82 1017.11,2448.62 1020.30,2455.00
             1020.30,2455.00 1036.37,2476.00 1036.37,2476.00
             1036.37,2476.00 1042.15,2485.00 1042.15,2485.00
             1042.15,2485.00 1058.89,2508.00 1058.89,2508.00
             1060.50,2510.35 1064.54,2515.08 1064.10,2517.96
             1063.71,2520.59 1058.98,2524.19 1057.00,2526.00
             1057.00,2526.00 1037.00,2543.09 1037.00,2543.09
             1031.05,2548.57 1022.02,2558.26 1017.65,2565.00
             1017.65,2565.00 1012.99,2573.00 1012.99,2573.00
             1012.99,2573.00 1005.26,2585.01 1005.26,2585.01
             1005.26,2585.01 999.00,2599.00 999.00,2599.00 Z" />
  <path id="Carcar"
        fill="none" stroke="black" stroke-width="1"
        d="M 894.00,2475.00
           C 894.00,2475.00 908.42,2493.00 908.42,2493.00
             908.42,2493.00 927.63,2517.00 927.63,2517.00
             927.63,2517.00 938.90,2533.00 938.90,2533.00
             938.90,2533.00 947.72,2543.00 947.72,2543.00
             947.72,2543.00 970.14,2569.00 970.14,2569.00
             970.14,2569.00 977.21,2578.00 977.21,2578.00
             977.21,2578.00 989.87,2592.00 989.87,2592.00
             992.14,2594.63 997.08,2599.66 997.50,2603.00
             997.83,2605.56 994.96,2613.31 993.94,2616.00
             993.94,2616.00 988.82,2629.00 988.82,2629.00
             984.82,2637.83 980.62,2641.18 981.04,2652.00
             981.36,2660.12 984.35,2664.39 984.35,2668.00
             984.34,2670.40 983.25,2672.95 982.05,2674.99
             976.57,2684.27 969.52,2684.11 960.00,2684.00
             957.57,2683.97 953.47,2683.99 951.64,2682.15
             949.73,2680.22 951.05,2677.55 950.17,2675.11
             948.80,2671.26 943.67,2669.90 940.00,2670.37
             932.01,2671.38 918.90,2681.51 916.34,2689.00
             916.34,2689.00 914.00,2708.00 914.00,2708.00
             910.16,2707.82 898.35,2706.37 895.00,2705.20
             889.17,2703.18 879.48,2696.53 874.00,2693.05
             874.00,2693.05 833.00,2666.42 833.00,2666.42
             823.85,2660.74 824.30,2662.66 814.00,2655.14
             811.90,2653.60 808.81,2651.83 808.70,2648.91
             808.63,2646.99 812.22,2639.52 813.14,2637.00
             813.14,2637.00 828.14,2603.00 828.14,2603.00
             828.14,2603.00 840.68,2576.00 840.68,2576.00
             840.68,2576.00 855.52,2546.00 855.52,2546.00
             855.52,2546.00 870.68,2524.00 870.68,2524.00
             870.68,2524.00 894.00,2475.00 894.00,2475.00 Z" />
  <path id="Aloguinsan"
        fill="none" stroke="black" stroke-width="1"
        d="M 734.00,2491.00
           C 734.00,2491.00 739.62,2482.00 739.62,2482.00
             739.62,2482.00 753.00,2465.09 753.00,2465.09
             757.11,2460.06 762.40,2455.50 765.83,2449.91
             765.83,2449.91 774.58,2430.32 774.58,2430.32
             774.58,2430.32 788.97,2418.79 788.97,2418.79
             794.01,2414.13 795.07,2409.88 798.24,2408.88
             799.60,2408.46 801.59,2408.71 803.00,2408.88
             809.54,2409.57 810.06,2411.62 813.28,2416.91
             818.36,2425.27 821.34,2432.03 830.00,2437.02
             830.00,2437.02 851.00,2448.76 851.00,2448.76
             851.00,2448.76 861.00,2454.98 861.00,2454.98
             861.00,2454.98 874.00,2461.31 874.00,2461.31
             876.75,2462.79 889.80,2469.56 890.88,2471.49
             891.94,2473.41 890.73,2476.13 890.03,2478.00
             890.03,2478.00 883.25,2493.00 883.25,2493.00
             883.25,2493.00 865.94,2528.00 865.94,2528.00
             865.94,2528.00 855.78,2542.04 855.78,2542.04
             855.78,2542.04 848.00,2555.00 848.00,2555.00
             841.88,2553.43 829.34,2545.44 823.00,2541.99
             823.00,2541.99 769.00,2511.42 769.00,2511.42
             769.00,2511.42 748.00,2499.59 748.00,2499.59
             742.15,2496.48 738.74,2496.38 734.00,2491.00 Z" />
  <path id="Barili"
        fill="none" stroke="black" stroke-width="1"
        d="M 732.00,2494.00
           C 732.00,2494.00 767.00,2512.43 767.00,2512.43
             767.00,2512.43 782.00,2521.58 782.00,2521.58
             782.00,2521.58 846.00,2557.00 846.00,2557.00
             846.00,2557.00 828.42,2597.00 828.42,2597.00
             828.42,2597.00 815.04,2626.00 815.04,2626.00
             815.04,2626.00 804.91,2650.00 804.91,2650.00
             804.91,2650.00 792.34,2667.01 792.34,2667.01
             792.34,2667.01 774.75,2692.00 774.75,2692.00
             774.75,2692.00 769.22,2701.00 769.22,2701.00
             769.22,2701.00 747.00,2732.00 747.00,2732.00
             747.00,2732.00 717.00,2710.51 717.00,2710.51
             717.00,2710.51 701.00,2699.83 701.00,2699.83
             701.00,2699.83 688.00,2689.74 688.00,2689.74
             688.00,2689.74 637.00,2653.00 637.00,2653.00
             638.92,2647.20 642.47,2643.71 646.20,2639.00
             651.80,2631.91 654.30,2627.52 662.00,2622.00
             662.00,2622.00 665.26,2625.97 665.26,2625.97
             669.30,2630.54 672.69,2630.52 674.49,2624.00
             675.57,2619.64 673.06,2615.52 674.49,2610.00
             675.77,2605.61 679.73,2601.20 683.01,2598.17
             690.94,2590.86 706.33,2582.07 711.29,2573.00
             717.83,2561.04 706.38,2558.43 709.90,2544.00
             712.19,2534.62 717.08,2532.54 720.59,2525.00
             723.93,2517.81 720.92,2514.13 722.84,2509.00
             724.98,2503.28 729.91,2500.02 732.00,2494.00 Z" />
  <path id="Sibonga"
        fill="none" stroke="black" stroke-width="1"
        d="M 805.00,2653.00
           C 811.56,2654.62 815.07,2658.90 821.00,2662.02
             821.00,2662.02 873.00,2694.81 873.00,2694.81
             888.04,2704.15 894.46,2709.59 913.00,2710.00
             907.52,2721.37 900.19,2727.12 896.06,2738.00
             896.06,2738.00 887.43,2778.00 887.43,2778.00
             887.43,2778.00 884.96,2794.00 884.96,2794.00
             884.96,2794.00 879.33,2813.00 879.33,2813.00
             878.14,2816.66 876.14,2821.17 876.56,2825.00
             877.59,2834.50 890.16,2848.86 890.91,2861.00
             891.08,2863.78 891.00,2869.19 887.72,2870.22
             885.47,2870.92 877.75,2868.11 875.00,2867.51
             875.00,2867.51 867.00,2866.10 867.00,2866.10
             867.00,2866.10 839.00,2857.86 839.00,2857.86
             839.00,2857.86 752.00,2832.42 752.00,2832.42
             752.00,2832.42 732.00,2826.74 732.00,2826.74
             732.00,2826.74 707.00,2820.00 707.00,2820.00
             707.00,2820.00 725.74,2781.00 725.74,2781.00
             725.74,2781.00 731.08,2770.00 731.08,2770.00
             731.08,2770.00 733.87,2762.00 733.87,2762.00
             733.87,2762.00 749.95,2731.00 749.95,2731.00
             749.95,2731.00 770.70,2702.00 770.70,2702.00
             770.70,2702.00 775.75,2694.00 775.75,2694.00
             775.75,2694.00 788.42,2676.00 788.42,2676.00
             788.42,2676.00 805.00,2653.00 805.00,2653.00 Z" />
  <path id="Dumanjug"
        fill="none" stroke="black" stroke-width="1"
        d="M 542.00,2739.00
           C 545.83,2734.84 548.08,2731.54 553.00,2728.47
             561.31,2723.29 565.08,2723.71 568.99,2722.01
             568.99,2722.01 583.90,2711.73 583.90,2711.73
             589.45,2706.75 591.19,2698.81 595.55,2693.00
             598.48,2689.12 610.58,2679.59 615.00,2676.12
             622.02,2670.60 624.11,2667.41 629.63,2660.84
             631.23,2658.94 633.27,2655.65 636.09,2655.87
             638.09,2656.03 641.21,2658.54 642.91,2659.69
             642.91,2659.69 654.80,2667.92 654.80,2667.92
             654.80,2667.92 685.42,2690.13 685.42,2690.13
             685.42,2690.13 698.05,2700.06 698.05,2700.06
             698.05,2700.06 733.26,2725.30 733.26,2725.30
             736.11,2727.66 743.52,2731.48 744.03,2735.09
             744.33,2737.24 742.38,2740.91 741.38,2742.83
             741.38,2742.83 737.35,2750.01 737.35,2750.01
             737.35,2750.01 733.03,2760.00 733.03,2760.00
             733.03,2760.00 729.67,2768.00 729.67,2768.00
             729.67,2768.00 719.11,2790.00 719.11,2790.00
             714.82,2798.15 707.01,2811.43 705.00,2820.00
             705.00,2820.00 685.00,2810.33 685.00,2810.33
             685.00,2810.33 640.00,2789.83 640.00,2789.83
             640.00,2789.83 620.00,2781.72 620.00,2781.72
             620.00,2781.72 610.00,2778.00 610.00,2778.00
             605.95,2773.96 594.67,2769.82 589.00,2767.29
             571.16,2759.35 572.66,2759.01 557.01,2749.35
             551.44,2745.90 546.10,2744.14 542.00,2739.00 Z" />
  <path id="Ronda"
        fill="none" stroke="black" stroke-width="1"
        d="M 541.00,2743.00
           C 541.00,2743.00 576.00,2763.56 576.00,2763.56
             576.00,2763.56 599.04,2773.73 599.04,2773.73
             599.04,2773.73 617.00,2782.57 617.00,2782.57
             617.00,2782.57 630.00,2787.34 630.00,2787.34
             630.00,2787.34 653.72,2798.54 653.72,2798.54
             653.72,2798.54 703.00,2821.00 703.00,2821.00
             701.75,2828.02 694.01,2854.13 691.00,2860.00
             691.00,2860.00 671.00,2856.18 671.00,2856.18
             671.00,2856.18 663.00,2854.12 663.00,2854.12
             663.00,2854.12 620.00,2846.54 620.00,2846.54
             620.00,2846.54 600.00,2842.27 600.00,2842.27
             600.00,2842.27 557.00,2834.37 557.00,2834.37
             557.00,2834.37 533.00,2830.00 533.00,2830.00
             533.00,2830.00 536.95,2777.00 536.95,2777.00
             536.95,2777.00 536.95,2770.00 536.95,2770.00
             536.95,2770.00 541.00,2743.00 541.00,2743.00 Z" />
  <path id="Alcantara"
        fill="none" stroke="black" stroke-width="1"
        d="M 532.39,2833.06
           C 536.47,2831.82 540.85,2833.38 545.00,2834.08
             545.00,2834.08 573.00,2839.40 573.00,2839.40
             573.00,2839.40 620.00,2848.54 620.00,2848.54
             620.00,2848.54 657.00,2855.19 657.00,2855.19
             657.00,2855.19 680.00,2859.50 680.00,2859.50
             682.07,2859.97 687.12,2860.59 688.69,2861.51
             692.22,2863.58 690.08,2868.00 689.20,2871.00
             689.20,2871.00 683.00,2893.00 683.00,2893.00
             682.37,2895.19 681.49,2899.67 679.49,2900.89
             677.40,2902.16 672.32,2900.65 670.00,2900.12
             670.00,2900.12 646.00,2894.58 646.00,2894.58
             646.00,2894.58 559.00,2874.72 559.00,2874.72
             559.00,2874.72 542.00,2870.66 542.00,2870.66
             539.48,2870.13 535.57,2870.04 533.70,2868.26
             531.26,2865.93 531.92,2862.92 531.77,2860.00
             531.50,2854.72 523.04,2841.98 532.39,2833.06 Z" />
  <path id="Moalboal"
        fill="none" stroke="black" stroke-width="1"
        d="M 648.00,3014.00
           C 648.00,3014.00 601.00,2991.79 601.00,2991.79
             601.00,2991.79 591.00,2988.21 591.00,2988.21
             591.00,2988.21 566.00,2976.37 566.00,2976.37
             566.00,2976.37 537.00,2967.02 537.00,2967.02
             533.86,2966.05 525.77,2963.98 523.57,2961.93
             520.29,2958.86 523.56,2952.64 522.89,2946.00
             522.28,2939.91 516.91,2932.84 512.39,2928.94
             508.56,2925.64 503.95,2924.29 499.00,2925.63
             495.59,2926.56 492.77,2928.73 489.00,2928.29
             479.91,2927.21 480.02,2917.83 475.36,2912.30
             472.45,2908.84 468.91,2908.14 467.60,2904.87
             465.22,2898.94 472.32,2889.50 474.66,2884.00
             476.89,2878.80 477.85,2865.70 477.49,2860.00
             477.04,2852.98 475.95,2842.54 478.61,2836.00
             482.69,2825.97 493.66,2822.23 499.89,2831.05
             503.57,2836.26 506.27,2852.66 505.82,2859.00
             505.20,2867.63 501.41,2876.54 509.00,2883.00
             509.00,2883.00 513.65,2873.61 513.65,2873.61
             513.65,2873.61 522.00,2873.61 522.00,2873.61
             522.00,2873.61 531.00,2871.10 531.00,2871.10
             531.00,2871.10 546.00,2874.58 546.00,2874.58
             546.00,2874.58 554.00,2875.79 554.00,2875.79
             554.00,2875.79 640.00,2895.42 640.00,2895.42
             640.00,2895.42 679.00,2904.00 679.00,2904.00
             679.00,2904.00 670.42,2935.00 670.42,2935.00
             670.42,2935.00 648.00,3014.00 648.00,3014.00 Z" />
  <path id="Aragao"
        fill="none" stroke="black" stroke-width="1"
        d="M 705.00,2823.00
           C 712.10,2823.18 714.49,2824.82 721.00,2826.41
             721.00,2826.41 729.00,2827.92 729.00,2827.92
             729.00,2827.92 755.00,2835.45 755.00,2835.45
             755.00,2835.45 845.00,2861.73 845.00,2861.73
             845.00,2861.73 864.00,2867.41 864.00,2867.41
             864.00,2867.41 877.85,2870.55 877.85,2870.55
             881.82,2871.76 887.09,2871.96 887.79,2876.97
             887.79,2876.97 887.17,2887.00 887.17,2887.00
             887.17,2887.00 887.93,2895.17 887.93,2895.17
             889.71,2912.19 894.03,2918.96 887.93,2937.00
             884.46,2947.40 879.72,2947.93 876.12,2954.15
             872.75,2959.99 873.55,2963.05 872.05,2969.09
             870.18,2976.59 865.85,2986.96 865.84,2994.13
             865.84,2994.13 866.98,3015.00 866.98,3015.00
             867.04,3017.88 867.30,3022.18 865.26,3024.44
             863.64,3026.25 857.49,3028.15 855.00,3029.05
             845.01,3032.65 841.52,3032.53 831.00,3038.52
             826.20,3041.26 809.60,3057.34 805.10,3062.03
             802.25,3065.01 797.39,3070.76 797.23,3075.00
             797.11,3078.31 798.97,3080.46 798.14,3083.96
             798.14,3083.96 791.00,3097.00 791.00,3097.00
             782.53,3094.33 766.73,3083.06 758.00,3078.04
             758.00,3078.04 748.00,3072.40 748.00,3072.40
             748.00,3072.40 740.00,3068.70 740.00,3068.70
             740.00,3068.70 720.00,3056.23 720.00,3056.23
             720.00,3056.23 684.00,3034.75 684.00,3034.75
             677.41,3030.69 677.73,3031.77 673.00,3029.26
             673.00,3029.26 659.00,3021.11 659.00,3021.11
             656.30,3019.46 651.74,3017.10 650.88,3013.91
             649.87,3010.15 653.22,2999.10 654.53,2995.17
             654.53,2995.17 664.86,2961.00 664.86,2961.00
             664.86,2961.00 685.57,2892.00 685.57,2892.00
             685.57,2892.00 688.98,2879.00 688.98,2879.00
             688.98,2879.00 692.08,2871.00 692.08,2871.00
             692.08,2871.00 695.89,2855.00 695.89,2855.00
             695.89,2855.00 705.00,2823.00 705.00,2823.00 Z" />
  <path id="Badian"
        fill="none" stroke="black" stroke-width="1"
        d="M 523.00,2965.00
           C 523.00,2965.00 543.83,2971.60 543.83,2971.60
             543.83,2971.60 577.00,2983.71 577.00,2983.71
             577.00,2983.71 588.00,2989.13 588.00,2989.13
             588.00,2989.13 606.00,2996.23 606.00,2996.23
             606.00,2996.23 632.00,3008.71 632.00,3008.71
             632.00,3008.71 647.00,3015.00 647.00,3015.00
             646.18,3021.00 635.55,3040.79 632.35,3048.00
             632.35,3048.00 610.36,3095.00 610.36,3095.00
             610.36,3095.00 607.21,3104.00 607.21,3104.00
             607.21,3104.00 594.91,3130.00 594.91,3130.00
             594.91,3130.00 580.82,3160.00 580.82,3160.00
             579.83,3161.92 576.87,3169.14 575.55,3169.84
             573.34,3171.38 570.30,3170.33 568.00,3169.84
             568.00,3169.84 551.00,3164.97 551.00,3164.97
             551.00,3164.97 497.00,3132.81 497.00,3132.81
             497.00,3132.81 483.75,3124.45 483.75,3124.45
             481.78,3123.20 479.01,3121.91 478.02,3119.67
             476.95,3117.22 478.46,3112.73 478.87,3110.00
             480.16,3101.43 480.10,3097.56 480.00,3089.00
             479.92,3082.46 477.87,3071.29 475.96,3065.00
             473.67,3057.47 469.78,3050.82 474.28,3043.06
             478.49,3035.80 490.46,3040.88 497.00,3042.16
             499.46,3042.55 502.38,3043.63 504.68,3042.16
             506.59,3041.05 510.05,3035.42 511.67,3033.28
             522.51,3018.94 523.96,3016.97 524.00,2999.00
             524.01,2996.17 523.81,2993.66 524.98,2991.00
             526.31,2987.97 528.85,2986.02 528.68,2982.00
             528.53,2978.33 524.31,2972.25 523.00,2965.00 Z
           M 490.04,2995.76
           C 494.12,2995.06 495.22,2995.68 497.83,2999.06
             503.91,3006.94 501.66,3013.41 499.02,3022.00
             498.21,3024.65 497.52,3029.20 494.72,3030.39
             489.07,3032.79 477.92,3023.44 477.15,3018.00
             476.15,3010.93 484.22,2999.00 490.04,2995.76 Z" />
  <path id="Dalaguette"
        fill="none" stroke="black" stroke-width="1"
        d="M 649.00,3017.00
           C 649.00,3017.00 689.00,3039.91 689.00,3039.91
             689.00,3039.91 728.00,3063.31 728.00,3063.31
             728.00,3063.31 737.00,3069.12 737.00,3069.12
             737.00,3069.12 746.00,3073.49 746.00,3073.49
             746.00,3073.49 758.00,3080.42 758.00,3080.42
             758.00,3080.42 789.00,3099.00 789.00,3099.00
             789.00,3099.00 787.17,3111.00 787.17,3111.00
             786.29,3120.06 788.36,3120.83 781.74,3129.00
             780.52,3130.50 778.25,3133.18 776.71,3134.26
             772.93,3136.93 768.29,3135.56 764.00,3136.21
             758.21,3137.09 753.38,3140.99 750.53,3146.00
             746.69,3152.75 749.54,3155.34 748.18,3162.00
             746.84,3168.57 743.91,3171.10 743.30,3175.00
             742.61,3176.77 743.00,3189.75 743.30,3192.00
             744.57,3201.88 748.80,3216.81 743.30,3225.96
             740.04,3232.19 725.64,3238.73 719.00,3243.08
             715.70,3245.24 712.12,3248.70 708.00,3248.55
             705.80,3248.46 698.49,3245.85 696.00,3245.00
             696.00,3245.00 672.00,3236.67 672.00,3236.67
             672.00,3236.67 660.00,3233.65 660.00,3233.65
             660.00,3233.65 644.00,3228.00 644.00,3228.00
             644.00,3228.00 616.00,3218.66 616.00,3218.66
             616.00,3218.66 576.00,3205.00 576.00,3205.00
             576.00,3205.00 577.00,3181.00 577.00,3181.00
             577.06,3169.08 582.48,3161.37 587.63,3151.00
             587.63,3151.00 606.75,3110.00 606.75,3110.00
             610.50,3102.42 609.18,3103.22 611.35,3098.00
             611.35,3098.00 621.32,3076.00 621.32,3076.00
             621.32,3076.00 637.78,3041.00 637.78,3041.00
             637.78,3041.00 649.00,3017.00 649.00,3017.00 Z" />
  <path id="Alegria"
        fill="none" stroke="black" stroke-width="1"
        d="M 476.00,3123.00
           C 476.00,3123.00 499.00,3136.58 499.00,3136.58
             499.00,3136.58 532.00,3156.01 532.00,3156.01
             532.00,3156.01 549.00,3166.31 549.00,3166.31
             549.00,3166.31 567.00,3171.71 567.00,3171.71
             567.00,3171.71 574.36,3175.43 574.36,3175.43
             574.36,3175.43 574.36,3188.00 574.36,3188.00
             574.36,3188.00 573.00,3209.00 573.00,3209.00
             573.00,3209.00 571.00,3246.00 571.00,3246.00
             571.00,3246.00 569.00,3277.00 569.00,3277.00
             569.00,3277.00 569.00,3293.00 569.00,3293.00
             569.00,3293.00 568.04,3305.00 568.04,3305.00
             568.04,3305.00 568.04,3317.00 568.04,3317.00
             553.99,3316.99 533.90,3310.29 520.00,3306.42
             520.00,3306.42 491.00,3299.12 491.00,3299.12
             491.00,3299.12 457.00,3290.13 457.00,3290.13
             457.00,3290.13 425.00,3282.00 425.00,3282.00
             425.00,3282.00 426.00,3270.00 426.00,3270.00
             426.05,3258.68 425.54,3247.16 427.81,3236.00
             429.95,3225.49 436.01,3223.33 436.92,3214.00
             437.55,3207.57 436.40,3200.10 434.30,3194.00
             432.18,3187.83 428.19,3178.78 429.88,3172.00
             431.09,3167.18 436.52,3165.50 441.00,3158.00
             442.63,3158.63 444.15,3159.47 445.99,3159.13
             452.31,3157.97 457.76,3144.74 461.61,3140.30
             466.82,3134.29 471.56,3134.59 476.00,3123.00 Z" />
  <path id="Alcoy"
        fill="none" stroke="black" stroke-width="1"
        d="M 575.00,3207.00
           C 575.00,3207.00 612.00,3219.31 612.00,3219.31
             612.00,3219.31 653.00,3233.31 653.00,3233.31
             653.00,3233.31 667.00,3237.04 667.00,3237.04
             667.00,3237.04 709.00,3252.00 709.00,3252.00
             706.05,3262.18 702.02,3287.58 702.00,3298.00
             702.00,3298.00 702.00,3316.00 702.00,3316.00
             701.99,3320.96 701.30,3330.62 699.23,3335.00
             697.16,3339.40 693.96,3341.24 692.34,3346.00
             690.65,3350.98 691.00,3357.73 691.00,3363.00
             691.00,3363.00 679.00,3359.36 679.00,3359.36
             679.00,3359.36 669.00,3356.64 669.00,3356.64
             669.00,3356.64 648.00,3348.45 648.00,3348.45
             648.00,3348.45 598.00,3329.42 598.00,3329.42
             598.00,3329.42 579.00,3322.32 579.00,3322.32
             579.00,3322.32 570.99,3318.30 570.99,3318.30
             570.99,3318.30 570.00,3311.00 570.00,3311.00
             570.00,3311.00 570.00,3296.00 570.00,3296.00
             570.00,3296.00 570.91,3286.00 570.91,3286.00
             570.91,3286.00 572.00,3263.00 572.00,3263.00
             572.00,3263.00 573.00,3249.00 573.00,3249.00
             573.00,3249.00 573.91,3236.00 573.91,3236.00
             573.91,3236.00 575.00,3207.00 575.00,3207.00 Z" />
  <path id="Malabuyoc"
        fill="none" stroke="black" stroke-width="1"
        d="M 424.00,3284.00
           C 424.00,3284.00 458.00,3292.63 458.00,3292.63
             458.00,3292.63 533.00,3312.34 533.00,3312.34
             533.00,3312.34 557.00,3317.93 557.00,3317.93
             559.68,3318.19 565.21,3318.14 566.22,3321.30
             566.92,3323.49 564.43,3329.64 563.67,3332.00
             563.67,3332.00 555.59,3357.00 555.59,3357.00
             555.59,3357.00 538.91,3409.00 538.91,3409.00
             538.91,3409.00 528.00,3444.00 528.00,3444.00
             528.00,3444.00 451.00,3440.96 451.00,3440.96
             451.00,3440.96 438.00,3440.00 438.00,3440.00
             438.00,3440.00 412.00,3440.00 412.00,3440.00
             412.00,3440.00 391.00,3439.00 391.00,3439.00
             393.04,3430.47 397.82,3428.42 401.79,3421.91
             404.85,3416.89 406.33,3406.90 406.63,3401.00
             407.27,3388.35 400.69,3381.44 398.53,3372.00
             397.12,3365.87 399.98,3351.44 401.50,3345.00
             401.50,3345.00 408.27,3320.00 408.27,3320.00
             413.86,3307.89 422.52,3298.33 424.00,3284.00 Z" />
  <path id="Boljoon"
        fill="none" stroke="black" stroke-width="1"
        d="M 569.00,3322.00
           C 577.93,3322.93 605.96,3334.95 616.00,3338.81
             616.00,3338.81 643.00,3348.81 643.00,3348.81
             643.00,3348.81 665.00,3357.41 665.00,3357.41
             665.00,3357.41 674.00,3359.90 674.00,3359.90
             674.00,3359.90 690.00,3366.00 690.00,3366.00
             690.00,3366.00 674.69,3396.83 674.69,3396.83
             674.69,3396.83 668.51,3405.09 668.51,3405.09
             668.51,3405.09 659.69,3426.00 659.69,3426.00
             655.82,3434.62 651.12,3445.46 651.00,3455.00
             650.76,3475.13 652.30,3485.40 642.00,3504.00
             642.00,3504.00 624.00,3494.69 624.00,3494.69
             624.00,3494.69 602.00,3482.51 602.00,3482.51
             602.00,3482.51 593.00,3478.74 593.00,3478.74
             593.00,3478.74 572.00,3467.69 572.00,3467.69
             572.00,3467.69 529.00,3445.00 529.00,3445.00
             529.00,3445.00 555.74,3363.00 555.74,3363.00
             555.74,3363.00 569.00,3322.00 569.00,3322.00 Z" />
  <path id="Ginatilan"
        fill="none" stroke="black" stroke-width="1"
        d="M 391.00,3441.00
           C 391.00,3441.00 410.00,3441.00 410.00,3441.00
             410.00,3441.00 432.00,3442.00 432.00,3442.00
             432.00,3442.00 444.00,3442.96 444.00,3442.96
             444.00,3442.96 455.00,3442.96 455.00,3442.96
             455.00,3442.96 469.00,3444.00 469.00,3444.00
             469.00,3444.00 498.00,3445.00 498.00,3445.00
             498.00,3445.00 508.00,3445.91 508.00,3445.91
             508.00,3445.91 527.00,3447.00 527.00,3447.00
             527.00,3447.00 498.57,3516.00 498.57,3516.00
             498.57,3516.00 485.92,3548.00 485.92,3548.00
             485.92,3548.00 482.00,3559.00 482.00,3559.00
             482.00,3559.00 401.00,3549.58 401.00,3549.58
             401.00,3549.58 382.00,3547.28 382.00,3547.28
             379.83,3546.98 376.65,3547.09 375.69,3544.69
             374.99,3542.93 376.27,3536.18 376.58,3534.00
             377.31,3528.81 377.58,3522.92 379.47,3518.00
             379.47,3518.00 386.90,3503.00 386.90,3503.00
             388.40,3498.53 388.66,3489.94 389.44,3485.00
             389.44,3485.00 393.87,3454.00 393.87,3454.00
             393.87,3454.00 391.00,3441.00 391.00,3441.00 Z" />
  <path id="Samboan"
        fill="none" stroke="black" stroke-width="1"
        d="M 374.00,3549.00
           C 374.00,3549.00 401.00,3551.85 401.00,3551.85
             401.00,3551.85 480.00,3561.00 480.00,3561.00
             480.00,3561.00 463.58,3602.00 463.58,3602.00
             460.35,3609.44 456.11,3616.73 456.00,3625.00
             456.00,3625.00 456.00,3638.00 456.00,3638.00
             456.00,3640.09 456.12,3643.06 455.40,3645.00
             454.06,3648.64 441.38,3661.62 438.00,3665.00
             424.82,3678.19 425.07,3678.21 409.00,3687.03
             406.17,3688.58 404.13,3690.32 401.00,3691.37
             395.56,3693.17 390.43,3692.65 385.00,3693.17
             385.00,3693.17 356.00,3695.00 356.00,3695.00
             356.00,3695.00 358.73,3681.00 358.73,3681.00
             358.73,3681.00 357.00,3663.00 357.00,3663.00
             356.98,3649.58 357.39,3641.36 359.28,3628.00
             359.97,3623.13 361.53,3612.00 363.35,3608.00
             365.69,3602.84 369.61,3599.72 370.38,3595.00
             371.18,3590.05 367.48,3585.38 367.47,3580.00
             367.44,3567.61 371.02,3560.05 374.00,3549.00 Z" />
  <path id="Oslob"
        fill="none" stroke="black" stroke-width="1"
        d="M 529.00,3447.00
           C 529.00,3447.00 538.00,3451.74 538.00,3451.74
             538.00,3451.74 566.83,3466.64 566.83,3466.64
             566.83,3466.64 574.01,3471.21 574.01,3471.21
             574.01,3471.21 586.83,3477.48 586.83,3477.48
             586.83,3477.48 593.04,3481.05 593.04,3481.05
             593.04,3481.05 606.00,3486.52 606.00,3486.52
             606.00,3486.52 615.00,3492.21 615.00,3492.21
             615.00,3492.21 625.00,3497.03 625.00,3497.03
             625.00,3497.03 633.00,3501.74 633.00,3501.74
             636.99,3503.84 640.97,3504.69 640.20,3510.02
             639.39,3515.56 637.85,3530.03 634.57,3533.79
             630.38,3538.60 622.83,3538.81 617.65,3546.02
             612.73,3552.85 614.48,3560.75 610.91,3567.00
             607.64,3572.75 599.83,3577.67 595.53,3584.00
             590.56,3591.33 595.05,3601.12 588.85,3606.37
             588.85,3606.37 572.09,3616.71 572.09,3616.71
             572.09,3616.71 543.00,3640.24 543.00,3640.24
             534.69,3645.67 529.34,3643.32 522.51,3653.00
             519.12,3657.80 520.07,3662.20 517.42,3665.91
             514.66,3669.77 510.18,3670.91 506.32,3675.10
             502.58,3679.18 495.79,3690.77 493.26,3696.00
             493.26,3696.00 487.95,3708.00 487.95,3708.00
             487.95,3708.00 485.54,3716.00 485.54,3716.00
             485.54,3716.00 479.63,3729.00 479.63,3729.00
             479.63,3729.00 476.39,3735.99 476.39,3735.99
             472.57,3742.25 463.94,3750.75 458.00,3755.00
             456.21,3748.68 456.99,3733.31 457.00,3726.00
             457.00,3726.00 458.00,3709.00 458.00,3709.00
             458.00,3709.00 458.00,3628.00 458.00,3628.00
             458.02,3616.41 461.36,3612.25 465.91,3602.00
             465.91,3602.00 477.40,3574.00 477.40,3574.00
             477.40,3574.00 485.91,3554.00 485.91,3554.00
             485.91,3554.00 492.01,3536.00 492.01,3536.00
             492.01,3536.00 499.57,3519.00 499.57,3519.00
             499.57,3519.00 513.66,3484.00 513.66,3484.00
             513.66,3484.00 529.00,3447.00 529.00,3447.00 Z" />
  <path id="Santander"
        fill="none" stroke="black" stroke-width="1"
        d="M 455.00,3649.00
           C 456.86,3653.70 456.00,3673.66 456.00,3680.00
             456.00,3680.00 456.00,3750.00 456.00,3750.00
             456.00,3752.08 456.11,3755.07 455.40,3757.00
             453.47,3762.22 442.70,3769.69 438.00,3773.00
             428.77,3779.51 415.67,3786.62 404.00,3785.91
             391.78,3785.16 375.62,3777.75 367.30,3768.83
             361.74,3762.87 361.76,3750.87 361.67,3743.00
             361.67,3743.00 361.00,3733.00 361.00,3733.00
             360.94,3719.72 360.18,3710.78 356.00,3698.00
             356.00,3698.00 388.00,3695.17 388.00,3695.17
             388.00,3695.17 400.00,3694.20 400.00,3694.20
             400.00,3694.20 410.00,3688.52 410.00,3688.52
             410.00,3688.52 426.99,3678.62 426.99,3678.62
             426.99,3678.62 455.00,3649.00 455.00,3649.00 Z" />
</svg>
