<?xml version="1.0" encoding="UTF-8" standalone="no"?>
<!DOCTYPE svg PUBLIC "-//W3C//DTD SVG 20010904//EN"
              "http://www.w3.org/TR/2001/REC-SVG-20010904/DTD/svg10.dtd">

<svg xmlns="http://www.w3.org/2000/svg"
     width="84.6668mm" height="112.438mm"
     viewBox="0 0 1000 1328">
  <path id="Bansalan"
        fill="none" stroke="black" stroke-width="1"
        d="M 259.00,792.00
           C 259.00,792.00 282.91,779.67 282.91,779.67
             282.91,779.67 293.53,764.29 293.53,764.29
             293.53,764.29 315.00,745.85 315.00,745.85
             315.00,745.85 335.00,727.83 335.00,727.83
             335.00,727.83 344.00,720.02 344.00,720.02
             344.00,720.02 358.04,718.00 358.04,718.00
             358.04,718.00 358.04,734.00 358.04,734.00
             358.04,734.00 359.00,746.00 359.00,746.00
             359.00,746.00 359.00,860.00 359.00,860.00
             359.00,860.00 360.00,875.00 360.00,875.00
             360.00,875.00 360.00,890.00 360.00,890.00
             360.00,892.18 360.09,894.92 359.49,897.00
             358.42,900.74 348.47,914.80 345.67,919.00
             333.48,937.28 322.02,951.02 317.00,973.00
             302.92,968.33 301.57,959.65 298.15,947.00
             298.15,947.00 292.83,924.00 292.83,924.00
             292.83,924.00 290.91,911.00 290.91,911.00
             290.91,911.00 285.87,883.00 285.87,883.00
             285.87,883.00 282.19,856.00 282.19,856.00
             281.00,851.04 296.39,826.79 286.20,817.00
             279.78,807.91 266.62,802.61 259.00,792.00 Z
           M -89.38,870.52" />
  <path id="Magsaysay"
        fill="none" stroke="black" stroke-width="1"
        d="M 220.00,984.00
           C 223.92,970.71 238.53,968.69 237.77,958.00
             236.99,947.01 224.33,943.27 217.00,937.48
             205.81,928.64 202.17,919.83 202.00,906.00
             201.87,895.02 201.60,889.27 194.84,880.00
             192.47,876.75 184.89,869.60 186.62,865.43
             187.96,862.18 199.59,861.56 203.00,861.15
             213.63,859.88 239.22,857.98 246.96,851.61
             260.42,840.54 250.51,822.64 248.44,809.00
             247.66,803.86 249.93,792.64 257.00,794.44
             259.48,795.07 263.83,799.84 266.00,801.70
             273.56,808.18 284.83,813.64 287.44,824.00
             290.16,834.72 279.41,846.95 280.09,859.00
             280.09,859.00 286.29,899.00 286.29,899.00
             286.29,899.00 288.71,908.00 288.71,908.00
             288.71,908.00 290.43,921.00 290.43,921.00
             290.43,921.00 294.47,941.00 294.47,941.00
             295.73,946.03 299.42,960.15 301.84,964.00
             305.85,970.36 312.66,971.70 314.17,976.17
             314.97,978.55 313.56,982.51 313.00,985.00
             313.00,985.00 272.00,985.00 272.00,985.00
             272.00,985.00 255.00,984.00 255.00,984.00
             255.00,984.00 220.00,984.00 220.00,984.00 Z" />
  <path id="Malalag"
        fill="none" stroke="black" stroke-width="1"
        d="M 289.00,1134.00
           C 289.00,1134.00 305.00,1133.00 305.00,1133.00
             305.00,1133.00 342.00,1132.00 342.00,1132.00
             342.00,1132.00 357.00,1131.00 357.00,1131.00
             357.00,1131.00 393.00,1130.00 393.00,1130.00
             393.00,1130.00 409.00,1129.00 409.00,1129.00
             409.00,1129.00 469.00,1127.00 469.00,1127.00
             469.00,1127.00 481.00,1126.04 481.00,1126.04
             481.00,1126.04 494.00,1126.04 494.00,1126.04
             497.01,1126.00 506.32,1125.52 508.78,1124.41
             511.71,1123.07 511.74,1120.41 513.69,1118.99
             515.73,1117.52 520.63,1118.01 523.00,1118.47
             534.12,1120.62 530.13,1127.51 542.00,1135.78
             546.98,1139.25 553.94,1142.19 560.00,1143.07
             562.86,1143.13 567.92,1142.51 570.00,1143.07
             573.78,1144.76 580.53,1153.51 583.00,1157.00
             583.00,1157.00 534.00,1189.00 534.00,1189.00
             534.00,1189.00 500.00,1211.00 500.00,1211.00
             495.01,1200.42 488.72,1185.50 475.00,1185.88
             472.20,1185.96 469.52,1186.42 467.00,1187.69
             458.41,1192.00 457.33,1200.07 453.69,1208.00
             449.94,1216.19 442.53,1227.91 436.99,1235.00
             418.56,1258.56 412.17,1260.19 390.00,1276.63
             381.75,1282.75 373.04,1290.61 362.00,1289.82
             348.49,1288.84 340.12,1282.79 328.00,1280.28
             328.00,1280.28 304.00,1275.90 304.00,1275.90
             294.84,1272.71 286.15,1262.79 282.58,1254.00
             279.06,1246.37 279.24,1230.51 282.58,1223.04
             284.81,1218.83 287.39,1218.56 288.98,1215.79
             290.36,1213.39 290.03,1207.87 290.00,1205.00
             290.00,1205.00 289.00,1190.00 289.00,1190.00
             289.00,1190.00 290.00,1169.00 290.00,1169.00
             290.00,1169.00 290.00,1148.00 290.00,1148.00
             290.00,1148.00 289.00,1134.00 289.00,1134.00 Z" />
  <path id="Kiblawan"
        fill="none" stroke="black" stroke-width="1"
        d="M 250.00,1052.00
           C 250.00,1052.00 323.00,1052.00 323.00,1052.00
             335.46,1052.02 349.51,1060.22 361.00,1065.15
             361.00,1065.15 381.00,1073.48 381.00,1073.48
             383.51,1074.30 389.58,1075.00 391.01,1076.74
             392.74,1078.84 393.00,1088.09 393.00,1091.00
             393.00,1091.00 394.00,1119.00 394.00,1119.00
             394.00,1121.30 394.38,1125.41 392.40,1126.98
             390.22,1128.70 377.42,1127.96 374.00,1128.00
             374.00,1128.00 359.00,1129.00 359.00,1129.00
             359.00,1129.00 325.00,1130.00 325.00,1130.00
             325.00,1130.00 308.00,1131.00 308.00,1131.00
             300.57,1131.01 296.49,1130.66 289.00,1132.00
             288.87,1126.11 287.17,1109.03 285.05,1104.00
             283.10,1099.39 276.98,1091.39 273.86,1087.00
             273.86,1087.00 260.12,1066.00 260.12,1066.00
             256.82,1061.26 252.72,1057.08 250.00,1052.00 Z" />
  <path id="Sulop"
        fill="none" stroke="black" stroke-width="1"
        d="M 395.00,1076.00
           C 395.00,1076.00 435.00,1082.42 435.00,1082.42
             462.80,1086.74 471.95,1089.00 501.00,1089.00
             501.00,1094.41 501.53,1108.75 504.58,1112.89
             506.43,1115.40 508.22,1116.05 511.00,1117.00
             508.91,1124.75 505.84,1122.62 499.00,1123.09
             499.00,1123.09 492.00,1123.96 492.00,1123.96
             492.00,1123.96 476.00,1123.96 476.00,1123.96
             476.00,1123.96 461.00,1125.04 461.00,1125.04
             461.00,1125.04 448.00,1125.04 448.00,1125.04
             448.00,1125.04 436.00,1126.00 436.00,1126.00
             436.00,1126.00 397.00,1127.00 397.00,1127.00
             397.00,1127.00 395.96,1114.00 395.96,1114.00
             395.96,1114.00 395.96,1102.00 395.96,1102.00
             395.96,1102.00 395.00,1092.00 395.00,1092.00
             395.00,1092.00 395.00,1076.00 395.00,1076.00 Z" />
  <path id="Padada"
        fill="none" stroke="black" stroke-width="1"
        d="M 337.00,1052.00
           C 337.00,1052.00 411.00,1052.00 411.00,1052.00
             411.00,1052.00 434.00,1050.17 434.00,1050.17
             434.00,1050.17 463.00,1047.83 463.00,1047.83
             463.00,1047.83 499.00,1045.00 499.00,1045.00
             499.00,1045.00 500.00,1087.00 500.00,1087.00
             500.00,1087.00 478.00,1086.00 478.00,1086.00
             463.75,1085.98 432.73,1079.87 417.00,1077.42
             417.00,1077.42 382.00,1071.70 382.00,1071.70
             382.00,1071.70 357.00,1061.28 357.00,1061.28
             351.67,1058.98 341.28,1055.10 337.00,1052.00 Z" />
  <path id="Hagonoy"
        fill="none" stroke="black" stroke-width="1"
        d="M 493.00,978.00
           C 493.84,980.97 492.96,987.30 493.00,991.00
             493.15,1003.42 498.98,1002.86 500.54,1010.00
             500.54,1010.00 500.00,1021.00 500.00,1021.00
             500.00,1021.00 499.00,1042.00 499.00,1042.00
             499.00,1042.00 454.00,1046.17 454.00,1046.17
             454.00,1046.17 421.00,1049.00 421.00,1049.00
             421.00,1049.00 355.00,1049.00 355.00,1049.00
             355.00,1049.00 339.00,1050.00 339.00,1050.00
             339.00,1050.00 351.98,1037.96 351.98,1037.96
             351.98,1037.96 353.00,1024.00 353.00,1024.00
             353.00,1024.00 353.00,993.00 353.00,993.00
             353.00,993.00 393.00,988.83 393.00,988.83
             393.00,988.83 456.00,982.17 456.00,982.17
             456.00,982.17 493.00,978.00 493.00,978.00 Z" />
  <path id="Matanao"
        fill="none" stroke="black" stroke-width="1"
        d="M 360.00,900.00
           C 360.00,900.00 389.09,931.00 389.09,931.00
             389.09,931.00 417.17,962.00 417.17,962.00
             417.17,962.00 435.00,982.00 435.00,982.00
             435.00,982.00 405.00,985.17 405.00,985.17
             405.00,985.17 351.00,991.00 351.00,991.00
             351.00,991.00 351.00,1030.00 351.00,1030.00
             351.00,1032.44 351.21,1035.66 349.98,1037.82
             348.33,1040.72 337.31,1048.20 334.00,1049.30
             331.53,1050.13 328.59,1050.00 326.00,1050.00
             326.00,1050.00 255.00,1050.00 255.00,1050.00
             244.45,1049.98 243.34,1047.33 236.00,1040.00
             232.03,1036.03 227.60,1031.99 224.91,1027.00
             222.00,1021.59 219.16,1001.57 219.01,995.00
             218.97,993.05 218.79,989.15 220.02,987.60
             222.30,984.71 234.94,986.99 239.00,987.00
             239.00,987.00 305.00,987.00 305.00,987.00
             307.28,987.00 310.76,987.21 312.73,985.98
             315.70,984.11 319.89,969.98 321.31,966.00
             321.31,966.00 326.66,951.00 326.66,951.00
             326.66,951.00 360.00,900.00 360.00,900.00 Z" />
  <path id="Digos"
        fill="none" stroke="black" stroke-width="1"
        d="M 361.00,718.00
           C 361.00,718.00 393.00,714.95 393.00,714.95
             395.99,714.69 401.84,713.15 404.30,714.95
             406.43,716.58 409.33,726.99 410.33,730.00
             410.33,730.00 424.00,770.00 424.00,770.00
             424.00,770.00 430.17,788.00 430.17,788.00
             430.17,788.00 452.72,828.00 452.72,828.00
             452.72,828.00 475.67,867.00 475.67,867.00
             475.67,867.00 497.42,894.00 497.42,894.00
             500.09,897.26 506.52,904.17 507.40,908.00
             507.74,909.48 506.95,919.46 506.41,920.91
             506.41,920.91 503.15,926.15 503.15,926.15
             501.92,929.70 505.51,930.88 506.98,933.37
             508.26,935.53 508.05,939.50 507.99,942.00
             507.62,957.31 498.23,962.25 495.00,976.00
             495.00,976.00 454.00,980.17 454.00,980.17
             451.31,980.44 440.16,981.97 438.28,981.34
             435.47,980.39 429.70,973.45 427.58,971.00
             427.58,971.00 406.83,948.00 406.83,948.00
             406.83,948.00 375.97,914.00 375.97,914.00
             373.09,910.96 363.81,901.31 362.60,898.00
             361.88,896.06 362.00,893.09 362.00,891.00
             362.00,891.00 362.00,853.00 362.00,853.00
             361.36,843.96 361.24,820.90 361.00,819.00
             361.00,819.00 361.00,718.00 361.00,718.00 Z" />
  <path id="Santa Cruz"
        fill="none" stroke="black" stroke-width="1"
        d="M 407.00,714.00
           C 411.78,712.64 421.65,712.35 427.00,711.83
             427.00,711.83 471.00,707.83 471.00,707.83
             471.00,707.83 494.00,705.72 494.00,705.72
             494.00,705.72 512.00,704.31 512.00,704.31
             512.00,704.31 541.00,711.58 541.00,711.58
             541.00,711.58 575.00,720.13 575.00,720.13
             575.00,720.13 613.00,729.63 613.00,729.63
             625.07,732.64 625.88,731.99 626.00,739.00
             626.07,743.47 626.40,751.05 624.57,755.00
             622.50,759.46 615.98,764.90 612.00,767.85
             603.91,773.85 596.14,778.62 589.04,786.00
             585.87,789.30 583.97,791.48 582.85,796.00
             580.94,803.66 583.76,808.20 577.86,815.00
             577.86,815.00 553.10,837.00 553.10,837.00
             548.28,842.34 546.32,848.40 542.37,854.00
             542.37,854.00 525.58,874.00 525.58,874.00
             522.24,877.95 508.88,892.00 507.74,895.00
             506.92,897.14 507.02,899.73 507.00,902.00
             502.10,897.95 497.28,891.06 493.08,886.00
             474.28,863.35 475.86,864.82 461.72,840.00
             461.72,840.00 432.17,788.00 432.17,788.00
             432.17,788.00 422.67,760.00 422.67,760.00
             422.67,760.00 407.00,714.00 407.00,714.00 Z" />
  <path id="Davao City"
        fill="none" stroke="black" stroke-width="1"
        d="M 356.00,16.00
           C 356.00,16.00 536.00,16.00 536.00,16.00
             536.00,16.00 551.00,17.00 551.00,17.00
             551.00,17.00 636.00,17.00 636.00,17.00
             636.00,21.78 635.30,37.56 637.02,41.00
             638.64,44.24 645.04,49.81 647.81,53.00
             651.26,56.97 653.08,61.00 654.56,66.00
             659.00,80.97 656.51,95.09 659.45,109.00
             661.05,116.54 665.03,123.75 669.44,130.00
             678.46,142.79 681.12,140.67 690.00,146.60
             693.50,148.93 697.49,152.94 702.00,152.75
             704.97,152.62 707.57,150.55 710.00,149.00
             710.00,149.00 710.00,161.00 710.00,161.00
             707.29,161.00 702.63,160.57 700.60,162.60
             698.81,164.39 699.02,167.65 699.00,170.00
             699.00,170.00 699.00,203.00 699.00,203.00
             699.00,203.00 699.00,326.00 699.00,326.00
             699.00,326.00 698.00,341.00 698.00,341.00
             698.00,341.00 698.00,373.00 698.00,373.00
             698.00,376.03 697.51,384.42 699.02,386.69
             700.86,389.45 705.09,388.99 708.00,389.00
             708.00,389.00 756.00,389.00 756.00,389.00
             758.00,389.00 761.13,389.11 762.96,388.40
             769.64,385.79 770.20,374.25 774.41,370.73
             777.41,368.23 780.05,369.84 788.00,364.64
             797.13,358.67 809.68,346.94 820.00,345.00
             820.00,345.00 824.09,360.00 824.09,360.00
             824.09,360.00 833.00,370.00 833.00,370.00
             821.84,378.61 812.17,383.41 805.37,397.00
             800.70,406.35 800.89,414.92 801.00,425.00
             801.22,443.14 815.06,462.41 820.09,480.00
             825.32,498.28 822.68,508.93 815.14,526.00
             809.95,537.75 802.64,548.26 795.69,559.00
             782.31,579.67 769.20,599.49 747.00,611.69
             741.10,614.93 731.71,620.26 725.00,619.89
             715.35,619.37 706.16,611.40 694.00,615.36
             677.80,620.64 662.84,637.89 652.66,651.00
             652.66,651.00 643.70,663.00 643.70,663.00
             632.12,676.53 623.92,678.43 624.00,698.00
             624.00,698.00 624.96,709.00 624.96,709.00
             624.96,709.00 624.96,719.00 624.96,719.00
             624.96,719.00 626.00,731.00 626.00,731.00
             626.00,731.00 591.00,722.13 591.00,722.13
             591.00,722.13 546.00,710.63 546.00,710.63
             537.74,708.56 513.96,701.70 507.00,702.09
             507.00,702.09 480.00,704.83 480.00,704.83
             480.00,704.83 436.00,708.83 436.00,708.83
             436.00,708.83 381.00,713.83 381.00,713.83
             381.00,713.83 347.00,717.00 347.00,717.00
             352.33,706.64 367.47,687.62 369.84,679.00
             369.84,679.00 374.61,648.00 374.61,648.00
             375.35,643.90 376.48,637.41 379.42,634.39
             386.12,627.47 403.23,630.35 412.00,631.42
             416.68,631.99 423.60,631.68 425.08,625.98
             426.43,620.77 415.79,608.83 412.81,604.00
             404.75,590.92 404.83,583.69 405.00,569.00
             405.00,569.00 405.96,558.00 405.96,558.00
             406.54,544.71 403.67,528.61 395.33,518.00
             388.80,509.70 374.93,498.66 366.00,492.67
             361.64,489.74 352.26,485.61 349.85,481.91
             347.50,478.29 347.05,462.90 347.00,458.00
             347.00,458.00 346.00,444.00 346.00,444.00
             346.00,444.00 346.00,410.00 346.00,410.00
             346.00,410.00 346.98,399.00 346.98,399.00
             346.98,399.00 346.98,382.00 346.98,382.00
             346.97,364.03 342.48,336.79 338.58,319.00
             335.95,307.04 331.02,286.62 331.00,275.00
             331.00,275.00 331.00,253.00 331.00,253.00
             331.00,253.00 332.00,233.00 332.00,233.00
             332.04,229.86 332.71,222.85 333.69,220.00
             336.53,211.78 339.98,214.58 340.00,201.00
             340.00,201.00 340.00,186.00 340.00,186.00
             340.00,186.00 339.00,169.00 339.00,169.00
             339.00,169.00 338.00,154.00 338.00,154.00
             338.00,154.00 338.00,146.00 338.00,146.00
             338.12,136.71 342.69,130.12 346.75,122.00
             352.07,111.37 357.15,100.38 360.65,89.00
             362.09,84.31 362.99,73.09 362.88,68.00
             363.02,56.25 365.58,45.96 362.88,34.00
             362.88,34.00 356.00,16.00 356.00,16.00 Z" />
</svg>
