<?xml version="1.0" encoding="UTF-8" standalone="no"?>
<!DOCTYPE svg PUBLIC "-//W3C//DTD SVG 20010904//EN"
              "http://www.w3.org/TR/2001/REC-SVG-20010904/DTD/svg10.dtd">

<svg xmlns="http://www.w3.org/2000/svg"
     width="467.725mm" height="701.323mm"
     viewBox="0 0 1768 2651">
  <path id="Braulio E. Dujali"
        fill="none" stroke="black" stroke-width="1"
        d="M 774.00,1287.00
           C 774.00,1287.00 822.00,1287.00 822.00,1287.00
             822.00,1287.00 839.00,1286.00 839.00,1286.00
             839.00,1286.00 981.00,1286.00 981.00,1286.00
             991.39,1285.98 992.53,1284.20 1002.00,1281.42
             1002.00,1281.42 1044.00,1268.00 1044.00,1268.00
             1044.00,1268.00 1159.00,1230.67 1159.00,1230.67
             1159.00,1230.67 1198.00,1218.00 1198.00,1218.00
             1204.87,1215.71 1215.12,1211.62 1222.00,1211.00
             1222.31,1214.86 1222.94,1227.45 1224.60,1229.96
             1226.05,1232.16 1230.79,1235.95 1233.00,1238.03
             1233.00,1238.03 1254.00,1256.93 1254.00,1256.93
             1261.93,1264.12 1265.98,1264.70 1266.00,1276.00
             1266.00,1276.00 1267.00,1340.00 1267.00,1340.00
             1267.00,1341.75 1267.14,1345.08 1266.43,1346.61
             1265.43,1348.77 1261.97,1350.42 1260.00,1351.75
             1260.00,1351.75 1253.00,1356.36 1253.00,1356.36
             1247.05,1359.60 1240.55,1361.47 1237.09,1368.00
             1233.36,1375.05 1239.21,1383.75 1242.24,1390.00
             1246.73,1399.25 1244.16,1400.63 1235.00,1399.21
             1231.74,1399.00 1229.26,1398.97 1226.00,1399.21
             1219.79,1399.07 1210.66,1400.66 1205.00,1403.18
             1201.70,1404.65 1197.92,1408.04 1194.34,1405.38
             1190.56,1402.58 1189.30,1393.50 1188.59,1389.00
             1188.59,1389.00 1184.28,1346.00 1184.28,1346.00
             1183.42,1338.99 1183.16,1328.74 1175.00,1325.68
             1172.67,1325.15 1170.37,1325.79 1168.00,1325.68
             1168.00,1325.68 1160.00,1325.68 1160.00,1325.68
             1160.00,1325.68 1153.00,1325.68 1153.00,1325.68
             1141.28,1325.08 1136.22,1335.31 1122.00,1334.99
             1116.42,1334.86 1110.81,1333.40 1106.00,1330.52
             1101.00,1327.53 1098.31,1323.93 1092.00,1323.34
             1085.27,1322.71 1079.75,1327.70 1074.00,1330.25
             1069.24,1332.36 1067.73,1331.64 1063.00,1331.37
             1047.35,1330.48 1040.44,1338.72 1032.55,1351.00
             1030.65,1353.95 1027.89,1360.57 1025.61,1362.40
             1023.24,1364.32 1019.88,1363.99 1017.00,1364.00
             1017.00,1364.00 1000.00,1364.00 1000.00,1364.00
             1000.00,1364.00 985.00,1363.00 985.00,1363.00
             985.00,1363.00 873.00,1363.00 873.00,1363.00
             871.47,1354.47 872.46,1355.54 871.83,1349.00
             871.83,1349.00 868.74,1330.00 868.74,1330.00
             867.91,1326.37 868.24,1322.30 865.57,1319.38
             858.31,1311.43 848.82,1315.67 840.21,1312.75
             835.64,1311.19 835.00,1303.87 829.96,1303.74
             825.36,1303.63 823.27,1310.05 817.00,1310.35
             803.98,1310.98 801.17,1302.35 791.00,1297.12
             785.94,1294.52 777.04,1291.72 774.00,1287.00 Z" />
  <path id="New Corella"
        fill="none" stroke="black" stroke-width="1"
        d="M 1322.00,1173.00
           C 1322.00,1173.00 1322.96,1163.00 1322.96,1163.00
             1322.96,1163.00 1322.96,1146.00 1322.96,1146.00
             1322.96,1146.00 1322.00,1129.00 1322.00,1129.00
             1321.97,1107.24 1320.65,1077.79 1325.38,1057.00
             1327.57,1047.42 1337.82,1035.85 1341.96,1027.00
             1346.38,1017.54 1348.98,999.52 1349.00,989.00
             1349.00,989.00 1349.00,940.00 1349.00,940.00
             1349.00,940.00 1350.96,919.00 1350.96,919.00
             1350.96,919.00 1350.96,910.00 1350.96,910.00
             1350.96,910.00 1354.49,892.00 1354.49,892.00
             1357.96,879.14 1370.36,857.87 1377.40,846.00
             1386.10,831.32 1395.56,814.36 1406.01,801.00
             1417.91,785.79 1420.24,784.32 1436.00,774.00
             1442.36,769.84 1452.28,764.93 1460.00,765.03
             1470.09,765.17 1471.90,774.37 1483.00,772.10
             1489.83,770.70 1495.06,767.10 1499.70,761.96
             1502.09,759.32 1504.70,754.36 1508.98,755.66
             1512.45,756.71 1517.02,763.93 1520.09,766.82
             1525.42,771.84 1531.84,774.54 1539.00,775.57
             1544.74,776.40 1551.14,775.59 1555.62,771.51
             1558.75,768.66 1560.46,762.65 1563.69,763.71
             1565.56,764.32 1566.38,767.38 1567.09,769.00
             1568.55,772.34 1570.30,775.72 1574.04,776.71
             1576.24,777.57 1578.83,777.17 1581.00,776.71
             1593.53,772.95 1593.15,758.15 1604.99,762.60
             1608.71,764.00 1620.03,778.17 1623.25,782.00
             1623.25,782.00 1660.25,826.00 1660.25,826.00
             1663.12,829.44 1674.38,841.84 1675.31,845.00
             1676.18,847.93 1673.39,860.21 1672.75,864.00
             1672.75,864.00 1664.41,911.00 1664.41,911.00
             1664.41,911.00 1645.39,1018.00 1645.39,1018.00
             1645.39,1018.00 1634.00,1083.00 1634.00,1083.00
             1634.00,1083.00 1603.00,1090.53 1603.00,1090.53
             1603.00,1090.53 1526.00,1109.42 1526.00,1109.42
             1526.00,1109.42 1489.00,1118.00 1489.00,1118.00
             1487.30,1122.38 1482.21,1123.01 1478.00,1124.28
             1478.00,1124.28 1449.00,1133.58 1449.00,1133.58
             1449.00,1133.58 1412.00,1145.66 1412.00,1145.66
             1412.00,1145.66 1366.00,1160.33 1366.00,1160.33
             1356.23,1163.59 1330.84,1172.80 1322.00,1173.00 Z" />
  <path id="Asuncion"
        fill="none" stroke="black" stroke-width="1"
        d="M 1631.00,450.00
           C 1631.00,450.00 1633.00,450.00 1633.00,450.00
             1633.00,450.00 1635.00,473.00 1635.00,473.00
             1635.07,487.38 1635.45,494.02 1642.87,507.00
             1642.87,507.00 1673.42,555.00 1673.42,555.00
             1679.87,566.27 1684.99,575.57 1683.91,589.00
             1683.14,598.53 1671.40,617.81 1667.69,628.00
             1663.07,640.69 1665.48,645.61 1665.96,658.00
             1666.51,672.18 1658.69,676.81 1648.00,683.69
             1639.79,688.98 1627.56,697.00 1621.09,704.00
             1612.58,713.22 1616.34,719.34 1610.58,727.00
             1607.16,731.55 1595.04,740.73 1595.23,746.00
             1595.35,749.22 1600.13,755.05 1602.00,758.00
             1590.94,759.84 1591.62,765.05 1588.44,768.61
             1586.10,771.24 1579.59,774.04 1576.04,773.76
             1568.85,773.20 1570.91,761.32 1563.96,760.17
             1559.18,759.38 1556.49,766.72 1553.47,769.30
             1549.94,772.32 1543.41,772.27 1539.00,771.83
             1531.74,771.10 1525.24,768.28 1520.17,762.96
             1517.40,760.05 1512.60,752.50 1508.58,752.07
             1503.86,751.57 1499.99,757.87 1497.34,760.91
             1493.70,765.08 1489.45,767.51 1484.00,768.53
             1472.30,770.73 1468.08,761.25 1459.00,761.27
             1451.72,761.29 1440.89,767.22 1435.00,771.28
             1418.07,782.96 1416.39,782.64 1403.37,800.00
             1390.31,817.42 1379.72,836.05 1369.14,855.00
             1362.11,867.60 1354.28,879.92 1350.49,894.00
             1350.49,894.00 1347.00,914.00 1347.00,914.00
             1347.00,914.00 1347.00,923.00 1347.00,923.00
             1347.00,923.00 1345.61,935.00 1345.61,935.00
             1345.61,935.00 1345.61,945.17 1345.61,945.17
             1345.61,945.17 1345.61,952.00 1345.61,952.00
             1345.61,952.00 1345.61,959.00 1345.61,959.00
             1345.61,959.00 1345.00,970.00 1345.00,970.00
             1345.00,970.00 1345.00,992.00 1345.00,992.00
             1344.98,1002.23 1342.88,1017.84 1338.34,1027.00
             1334.16,1035.44 1324.36,1048.76 1321.63,1058.00
             1321.63,1058.00 1319.58,1072.00 1319.58,1072.00
             1316.68,1092.49 1316.97,1090.41 1317.00,1111.00
             1317.00,1111.00 1318.00,1128.00 1318.00,1128.00
             1318.00,1128.00 1319.00,1145.00 1319.00,1145.00
             1319.00,1145.00 1319.00,1162.00 1319.00,1162.00
             1318.99,1165.37 1319.05,1173.60 1316.43,1175.91
             1316.43,1175.91 1297.00,1182.67 1297.00,1182.67
             1297.00,1182.67 1248.00,1198.34 1248.00,1198.34
             1243.66,1199.73 1228.76,1205.49 1225.21,1204.67
             1222.47,1204.03 1221.43,1201.23 1220.22,1199.00
             1220.22,1199.00 1211.85,1184.00 1211.85,1184.00
             1210.13,1180.98 1207.10,1176.24 1206.39,1173.00
             1205.59,1169.34 1206.59,1165.65 1206.93,1162.00
             1206.93,1162.00 1209.54,1136.00 1209.54,1136.00
             1209.54,1136.00 1202.37,1103.00 1202.37,1103.00
             1202.37,1103.00 1194.00,1067.00 1194.00,1067.00
             1192.47,1059.85 1190.32,1054.49 1191.29,1047.00
             1191.29,1047.00 1198.63,1016.00 1198.63,1016.00
             1198.63,1016.00 1210.37,968.00 1210.37,968.00
             1210.37,968.00 1216.31,952.00 1216.31,952.00
             1216.31,952.00 1216.31,944.00 1216.31,944.00
             1217.05,939.95 1218.18,938.61 1217.70,934.00
             1217.70,934.00 1208.20,886.00 1208.20,886.00
             1208.20,886.00 1193.58,817.00 1193.58,817.00
             1193.58,817.00 1183.63,780.00 1183.63,780.00
             1182.71,776.37 1179.63,767.31 1180.35,764.10
             1181.36,759.68 1189.21,757.33 1193.00,755.80
             1193.00,755.80 1222.00,743.99 1222.00,743.99
             1226.30,742.74 1230.80,741.38 1234.85,743.99
             1238.16,746.29 1237.93,749.48 1238.42,753.00
             1238.42,753.00 1239.00,778.00 1239.00,778.00
             1239.15,790.43 1241.78,806.45 1250.51,815.79
             1252.58,818.00 1254.43,818.93 1256.99,820.42
             1264.05,824.55 1268.29,823.63 1273.72,816.98
             1282.03,806.83 1267.41,799.57 1268.45,789.00
             1269.01,783.26 1274.99,780.31 1280.00,779.31
             1289.27,777.46 1306.19,776.28 1314.94,780.14
             1319.41,782.11 1319.31,785.70 1318.70,790.00
             1317.57,797.93 1313.55,804.76 1308.72,811.00
             1307.19,812.97 1304.83,815.49 1304.40,818.00
             1303.65,822.27 1307.65,825.40 1311.00,827.10
             1317.72,830.49 1330.48,833.91 1338.00,834.00
             1341.30,834.04 1346.98,834.22 1350.00,833.37
             1361.88,829.99 1368.95,818.50 1375.85,809.00
             1375.85,809.00 1416.13,745.00 1416.13,745.00
             1416.13,745.00 1434.42,712.00 1434.42,712.00
             1461.79,663.68 1503.49,593.98 1537.01,551.00
             1555.15,527.75 1575.16,505.84 1596.00,485.00
             1596.00,485.00 1631.00,450.00 1631.00,450.00 Z" />
  <path id="Carmen"
        fill="none" stroke="black" stroke-width="1"
        d="M 945.00,1397.00
           C 945.00,1397.00 944.05,1379.00 944.05,1379.00
             943.99,1376.85 943.19,1369.95 944.05,1368.60
             945.46,1366.62 949.86,1367.00 952.00,1367.00
             952.00,1367.00 1019.00,1367.00 1019.00,1367.00
             1021.38,1367.00 1024.71,1367.20 1026.79,1365.98
             1029.46,1364.40 1031.37,1359.75 1032.75,1357.00
             1035.00,1352.53 1040.72,1342.72 1044.51,1339.82
             1047.97,1337.18 1075.98,1334.74 1075.98,1334.74
             1080.44,1333.65 1080.45,1330.25 1085.05,1327.84
             1089.13,1325.71 1092.67,1326.80 1097.00,1327.00
             1097.00,1327.00 1112.14,1338.24 1123.00,1338.91
             1129.14,1339.28 1138.33,1337.02 1144.00,1334.64
             1147.49,1333.17 1151.33,1329.71 1155.00,1330.64
             1158.55,1331.54 1174.64,1329.56 1177.48,1331.16
             1180.38,1332.81 1180.83,1346.53 1181.09,1350.00
             1182.17,1364.78 1182.38,1380.65 1186.43,1395.00
             1187.68,1399.43 1190.42,1407.86 1195.04,1409.64
             1198.82,1411.10 1201.93,1407.64 1207.00,1405.71
             1215.50,1402.48 1221.17,1402.90 1230.00,1403.00
             1235.74,1403.07 1244.95,1405.15 1247.62,1397.98
             1250.34,1390.65 1235.69,1379.01 1240.01,1369.09
             1242.37,1363.66 1249.28,1362.16 1254.00,1359.48
             1254.00,1359.48 1261.00,1354.64 1261.00,1354.64
             1262.99,1353.24 1266.02,1350.81 1268.59,1352.13
             1270.36,1353.05 1271.50,1356.22 1272.18,1358.00
             1274.41,1363.80 1274.99,1369.84 1275.00,1376.00
             1275.02,1392.01 1275.10,1402.74 1268.57,1418.00
             1262.15,1433.00 1251.08,1446.03 1246.59,1462.00
             1246.59,1462.00 1244.73,1473.00 1244.73,1473.00
             1244.73,1473.00 1241.09,1511.00 1241.09,1511.00
             1240.41,1520.98 1239.94,1535.57 1237.06,1545.00
             1234.73,1552.65 1229.67,1552.62 1225.36,1560.00
             1220.99,1567.51 1221.00,1581.30 1221.00,1590.00
             1214.42,1588.21 1210.69,1583.69 1206.00,1579.00
             1206.00,1579.00 1188.00,1562.00 1188.00,1562.00
             1184.05,1558.41 1178.43,1553.63 1173.00,1552.77
             1168.24,1552.02 1162.76,1554.40 1159.79,1558.11
             1154.22,1565.05 1153.01,1577.29 1147.61,1582.61
             1143.26,1586.89 1131.96,1588.00 1126.00,1588.00
             1123.43,1588.00 1119.56,1588.19 1117.60,1586.26
             1115.95,1584.65 1116.04,1582.13 1116.00,1580.00
             1116.00,1580.00 1116.00,1558.00 1116.00,1558.00
             1116.00,1558.00 1102.00,1558.00 1102.00,1558.00
             1102.00,1558.00 1087.00,1557.00 1087.00,1557.00
             1087.00,1557.00 1063.00,1557.00 1063.00,1557.00
             1063.00,1557.00 1048.00,1556.00 1048.00,1556.00
             1048.00,1556.00 1021.00,1555.28 1021.00,1555.28
             1021.00,1555.28 1012.56,1553.98 1012.56,1553.98
             1012.56,1553.98 1009.37,1546.00 1009.37,1546.00
             1009.37,1546.00 1005.00,1525.00 1005.00,1525.00
             1005.00,1525.00 926.00,1525.00 926.00,1525.00
             926.00,1525.00 910.84,1526.00 910.84,1526.00
             910.84,1526.00 910.84,1499.00 910.84,1499.00
             910.84,1499.00 910.84,1472.00 910.84,1472.00
             910.84,1472.00 910.00,1455.00 910.00,1455.00
             910.00,1455.00 910.00,1405.00 910.00,1405.00
             910.00,1403.02 909.77,1399.18 911.02,1397.60
             913.07,1395.02 922.49,1396.98 926.00,1397.00
             926.00,1397.00 945.00,1397.00 945.00,1397.00 Z" />
  <path id="Panabo"
        fill="none" stroke="black" stroke-width="1"
        d="M 838.00,1317.00
           C 838.00,1317.00 844.00,1317.00 844.00,1317.00
             844.00,1317.00 844.00,1334.00 844.00,1334.00
             853.14,1334.00 857.58,1335.24 866.00,1331.00
             866.00,1331.00 869.00,1367.00 869.00,1367.00
             869.00,1367.00 922.00,1367.00 922.00,1367.00
             925.39,1367.00 937.00,1366.10 938.98,1368.60
             940.23,1370.19 940.00,1374.01 940.00,1376.00
             940.00,1376.00 940.00,1393.00 940.00,1393.00
             940.00,1393.00 906.00,1392.00 906.00,1392.00
             906.00,1392.00 906.00,1530.00 906.00,1530.00
             906.00,1530.00 928.00,1530.00 928.00,1530.00
             928.00,1530.00 945.00,1529.00 945.00,1529.00
             945.00,1529.00 1002.00,1529.00 1002.00,1529.00
             1002.00,1529.00 1006.87,1550.00 1006.87,1550.00
             1007.51,1552.52 1008.16,1556.44 1010.43,1557.98
             1012.75,1559.55 1021.84,1558.99 1025.00,1559.00
             1025.00,1559.00 1041.00,1560.00 1041.00,1560.00
             1041.00,1560.00 1082.00,1561.00 1082.00,1561.00
             1082.00,1561.00 1099.00,1562.00 1099.00,1562.00
             1109.32,1562.02 1113.47,1560.65 1112.83,1569.00
             1112.83,1569.00 1112.00,1589.00 1112.00,1589.00
             1112.00,1589.00 1123.00,1591.68 1123.00,1591.68
             1130.89,1592.99 1143.89,1590.44 1149.61,1584.62
             1159.67,1574.41 1157.03,1554.71 1172.00,1556.20
             1178.60,1556.85 1183.22,1561.49 1188.00,1565.58
             1188.00,1565.58 1216.00,1591.59 1216.00,1591.59
             1220.25,1595.24 1225.55,1601.77 1221.98,1607.74
             1220.87,1609.59 1217.93,1611.28 1216.17,1612.66
             1211.87,1616.04 1204.17,1622.08 1199.00,1623.50
             1194.08,1624.86 1187.04,1622.38 1180.17,1628.39
             1173.32,1634.39 1175.69,1639.57 1172.84,1645.00
             1170.32,1649.81 1164.04,1654.47 1160.13,1658.28
             1158.57,1659.80 1156.46,1662.75 1154.74,1663.65
             1151.31,1665.44 1146.42,1663.09 1143.00,1662.00
             1137.66,1660.31 1131.92,1660.06 1127.26,1663.77
             1125.51,1665.15 1124.24,1667.23 1122.76,1668.92
             1115.04,1677.74 1112.73,1680.64 1106.98,1691.00
             1106.98,1691.00 1090.83,1720.83 1090.83,1720.83
             1090.83,1720.83 1088.60,1727.04 1088.60,1727.04
             1088.60,1727.04 1081.00,1743.00 1081.00,1743.00
             1068.98,1739.01 1062.29,1726.76 1060.25,1715.00
             1059.01,1707.84 1058.69,1695.68 1049.00,1695.15
             1043.78,1694.87 1031.47,1702.35 1027.00,1705.33
             1027.00,1705.33 992.00,1729.72 992.00,1729.72
             992.00,1729.72 980.00,1738.19 980.00,1738.19
             973.15,1742.42 960.08,1743.79 955.67,1748.27
             950.50,1753.53 946.87,1764.09 943.99,1771.00
             942.57,1774.41 940.09,1780.11 936.82,1781.98
             933.98,1783.60 921.85,1783.04 918.00,1783.00
             918.00,1783.00 903.00,1782.00 903.00,1782.00
             903.00,1782.00 814.00,1782.00 814.00,1782.00
             814.00,1782.00 814.00,1702.00 814.00,1702.00
             814.00,1702.00 815.00,1687.00 815.00,1687.00
             815.00,1687.00 815.00,1434.00 815.00,1434.00
             815.00,1434.00 816.00,1417.00 816.00,1417.00
             816.00,1417.00 816.00,1370.00 816.00,1370.00
             816.00,1370.00 815.00,1340.00 815.00,1340.00
             820.82,1338.35 827.68,1339.92 832.86,1336.72
             837.85,1333.64 837.98,1322.36 838.00,1317.00 Z" />
  <path id="Samal"
        fill="none" stroke="black" stroke-width="1"
        d="M 1159.00,1872.48
           C 1175.83,1870.06 1178.65,1877.68 1186.20,1890.00
             1195.58,1905.30 1201.86,1926.18 1219.00,1934.37
             1229.36,1939.32 1245.22,1939.23 1257.00,1940.87
             1260.48,1941.35 1266.98,1942.08 1269.96,1943.57
             1273.47,1945.32 1278.62,1951.51 1281.41,1954.61
             1281.41,1954.61 1299.58,1973.96 1299.58,1973.96
             1299.58,1973.96 1321.70,1994.09 1321.70,1994.09
             1329.07,2002.09 1339.64,2018.38 1345.28,2028.00
             1352.52,2040.35 1357.17,2045.29 1357.00,2060.00
             1356.96,2062.80 1356.19,2072.59 1354.98,2074.72
             1353.09,2078.04 1349.80,2078.79 1346.18,2086.00
             1346.18,2086.00 1329.95,2124.00 1329.95,2124.00
             1326.82,2132.56 1324.01,2137.77 1323.86,2147.00
             1323.86,2147.00 1323.86,2168.00 1323.86,2168.00
             1323.86,2168.00 1319.28,2190.00 1319.28,2190.00
             1319.28,2190.00 1314.91,2241.00 1314.91,2241.00
             1314.91,2241.00 1313.01,2267.00 1313.01,2267.00
             1313.13,2271.86 1315.44,2279.93 1318.51,2283.72
             1322.67,2288.87 1330.49,2294.00 1331.78,2301.04
             1332.77,2306.45 1331.07,2312.50 1331.00,2318.00
             1331.00,2318.00 1334.49,2366.00 1334.49,2366.00
             1334.49,2366.00 1331.54,2395.00 1331.54,2395.00
             1331.75,2398.69 1335.83,2406.86 1337.10,2411.00
             1337.10,2411.00 1339.00,2431.00 1339.00,2431.00
             1339.00,2431.00 1339.00,2461.00 1339.00,2461.00
             1338.98,2465.60 1338.67,2470.87 1336.43,2475.00
             1334.34,2478.87 1332.05,2480.17 1329.32,2483.17
             1329.32,2483.17 1323.82,2490.00 1323.82,2490.00
             1317.94,2496.68 1311.86,2500.64 1307.89,2509.00
             1300.57,2524.41 1303.82,2541.70 1293.79,2551.81
             1285.98,2559.69 1279.37,2554.78 1272.56,2549.03
             1256.67,2535.60 1255.26,2528.60 1255.00,2509.00
             1254.84,2497.44 1247.11,2485.38 1241.01,2476.00
             1241.01,2476.00 1229.46,2459.99 1229.46,2459.99
             1229.46,2459.99 1210.14,2433.00 1210.14,2433.00
             1198.53,2416.80 1191.77,2411.02 1192.00,2390.00
             1192.00,2390.00 1193.58,2374.09 1193.58,2374.09
             1193.58,2374.09 1198.53,2365.99 1198.53,2365.99
             1200.97,2361.00 1200.99,2357.36 1201.00,2352.00
             1201.02,2336.12 1200.62,2311.27 1197.92,2296.00
             1196.08,2285.61 1192.47,2283.91 1190.42,2269.00
             1190.42,2269.00 1186.83,2226.00 1186.83,2226.00
             1186.83,2226.00 1183.60,2208.00 1183.60,2208.00
             1180.33,2191.65 1178.10,2182.96 1170.26,2168.00
             1168.52,2164.67 1167.40,2161.94 1164.79,2159.09
             1162.24,2156.30 1158.15,2153.51 1155.00,2151.34
             1150.31,2148.10 1147.81,2146.07 1142.00,2145.01
             1128.76,2142.58 1119.69,2156.00 1111.42,2164.12
             1108.07,2167.41 1103.88,2171.42 1099.00,2171.89
             1089.33,2172.82 1084.56,2163.01 1080.01,2156.00
             1074.06,2146.82 1064.51,2124.56 1061.76,2114.00
             1061.76,2114.00 1060.20,2105.00 1060.20,2105.00
             1060.20,2105.00 1057.46,2090.00 1057.46,2090.00
             1057.60,2077.86 1061.42,2072.90 1067.40,2063.00
             1067.40,2063.00 1099.44,2017.43 1099.44,2017.43
             1106.41,2005.26 1105.52,2000.25 1108.59,1988.00
             1108.59,1988.00 1122.58,1922.00 1122.58,1922.00
             1126.66,1899.41 1134.32,1878.85 1159.00,1872.48 Z
           M 1110.00,2402.63
           C 1115.37,2401.82 1115.06,2402.34 1120.00,2402.63
             1133.24,2404.16 1147.56,2407.03 1156.47,2418.04
             1156.47,2418.04 1173.59,2451.00 1173.59,2451.00
             1178.04,2458.59 1183.43,2460.68 1187.27,2467.00
             1189.49,2470.66 1191.14,2487.30 1190.96,2492.00
             1190.49,2504.10 1187.72,2515.00 1182.86,2526.00
             1181.32,2529.48 1178.96,2535.98 1175.67,2537.98
             1173.32,2539.41 1162.18,2540.00 1159.00,2540.00
             1159.00,2540.00 1139.00,2540.00 1139.00,2540.00
             1130.88,2539.90 1112.39,2534.28 1108.28,2526.96
             1105.29,2521.64 1105.07,2511.10 1105.00,2505.00
             1104.76,2485.22 1084.00,2467.42 1075.75,2448.72
             1073.63,2443.91 1071.49,2441.71 1071.10,2436.00
             1070.49,2427.33 1075.23,2423.98 1080.31,2417.87
             1083.86,2413.60 1086.23,2411.60 1091.00,2408.66
             1098.93,2403.77 1101.28,2403.69 1110.00,2402.63 Z" />
  <path id="Tagum"
        fill="none" stroke="black" stroke-width="1"
        d="M 1228.00,1600.00
           C 1225.98,1596.87 1226.05,1595.67 1226.00,1592.00
             1225.91,1584.91 1225.13,1566.65 1228.16,1561.01
             1231.09,1555.57 1236.46,1554.92 1240.07,1546.00
             1243.67,1537.11 1244.89,1517.87 1245.00,1508.00
             1245.11,1498.57 1248.06,1467.13 1250.96,1459.00
             1250.96,1459.00 1270.68,1421.00 1270.68,1421.00
             1275.18,1411.52 1277.56,1401.29 1279.39,1391.00
             1280.83,1382.86 1279.31,1369.91 1276.96,1362.00
             1273.94,1351.82 1271.02,1351.56 1271.00,1340.00
             1271.00,1340.00 1271.00,1278.00 1271.00,1278.00
             1270.98,1266.09 1266.72,1264.30 1258.00,1256.72
             1258.00,1256.72 1237.00,1238.08 1237.00,1238.08
             1234.11,1235.42 1229.84,1232.37 1227.98,1229.00
             1226.30,1225.94 1226.04,1221.44 1226.00,1218.00
             1225.97,1215.39 1225.51,1210.97 1227.57,1209.08
             1229.25,1207.55 1241.99,1203.65 1245.00,1202.67
             1245.00,1202.67 1287.00,1189.28 1287.00,1189.28
             1287.00,1189.28 1320.00,1178.34 1320.00,1178.34
             1320.00,1178.34 1436.00,1140.98 1436.00,1140.98
             1436.00,1140.98 1489.00,1124.00 1489.00,1124.00
             1494.66,1140.98 1492.54,1136.93 1503.42,1152.00
             1508.18,1158.59 1514.60,1165.30 1513.89,1174.00
             1513.60,1177.57 1507.17,1193.33 1505.42,1198.00
             1500.26,1211.80 1491.65,1238.58 1481.67,1248.86
             1476.76,1253.91 1471.31,1251.41 1464.04,1257.39
             1459.74,1260.92 1455.75,1268.27 1451.70,1273.00
             1442.72,1283.49 1431.21,1292.93 1427.61,1307.00
             1426.75,1310.33 1426.96,1317.31 1427.00,1321.00
             1427.00,1321.00 1430.04,1348.28 1430.04,1348.28
             1430.85,1350.85 1432.61,1353.88 1434.38,1355.90
             1439.61,1361.84 1447.65,1362.82 1450.16,1368.10
             1452.97,1374.02 1453.08,1392.91 1453.00,1400.00
             1452.94,1405.10 1451.98,1414.58 1449.59,1419.00
             1444.92,1427.61 1437.19,1429.35 1437.00,1445.00
             1437.00,1445.00 1438.00,1466.00 1438.00,1466.00
             1438.00,1466.00 1439.00,1492.00 1439.00,1492.00
             1433.01,1490.06 1413.83,1485.86 1408.00,1486.55
             1408.00,1486.55 1395.28,1489.92 1395.28,1489.92
             1395.28,1489.92 1389.96,1493.39 1389.96,1493.39
             1377.76,1501.18 1367.65,1509.38 1357.01,1519.17
             1351.16,1524.56 1351.82,1525.97 1344.00,1530.43
             1344.00,1530.43 1295.83,1550.54 1295.83,1550.54
             1295.83,1550.54 1268.00,1565.58 1268.00,1565.58
             1258.07,1571.34 1248.90,1576.09 1240.58,1584.26
             1236.55,1588.21 1231.46,1595.29 1228.00,1600.00 Z" />
  <path id="Santo Tomas"
        fill="none" stroke="black" stroke-width="1"
        d="M 689.00,1043.00
           C 689.00,1043.00 715.00,1043.00 715.00,1043.00
             715.00,1043.00 732.00,1044.00 732.00,1044.00
             732.00,1044.00 763.00,1044.00 763.00,1044.00
             763.00,1044.00 780.00,1045.00 780.00,1045.00
             780.00,1045.00 811.00,1045.00 811.00,1045.00
             811.00,1045.00 843.00,1046.00 843.00,1046.00
             843.00,1046.00 876.00,1046.00 876.00,1046.00
             876.00,1046.00 891.00,1047.00 891.00,1047.00
             891.00,1047.00 922.00,1047.00 922.00,1047.00
             922.00,1047.00 939.00,1048.02 939.00,1048.02
             939.00,1048.02 988.00,1048.02 988.00,1048.02
             988.00,1048.02 1001.00,1049.00 1001.00,1049.00
             1001.00,1049.00 1032.00,1049.00 1032.00,1049.00
             1032.00,1049.00 1049.00,1050.00 1049.00,1050.00
             1049.00,1050.00 1080.00,1050.00 1080.00,1050.00
             1080.00,1050.00 1097.00,1051.00 1097.00,1051.00
             1097.00,1051.00 1143.00,1051.00 1143.00,1051.00
             1143.00,1051.00 1158.00,1052.00 1158.00,1052.00
             1158.00,1052.00 1179.00,1052.00 1179.00,1052.00
             1180.97,1052.00 1184.69,1051.74 1186.27,1052.99
             1187.90,1054.29 1188.42,1058.01 1188.88,1060.00
             1188.88,1060.00 1193.21,1079.00 1193.21,1079.00
             1193.21,1079.00 1202.40,1120.00 1202.40,1120.00
             1202.40,1120.00 1205.53,1135.00 1205.53,1135.00
             1205.53,1135.00 1202.93,1162.00 1202.93,1162.00
             1202.93,1162.00 1202.93,1173.00 1202.93,1173.00
             1203.48,1176.24 1212.36,1191.09 1214.58,1195.00
             1216.14,1197.77 1220.81,1204.38 1218.35,1207.30
             1216.86,1209.06 1212.24,1210.04 1210.00,1210.72
             1210.00,1210.72 1190.00,1217.33 1190.00,1217.33
             1190.00,1217.33 1114.00,1241.72 1114.00,1241.72
             1114.00,1241.72 1090.00,1249.66 1090.00,1249.66
             1090.00,1249.66 1029.00,1269.33 1029.00,1269.33
             1029.00,1269.33 991.00,1281.48 991.00,1281.48
             988.23,1282.07 985.80,1282.00 983.00,1282.00
             983.00,1282.00 796.00,1282.00 796.00,1282.00
             796.00,1282.00 781.00,1283.00 781.00,1283.00
             777.51,1283.04 768.88,1283.48 766.09,1281.98
             763.38,1280.52 760.79,1276.51 759.00,1274.00
             759.00,1274.00 746.58,1255.00 746.58,1255.00
             736.20,1236.91 735.29,1227.09 733.91,1207.00
             733.91,1207.00 732.09,1187.00 732.09,1187.00
             731.03,1171.51 731.61,1158.24 726.64,1143.00
             722.08,1129.02 717.75,1120.97 707.83,1110.00
             707.83,1110.00 699.00,1101.17 699.00,1101.17
             691.69,1094.54 690.05,1094.25 690.00,1084.00
             690.00,1084.00 689.00,1043.00 689.00,1043.00 Z" />
  <path id="San Isidro"
        fill="none" stroke="black" stroke-width="1"
        d="M 993.00,269.00
           C 993.00,269.00 1074.00,259.98 1074.00,259.98
             1074.00,259.98 1093.00,257.72 1093.00,257.72
             1095.33,257.43 1098.24,256.61 1100.07,258.60
             1102.05,260.77 1103.05,271.62 1103.59,275.00
             1103.59,275.00 1110.59,320.00 1110.59,320.00
             1110.59,320.00 1118.42,371.00 1118.42,371.00
             1118.42,371.00 1137.58,493.00 1137.58,493.00
             1137.58,493.00 1143.59,532.00 1143.59,532.00
             1145.50,543.41 1144.35,545.84 1153.00,546.00
             1157.01,546.07 1163.43,545.40 1166.73,547.85
             1169.99,550.29 1170.39,555.53 1172.27,559.00
             1175.60,565.09 1179.76,565.63 1186.00,565.75
             1193.49,565.89 1194.73,569.38 1195.92,576.00
             1197.21,583.22 1198.97,598.18 1201.47,604.00
             1204.06,610.05 1216.33,625.11 1221.00,631.00
             1224.43,635.33 1230.14,643.60 1236.00,644.29
             1242.31,645.04 1246.43,635.48 1252.61,641.31
             1258.12,646.51 1263.62,666.09 1266.51,669.98
             1272.74,678.40 1280.11,674.57 1284.30,679.31
             1288.94,684.56 1289.84,703.18 1293.75,712.00
             1298.24,722.15 1311.27,732.26 1315.15,740.00
             1319.55,748.76 1319.00,767.07 1319.00,777.00
             1314.37,776.58 1314.13,776.13 1310.00,775.34
             1298.74,772.97 1294.03,773.30 1283.00,775.34
             1277.64,776.40 1273.46,777.27 1269.38,781.38
             1258.67,792.15 1271.31,800.75 1272.65,809.00
             1273.60,814.88 1269.04,820.39 1263.00,819.67
             1255.58,818.80 1249.64,811.59 1247.23,805.00
             1242.76,792.74 1243.15,778.93 1243.00,766.00
             1242.92,759.05 1242.28,746.20 1236.67,741.71
             1231.20,737.04 1222.85,739.49 1217.00,741.71
             1206.97,745.92 1186.70,756.76 1177.00,757.00
             1177.00,757.00 1171.83,703.00 1171.83,703.00
             1171.83,703.00 1168.00,660.00 1168.00,660.00
             1168.00,660.00 1122.00,656.58 1122.00,656.58
             1117.41,655.97 1109.70,657.03 1107.17,652.85
             1105.41,649.94 1104.25,638.80 1103.84,635.00
             1103.84,635.00 1101.04,615.00 1101.04,615.00
             1100.84,610.71 1100.86,600.77 1097.49,597.85
             1095.72,596.31 1091.34,595.46 1089.00,594.87
             1089.00,594.87 1071.00,590.58 1071.00,590.58
             1071.00,590.58 1010.00,576.00 1010.00,576.00
             1010.00,576.00 1010.00,556.00 1010.00,556.00
             1010.00,556.00 1011.00,540.00 1011.00,540.00
             1011.00,540.00 1011.00,519.00 1011.00,519.00
             1011.00,519.00 1012.42,499.00 1012.42,499.00
             1012.90,497.03 1013.66,495.71 1014.71,494.00
             1014.71,494.00 1031.58,470.00 1031.58,470.00
             1031.58,470.00 1068.28,418.00 1068.28,418.00
             1068.28,418.00 1082.42,398.00 1082.42,398.00
             1083.86,395.98 1087.53,391.43 1087.56,389.04
             1087.60,386.10 1082.14,382.01 1080.00,380.07
             1080.00,380.07 1054.00,357.05 1054.00,357.05
             1054.00,357.05 1020.39,326.99 1020.39,326.99
             1020.39,326.99 1003.75,295.00 1003.75,295.00
             999.99,287.47 993.46,277.25 993.00,269.00 Z" />
  <path id="Kapalong"
        fill="none" stroke="black" stroke-width="1"
        d="M 401.00,83.00
           C 401.00,83.00 416.00,82.00 416.00,82.00
             416.00,82.00 428.00,81.04 428.00,81.04
             428.00,81.04 442.00,81.04 442.00,81.04
             442.00,81.04 459.00,80.00 459.00,80.00
             459.00,80.00 479.00,79.00 479.00,79.00
             479.00,79.00 499.00,78.00 499.00,78.00
             499.00,78.00 530.00,77.00 530.00,77.00
             530.00,77.00 540.00,76.04 540.00,76.04
             540.00,76.04 550.00,76.04 550.00,76.04
             550.00,76.04 565.00,74.96 565.00,74.96
             565.00,74.96 579.00,74.96 579.00,74.96
             579.00,74.96 591.00,74.00 591.00,74.00
             591.00,74.00 611.00,73.00 611.00,73.00
             611.00,73.00 629.00,72.00 629.00,72.00
             629.00,72.00 642.00,72.00 642.00,72.00
             642.00,72.00 657.00,71.00 657.00,71.00
             657.00,71.00 677.00,70.00 677.00,70.00
             677.00,70.00 695.00,69.00 695.00,69.00
             695.00,69.00 708.00,69.00 708.00,69.00
             708.00,69.00 721.00,68.00 721.00,68.00
             721.00,68.00 748.00,67.00 748.00,67.00
             748.00,67.00 763.00,66.00 763.00,66.00
             763.00,66.00 838.00,63.00 838.00,63.00
             838.00,63.00 860.00,62.00 860.00,62.00
             860.00,62.00 870.00,61.04 870.00,61.04
             870.00,61.04 880.00,61.04 880.00,61.04
             880.00,61.04 895.00,59.96 895.00,59.96
             895.00,59.96 909.00,59.96 909.00,59.96
             909.00,59.96 921.00,59.00 921.00,59.00
             921.00,59.00 941.00,58.00 941.00,58.00
             941.00,58.00 959.00,57.00 959.00,57.00
             959.00,57.00 972.00,57.00 972.00,57.00
             972.00,57.00 986.00,56.00 986.00,56.00
             986.00,56.00 1011.00,55.00 1011.00,55.00
             1011.00,55.00 1027.00,54.00 1027.00,54.00
             1027.00,54.00 1069.00,52.00 1069.00,52.00
             1069.00,52.00 1075.58,95.00 1075.58,95.00
             1075.58,95.00 1090.42,191.00 1090.42,191.00
             1090.42,191.00 1097.27,235.00 1097.27,235.00
             1097.27,235.00 1100.00,253.00 1100.00,253.00
             1100.00,253.00 1075.00,255.84 1075.00,255.84
             1075.00,255.84 1011.00,263.16 1011.00,263.16
             1011.00,263.16 986.00,266.00 986.00,266.00
             986.00,266.00 1007.75,310.00 1007.75,310.00
             1007.75,310.00 1016.63,326.91 1016.63,326.91
             1016.63,326.91 1039.00,347.72 1039.00,347.72
             1039.00,347.72 1071.00,376.28 1071.00,376.28
             1073.99,378.91 1082.09,385.23 1082.55,389.00
             1082.96,392.34 1079.70,396.41 1077.86,399.00
             1077.86,399.00 1063.86,419.00 1063.86,419.00
             1063.86,419.00 1024.66,475.00 1024.66,475.00
             1024.66,475.00 1009.99,496.00 1009.99,496.00
             1007.74,499.85 1007.06,511.22 1007.00,516.00
             1007.00,516.00 1007.00,549.00 1007.00,549.00
             1007.00,549.00 1006.00,564.00 1006.00,564.00
             1006.00,564.00 1006.00,579.00 1006.00,579.00
             1006.00,579.00 1031.00,584.58 1031.00,584.58
             1031.00,584.58 1075.00,594.88 1075.00,594.88
             1075.00,594.88 1096.00,600.00 1096.00,600.00
             1096.00,600.00 1098.00,614.00 1098.00,614.00
             1098.00,614.00 1104.00,648.00 1104.00,648.00
             1104.00,648.00 1105.00,659.00 1105.00,659.00
             1105.00,659.00 1149.00,662.58 1149.00,662.58
             1152.59,663.05 1160.77,662.62 1163.26,664.90
             1165.56,667.02 1165.84,680.30 1166.28,684.00
             1166.28,684.00 1171.28,738.00 1171.28,738.00
             1171.28,738.00 1173.31,755.00 1173.31,755.00
             1173.31,755.00 1190.12,817.00 1190.12,817.00
             1190.12,817.00 1201.00,869.00 1201.00,869.00
             1201.00,869.00 1208.00,904.00 1208.00,904.00
             1208.00,904.00 1212.00,925.00 1212.00,925.00
             1216.41,926.77 1211.50,962.40 1208.00,961.00
             1208.00,961.00 1192.63,1026.00 1192.63,1026.00
             1192.63,1026.00 1188.87,1042.00 1188.87,1042.00
             1188.87,1042.00 1186.28,1048.00 1186.28,1048.00
             1186.28,1048.00 1173.00,1048.00 1173.00,1048.00
             1173.00,1048.00 1142.00,1048.00 1142.00,1048.00
             1142.00,1048.00 1125.00,1047.00 1125.00,1047.00
             1125.00,1047.00 1079.00,1047.00 1079.00,1047.00
             1079.00,1047.00 1062.00,1046.00 1062.00,1046.00
             1062.00,1046.00 1031.00,1046.00 1031.00,1046.00
             1031.00,1046.00 1014.00,1045.00 1014.00,1045.00
             1014.00,1045.00 933.00,1044.00 933.00,1044.00
             933.00,1044.00 933.00,1006.00 933.00,1006.00
             933.00,1006.00 932.00,989.00 932.00,989.00
             932.00,989.00 932.00,889.00 932.00,889.00
             931.98,877.39 926.68,865.15 923.42,854.00
             923.42,854.00 903.58,788.00 903.58,788.00
             897.84,768.41 894.76,766.26 895.00,745.00
             895.00,745.00 895.83,736.00 895.83,736.00
             895.83,736.00 895.83,707.00 895.83,707.00
             895.83,707.00 897.00,690.00 897.00,690.00
             897.00,690.00 898.00,647.00 898.00,647.00
             898.00,647.00 899.00,621.00 899.00,621.00
             899.00,621.00 901.00,547.00 901.00,547.00
             901.00,547.00 902.00,532.00 902.00,532.00
             902.00,532.00 902.00,522.00 902.00,522.00
             902.00,522.00 886.00,523.00 886.00,523.00
             886.00,523.00 869.00,524.00 869.00,524.00
             869.00,524.00 840.00,525.00 840.00,525.00
             840.00,525.00 824.00,526.00 824.00,526.00
             824.00,526.00 803.00,527.00 803.00,527.00
             803.00,527.00 785.00,528.00 785.00,528.00
             785.00,528.00 774.00,528.00 774.00,528.00
             774.00,528.00 761.00,529.00 761.00,529.00
             761.00,529.00 735.00,530.00 735.00,530.00
             735.00,530.00 720.00,531.00 720.00,531.00
             720.00,531.00 648.00,534.00 648.00,534.00
             648.00,534.00 627.00,535.00 627.00,535.00
             627.00,535.00 614.00,536.00 614.00,536.00
             614.00,536.00 585.00,537.00 585.00,537.00
             585.00,537.00 564.00,538.00 564.00,538.00
             564.00,538.00 543.00,538.99 543.00,538.99
             539.74,539.04 532.79,540.52 530.42,538.99
             527.97,537.39 525.21,528.10 524.05,525.00
             524.05,525.00 509.49,490.00 509.49,490.00
             503.56,479.34 492.12,472.60 488.60,462.00
             483.73,447.36 483.82,421.68 484.00,406.00
             484.00,406.00 493.28,320.00 493.28,320.00
             493.28,320.00 497.00,286.00 497.00,286.00
             497.22,267.28 498.66,270.00 496.28,250.00
             495.47,243.12 496.38,239.66 492.39,233.00
             485.00,220.65 461.88,204.84 456.61,196.00
             453.86,191.39 452.74,180.57 452.32,175.00
             452.32,175.00 453.04,163.00 453.04,163.00
             453.06,149.82 454.40,147.35 453.04,133.00
             452.44,126.19 452.34,120.83 448.10,115.09
             439.06,102.87 410.33,94.19 401.00,83.00 Z" />
  <path id="Talaingod"
        fill="none" stroke="black" stroke-width="1"
        d="M 532.00,544.00
           C 532.00,544.00 547.00,543.00 547.00,543.00
             547.00,543.00 564.00,542.00 564.00,542.00
             564.00,542.00 594.00,541.00 594.00,541.00
             594.00,541.00 604.00,540.04 604.00,540.04
             604.00,540.04 613.00,540.04 613.00,540.04
             613.00,540.04 632.00,539.00 632.00,539.00
             632.00,539.00 642.00,538.11 642.00,538.11
             642.00,538.11 655.00,538.11 655.00,538.11
             655.00,538.11 675.00,537.00 675.00,537.00
             675.00,537.00 690.00,536.00 690.00,536.00
             690.00,536.00 711.00,535.00 711.00,535.00
             711.00,535.00 758.00,533.00 758.00,533.00
             758.00,533.00 771.00,532.00 771.00,532.00
             771.00,532.00 797.00,531.00 797.00,531.00
             797.00,531.00 813.00,530.00 813.00,530.00
             813.00,530.00 841.00,529.00 841.00,529.00
             841.00,529.00 857.00,528.00 857.00,528.00
             857.00,528.00 897.00,526.00 897.00,526.00
             897.00,526.00 897.00,556.00 897.00,556.00
             897.00,556.00 896.00,572.00 896.00,572.00
             896.00,572.00 895.00,617.00 895.00,617.00
             895.00,617.00 894.00,634.00 894.00,634.00
             894.00,634.00 894.00,656.00 894.00,656.00
             894.00,656.00 893.00,673.00 893.00,673.00
             893.00,673.00 892.00,717.00 892.00,717.00
             892.00,717.00 891.00,732.00 891.00,732.00
             891.00,732.00 891.00,751.00 891.00,751.00
             891.02,762.66 897.93,781.34 901.66,793.00
             901.66,793.00 919.72,853.00 919.72,853.00
             922.96,863.81 927.98,875.73 928.00,887.00
             928.00,887.00 928.00,970.00 928.00,970.00
             928.00,970.00 929.00,987.00 929.00,987.00
             929.00,987.00 929.00,1035.00 929.00,1035.00
             928.98,1044.19 928.30,1044.04 919.00,1044.00
             919.00,1044.00 903.00,1043.00 903.00,1043.00
             903.00,1043.00 870.00,1043.00 870.00,1043.00
             870.00,1043.00 856.00,1042.00 856.00,1042.00
             856.00,1042.00 825.00,1042.00 825.00,1042.00
             825.00,1042.00 808.00,1041.00 808.00,1041.00
             808.00,1041.00 762.00,1041.00 762.00,1041.00
             762.00,1041.00 746.00,1040.00 746.00,1040.00
             746.00,1040.00 714.00,1040.00 714.00,1040.00
             714.00,1040.00 699.00,1039.00 699.00,1039.00
             699.00,1039.00 680.00,1038.00 680.00,1038.00
             680.00,1038.00 577.00,1038.00 577.00,1038.00
             577.00,1038.00 562.00,1037.00 562.00,1037.00
             562.00,1037.00 275.00,1037.00 275.00,1037.00
             275.00,1037.00 153.00,1037.00 153.00,1037.00
             153.00,1037.00 129.00,1037.00 129.00,1037.00
             126.47,1037.00 120.62,1037.42 118.65,1036.01
             115.12,1033.48 114.05,1024.09 114.00,1020.00
             114.00,1020.00 114.00,1008.00 114.00,1008.00
             114.05,1004.27 114.21,1001.48 115.75,998.00
             117.65,993.72 121.06,990.15 120.70,985.00
             120.21,978.06 112.31,972.21 113.84,967.17
             114.93,963.60 121.90,959.39 124.61,956.54
             129.41,951.49 129.39,946.53 128.86,940.04
             128.86,940.04 115.73,883.00 115.73,883.00
             114.62,875.28 112.60,865.76 118.79,859.43
             123.30,854.82 130.20,858.58 135.00,860.77
             142.95,864.39 160.53,870.99 169.00,868.04
             178.81,864.62 180.05,857.93 186.17,852.48
             191.47,847.76 196.18,846.86 203.00,847.01
             209.69,847.17 221.98,849.31 225.07,856.04
             226.31,858.76 225.98,862.99 226.00,866.00
             226.09,879.06 234.87,879.09 245.00,882.34
             259.26,886.92 258.86,889.97 276.00,890.00
             276.00,890.00 319.00,888.48 319.00,888.48
             319.00,888.48 329.00,885.05 329.00,885.05
             343.24,879.84 355.59,874.64 371.00,874.04
             375.65,873.86 378.51,874.51 383.00,875.25
             403.24,878.55 411.47,885.60 429.00,894.24
             440.19,899.76 451.74,905.78 464.00,899.95
             469.31,897.43 481.23,887.09 486.00,882.84
             495.03,874.77 506.83,867.86 512.51,857.00
             514.75,852.72 514.98,849.64 515.75,845.00
             515.75,845.00 517.40,834.00 517.40,834.00
             517.99,821.90 513.60,800.44 511.87,788.00
             511.13,782.64 509.45,773.03 510.33,768.00
             511.27,762.59 516.37,753.96 519.14,749.00
             519.14,749.00 533.40,724.00 533.40,724.00
             537.27,717.55 543.00,708.22 544.76,701.00
             549.62,681.05 541.18,676.10 541.00,659.00
             541.00,659.00 549.91,602.00 549.91,602.00
             550.93,583.97 534.53,560.17 532.00,544.00 Z" />
</svg>
