<?xml version="1.0" encoding="UTF-8" standalone="no"?>
<!DOCTYPE svg PUBLIC "-//W3C//DTD SVG 20010904//EN"
              "http://www.w3.org/TR/2001/REC-SVG-20010904/DTD/svg10.dtd">

<svg xmlns="http://www.w3.org/2000/svg"
     width="632.372mm" height="812.742mm"
     viewBox="0 0 1469 1888">
  <path id="Nueva Valencia"
        fill="none" stroke="black" stroke-width="1"
        d="M 561.00,1118.00
           C 561.00,1118.00 594.00,1112.74 594.00,1112.74
             597.53,1112.06 604.19,1110.27 605.89,1106.79
             607.32,1103.84 605.03,1100.31 603.29,1098.01
             598.41,1091.55 587.44,1085.33 585.69,1082.68
             583.58,1079.47 585.36,1072.41 594.00,1073.18
             594.00,1073.18 611.00,1077.00 611.00,1077.00
             609.46,1086.48 615.94,1102.99 615.82,1111.00
             615.61,1124.82 593.17,1134.27 607.10,1148.96
             608.82,1150.77 610.86,1152.50 613.00,1153.78
             626.59,1161.85 648.27,1151.85 661.96,1157.99
             665.51,1159.58 669.17,1164.04 671.72,1167.00
             680.95,1177.75 696.00,1200.23 702.02,1213.00
             706.51,1222.53 702.11,1232.21 713.00,1238.47
             715.07,1239.66 717.59,1240.63 720.00,1240.63
             724.56,1240.64 736.79,1234.00 748.00,1233.18
             754.68,1232.70 769.86,1237.15 774.82,1241.41
             774.82,1241.41 784.09,1252.96 784.09,1252.96
             789.76,1258.83 798.36,1262.75 801.58,1266.32
             804.20,1269.22 805.73,1275.20 807.00,1279.00
             810.82,1290.47 814.22,1297.60 814.00,1310.00
             813.96,1311.78 814.00,1314.15 812.98,1315.69
             811.17,1318.40 806.88,1318.05 804.00,1317.99
             797.53,1317.84 787.08,1314.24 784.57,1323.02
             783.46,1326.90 785.16,1333.18 786.35,1337.00
             788.66,1344.40 792.79,1354.66 793.71,1362.00
             794.81,1370.70 788.41,1387.38 787.00,1398.00
             787.00,1398.00 744.00,1414.10 744.00,1414.10
             744.00,1414.10 701.00,1415.00 701.00,1415.00
             702.85,1407.20 706.57,1404.33 706.41,1401.00
             706.17,1395.99 698.55,1393.29 700.91,1387.11
             702.68,1382.45 707.94,1383.01 712.00,1383.00
             712.00,1383.00 741.00,1384.99 741.00,1384.99
             751.55,1385.22 755.87,1381.29 748.38,1372.00
             741.54,1363.51 738.02,1361.76 730.00,1355.49
             727.12,1353.24 724.56,1350.45 721.00,1349.30
             714.17,1347.09 706.10,1349.64 700.00,1352.52
             690.50,1357.00 680.89,1362.00 672.00,1367.62
             659.38,1375.60 667.35,1389.06 662.01,1400.00
             662.01,1400.00 648.00,1421.00 648.00,1421.00
             648.00,1421.00 620.00,1461.00 620.00,1461.00
             618.27,1463.16 614.05,1467.91 613.02,1470.00
             611.19,1473.69 612.90,1475.80 608.85,1479.21
             605.14,1482.34 593.76,1487.14 589.28,1484.22
             584.29,1480.97 580.11,1470.46 573.00,1472.90
             569.28,1474.17 565.46,1479.00 562.00,1481.30
             558.28,1483.77 545.48,1487.79 541.00,1487.51
             539.03,1487.38 534.01,1485.92 532.00,1485.25
             529.23,1484.33 526.56,1483.10 524.00,1481.69
             521.67,1480.40 519.05,1478.77 517.23,1476.82
             508.26,1467.22 524.77,1454.68 518.07,1444.11
             513.51,1436.93 504.96,1442.56 502.60,1437.69
             497.74,1427.65 515.71,1420.98 512.50,1413.11
             510.37,1407.87 505.85,1410.48 502.00,1410.34
             498.55,1410.22 494.92,1407.99 493.32,1404.91
             490.95,1400.35 494.55,1389.87 492.62,1383.00
             490.51,1375.49 484.00,1373.64 484.14,1366.00
             484.23,1360.78 489.00,1351.37 488.73,1349.58
             487.95,1344.28 479.03,1342.00 478.40,1334.00
             477.43,1321.85 496.14,1316.79 494.46,1307.02
             493.82,1303.26 490.16,1301.28 487.00,1299.88
             480.30,1296.91 472.31,1295.04 465.00,1295.00
             465.00,1295.00 432.00,1296.00 432.00,1296.00
             424.77,1295.99 420.00,1294.92 413.00,1294.00
             413.00,1294.00 413.00,1243.00 413.00,1243.00
             413.12,1233.40 414.17,1224.30 422.09,1217.90
             430.47,1211.13 451.08,1206.47 462.00,1203.63
             468.68,1201.89 472.86,1200.59 479.00,1197.21
             482.72,1195.16 485.87,1192.17 490.00,1190.94
             490.00,1190.94 519.00,1187.25 519.00,1187.25
             529.65,1184.27 530.27,1181.47 536.14,1173.00
             537.78,1170.63 540.66,1167.14 539.64,1164.05
             538.04,1159.22 529.91,1158.74 526.70,1155.35
             523.33,1151.80 523.80,1143.73 520.15,1139.23
             516.39,1134.59 511.97,1136.57 507.00,1136.96
             507.00,1136.96 500.00,1136.96 500.00,1136.96
             497.62,1121.81 510.63,1121.87 522.00,1122.00
             533.90,1122.14 542.18,1127.78 553.00,1131.56
             556.70,1132.85 561.62,1133.83 563.16,1128.94
             564.00,1126.27 561.70,1120.97 561.00,1118.00 Z
           M 568.00,1153.45
           C 562.32,1155.69 549.27,1170.68 548.78,1177.00
             548.49,1180.81 551.55,1182.81 553.98,1185.17
             558.22,1189.29 561.16,1194.49 568.00,1192.30
             573.92,1190.41 584.58,1181.42 585.71,1175.00
             586.66,1169.61 580.79,1152.16 568.00,1153.45 Z
           M 491.00,1321.00
           C 491.00,1321.00 490.00,1321.00 490.00,1321.00
             490.00,1321.00 491.00,1322.00 491.00,1322.00
             491.00,1322.00 491.00,1321.00 491.00,1321.00 Z
           M 650.02,1453.74
           C 669.97,1448.95 661.31,1474.06 680.00,1477.23
             686.35,1478.31 698.42,1474.72 704.00,1475.19
             711.00,1475.77 719.78,1481.19 726.00,1479.35
             733.32,1477.18 741.33,1466.17 747.96,1465.76
             754.37,1465.35 754.95,1474.51 755.00,1479.00
             755.02,1481.35 755.27,1485.64 753.98,1487.58
             751.97,1490.61 737.12,1494.63 733.00,1496.00
             728.04,1497.65 724.37,1499.23 719.00,1498.91
             710.78,1498.41 711.25,1495.84 697.00,1496.00
             697.00,1496.00 687.00,1496.91 687.00,1496.91
             687.00,1496.91 662.00,1498.00 662.00,1498.00
             658.74,1497.99 654.00,1498.24 651.31,1496.15
             648.78,1494.17 647.64,1487.26 646.71,1484.00
             643.67,1473.40 637.47,1460.64 650.02,1453.74 Z
           M 745.00,1506.47
           C 751.28,1505.59 772.42,1506.25 778.00,1508.14
             783.15,1509.90 786.68,1515.26 792.00,1515.45
             797.41,1515.65 805.07,1506.05 814.69,1511.51
             817.19,1512.93 816.92,1515.20 819.31,1517.61
             821.94,1520.28 826.01,1521.10 828.26,1524.21
             832.25,1529.73 827.06,1540.51 820.96,1542.27
             816.81,1543.47 811.15,1541.88 807.00,1540.87
             807.00,1540.87 777.00,1531.67 777.00,1531.67
             771.91,1530.46 769.91,1531.84 766.00,1531.67
             766.00,1531.67 750.00,1528.61 750.00,1528.61
             747.52,1528.14 741.13,1527.29 739.37,1526.30
             734.20,1523.69 736.13,1511.82 739.37,1508.72
             741.07,1507.30 743.04,1506.96 745.00,1506.47 Z" />
  <path id="Sibunag"
        fill="none" stroke="black" stroke-width="1"
        d="M 1135.04,1173.65
           C 1141.22,1172.35 1151.26,1173.72 1155.26,1179.21
             1160.39,1186.24 1150.94,1200.16 1147.68,1201.39
             1144.47,1202.60 1140.61,1200.26 1138.63,1197.87
             1137.12,1196.03 1134.91,1191.32 1133.75,1189.00
             1130.75,1182.98 1127.11,1177.37 1135.04,1173.65 Z
           M 1095.00,1211.57
           C 1097.07,1211.30 1097.88,1211.07 1100.00,1211.57
             1106.54,1213.47 1119.75,1224.00 1121.30,1230.98
             1122.22,1235.12 1118.78,1237.41 1115.00,1237.45
             1110.74,1237.50 1108.11,1233.89 1103.00,1232.56
             1094.44,1230.33 1090.14,1235.45 1083.00,1230.66
             1073.66,1224.39 1078.04,1216.06 1085.02,1213.64
             1085.02,1213.64 1095.00,1211.57 1095.00,1211.57 Z
           M 1041.00,1280.54
           C 1057.01,1278.58 1054.23,1288.64 1062.21,1296.87
             1066.10,1300.88 1069.68,1300.78 1072.61,1303.50
             1075.68,1306.34 1076.72,1311.41 1080.53,1315.71
             1080.53,1315.71 1099.00,1331.20 1099.00,1331.20
             1099.00,1331.20 1112.94,1342.59 1112.94,1342.59
             1114.86,1344.37 1116.85,1346.12 1115.83,1349.00
             1113.41,1355.84 1105.09,1356.99 1099.00,1357.00
             1099.00,1357.00 1073.00,1356.00 1073.00,1356.00
             1063.42,1356.05 1051.55,1359.99 1043.00,1364.27
             1039.00,1366.27 1032.16,1370.53 1029.56,1374.09
             1027.56,1376.83 1027.60,1379.43 1026.07,1381.98
             1023.04,1387.02 1019.27,1387.11 1014.00,1386.99
             1003.61,1386.74 993.05,1381.93 993.81,1370.00
             993.93,1368.07 994.11,1365.77 995.02,1364.04
             998.17,1358.09 1007.13,1356.72 1007.88,1348.00
             1008.66,1339.01 999.66,1323.74 999.48,1316.00
             999.43,1313.57 1000.23,1311.27 1001.00,1309.00
             1004.81,1297.83 1013.66,1295.44 1023.00,1289.99
             1028.66,1286.68 1034.75,1282.45 1041.00,1280.54 Z
           M 613.00,1077.00
           C 613.00,1077.00 624.00,1076.04 624.00,1076.04
             624.00,1076.04 635.00,1076.04 635.00,1076.04
             635.00,1076.04 650.00,1075.00 650.00,1075.00
             650.00,1075.00 681.00,1075.00 681.00,1075.00
             692.67,1074.98 693.96,1070.83 700.88,1062.00
             703.88,1058.19 709.51,1052.98 711.12,1049.00
             711.12,1049.00 714.52,1028.00 714.52,1028.00
             716.52,1020.36 725.19,1011.14 733.00,1009.20
             735.45,1008.84 740.30,1009.01 743.00,1009.20
             745.14,1008.99 747.97,1009.07 749.96,1008.26
             756.24,1005.72 755.56,998.21 759.42,994.43
             762.96,990.95 769.36,991.01 774.00,991.00
             784.25,990.98 791.71,990.69 802.00,992.29
             810.89,993.68 815.53,996.72 826.00,996.42
             833.52,996.20 840.58,989.42 845.99,989.72
             850.50,989.97 855.04,996.21 856.71,999.99
             860.74,1009.15 842.21,1008.48 845.17,1017.00
             846.13,1019.77 852.27,1025.04 854.56,1027.42
             860.29,1033.36 862.08,1038.84 860.53,1047.00
             857.97,1060.57 848.25,1059.65 836.92,1075.00
             834.05,1078.89 830.15,1085.38 828.78,1090.00
             823.65,1107.34 830.30,1131.69 842.17,1145.00
             844.92,1148.08 848.69,1151.78 852.00,1154.24
             854.81,1156.33 860.49,1160.15 864.00,1160.28
             872.55,1160.60 883.55,1144.72 887.42,1138.00
             890.22,1133.14 892.92,1125.55 899.01,1124.43
             907.67,1122.84 911.18,1132.96 921.00,1137.67
             933.60,1143.72 957.59,1144.84 972.00,1146.72
             977.74,1147.47 988.66,1149.09 991.99,1154.53
             993.58,1157.11 991.90,1161.30 991.14,1164.00
             989.64,1169.32 986.78,1177.65 987.18,1183.00
             987.92,1192.72 994.32,1201.89 990.92,1210.00
             990.17,1211.79 988.44,1214.35 987.33,1216.00
             980.28,1226.44 979.14,1223.14 972.00,1229.21
             967.90,1232.70 959.46,1242.52 955.58,1247.00
             949.36,1254.18 942.55,1261.00 941.36,1271.00
             940.14,1281.30 952.15,1287.94 942.87,1297.96
             941.81,1299.10 940.32,1300.44 939.00,1301.26
             936.96,1302.53 935.36,1302.84 933.00,1302.95
             923.61,1303.41 922.32,1297.98 916.00,1295.72
             909.70,1293.48 893.81,1297.42 889.23,1302.21
             884.04,1307.64 888.60,1311.00 888.19,1317.00
             887.75,1323.24 880.66,1333.98 881.48,1340.00
             882.16,1345.00 888.46,1351.57 886.79,1355.99
             885.78,1358.68 882.30,1361.06 880.00,1362.65
             876.44,1365.12 861.22,1375.50 858.00,1376.09
             853.76,1376.87 851.11,1372.91 846.02,1375.33
             840.25,1378.07 839.85,1384.55 838.57,1390.00
             837.27,1395.57 833.27,1403.29 827.99,1405.98
             821.08,1409.48 812.01,1401.89 806.00,1399.12
             800.07,1396.39 796.29,1397.00 790.00,1397.00
             790.10,1385.75 795.53,1376.98 795.96,1366.00
             796.51,1352.00 786.61,1339.09 787.02,1326.00
             787.23,1319.30 790.38,1320.01 796.00,1320.00
             796.00,1320.00 807.00,1320.00 807.00,1320.00
             816.80,1319.82 816.83,1314.19 816.15,1306.00
             815.39,1296.79 809.51,1275.80 804.92,1268.00
             801.23,1261.74 793.54,1258.80 788.01,1253.82
             782.19,1248.56 779.76,1242.74 775.83,1239.42
             770.39,1234.81 755.22,1230.76 748.00,1231.04
             736.52,1231.49 725.28,1238.12 721.00,1238.44
             718.65,1238.62 716.04,1237.72 714.02,1236.59
             705.25,1231.68 707.56,1222.90 706.97,1219.58
             706.62,1217.67 705.60,1215.73 704.75,1214.00
             696.59,1197.34 684.63,1179.07 672.57,1165.00
             669.43,1161.33 665.68,1156.94 661.00,1155.34
             645.40,1150.02 623.37,1160.43 610.09,1149.18
             595.17,1136.53 615.86,1125.78 617.79,1113.00
             617.79,1113.00 613.00,1077.00 613.00,1077.00 Z" />
  <path id="Jordan"
        fill="none" stroke="black" stroke-width="1"
        d="M 787.00,767.00
           C 787.84,770.73 789.67,778.96 792.42,781.44
             795.72,784.41 808.21,786.01 812.91,788.02
             817.89,790.15 823.35,802.05 826.15,807.00
             827.12,808.72 829.14,812.12 829.36,814.00
             829.82,817.97 825.53,821.44 823.00,824.00
             823.00,824.00 802.17,846.00 802.17,846.00
             800.11,848.27 793.75,854.06 795.03,857.17
             795.03,857.17 810.00,874.00 810.00,874.00
             810.00,874.00 836.42,903.00 836.42,903.00
             839.52,906.57 845.55,912.23 847.78,916.00
             850.26,921.02 848.01,931.74 847.78,938.00
             847.78,938.00 847.00,950.00 847.00,950.00
             847.00,950.00 847.00,962.00 847.00,962.00
             847.00,962.00 846.00,975.00 846.00,975.00
             845.99,977.94 846.13,983.06 844.60,985.59
             843.35,987.64 834.48,991.97 832.00,992.87
             822.88,996.17 813.79,992.63 805.00,990.66
             797.91,989.08 795.06,989.08 788.00,989.00
             779.93,988.90 766.04,986.47 759.13,991.70
             753.63,995.86 754.79,1003.76 748.90,1006.14
             745.49,1007.45 742.38,1005.82 738.00,1006.14
             729.30,1006.91 720.85,1012.96 715.99,1020.00
             709.55,1029.33 712.14,1037.16 709.48,1047.00
             708.02,1052.41 704.87,1053.96 701.46,1058.01
             693.47,1067.54 693.44,1072.98 680.00,1073.00
             680.00,1073.00 644.00,1073.00 644.00,1073.00
             644.00,1073.00 632.00,1073.96 632.00,1073.96
             632.00,1073.96 621.00,1073.96 621.00,1073.96
             612.62,1074.10 613.29,1075.25 604.00,1073.11
             599.98,1072.19 592.82,1069.61 589.02,1070.93
             583.72,1072.77 583.76,1077.33 580.59,1080.37
             580.59,1080.37 571.00,1087.21 571.00,1087.21
             564.50,1092.31 559.33,1098.25 551.00,1100.08
             549.10,1100.38 546.91,1100.78 545.02,1100.08
             540.13,1098.61 535.71,1089.94 536.42,1085.00
             537.32,1078.70 544.47,1069.07 542.25,1063.02
             538.72,1053.40 522.66,1055.44 518.51,1051.44
             515.95,1048.97 515.36,1042.48 514.75,1039.00
             512.34,1025.15 511.08,1021.28 513.61,1007.00
             517.47,985.27 520.68,978.68 529.69,959.00
             529.69,959.00 535.84,944.51 535.84,944.51
             539.95,939.88 555.53,942.35 560.87,939.02
             565.10,936.37 564.98,931.39 565.00,927.00
             565.00,927.00 564.00,907.00 564.00,907.00
             563.94,901.17 563.63,884.81 569.25,881.65
             574.40,878.76 582.31,881.39 587.98,878.07
             594.63,874.17 594.39,867.01 599.21,864.87
             603.20,863.10 611.13,865.38 616.78,859.78
             621.81,854.78 621.44,844.60 626.64,838.11
             632.31,831.01 644.18,834.15 651.78,825.90
             655.91,821.42 656.86,812.91 656.49,807.00
             656.49,807.00 653.00,769.00 653.00,769.00
             653.00,769.00 653.00,763.00 653.00,763.00
             653.01,758.76 652.96,757.25 653.81,753.00
             653.81,753.00 655.10,748.00 655.10,748.00
             658.05,739.85 662.22,739.89 667.70,746.02
             667.70,746.02 684.32,768.98 684.32,768.98
             686.50,771.50 689.40,774.51 693.00,774.39
             695.61,774.30 702.38,770.58 705.00,769.24
             716.32,763.49 726.20,756.71 733.40,746.00
             736.23,741.80 739.91,732.17 742.55,729.64
             746.84,725.52 758.10,723.80 764.00,723.00
             764.00,723.00 762.00,756.00 762.00,756.00
             762.09,762.13 763.38,767.25 770.00,769.18
             774.95,770.63 781.28,767.52 787.00,767.00 Z" />
  <path id="Buenavista"
        fill="none" stroke="black" stroke-width="1"
        d="M 788.00,763.00
           C 781.10,765.74 767.75,771.91 764.57,761.00
             763.85,758.54 763.98,753.69 764.00,751.00
             764.00,751.00 766.02,730.00 766.02,730.00
             766.21,727.45 766.05,724.00 768.37,722.34
             769.80,721.31 774.09,720.96 776.01,720.56
             782.92,719.12 793.05,716.16 794.92,708.27
             794.92,708.27 794.00,679.00 794.00,679.00
             794.07,673.43 795.78,667.51 794.73,662.00
             793.84,657.32 790.57,653.71 789.26,649.93
             787.77,645.63 788.23,639.67 787.77,635.09
             787.77,635.09 786.35,623.00 786.35,623.00
             786.84,618.44 790.50,613.91 792.65,610.00
             795.84,604.22 797.85,597.59 802.29,592.53
             805.16,589.25 809.37,587.71 813.00,585.47
             818.31,582.19 835.36,573.49 841.00,571.68
             847.50,569.60 849.91,570.72 852.19,569.57
             858.06,566.64 858.18,557.14 864.04,554.02
             867.23,552.33 873.23,553.33 877.00,552.81
             881.39,552.21 885.23,549.56 888.58,546.79
             888.58,546.79 891.94,543.70 891.94,543.70
             899.17,535.59 886.13,531.20 886.25,524.00
             886.29,520.99 889.82,517.34 891.65,515.00
             899.07,505.49 899.10,505.85 910.00,502.18
             912.74,501.26 915.11,499.84 918.00,499.34
             925.67,498.00 939.13,506.02 946.00,509.69
             953.04,513.45 971.60,522.28 976.54,527.30
             976.54,527.30 1002.43,563.20 1002.43,563.20
             1007.89,568.90 1011.27,570.22 1016.83,574.75
             1022.10,579.05 1024.16,581.87 1030.99,584.73
             1030.99,584.73 1054.04,590.33 1054.04,590.33
             1059.15,592.55 1066.79,600.13 1070.45,604.42
             1072.97,607.39 1077.18,616.93 1079.26,621.00
             1080.81,624.04 1083.95,629.66 1084.18,633.00
             1084.54,638.34 1079.58,639.38 1080.97,646.28
             1082.25,652.64 1090.86,663.73 1091.62,672.12
             1092.04,676.67 1088.89,685.47 1087.93,690.58
             1086.25,700.06 1087.43,700.58 1087.93,709.00
             1087.93,709.00 1087.04,723.00 1087.04,723.00
             1087.04,723.00 1087.96,735.00 1087.96,735.00
             1087.96,735.00 1086.85,748.00 1086.85,748.00
             1086.85,748.00 1086.85,772.00 1086.85,772.00
             1086.85,772.00 1086.00,784.00 1086.00,784.00
             1086.00,784.00 1063.00,787.13 1063.00,787.13
             1063.00,787.13 1051.00,788.32 1051.00,788.32
             1051.00,788.32 1032.00,773.56 1032.00,773.56
             1032.00,773.56 1016.00,772.24 1016.00,772.24
             1016.00,772.24 996.00,772.24 996.00,772.24
             996.00,776.89 995.89,793.15 993.49,796.67
             990.73,800.71 981.34,804.51 979.38,807.98
             979.38,807.98 975.13,831.82 975.13,831.82
             973.80,834.92 965.93,840.48 963.00,842.92
             959.81,845.58 946.50,857.22 943.83,858.28
             940.85,859.45 928.00,859.00 924.00,859.00
             924.00,859.00 923.00,846.00 923.00,846.00
             923.00,846.00 902.00,846.00 902.00,846.00
             893.20,845.85 892.17,838.99 888.15,832.00
             885.62,827.60 883.34,824.98 882.00,820.00
             882.00,820.00 845.83,816.44 845.83,816.44
             842.65,816.04 834.89,815.38 832.63,813.40
             832.63,813.40 816.59,787.56 816.59,787.56
             812.86,784.27 798.60,783.35 794.41,780.08
             791.04,777.45 788.97,767.30 788.00,763.00 Z
           M 952.00,567.00
           C 954.24,558.86 951.33,550.68 951.34,549.00
             951.37,544.94 954.97,543.33 953.96,538.00
             951.67,525.88 932.75,525.77 923.00,526.01
             916.79,526.17 905.57,529.60 908.86,538.00
             910.48,542.14 914.31,544.02 916.18,548.00
             918.38,552.70 915.78,556.97 919.36,560.49
             921.75,562.84 926.04,563.37 929.16,564.16
             941.47,567.28 940.90,566.01 952.00,567.00 Z" />
  <path id="San Lorenzo"
        fill="none" stroke="black" stroke-width="1"
        d="M 998.00,774.00
           C 998.00,774.00 1016.00,775.00 1016.00,775.00
             1016.00,775.00 1032.00,776.02 1032.00,776.02
             1032.00,776.02 1051.00,790.65 1051.00,790.65
             1051.00,790.65 1063.00,789.42 1063.00,789.42
             1063.00,789.42 1085.00,786.00 1085.00,786.00
             1085.00,790.15 1084.17,800.55 1086.74,803.57
             1089.53,806.85 1093.97,805.41 1096.95,806.60
             1102.57,808.84 1102.05,816.03 1102.00,821.00
             1101.82,836.87 1096.68,849.83 1101.16,866.00
             1104.91,879.56 1118.76,882.73 1113.52,898.00
             1109.46,909.83 1091.05,916.38 1086.24,929.00
             1086.24,929.00 1080.66,948.00 1080.66,948.00
             1080.66,948.00 1065.58,989.00 1065.58,989.00
             1065.58,989.00 1056.87,1008.00 1056.87,1008.00
             1056.87,1008.00 1048.69,1028.00 1048.69,1028.00
             1048.69,1028.00 1035.78,1056.00 1035.78,1056.00
             1031.77,1067.56 1041.49,1070.78 1035.78,1083.00
             1035.78,1083.00 1024.21,1104.00 1024.21,1104.00
             1024.21,1104.00 1018.37,1111.00 1018.37,1111.00
             1016.13,1113.84 1014.54,1117.18 1011.82,1119.61
             1006.30,1124.55 995.75,1125.97 992.83,1133.02
             990.59,1137.74 992.76,1145.70 992.83,1151.00
             987.93,1149.14 984.48,1146.56 979.00,1145.46
             961.32,1141.92 942.26,1142.99 925.00,1137.25
             911.06,1132.61 911.09,1121.47 900.00,1122.15
             892.72,1122.59 889.65,1129.39 886.74,1135.00
             883.10,1142.03 876.07,1152.74 869.00,1156.43
             861.87,1160.15 854.33,1154.00 849.01,1149.54
             832.96,1136.06 829.77,1117.66 830.00,1098.00
             830.14,1086.54 837.24,1076.33 845.29,1068.59
             855.05,1059.20 863.66,1056.86 862.96,1041.00
             862.64,1033.81 859.87,1030.00 854.99,1025.00
             853.11,1023.09 847.68,1018.50 847.28,1016.02
             846.47,1010.85 859.38,1009.15 859.90,1002.98
             860.33,997.78 852.28,991.49 849.60,987.72
             847.82,985.22 848.02,982.91 848.00,980.00
             848.00,980.00 849.00,967.00 849.00,967.00
             849.00,967.00 849.00,955.00 849.00,955.00
             849.00,955.00 850.00,942.00 850.00,942.00
             850.00,942.00 851.00,924.00 851.00,924.00
             851.00,921.89 851.12,918.96 850.40,917.00
             849.02,913.19 841.08,905.20 838.04,902.00
             838.04,902.00 810.91,872.00 810.91,872.00
             808.32,869.22 799.18,860.05 798.16,857.00
             796.81,852.94 802.44,848.57 805.00,846.00
             805.00,846.00 822.91,827.00 822.91,827.00
             825.38,824.35 828.87,819.54 832.00,818.16
             834.79,816.69 840.80,817.86 844.00,818.16
             844.00,818.16 869.00,821.15 869.00,821.15
             871.87,821.50 878.36,821.85 880.37,823.60
             883.56,826.39 891.85,844.73 895.39,846.98
             897.35,848.22 900.72,848.00 903.00,848.00
             903.00,848.00 921.00,849.00 921.00,849.00
             921.00,849.00 922.00,861.00 922.00,861.00
             922.00,861.00 938.00,861.00 938.00,861.00
             940.01,860.97 942.09,860.98 944.00,860.26
             947.77,858.84 962.89,845.67 967.00,842.25
             969.57,840.11 975.52,835.60 976.98,832.91
             976.98,832.91 981.40,809.32 981.40,809.32
             983.75,805.09 992.39,802.00 995.40,797.82
             997.77,794.53 998.00,778.67 998.00,774.00 Z" />
</svg>
