<?xml version="1.0" encoding="UTF-8" standalone="no"?>
<!DOCTYPE svg PUBLIC "-//W3C//DTD SVG 20010904//EN"
              "http://www.w3.org/TR/2001/REC-SVG-20010904/DTD/svg10.dtd">

<svg xmlns="http://www.w3.org/2000/svg"
     width="541.972mm" height="790.357mm"
     viewBox="0 0 1259 1836">
  <path id="Badoc"
        fill="none" stroke="black" stroke-width="1"
        d="M 338.00,1290.00
           C 341.36,1290.95 344.50,1292.56 348.00,1292.90
             351.84,1293.27 356.32,1292.50 360.00,1293.70
             365.89,1295.61 378.18,1305.15 384.00,1309.00
             384.00,1309.00 395.69,1316.39 395.69,1316.39
             400.03,1320.92 397.88,1331.53 400.17,1335.98
             403.28,1342.01 417.63,1347.42 424.00,1350.13
             427.06,1351.43 432.74,1353.67 436.00,1353.29
             443.79,1352.38 447.71,1344.17 460.00,1344.00
             474.47,1343.81 469.11,1346.70 478.00,1347.82
             484.49,1348.63 495.75,1347.40 501.85,1350.65
             505.82,1352.76 504.21,1355.64 506.60,1358.79
             508.63,1361.47 512.15,1362.45 515.00,1364.00
             503.80,1367.19 484.68,1376.24 479.44,1387.00
             476.57,1392.87 476.69,1408.35 475.72,1416.00
             472.66,1439.90 459.90,1462.76 432.91,1463.00
             432.91,1463.00 432.91,1453.00 432.91,1453.00
             431.95,1445.78 430.89,1448.43 431.00,1438.00
             431.11,1429.02 435.27,1415.24 429.58,1408.04
             422.21,1398.70 403.31,1396.14 392.00,1396.00
             371.97,1395.77 339.08,1388.88 319.00,1384.12
             309.44,1381.85 296.23,1377.42 287.00,1377.00
             283.96,1363.68 276.35,1357.84 278.15,1347.05
             279.05,1341.64 283.30,1343.23 286.11,1338.87
             288.62,1334.98 286.37,1330.45 290.31,1326.39
             293.43,1323.17 308.62,1317.56 314.00,1314.74
             324.51,1309.23 332.25,1300.23 338.00,1290.00 Z" />
  <path id="Pinili"
        fill="none" stroke="black" stroke-width="1"
        d="M 425.00,1240.00
           C 443.36,1247.29 452.91,1242.09 471.00,1242.00
             471.00,1242.00 481.00,1242.00 481.00,1242.00
             483.51,1242.03 485.53,1242.08 488.00,1242.68
             489.73,1243.10 491.43,1243.68 492.89,1244.72
             503.83,1252.57 495.19,1264.90 500.26,1273.00
             500.26,1273.00 521.25,1299.00 521.25,1299.00
             524.20,1302.57 529.01,1307.80 530.66,1312.00
             532.49,1316.66 532.06,1325.76 532.00,1331.00
             531.88,1340.70 529.80,1353.55 520.96,1359.26
             517.25,1361.66 510.64,1361.07 507.99,1357.36
             506.41,1355.15 507.61,1352.22 504.69,1349.72
             501.34,1346.86 491.40,1346.02 487.00,1346.00
             469.11,1345.91 471.06,1339.48 456.00,1341.69
             447.68,1342.92 440.47,1352.92 432.00,1350.92
             427.05,1349.74 415.01,1343.71 410.00,1341.26
             407.14,1339.86 404.02,1338.89 402.51,1335.87
             399.54,1329.92 403.10,1320.32 396.78,1314.61
             396.78,1314.61 384.00,1306.56 384.00,1306.56
             378.52,1302.78 366.64,1293.78 361.00,1291.81
             353.98,1289.36 353.06,1293.50 340.00,1288.00
             342.77,1277.34 341.95,1276.66 342.00,1266.00
             342.01,1263.33 341.86,1258.63 343.85,1256.61
             346.84,1253.59 359.18,1259.70 363.00,1261.00
             376.98,1265.76 388.25,1269.36 403.00,1271.28
             407.37,1271.85 415.05,1273.08 418.77,1270.26
             423.17,1266.94 421.12,1261.61 421.01,1257.00
             420.84,1249.18 421.70,1246.99 425.00,1240.00 Z" />
  <path id="Currimao"
        fill="none" stroke="black" stroke-width="1"
        d="M 349.23,1088.00
           C 357.31,1091.86 365.31,1103.38 368.01,1112.00
             368.83,1114.61 369.76,1122.07 370.00,1125.00
             375.66,1126.74 386.28,1139.26 391.00,1144.00
             394.74,1147.76 407.18,1161.11 409.52,1165.00
             412.15,1169.35 413.65,1175.18 415.60,1180.00
             417.58,1184.88 420.78,1189.71 420.94,1195.00
             421.23,1204.10 414.59,1211.87 415.11,1221.00
             415.58,1229.25 421.81,1234.93 422.11,1239.00
             422.33,1242.06 419.94,1244.58 419.07,1250.00
             419.07,1250.00 419.07,1269.00 419.07,1269.00
             397.28,1272.89 367.61,1259.88 347.00,1253.00
             350.38,1244.38 357.68,1240.14 363.91,1233.91
             363.91,1233.91 374.24,1222.00 374.24,1222.00
             376.14,1219.43 380.11,1213.12 380.39,1210.00
             380.77,1205.78 375.88,1201.99 373.29,1199.00
             373.29,1199.00 363.82,1187.30 363.82,1187.30
             358.78,1182.39 351.91,1179.07 349.15,1172.00
             344.46,1160.02 354.02,1150.94 354.91,1140.00
             356.00,1126.67 351.56,1121.87 349.23,1110.00
             349.23,1110.00 349.23,1088.00 349.23,1088.00 Z" />
  <path id="Paoay"
        fill="none" stroke="black" stroke-width="1"
        d="M 467.00,978.00
           C 472.62,987.13 473.46,1006.77 470.57,1017.00
             470.57,1017.00 461.53,1042.00 461.53,1042.00
             459.95,1047.83 459.97,1056.88 460.00,1063.00
             460.00,1063.00 461.00,1077.00 461.00,1077.00
             461.00,1077.00 461.00,1097.00 461.00,1097.00
             460.99,1105.84 458.76,1114.63 456.00,1123.00
             449.36,1143.08 436.97,1167.58 417.00,1177.00
             415.27,1173.06 414.21,1168.75 411.91,1165.09
             407.76,1158.49 392.22,1143.36 386.01,1137.00
             383.22,1134.14 374.38,1126.19 376.13,1122.00
             378.98,1115.16 393.32,1117.01 399.96,1115.86
             404.42,1115.08 404.26,1112.63 407.21,1111.72
             407.21,1111.72 423.00,1111.72 423.00,1111.72
             427.72,1110.50 433.22,1102.93 436.00,1099.00
             420.77,1096.27 422.61,1099.84 413.00,1100.67
             408.38,1101.07 403.51,1099.02 399.00,1098.00
             399.00,1098.00 398.00,1105.00 398.00,1105.00
             398.00,1105.00 386.00,1105.00 386.00,1105.00
             383.96,1104.99 381.29,1105.16 379.54,1103.98
             377.80,1102.82 377.51,1100.71 374.86,1099.60
             372.11,1098.45 368.61,1099.68 365.00,1098.02
             360.85,1096.10 357.51,1091.39 354.00,1088.44
             348.26,1083.62 340.94,1078.69 343.65,1070.00
             345.33,1064.60 350.02,1061.43 354.00,1057.83
             354.00,1057.83 366.83,1045.00 366.83,1045.00
             375.16,1035.78 384.40,1022.59 391.05,1012.00
             396.47,1003.36 402.65,993.00 405.00,983.00
             414.50,987.10 422.93,987.22 433.00,987.82
             444.76,988.52 456.95,983.49 467.00,978.00 Z
           M 435.00,1002.00
           C 435.00,1002.00 431.15,1010.62 431.15,1010.62
             429.18,1013.25 426.25,1013.74 425.29,1017.18
             423.37,1024.10 427.11,1025.89 429.31,1031.04
             429.31,1031.04 432.00,1040.00 432.00,1040.00
             438.50,1036.93 440.15,1032.77 444.00,1031.11
             448.60,1029.13 456.23,1034.29 460.87,1025.98
             463.62,1021.05 459.31,1018.81 459.83,1015.00
             460.05,1013.37 462.96,1009.23 464.00,1007.00
             460.87,1005.40 456.62,1002.74 453.00,1003.69
             450.49,1004.34 448.63,1006.60 446.00,1006.77
             443.27,1006.95 437.47,1003.41 435.00,1002.00 Z" />
  <path id="Batac"
        fill="none" stroke="black" stroke-width="1"
        d="M 474.00,1010.00
           C 485.57,1010.97 502.54,1018.51 513.00,1023.75
             513.00,1023.75 532.00,1034.39 532.00,1034.39
             539.00,1037.21 547.86,1035.96 554.47,1044.04
             562.66,1054.06 565.33,1070.67 568.37,1083.00
             570.12,1090.06 572.53,1097.68 571.83,1105.00
             570.12,1122.94 563.26,1132.82 563.00,1155.00
             563.00,1155.00 562.00,1169.00 562.00,1169.00
             561.94,1180.89 561.49,1191.32 558.77,1203.00
             558.77,1203.00 541.19,1255.00 541.19,1255.00
             537.51,1266.51 534.84,1278.12 532.61,1290.00
             532.61,1290.00 530.00,1307.00 530.00,1307.00
             530.00,1307.00 510.75,1283.00 510.75,1283.00
             508.32,1280.06 503.17,1274.30 501.74,1271.00
             499.96,1266.26 501.79,1260.10 501.74,1257.00
             501.37,1252.52 497.62,1245.51 493.91,1242.99
             486.69,1238.10 478.03,1239.98 470.00,1240.00
             470.00,1240.00 457.00,1240.96 457.00,1240.96
             457.00,1240.96 441.00,1240.96 441.00,1240.96
             437.32,1240.99 434.59,1241.10 431.00,1239.94
             427.74,1238.89 425.63,1237.56 423.38,1234.95
             421.97,1233.31 420.57,1230.95 419.63,1229.00
             412.63,1214.42 423.84,1206.21 423.64,1195.00
             423.56,1190.35 419.48,1184.18 418.00,1179.00
             426.02,1174.87 433.81,1167.10 439.34,1160.00
             452.43,1143.16 462.97,1117.53 463.00,1096.00
             463.00,1096.00 463.00,1078.00 463.00,1078.00
             463.00,1078.00 462.00,1064.00 462.00,1064.00
             461.91,1056.34 461.75,1049.50 463.76,1042.00
             467.14,1029.36 471.10,1025.92 474.00,1010.00 Z" />
  <path id="Banna"
        fill="none" stroke="black" stroke-width="1"
        d="M 565.00,1158.00
           C 567.89,1157.46 573.32,1155.99 576.00,1156.60
             579.07,1157.29 586.17,1162.80 589.00,1164.88
             589.00,1164.88 614.00,1182.67 614.00,1182.67
             618.49,1185.66 631.79,1195.09 636.00,1196.35
             638.29,1197.05 640.63,1196.99 643.00,1197.21
             645.27,1197.01 648.90,1196.88 651.00,1197.21
             656.19,1198.78 664.84,1207.12 669.00,1210.84
             679.42,1220.14 689.21,1230.12 698.00,1241.00
             702.52,1246.59 708.38,1252.29 711.00,1259.00
             696.75,1267.19 685.03,1281.19 676.42,1295.00
             670.37,1304.72 662.46,1320.26 653.91,1327.32
             645.20,1334.51 631.85,1335.12 621.00,1335.00
             595.86,1334.70 570.98,1321.85 551.00,1307.57
             551.00,1307.57 534.00,1294.00 534.00,1294.00
             536.46,1280.95 539.15,1267.60 543.35,1255.00
             549.75,1235.83 557.07,1220.42 561.58,1200.00
             564.04,1188.83 565.00,1169.65 565.00,1158.00 Z" />
  <path id="Marcos"
        fill="none" stroke="black" stroke-width="1"
        d="M 643.00,1081.00
           C 646.73,1083.91 647.82,1085.76 651.03,1088.83
             659.78,1097.19 686.03,1123.01 694.00,1128.24
             705.93,1136.07 730.19,1140.15 744.89,1154.30
             752.20,1161.33 747.34,1170.70 752.51,1178.00
             752.51,1178.00 788.00,1211.00 788.00,1211.00
             768.55,1226.79 752.53,1234.46 731.00,1246.30
             731.00,1246.30 713.00,1257.00 713.00,1257.00
             703.95,1242.75 684.46,1222.74 672.00,1210.97
             668.46,1207.62 657.02,1197.25 653.00,1195.74
             650.35,1194.74 645.92,1195.04 643.00,1195.00
             633.87,1194.87 630.38,1190.73 623.00,1186.05
             623.00,1186.05 594.00,1166.12 594.00,1166.12
             589.35,1162.69 583.80,1159.24 580.00,1155.00
             580.00,1155.00 594.00,1150.31 594.00,1150.31
             603.85,1146.80 614.08,1141.45 623.00,1136.00
             630.68,1131.30 638.81,1124.79 641.89,1116.00
             645.89,1104.60 643.01,1092.64 643.00,1081.00 Z" />
  <path id="Dingras"
        fill="none" stroke="black" stroke-width="1"
        d="M 643.00,1078.00
           C 643.00,1078.00 642.37,1062.00 642.37,1062.00
             642.37,1062.00 642.37,1043.00 642.37,1043.00
             642.37,1043.00 642.37,1035.00 642.37,1035.00
             642.37,1035.00 642.37,1028.00 642.37,1028.00
             642.37,1028.00 643.71,1018.00 643.71,1018.00
             644.63,1010.63 644.12,1006.98 648.95,1000.29
             652.08,995.95 657.38,992.47 662.00,989.87
             665.29,988.02 670.27,985.91 674.00,985.33
             674.00,985.33 696.00,987.00 696.00,987.00
             696.00,987.00 718.00,986.00 718.00,986.00
             718.55,989.70 722.88,996.02 724.85,1000.00
             724.85,1000.00 735.18,1024.72 735.18,1024.72
             741.87,1043.01 742.03,1067.79 750.54,1082.96
             752.77,1086.94 767.31,1100.54 771.28,1103.65
             777.42,1108.46 783.49,1110.83 790.00,1114.59
             790.00,1114.59 811.91,1125.89 811.91,1125.89
             811.91,1125.89 819.04,1130.18 819.04,1130.18
             819.04,1130.18 826.00,1133.03 826.00,1133.03
             826.00,1133.03 834.91,1137.73 834.91,1137.73
             834.91,1137.73 853.00,1146.00 853.00,1146.00
             848.06,1149.90 843.89,1155.93 839.54,1160.58
             839.54,1160.58 808.00,1193.17 808.00,1193.17
             804.87,1196.04 794.54,1207.35 790.83,1207.85
             787.18,1208.34 783.37,1203.50 780.92,1201.28
             780.92,1201.28 762.98,1185.45 762.98,1185.45
             759.77,1182.70 754.32,1178.35 752.73,1174.42
             751.53,1171.48 752.27,1159.72 748.50,1155.01
             746.93,1153.05 742.99,1150.20 740.83,1148.66
             720.60,1134.20 708.19,1134.64 696.00,1127.13
             684.05,1119.76 660.51,1095.35 649.29,1084.63
             649.29,1084.63 643.00,1078.00 643.00,1078.00 Z" />
  <path id="Nueva Era"
        fill="none" stroke="black" stroke-width="1"
        d="M 1070.00,896.00
           C 1074.72,900.08 1076.85,904.89 1080.33,909.96
             1087.64,920.62 1093.90,926.54 1094.00,940.00
             1094.04,946.03 1093.83,952.18 1091.40,957.83
             1087.94,965.91 1071.87,979.36 1065.44,987.00
             1054.57,999.91 1043.98,1020.88 1038.75,1036.96
             1035.58,1046.71 1033.72,1062.57 1032.68,1073.00
             1032.68,1073.00 1031.00,1115.00 1031.00,1115.00
             1031.00,1115.00 1032.00,1138.00 1032.00,1138.00
             1032.00,1138.00 1033.00,1171.00 1033.00,1171.00
             1033.00,1171.00 1034.37,1192.00 1034.37,1192.00
             1035.90,1199.27 1039.45,1206.50 1039.91,1214.00
             1040.78,1228.38 1026.37,1233.53 1021.52,1248.00
             1021.52,1248.00 1017.04,1270.00 1017.04,1270.00
             1016.70,1277.42 1017.38,1288.28 1011.67,1293.79
             1007.48,1297.82 1003.44,1298.98 998.00,1300.37
             973.29,1306.69 966.50,1296.94 945.28,1290.19
             931.38,1285.77 913.55,1283.85 899.00,1284.00
             892.77,1284.07 881.57,1285.57 876.00,1288.21
             867.11,1292.43 855.90,1305.37 849.34,1312.72
             836.84,1326.70 815.46,1352.46 800.00,1361.27
             788.31,1367.94 772.78,1367.76 759.99,1370.44
             746.99,1373.16 740.94,1377.88 730.00,1384.55
             723.21,1388.69 716.72,1391.89 711.51,1398.17
             704.90,1406.15 705.40,1416.75 701.69,1426.00
             697.80,1435.71 692.49,1443.41 686.71,1452.00
             679.48,1462.75 672.38,1472.86 660.99,1479.71
             646.35,1488.51 620.87,1491.16 603.99,1494.29
             570.51,1500.51 523.30,1514.08 498.51,1537.90
             492.33,1543.83 486.28,1550.30 482.37,1558.00
             482.37,1558.00 472.35,1588.00 472.35,1588.00
             472.35,1588.00 459.03,1619.00 459.03,1619.00
             459.03,1619.00 448.34,1639.00 448.34,1639.00
             448.34,1639.00 433.93,1665.00 433.93,1665.00
             432.61,1667.36 430.51,1672.88 427.81,1673.66
             424.08,1674.74 416.81,1665.75 414.68,1663.00
             404.48,1649.84 399.03,1631.58 399.00,1615.00
             399.00,1615.00 399.00,1607.00 399.00,1607.00
             399.00,1607.00 400.86,1581.99 400.86,1581.99
             400.86,1581.99 403.00,1543.00 403.00,1543.00
             403.21,1525.03 416.92,1500.98 425.22,1485.00
             425.22,1485.00 432.78,1466.88 432.78,1466.88
             434.67,1465.05 443.79,1464.04 447.00,1462.90
             453.68,1460.53 460.05,1455.22 464.56,1449.83
             475.60,1436.66 478.92,1418.77 479.00,1402.00
             479.02,1397.82 479.27,1394.02 480.60,1390.00
             486.75,1371.42 513.31,1371.15 524.50,1358.91
             526.75,1356.45 530.14,1352.05 531.39,1349.00
             535.45,1339.05 534.10,1321.65 533.11,1311.00
             533.11,1311.00 533.11,1297.00 533.11,1297.00
             537.31,1298.40 539.42,1301.17 542.99,1303.96
             542.99,1303.96 560.17,1316.21 560.17,1316.21
             576.35,1326.92 600.30,1336.79 620.00,1337.00
             629.47,1337.10 642.63,1336.84 650.91,1331.83
             663.68,1324.10 673.70,1302.64 681.95,1290.04
             691.47,1275.50 702.44,1266.27 717.00,1257.05
             749.21,1236.66 763.19,1234.48 795.01,1207.68
             805.53,1198.83 814.72,1188.98 824.28,1179.17
             824.28,1179.17 830.83,1172.96 830.83,1172.96
             830.83,1172.96 871.01,1126.13 871.01,1126.13
             871.01,1126.13 937.66,1049.17 937.66,1049.17
             937.66,1049.17 965.74,1017.92 965.74,1017.92
             965.74,1017.92 1037.01,935.13 1037.01,935.13
             1037.01,935.13 1070.00,896.00 1070.00,896.00 Z" />
  <path id="Solsona"
        fill="none" stroke="black" stroke-width="1"
        d="M 721.00,987.00
           C 721.00,987.00 749.00,987.00 749.00,987.00
             749.00,987.00 764.00,988.00 764.00,988.00
             764.00,988.00 785.00,988.00 785.00,988.00
             785.00,988.00 800.00,989.00 800.00,989.00
             800.00,989.00 817.00,989.00 817.00,989.00
             817.00,989.00 829.00,989.91 829.00,989.91
             837.50,990.39 848.19,985.20 856.00,981.85
             856.00,981.85 900.00,963.42 900.00,963.42
             900.00,963.42 997.00,922.58 997.00,922.58
             1012.36,916.13 1051.27,900.36 1066.00,897.00
             1066.00,897.00 1042.27,926.00 1042.27,926.00
             1042.27,926.00 1008.15,966.00 1008.15,966.00
             1008.15,966.00 965.72,1015.00 965.72,1015.00
             965.72,1015.00 907.15,1081.00 907.15,1081.00
             907.15,1081.00 868.75,1126.00 868.75,1126.00
             865.73,1129.63 857.20,1141.32 853.00,1142.03
             850.32,1142.48 843.70,1139.15 841.00,1138.00
             841.00,1138.00 810.00,1123.22 810.00,1123.22
             793.41,1114.46 777.25,1107.11 763.17,1094.47
             760.78,1092.31 758.19,1090.33 756.18,1087.79
             744.48,1073.03 745.09,1050.46 740.09,1033.00
             740.09,1033.00 730.74,1008.00 730.74,1008.00
             730.74,1008.00 721.00,987.00 721.00,987.00 Z" />
  <path id="Carasi"
        fill="none" stroke="black" stroke-width="1"
        d="M 856.00,798.00
           C 874.36,789.57 880.87,788.31 898.00,775.61
             919.91,759.37 939.24,738.81 964.83,728.26
             981.56,721.36 1003.13,720.87 1021.00,721.00
             1028.79,721.06 1044.36,722.74 1052.00,724.36
             1054.29,724.85 1060.44,725.57 1061.64,727.56
             1062.73,729.30 1061.81,734.83 1061.64,737.00
             1061.64,737.00 1060.00,761.00 1060.00,761.00
             1060.00,761.00 1062.25,809.00 1062.25,809.00
             1062.25,809.00 1062.25,824.00 1062.25,824.00
             1061.88,833.50 1062.21,842.51 1063.04,852.00
             1063.04,852.00 1065.50,874.99 1065.50,874.99
             1066.63,880.77 1069.48,889.58 1069.00,895.00
             1062.73,894.80 1054.95,898.01 1049.00,900.00
             1049.00,900.00 1005.99,916.73 1005.99,916.73
             1005.99,916.73 939.96,944.19 939.96,944.19
             939.96,944.19 913.00,955.31 913.00,955.31
             913.00,955.31 893.00,952.29 893.00,952.29
             886.00,951.43 882.57,952.92 876.00,953.00
             876.00,953.00 850.58,951.61 850.58,951.61
             847.81,951.17 843.43,949.77 841.60,947.59
             837.84,943.10 840.61,931.18 842.24,925.96
             847.48,909.19 862.26,888.36 873.00,874.28
             880.52,864.42 889.28,861.48 889.82,855.00
             890.31,849.23 883.21,842.04 880.00,837.72
             880.00,837.72 865.63,815.28 865.63,815.28
             862.68,810.70 857.33,802.91 856.00,798.00 Z" />
  <path id="Piddig"
        fill="none" stroke="black" stroke-width="1"
        d="M 651.00,904.00
           C 651.00,904.00 652.17,887.00 652.17,887.00
             653.12,883.81 657.87,878.07 659.97,875.00
             661.58,872.65 663.57,868.73 666.21,867.60
             668.37,866.67 676.21,867.03 679.00,867.00
             687.74,866.89 699.40,865.04 708.00,863.21
             745.05,855.34 766.62,844.98 800.00,828.25
             800.00,828.25 839.00,806.26 839.00,806.26
             842.40,804.50 850.13,799.43 853.68,801.70
             855.79,803.06 860.99,811.46 862.58,814.00
             868.20,822.98 874.39,833.92 880.92,842.00
             883.55,845.26 888.55,851.49 887.30,856.00
             886.46,859.02 874.99,868.79 871.67,873.00
             871.67,873.00 860.28,889.00 860.28,889.00
             850.44,903.06 845.71,909.26 840.34,926.00
             838.37,932.16 835.01,943.21 839.65,948.66
             844.24,954.06 858.20,954.99 865.00,955.00
             865.00,955.00 893.00,955.00 893.00,955.00
             898.49,955.01 903.14,955.12 908.00,958.00
             908.00,958.00 859.00,978.28 859.00,978.28
             850.60,981.89 838.06,988.06 829.00,987.24
             829.00,987.24 820.00,987.24 820.00,987.24
             820.00,987.24 797.00,986.00 797.00,986.00
             797.00,986.00 775.00,986.00 775.00,986.00
             775.00,986.00 759.00,985.00 759.00,985.00
             759.00,985.00 729.00,985.00 729.00,985.00
             729.00,985.00 714.00,983.86 714.00,983.86
             714.00,983.86 691.00,983.86 691.00,983.86
             689.01,984.00 685.86,984.08 684.00,983.86
             677.81,981.88 672.33,973.62 669.87,968.00
             664.68,956.10 663.28,938.20 661.08,925.00
             659.78,917.21 658.55,908.16 651.00,904.00 Z" />
  <path id="Sarrat"
        fill="none" stroke="black" stroke-width="1"
        d="M 543.00,1035.00
           C 544.09,1027.44 548.59,1018.41 551.32,1011.00
             551.32,1011.00 571.52,958.00 571.52,958.00
             571.52,958.00 578.93,939.00 578.93,939.00
             579.99,936.03 581.35,930.93 583.68,928.81
             585.30,927.35 590.69,925.72 593.00,924.80
             593.00,924.80 609.00,917.68 609.00,917.68
             619.09,913.00 628.93,908.29 640.01,906.61
             643.25,905.91 649.00,904.88 651.79,906.61
             657.60,910.73 659.15,926.27 660.25,933.00
             661.51,940.71 663.06,955.29 665.38,962.00
             668.92,972.25 671.53,974.99 678.00,983.00
             664.45,983.55 647.66,993.84 643.11,1007.00
             641.40,1011.92 641.30,1025.30 640.91,1031.00
             640.91,1031.00 640.00,1043.00 640.00,1043.00
             640.00,1043.00 640.66,1058.00 640.66,1058.00
             640.66,1058.00 641.56,1093.00 641.56,1093.00
             641.87,1099.47 642.14,1110.10 639.64,1116.00
             635.31,1126.25 629.05,1129.84 620.00,1135.48
             602.11,1146.62 585.85,1150.72 566.00,1156.00
             562.93,1144.87 570.11,1125.46 572.57,1114.04
             575.87,1098.71 572.80,1093.29 569.50,1079.00
             566.79,1067.27 562.72,1047.21 552.91,1039.49
             550.09,1037.27 546.41,1035.97 543.00,1035.00 Z" />
  <path id="San Nicolas"
        fill="none" stroke="black" stroke-width="1"
        d="M 580.00,929.00
           C 580.00,929.00 570.42,955.00 570.42,955.00
             570.42,955.00 550.19,1008.00 550.19,1008.00
             550.19,1008.00 543.34,1026.00 543.34,1026.00
             542.43,1028.30 541.33,1032.39 538.73,1033.23
             535.75,1034.19 530.50,1031.43 528.00,1029.94
             519.69,1024.96 514.08,1021.37 505.00,1017.42
             497.83,1014.31 490.52,1011.58 483.00,1009.43
             480.46,1008.70 475.83,1008.12 474.57,1005.57
             474.57,1005.57 473.80,995.91 473.80,995.91
             473.25,992.49 470.21,979.17 470.75,977.09
             471.50,974.22 478.28,967.81 480.48,965.00
             485.71,958.33 490.88,948.61 494.76,941.00
             500.01,930.67 508.37,914.94 522.00,916.11
             530.86,916.87 541.01,928.78 550.00,932.64
             559.30,936.64 570.89,931.98 580.00,929.00 Z" />
  <path id="Laoag"
        fill="none" stroke="black" stroke-width="1"
        d="M 413.00,895.00
           C 411.99,883.22 422.57,879.10 429.83,871.83
             437.10,864.57 448.48,847.17 454.31,838.00
             464.63,821.75 467.83,800.60 476.76,783.00
             478.79,778.99 485.18,767.09 489.17,765.64
             496.56,762.95 505.56,770.88 508.55,777.00
             510.32,780.61 509.98,784.11 510.00,788.00
             510.00,788.00 510.83,798.00 510.83,798.00
             511.85,808.17 512.09,811.58 521.00,818.24
             542.08,834.02 586.03,847.24 612.00,854.71
             626.29,858.82 648.53,865.87 663.00,866.00
             663.00,866.00 649.79,887.00 649.79,887.00
             648.86,890.47 651.42,898.65 648.10,902.26
             646.28,904.24 642.52,903.92 640.00,904.30
             635.72,904.93 628.14,907.19 624.00,908.69
             624.00,908.69 604.00,917.69 604.00,917.69
             594.21,922.19 587.25,924.64 577.00,927.72
             570.88,929.56 563.41,932.24 557.00,931.95
             541.78,931.27 529.28,907.71 514.00,914.92
             498.63,922.17 489.76,949.23 479.52,963.00
             469.08,977.05 456.23,983.48 439.00,985.07
             436.06,985.35 434.00,985.90 431.00,985.68
             420.80,984.91 415.90,983.99 406.00,982.00
             406.00,982.00 408.51,962.00 408.51,962.00
             410.51,955.23 412.98,958.61 413.00,947.00
             413.00,947.00 412.21,919.00 412.21,919.00
             412.00,917.05 411.92,913.82 412.21,912.02
             414.63,904.19 423.00,905.93 430.00,901.90
             430.00,901.90 457.00,883.00 457.00,883.00
             449.42,879.80 449.40,881.41 442.00,881.91
             432.13,882.59 434.28,880.92 424.00,885.00
             424.00,885.00 427.00,894.00 427.00,894.00
             427.00,894.00 413.00,895.00 413.00,895.00 Z" />
  <path id="Bacarra"
        fill="none" stroke="black" stroke-width="1"
        d="M 490.00,759.00
           C 490.00,759.00 503.32,744.34 503.32,744.34
             503.32,744.34 514.99,741.86 514.99,741.86
             514.99,741.86 528.00,734.71 528.00,734.71
             528.00,734.71 550.00,734.00 550.00,734.00
             550.00,734.00 592.00,734.00 592.00,734.00
             592.00,734.00 622.00,731.00 622.00,731.00
             622.00,731.00 595.79,778.00 595.79,778.00
             595.79,778.00 580.25,809.00 580.25,809.00
             580.25,809.00 570.26,829.00 570.26,829.00
             569.27,831.04 567.76,835.52 565.59,836.33
             562.97,837.32 555.75,833.89 553.00,832.85
             543.57,829.28 527.21,821.40 519.75,814.92
             505.19,802.28 518.22,785.40 506.92,770.72
             504.90,768.10 503.16,766.01 500.00,764.72
             497.62,763.75 492.65,763.21 490.00,763.00
             490.00,763.00 490.00,759.00 490.00,759.00 Z" />
  <path id="Vintar"
        fill="none" stroke="black" stroke-width="1"
        d="M 568.00,838.00
           C 568.00,838.00 605.32,764.00 605.32,764.00
             605.32,764.00 621.11,737.00 621.11,737.00
             621.11,737.00 632.47,713.00 632.47,713.00
             632.47,713.00 648.50,694.00 648.50,694.00
             648.50,694.00 671.43,659.00 671.43,659.00
             678.73,648.83 682.33,648.15 685.89,642.96
             693.29,632.20 691.85,618.24 694.65,606.00
             695.40,602.72 697.22,593.97 699.70,591.95
             701.44,590.53 715.11,588.01 718.42,587.14
             718.42,587.14 751.00,575.80 751.00,575.80
             751.00,575.80 842.00,535.23 842.00,535.23
             847.13,532.89 852.49,530.95 857.00,527.47
             862.43,523.29 864.90,518.84 872.00,516.93
             877.96,515.07 883.98,516.93 890.00,516.93
             890.00,516.93 896.00,516.93 896.00,516.93
             907.71,517.02 917.99,522.00 928.00,527.72
             942.22,535.85 958.03,547.94 970.00,559.09
             970.00,559.09 983.00,571.91 983.00,571.91
             994.95,583.02 998.88,581.69 1010.00,588.46
             1016.30,592.30 1030.76,604.67 1035.83,610.04
             1038.24,612.58 1043.87,618.99 1045.16,622.00
             1045.16,622.00 1050.44,643.00 1050.44,643.00
             1054.53,654.27 1060.60,660.40 1063.33,673.00
             1065.35,682.31 1065.04,690.60 1065.00,700.00
             1065.00,700.00 1063.00,724.00 1063.00,724.00
             1063.00,724.00 1038.00,720.17 1038.00,720.17
             1012.22,717.58 981.75,717.63 958.00,729.11
             930.65,742.32 908.38,768.97 883.00,783.14
             883.00,783.14 839.00,803.86 839.00,803.86
             839.00,803.86 797.00,827.69 797.00,827.69
             774.20,840.02 740.29,853.84 715.00,859.42
             715.00,859.42 691.00,864.00 691.00,864.00
             691.00,864.00 682.00,864.00 682.00,864.00
             678.47,864.50 676.86,865.13 673.00,864.91
             649.27,863.56 626.60,856.98 604.00,850.02
             592.36,846.44 578.96,843.09 568.00,838.00 Z" />
  <path id="Pasuquin"
        fill="none" stroke="black" stroke-width="1"
        d="M 482.00,435.00
           C 498.97,435.78 525.25,445.57 538.67,455.60
             538.67,455.60 558.72,473.17 558.72,473.17
             558.72,473.17 572.04,488.00 572.04,488.00
             585.46,502.03 591.99,506.69 603.04,523.66
             603.04,523.66 627.53,561.88 627.53,561.88
             633.84,571.33 639.74,580.95 650.00,586.65
             663.79,594.32 680.90,592.13 696.00,592.00
             696.00,592.00 691.57,610.28 691.57,610.28
             690.52,617.54 689.86,629.47 687.24,636.00
             682.95,646.71 675.34,650.26 668.92,659.03
             654.89,678.22 655.99,684.17 636.04,705.00
             631.22,710.04 629.18,713.75 626.31,720.00
             624.98,722.89 623.89,727.01 620.79,728.41
             620.79,728.41 602.00,731.32 602.00,731.32
             578.92,734.29 562.47,731.97 540.00,732.00
             536.41,732.01 529.27,732.15 526.00,733.21
             522.07,734.47 519.50,737.13 516.00,738.95
             512.89,740.58 509.36,741.11 506.00,742.00
             506.00,742.00 505.00,741.00 505.00,741.00
             505.00,741.00 510.73,730.00 510.73,730.00
             510.73,730.00 524.64,697.00 524.64,697.00
             524.64,697.00 527.09,683.00 527.09,683.00
             527.09,683.00 530.43,674.00 530.43,674.00
             532.65,666.79 533.99,654.59 534.00,647.00
             534.06,607.58 530.79,561.76 519.28,524.00
             515.56,511.80 509.38,508.11 506.79,499.00
             504.82,492.09 506.34,478.86 502.91,473.02
             498.90,466.16 491.26,465.77 487.28,461.73
             482.75,457.14 482.06,441.53 482.00,435.00 Z" />
  <path id="Burgos"
        fill="none" stroke="black" stroke-width="1"
        d="M 717.00,585.00
           C 698.51,590.36 667.27,594.05 650.00,584.12
             642.36,579.73 637.61,573.01 632.58,566.00
             632.58,566.00 607.49,527.00 607.49,527.00
             590.78,501.94 588.59,501.83 568.00,481.00
             568.00,481.00 546.00,459.17 546.00,459.17
             534.74,449.12 517.44,441.01 503.00,436.72
             503.00,436.72 483.30,432.42 483.30,432.42
             480.34,430.93 477.86,423.14 478.46,420.00
             479.30,415.62 487.62,405.25 491.01,402.18
             494.40,399.12 497.58,397.56 500.79,393.96
             504.74,389.52 505.85,383.64 511.09,380.36
             517.04,376.66 524.38,377.45 530.00,374.00
             537.71,369.25 539.53,359.79 544.33,355.42
             548.95,351.20 553.59,353.23 557.35,348.77
             561.34,344.04 559.58,335.85 569.00,332.15
             581.11,327.38 594.07,335.87 605.00,339.23
             605.00,339.23 619.91,342.45 619.91,342.45
             624.81,345.12 624.77,349.66 632.00,352.44
             639.73,355.41 648.86,355.53 657.00,356.09
             657.00,356.09 668.00,357.00 668.00,357.00
             668.00,357.00 700.00,357.00 700.00,357.00
             698.37,368.56 695.02,377.79 695.00,390.00
             694.98,404.81 695.17,413.27 698.42,428.00
             699.87,434.56 701.31,439.91 704.26,446.00
             707.61,452.94 712.52,460.11 712.90,468.00
             713.25,475.47 708.30,482.37 705.31,489.00
             701.78,496.84 700.01,505.43 700.00,514.00
             699.96,540.92 706.63,560.54 717.00,585.00 Z" />
  <path id="Bangui"
        fill="none" stroke="black" stroke-width="1"
        d="M 702.00,358.00
           C 721.40,358.01 730.14,363.85 751.00,355.94
             761.05,352.12 769.78,345.78 779.00,340.42
             781.48,338.98 788.70,334.38 791.00,334.07
             794.08,333.67 799.23,336.37 802.00,337.76
             810.60,342.06 816.99,347.74 827.00,347.99
             840.62,348.32 848.10,344.69 863.00,349.00
             860.54,353.77 854.88,358.04 851.01,362.00
             851.01,362.00 842.93,371.00 842.93,371.00
             833.33,381.58 828.07,387.18 828.00,402.00
             828.00,402.00 828.00,476.00 828.00,476.00
             828.00,476.00 827.00,497.00 827.00,497.00
             827.00,497.00 827.00,525.00 827.00,525.00
             826.96,528.23 826.38,538.13 824.40,540.37
             822.08,543.00 808.93,548.36 805.00,550.26
             805.00,550.26 748.00,574.68 748.00,574.68
             748.00,574.68 728.00,581.86 728.00,581.86
             726.06,582.41 722.11,583.78 720.22,583.22
             716.74,582.18 713.19,570.50 712.00,567.00
             706.18,549.90 701.79,532.17 702.00,514.00
             702.09,506.31 704.15,497.01 707.31,490.00
             710.71,482.46 715.44,475.68 714.91,467.00
             714.22,455.76 705.22,447.95 701.42,431.00
             698.39,417.44 696.98,406.90 697.00,393.00
             697.02,379.19 700.22,370.66 702.00,358.00 Z" />
  <path id="Dumalneg"
        fill="none" stroke="black" stroke-width="1"
        d="M 828.00,539.00
           C 828.00,539.00 829.00,513.00 829.00,513.00
             829.00,513.00 830.00,488.00 830.00,488.00
             830.00,488.00 830.00,406.00 830.00,406.00
             830.02,390.12 832.32,385.71 842.81,373.83
             842.81,373.83 852.07,363.72 852.07,363.72
             855.54,360.35 860.69,354.04 865.00,352.36
             868.02,350.91 870.17,352.06 873.17,352.36
             877.84,353.25 882.75,352.39 887.00,354.44
             891.03,356.38 893.94,359.88 897.03,363.00
             903.95,369.97 907.83,374.26 912.69,383.00
             912.69,383.00 921.40,400.70 921.40,400.70
             931.28,416.32 944.48,427.04 959.00,438.00
             955.34,447.01 950.24,449.81 944.97,464.00
             939.19,479.59 936.00,512.07 936.00,529.00
             936.00,529.00 907.00,516.18 907.00,516.18
             900.64,514.24 894.71,515.29 888.17,514.89
             888.17,514.89 879.00,514.04 879.00,514.04
             865.11,513.60 863.96,520.56 854.00,527.04
             849.29,530.10 833.80,536.68 828.00,539.00 Z" />
  <path id="Adams"
        fill="none" stroke="black" stroke-width="1"
        d="M 1092.00,387.00
           C 1093.13,390.99 1091.54,398.65 1091.05,403.00
             1091.05,403.00 1086.27,439.00 1086.27,439.00
             1082.99,461.97 1079.43,489.16 1072.00,511.00
             1072.00,511.00 1053.70,554.00 1053.70,554.00
             1049.20,563.97 1044.13,575.96 1044.00,587.00
             1044.00,587.00 1044.00,604.00 1044.00,604.00
             1044.00,604.00 1045.00,616.00 1045.00,616.00
             1045.00,616.00 1017.00,590.82 1017.00,590.82
             1006.96,582.99 998.71,581.74 991.00,576.21
             991.00,576.21 966.00,552.95 966.00,552.95
             966.00,552.95 949.00,539.15 949.00,539.15
             946.11,537.04 940.65,533.91 938.80,530.91
             937.29,527.72 938.11,521.53 938.80,518.00
             938.80,518.00 940.58,497.00 940.58,497.00
             942.83,479.95 942.83,473.37 950.45,456.96
             960.65,434.98 985.76,414.24 1007.00,403.26
             1024.36,394.28 1038.61,391.44 1058.00,390.09
             1058.00,390.09 1073.00,389.00 1073.00,389.00
             1080.79,388.91 1084.28,389.55 1092.00,387.00 Z" />
  <path id="Pagudpud"
        fill="none" stroke="black" stroke-width="1"
        d="M 794.00,332.00
           C 796.07,325.88 809.60,308.17 814.12,302.00
             817.48,297.40 822.31,289.77 822.78,284.00
             823.41,276.18 817.24,261.66 813.19,255.00
             809.10,248.29 805.24,244.28 805.02,236.00
             804.56,219.30 815.89,195.61 833.00,190.93
             841.23,188.67 851.54,191.22 860.00,191.82
             871.98,192.66 883.74,181.42 892.00,173.93
             899.44,167.18 904.04,161.23 913.98,167.35
             920.33,171.26 921.41,180.28 925.21,187.00
             926.66,189.57 929.10,192.12 929.79,195.00
             930.18,198.32 927.50,204.15 929.79,207.57
             933.24,212.09 939.42,207.50 941.98,210.61
             943.30,212.22 942.95,216.83 943.17,219.00
             943.60,223.24 944.55,227.35 946.81,231.00
             952.59,240.34 958.36,241.32 967.58,254.00
             967.58,254.00 992.17,290.99 992.17,290.99
             1002.94,302.77 1016.97,306.95 1032.00,310.21
             1037.32,311.36 1040.47,312.85 1046.00,312.99
             1061.55,313.36 1074.82,307.28 1084.48,295.00
             1091.52,286.05 1093.35,278.40 1103.00,269.00
             1103.00,269.00 1101.17,291.00 1101.17,291.00
             1101.17,291.00 1099.17,316.00 1099.17,316.00
             1099.17,316.00 1093.00,385.00 1093.00,385.00
             1080.24,387.40 1082.91,386.98 1070.00,387.00
             1051.22,387.03 1024.53,391.37 1008.00,400.31
             996.55,406.50 983.34,415.00 974.00,424.01
             971.32,426.60 963.60,435.40 960.00,435.13
             957.86,434.96 954.70,432.41 953.00,431.11
             953.00,431.11 939.00,418.99 939.00,418.99
             913.94,394.42 919.97,378.02 892.00,355.47
             883.88,348.92 879.04,351.60 870.00,349.61
             866.02,348.74 863.61,346.53 858.00,345.57
             850.74,344.10 836.63,345.11 829.00,345.57
             816.79,346.59 807.35,336.66 794.00,332.00 Z" />
</svg>
