<?xml version="1.0" encoding="UTF-8" standalone="no"?>
<!DOCTYPE svg PUBLIC "-//W3C//DTD SVG 20010904//EN"
              "http://www.w3.org/TR/2001/REC-SVG-20010904/DTD/svg10.dtd">

<svg xmlns="http://www.w3.org/2000/svg"
     width="988.36mm" height="1482.19mm"
     viewBox="0 0 2802 4202">
  <path id="Sugpon"
        fill="none" stroke="black" stroke-width="1"
        d="M 1523.00,3657.00
           C 1532.00,3655.54 1532.36,3648.50 1533.80,3641.00
             1535.69,3631.18 1538.68,3622.75 1534.49,3613.00
             1530.93,3604.71 1524.74,3605.21 1522.44,3591.00
             1520.70,3580.31 1522.29,3564.97 1513.90,3557.33
             1509.13,3552.99 1494.70,3548.29 1488.00,3545.60
             1484.16,3544.06 1478.63,3542.38 1477.45,3537.91
             1476.15,3533.00 1480.92,3527.00 1483.42,3523.00
             1488.41,3515.04 1495.87,3502.47 1496.00,3493.00
             1496.00,3493.00 1496.00,3486.00 1496.00,3486.00
             1495.92,3479.97 1495.28,3479.33 1492.78,3474.00
             1491.81,3471.92 1490.60,3468.86 1489.30,3467.09
             1482.84,3458.28 1470.74,3455.70 1461.00,3452.66
             1453.21,3450.23 1435.15,3445.76 1430.85,3438.96
             1429.08,3436.14 1429.04,3433.20 1429.00,3430.00
             1428.77,3410.61 1428.98,3391.21 1431.73,3372.00
             1432.96,3363.39 1433.73,3353.71 1442.00,3348.61
             1446.28,3345.98 1453.49,3349.01 1458.00,3350.29
             1458.00,3350.29 1497.00,3360.58 1497.00,3360.58
             1497.00,3360.58 1602.00,3388.15 1602.00,3388.15
             1602.00,3388.15 1656.00,3403.86 1656.00,3403.86
             1656.00,3403.86 1735.00,3427.00 1735.00,3427.00
             1735.00,3427.00 1750.00,3431.42 1750.00,3431.42
             1752.11,3432.03 1755.79,3432.89 1757.25,3434.56
             1758.71,3436.23 1758.52,3437.96 1758.38,3440.00
             1758.38,3440.00 1749.17,3540.00 1749.17,3540.00
             1749.17,3540.00 1738.83,3648.00 1738.83,3648.00
             1738.83,3648.00 1735.17,3681.00 1735.17,3681.00
             1735.17,3681.00 1731.17,3720.00 1731.17,3720.00
             1731.17,3720.00 1728.71,3747.00 1728.71,3747.00
             1728.71,3747.00 1723.61,3777.00 1723.61,3777.00
             1723.61,3777.00 1720.24,3797.00 1720.24,3797.00
             1717.60,3807.26 1707.01,3835.47 1702.25,3845.00
             1685.84,3877.81 1676.63,3894.35 1652.75,3923.00
             1647.06,3929.83 1636.11,3944.84 1628.00,3947.38
             1616.58,3950.95 1611.62,3945.61 1604.00,3938.00
             1604.00,3938.00 1590.00,3924.21 1590.00,3924.21
             1583.81,3918.97 1576.84,3917.64 1569.00,3917.00
             1571.94,3911.28 1576.45,3910.04 1577.48,3905.00
             1577.96,3902.65 1576.69,3896.57 1576.20,3894.00
             1575.73,3891.58 1575.14,3888.22 1574.20,3886.00
             1573.10,3883.40 1563.52,3868.30 1561.62,3866.32
             1559.44,3864.05 1552.91,3859.79 1550.00,3858.40
             1550.00,3858.40 1526.00,3852.14 1526.00,3852.14
             1521.61,3850.87 1516.65,3849.30 1514.43,3844.91
             1512.89,3841.86 1513.01,3837.36 1513.00,3834.00
             1513.00,3834.00 1513.00,3822.00 1513.00,3822.00
             1513.00,3813.62 1513.97,3806.86 1503.00,3807.00
             1503.00,3807.00 1503.00,3787.00 1503.00,3787.00
             1503.00,3785.01 1502.88,3781.90 1503.60,3780.09
             1505.04,3776.43 1516.87,3768.06 1520.47,3763.83
             1522.60,3761.33 1524.33,3757.87 1526.01,3755.00
             1530.88,3746.71 1536.53,3737.06 1535.82,3727.00
             1535.82,3727.00 1535.00,3708.00 1535.00,3708.00
             1535.00,3708.00 1534.09,3696.00 1534.09,3696.00
             1533.50,3687.43 1534.23,3681.68 1524.00,3679.00
             1524.00,3679.00 1523.00,3657.00 1523.00,3657.00 Z" />
  <path id="Taguidin"
        fill="none" stroke="black" stroke-width="1"
        d="M 1267.51,3021.02
           C 1271.83,3019.26 1281.04,3019.92 1286.00,3020.00
             1297.56,3020.20 1296.55,3026.82 1310.00,3029.60
             1312.48,3030.11 1318.34,3030.58 1319.22,3033.31
             1320.02,3035.82 1316.77,3042.27 1315.83,3045.00
             1313.80,3051.61 1313.44,3058.41 1315.83,3065.00
             1317.43,3069.74 1321.12,3073.99 1324.13,3078.00
             1329.29,3084.88 1340.15,3097.93 1346.17,3103.71
             1365.60,3122.39 1396.39,3133.27 1422.00,3140.57
             1422.00,3140.57 1442.00,3145.63 1442.00,3145.63
             1444.17,3146.17 1448.62,3146.94 1450.01,3148.72
             1451.42,3150.54 1451.04,3157.53 1451.00,3160.00
             1450.79,3171.24 1443.76,3168.59 1440.03,3176.01
             1438.33,3179.39 1440.02,3181.95 1438.23,3184.79
             1436.99,3186.77 1429.51,3191.41 1427.00,3193.46
             1421.16,3198.24 1410.89,3209.23 1404.00,3211.35
             1401.55,3212.11 1398.56,3212.00 1396.00,3212.00
             1396.00,3212.00 1381.00,3211.04 1381.00,3211.04
             1381.00,3211.04 1368.00,3211.04 1368.00,3211.04
             1368.00,3211.04 1342.00,3209.49 1342.00,3209.49
             1333.50,3207.74 1323.84,3203.58 1315.00,3204.09
             1315.00,3204.09 1306.00,3205.57 1306.00,3205.57
             1306.00,3205.57 1295.00,3207.49 1295.00,3207.49
             1281.99,3211.04 1263.47,3223.42 1251.00,3228.83
             1245.12,3231.38 1230.48,3235.20 1224.00,3235.96
             1224.00,3235.96 1216.00,3235.96 1216.00,3235.96
             1216.00,3235.96 1208.00,3236.79 1208.00,3236.79
             1197.70,3236.19 1196.47,3228.06 1187.00,3224.99
             1181.26,3223.13 1168.80,3224.78 1164.32,3221.15
             1160.42,3217.99 1164.19,3211.53 1165.97,3208.00
             1165.97,3208.00 1186.15,3174.00 1186.15,3174.00
             1186.15,3174.00 1211.74,3132.00 1211.74,3132.00
             1224.12,3113.69 1237.88,3094.75 1247.75,3075.00
             1253.85,3062.81 1257.21,3055.30 1260.85,3042.00
             1262.39,3036.38 1263.92,3025.08 1267.51,3021.02 Z" />
  <path id="Alilem"
        fill="none" stroke="black" stroke-width="1"
        d="M 1458.00,3150.00
           C 1479.26,3155.64 1501.23,3157.12 1523.00,3159.42
             1523.00,3159.42 1569.00,3164.00 1569.00,3164.00
             1569.00,3164.00 1579.00,3164.00 1579.00,3164.00
             1579.00,3164.00 1594.00,3165.04 1594.00,3165.04
             1594.00,3165.04 1618.00,3165.04 1618.00,3165.04
             1618.00,3165.04 1628.00,3165.88 1628.00,3165.88
             1628.00,3165.88 1636.00,3165.88 1636.00,3165.88
             1636.00,3165.88 1675.00,3165.88 1675.00,3165.88
             1675.00,3165.88 1698.00,3164.00 1698.00,3164.00
             1698.00,3164.00 1750.00,3160.00 1750.00,3160.00
             1750.00,3160.00 1758.00,3160.00 1758.00,3160.00
             1758.00,3160.00 1799.00,3155.83 1799.00,3155.83
             1799.00,3155.83 1839.00,3151.00 1839.00,3151.00
             1843.97,3169.42 1850.71,3175.00 1857.37,3189.00
             1857.37,3189.00 1869.00,3225.00 1869.00,3225.00
             1869.00,3225.00 1850.00,3230.46 1850.00,3230.46
             1833.44,3236.94 1820.00,3244.79 1807.17,3257.29
             1804.59,3259.81 1801.59,3264.01 1799.42,3267.00
             1788.81,3281.70 1788.84,3284.54 1782.58,3301.00
             1782.58,3301.00 1774.21,3323.00 1774.21,3323.00
             1774.21,3323.00 1765.28,3370.00 1765.28,3370.00
             1765.28,3370.00 1761.06,3407.96 1761.06,3407.96
             1761.06,3407.96 1759.00,3427.00 1759.00,3427.00
             1759.00,3427.00 1655.00,3396.58 1655.00,3396.58
             1655.00,3396.58 1590.00,3377.88 1590.00,3377.88
             1590.00,3377.88 1506.00,3355.88 1506.00,3355.88
             1506.00,3355.88 1450.00,3341.00 1450.00,3341.00
             1452.45,3337.08 1455.46,3333.26 1457.27,3329.00
             1460.55,3321.34 1462.41,3301.18 1459.14,3293.42
             1457.00,3288.36 1451.74,3287.23 1450.02,3284.59
             1448.62,3282.43 1448.98,3276.68 1449.00,3274.00
             1449.00,3274.00 1451.10,3254.28 1451.10,3254.28
             1451.10,3254.28 1452.91,3232.00 1452.91,3232.00
             1452.91,3232.00 1453.59,3219.00 1453.59,3219.00
             1453.59,3219.00 1455.66,3196.91 1455.66,3196.91
             1456.11,3192.98 1456.92,3188.51 1454.29,3185.13
             1451.70,3181.81 1448.78,3182.05 1445.00,3182.00
             1445.80,3172.36 1452.53,3173.88 1455.98,3167.82
             1456.81,3166.35 1457.77,3152.79 1458.00,3150.00 Z" />
  <path id="Cervantes"
        fill="none" stroke="black" stroke-width="1"
        d="M 1750.00,2742.00
           C 1750.00,2742.00 1801.00,2753.35 1801.00,2753.35
             1801.00,2753.35 1861.00,2767.15 1861.00,2767.15
             1861.00,2767.15 1906.00,2780.42 1906.00,2780.42
             1906.00,2780.42 1945.00,2792.14 1945.00,2792.14
             1953.79,2794.67 1957.57,2796.98 1967.00,2797.00
             1967.00,2797.00 2047.00,2797.00 2047.00,2797.00
             2061.99,2797.02 2067.89,2805.82 2081.00,2806.00
             2081.00,2806.00 2152.00,2806.00 2152.00,2806.00
             2152.00,2806.00 2168.00,2807.00 2168.00,2807.00
             2168.00,2807.00 2172.00,2807.00 2172.00,2807.00
             2173.78,2807.01 2176.82,2806.83 2178.26,2807.99
             2180.15,2809.52 2179.91,2812.82 2180.03,2815.00
             2180.03,2815.00 2181.29,2828.00 2181.29,2828.00
             2181.29,2828.00 2185.92,2856.00 2185.92,2856.00
             2185.92,2856.00 2191.61,2892.00 2191.61,2892.00
             2191.61,2892.00 2203.72,2966.00 2203.72,2966.00
             2203.72,2966.00 2207.17,3001.00 2207.17,3001.00
             2207.17,3001.00 2210.00,3031.00 2210.00,3031.00
             2210.00,3031.00 2210.00,3054.00 2210.00,3054.00
             2209.98,3069.75 2205.27,3096.36 2199.54,3111.00
             2193.67,3126.00 2184.93,3139.76 2174.56,3152.00
             2170.64,3156.63 2166.65,3159.76 2162.00,3163.58
             2145.55,3177.06 2137.62,3180.94 2119.00,3190.25
             2105.25,3197.12 2080.61,3207.39 2066.00,3211.57
             2066.00,3211.57 2045.00,3216.42 2045.00,3216.42
             2032.04,3219.29 2024.55,3221.85 2011.00,3222.00
             2011.00,3222.00 1986.00,3223.68 1986.00,3223.68
             1986.00,3223.68 1978.00,3222.96 1978.00,3222.96
             1978.00,3222.96 1966.00,3222.96 1966.00,3222.96
             1966.00,3222.96 1954.00,3222.00 1954.00,3222.00
             1954.00,3222.00 1898.00,3222.00 1898.00,3222.00
             1898.00,3222.00 1883.00,3223.29 1883.00,3223.29
             1880.94,3223.38 1877.28,3224.27 1875.43,3223.29
             1873.01,3222.30 1871.79,3216.50 1871.02,3214.00
             1871.02,3214.00 1862.91,3189.00 1862.91,3189.00
             1862.91,3189.00 1856.42,3177.00 1856.42,3177.00
             1852.79,3170.58 1845.37,3155.82 1843.61,3149.00
             1842.75,3145.67 1840.89,3127.60 1841.04,3124.00
             1841.04,3124.00 1842.00,3111.00 1842.00,3111.00
             1842.00,3111.00 1843.00,3071.00 1843.00,3071.00
             1842.92,3064.53 1840.75,3056.49 1839.45,3050.00
             1835.48,3030.18 1831.03,3018.02 1831.00,2997.00
             1831.00,2997.00 1831.00,2980.00 1831.00,2980.00
             1831.00,2980.00 1829.00,2949.00 1829.00,2949.00
             1829.00,2949.00 1829.00,2942.00 1829.00,2942.00
             1829.00,2942.00 1823.42,2908.00 1823.42,2908.00
             1823.42,2908.00 1817.11,2874.00 1817.11,2874.00
             1817.11,2874.00 1799.30,2819.00 1799.30,2819.00
             1799.30,2819.00 1785.28,2793.00 1785.28,2793.00
             1785.28,2793.00 1769.56,2766.17 1769.56,2766.17
             1764.43,2759.58 1751.28,2749.78 1750.00,2742.00 Z" />
  <path id="Sigay"
        fill="none" stroke="black" stroke-width="1"
        d="M 1824.00,3014.13
           C 1824.00,3014.13 1772.00,3014.13 1772.00,3014.13
             1772.00,3014.13 1765.00,3014.13 1765.00,3014.13
             1761.52,3014.29 1759.77,3015.09 1756.00,3014.82
             1756.00,3014.82 1701.00,3009.17 1701.00,3009.17
             1701.00,3009.17 1651.00,3003.33 1651.00,3003.33
             1635.13,3000.06 1620.50,2990.63 1610.38,2978.00
             1610.38,2978.00 1598.58,2960.00 1598.58,2960.00
             1590.22,2946.66 1591.56,2950.20 1585.00,2935.00
             1585.00,2935.00 1576.49,2915.00 1576.49,2915.00
             1571.94,2898.40 1574.02,2892.93 1571.68,2879.00
             1567.51,2854.21 1545.62,2849.92 1545.01,2823.00
             1544.82,2814.27 1547.43,2800.93 1551.03,2793.00
             1551.03,2793.00 1559.80,2778.00 1559.80,2778.00
             1559.80,2778.00 1568.78,2763.00 1568.78,2763.00
             1571.92,2758.66 1579.88,2751.12 1584.00,2747.00
             1595.89,2735.11 1606.32,2725.42 1622.00,2718.58
             1622.00,2718.58 1636.91,2712.04 1636.91,2712.04
             1639.28,2710.73 1640.30,2709.04 1643.09,2708.16
             1644.76,2707.88 1650.94,2707.98 1653.00,2708.16
             1660.52,2708.09 1683.26,2709.45 1690.00,2711.04
             1708.41,2715.38 1715.30,2724.76 1729.00,2736.83
             1729.00,2736.83 1740.00,2745.42 1740.00,2745.42
             1750.20,2753.38 1750.75,2754.95 1759.00,2764.00
             1766.72,2772.47 1769.83,2779.38 1775.60,2789.00
             1789.48,2812.15 1792.81,2816.98 1800.42,2843.00
             1800.42,2843.00 1810.26,2874.00 1810.26,2874.00
             1810.26,2874.00 1816.43,2907.00 1816.43,2907.00
             1818.50,2919.30 1821.98,2931.46 1822.00,2944.00
             1822.00,2944.00 1823.00,2961.00 1823.00,2961.00
             1823.00,2961.00 1824.00,3014.13 1824.00,3014.13 Z" />
  <path id="Suyo"
        fill="none" stroke="black" stroke-width="1"
        d="M 1837.00,3145.00
           C 1837.00,3145.00 1793.00,3150.83 1793.00,3150.83
             1793.00,3150.83 1748.00,3155.00 1748.00,3155.00
             1748.00,3155.00 1739.00,3155.00 1739.00,3155.00
             1739.00,3155.00 1717.00,3157.00 1717.00,3157.00
             1717.00,3157.00 1690.00,3158.09 1690.00,3158.09
             1690.00,3158.09 1678.00,3159.00 1678.00,3159.00
             1678.00,3159.00 1610.00,3159.00 1610.00,3159.00
             1610.00,3159.00 1595.00,3158.00 1595.00,3158.00
             1595.00,3158.00 1574.00,3158.00 1574.00,3158.00
             1574.00,3158.00 1564.00,3157.09 1564.00,3157.09
             1564.00,3157.09 1526.00,3153.17 1526.00,3153.17
             1526.00,3153.17 1490.00,3149.71 1490.00,3149.71
             1471.17,3147.17 1452.40,3142.47 1434.00,3137.87
             1411.28,3132.19 1377.74,3121.52 1359.00,3107.84
             1349.79,3101.12 1346.30,3096.14 1338.93,3088.00
             1332.15,3080.52 1318.47,3064.47 1319.47,3054.00
             1320.25,3045.78 1323.17,3041.16 1326.75,3034.00
             1326.75,3034.00 1345.23,3000.00 1345.23,3000.00
             1363.36,2966.64 1383.78,2934.16 1403.95,2902.00
             1417.81,2879.91 1413.96,2886.21 1430.58,2867.00
             1435.51,2861.30 1441.76,2853.22 1448.00,2849.32
             1456.97,2843.73 1466.86,2842.66 1477.00,2840.13
             1477.00,2840.13 1515.00,2829.79 1515.00,2829.79
             1519.05,2828.92 1533.39,2825.04 1536.57,2826.58
             1540.32,2828.39 1538.23,2834.66 1543.37,2843.00
             1549.73,2853.30 1561.64,2866.26 1564.39,2877.00
             1565.36,2880.78 1564.95,2888.73 1565.00,2893.00
             1565.15,2905.52 1571.15,2919.71 1576.14,2931.00
             1584.59,2950.13 1583.75,2949.06 1595.31,2967.00
             1605.17,2982.31 1610.88,2990.93 1627.00,3000.81
             1627.00,3000.81 1636.00,3006.10 1636.00,3006.10
             1649.15,3012.00 1673.25,3012.41 1688.00,3014.42
             1688.00,3014.42 1723.00,3018.28 1723.00,3018.28
             1723.00,3018.28 1759.00,3022.00 1759.00,3022.00
             1759.00,3022.00 1781.00,3022.00 1781.00,3022.00
             1781.00,3022.00 1797.00,3021.00 1797.00,3021.00
             1807.09,3020.98 1816.98,3021.32 1827.00,3020.00
             1827.00,3020.00 1831.12,3038.00 1831.12,3038.00
             1834.17,3050.90 1837.15,3065.81 1837.00,3079.00
             1837.00,3079.00 1836.00,3092.00 1836.00,3092.00
             1836.00,3092.00 1836.00,3114.00 1836.00,3114.00
             1836.00,3114.00 1835.18,3128.00 1835.18,3128.00
             1835.18,3128.00 1837.00,3145.00 1837.00,3145.00 Z" />
  <path id="Santa Cruz"
        fill="none" stroke="black" stroke-width="1"
        d="M 1617.00,2714.00
           C 1603.40,2719.89 1593.33,2728.67 1583.00,2739.00
             1583.00,2739.00 1564.38,2758.00 1564.38,2758.00
             1564.38,2758.00 1545.49,2790.00 1545.49,2790.00
             1544.04,2792.83 1540.22,2804.74 1539.52,2808.00
             1538.88,2810.94 1539.00,2816.18 1537.07,2818.42
             1535.46,2820.27 1531.35,2820.73 1529.00,2821.20
             1529.00,2821.20 1511.00,2824.88 1511.00,2824.88
             1511.00,2824.88 1471.00,2836.12 1471.00,2836.12
             1461.58,2838.59 1449.75,2840.94 1442.09,2847.39
             1442.09,2847.39 1425.91,2865.00 1425.91,2865.00
             1425.91,2865.00 1409.04,2884.00 1409.04,2884.00
             1409.04,2884.00 1390.58,2913.00 1390.58,2913.00
             1390.58,2913.00 1355.28,2972.00 1355.28,2972.00
             1355.28,2972.00 1333.00,3011.00 1333.00,3011.00
             1331.20,3014.15 1326.60,3024.12 1323.61,3025.17
             1321.59,3026.29 1317.22,3025.29 1315.00,3025.17
             1297.31,3021.94 1302.10,3019.29 1291.00,3014.53
             1285.96,3012.37 1280.35,3013.09 1275.00,3013.00
             1273.14,3012.96 1270.28,3013.09 1268.99,3011.40
             1267.91,3009.81 1268.64,3006.80 1268.99,3005.00
             1268.99,3005.00 1271.39,2990.00 1271.39,2990.00
             1274.61,2972.07 1275.97,2954.19 1276.00,2936.00
             1276.00,2936.00 1277.00,2913.00 1277.00,2913.00
             1276.84,2899.73 1269.03,2894.17 1269.00,2878.00
             1268.97,2859.72 1269.41,2840.98 1265.48,2823.00
             1265.48,2823.00 1255.86,2796.00 1255.86,2796.00
             1255.86,2796.00 1246.76,2767.00 1246.76,2767.00
             1244.74,2759.17 1242.10,2725.06 1242.00,2716.00
             1242.00,2716.00 1240.00,2687.00 1240.00,2687.00
             1240.01,2684.87 1239.75,2681.49 1241.60,2680.02
             1244.45,2677.76 1259.94,2678.98 1263.91,2676.83
             1267.73,2674.75 1269.38,2669.87 1272.46,2667.99
             1274.49,2666.76 1277.68,2667.00 1280.00,2667.00
             1280.00,2667.00 1371.00,2667.00 1371.00,2667.00
             1374.15,2667.01 1377.11,2666.71 1379.83,2668.60
             1383.32,2671.03 1384.32,2674.97 1390.00,2676.07
             1390.00,2676.07 1398.00,2676.07 1398.00,2676.07
             1435.55,2680.73 1441.81,2678.00 1477.00,2678.00
             1477.07,2680.76 1476.98,2683.44 1478.74,2685.78
             1481.79,2689.83 1496.79,2691.61 1502.00,2691.91
             1511.16,2692.43 1514.52,2687.58 1521.00,2688.25
             1521.00,2688.25 1537.00,2694.23 1537.00,2694.23
             1546.76,2697.16 1555.90,2697.98 1566.00,2698.00
             1569.89,2698.01 1574.34,2697.64 1577.39,2700.51
             1579.85,2702.83 1581.05,2707.01 1584.21,2709.02
             1587.24,2710.94 1593.44,2711.07 1597.00,2710.99
             1605.27,2710.80 1607.73,2708.75 1617.00,2710.99
             1617.00,2710.99 1617.00,2714.00 1617.00,2714.00 Z" />
  <path id="Quirino"
        fill="none" stroke="black" stroke-width="1"
        d="M 1789.00,2744.00
           C 1789.00,2744.00 1789.00,2606.00 1789.00,2606.00
             1789.00,2606.00 1789.00,2569.00 1789.00,2569.00
             1789.00,2569.00 1788.27,2544.17 1788.27,2544.17
             1788.60,2541.65 1789.67,2540.99 1789.95,2536.99
             1790.30,2531.92 1789.40,2529.50 1789.04,2525.00
             1789.04,2525.00 1789.04,2513.00 1789.04,2513.00
             1789.04,2513.00 1788.00,2492.00 1788.00,2492.00
             1788.00,2492.00 1789.00,2477.00 1789.00,2477.00
             1789.00,2477.00 1789.00,2419.00 1789.00,2419.00
             1789.02,2410.36 1789.36,2410.02 1798.00,2410.00
             1798.00,2410.00 1857.00,2410.00 1857.00,2410.00
             1857.00,2410.00 1878.00,2411.00 1878.00,2411.00
             1878.04,2414.20 1877.80,2417.14 1880.31,2419.57
             1882.99,2422.16 1886.59,2421.86 1890.00,2422.14
             1897.19,2423.17 1906.97,2423.71 1914.00,2422.14
             1920.36,2437.18 1913.93,2452.23 1925.39,2467.00
             1933.93,2478.01 1954.40,2496.50 1968.00,2500.37
             1970.60,2501.10 1973.32,2501.00 1976.00,2501.00
             1976.00,2501.00 1985.00,2501.00 1985.00,2501.00
             1995.93,2500.87 1995.43,2498.71 2010.00,2500.17
             2010.00,2500.17 2025.00,2501.44 2025.00,2501.44
             2038.92,2503.61 2052.83,2506.98 2067.00,2507.00
             2067.00,2507.00 2082.00,2507.00 2082.00,2507.00
             2082.00,2507.00 2112.00,2504.83 2112.00,2504.83
             2112.00,2504.83 2130.00,2503.00 2130.00,2503.00
             2130.00,2503.00 2160.00,2501.00 2160.00,2501.00
             2171.26,2500.98 2198.00,2502.63 2207.00,2497.53
             2226.68,2486.40 2232.59,2465.48 2243.60,2447.00
             2245.40,2443.98 2247.98,2439.69 2250.32,2437.17
             2258.98,2427.89 2272.57,2423.06 2285.00,2423.00
             2285.00,2423.00 2314.00,2421.00 2314.00,2421.00
             2314.00,2421.00 2348.00,2421.00 2348.00,2421.00
             2348.00,2421.00 2371.00,2422.96 2371.00,2422.96
             2371.00,2422.96 2381.00,2422.96 2381.00,2422.96
             2381.00,2422.96 2414.00,2425.00 2414.00,2425.00
             2411.42,2430.01 2406.33,2433.13 2402.00,2436.60
             2402.00,2436.60 2379.00,2455.41 2379.00,2455.41
             2379.00,2455.41 2300.00,2523.17 2300.00,2523.17
             2300.00,2523.17 2253.00,2568.00 2253.00,2568.00
             2253.00,2568.00 2237.18,2584.00 2237.18,2584.00
             2237.18,2584.00 2219.28,2609.00 2219.28,2609.00
             2219.28,2609.00 2202.60,2633.00 2202.60,2633.00
             2195.22,2645.41 2184.62,2674.66 2181.51,2689.00
             2181.51,2689.00 2177.00,2719.00 2177.00,2719.00
             2177.00,2719.00 2177.00,2728.00 2177.00,2728.00
             2177.00,2728.00 2175.51,2756.00 2175.51,2756.00
             2175.51,2756.00 2177.04,2771.00 2177.04,2771.00
             2177.04,2771.00 2177.04,2780.00 2177.04,2780.00
             2177.04,2780.00 2179.00,2800.00 2179.00,2800.00
             2179.00,2800.00 2160.00,2799.30 2160.00,2799.30
             2160.00,2799.30 2152.00,2799.90 2152.00,2799.90
             2152.00,2799.90 2082.00,2799.00 2082.00,2799.00
             2064.54,2798.97 2059.05,2788.96 2046.00,2789.37
             2046.00,2789.37 2014.00,2789.37 2014.00,2789.37
             2014.00,2789.37 2008.00,2789.37 2008.00,2789.37
             2008.00,2789.37 1995.00,2789.37 1995.00,2789.37
             1995.00,2789.37 1980.00,2789.96 1980.00,2789.96
             1980.00,2789.96 1965.00,2789.00 1965.00,2789.00
             1965.00,2789.00 1961.00,2789.00 1961.00,2789.00
             1953.75,2788.91 1946.92,2785.99 1940.00,2784.00
             1940.00,2784.00 1903.00,2772.88 1903.00,2772.88
             1903.00,2772.88 1857.00,2759.47 1857.00,2759.47
             1857.00,2759.47 1818.00,2750.58 1818.00,2750.58
             1818.00,2750.58 1789.00,2744.00 1789.00,2744.00 Z" />
  <path id="Santa Cruz #1"
        fill="none" stroke="black" stroke-width="1"
        d="M 1647.00,2699.00
           C 1647.00,2699.00 1649.56,2687.00 1649.56,2687.00
             1650.47,2681.20 1649.93,2674.63 1651.97,2669.00
             1656.00,2657.83 1661.16,2660.43 1660.79,2646.00
             1660.95,2642.28 1659.60,2635.97 1660.79,2633.00
             1661.97,2628.83 1666.95,2625.02 1668.49,2620.00
             1668.49,2620.00 1671.52,2598.00 1671.52,2598.00
             1671.52,2598.00 1679.68,2571.00 1679.68,2571.00
             1680.57,2565.64 1679.07,2560.37 1679.00,2555.00
             1679.00,2555.00 1678.00,2534.00 1678.00,2534.00
             1677.95,2526.38 1678.32,2518.49 1676.62,2511.00
             1675.77,2507.28 1672.07,2500.84 1670.31,2497.00
             1665.48,2486.48 1660.28,2473.73 1652.54,2465.09
             1648.99,2461.14 1637.06,2453.76 1632.00,2451.77
             1626.70,2449.69 1622.11,2450.61 1620.02,2447.57
             1618.82,2445.81 1618.95,2442.10 1619.04,2440.00
             1619.04,2440.00 1619.96,2432.00 1619.96,2432.00
             1619.96,2432.00 1619.96,2421.00 1619.96,2421.00
             1620.05,2418.65 1619.85,2415.81 1622.31,2414.60
             1624.16,2413.69 1632.48,2414.00 1635.00,2413.96
             1635.00,2413.96 1651.00,2413.96 1651.00,2413.96
             1651.00,2413.96 1663.00,2413.00 1663.00,2413.00
             1663.00,2413.00 1692.00,2413.00 1692.00,2413.00
             1692.00,2413.00 1703.00,2412.48 1703.00,2412.48
             1703.00,2412.48 1718.00,2412.48 1718.00,2412.48
             1718.00,2412.48 1727.00,2411.96 1727.00,2411.96
             1727.00,2411.96 1742.00,2411.96 1742.00,2411.96
             1742.00,2411.96 1754.00,2411.00 1754.00,2411.00
             1754.00,2411.00 1781.00,2411.00 1781.00,2411.00
             1781.00,2411.00 1781.00,2537.00 1781.00,2537.00
             1781.00,2537.00 1781.82,2550.09 1781.82,2550.09
             1781.82,2550.09 1781.00,2562.00 1781.00,2562.00
             1781.00,2562.00 1781.00,2741.00 1781.00,2741.00
             1774.43,2740.69 1756.28,2736.16 1749.00,2734.37
             1744.81,2733.35 1737.41,2732.20 1734.00,2730.15
             1729.13,2727.22 1712.57,2710.31 1704.00,2706.84
             1686.12,2699.59 1657.00,2701.84 1647.00,2699.00 Z" />
  <path id="Salcedo"
        fill="none" stroke="black" stroke-width="1"
        d="M 1477.85,2498.00
           C 1484.59,2495.92 1490.28,2491.46 1496.00,2487.67
             1496.00,2487.67 1518.00,2474.44 1518.00,2474.44
             1535.15,2464.90 1568.30,2454.03 1588.00,2454.00
             1598.05,2453.98 1622.36,2454.35 1631.00,2458.08
             1656.78,2469.20 1672.96,2506.20 1673.00,2533.00
             1673.00,2533.00 1673.00,2562.00 1673.00,2562.00
             1672.98,2574.16 1668.20,2582.58 1665.50,2594.00
             1665.50,2594.00 1662.28,2617.00 1662.28,2617.00
             1660.58,2623.17 1655.26,2627.08 1653.56,2632.00
             1651.79,2637.11 1655.62,2646.25 1654.46,2651.00
             1653.74,2653.92 1650.47,2658.11 1648.90,2661.00
             1644.52,2669.06 1643.05,2672.92 1643.00,2682.00
             1642.96,2688.92 1640.62,2702.30 1633.96,2705.83
             1628.88,2708.52 1612.77,2703.74 1605.00,2704.04
             1605.00,2704.04 1591.00,2705.00 1591.00,2705.00
             1580.28,2704.80 1583.82,2696.88 1575.00,2693.60
             1571.70,2692.37 1559.06,2692.14 1555.00,2691.96
             1550.88,2691.78 1541.05,2689.65 1537.00,2688.43
             1534.11,2687.56 1526.67,2684.76 1524.99,2682.37
             1523.37,2680.04 1524.23,2675.64 1524.41,2673.00
             1525.14,2668.74 1525.30,2664.19 1524.41,2660.00
             1523.10,2655.50 1518.24,2640.22 1515.58,2637.21
             1513.52,2634.86 1509.05,2632.16 1506.00,2631.21
             1506.00,2631.21 1470.00,2631.21 1470.00,2631.21
             1465.64,2630.95 1465.13,2630.70 1461.00,2630.13
             1453.81,2629.13 1437.36,2628.17 1432.74,2622.47
             1431.07,2620.41 1430.89,2617.54 1431.11,2615.00
             1431.73,2607.61 1437.45,2600.77 1441.57,2595.00
             1441.57,2595.00 1454.20,2575.00 1454.20,2575.00
             1458.78,2567.36 1467.35,2552.77 1468.15,2544.00
             1468.71,2537.88 1464.20,2533.60 1465.64,2529.00
             1466.87,2525.06 1474.71,2519.11 1477.85,2513.00
             1480.02,2508.26 1478.40,2502.98 1477.85,2498.00 Z" />
  <path id="San Lucia"
        fill="none" stroke="black" stroke-width="1"
        d="M 1218.00,2530.00
           C 1218.00,2530.00 1257.00,2530.00 1257.00,2530.00
             1257.00,2530.00 1274.00,2529.00 1274.00,2529.00
             1274.00,2529.00 1365.00,2529.00 1365.00,2529.00
             1365.00,2529.00 1377.00,2530.04 1377.00,2530.04
             1377.00,2530.04 1387.00,2530.04 1387.00,2530.04
             1387.00,2530.04 1423.00,2533.00 1423.00,2533.00
             1423.00,2533.00 1436.00,2533.66 1436.00,2533.66
             1436.00,2533.66 1445.00,2533.00 1445.00,2533.00
             1447.40,2532.98 1454.80,2532.73 1456.66,2533.57
             1458.26,2534.29 1459.09,2535.54 1459.85,2537.05
             1463.59,2544.48 1458.70,2553.41 1455.22,2560.00
             1455.22,2560.00 1436.91,2591.00 1436.91,2591.00
             1433.38,2596.27 1430.31,2598.89 1427.28,2605.00
             1423.27,2613.07 1422.25,2621.08 1429.06,2627.95
             1435.24,2634.19 1442.77,2635.10 1451.00,2636.27
             1467.00,2638.55 1482.88,2637.97 1499.00,2638.00
             1501.68,2638.00 1506.25,2637.78 1508.49,2639.31
             1510.71,2640.83 1511.83,2645.48 1512.67,2648.00
             1515.89,2657.66 1518.18,2661.57 1518.00,2672.00
             1517.76,2685.16 1507.75,2684.05 1498.00,2684.00
             1495.03,2683.99 1486.81,2683.62 1484.57,2681.83
             1482.57,2680.22 1483.39,2677.61 1481.98,2675.33
             1479.41,2671.20 1474.30,2671.02 1470.00,2671.00
             1470.00,2671.00 1450.00,2671.00 1450.00,2671.00
             1450.00,2671.00 1435.00,2672.00 1435.00,2672.00
             1435.00,2672.00 1405.00,2670.17 1405.00,2670.17
             1400.78,2669.77 1395.19,2670.02 1391.09,2668.72
             1386.50,2667.28 1385.34,2663.08 1381.71,2661.02
             1379.53,2659.78 1376.45,2660.00 1374.00,2660.00
             1374.00,2660.00 1299.00,2660.00 1299.00,2660.00
             1299.00,2660.00 1289.00,2659.05 1289.00,2659.05
             1289.00,2659.05 1276.00,2659.05 1276.00,2659.05
             1265.67,2659.20 1268.54,2664.88 1262.67,2669.40
             1259.43,2671.90 1251.10,2671.78 1247.00,2672.27
             1245.14,2672.34 1242.02,2673.10 1240.31,2672.27
             1237.83,2671.29 1237.79,2667.34 1237.41,2665.00
             1236.22,2657.72 1235.01,2650.39 1235.00,2643.00
             1234.96,2616.01 1231.89,2592.43 1226.60,2566.00
             1226.60,2566.00 1218.00,2530.00 1218.00,2530.00 Z" />
  <path id="Galimuyod"
        fill="none" stroke="black" stroke-width="1"
        d="M 1457.00,2401.00
           C 1457.00,2401.00 1492.00,2402.00 1492.00,2402.00
             1492.00,2402.00 1517.00,2404.00 1517.00,2404.00
             1519.61,2404.03 1523.62,2403.78 1526.00,2404.58
             1529.45,2405.75 1530.40,2407.91 1537.00,2409.96
             1542.07,2411.53 1553.63,2412.93 1559.00,2413.00
             1559.00,2413.00 1604.00,2413.00 1604.00,2413.00
             1610.74,2413.01 1612.86,2412.51 1613.00,2420.00
             1613.00,2420.00 1613.00,2429.00 1613.00,2429.00
             1613.00,2429.00 1612.18,2441.00 1612.18,2441.00
             1612.31,2443.01 1613.35,2446.49 1611.39,2447.94
             1609.97,2448.89 1605.80,2448.14 1604.00,2447.94
             1592.22,2447.25 1596.03,2447.07 1584.00,2447.94
             1578.59,2448.29 1573.34,2448.53 1568.00,2449.66
             1560.78,2451.19 1561.33,2452.16 1555.96,2453.85
             1543.36,2457.83 1525.30,2464.26 1514.00,2470.81
             1514.00,2470.81 1490.00,2485.43 1490.00,2485.43
             1487.05,2487.53 1480.40,2492.94 1477.01,2493.36
             1473.40,2493.81 1471.22,2490.36 1468.91,2488.16
             1465.42,2484.84 1457.81,2477.86 1454.00,2475.46
             1454.00,2475.46 1407.00,2450.66 1407.00,2450.66
             1407.00,2450.66 1392.04,2444.93 1392.04,2444.93
             1387.64,2443.08 1386.97,2440.23 1381.17,2438.43
             1372.17,2435.64 1368.50,2439.34 1362.04,2444.85
             1362.04,2444.85 1355.83,2449.40 1355.83,2449.40
             1349.29,2454.79 1347.33,2459.83 1338.00,2460.00
             1334.88,2460.05 1323.93,2459.66 1321.68,2458.01
             1320.12,2456.85 1318.92,2453.84 1318.47,2452.00
             1317.27,2447.15 1319.02,2442.88 1316.72,2438.00
             1314.74,2433.76 1306.57,2426.38 1308.16,2422.01
             1309.44,2418.53 1320.54,2410.89 1324.00,2408.43
             1324.00,2408.43 1371.00,2379.28 1371.00,2379.28
             1374.76,2377.14 1387.19,2368.91 1390.83,2369.69
             1390.83,2369.69 1405.00,2378.48 1405.00,2378.48
             1412.59,2382.58 1422.74,2381.69 1426.64,2387.25
             1431.52,2394.21 1426.46,2402.91 1431.31,2407.35
             1434.03,2409.84 1448.48,2412.94 1451.78,2410.98
             1454.78,2409.19 1456.14,2404.18 1457.00,2401.00 Z" />
  <path id="Candon"
        fill="none" stroke="black" stroke-width="1"
        d="M 1215.00,2292.14
           C 1215.00,2292.14 1231.00,2292.14 1231.00,2292.14
             1236.78,2292.98 1248.55,2295.08 1254.00,2293.74
             1258.92,2292.52 1263.54,2287.43 1268.00,2285.12
             1272.91,2282.58 1278.65,2283.01 1284.00,2283.00
             1284.00,2283.00 1304.00,2280.66 1304.00,2280.66
             1304.00,2280.66 1314.00,2283.50 1314.00,2283.50
             1328.63,2287.00 1347.68,2295.99 1360.00,2304.62
             1363.83,2307.29 1368.43,2311.29 1371.24,2315.00
             1374.41,2319.20 1377.00,2325.11 1382.01,2327.30
             1386.87,2329.42 1396.56,2329.64 1402.00,2330.17
             1402.00,2330.17 1427.00,2332.00 1427.00,2332.00
             1427.00,2332.00 1448.00,2332.00 1448.00,2332.00
             1448.00,2332.00 1458.00,2332.82 1458.00,2332.82
             1458.00,2332.82 1465.00,2332.04 1465.00,2332.04
             1465.00,2332.04 1476.00,2332.04 1476.00,2332.04
             1476.00,2332.04 1508.00,2329.98 1508.00,2329.98
             1508.00,2329.98 1520.00,2329.98 1520.00,2329.98
             1521.50,2329.72 1524.07,2329.16 1525.36,2329.98
             1527.23,2331.48 1525.95,2337.55 1526.09,2340.00
             1526.09,2340.00 1528.92,2372.00 1528.92,2372.00
             1528.92,2372.00 1528.92,2383.00 1528.92,2383.00
             1528.92,2383.00 1527.00,2397.00 1527.00,2397.00
             1527.00,2397.00 1505.00,2397.00 1505.00,2397.00
             1505.00,2397.00 1469.00,2395.00 1469.00,2395.00
             1469.00,2395.00 1453.00,2396.00 1453.00,2396.00
             1453.00,2396.00 1451.00,2407.00 1451.00,2407.00
             1451.00,2407.00 1434.81,2404.00 1434.81,2404.00
             1435.00,2401.14 1435.16,2395.56 1434.81,2393.00
             1431.10,2376.74 1416.96,2378.78 1407.00,2373.77
             1401.06,2370.78 1393.06,2363.82 1386.00,2365.26
             1382.33,2366.01 1372.84,2372.10 1369.00,2374.28
             1369.00,2374.28 1331.00,2397.22 1331.00,2397.22
             1331.00,2397.22 1310.00,2412.66 1310.00,2412.66
             1307.54,2414.60 1302.83,2418.15 1301.76,2421.09
             1299.26,2427.95 1309.04,2432.87 1311.57,2438.09
             1313.42,2441.93 1312.01,2444.72 1312.30,2448.00
             1312.62,2451.66 1317.13,2461.04 1320.21,2463.02
             1321.76,2464.01 1324.20,2464.43 1326.00,2464.80
             1333.84,2466.41 1339.91,2467.00 1346.99,2462.44
             1346.99,2462.44 1357.29,2454.00 1357.29,2454.00
             1364.82,2449.68 1370.05,2455.68 1372.00,2444.00
             1374.47,2444.15 1376.53,2444.10 1378.59,2445.74
             1381.09,2447.73 1381.18,2450.73 1385.05,2451.87
             1387.89,2452.37 1390.34,2450.95 1395.00,2451.87
             1407.17,2455.02 1417.94,2462.19 1429.00,2467.75
             1437.20,2471.88 1451.55,2478.28 1458.00,2484.10
             1460.80,2486.63 1465.03,2490.96 1467.21,2494.00
             1468.74,2496.13 1474.02,2504.76 1474.27,2507.00
             1474.66,2510.56 1470.59,2515.15 1468.37,2517.71
             1466.00,2520.45 1463.33,2523.25 1459.99,2524.77
             1456.20,2526.50 1452.97,2525.82 1449.00,2526.09
             1449.00,2526.09 1431.00,2527.00 1431.00,2527.00
             1431.00,2527.00 1421.00,2526.09 1421.00,2526.09
             1421.00,2526.09 1398.00,2524.83 1398.00,2524.83
             1398.00,2524.83 1375.00,2523.00 1375.00,2523.00
             1375.00,2523.00 1358.00,2522.00 1358.00,2522.00
             1358.00,2522.00 1260.00,2522.00 1260.00,2522.00
             1260.00,2522.00 1245.00,2523.00 1245.00,2523.00
             1245.00,2523.00 1223.00,2523.00 1223.00,2523.00
             1221.05,2522.96 1218.37,2523.10 1217.02,2521.40
             1215.41,2519.36 1216.03,2509.05 1216.00,2506.00
             1215.84,2493.44 1207.22,2479.79 1205.37,2472.00
             1205.37,2472.00 1203.58,2458.00 1203.58,2458.00
             1203.58,2458.00 1195.23,2412.00 1195.23,2412.00
             1190.72,2397.41 1181.81,2395.69 1182.00,2379.00
             1182.06,2373.70 1184.55,2366.53 1180.57,2362.42
             1176.91,2358.63 1169.26,2358.85 1166.17,2357.44
             1159.89,2354.57 1153.88,2342.88 1155.39,2336.00
             1158.45,2322.05 1171.24,2322.61 1179.96,2314.79
             1185.31,2309.98 1185.97,2304.99 1190.09,2303.77
             1195.01,2302.30 1210.20,2308.21 1213.85,2297.98
             1214.48,2296.22 1214.75,2293.87 1215.00,2292.14 Z" />
  <path id="Banayoyo"
        fill="none" stroke="black" stroke-width="1"
        d="M 1513.00,2322.00
           C 1508.22,2323.36 1496.45,2323.71 1491.00,2324.09
             1491.00,2324.09 1479.00,2325.00 1479.00,2325.00
             1479.00,2325.00 1428.00,2325.00 1428.00,2325.00
             1428.00,2325.00 1398.00,2322.28 1398.00,2322.28
             1393.93,2321.80 1387.89,2322.10 1384.18,2320.30
             1380.15,2318.34 1379.13,2313.63 1374.82,2309.17
             1369.28,2303.45 1362.87,2298.80 1356.00,2294.85
             1347.96,2290.22 1331.47,2280.85 1323.00,2278.63
             1319.86,2277.81 1311.82,2276.90 1311.59,2272.87
             1311.59,2272.87 1318.95,2256.00 1318.95,2256.00
             1321.29,2250.24 1324.60,2241.83 1328.39,2237.00
             1330.67,2234.09 1339.04,2225.70 1342.00,2223.70
             1344.48,2222.02 1360.88,2214.55 1364.00,2213.62
             1369.04,2212.11 1390.55,2209.07 1396.00,2209.00
             1398.63,2208.97 1405.45,2208.58 1407.44,2210.02
             1408.83,2211.03 1411.60,2217.72 1413.10,2220.00
             1416.56,2225.24 1422.53,2231.52 1427.00,2236.00
             1427.00,2236.00 1460.00,2270.00 1460.00,2270.00
             1460.00,2270.00 1485.00,2294.00 1485.00,2294.00
             1493.64,2302.63 1506.12,2312.39 1513.00,2322.00 Z" />
  <path id="Lidlidda"
        fill="none" stroke="black" stroke-width="1"
        d="M 1569.00,2132.00
           C 1569.00,2132.00 1574.86,2147.00 1574.86,2147.00
             1574.86,2147.00 1589.78,2175.99 1589.78,2175.99
             1589.78,2175.99 1597.25,2186.01 1597.25,2186.01
             1597.25,2186.01 1607.45,2205.00 1607.45,2205.00
             1607.45,2205.00 1613.01,2214.00 1613.01,2214.00
             1614.99,2217.90 1620.40,2230.98 1620.60,2235.00
             1620.79,2238.84 1616.92,2248.04 1615.42,2252.00
             1611.97,2261.14 1603.16,2275.22 1595.96,2281.70
             1586.92,2289.83 1573.23,2296.24 1563.00,2302.86
             1554.35,2308.47 1548.61,2313.36 1539.00,2318.24
             1536.09,2319.72 1531.24,2322.66 1528.00,2322.14
             1523.56,2321.43 1517.20,2314.20 1514.00,2311.00
             1514.00,2311.00 1484.83,2283.41 1484.83,2283.41
             1484.83,2283.41 1477.38,2276.59 1477.38,2276.59
             1477.38,2276.59 1472.47,2271.00 1472.47,2271.00
             1472.47,2271.00 1463.09,2262.91 1463.09,2262.91
             1463.09,2262.91 1434.00,2232.00 1434.00,2232.00
             1428.88,2226.39 1416.23,2214.28 1413.84,2208.00
             1410.09,2198.13 1420.25,2186.05 1424.85,2178.00
             1424.85,2178.00 1438.66,2155.00 1438.66,2155.00
             1440.00,2152.93 1443.37,2146.81 1444.79,2145.58
             1447.75,2143.00 1450.52,2145.33 1453.95,2143.74
             1457.72,2141.99 1457.92,2138.24 1461.22,2136.74
             1463.66,2135.63 1471.90,2136.03 1475.00,2136.00
             1475.00,2136.00 1490.00,2135.00 1490.00,2135.00
             1515.49,2134.96 1544.26,2136.97 1569.00,2132.00 Z" />
  <path id="Santiago"
        fill="none" stroke="black" stroke-width="1"
        d="M 1203.00,2117.00
           C 1203.00,2117.00 1200.90,2082.00 1200.90,2082.00
             1200.99,2074.55 1198.01,2061.34 1200.90,2055.00
             1200.90,2055.00 1206.36,2044.00 1206.36,2044.00
             1207.03,2041.85 1206.97,2038.42 1208.74,2036.99
             1210.42,2035.63 1215.78,2035.99 1218.00,2036.00
             1218.00,2036.00 1237.00,2037.00 1237.00,2037.00
             1237.00,2037.00 1252.00,2038.00 1252.00,2038.00
             1265.27,2038.02 1281.23,2038.94 1294.00,2042.77
             1307.78,2046.90 1314.50,2052.98 1326.00,2058.73
             1326.00,2058.73 1353.00,2070.87 1353.00,2070.87
             1353.00,2070.87 1393.00,2099.88 1393.00,2099.88
             1393.00,2099.88 1417.00,2119.04 1417.00,2119.04
             1417.00,2119.04 1427.04,2130.00 1427.04,2130.00
             1427.04,2130.00 1437.95,2140.44 1437.95,2140.44
             1439.79,2144.17 1430.77,2154.62 1428.44,2158.00
             1425.78,2161.85 1420.12,2171.75 1418.35,2176.00
             1418.35,2176.00 1416.32,2182.00 1416.32,2182.00
             1416.32,2182.00 1413.12,2188.00 1413.12,2188.00
             1411.58,2191.32 1410.31,2198.28 1410.00,2202.00
             1410.00,2202.00 1391.00,2203.00 1391.00,2203.00
             1383.47,2203.01 1383.96,2203.40 1377.00,2204.57
             1361.74,2207.13 1362.14,2206.89 1348.00,2213.74
             1348.00,2213.74 1340.00,2217.69 1340.00,2217.69
             1340.00,2217.69 1332.17,2224.42 1332.17,2224.42
             1322.35,2233.70 1317.82,2240.96 1311.81,2253.00
             1306.35,2263.93 1309.03,2266.49 1298.00,2273.95
             1296.56,2274.93 1294.58,2276.42 1293.00,2277.03
             1290.06,2278.23 1282.97,2276.92 1279.00,2277.03
             1260.77,2277.43 1264.79,2287.92 1249.00,2288.00
             1234.76,2288.07 1209.71,2277.68 1209.00,2298.00
             1209.00,2298.00 1194.00,2298.00 1194.00,2298.00
             1194.00,2298.00 1196.99,2270.00 1196.99,2270.00
             1196.99,2270.00 1196.09,2261.00 1196.09,2261.00
             1195.82,2257.02 1196.34,2254.04 1195.24,2250.00
             1192.93,2241.56 1186.58,2240.97 1184.02,2236.68
             1182.78,2234.60 1183.00,2231.38 1183.00,2229.00
             1182.98,2221.02 1182.32,2206.11 1184.63,2199.00
             1186.39,2193.60 1191.15,2189.02 1193.45,2183.00
             1197.05,2173.55 1198.20,2164.91 1203.75,2156.00
             1206.65,2151.33 1216.08,2141.12 1221.00,2139.19
             1224.84,2137.68 1231.71,2141.14 1235.99,2134.87
             1238.84,2130.70 1237.98,2120.91 1233.77,2117.85
             1231.30,2116.06 1227.92,2116.04 1225.00,2116.00
             1225.00,2116.00 1203.00,2117.00 1203.00,2117.00 Z" />
  <path id="San Esteban"
        fill="none" stroke="black" stroke-width="1"
        d="M 1259.00,1952.00
           C 1273.54,1952.00 1282.57,1951.23 1297.00,1954.53
             1308.37,1957.12 1311.85,1962.98 1326.00,1963.00
             1326.00,1963.00 1356.00,1964.00 1356.00,1964.00
             1356.00,1964.00 1355.00,2000.00 1355.00,2000.00
             1355.00,2000.00 1356.00,2015.00 1356.00,2015.00
             1356.00,2015.00 1356.00,2036.00 1356.00,2036.00
             1355.91,2043.70 1354.96,2056.04 1352.00,2063.00
             1352.00,2063.00 1340.00,2057.45 1340.00,2057.45
             1340.00,2057.45 1326.00,2051.51 1326.00,2051.51
             1314.70,2045.51 1306.00,2039.04 1293.00,2035.60
             1283.93,2033.20 1265.93,2032.60 1256.00,2031.91
             1256.00,2031.91 1244.00,2030.08 1244.00,2030.08
             1244.00,2030.08 1225.00,2030.08 1225.00,2030.08
             1225.00,2030.08 1208.00,2029.00 1208.00,2029.00
             1208.00,2029.00 1211.78,2010.00 1211.78,2010.00
             1214.89,1995.02 1212.01,1997.12 1220.34,1982.00
             1221.25,1980.34 1222.90,1976.70 1223.99,1975.48
             1226.24,1972.97 1230.82,1972.46 1234.00,1971.92
             1244.06,1970.23 1253.64,1972.21 1257.89,1960.00
             1258.91,1957.07 1258.93,1955.02 1259.00,1952.00 Z" />
  <path id="Burgos"
        fill="none" stroke="black" stroke-width="1"
        d="M 1372.00,1952.00
           C 1378.50,1952.00 1398.79,1951.66 1403.91,1953.74
             1406.39,1954.74 1410.53,1959.09 1413.00,1961.04
             1418.09,1965.04 1421.56,1966.21 1428.00,1965.96
             1428.00,1965.96 1451.00,1964.09 1451.00,1964.09
             1456.89,1963.68 1465.40,1963.60 1471.00,1961.96
             1481.93,1958.74 1484.36,1952.95 1492.00,1951.13
             1499.81,1949.27 1520.87,1949.98 1530.00,1950.00
             1532.56,1950.01 1535.64,1949.81 1537.96,1951.02
             1540.74,1952.48 1543.50,1956.45 1545.36,1959.00
             1552.40,1968.68 1555.76,1980.58 1558.85,1992.00
             1558.85,1992.00 1566.09,2019.00 1566.09,2019.00
             1570.96,2032.56 1579.91,2047.82 1593.00,2054.70
             1596.53,2056.56 1606.17,2057.72 1611.00,2059.00
             1608.50,2069.63 1594.01,2094.16 1588.32,2105.00
             1585.20,2110.95 1584.01,2118.31 1577.98,2122.16
             1575.28,2123.89 1572.07,2124.49 1569.00,2125.23
             1554.72,2128.70 1553.57,2128.17 1539.00,2128.00
             1539.00,2128.00 1524.00,2127.00 1524.00,2127.00
             1524.00,2127.00 1477.00,2128.00 1477.00,2128.00
             1466.88,2128.12 1457.60,2128.53 1452.00,2138.00
             1439.29,2134.21 1440.51,2134.13 1431.00,2125.04
             1431.00,2125.04 1420.00,2115.08 1420.00,2115.08
             1408.84,2104.82 1397.33,2094.71 1385.00,2085.86
             1385.00,2085.86 1368.00,2073.71 1368.00,2073.71
             1365.83,2072.16 1361.21,2069.25 1360.23,2066.83
             1359.38,2064.71 1360.53,2062.09 1361.08,2060.00
             1362.27,2055.46 1362.94,2051.71 1363.00,2047.00
             1363.00,2047.00 1363.00,1990.00 1363.00,1990.00
             1362.99,1985.47 1362.20,1976.33 1361.16,1972.04
             1360.28,1968.46 1359.54,1968.18 1359.00,1964.00
             1369.43,1964.12 1371.09,1963.16 1372.00,1952.00 Z" />
  <path id="Santa Maria"
        fill="none" stroke="black" stroke-width="1"
        d="M 1260.00,1945.00
           C 1260.25,1934.91 1265.11,1931.59 1273.00,1926.04
             1284.22,1918.15 1288.21,1918.06 1296.74,1906.00
             1297.96,1904.28 1299.80,1902.00 1300.40,1900.00
             1301.52,1896.27 1299.54,1893.83 1296.94,1891.44
             1293.18,1887.97 1283.64,1881.75 1279.00,1879.37
             1275.32,1877.48 1270.16,1876.31 1271.50,1871.00
             1271.50,1871.00 1293.75,1831.00 1293.75,1831.00
             1295.23,1828.05 1299.69,1816.30 1301.51,1815.01
             1304.15,1813.17 1318.68,1814.95 1323.00,1815.01
             1323.00,1815.01 1352.00,1817.00 1352.00,1817.00
             1352.00,1817.00 1366.00,1817.98 1366.00,1817.98
             1366.00,1817.98 1380.00,1817.98 1380.00,1817.98
             1380.00,1817.98 1394.00,1819.00 1394.00,1819.00
             1394.00,1819.00 1413.00,1820.00 1413.00,1820.00
             1413.00,1820.00 1428.00,1820.00 1428.00,1820.00
             1428.00,1820.00 1438.00,1821.00 1438.00,1821.00
             1438.00,1821.00 1450.00,1821.00 1450.00,1821.00
             1450.00,1821.00 1462.00,1822.00 1462.00,1822.00
             1462.00,1822.00 1531.00,1824.00 1531.00,1824.00
             1531.00,1824.00 1543.00,1824.96 1543.00,1824.96
             1543.00,1824.96 1559.00,1824.96 1559.00,1824.96
             1554.80,1833.57 1543.48,1846.76 1537.38,1855.00
             1530.57,1864.18 1517.28,1889.70 1516.20,1901.00
             1516.20,1901.00 1517.38,1916.00 1517.38,1916.00
             1520.24,1930.37 1527.64,1933.76 1532.00,1944.00
             1521.92,1944.00 1499.85,1943.39 1491.00,1945.76
             1482.48,1948.05 1478.18,1954.95 1470.00,1956.62
             1470.00,1956.62 1423.00,1959.00 1423.00,1959.00
             1409.76,1958.75 1413.82,1948.28 1399.00,1946.91
             1393.99,1946.69 1374.68,1945.26 1371.04,1946.91
             1362.80,1950.09 1369.38,1958.89 1360.98,1958.77
             1360.98,1958.77 1339.00,1956.17 1339.00,1956.17
             1339.00,1956.17 1317.00,1954.22 1317.00,1954.22
             1317.00,1954.22 1296.00,1946.20 1296.00,1946.20
             1285.54,1944.35 1270.94,1945.00 1260.00,1945.00 Z" />
  <path id="Nagbukel"
        fill="none" stroke="black" stroke-width="1"
        d="M 1593.00,1774.00
           C 1593.00,1774.00 1575.00,1769.37 1575.00,1769.37
             1575.00,1769.37 1527.00,1756.43 1527.00,1756.43
             1511.67,1752.06 1495.58,1748.26 1481.00,1741.69
             1471.15,1737.25 1451.50,1729.70 1449.28,1718.00
             1447.27,1707.42 1456.02,1696.19 1463.00,1689.30
             1466.67,1685.68 1481.05,1676.33 1486.00,1673.10
             1486.00,1673.10 1513.72,1654.56 1513.72,1654.56
             1513.72,1654.56 1528.00,1642.75 1528.00,1642.75
             1528.00,1642.75 1544.00,1629.48 1544.00,1629.48
             1556.18,1620.41 1564.11,1615.88 1576.00,1605.17
             1578.39,1603.01 1580.53,1601.45 1582.67,1598.96
             1587.64,1593.20 1594.60,1578.45 1596.97,1571.00
             1598.10,1567.45 1599.59,1557.94 1602.43,1556.02
             1604.81,1554.41 1616.57,1554.96 1620.00,1555.00
             1623.31,1555.04 1630.07,1555.63 1633.00,1556.93
             1642.97,1561.35 1643.24,1569.70 1644.17,1579.00
             1644.17,1579.00 1645.00,1596.00 1645.00,1596.00
             1645.00,1596.00 1644.00,1611.00 1644.00,1611.00
             1643.98,1620.64 1640.52,1654.94 1638.49,1664.00
             1638.49,1664.00 1628.67,1695.00 1628.67,1695.00
             1619.81,1721.56 1606.97,1749.75 1593.00,1774.00 Z" />
  <path id="Narvacan"
        fill="none" stroke="black" stroke-width="1"
        d="M 1302.00,1808.00
           C 1302.00,1808.00 1304.00,1775.00 1304.00,1775.00
             1304.00,1775.00 1304.00,1756.00 1304.00,1756.00
             1304.00,1756.00 1303.18,1743.00 1303.18,1743.00
             1303.59,1736.80 1303.73,1732.66 1300.16,1727.00
             1297.50,1722.80 1294.53,1721.70 1291.00,1718.74
             1287.96,1716.20 1275.61,1703.93 1273.72,1701.00
             1269.09,1693.79 1271.24,1681.15 1271.82,1673.00
             1272.53,1662.98 1267.28,1654.93 1257.00,1653.22
             1251.84,1652.36 1239.41,1656.45 1240.27,1648.96
             1240.54,1646.55 1244.13,1642.00 1245.65,1640.00
             1252.63,1630.86 1254.86,1628.04 1265.00,1622.54
             1265.00,1622.54 1343.00,1583.36 1343.00,1583.36
             1351.00,1579.45 1371.49,1563.85 1379.00,1557.74
             1379.00,1557.74 1389.00,1549.30 1389.00,1549.30
             1395.00,1544.94 1397.24,1549.06 1406.00,1541.70
             1416.87,1532.56 1431.23,1515.06 1444.00,1508.03
             1453.62,1502.74 1464.32,1502.44 1475.00,1501.96
             1475.00,1501.96 1488.00,1501.00 1488.00,1501.00
             1502.45,1500.98 1519.75,1502.46 1533.00,1508.52
             1547.17,1515.00 1554.95,1530.62 1566.04,1540.82
             1569.30,1543.82 1577.88,1549.97 1582.00,1551.39
             1587.12,1553.16 1589.65,1552.35 1596.00,1555.00
             1589.99,1570.64 1591.55,1578.35 1579.84,1593.99
             1571.53,1605.08 1556.11,1614.59 1545.00,1622.75
             1545.00,1622.75 1514.00,1647.56 1514.00,1647.56
             1508.49,1651.66 1507.45,1650.74 1503.00,1653.61
             1503.00,1653.61 1490.91,1663.26 1490.91,1663.26
             1490.91,1663.26 1469.00,1679.76 1469.00,1679.76
             1469.00,1679.76 1460.00,1686.21 1460.00,1686.21
             1452.12,1692.97 1443.69,1704.13 1443.65,1715.00
             1443.64,1718.38 1445.30,1721.06 1446.75,1724.00
             1448.22,1726.96 1449.86,1731.20 1452.26,1733.37
             1454.98,1735.83 1457.17,1735.86 1460.09,1737.21
             1460.09,1737.21 1475.00,1744.74 1475.00,1744.74
             1501.61,1757.59 1558.27,1770.03 1589.00,1779.00
             1586.79,1786.01 1576.26,1802.79 1571.63,1809.00
             1569.65,1811.64 1565.83,1817.49 1562.91,1818.90
             1561.16,1819.41 1555.27,1819.00 1553.00,1818.90
             1553.00,1818.90 1535.00,1818.90 1535.00,1818.90
             1535.00,1818.90 1522.00,1818.00 1522.00,1818.00
             1522.00,1818.00 1494.00,1817.00 1494.00,1817.00
             1494.00,1817.00 1483.00,1816.00 1483.00,1816.00
             1483.00,1816.00 1471.00,1816.00 1471.00,1816.00
             1471.00,1816.00 1459.00,1815.00 1459.00,1815.00
             1459.00,1815.00 1447.00,1815.00 1447.00,1815.00
             1447.00,1815.00 1428.00,1814.00 1428.00,1814.00
             1428.00,1814.00 1411.00,1813.00 1411.00,1813.00
             1411.00,1813.00 1397.00,1813.00 1397.00,1813.00
             1397.00,1813.00 1383.00,1812.00 1383.00,1812.00
             1383.00,1812.00 1370.00,1811.04 1370.00,1811.04
             1370.00,1811.04 1356.00,1811.04 1356.00,1811.04
             1356.00,1811.04 1340.00,1810.00 1340.00,1810.00
             1340.00,1810.00 1320.00,1809.00 1320.00,1809.00
             1311.72,1808.91 1310.49,1809.12 1302.00,1808.00 Z" />
  <path id="Santa"
        fill="none" stroke="black" stroke-width="1"
        d="M 1249.00,1345.00
           C 1254.79,1343.68 1259.43,1341.73 1263.91,1337.68
             1272.45,1329.95 1269.96,1324.03 1285.00,1324.00
             1297.03,1323.98 1314.93,1323.27 1326.00,1327.88
             1346.22,1336.30 1365.63,1356.17 1382.00,1362.00
             1373.72,1380.53 1359.59,1379.90 1349.46,1396.00
             1341.21,1409.12 1341.23,1413.53 1337.63,1428.00
             1334.30,1441.36 1332.32,1454.34 1330.84,1468.00
             1330.38,1472.18 1329.02,1476.91 1329.32,1481.00
             1329.32,1481.00 1330.00,1490.00 1330.00,1490.00
             1330.00,1490.00 1330.00,1501.00 1330.00,1501.00
             1330.07,1516.24 1336.06,1536.54 1352.00,1541.90
             1355.66,1543.12 1358.24,1542.99 1362.00,1543.00
             1369.44,1543.01 1377.02,1542.10 1384.00,1545.00
             1381.12,1550.99 1375.14,1554.68 1370.00,1558.65
             1358.66,1567.40 1347.03,1575.32 1334.00,1581.31
             1334.00,1581.31 1291.00,1602.75 1291.00,1602.75
             1291.00,1602.75 1255.00,1622.38 1255.00,1622.38
             1247.64,1628.24 1240.93,1637.00 1236.00,1645.00
             1229.90,1639.93 1229.01,1630.54 1229.00,1623.00
             1229.00,1623.00 1229.00,1582.00 1229.00,1582.00
             1229.00,1582.00 1228.00,1565.00 1228.00,1565.00
             1227.99,1556.40 1227.83,1546.83 1223.73,1539.00
             1221.54,1534.81 1216.41,1529.75 1213.32,1526.00
             1206.48,1517.73 1204.85,1513.07 1193.00,1513.00
             1193.00,1513.00 1177.00,1513.00 1177.00,1513.00
             1174.74,1513.00 1171.32,1513.22 1169.39,1511.98
             1166.42,1510.06 1160.17,1495.42 1161.38,1492.00
             1162.89,1487.75 1167.67,1486.46 1169.16,1478.00
             1169.16,1478.00 1169.16,1463.00 1169.16,1463.00
             1169.01,1453.20 1169.97,1451.27 1175.32,1443.00
             1176.32,1441.45 1177.76,1438.98 1179.38,1438.06
             1179.38,1438.06 1196.00,1436.72 1196.00,1436.72
             1196.00,1436.72 1213.00,1434.63 1213.00,1434.63
             1218.20,1433.40 1232.80,1426.80 1236.98,1423.47
             1243.68,1418.16 1244.90,1410.79 1247.14,1403.00
             1247.14,1403.00 1250.84,1391.00 1250.84,1391.00
             1251.09,1388.53 1251.00,1385.53 1250.84,1383.00
             1250.84,1383.00 1251.90,1369.00 1251.90,1369.00
             1251.90,1369.00 1249.00,1345.00 1249.00,1345.00 Z" />
  <path id="Caoayan"
        fill="none" stroke="black" stroke-width="1"
        d="M 1112.00,1484.78
           C 1108.64,1477.09 1109.09,1474.22 1109.00,1466.00
             1109.00,1466.00 1107.27,1449.00 1107.27,1449.00
             1106.81,1445.79 1105.22,1437.13 1106.57,1434.43
             1108.18,1431.22 1112.89,1432.53 1116.98,1430.57
             1123.34,1427.53 1124.74,1416.69 1122.54,1412.22
             1119.52,1406.11 1111.53,1410.91 1106.28,1407.69
             1103.09,1405.73 1103.38,1402.16 1102.38,1399.00
             1100.74,1393.81 1097.60,1390.03 1092.00,1389.21
             1088.35,1388.68 1078.23,1390.57 1075.85,1393.43
             1071.24,1398.99 1074.77,1409.55 1065.96,1411.76
             1064.02,1411.96 1061.98,1411.97 1060.00,1411.76
             1055.15,1412.05 1050.42,1412.09 1046.00,1409.72
             1039.92,1406.46 1032.99,1394.78 1026.91,1389.74
             1023.69,1387.08 1012.73,1379.25 1011.66,1375.83
             1010.13,1370.96 1016.14,1367.98 1020.00,1367.33
             1025.31,1366.44 1030.77,1368.87 1036.00,1369.87
             1036.00,1369.87 1054.00,1369.87 1054.00,1369.87
             1054.00,1369.87 1084.00,1368.00 1084.00,1368.00
             1089.52,1367.97 1110.24,1366.17 1115.00,1364.64
             1130.51,1359.66 1135.52,1351.92 1144.00,1347.91
             1153.21,1343.55 1162.14,1343.89 1172.00,1344.00
             1172.00,1344.00 1202.00,1346.00 1202.00,1346.00
             1202.00,1346.00 1221.00,1347.00 1221.00,1347.00
             1221.00,1347.00 1244.00,1347.00 1244.00,1347.00
             1244.00,1347.00 1245.00,1363.00 1245.00,1363.00
             1245.07,1378.26 1246.38,1388.20 1241.66,1403.00
             1238.61,1412.53 1238.75,1417.41 1229.00,1422.60
             1215.98,1429.54 1208.19,1429.48 1194.00,1430.83
             1186.51,1431.55 1179.45,1429.95 1173.52,1436.22
             1168.70,1441.32 1162.43,1453.85 1162.34,1461.00
             1162.34,1461.00 1163.76,1478.00 1163.76,1478.00
             1163.03,1482.63 1159.51,1484.66 1157.00,1490.00
             1153.45,1488.27 1149.72,1485.56 1146.00,1484.78
             1138.43,1482.49 1119.90,1483.59 1112.00,1484.78 Z" />
  <path id="Vigan"
        fill="none" stroke="black" stroke-width="1"
        d="M 981.00,1325.00
           C 981.00,1325.00 1034.00,1295.31 1034.00,1295.31
             1034.00,1295.31 1077.00,1277.40 1077.00,1277.40
             1081.24,1275.28 1087.52,1271.86 1090.16,1267.91
             1093.68,1262.65 1091.88,1256.31 1097.11,1256.46
             1100.27,1256.55 1107.90,1260.69 1111.00,1262.25
             1111.00,1262.25 1141.00,1278.11 1141.00,1278.11
             1141.00,1278.11 1155.00,1284.30 1155.00,1284.30
             1155.00,1284.30 1196.00,1301.80 1196.00,1301.80
             1196.00,1301.80 1205.00,1304.92 1205.00,1304.92
             1205.00,1304.92 1225.00,1313.32 1225.00,1313.32
             1225.00,1313.32 1255.00,1324.27 1255.00,1324.27
             1257.62,1325.36 1263.38,1326.56 1263.18,1330.11
             1262.86,1335.69 1255.57,1338.61 1251.00,1339.55
             1240.07,1341.81 1221.68,1341.13 1210.00,1341.00
             1210.00,1341.00 1198.00,1340.03 1198.00,1340.03
             1198.00,1340.03 1186.00,1340.91 1186.00,1340.91
             1186.00,1340.91 1161.00,1339.00 1161.00,1339.00
             1139.38,1338.76 1132.35,1353.72 1114.00,1358.96
             1107.88,1360.71 1098.43,1360.56 1092.00,1361.17
             1092.00,1361.17 1066.00,1363.00 1066.00,1363.00
             1066.00,1363.00 1054.00,1363.95 1054.00,1363.95
             1054.00,1363.95 1040.00,1363.95 1040.00,1363.95
             1032.68,1363.91 1023.37,1360.49 1017.00,1362.33
             1008.93,1364.66 1007.68,1370.64 1003.09,1368.26
             1000.70,1367.01 997.25,1361.39 995.67,1359.00
             991.20,1352.26 983.66,1333.13 981.00,1325.00 Z" />
  <path id="Santa Catalina"
        fill="none" stroke="black" stroke-width="1"
        d="M 954.00,1267.00
           C 962.08,1265.48 967.31,1264.08 972.50,1257.00
             976.25,1251.90 977.10,1243.22 978.26,1237.00
             978.26,1237.00 983.84,1207.00 983.84,1207.00
             983.84,1207.00 985.72,1192.00 985.72,1192.00
             985.94,1190.21 985.93,1187.00 987.02,1185.59
             988.51,1183.68 991.36,1184.17 993.49,1182.26
             996.48,1179.59 995.32,1175.04 998.43,1173.59
             1000.43,1172.66 1006.69,1173.98 1009.00,1174.45
             1011.54,1174.96 1015.79,1175.93 1018.00,1177.14
             1020.89,1178.71 1025.84,1182.90 1026.71,1186.17
             1028.64,1193.45 1020.81,1208.38 1029.63,1216.41
             1033.67,1220.08 1040.86,1216.45 1046.00,1219.02
             1048.58,1220.31 1051.80,1223.85 1054.00,1225.91
             1054.00,1225.91 1075.00,1245.21 1075.00,1245.21
             1078.25,1247.54 1086.75,1250.58 1087.69,1254.21
             1088.55,1257.49 1086.83,1264.15 1084.57,1266.62
             1079.70,1271.95 1061.31,1278.89 1054.00,1281.33
             1034.75,1287.77 1017.51,1298.80 1000.00,1308.85
             1000.00,1308.85 981.09,1319.60 981.09,1319.60
             976.29,1321.49 968.36,1317.45 963.00,1316.01
             960.97,1315.47 957.49,1315.07 956.16,1313.43
             954.48,1311.36 954.17,1305.67 953.93,1303.00
             952.91,1292.04 951.85,1292.92 952.00,1280.00
             952.08,1273.53 953.10,1272.87 954.00,1267.00 Z" />
  <path id="San Vicente"
        fill="none" stroke="black" stroke-width="1"
        d="M 990.00,1178.00
           C 988.79,1177.51 987.90,1177.46 987.00,1176.28
             984.99,1173.68 986.32,1163.35 987.00,1160.00
             987.00,1160.00 987.00,1152.00 987.00,1152.00
             987.00,1152.00 993.29,1125.00 993.29,1125.00
             994.03,1122.37 995.76,1114.51 997.72,1112.99
             999.34,1111.74 1003.00,1112.00 1005.00,1112.00
             1005.00,1112.00 1051.00,1112.00 1051.00,1112.00
             1052.94,1112.00 1056.86,1111.77 1058.39,1113.02
             1060.38,1114.66 1059.29,1117.82 1059.19,1120.00
             1059.04,1123.21 1059.66,1125.47 1062.15,1127.69
             1066.20,1131.30 1081.36,1132.00 1087.00,1132.00
             1085.04,1139.90 1079.40,1142.82 1074.91,1149.08
             1073.08,1151.62 1072.58,1153.38 1071.17,1156.04
             1069.76,1158.70 1068.13,1160.87 1067.83,1164.00
             1067.58,1166.65 1068.61,1169.34 1068.79,1172.00
             1069.23,1178.63 1066.69,1182.35 1073.63,1192.00
             1082.28,1204.00 1087.98,1198.60 1088.00,1212.00
             1088.00,1212.00 1089.00,1229.00 1089.00,1229.00
             1089.00,1229.00 1089.00,1245.00 1089.00,1245.00
             1073.60,1243.37 1058.19,1219.87 1048.00,1214.09
             1039.02,1208.98 1030.23,1218.12 1031.17,1206.00
             1031.93,1196.24 1035.34,1187.48 1027.79,1179.29
             1026.00,1177.34 1021.17,1172.84 1018.96,1171.53
             1014.53,1168.91 997.59,1165.10 993.30,1168.60
             990.58,1170.82 990.27,1174.77 990.00,1178.00 Z" />
  <path id="San Ildefonso"
        fill="none" stroke="black" stroke-width="1"
        d="M 1081.00,1156.00
           C 1081.74,1153.24 1082.60,1150.48 1084.07,1148.00
             1085.94,1144.85 1094.77,1134.86 1098.01,1133.59
             1103.17,1131.59 1119.77,1132.00 1126.00,1132.00
             1126.00,1132.00 1181.00,1132.00 1181.00,1132.00
             1183.63,1132.00 1187.45,1131.77 1189.73,1133.17
             1192.71,1135.01 1194.31,1141.05 1200.00,1143.98
             1204.94,1146.52 1219.98,1146.07 1226.00,1146.00
             1226.00,1146.00 1251.00,1144.00 1251.00,1144.00
             1258.41,1144.13 1264.86,1147.52 1263.77,1156.00
             1262.40,1166.72 1243.67,1168.99 1235.00,1169.00
             1235.00,1169.00 1188.00,1169.00 1188.00,1169.00
             1172.91,1169.02 1176.15,1174.09 1165.00,1178.05
             1165.00,1178.05 1137.83,1183.16 1137.83,1183.16
             1137.83,1183.16 1117.00,1190.81 1117.00,1190.81
             1109.86,1194.35 1102.39,1199.51 1094.00,1198.88
             1089.75,1198.56 1087.08,1196.70 1084.00,1193.90
             1074.95,1185.64 1074.87,1181.47 1075.00,1170.00
             1075.06,1164.95 1075.14,1157.33 1081.00,1156.00 Z" />
  <path id="Santo Domingo"
        fill="none" stroke="black" stroke-width="1"
        d="M 1047.00,1006.09
           C 1047.00,1006.09 1087.00,1006.09 1087.00,1006.09
             1087.00,1006.09 1096.00,1006.09 1096.00,1006.09
             1096.00,1006.09 1128.00,1005.00 1128.00,1005.00
             1132.20,1005.01 1139.11,1005.38 1143.00,1006.81
             1156.87,1011.91 1169.00,1028.38 1181.00,1037.29
             1192.69,1045.98 1209.67,1049.31 1224.00,1048.99
             1226.97,1048.92 1240.93,1047.80 1243.00,1046.86
             1250.37,1043.54 1252.56,1037.53 1262.00,1038.09
             1262.00,1038.09 1295.00,1045.58 1295.00,1045.58
             1295.00,1045.58 1359.00,1061.88 1359.00,1061.88
             1359.00,1061.88 1391.00,1070.00 1391.00,1070.00
             1389.83,1076.88 1381.21,1081.98 1376.00,1086.20
             1376.00,1086.20 1334.00,1120.26 1334.00,1120.26
             1334.00,1120.26 1304.00,1144.98 1304.00,1144.98
             1304.00,1144.98 1296.73,1149.72 1296.73,1149.72
             1293.33,1152.29 1288.19,1159.59 1283.85,1160.31
             1279.21,1161.08 1276.87,1154.51 1273.45,1150.80
             1266.43,1143.20 1260.96,1136.77 1250.00,1137.01
             1236.21,1137.32 1216.40,1141.47 1203.05,1137.86
             1196.94,1136.21 1199.63,1131.71 1193.90,1127.85
             1189.20,1124.69 1178.16,1124.68 1172.39,1124.89
             1172.39,1124.89 1134.00,1124.89 1134.00,1124.89
             1134.00,1124.89 1117.00,1126.00 1117.00,1126.00
             1117.00,1126.00 1083.00,1126.00 1083.00,1126.00
             1080.18,1126.00 1068.43,1125.43 1066.60,1123.98
             1063.73,1121.70 1066.08,1115.87 1063.99,1111.04
             1061.41,1105.05 1051.73,1105.07 1046.00,1105.00
             1046.00,1105.00 1029.00,1105.00 1029.00,1105.00
             1029.00,1105.00 1015.00,1106.00 1015.00,1106.00
             1012.23,1106.03 1002.60,1106.51 1000.74,1105.01
             998.55,1103.24 999.19,1099.38 999.67,1097.00
             1000.70,1091.83 1003.69,1081.36 1006.48,1077.09
             1009.90,1071.84 1013.52,1070.95 1018.00,1067.53
             1020.48,1065.64 1027.70,1058.45 1029.89,1056.00
             1034.87,1050.43 1037.58,1041.07 1040.00,1034.00
             1045.18,1018.88 1047.00,1024.05 1047.00,1006.09 Z" />
  <path id="Magsingal"
        fill="none" stroke="black" stroke-width="1"
        d="M 1003.00,973.00
           C 1004.50,966.92 1004.65,962.13 1005.04,956.00
             1005.21,953.43 1005.63,950.47 1008.23,949.19
             1013.62,946.53 1021.52,952.81 1026.00,954.30
             1030.93,955.95 1044.39,956.01 1050.00,956.00
             1057.85,955.99 1069.50,954.84 1073.55,946.98
             1075.99,942.25 1073.96,938.35 1076.60,935.93
             1080.79,932.08 1091.75,933.16 1097.00,933.49
             1106.43,934.08 1113.13,929.51 1121.00,925.23
             1121.00,925.23 1168.00,896.28 1168.00,896.28
             1177.65,890.78 1178.73,887.02 1190.00,887.00
             1190.00,887.00 1251.00,887.00 1251.00,887.00
             1251.00,887.00 1268.00,888.00 1268.00,888.00
             1268.00,888.00 1284.00,888.00 1284.00,888.00
             1284.00,888.00 1303.00,889.96 1303.00,889.96
             1303.00,889.96 1312.00,889.96 1312.00,889.96
             1312.00,889.96 1328.00,892.08 1328.00,892.08
             1328.00,892.08 1336.00,892.08 1336.00,892.08
             1339.90,893.02 1341.62,894.46 1345.00,895.80
             1345.00,895.80 1352.00,898.06 1352.00,898.06
             1359.28,901.18 1363.09,905.53 1369.00,909.07
             1369.00,909.07 1388.00,917.19 1388.00,917.19
             1388.00,917.19 1432.00,931.58 1432.00,931.58
             1432.00,931.58 1457.00,938.86 1457.00,938.86
             1457.00,938.86 1490.00,954.00 1490.00,954.00
             1490.00,954.00 1448.31,1037.00 1448.31,1037.00
             1448.31,1037.00 1437.30,1062.00 1437.30,1062.00
             1436.25,1064.35 1434.42,1069.62 1432.36,1070.96
             1430.32,1072.36 1426.33,1071.31 1424.00,1070.96
             1424.00,1070.96 1401.00,1066.20 1401.00,1066.20
             1401.00,1066.20 1310.00,1042.88 1310.00,1042.88
             1310.00,1042.88 1275.00,1034.79 1275.00,1034.79
             1270.52,1033.82 1262.32,1031.54 1258.00,1032.15
             1252.38,1032.94 1248.95,1038.48 1244.00,1040.84
             1241.94,1041.82 1227.99,1042.92 1225.00,1042.99
             1212.53,1043.27 1195.48,1040.68 1185.00,1033.75
             1171.90,1025.09 1162.48,1009.86 1143.00,1001.22
             1132.07,996.37 1111.09,999.98 1099.00,1000.00
             1099.00,1000.00 1081.00,1000.00 1081.00,1000.00
             1081.00,1000.00 1067.00,999.00 1067.00,999.00
             1063.24,998.96 1049.12,999.99 1047.02,997.40
             1044.71,994.55 1045.83,981.75 1041.57,977.31
             1038.96,974.60 1034.52,974.36 1031.00,973.87
             1024.58,972.98 1008.84,971.58 1003.00,973.00 Z" />
  <path id="San Juan"
        fill="none" stroke="black" stroke-width="1"
        d="M 1175.00,731.00
           C 1179.74,731.00 1186.56,731.32 1191.00,730.14
             1198.05,728.26 1195.47,726.06 1205.00,726.00
             1205.00,726.00 1232.00,726.00 1232.00,726.00
             1232.00,726.00 1265.00,728.00 1265.00,728.00
             1281.99,728.03 1294.67,731.03 1311.00,733.92
             1311.00,733.92 1347.00,740.77 1347.00,740.77
             1347.00,740.77 1371.00,750.19 1371.00,750.19
             1371.00,750.19 1408.00,764.70 1408.00,764.70
             1408.00,764.70 1450.00,784.75 1450.00,784.75
             1453.20,786.35 1464.42,791.50 1466.26,793.63
             1468.32,796.02 1468.45,806.01 1469.37,810.00
             1472.18,822.15 1476.79,833.66 1481.86,845.00
             1486.49,855.35 1494.38,867.71 1502.09,876.00
             1502.09,876.00 1523.00,897.00 1523.00,897.00
             1523.00,897.00 1501.58,934.00 1501.58,934.00
             1500.01,936.77 1495.26,946.38 1492.61,947.33
             1489.89,948.32 1484.45,945.48 1482.00,944.22
             1473.82,939.98 1465.68,936.21 1457.00,933.05
             1457.00,933.05 1438.00,927.58 1438.00,927.58
             1438.00,927.58 1385.00,910.55 1385.00,910.55
             1361.54,901.24 1368.14,899.30 1352.00,892.33
             1345.87,889.69 1336.52,885.87 1330.00,885.04
             1330.00,885.04 1321.00,885.04 1321.00,885.04
             1321.00,885.04 1304.00,883.00 1304.00,883.00
             1304.00,883.00 1295.00,883.00 1295.00,883.00
             1295.00,883.00 1273.00,881.00 1273.00,881.00
             1273.00,881.00 1224.00,881.00 1224.00,881.00
             1224.00,881.00 1183.00,881.00 1183.00,881.00
             1183.00,881.00 1186.75,850.00 1186.75,850.00
             1187.32,846.55 1187.96,840.17 1190.65,837.82
             1192.98,835.79 1205.23,834.01 1209.00,833.12
             1211.29,832.57 1214.98,831.72 1217.00,830.70
             1221.27,828.54 1234.89,817.17 1236.98,813.00
             1238.19,810.57 1237.99,807.65 1237.77,805.00
             1238.01,799.49 1238.86,781.98 1237.77,778.00
             1233.75,766.46 1228.97,768.47 1221.14,762.10
             1216.85,758.60 1218.46,755.18 1212.00,750.65
             1207.18,747.27 1187.77,744.27 1181.00,743.00
             1179.95,736.70 1178.49,736.10 1175.00,731.00 Z" />
  <path id="Cabugao"
        fill="none" stroke="black" stroke-width="1"
        d="M 1145.00,676.00
           C 1145.00,676.00 1147.00,657.00 1147.00,657.00
             1147.00,657.00 1147.00,629.00 1147.00,629.00
             1147.05,625.04 1147.51,615.36 1150.43,612.70
             1153.14,610.23 1157.54,610.05 1161.00,610.00
             1161.00,610.00 1193.00,610.00 1193.00,610.00
             1197.34,609.99 1202.07,610.02 1206.00,607.86
             1213.87,603.53 1223.43,581.71 1228.42,573.00
             1230.98,568.53 1235.70,556.79 1241.04,556.18
             1243.61,555.90 1250.18,557.77 1253.00,558.47
             1253.00,558.47 1284.00,565.96 1284.00,565.96
             1293.09,566.20 1293.08,560.57 1298.42,560.53
             1300.78,560.52 1306.49,563.23 1309.00,564.19
             1312.92,565.67 1322.94,568.39 1327.00,568.83
             1327.00,568.83 1360.00,570.00 1360.00,570.00
             1360.00,570.00 1377.00,569.00 1377.00,569.00
             1377.00,569.00 1412.00,569.00 1412.00,569.00
             1415.03,569.01 1418.21,568.71 1420.79,570.60
             1423.85,572.84 1425.38,578.14 1432.00,579.75
             1440.99,581.93 1461.09,577.22 1471.00,577.00
             1471.17,580.66 1471.36,585.71 1474.31,588.30
             1477.19,590.82 1481.98,590.54 1482.52,594.22
             1482.92,596.88 1477.77,610.31 1476.74,614.00
             1474.27,622.92 1473.11,636.67 1473.00,646.00
             1473.00,646.00 1472.00,661.00 1472.00,661.00
             1472.00,661.00 1468.91,721.00 1468.91,721.00
             1468.91,721.00 1467.00,744.00 1467.00,744.00
             1467.00,744.00 1465.60,774.00 1465.60,774.00
             1466.01,776.17 1467.18,783.67 1465.60,784.85
             1462.91,786.45 1452.64,780.57 1450.00,779.25
             1450.00,779.25 1406.00,758.28 1406.00,758.28
             1406.00,758.28 1348.00,735.44 1348.00,735.44
             1348.00,735.44 1313.00,728.58 1313.00,728.58
             1313.00,728.58 1296.00,725.28 1296.00,725.28
             1296.00,725.28 1248.00,720.96 1248.00,720.96
             1248.00,720.96 1237.00,719.79 1237.00,719.79
             1237.00,719.79 1211.00,719.79 1211.00,719.79
             1208.84,719.28 1204.38,718.99 1202.97,717.26
             1201.20,715.03 1202.64,708.78 1202.97,706.00
             1204.24,694.45 1207.89,679.55 1193.00,675.90
             1189.05,674.93 1186.97,675.01 1183.00,675.00
             1170.35,674.98 1157.55,674.34 1145.00,676.00 Z" />
  <path id="Sinait"
        fill="none" stroke="black" stroke-width="1"
        d="M 1262.06,334.75
           C 1268.23,333.49 1278.87,335.87 1285.00,337.58
             1285.00,337.58 1315.00,345.79 1315.00,345.79
             1315.00,345.79 1394.00,361.32 1394.00,361.32
             1412.99,364.62 1431.61,368.97 1451.00,369.00
             1462.07,369.02 1473.10,370.81 1484.00,372.56
             1495.42,374.40 1499.90,373.90 1511.00,378.86
             1516.27,381.22 1526.14,387.58 1528.26,393.01
             1529.07,395.07 1528.99,397.81 1529.00,400.00
             1529.00,400.00 1529.00,405.00 1529.00,405.00
             1529.00,405.00 1525.09,449.00 1525.09,449.00
             1525.09,449.00 1530.50,479.00 1530.50,479.00
             1528.89,491.67 1523.92,509.38 1518.69,521.00
             1518.69,521.00 1506.86,545.00 1506.86,545.00
             1506.86,545.00 1491.75,576.00 1491.75,576.00
             1490.36,578.80 1487.80,585.29 1484.79,586.31
             1475.19,589.55 1477.64,574.34 1470.95,571.95
             1468.43,570.78 1462.86,571.81 1460.00,571.95
             1460.00,571.95 1447.00,573.09 1447.00,573.09
             1447.00,573.09 1438.00,573.99 1438.00,573.99
             1435.74,574.04 1432.33,574.19 1430.38,572.98
             1427.72,571.33 1427.16,567.93 1422.91,565.41
             1418.78,562.97 1414.61,563.01 1410.00,563.00
             1410.00,563.00 1349.00,563.00 1349.00,563.00
             1334.27,563.00 1318.62,563.41 1305.02,556.67
             1298.25,553.33 1298.39,548.47 1295.94,542.00
             1295.94,542.00 1288.60,525.00 1288.60,525.00
             1288.60,525.00 1275.69,494.00 1275.69,494.00
             1275.69,494.00 1262.31,467.00 1262.31,467.00
             1262.31,467.00 1256.95,453.00 1256.95,453.00
             1254.18,445.58 1247.44,429.53 1248.34,422.00
             1249.42,412.95 1255.54,417.83 1260.00,416.36
             1264.86,414.76 1266.62,409.52 1267.55,405.00
             1268.34,401.20 1270.43,390.37 1270.25,387.00
             1269.70,376.83 1263.49,361.52 1259.91,352.00
             1257.75,346.23 1255.96,338.44 1262.06,334.75 Z" />
</svg>
