<?xml version="1.0" encoding="UTF-8" standalone="no"?>
<!DOCTYPE svg PUBLIC "-//W3C//DTD SVG 20010904//EN"
              "http://www.w3.org/TR/2001/REC-SVG-20010904/DTD/svg10.dtd">

<svg xmlns="http://www.w3.org/2000/svg"
     width="643.386mm" height="965.079mm"
     viewBox="0 0 1824 2736">
  <path id="Pugo"
        fill="none" stroke="black" stroke-width="1"
        d="M 1132.00,2328.00
           C 1132.00,2328.00 1132.00,2312.00 1132.00,2312.00
             1132.00,2312.00 1133.00,2297.00 1133.00,2297.00
             1133.00,2297.00 1134.00,2270.00 1134.00,2270.00
             1134.00,2270.00 1134.96,2258.00 1134.96,2258.00
             1134.96,2258.00 1134.96,2245.00 1134.96,2245.00
             1134.96,2245.00 1136.00,2230.00 1136.00,2230.00
             1136.00,2230.00 1137.00,2213.00 1137.00,2213.00
             1137.00,2213.00 1137.00,2207.00 1137.00,2207.00
             1136.95,2196.97 1129.42,2173.76 1126.42,2163.00
             1120.12,2140.32 1120.91,2138.78 1117.41,2117.00
             1117.41,2117.00 1113.78,2093.00 1113.78,2093.00
             1113.63,2090.15 1112.59,2085.73 1113.78,2083.09
             1114.63,2080.40 1117.79,2078.16 1120.00,2076.42
             1120.00,2076.42 1134.00,2065.35 1134.00,2065.35
             1134.00,2065.35 1150.00,2052.75 1150.00,2052.75
             1161.74,2044.13 1181.56,2032.79 1195.00,2027.00
             1196.71,2033.03 1196.01,2043.41 1196.00,2050.00
             1196.00,2050.00 1194.97,2072.00 1194.97,2072.00
             1194.97,2077.30 1193.00,2085.51 1194.97,2090.00
             1194.97,2090.00 1206.53,2106.00 1206.53,2106.00
             1206.53,2106.00 1227.37,2134.00 1227.37,2134.00
             1231.40,2139.35 1237.40,2145.47 1238.88,2152.00
             1238.88,2152.00 1242.42,2172.00 1242.42,2172.00
             1242.42,2172.00 1251.42,2222.00 1251.42,2222.00
             1251.42,2222.00 1277.42,2367.00 1277.42,2367.00
             1277.42,2367.00 1293.61,2456.00 1293.61,2456.00
             1293.61,2456.00 1303.00,2510.00 1303.00,2510.00
             1296.77,2509.55 1294.17,2507.25 1289.00,2503.95
             1279.74,2498.03 1266.35,2484.69 1259.40,2476.00
             1231.46,2441.07 1224.10,2415.92 1205.26,2377.00
             1205.26,2377.00 1191.30,2348.00 1191.30,2348.00
             1189.84,2344.92 1185.69,2335.50 1183.51,2333.59
             1181.08,2331.48 1173.37,2330.88 1170.00,2330.42
             1161.73,2329.30 1153.34,2329.04 1145.00,2329.00
             1145.00,2329.00 1132.00,2328.00 1132.00,2328.00 Z" />
  <path id="Rosario"
        fill="none" stroke="black" stroke-width="1"
        d="M 1131.00,2335.00
           C 1131.00,2335.00 1162.58,2336.17 1162.58,2336.17
             1165.73,2336.26 1176.53,2336.84 1178.79,2338.17
             1181.43,2339.73 1182.91,2343.35 1184.25,2346.00
             1184.25,2346.00 1193.75,2365.00 1193.75,2365.00
             1193.75,2365.00 1229.01,2440.00 1229.01,2440.00
             1237.96,2455.32 1247.30,2470.72 1259.17,2484.00
             1259.17,2484.00 1278.00,2501.96 1278.00,2501.96
             1278.00,2501.96 1303.99,2520.38 1303.99,2520.38
             1306.00,2523.05 1306.96,2529.58 1307.58,2533.00
             1308.02,2535.46 1308.84,2539.62 1308.59,2542.00
             1308.59,2542.00 1300.32,2566.00 1300.32,2566.00
             1300.32,2566.00 1279.31,2624.00 1279.31,2624.00
             1279.31,2624.00 1273.05,2641.00 1273.05,2641.00
             1272.09,2643.53 1271.25,2646.49 1268.78,2647.98
             1266.74,2649.20 1263.34,2649.00 1261.00,2649.00
             1261.00,2649.00 1241.00,2649.00 1241.00,2649.00
             1241.00,2649.00 1226.00,2648.00 1226.00,2648.00
             1226.00,2648.00 1130.00,2648.00 1130.00,2648.00
             1130.00,2648.00 1115.00,2647.00 1115.00,2647.00
             1115.00,2647.00 1057.00,2647.00 1057.00,2647.00
             1057.00,2647.00 1042.00,2646.00 1042.00,2646.00
             1042.00,2646.00 981.00,2646.00 981.00,2646.00
             973.37,2646.01 966.96,2648.97 961.56,2641.98
             955.26,2633.85 949.77,2608.66 946.85,2598.00
             940.97,2576.55 924.63,2550.60 921.87,2531.00
             921.25,2526.62 919.18,2517.09 920.31,2513.13
             921.79,2507.98 937.93,2507.00 943.00,2505.88
             943.00,2505.88 992.00,2496.61 992.00,2496.61
             992.00,2496.61 1015.00,2491.97 1015.00,2491.97
             1019.13,2490.41 1025.72,2484.18 1029.00,2480.99
             1029.00,2480.99 1046.00,2465.03 1046.00,2465.03
             1046.00,2465.03 1081.00,2432.91 1081.00,2432.91
             1081.00,2432.91 1103.00,2412.17 1103.00,2412.17
             1103.00,2412.17 1119.00,2397.17 1119.00,2397.17
             1122.25,2394.23 1126.65,2391.22 1128.26,2387.00
             1129.37,2384.11 1128.99,2375.51 1129.00,2372.00
             1129.00,2372.00 1130.00,2360.00 1130.00,2360.00
             1130.00,2360.00 1130.00,2349.00 1130.00,2349.00
             1130.00,2349.00 1131.00,2335.00 1131.00,2335.00 Z" />
  <path id="Santo tomas"
        fill="none" stroke="black" stroke-width="1"
        d="M 814.00,2450.00
           C 814.00,2450.00 810.55,2449.29 810.55,2449.29
             810.55,2449.29 798.99,2433.00 798.99,2433.00
             798.99,2433.00 774.24,2403.00 774.24,2403.00
             774.24,2403.00 761.33,2383.00 761.33,2383.00
             761.33,2383.00 730.86,2332.00 730.86,2332.00
             730.86,2332.00 720.26,2311.00 720.26,2311.00
             720.26,2311.00 724.19,2302.00 724.19,2302.00
             724.19,2302.00 738.09,2284.00 738.09,2284.00
             738.09,2284.00 758.00,2265.95 758.00,2265.95
             758.00,2265.95 774.00,2253.31 774.00,2253.31
             774.00,2253.31 781.00,2253.31 781.00,2253.31
             781.00,2253.31 808.04,2253.31 808.04,2253.31
             808.04,2253.31 819.00,2254.04 819.00,2254.04
             819.00,2254.04 833.00,2254.04 833.00,2254.04
             833.00,2254.04 845.00,2255.00 845.00,2255.00
             845.00,2255.00 930.00,2257.00 930.00,2257.00
             930.00,2257.00 946.00,2258.00 946.00,2258.00
             946.00,2258.00 956.00,2258.00 956.00,2258.00
             956.00,2258.00 970.00,2258.99 970.00,2258.99
             970.00,2258.99 980.00,2260.02 980.00,2260.02
             980.00,2260.02 992.00,2271.00 992.00,2271.00
             992.00,2271.00 1021.01,2299.96 1021.01,2299.96
             1021.01,2299.96 1051.00,2320.33 1051.00,2320.33
             1051.00,2320.33 1066.00,2330.16 1066.00,2330.16
             1066.00,2330.16 1082.18,2331.43 1082.18,2331.43
             1082.18,2331.43 1108.00,2333.00 1108.00,2333.00
             1108.00,2333.00 1124.00,2334.00 1124.00,2334.00
             1124.00,2334.00 1122.17,2374.00 1122.17,2374.00
             1121.81,2377.79 1122.56,2383.83 1120.98,2387.00
             1119.60,2389.75 1114.37,2394.65 1112.00,2397.00
             1112.00,2397.00 1087.00,2420.00 1087.00,2420.00
             1087.00,2420.00 1042.00,2462.09 1042.00,2462.09
             1037.36,2466.41 1021.32,2482.61 1017.00,2485.07
             1014.11,2486.72 1005.62,2488.12 1002.00,2488.75
             1002.00,2488.75 977.00,2493.42 977.00,2493.42
             977.00,2493.42 936.00,2501.20 936.00,2501.20
             932.87,2501.82 922.93,2504.37 920.43,2502.89
             916.80,2500.74 919.05,2494.78 916.65,2487.00
             912.33,2472.94 906.00,2465.00 898.00,2453.00
             898.00,2453.00 880.83,2429.00 880.83,2429.00
             869.48,2416.29 856.46,2405.43 844.00,2393.92
             836.20,2386.70 829.10,2378.93 822.05,2371.00
             822.05,2371.00 802.00,2349.01 802.00,2349.01
             799.64,2346.71 795.40,2342.46 792.00,2342.09
             783.79,2341.19 784.94,2351.99 785.00,2357.00
             785.12,2366.20 790.93,2396.75 794.35,2405.00
             794.35,2405.00 801.74,2420.00 801.74,2420.00
             805.63,2428.03 811.49,2441.59 814.00,2450.00 Z" />
  <path id="Agoo"
        fill="none" stroke="black" stroke-width="1"
        d="M 710.00,2087.00
           C 716.19,2084.42 724.30,2083.71 731.00,2082.59
             731.00,2082.59 748.00,2080.03 748.00,2080.03
             748.00,2080.03 769.00,2081.91 769.00,2081.91
             775.42,2082.35 789.26,2082.36 795.00,2084.04
             809.40,2088.25 831.95,2100.51 846.00,2099.96
             870.84,2098.99 878.64,2083.47 900.00,2083.00
             900.00,2083.00 901.00,2139.00 901.00,2139.00
             901.03,2153.54 910.50,2153.28 917.16,2164.00
             917.16,2164.00 932.21,2203.00 932.21,2203.00
             932.21,2203.00 956.30,2234.00 956.30,2234.00
             961.39,2239.93 967.34,2242.84 968.00,2251.00
             968.00,2251.00 941.00,2251.00 941.00,2251.00
             941.00,2251.00 926.00,2250.00 926.00,2250.00
             926.00,2250.00 911.00,2250.00 911.00,2250.00
             911.00,2250.00 894.00,2249.00 894.00,2249.00
             894.00,2249.00 825.00,2248.00 825.00,2248.00
             825.00,2248.00 808.00,2246.91 808.00,2246.91
             808.00,2246.91 794.00,2246.91 794.00,2246.91
             788.38,2246.99 777.57,2245.00 773.00,2246.91
             769.52,2248.06 757.42,2258.97 754.00,2262.07
             754.00,2262.07 739.04,2275.17 739.04,2275.17
             732.17,2281.66 721.53,2295.53 717.00,2304.00
             710.37,2301.94 708.84,2294.89 706.23,2289.00
             703.72,2283.33 702.64,2273.38 701.85,2267.00
             701.85,2267.00 700.04,2257.00 700.04,2257.00
             700.04,2257.00 700.04,2246.00 700.04,2246.00
             700.04,2246.00 699.00,2234.00 699.00,2234.00
             698.95,2199.21 701.87,2189.18 707.43,2156.00
             707.43,2156.00 713.00,2117.00 713.00,2117.00
             713.00,2117.00 713.00,2104.00 713.00,2104.00
             712.98,2094.32 712.28,2095.67 710.00,2087.00 Z" />
  <path id="Tubao"
        fill="none" stroke="black" stroke-width="1"
        d="M 1200.00,1946.17
           C 1198.80,1955.07 1199.01,1961.00 1199.00,1970.00
             1199.00,1970.00 1198.00,1985.00 1198.00,1985.00
             1198.00,1985.00 1198.00,2002.00 1198.00,2002.00
             1197.96,2005.48 1197.28,2016.27 1195.40,2018.79
             1193.31,2021.59 1176.37,2029.85 1172.00,2032.45
             1154.85,2042.68 1140.52,2053.99 1125.00,2066.40
             1121.35,2069.32 1108.62,2078.79 1106.88,2082.04
             1104.96,2085.63 1106.98,2092.97 1107.57,2097.00
             1107.57,2097.00 1112.73,2133.00 1112.73,2133.00
             1112.73,2133.00 1114.67,2146.00 1114.67,2146.00
             1114.67,2146.00 1124.42,2180.00 1124.42,2180.00
             1126.87,2188.58 1129.99,2197.03 1130.00,2206.00
             1130.00,2206.00 1130.00,2213.00 1130.00,2213.00
             1130.00,2213.00 1129.00,2223.00 1129.00,2223.00
             1129.00,2223.00 1129.00,2235.00 1129.00,2235.00
             1129.00,2235.00 1128.00,2247.00 1128.00,2247.00
             1128.00,2247.00 1126.00,2299.00 1126.00,2299.00
             1126.00,2299.00 1125.04,2309.00 1125.04,2309.00
             1125.04,2309.00 1125.04,2319.00 1125.04,2319.00
             1124.97,2321.15 1125.11,2324.52 1123.26,2326.01
             1121.54,2327.40 1115.33,2327.02 1113.00,2327.00
             1113.00,2327.00 1098.00,2326.00 1098.00,2326.00
             1098.00,2326.00 1074.00,2325.00 1074.00,2325.00
             1063.97,2324.87 1060.90,2320.72 1053.00,2315.34
             1053.00,2315.34 1024.00,2295.33 1024.00,2295.33
             1014.01,2287.46 989.56,2261.37 979.91,2251.00
             969.60,2239.91 944.96,2213.09 937.95,2201.00
             937.95,2201.00 925.17,2168.00 925.17,2168.00
             921.17,2158.38 912.14,2154.23 909.02,2148.00
             907.67,2145.29 908.00,2141.04 908.00,2138.00
             908.00,2138.00 907.00,2121.00 907.00,2121.00
             907.00,2121.00 907.00,2089.00 907.00,2089.00
             907.00,2087.00 906.76,2083.20 908.02,2081.60
             909.65,2079.52 920.94,2078.42 924.00,2077.92
             924.00,2077.92 957.00,2072.55 957.00,2072.55
             957.00,2072.55 973.00,2068.37 973.00,2068.37
             973.00,2068.37 1010.00,2058.43 1010.00,2058.43
             1010.00,2058.43 1029.00,2051.69 1029.00,2051.69
             1029.00,2051.69 1058.00,2041.55 1058.00,2041.55
             1058.00,2041.55 1099.00,2021.69 1099.00,2021.69
             1099.00,2021.69 1117.00,2010.42 1117.00,2010.42
             1117.00,2010.42 1133.00,2000.43 1133.00,2000.43
             1133.00,2000.43 1165.00,1975.83 1165.00,1975.83
             1165.00,1975.83 1181.00,1960.58 1181.00,1960.58
             1181.00,1960.58 1196.09,1946.17 1196.09,1946.17
             1197.74,1945.68 1198.41,1945.95 1200.00,1946.17 Z" />
  <path id="Aringay"
        fill="none" stroke="black" stroke-width="1"
        d="M 648.00,1935.00
           C 650.75,1920.32 662.21,1910.41 671.73,1899.91
             673.98,1897.42 679.39,1889.04 681.21,1888.06
             682.96,1887.22 690.41,1888.00 693.00,1888.06
             693.00,1888.06 768.00,1891.00 768.00,1891.00
             768.00,1891.00 800.00,1893.00 800.00,1893.00
             800.00,1893.00 812.00,1893.00 812.00,1893.00
             812.00,1893.00 828.00,1894.00 828.00,1894.00
             828.00,1894.00 842.00,1895.00 842.00,1895.00
             842.00,1895.00 856.00,1895.00 856.00,1895.00
             864.58,1894.88 868.07,1890.87 875.00,1886.34
             875.00,1886.34 906.00,1866.22 906.00,1866.22
             906.00,1866.22 1019.00,1792.67 1019.00,1792.67
             1019.00,1792.67 1078.00,1754.31 1078.00,1754.31
             1083.45,1750.79 1096.70,1741.16 1102.00,1739.64
             1104.58,1738.89 1107.34,1739.00 1110.00,1739.00
             1110.00,1739.00 1123.00,1739.00 1123.00,1739.00
             1123.00,1739.00 1138.00,1740.00 1138.00,1740.00
             1138.00,1740.00 1161.00,1740.00 1161.00,1740.00
             1163.55,1740.01 1167.46,1739.67 1169.40,1741.60
             1171.03,1743.21 1171.21,1746.79 1171.61,1749.00
             1171.61,1749.00 1174.41,1766.00 1174.41,1766.00
             1174.41,1766.00 1183.73,1824.00 1183.73,1824.00
             1183.73,1824.00 1187.80,1850.00 1187.80,1850.00
             1187.80,1850.00 1196.27,1903.00 1196.27,1903.00
             1197.10,1908.64 1200.34,1924.49 1199.89,1929.00
             1199.18,1936.12 1185.22,1949.78 1180.00,1955.00
             1157.20,1977.80 1139.11,1990.62 1112.00,2007.42
             1093.48,2018.90 1093.20,2018.49 1074.00,2027.31
             1074.00,2027.31 1059.00,2034.55 1059.00,2034.55
             1059.00,2034.55 1040.00,2041.42 1040.00,2041.42
             1040.00,2041.42 1011.00,2051.96 1011.00,2051.96
             1011.00,2051.96 978.00,2060.37 978.00,2060.37
             978.00,2060.37 959.00,2065.34 959.00,2065.34
             959.00,2065.34 906.00,2074.20 906.00,2074.20
             900.43,2075.31 889.92,2077.64 885.00,2079.98
             878.59,2083.03 871.73,2088.20 865.00,2090.40
             858.29,2092.60 848.09,2093.08 841.00,2093.00
             829.55,2092.86 806.40,2081.66 794.00,2077.90
             788.83,2076.33 782.39,2076.01 777.00,2076.00
             777.00,2076.00 746.00,2074.18 746.00,2074.18
             746.00,2074.18 720.00,2078.13 720.00,2078.13
             717.31,2078.52 711.54,2080.04 709.22,2079.17
             706.28,2078.07 705.96,2074.86 704.16,2072.00
             704.16,2072.00 693.83,2060.01 693.83,2060.01
             679.05,2044.07 659.06,2035.55 657.00,2011.00
             663.19,2011.30 679.43,2016.49 685.00,2019.40
             685.00,2019.40 695.00,2026.15 695.00,2026.15
             699.02,2029.08 702.31,2031.66 706.00,2035.02
             707.80,2036.66 710.32,2039.37 712.94,2039.37
             717.48,2039.37 716.75,2033.89 716.19,2031.00
             714.68,2023.16 711.36,2016.50 706.79,2010.00
             697.53,1996.82 690.88,1994.63 676.00,1989.67
             670.93,1987.98 654.80,1982.09 651.81,1978.37
             650.17,1976.32 649.63,1965.53 649.00,1962.00
             656.49,1959.87 668.64,1962.90 677.00,1963.04
             677.00,1963.04 690.00,1963.04 690.00,1963.04
             690.00,1963.04 702.00,1964.00 702.00,1964.00
             702.00,1964.00 742.00,1964.00 742.00,1964.00
             742.00,1964.00 757.00,1965.00 757.00,1965.00
             757.00,1965.00 774.00,1965.00 774.00,1965.00
             774.00,1965.00 792.91,1963.69 792.91,1963.69
             795.38,1963.01 797.74,1960.78 797.28,1958.00
             796.76,1954.91 792.57,1952.17 790.00,1950.82
             785.04,1948.22 770.79,1944.50 765.00,1943.59
             765.00,1943.59 756.00,1942.83 756.00,1942.83
             756.00,1942.83 732.00,1940.00 732.00,1940.00
             732.00,1940.00 723.00,1940.00 723.00,1940.00
             723.00,1940.00 665.00,1936.00 665.00,1936.00
             665.00,1936.00 648.00,1935.00 648.00,1935.00 Z" />
  <path id="Caba"
        fill="none" stroke="black" stroke-width="1"
        d="M 685.00,1882.00
           C 685.00,1882.00 688.24,1860.00 688.24,1860.00
             688.24,1860.00 680.66,1831.00 680.66,1831.00
             680.66,1831.00 671.83,1771.00 671.83,1771.00
             671.83,1771.00 669.55,1749.00 669.55,1749.00
             669.55,1749.00 669.55,1739.60 669.55,1739.60
             669.55,1739.60 678.00,1737.96 678.00,1737.96
             678.00,1737.96 693.00,1737.96 693.00,1737.96
             693.00,1737.96 705.00,1737.00 705.00,1737.00
             705.00,1737.00 735.00,1737.00 735.00,1737.00
             735.00,1737.00 750.00,1736.00 750.00,1736.00
             750.00,1736.00 769.00,1736.00 769.00,1736.00
             769.00,1736.00 786.00,1735.00 786.00,1735.00
             786.00,1735.00 848.00,1735.00 848.00,1735.00
             848.00,1735.00 865.00,1736.00 865.00,1736.00
             865.00,1736.00 935.00,1736.00 935.00,1736.00
             935.00,1736.00 951.00,1737.00 951.00,1737.00
             951.00,1737.00 996.00,1737.00 996.00,1737.00
             996.00,1737.00 1013.00,1738.00 1013.00,1738.00
             1013.00,1738.00 1084.00,1739.00 1084.00,1739.00
             1084.00,1739.00 1083.01,1743.40 1083.01,1743.40
             1083.01,1743.40 1064.00,1756.67 1064.00,1756.67
             1064.00,1756.67 1000.00,1798.50 1000.00,1798.50
             1000.00,1798.50 901.00,1863.33 901.00,1863.33
             901.00,1863.33 876.00,1879.67 876.00,1879.67
             876.00,1879.67 862.00,1888.30 862.00,1888.30
             862.00,1888.30 848.00,1889.00 848.00,1889.00
             848.00,1889.00 824.00,1888.00 824.00,1888.00
             824.00,1888.00 809.00,1887.00 809.00,1887.00
             809.00,1887.00 760.00,1885.00 760.00,1885.00
             760.00,1885.00 744.00,1884.00 744.00,1884.00
             744.00,1884.00 725.00,1882.96 725.00,1882.96
             725.00,1882.96 713.00,1882.96 713.00,1882.96
             713.00,1882.96 701.00,1882.00 701.00,1882.00
             701.00,1882.00 685.00,1882.00 685.00,1882.00 Z" />
  <path id="Bauang"
        fill="none" stroke="black" stroke-width="1"
        d="M 930.00,1730.00
           C 930.00,1730.00 898.00,1730.00 898.00,1730.00
             898.00,1730.00 881.00,1729.00 881.00,1729.00
             881.00,1729.00 833.00,1729.00 833.00,1729.00
             833.00,1729.00 816.00,1728.00 816.00,1728.00
             816.00,1728.00 790.00,1728.00 790.00,1728.00
             790.00,1728.00 773.00,1729.04 773.00,1729.04
             773.00,1729.04 758.00,1729.04 758.00,1729.04
             758.00,1729.04 747.00,1730.00 747.00,1730.00
             747.00,1730.00 725.00,1730.00 725.00,1730.00
             725.00,1730.00 710.00,1731.00 710.00,1731.00
             710.00,1731.00 697.00,1731.00 697.00,1731.00
             697.00,1731.00 680.00,1732.00 680.00,1732.00
             680.00,1732.00 675.00,1732.00 675.00,1732.00
             670.71,1731.92 668.36,1731.76 667.34,1726.98
             667.34,1726.98 665.71,1706.00 665.71,1706.00
             664.13,1693.25 661.67,1686.04 658.29,1674.00
             655.88,1665.36 655.75,1652.92 652.59,1646.00
             648.08,1636.11 636.99,1624.18 630.75,1615.00
             630.75,1615.00 605.05,1574.00 605.05,1574.00
             605.05,1574.00 591.70,1552.00 591.70,1552.00
             591.70,1552.00 589.25,1531.00 589.25,1531.00
             587.69,1524.48 584.07,1513.37 584.06,1507.00
             584.04,1495.97 596.55,1502.02 600.43,1489.00
             600.43,1489.00 606.21,1454.00 606.21,1454.00
             607.95,1448.07 616.53,1439.05 619.19,1432.00
             619.19,1432.00 621.42,1423.00 621.42,1423.00
             621.42,1423.00 623.85,1413.00 623.85,1413.00
             623.85,1413.00 623.85,1384.00 623.85,1384.00
             623.85,1384.00 625.00,1369.00 625.00,1369.00
             625.00,1369.00 625.00,1354.00 625.00,1354.00
             625.00,1354.00 626.00,1340.00 626.00,1340.00
             626.00,1340.00 626.00,1321.00 626.00,1321.00
             626.00,1318.69 625.47,1313.63 628.31,1312.81
             630.77,1312.10 639.38,1316.52 642.00,1317.70
             642.00,1317.70 678.00,1333.28 678.00,1333.28
             678.00,1333.28 753.00,1366.01 753.00,1366.01
             764.44,1370.77 775.35,1377.98 788.00,1378.00
             788.00,1378.00 834.00,1378.00 834.00,1378.00
             834.00,1378.00 855.00,1379.00 855.00,1379.00
             855.00,1379.00 860.58,1405.00 860.58,1405.00
             860.58,1405.00 875.12,1466.00 875.12,1466.00
             875.12,1466.00 884.47,1506.00 884.47,1506.00
             884.47,1506.00 889.32,1522.00 889.32,1522.00
             889.32,1522.00 890.67,1532.00 890.67,1532.00
             890.67,1532.00 896.72,1557.00 896.72,1557.00
             896.72,1557.00 916.26,1657.00 916.26,1657.00
             916.26,1657.00 925.45,1704.00 925.45,1704.00
             925.45,1704.00 930.00,1730.00 930.00,1730.00 Z" />
  <path id="Naguillan"
        fill="none" stroke="black" stroke-width="1"
        d="M 937.00,1730.00
           C 937.00,1730.00 917.45,1631.00 917.45,1631.00
             917.45,1631.00 904.34,1563.00 904.34,1563.00
             904.34,1563.00 895.33,1525.00 895.33,1525.00
             895.33,1525.00 880.65,1461.00 880.65,1461.00
             880.65,1461.00 866.42,1400.00 866.42,1400.00
             866.42,1400.00 863.23,1386.00 863.23,1386.00
             862.90,1384.22 862.30,1381.39 863.83,1379.99
             865.20,1378.74 869.19,1379.00 871.00,1379.00
             871.00,1379.00 901.00,1379.00 901.00,1379.00
             902.92,1378.96 904.96,1379.01 906.67,1377.98
             908.98,1376.58 911.18,1372.35 912.60,1370.00
             912.60,1370.00 923.55,1352.00 923.55,1352.00
             923.55,1352.00 942.57,1319.00 942.57,1319.00
             953.50,1299.90 959.53,1287.41 978.00,1273.37
             986.97,1266.56 998.72,1262.58 1009.98,1263.02
             1011.69,1263.08 1013.65,1263.05 1014.77,1264.57
             1015.65,1265.76 1015.63,1267.60 1015.68,1269.00
             1015.86,1274.59 1016.28,1281.71 1015.00,1287.00
             1015.00,1287.00 1076.00,1296.28 1076.00,1296.28
             1076.00,1296.28 1125.00,1303.43 1125.00,1303.43
             1125.00,1303.43 1150.00,1307.00 1150.00,1307.00
             1150.00,1307.00 1150.00,1350.00 1150.00,1350.00
             1150.01,1353.40 1150.68,1359.10 1149.46,1362.00
             1147.22,1367.35 1134.54,1379.24 1131.40,1386.00
             1131.40,1386.00 1122.66,1414.00 1122.66,1414.00
             1122.66,1414.00 1090.15,1471.00 1090.15,1471.00
             1090.15,1471.00 1065.80,1512.83 1065.80,1512.83
             1062.89,1517.16 1053.07,1530.51 1052.38,1535.00
             1051.81,1538.77 1056.26,1542.06 1058.37,1545.00
             1058.37,1545.00 1070.75,1569.00 1070.75,1569.00
             1086.95,1601.42 1092.72,1639.65 1120.17,1665.70
             1124.48,1669.79 1137.63,1679.57 1143.00,1681.63
             1148.39,1683.69 1159.71,1685.45 1161.97,1691.05
             1161.97,1691.05 1167.35,1722.00 1167.35,1722.00
             1167.81,1724.34 1169.16,1730.47 1167.35,1732.23
             1165.81,1733.66 1159.26,1733.00 1157.00,1733.00
             1157.00,1733.00 1106.00,1733.00 1106.00,1733.00
             1106.00,1733.00 1089.00,1731.82 1089.00,1731.82
             1089.00,1731.82 1036.83,1731.82 1036.83,1731.82
             1036.83,1731.82 1025.00,1731.82 1025.00,1731.82
             1025.00,1731.82 1013.00,1731.00 1013.00,1731.00
             1013.00,1731.00 979.00,1731.00 979.00,1731.00
             979.00,1731.00 963.00,1730.00 963.00,1730.00
             963.00,1730.00 937.00,1730.00 937.00,1730.00 Z" />
  <path id="Burgos"
        fill="none" stroke="black" stroke-width="1"
        d="M 1386.00,1341.00
           C 1385.41,1348.34 1381.86,1349.87 1377.09,1355.00
             1377.09,1355.00 1364.72,1369.00 1364.72,1369.00
             1364.72,1369.00 1345.09,1390.00 1345.09,1390.00
             1345.09,1390.00 1316.16,1422.00 1316.16,1422.00
             1316.16,1422.00 1306.33,1433.00 1306.33,1433.00
             1301.19,1439.23 1300.10,1443.87 1292.00,1448.47
             1292.00,1448.47 1258.00,1458.12 1258.00,1458.12
             1252.78,1459.49 1247.31,1459.94 1243.52,1464.13
             1243.52,1464.13 1221.98,1495.00 1221.98,1495.00
             1221.98,1495.00 1177.58,1559.00 1177.58,1559.00
             1177.58,1559.00 1158.14,1587.00 1158.14,1587.00
             1156.10,1589.86 1149.35,1599.18 1148.65,1602.00
             1148.01,1604.54 1150.55,1617.47 1151.15,1620.91
             1151.15,1620.91 1157.27,1660.00 1157.27,1660.00
             1157.27,1660.00 1159.56,1674.00 1159.56,1674.00
             1159.74,1675.93 1160.00,1678.45 1157.69,1679.22
             1155.82,1679.84 1151.87,1678.29 1150.00,1677.67
             1140.90,1674.65 1140.86,1675.01 1133.00,1669.13
             1133.00,1669.13 1123.30,1661.54 1123.30,1661.54
             1120.86,1659.19 1118.43,1655.75 1116.37,1653.00
             1104.96,1637.79 1099.91,1625.40 1093.19,1608.00
             1086.78,1591.41 1080.52,1574.48 1071.66,1559.00
             1067.21,1551.22 1058.96,1542.70 1060.34,1533.00
             1062.08,1520.76 1069.52,1513.33 1076.49,1504.00
             1076.49,1504.00 1087.15,1486.00 1087.15,1486.00
             1087.15,1486.00 1128.82,1414.00 1128.82,1414.00
             1128.82,1414.00 1137.41,1387.00 1137.41,1387.00
             1142.68,1375.98 1156.82,1369.10 1157.00,1356.00
             1157.00,1356.00 1157.00,1319.00 1157.00,1319.00
             1157.00,1316.52 1156.63,1311.68 1158.74,1309.99
             1160.99,1308.19 1169.99,1310.13 1173.00,1310.58
             1173.00,1310.58 1211.00,1316.05 1211.00,1316.05
             1211.00,1316.05 1243.00,1320.72 1243.00,1320.72
             1243.00,1320.72 1337.00,1334.28 1337.00,1334.28
             1337.00,1334.28 1386.00,1341.00 1386.00,1341.00 Z
           M 1134.00,1444.00
           C 1134.00,1444.00 1133.00,1444.00 1133.00,1444.00
             1133.00,1444.00 1134.00,1445.00 1134.00,1445.00
             1134.00,1445.00 1134.00,1444.00 1134.00,1444.00 Z" />
  <path id="Baguilin"
        fill="none" stroke="black" stroke-width="1"
        d="M 1426.00,1191.00
           C 1424.02,1198.28 1412.54,1210.58 1407.40,1217.00
             1405.38,1219.53 1400.49,1224.77 1400.56,1228.00
             1400.63,1231.25 1407.58,1240.02 1409.71,1243.00
             1409.71,1243.00 1428.71,1270.00 1428.71,1270.00
             1430.51,1272.52 1437.27,1281.69 1437.94,1284.00
             1439.40,1289.05 1432.16,1294.70 1429.09,1298.00
             1429.09,1298.00 1408.16,1321.00 1408.16,1321.00
             1404.97,1324.58 1398.82,1332.01 1395.00,1334.40
             1390.34,1337.33 1379.43,1334.27 1374.00,1333.42
             1374.00,1333.42 1347.00,1329.72 1347.00,1329.72
             1347.00,1329.72 1323.00,1326.05 1323.00,1326.05
             1323.00,1326.05 1264.00,1317.27 1264.00,1317.27
             1264.00,1317.27 1103.00,1293.73 1103.00,1293.73
             1103.00,1293.73 1042.00,1284.73 1042.00,1284.73
             1038.21,1284.19 1025.29,1283.22 1023.17,1280.44
             1021.75,1278.57 1022.00,1274.32 1022.00,1272.00
             1022.00,1272.00 1022.00,1172.00 1022.00,1172.00
             1022.00,1172.00 1021.00,1157.00 1021.00,1157.00
             1021.00,1157.00 1021.00,1057.00 1021.00,1057.00
             1021.00,1054.64 1020.68,1050.37 1022.60,1048.70
             1024.40,1047.12 1027.02,1048.06 1029.00,1048.70
             1029.00,1048.70 1045.00,1054.42 1045.00,1054.42
             1045.00,1054.42 1118.00,1080.66 1118.00,1080.66
             1118.00,1080.66 1206.00,1112.31 1206.00,1112.31
             1206.00,1112.31 1323.00,1154.05 1323.00,1154.05
             1323.00,1154.05 1376.00,1173.05 1376.00,1173.05
             1376.00,1173.05 1426.00,1191.00 1426.00,1191.00 Z" />
  <path id="San gabriel"
        fill="none" stroke="black" stroke-width="1"
        d="M 1560.00,1028.00
           C 1558.66,1034.30 1554.28,1038.16 1550.25,1043.00
             1550.25,1043.00 1530.13,1067.00 1530.13,1067.00
             1530.13,1067.00 1462.40,1149.00 1462.40,1149.00
             1462.40,1149.00 1441.39,1175.00 1441.39,1175.00
             1439.12,1177.80 1434.38,1184.36 1430.99,1185.22
             1428.56,1185.83 1424.39,1184.14 1422.00,1183.33
             1422.00,1183.33 1401.00,1175.81 1401.00,1175.81
             1401.00,1175.81 1327.00,1149.34 1327.00,1149.34
             1327.00,1149.34 1039.00,1046.69 1039.00,1046.69
             1039.00,1046.69 993.00,1028.28 993.00,1028.28
             993.00,1028.28 976.00,1021.11 976.00,1021.11
             976.00,1021.11 958.00,1011.76 958.00,1011.76
             958.00,1011.76 942.00,1003.75 942.00,1003.75
             939.61,1002.56 935.62,1000.87 934.17,998.61
             932.76,996.39 933.00,992.58 933.00,990.00
             933.00,990.00 933.00,927.00 933.00,927.00
             933.00,927.00 932.00,910.00 932.00,910.00
             932.00,910.00 932.00,872.00 932.00,872.00
             932.00,872.00 931.17,850.27 931.17,850.27
             931.19,846.93 930.89,840.93 931.91,838.00
             933.27,834.13 938.01,829.19 940.73,826.00
             940.73,826.00 956.86,807.00 956.86,807.00
             962.99,799.66 984.22,766.98 989.08,758.00
             989.08,758.00 1011.54,717.00 1011.54,717.00
             1013.50,713.38 1019.16,701.97 1022.21,700.09
             1026.10,697.88 1034.29,699.94 1039.00,700.09
             1044.53,700.06 1058.24,699.92 1063.00,701.85
             1067.21,703.56 1073.34,709.66 1077.00,712.68
             1088.19,721.92 1090.82,722.40 1100.26,735.00
             1100.26,735.00 1122.60,766.51 1122.60,766.51
             1122.60,766.51 1152.00,783.14 1152.00,783.14
             1152.00,783.14 1279.00,852.31 1279.00,852.31
             1279.00,852.31 1321.00,875.31 1321.00,875.31
             1328.03,879.12 1334.74,884.26 1343.00,884.01
             1343.00,884.01 1352.00,883.04 1352.00,883.04
             1352.00,883.04 1362.00,883.04 1362.00,883.04
             1372.73,882.87 1389.41,880.39 1399.00,875.62
             1413.13,868.61 1409.10,863.13 1422.00,863.00
             1422.00,863.00 1422.00,879.00 1422.00,879.00
             1421.92,885.32 1420.01,893.96 1423.17,899.96
             1424.50,902.48 1426.93,904.28 1429.00,906.17
             1431.13,908.10 1433.54,910.66 1436.00,912.07
             1439.16,913.88 1456.52,918.04 1461.00,919.00
             1468.82,920.67 1476.88,922.27 1481.96,929.04
             1487.76,936.77 1493.58,947.59 1495.77,957.00
             1496.45,959.95 1497.47,964.97 1496.57,967.87
             1495.18,972.35 1482.18,975.42 1484.41,982.96
             1487.24,992.51 1503.95,990.97 1511.00,993.99
             1516.85,996.50 1521.96,1003.34 1526.17,1008.00
             1536.15,1019.03 1544.32,1027.86 1560.00,1028.00 Z" />
  <path id="San fernando"
        fill="none" stroke="black" stroke-width="1"
        d="M 1015.00,1043.00
           C 1015.00,1043.00 1015.00,1247.00 1015.00,1247.00
             1015.00,1248.99 1015.23,1252.81 1013.98,1254.40
             1012.57,1256.18 1009.11,1256.02 1007.00,1256.28
             1001.36,1256.99 998.30,1256.81 993.00,1259.26
             987.63,1261.74 981.89,1263.85 977.00,1267.22
             967.12,1274.03 957.83,1285.40 950.67,1295.00
             950.67,1295.00 915.81,1354.00 915.81,1354.00
             913.93,1357.07 906.39,1370.61 904.37,1372.01
             902.56,1373.26 899.15,1373.00 897.00,1373.00
             897.00,1373.00 880.00,1373.00 880.00,1373.00
             880.00,1373.00 864.00,1372.00 864.00,1372.00
             864.00,1372.00 789.00,1372.00 789.00,1372.00
             778.96,1371.98 774.06,1368.63 765.00,1364.72
             765.00,1364.72 733.00,1350.86 733.00,1350.86
             733.00,1350.86 660.00,1319.42 660.00,1319.42
             660.00,1319.42 638.00,1309.85 638.00,1309.85
             635.30,1308.69 628.21,1305.93 626.27,1304.30
             621.03,1299.91 623.65,1294.00 614.98,1285.00
             605.27,1274.91 598.93,1271.30 586.00,1266.42
             582.68,1265.17 568.53,1260.51 567.01,1258.30
             565.91,1256.65 566.97,1250.43 567.01,1248.00
             567.01,1248.00 568.23,1227.00 568.23,1227.00
             566.75,1217.61 560.94,1211.47 555.89,1204.00
             552.57,1199.10 549.85,1193.46 544.96,1189.90
             544.96,1189.90 500.05,1164.56 500.05,1164.56
             498.49,1163.38 497.29,1162.38 496.25,1160.70
             494.41,1157.72 491.09,1145.33 491.89,1142.02
             493.66,1134.71 500.87,1136.77 510.00,1134.26
             512.64,1133.53 516.31,1132.04 519.00,1132.24
             522.61,1132.50 525.29,1135.22 528.00,1137.34
             528.00,1137.34 543.00,1148.75 543.00,1148.75
             548.35,1152.13 570.23,1155.92 577.00,1156.00
             577.00,1156.00 581.00,1156.00 581.00,1156.00
             588.43,1155.87 594.07,1151.78 597.20,1145.00
             601.11,1136.54 605.64,1112.93 607.39,1103.00
             608.11,1098.88 607.42,1092.14 609.60,1089.19
             614.88,1082.02 620.73,1088.75 626.00,1091.80
             628.81,1093.40 631.43,1095.15 633.73,1091.80
             639.45,1083.53 637.98,1067.84 638.00,1058.00
             638.02,1048.52 640.37,1047.89 645.67,1040.00
             647.36,1037.48 649.05,1034.16 652.18,1033.29
             657.04,1031.94 670.90,1034.97 676.00,1036.43
             676.00,1036.43 704.00,1044.56 704.00,1044.56
             704.00,1044.56 736.00,1047.83 736.00,1047.83
             736.00,1047.83 746.00,1048.59 746.00,1048.59
             746.00,1048.59 793.00,1056.71 793.00,1056.71
             793.00,1056.71 817.00,1059.17 817.00,1059.17
             817.00,1059.17 846.00,1062.00 846.00,1062.00
             846.00,1062.00 889.00,1062.00 889.00,1062.00
             889.00,1062.00 932.00,1055.59 932.00,1055.59
             936.92,1054.80 950.19,1053.11 954.00,1051.10
             960.12,1047.89 963.40,1043.12 966.14,1037.00
             967.53,1033.90 969.35,1028.04 973.18,1027.40
             975.85,1026.95 983.17,1030.47 986.00,1031.60
             986.00,1031.60 1015.00,1043.00 1015.00,1043.00 Z" />
  <path id="San juan"
        fill="none" stroke="black" stroke-width="1"
        d="M 925.00,888.00
           C 925.00,888.00 926.00,941.00 926.00,941.00
             926.00,941.00 926.00,964.00 926.00,964.00
             926.00,964.00 927.00,979.00 927.00,979.00
             927.00,979.00 927.00,994.00 927.00,994.00
             927.00,996.27 926.78,999.66 928.02,1001.61
             929.47,1003.89 934.51,1006.00 937.00,1007.25
             937.00,1007.25 962.56,1020.84 962.56,1020.84
             963.85,1022.11 964.34,1023.21 964.25,1025.04
             964.12,1027.59 958.12,1040.75 956.36,1042.77
             952.53,1047.19 938.04,1048.20 932.00,1049.25
             932.00,1049.25 893.00,1055.00 893.00,1055.00
             893.00,1055.00 880.00,1055.00 880.00,1055.00
             880.00,1055.00 863.00,1056.00 863.00,1056.00
             863.00,1056.00 849.00,1056.00 849.00,1056.00
             849.00,1056.00 802.00,1051.28 802.00,1051.28
             802.00,1051.28 793.00,1050.56 793.00,1050.56
             793.00,1050.56 747.00,1042.29 747.00,1042.29
             747.00,1042.29 718.00,1039.09 718.00,1039.09
             718.00,1039.09 702.00,1037.83 702.00,1037.83
             702.00,1037.83 662.00,1026.84 662.00,1026.84
             660.12,1026.64 657.85,1026.14 656.00,1026.30
             649.95,1026.81 644.92,1031.11 641.81,1036.00
             640.44,1038.18 637.64,1043.80 635.61,1044.94
             632.46,1046.71 628.52,1043.63 625.00,1042.83
             619.87,1041.66 609.78,1045.29 607.17,1050.09
             604.38,1055.25 608.01,1068.52 609.65,1074.00
             610.50,1076.81 611.67,1081.07 607.85,1082.30
             605.07,1083.19 597.65,1079.85 595.93,1077.59
             593.82,1074.80 589.88,1056.75 590.19,1053.00
             590.98,1043.39 599.18,1035.25 605.00,1028.00
             605.00,1028.00 642.49,982.00 642.49,982.00
             642.49,982.00 652.05,967.00 652.05,967.00
             662.82,949.84 670.90,937.69 677.33,918.00
             679.03,912.80 679.98,907.38 680.92,902.00
             681.31,899.78 681.58,896.62 683.53,895.17
             685.34,893.84 688.82,894.01 691.00,894.00
             691.00,894.00 700.00,894.00 700.00,894.00
             700.00,894.00 711.00,892.98 711.00,892.98
             711.00,892.98 728.00,892.98 728.00,892.98
             728.00,892.98 744.00,892.98 744.00,892.98
             744.00,892.98 755.00,892.00 755.00,892.00
             755.00,892.00 770.00,892.00 770.00,892.00
             770.00,892.00 810.00,891.00 810.00,891.00
             810.00,891.00 827.00,890.00 827.00,890.00
             827.00,890.00 852.00,890.00 852.00,890.00
             852.00,890.00 864.00,889.04 864.00,889.04
             864.00,889.04 881.00,889.04 881.00,889.04
             881.00,889.04 898.00,888.00 898.00,888.00
             898.00,888.00 925.00,888.00 925.00,888.00 Z" />
  <path id="Bacnotan"
        fill="none" stroke="black" stroke-width="1"
        d="M 685.00,889.00
           C 682.53,880.31 685.11,868.39 685.00,859.00
             685.00,859.00 684.00,846.00 684.00,846.00
             684.00,846.00 684.00,824.00 684.00,824.00
             684.02,820.01 683.85,815.50 687.28,812.72
             691.92,808.95 709.56,808.47 711.41,800.00
             713.14,792.06 697.44,790.72 695.43,789.52
             692.60,787.82 693.02,783.85 693.00,781.00
             693.00,781.00 693.00,763.00 693.00,763.00
             693.00,763.00 695.91,737.00 695.91,737.00
             695.91,737.00 695.09,730.00 695.09,730.00
             694.56,722.30 695.40,716.13 691.25,709.01
             686.69,701.18 680.05,700.43 677.17,694.96
             675.70,692.15 676.02,688.13 676.21,685.00
             675.95,674.82 673.91,676.26 676.21,665.00
             678.38,656.26 682.89,648.06 683.00,639.00
             683.10,630.40 682.73,628.37 677.92,621.00
             676.11,618.23 671.08,612.48 671.82,609.17
             672.35,606.77 676.09,604.29 678.00,602.88
             685.48,597.37 691.69,595.53 700.00,591.77
             700.00,591.77 738.00,579.00 738.00,579.00
             748.58,575.39 756.56,571.02 768.00,571.00
             768.00,571.00 800.00,571.00 800.00,571.00
             800.00,571.00 814.00,572.13 814.00,572.13
             814.00,572.13 846.00,572.13 846.00,572.13
             848.19,572.00 850.88,571.93 853.00,572.13
             853.00,572.13 883.00,586.75 883.00,586.75
             883.00,586.75 922.00,606.63 922.00,606.63
             922.00,606.63 940.35,624.12 940.35,624.12
             940.35,624.12 971.00,654.00 971.00,654.00
             971.00,654.00 988.00,670.96 988.00,670.96
             988.00,670.96 1001.00,683.00 1001.00,683.00
             1003.70,685.70 1011.56,693.08 1012.97,696.00
             1015.02,700.23 1012.20,704.34 1010.23,708.00
             1010.23,708.00 996.54,733.00 996.54,733.00
             996.54,733.00 979.08,765.00 979.08,765.00
             979.08,765.00 961.41,791.00 961.41,791.00
             961.41,791.00 950.72,806.00 950.72,806.00
             950.72,806.00 933.20,827.00 933.20,827.00
             931.03,829.66 926.87,834.02 925.74,837.00
             924.87,839.30 925.00,842.54 925.00,845.00
             925.00,845.00 925.00,873.00 925.00,873.00
             925.00,875.30 925.41,879.26 923.43,880.83
             921.21,882.57 912.12,881.97 909.00,882.00
             909.00,882.00 894.00,883.00 894.00,883.00
             894.00,883.00 870.00,883.00 870.00,883.00
             870.00,883.00 858.00,883.96 858.00,883.96
             858.00,883.96 841.00,883.96 841.00,883.96
             841.00,883.96 824.00,885.00 824.00,885.00
             824.00,885.00 799.00,885.00 799.00,885.00
             799.00,885.00 782.00,886.00 782.00,886.00
             782.00,886.00 769.00,886.00 769.00,886.00
             769.00,886.00 757.51,886.88 757.51,886.88
             757.51,886.88 729.00,886.88 729.00,886.88
             729.00,886.88 714.00,888.00 714.00,888.00
             705.81,888.09 692.43,887.19 685.00,889.00 Z" />
  <path id="Luna"
        fill="none" stroke="black" stroke-width="1"
        d="M 917.00,225.96
           C 921.90,226.83 922.82,229.49 926.09,233.00
             926.09,233.00 942.42,251.00 942.42,251.00
             942.42,251.00 1000.72,315.00 1000.72,315.00
             1000.72,315.00 1017.91,334.00 1017.91,334.00
             1019.91,336.19 1023.10,339.66 1022.27,342.91
             1021.46,346.07 1012.78,352.54 1010.00,354.80
             1004.39,359.36 991.13,372.52 986.17,378.00
             986.17,378.00 955.99,412.00 955.99,412.00
             948.24,419.94 930.90,436.17 925.30,444.00
             925.30,444.00 913.53,467.00 913.53,467.00
             909.87,472.95 901.75,481.29 896.80,486.58
             894.05,489.52 889.34,495.30 886.00,496.99
             881.67,499.15 874.65,497.41 870.00,496.99
             870.00,496.99 861.00,496.99 861.00,496.99
             861.00,496.99 836.00,495.00 836.00,495.00
             836.00,495.00 815.00,493.00 815.00,493.00
             815.00,493.00 804.00,493.00 804.00,493.00
             804.00,493.00 769.00,488.28 769.00,488.28
             769.00,488.28 739.00,484.15 739.00,484.15
             739.00,484.15 711.00,480.54 711.00,480.54
             711.00,480.54 692.00,475.87 692.00,475.87
             692.00,475.87 660.00,468.59 660.00,468.59
             656.83,468.05 650.22,467.92 649.76,463.87
             649.45,461.12 652.43,455.68 653.57,453.00
             654.79,450.14 657.84,441.34 659.70,439.60
             661.77,437.65 665.33,438.01 668.00,438.00
             668.00,438.00 689.00,439.00 689.00,439.00
             693.14,439.01 709.46,440.34 706.60,432.02
             705.27,428.16 699.45,425.70 696.00,424.14
             686.56,419.89 664.84,412.60 665.28,400.00
             665.56,391.62 672.87,380.51 675.73,373.00
             676.85,370.05 677.21,367.08 677.80,364.00
             678.57,360.01 679.08,351.71 682.29,349.22
             684.27,347.69 690.37,345.87 693.00,345.00
             693.00,345.00 716.00,337.77 716.00,337.77
             737.56,329.79 758.59,319.27 779.00,308.74
             810.59,292.44 840.98,272.95 871.00,253.95
             871.00,253.95 901.00,234.95 901.00,234.95
             905.74,231.97 911.73,227.42 917.00,225.96 Z" />
  <path id="Balaoan"
        fill="none" stroke="black" stroke-width="1"
        d="M 649.00,472.00
           C 649.00,472.00 675.00,476.65 675.00,476.65
             675.00,476.65 712.00,485.54 712.00,485.54
             712.00,485.54 750.00,490.15 750.00,490.15
             750.00,490.15 799.00,497.00 799.00,497.00
             799.00,497.00 807.00,497.00 807.00,497.00
             807.00,497.00 835.00,500.04 835.00,500.04
             835.00,500.04 845.00,500.04 845.00,500.04
             845.00,500.04 865.00,502.20 865.00,502.20
             869.66,502.05 883.77,503.65 886.83,502.20
             889.84,501.18 897.30,492.43 899.88,489.58
             905.59,483.27 914.71,474.06 918.91,467.00
             923.13,459.90 923.79,452.83 931.52,443.00
             931.52,443.00 958.99,415.00 958.99,415.00
             958.99,415.00 971.28,401.00 971.28,401.00
             971.28,401.00 986.58,384.00 986.58,384.00
             995.02,374.27 1005.04,364.55 1015.00,356.39
             1017.59,354.26 1023.00,349.07 1026.00,348.31
             1030.88,347.07 1037.04,355.73 1039.95,359.00
             1039.95,359.00 1059.00,380.00 1059.00,380.00
             1065.07,386.65 1065.53,389.94 1075.00,390.00
             1075.00,390.00 1119.00,390.00 1119.00,390.00
             1122.02,390.06 1126.09,390.04 1126.31,394.06
             1126.45,396.64 1121.68,407.05 1120.42,410.00
             1120.42,410.00 1106.15,444.00 1106.15,444.00
             1106.15,444.00 1094.08,473.00 1094.08,473.00
             1094.08,473.00 1088.98,490.00 1088.98,490.00
             1088.98,490.00 1074.98,535.00 1074.98,535.00
             1074.98,535.00 1046.00,626.00 1046.00,626.00
             1046.00,626.00 1026.72,676.00 1026.72,676.00
             1025.07,679.89 1021.62,691.45 1015.98,689.60
             1013.02,688.63 1005.57,680.57 1003.00,678.00
             1003.00,678.00 977.00,653.00 977.00,653.00
             977.00,653.00 945.00,622.00 945.00,622.00
             945.00,622.00 924.00,601.63 924.00,601.63
             924.00,601.63 890.00,584.14 890.00,584.14
             890.00,584.14 855.00,566.63 855.00,566.63
             852.40,565.90 849.68,566.00 847.00,566.00
             847.00,566.00 815.00,566.00 815.00,566.00
             815.00,566.00 799.00,565.00 799.00,565.00
             799.00,565.00 767.00,565.00 767.00,565.00
             755.95,565.02 751.07,568.16 741.00,571.66
             741.00,571.66 712.00,581.00 712.00,581.00
             703.54,583.80 685.71,590.91 679.00,596.12
             676.26,598.26 671.09,604.00 667.41,601.34
             665.47,599.94 663.93,595.27 662.99,593.00
             662.99,593.00 655.75,578.00 655.75,578.00
             651.88,570.25 648.33,562.55 646.52,554.00
             644.43,544.16 644.95,520.08 645.00,509.00
             645.00,509.00 645.91,498.00 645.91,498.00
             646.51,489.23 646.20,480.48 649.00,472.00 Z" />
  <path id="Santol"
        fill="none" stroke="black" stroke-width="1"
        d="M 1444.00,668.00
           C 1429.66,671.07 1432.98,682.54 1433.00,694.00
             1433.01,698.39 1432.74,702.22 1435.51,705.96
             1441.03,713.41 1445.92,709.39 1446.00,721.00
             1446.00,721.00 1448.00,761.00 1448.00,761.00
             1447.87,770.72 1438.40,791.68 1431.67,798.56
             1420.71,809.77 1409.03,809.55 1408.84,828.00
             1408.84,828.00 1408.84,852.00 1408.84,852.00
             1409.03,854.69 1409.55,858.57 1408.84,860.99
             1406.15,866.50 1398.38,870.03 1393.00,871.72
             1374.27,877.58 1378.03,875.78 1359.00,876.00
             1359.00,876.00 1338.00,877.57 1338.00,877.57
             1333.77,876.84 1319.81,868.33 1315.00,865.78
             1315.00,865.78 1262.00,836.86 1262.00,836.86
             1262.00,836.86 1166.00,784.42 1166.00,784.42
             1166.00,784.42 1140.00,770.31 1140.00,770.31
             1136.61,768.47 1128.97,764.67 1126.32,762.37
             1123.45,759.87 1117.88,750.70 1115.28,747.00
             1109.58,738.88 1098.85,724.76 1091.99,718.04
             1091.99,718.04 1075.00,704.38 1075.00,704.38
             1068.29,698.88 1067.16,695.50 1058.00,694.29
             1058.00,694.29 1037.00,693.00 1037.00,693.00
             1034.50,692.98 1029.81,693.37 1028.62,690.57
             1027.33,687.56 1031.72,679.14 1032.94,676.00
             1032.94,676.00 1048.05,638.00 1048.05,638.00
             1048.05,638.00 1064.34,589.00 1064.34,589.00
             1064.34,589.00 1090.28,506.00 1090.28,506.00
             1090.28,506.00 1102.00,469.00 1102.00,469.00
             1103.02,466.45 1105.78,458.40 1107.70,457.22
             1110.09,455.24 1114.48,456.55 1117.00,457.22
             1117.00,457.22 1139.00,466.40 1139.00,466.40
             1139.00,466.40 1231.00,504.00 1231.00,504.00
             1231.00,504.00 1264.00,517.42 1264.00,517.42
             1264.00,517.42 1290.00,527.84 1290.00,527.84
             1290.00,527.84 1301.00,527.84 1301.00,527.84
             1301.00,527.84 1316.00,529.00 1316.00,529.00
             1316.00,529.00 1333.00,530.00 1333.00,530.00
             1333.00,530.00 1357.00,531.09 1357.00,531.09
             1357.00,531.09 1367.00,532.00 1367.00,532.00
             1369.49,532.03 1376.60,531.53 1378.36,533.02
             1380.29,534.64 1378.87,537.07 1380.40,541.00
             1381.96,544.99 1385.50,548.78 1389.00,551.15
             1389.00,551.15 1416.00,562.60 1416.00,562.60
             1419.15,563.86 1425.07,566.02 1427.18,568.61
             1429.24,571.16 1429.84,578.66 1430.00,582.00
             1430.00,582.00 1432.51,603.00 1432.51,603.00
             1433.89,609.57 1435.39,613.51 1439.30,619.00
             1442.82,623.94 1446.92,627.06 1448.61,633.00
             1449.11,634.78 1449.66,637.16 1449.66,639.00
             1449.66,639.00 1444.00,668.00 1444.00,668.00 Z" />
  <path id="Sudipen"
        fill="none" stroke="black" stroke-width="1"
        d="M 1112.00,450.00
           C 1112.26,439.67 1123.66,416.53 1128.15,406.00
             1128.15,406.00 1158.78,336.00 1158.78,336.00
             1158.78,336.00 1171.00,309.00 1171.00,309.00
             1172.42,305.72 1175.71,299.16 1176.22,296.00
             1176.73,292.89 1175.57,284.44 1175.15,281.00
             1175.15,281.00 1172.58,260.00 1172.58,260.00
             1172.58,260.00 1163.54,230.00 1163.54,230.00
             1163.54,230.00 1148.76,199.00 1148.76,199.00
             1147.45,196.35 1141.09,182.99 1141.06,181.04
             1141.05,179.58 1141.49,178.69 1142.47,177.63
             1144.17,175.82 1154.15,171.18 1157.00,169.75
             1174.49,161.01 1171.63,161.21 1191.00,157.92
             1191.00,157.92 1200.00,156.33 1200.00,156.33
             1204.41,155.95 1209.72,157.93 1214.00,159.14
             1223.27,161.77 1232.30,164.98 1242.00,165.12
             1242.00,165.12 1279.28,165.12 1279.28,165.12
             1279.28,165.12 1298.00,166.63 1298.00,166.63
             1318.22,164.00 1333.84,138.05 1354.00,131.00
             1355.83,137.53 1352.91,156.29 1352.17,164.00
             1352.17,164.00 1349.83,193.00 1349.83,193.00
             1349.83,193.00 1347.00,238.00 1347.00,238.00
             1347.04,241.37 1347.30,247.06 1349.58,249.69
             1351.76,252.19 1354.62,251.78 1356.70,253.17
             1359.97,255.36 1359.95,260.49 1360.00,264.00
             1360.13,275.21 1359.58,288.57 1352.96,298.00
             1347.46,305.82 1336.18,314.14 1332.53,321.00
             1327.75,329.96 1327.90,334.48 1326.72,344.00
             1325.14,356.61 1324.02,360.71 1324.00,374.00
             1324.00,374.00 1323.00,389.00 1323.00,389.00
             1323.00,389.00 1323.00,410.00 1323.00,410.00
             1323.09,417.77 1324.40,425.99 1330.33,431.61
             1333.46,434.59 1341.79,438.11 1346.00,439.68
             1346.00,439.68 1369.00,447.98 1369.00,447.98
             1381.15,451.75 1393.44,453.17 1399.14,466.00
             1401.58,471.50 1401.97,473.05 1402.00,479.00
             1402.00,479.00 1402.00,484.00 1402.00,484.00
             1401.86,495.08 1394.89,507.13 1388.72,516.00
             1383.48,523.54 1384.21,525.94 1375.00,526.00
             1375.00,526.00 1362.00,525.09 1362.00,525.09
             1362.00,525.09 1337.00,524.00 1337.00,524.00
             1337.00,524.00 1327.00,523.09 1327.00,523.09
             1327.00,523.09 1289.00,520.63 1289.00,520.63
             1289.00,520.63 1246.00,503.60 1246.00,503.60
             1246.00,503.60 1161.00,469.40 1161.00,469.40
             1161.00,469.40 1112.00,450.00 1112.00,450.00 Z" />
  <path id="Bangar"
        fill="none" stroke="black" stroke-width="1"
        d="M 1009.00,169.13
           C 1015.68,169.96 1014.61,174.98 1022.00,177.29
             1022.00,177.29 1040.00,180.84 1040.00,180.84
             1042.40,181.09 1047.04,181.05 1049.09,181.82
             1054.75,183.95 1056.57,189.71 1063.01,192.81
             1073.87,197.57 1087.67,193.80 1099.00,192.81
             1103.63,192.64 1120.14,187.40 1125.00,185.54
             1128.06,184.37 1132.32,181.46 1135.19,184.41
             1135.19,184.41 1147.26,209.00 1147.26,209.00
             1147.26,209.00 1157.08,230.00 1157.08,230.00
             1157.08,230.00 1160.91,243.00 1160.91,243.00
             1165.39,258.74 1166.73,262.11 1168.08,279.00
             1168.48,283.97 1170.43,293.67 1169.79,298.00
             1169.31,301.25 1163.97,312.47 1162.24,316.00
             1162.24,316.00 1151.26,340.00 1151.26,340.00
             1151.26,340.00 1137.70,370.00 1137.70,370.00
             1136.57,372.48 1133.18,380.65 1131.32,382.01
             1129.59,383.26 1126.08,383.00 1124.00,383.00
             1124.00,383.00 1075.00,383.00 1075.00,383.00
             1067.12,382.85 1065.27,379.22 1060.20,373.72
             1060.20,373.72 1040.42,352.00 1040.42,352.00
             1040.42,352.00 1005.17,313.00 1005.17,313.00
             1005.17,313.00 957.09,260.00 957.09,260.00
             957.09,260.00 931.92,232.00 931.92,232.00
             930.03,229.96 924.25,224.89 924.85,221.92
             925.30,219.70 928.23,217.94 930.00,216.81
             930.00,216.81 945.00,207.58 945.00,207.58
             945.00,207.58 988.00,181.20 988.00,181.20
             993.05,178.17 1004.23,170.73 1009.00,169.13 Z" />
</svg>
