<?xml version="1.0" encoding="UTF-8" standalone="no"?>
<!DOCTYPE svg PUBLIC "-//W3C//DTD SVG 20010904//EN"
              "http://www.w3.org/TR/2001/REC-SVG-20010904/DTD/svg10.dtd">

<svg xmlns="http://www.w3.org/2000/svg"
     width="666.667mm" height="685.714mm"
     viewBox="0 0 2520 2592">
  <path id="Mabitac"
        fill="none" stroke="black" stroke-width="1"
        d="M 1496.00,450.00
           C 1502.60,450.59 1518.93,455.80 1526.00,457.98
             1526.00,457.98 1575.00,472.98 1575.00,472.98
             1623.24,487.97 1671.64,502.52 1721.00,513.42
             1733.62,516.21 1774.12,524.76 1785.00,525.00
             1785.00,525.00 1778.29,551.00 1778.29,551.00
             1776.82,556.11 1775.54,561.74 1771.78,565.71
             1771.78,565.71 1734.00,596.04 1734.00,596.04
             1729.36,600.48 1724.14,605.82 1721.97,612.00
             1719.52,618.96 1723.60,624.48 1727.34,630.00
             1733.38,638.89 1738.58,643.46 1736.54,655.00
             1736.54,655.00 1731.42,674.00 1731.42,674.00
             1731.42,674.00 1726.43,697.00 1726.43,697.00
             1725.61,702.61 1725.00,720.47 1723.30,723.86
             1720.71,729.03 1711.65,727.01 1706.70,733.21
             1702.13,738.94 1700.67,755.50 1696.49,759.28
             1693.92,761.60 1680.11,764.12 1676.00,765.00
             1676.00,765.00 1640.00,773.71 1640.00,773.71
             1640.00,773.71 1624.00,779.38 1624.00,779.38
             1620.13,779.52 1607.22,772.74 1603.00,770.86
             1589.72,764.95 1575.72,759.61 1561.00,759.04
             1550.84,758.64 1543.53,762.94 1530.91,761.73
             1524.87,761.15 1509.72,754.24 1504.00,751.22
             1499.58,748.89 1490.25,743.31 1488.03,738.96
             1485.92,734.85 1490.32,718.34 1491.25,713.00
             1491.25,713.00 1501.72,646.00 1501.72,646.00
             1501.72,646.00 1506.09,598.00 1506.09,598.00
             1506.09,598.00 1507.00,586.00 1507.00,586.00
             1507.00,586.00 1508.00,565.00 1508.00,565.00
             1508.00,565.00 1508.00,544.00 1508.00,544.00
             1508.00,544.00 1507.00,525.00 1507.00,525.00
             1507.00,525.00 1506.09,515.00 1506.09,515.00
             1504.48,492.95 1500.08,471.68 1496.00,450.00 Z" />
  <path id="Santa Maria"
        fill="none" stroke="black" stroke-width="1"
        d="M 1497.00,447.00
           C 1497.00,447.00 1492.00,422.00 1492.00,422.00
             1488.08,403.05 1484.26,384.32 1482.91,365.00
             1482.91,365.00 1482.00,355.00 1482.00,355.00
             1481.55,315.85 1493.54,286.43 1510.75,252.00
             1557.03,159.44 1637.04,102.79 1731.00,65.20
             1763.82,52.07 1797.71,41.45 1832.00,32.87
             1832.00,32.87 1857.00,26.88 1857.00,26.88
             1859.44,26.32 1865.39,24.71 1867.61,25.61
             1870.51,26.80 1877.06,39.69 1879.01,43.00
             1879.01,43.00 1908.15,93.00 1908.15,93.00
             1908.15,93.00 1969.14,198.00 1969.14,198.00
             1969.14,198.00 1988.78,236.00 1988.78,236.00
             1988.78,236.00 2010.25,277.00 2010.25,277.00
             2013.16,282.83 2018.38,291.33 2020.00,297.00
             2001.77,307.19 1995.17,309.97 1975.00,315.58
             1960.82,319.52 1945.02,322.06 1933.00,330.92
             1922.90,338.37 1916.76,347.98 1911.25,359.00
             1908.92,363.65 1905.52,373.59 1901.89,376.30
             1892.39,383.39 1874.05,378.77 1863.32,391.04
             1850.15,406.11 1856.80,420.96 1857.00,438.00
             1857.04,442.08 1857.10,446.09 1855.75,450.00
             1851.00,463.80 1833.72,465.76 1822.00,471.32
             1813.34,475.42 1804.62,482.19 1799.04,490.00
             1793.70,497.48 1790.21,504.40 1787.05,513.00
             1785.99,515.90 1785.14,520.80 1781.78,521.69
             1778.88,522.46 1762.97,519.14 1759.00,518.42
             1759.00,518.42 1702.00,506.37 1702.00,506.37
             1658.87,495.59 1616.44,483.17 1574.00,469.98
             1574.00,469.98 1497.00,447.00 1497.00,447.00 Z" />
  <path id="Famy"
        fill="none" stroke="black" stroke-width="1"
        d="M 1725.00,726.00
           C 1727.73,715.71 1726.33,716.75 1727.17,708.00
             1727.17,708.00 1730.42,686.00 1730.42,686.00
             1732.49,676.63 1739.63,655.88 1738.90,648.00
             1737.74,635.56 1720.34,624.93 1723.64,613.00
             1725.53,606.17 1732.73,599.04 1738.00,594.59
             1738.00,594.59 1773.78,565.96 1773.78,565.96
             1778.10,561.00 1779.90,552.32 1781.71,546.00
             1781.71,546.00 1786.33,529.00 1786.33,529.00
             1786.33,529.00 1787.52,520.00 1787.52,520.00
             1788.83,513.87 1793.92,502.42 1797.20,497.00
             1805.06,484.03 1812.33,478.47 1826.00,472.31
             1837.09,467.31 1849.90,465.74 1856.64,454.00
             1863.20,442.57 1858.06,429.27 1858.00,417.00
             1857.98,412.52 1857.82,409.43 1858.90,405.00
             1859.68,401.78 1860.75,398.84 1862.48,396.00
             1872.23,379.92 1892.03,387.59 1903.95,377.61
             1908.63,373.69 1910.16,366.53 1912.78,361.00
             1916.80,352.52 1923.04,342.46 1930.01,336.18
             1941.68,325.68 1955.55,323.59 1970.00,319.58
             1970.00,319.58 1994.00,312.33 1994.00,312.33
             2011.57,306.42 2016.56,300.37 2024.00,298.00
             2028.76,310.67 2029.86,351.13 2032.90,361.00
             2032.90,361.00 2044.75,386.00 2044.75,386.00
             2044.75,386.00 2072.00,441.00 2072.00,441.00
             2072.00,441.00 2045.00,458.98 2045.00,458.98
             2019.40,476.70 1988.26,500.68 1961.00,514.74
             1940.23,525.46 1923.43,526.36 1902.00,533.03
             1889.23,536.99 1877.36,543.24 1866.00,550.26
             1851.95,558.94 1835.94,571.47 1825.21,584.00
             1818.53,591.80 1816.99,600.88 1809.96,606.61
             1803.20,612.12 1794.54,611.00 1787.00,614.13
             1782.60,615.96 1778.40,620.27 1775.53,624.00
             1767.24,634.75 1763.80,651.78 1761.59,665.00
             1757.58,688.86 1756.59,707.05 1745.00,729.00
             1733.03,725.78 1738.24,726.00 1725.00,726.00 Z" />
  <path id="Siniloan"
        fill="none" stroke="black" stroke-width="1"
        d="M 1785.00,745.99
           C 1775.40,743.67 1769.06,745.77 1760.00,745.99
             1757.82,746.04 1753.31,746.27 1751.56,744.98
             1749.75,743.64 1746.68,732.26 1747.02,730.00
             1747.02,730.00 1751.99,719.00 1751.99,719.00
             1754.54,712.87 1756.15,706.47 1757.58,700.00
             1757.58,700.00 1767.13,648.00 1767.13,648.00
             1769.44,638.78 1773.23,627.93 1780.09,621.09
             1790.40,610.82 1800.92,616.52 1810.99,607.79
             1819.92,600.04 1819.54,592.38 1829.09,582.00
             1844.82,564.90 1868.80,548.87 1890.00,539.31
             1890.00,539.31 1944.00,523.97 1944.00,523.97
             1954.39,520.74 1963.66,515.48 1973.00,509.99
             1996.30,496.30 2018.04,480.28 2040.00,464.58
             2047.56,459.18 2065.98,444.96 2074.00,443.00
             2074.00,443.00 2094.69,483.00 2094.69,483.00
             2094.69,483.00 2102.86,499.00 2102.86,499.00
             2102.86,499.00 2119.00,531.00 2119.00,531.00
             2091.13,542.82 2063.92,555.37 2037.00,569.26
             2037.00,569.26 1971.00,602.69 1971.00,602.69
             1971.00,602.69 1917.00,624.58 1917.00,624.58
             1908.60,627.74 1891.70,633.28 1885.00,637.90
             1871.71,647.07 1865.20,662.52 1853.00,672.54
             1839.09,683.95 1811.00,692.60 1801.42,705.01
             1798.96,708.20 1796.41,715.96 1795.00,720.00
             1795.00,720.00 1785.00,745.99 1785.00,745.99 Z" />
  <path id="Pangil"
        fill="none" stroke="black" stroke-width="1"
        d="M 1787.00,747.00
           C 1787.00,747.00 1796.66,721.00 1796.66,721.00
             1798.11,716.86 1800.86,708.24 1803.42,705.09
             1811.44,695.21 1838.71,685.41 1851.00,676.10
             1866.44,664.41 1872.30,648.06 1886.00,639.25
             1893.09,634.68 1917.49,626.53 1927.00,622.80
             1953.97,612.20 1980.23,601.04 2006.00,587.74
             2006.00,587.74 2083.00,548.69 2083.00,548.69
             2091.46,544.82 2112.97,534.50 2121.00,533.00
             2121.00,533.00 2141.31,572.00 2141.31,572.00
             2141.31,572.00 2151.69,592.00 2151.69,592.00
             2151.69,592.00 2161.03,622.00 2161.03,622.00
             2161.03,622.00 2167.00,635.00 2167.00,635.00
             2167.00,635.00 2140.00,649.31 2140.00,649.31
             2140.00,649.31 2055.00,694.31 2055.00,694.31
             2055.00,694.31 2007.00,719.26 2007.00,719.26
             2007.00,719.26 1963.00,741.57 1963.00,741.57
             1963.00,741.57 1928.00,752.81 1928.00,752.81
             1928.00,752.81 1878.00,780.23 1878.00,780.23
             1873.76,782.53 1861.29,790.05 1857.00,789.88
             1853.18,789.74 1839.93,778.95 1836.00,776.14
             1836.00,776.14 1787.00,747.00 1787.00,747.00 Z
           M 1534.00,764.00
           C 1534.00,764.00 1561.00,761.09 1561.00,761.09
             1578.69,762.10 1594.21,769.44 1610.00,776.69
             1610.00,776.69 1624.00,783.00 1624.00,783.00
             1620.82,796.08 1625.02,813.37 1625.00,827.00
             1624.99,833.15 1623.52,842.61 1616.00,844.08
             1613.45,844.57 1608.49,842.19 1606.00,841.20
             1606.00,841.20 1581.00,830.24 1581.00,830.24
             1561.86,820.52 1541.55,806.74 1535.43,785.00
             1533.43,777.92 1534.00,771.28 1534.00,764.00 Z" />
  <path id="Pakil"
        fill="none" stroke="black" stroke-width="1"
        d="M 1858.00,792.00
           C 1876.36,785.59 1902.79,766.42 1922.00,757.32
             1922.00,757.32 1965.00,742.69 1965.00,742.69
             1965.00,742.69 2007.00,721.26 2007.00,721.26
             2007.00,721.26 2083.00,681.69 2083.00,681.69
             2083.00,681.69 2145.00,648.75 2145.00,648.75
             2145.00,648.75 2160.00,640.86 2160.00,640.86
             2161.97,639.77 2165.64,637.61 2167.91,637.99
             2171.41,638.56 2176.63,647.94 2178.67,651.00
             2178.67,651.00 2204.00,690.00 2204.00,690.00
             2179.92,691.11 2150.50,700.25 2130.00,712.81
             2130.00,712.81 2092.00,740.85 2092.00,740.85
             2092.00,740.85 2065.00,758.03 2065.00,758.03
             2065.00,758.03 2039.00,776.91 2039.00,776.91
             2024.98,785.88 2023.93,779.93 2009.00,787.78
             1964.88,810.99 1928.37,828.45 1882.00,847.00
             1880.98,834.47 1875.57,816.66 1868.94,806.00
             1868.94,806.00 1858.00,792.00 1858.00,792.00 Z
           M 1486.00,741.00
           C 1486.00,741.00 1498.00,749.91 1498.00,749.91
             1505.75,754.88 1522.99,762.61 1532.00,764.00
             1532.00,775.56 1531.17,782.00 1536.32,793.00
             1545.97,813.61 1572.73,829.15 1593.00,837.85
             1593.00,837.85 1614.00,846.00 1614.00,846.00
             1611.17,851.20 1603.39,857.14 1599.13,862.00
             1596.37,865.15 1596.36,866.06 1594.32,869.00
             1594.32,869.00 1588.78,876.00 1588.78,876.00
             1586.44,879.25 1579.47,891.35 1577.87,895.00
             1573.22,905.68 1573.02,917.55 1573.00,929.00
             1572.99,935.37 1572.12,941.73 1571.00,948.00
             1564.62,946.13 1560.73,940.50 1556.00,936.09
             1556.00,936.09 1533.00,916.27 1533.00,916.27
             1517.18,902.71 1499.54,886.23 1487.92,868.83
             1478.65,854.95 1471.20,833.79 1471.00,817.00
             1470.81,800.09 1475.30,787.09 1479.12,771.00
             1479.12,771.00 1486.00,741.00 1486.00,741.00 Z" />
  <path id="Paete"
        fill="none" stroke="black" stroke-width="1"
        d="M 1882.00,849.00
           C 1882.00,849.00 1949.00,820.22 1949.00,820.22
             1949.00,820.22 2010.00,789.26 2010.00,789.26
             2023.42,782.40 2024.29,787.47 2037.00,780.13
             2037.00,780.13 2065.00,760.03 2065.00,760.03
             2065.00,760.03 2099.00,737.63 2099.00,737.63
             2111.93,727.89 2123.44,717.77 2138.00,710.26
             2151.10,703.50 2161.59,699.61 2176.00,696.42
             2176.00,696.42 2202.00,691.82 2202.00,691.82
             2209.61,689.86 2232.34,677.41 2240.00,673.00
             2247.39,668.75 2255.15,663.72 2264.00,664.04
             2280.72,664.65 2289.82,685.70 2301.00,689.20
             2312.35,692.75 2325.95,682.90 2333.37,692.11
             2335.82,695.15 2339.59,704.09 2341.28,708.00
             2348.90,725.64 2358.71,749.19 2382.00,747.91
             2382.00,747.91 2388.00,747.34 2388.00,747.34
             2388.00,747.34 2407.00,749.87 2407.00,749.87
             2407.00,749.87 2460.00,757.00 2460.00,757.00
             2460.00,777.00 2462.71,797.12 2464.84,817.00
             2464.84,817.00 2469.52,857.00 2469.52,857.00
             2471.71,867.06 2478.79,873.75 2482.65,883.00
             2485.10,888.86 2485.00,893.85 2485.00,900.00
             2476.08,901.18 2468.91,901.01 2460.00,901.00
             2460.00,901.00 2429.00,899.00 2429.00,899.00
             2429.00,899.00 2418.00,899.00 2418.00,899.00
             2406.42,899.02 2395.23,902.09 2384.00,904.58
             2384.00,904.58 2335.00,914.58 2335.00,914.58
             2293.57,922.05 2251.98,928.20 2210.00,931.09
             2210.00,931.09 2178.00,933.00 2178.00,933.00
             2178.00,933.00 2163.00,934.04 2163.00,934.04
             2163.00,934.04 2150.00,934.04 2150.00,934.04
             2150.00,934.04 2138.00,935.00 2138.00,935.00
             2138.00,935.00 2121.00,935.00 2121.00,935.00
             2121.00,935.00 2105.00,936.00 2105.00,936.00
             2105.00,936.00 2083.00,936.00 2083.00,936.00
             2083.00,936.00 2066.00,937.00 2066.00,937.00
             2066.00,937.00 2025.00,938.00 2025.00,938.00
             2025.00,938.00 2008.00,939.00 2008.00,939.00
             2008.00,939.00 1981.00,940.91 1981.00,940.91
             1981.00,940.91 1941.00,944.28 1941.00,944.28
             1941.00,944.28 1893.00,951.00 1893.00,951.00
             1893.00,951.00 1894.00,931.00 1894.00,931.00
             1894.00,931.00 1892.86,916.00 1892.86,916.00
             1892.86,916.00 1892.86,906.00 1892.86,906.00
             1891.26,898.14 1886.13,896.85 1884.02,892.91
             1882.80,890.63 1883.01,887.54 1883.00,885.00
             1882.98,876.21 1883.82,856.48 1882.00,849.00 Z" />
  <path id="Kalayaan"
        fill="none" stroke="black" stroke-width="1"
        d="M 1893.00,953.00
           C 1893.00,953.00 1926.00,948.28 1926.00,948.28
             1926.00,948.28 1974.00,943.17 1974.00,943.17
             1974.00,943.17 1997.00,941.91 1997.00,941.91
             1997.00,941.91 2011.00,941.00 2011.00,941.00
             2011.00,941.00 2028.00,939.96 2028.00,939.96
             2028.00,939.96 2040.00,939.96 2040.00,939.96
             2040.00,939.96 2051.00,939.00 2051.00,939.00
             2051.00,939.00 2067.00,939.00 2067.00,939.00
             2067.00,939.00 2084.00,938.00 2084.00,938.00
             2084.00,938.00 2106.00,938.00 2106.00,938.00
             2106.00,938.00 2123.00,937.00 2123.00,937.00
             2123.00,937.00 2139.00,937.00 2139.00,937.00
             2139.00,937.00 2151.00,936.04 2151.00,936.04
             2151.00,936.04 2164.00,936.04 2164.00,936.04
             2164.00,936.04 2183.00,935.00 2183.00,935.00
             2183.00,935.00 2195.00,934.00 2195.00,934.00
             2195.00,934.00 2204.00,934.00 2204.00,934.00
             2204.00,934.00 2234.00,931.17 2234.00,931.17
             2268.83,927.68 2303.60,922.84 2338.00,916.20
             2338.00,916.20 2385.00,906.58 2385.00,906.58
             2396.23,904.09 2407.42,901.02 2419.00,901.00
             2419.00,901.00 2428.00,901.00 2428.00,901.00
             2428.00,901.00 2459.00,903.00 2459.00,903.00
             2467.67,903.01 2476.44,903.53 2485.00,902.00
             2484.91,912.33 2482.00,926.77 2479.79,937.00
             2478.97,940.82 2478.09,947.44 2474.72,949.73
             2474.72,949.73 2444.00,961.85 2444.00,961.85
             2420.81,971.73 2397.94,982.71 2374.00,990.67
             2353.34,997.53 2341.61,996.60 2320.00,1008.31
             2280.86,1029.51 2255.10,1061.20 2205.00,1086.25
             2193.01,1092.24 2175.30,1101.40 2162.00,1101.96
             2149.50,1102.49 2146.29,1098.42 2136.00,1093.27
             2129.60,1090.07 2120.81,1086.61 2114.00,1084.33
             2094.62,1077.85 2076.83,1075.16 2057.00,1071.20
             2038.58,1067.52 2028.47,1063.78 2009.00,1064.00
             1992.45,1064.20 1971.15,1071.74 1956.00,1078.28
             1943.48,1083.68 1935.85,1089.98 1922.00,1090.00
             1912.98,1090.01 1903.90,1089.06 1895.00,1087.57
             1885.00,1085.88 1875.84,1082.05 1867.00,1077.14
             1864.60,1075.81 1859.34,1073.20 1857.88,1070.79
             1857.31,1068.93 1858.05,1064.43 1857.88,1062.00
             1857.63,1057.13 1856.22,1053.12 1857.88,1048.00
             1858.84,1043.08 1862.57,1039.36 1864.97,1035.00
             1864.97,1035.00 1869.31,1026.00 1869.31,1026.00
             1869.31,1026.00 1878.74,1009.00 1878.74,1009.00
             1888.96,989.20 1891.98,975.13 1893.00,953.00 Z" />
  <path id="Lumban"
        fill="none" stroke="black" stroke-width="1"
        d="M 1855.00,1073.00
           C 1855.00,1073.00 1883.00,1086.54 1883.00,1086.54
             1890.27,1089.32 1909.08,1091.90 1917.00,1092.00
             1921.72,1092.05 1927.49,1092.29 1932.00,1091.07
             1932.00,1091.07 1957.00,1079.85 1957.00,1079.85
             1971.82,1073.49 1992.84,1066.19 2009.00,1066.00
             2028.47,1065.78 2038.58,1069.52 2057.00,1073.20
             2077.95,1077.39 2095.47,1080.01 2116.00,1087.00
             2116.00,1087.00 2137.00,1095.78 2137.00,1095.78
             2142.77,1098.78 2147.40,1102.29 2154.00,1103.53
             2161.05,1104.86 2170.26,1103.23 2177.00,1100.92
             2177.00,1100.92 2192.00,1094.31 2192.00,1094.31
             2217.22,1082.73 2233.73,1072.81 2256.00,1056.11
             2256.00,1056.11 2308.00,1017.42 2308.00,1017.42
             2319.07,1010.53 2328.57,1005.50 2341.00,1001.35
             2341.00,1001.35 2366.00,995.12 2366.00,995.12
             2366.00,995.12 2391.00,986.58 2391.00,986.58
             2412.14,978.53 2457.19,956.41 2476.00,952.00
             2476.00,952.00 2469.66,974.00 2469.66,974.00
             2468.22,978.61 2466.15,984.17 2467.31,989.00
             2469.83,999.53 2482.91,1010.10 2482.97,1022.00
             2482.97,1022.00 2482.17,1030.00 2482.17,1030.00
             2482.17,1030.00 2481.09,1046.00 2481.09,1046.00
             2481.09,1046.00 2477.58,1087.00 2477.58,1087.00
             2477.58,1087.00 2472.50,1116.00 2472.50,1116.00
             2472.67,1123.71 2485.72,1136.24 2490.83,1142.00
             2494.34,1145.96 2498.33,1149.84 2494.67,1155.00
             2489.49,1162.33 2481.55,1169.02 2475.00,1175.09
             2460.24,1188.77 2444.76,1201.16 2428.00,1212.33
             2394.08,1234.95 2359.73,1251.31 2322.00,1266.40
             2297.06,1276.37 2252.11,1293.96 2226.00,1294.00
             2226.00,1294.00 2202.00,1294.00 2202.00,1294.00
             2188.28,1293.84 2188.30,1289.59 2181.00,1286.97
             2177.65,1285.76 2166.88,1285.01 2163.00,1285.00
             2163.00,1285.00 2127.00,1285.00 2127.00,1285.00
             2127.00,1285.00 2107.00,1286.00 2107.00,1286.00
             2107.00,1286.00 2092.00,1287.00 2092.00,1287.00
             2092.00,1287.00 2059.00,1287.00 2059.00,1287.00
             2059.00,1287.00 2046.00,1286.02 2046.00,1286.02
             2042.25,1285.77 2023.23,1284.12 2021.02,1282.98
             2014.02,1279.37 2012.09,1269.13 2012.00,1262.00
             2011.94,1256.46 2011.62,1245.94 2009.47,1241.00
             2006.76,1234.78 2001.05,1231.52 1996.00,1227.39
             1984.15,1217.69 1979.74,1210.36 1964.00,1217.01
             1956.08,1220.36 1949.39,1225.39 1943.00,1231.05
             1939.16,1234.45 1934.62,1239.37 1929.00,1238.43
             1922.43,1237.33 1912.68,1229.47 1907.00,1225.67
             1904.29,1223.86 1900.33,1220.99 1897.00,1220.92
             1893.51,1220.84 1886.01,1225.47 1882.00,1226.91
             1874.95,1229.45 1857.28,1233.37 1850.00,1232.96
             1840.40,1232.41 1834.77,1220.51 1828.83,1214.00
             1826.95,1211.94 1823.86,1208.60 1821.00,1208.13
             1818.37,1207.69 1815.16,1209.74 1813.00,1211.06
             1808.18,1214.02 1803.22,1217.97 1798.00,1220.07
             1794.09,1221.64 1787.27,1222.95 1783.00,1223.80
             1765.82,1227.24 1759.40,1228.58 1742.00,1224.65
             1737.35,1223.60 1728.71,1222.79 1725.32,1219.69
             1714.55,1209.83 1708.12,1175.21 1702.35,1167.00
             1699.22,1162.53 1695.27,1160.22 1693.55,1158.26
             1693.55,1158.26 1689.29,1151.00 1689.29,1151.00
             1682.10,1140.69 1677.45,1137.82 1678.02,1124.00
             1678.37,1115.41 1686.10,1115.56 1693.00,1115.09
             1704.98,1114.27 1727.32,1115.65 1728.90,1099.00
             1729.69,1090.55 1725.12,1081.87 1720.66,1075.00
             1711.65,1061.13 1700.67,1048.67 1689.00,1037.00
             1685.76,1033.76 1675.82,1024.43 1674.07,1021.00
             1672.80,1018.08 1673.61,1015.06 1674.07,1012.00
             1674.74,1004.95 1676.52,996.50 1681.21,991.00
             1685.59,985.89 1690.56,983.02 1696.00,979.28
             1706.12,972.34 1708.43,974.15 1720.00,974.00
             1729.39,973.87 1728.57,971.24 1734.00,969.56
             1736.56,968.76 1741.17,969.03 1744.00,969.00
             1751.71,968.90 1754.48,966.31 1759.00,968.02
             1763.85,969.86 1768.80,976.00 1772.00,980.00
             1779.88,989.89 1788.04,1003.06 1794.60,1014.00
             1799.78,1022.63 1802.50,1031.45 1814.00,1031.96
             1817.55,1032.12 1829.50,1030.85 1833.00,1030.00
             1834.41,1034.89 1836.21,1042.14 1834.02,1047.00
             1830.60,1054.57 1819.76,1063.82 1821.43,1073.00
             1823.23,1082.88 1838.46,1085.08 1846.00,1081.72
             1850.36,1079.78 1852.63,1076.97 1855.00,1073.00 Z
           M 2100.00,1110.00
           C 2096.01,1110.53 2090.30,1111.03 2087.10,1113.51
             2080.55,1118.61 2078.12,1137.71 2077.00,1146.00
             2077.00,1146.00 2067.00,1141.70 2067.00,1141.70
             2058.05,1137.66 2054.47,1135.86 2049.00,1146.00
             2049.00,1146.00 2019.00,1130.43 2019.00,1130.43
             2017.05,1130.09 2006.55,1131.24 2004.00,1131.58
             1993.50,1132.98 1989.13,1132.31 1989.00,1145.00
             1989.00,1145.00 1949.00,1142.00 1949.00,1142.00
             1948.38,1145.94 1948.54,1161.77 1950.17,1165.00
             1951.91,1168.42 1961.63,1176.51 1965.00,1179.42
             1975.34,1188.34 1977.75,1189.42 1989.00,1196.42
             1992.32,1198.49 1997.19,1201.91 2001.00,1202.33
             2003.64,1203.03 2006.34,1202.27 2009.00,1202.33
             2013.00,1201.82 2018.33,1202.73 2021.68,1200.26
             2024.41,1198.24 2027.44,1193.04 2029.00,1190.00
             2029.00,1190.00 2050.00,1205.11 2050.00,1205.11
             2050.00,1205.11 2072.00,1207.42 2072.00,1207.42
             2072.00,1207.42 2091.90,1208.40 2091.90,1208.40
             2091.90,1208.40 2107.09,1188.15 2107.09,1188.15
             2107.09,1188.15 2111.00,1185.60 2111.00,1185.60
             2111.00,1185.60 2133.00,1184.00 2133.00,1184.00
             2133.00,1184.00 2155.00,1183.00 2155.00,1183.00
             2155.00,1183.00 2178.00,1181.37 2178.00,1181.37
             2178.00,1181.37 2193.00,1174.25 2193.00,1174.25
             2193.00,1174.25 2207.71,1165.61 2207.71,1165.61
             2207.71,1165.61 2211.00,1143.00 2211.00,1143.00
             2211.00,1143.00 2161.00,1148.21 2161.00,1148.21
             2154.33,1148.11 2149.65,1142.55 2145.00,1142.66
             2137.87,1142.82 2128.50,1154.85 2116.04,1144.61
             2108.36,1138.30 2107.99,1128.56 2104.91,1120.00
             2103.65,1116.49 2101.74,1113.29 2100.00,1110.00 Z" />
  <path id="Cavinti"
        fill="none" stroke="black" stroke-width="1"
        d="M 2498.00,1155.00
           C 2499.07,1158.21 2498.01,1164.11 2498.00,1168.00
             2498.00,1168.00 2497.00,1201.00 2497.00,1201.00
             2497.00,1201.00 2496.00,1216.00 2496.00,1216.00
             2496.00,1216.00 2495.00,1235.00 2495.00,1235.00
             2495.00,1235.00 2495.00,1253.00 2495.00,1253.00
             2495.00,1253.00 2494.00,1270.00 2494.00,1270.00
             2493.98,1284.13 2494.80,1301.67 2486.91,1314.00
             2477.42,1328.83 2458.37,1339.66 2445.00,1351.29
             2433.76,1361.07 2430.51,1367.46 2423.42,1380.00
             2407.86,1407.54 2393.51,1436.25 2380.31,1465.00
             2380.31,1465.00 2350.69,1527.00 2350.69,1527.00
             2350.69,1527.00 2321.00,1576.00 2321.00,1576.00
             2321.00,1576.00 2278.00,1559.60 2278.00,1559.60
             2278.00,1559.60 2217.00,1536.72 2217.00,1536.72
             2217.00,1536.72 2192.00,1530.45 2192.00,1530.45
             2178.90,1527.83 2174.35,1528.84 2161.00,1523.95
             2161.00,1523.95 2102.00,1495.69 2102.00,1495.69
             2091.24,1490.77 2079.02,1485.14 2067.00,1485.00
             2067.00,1485.00 2053.00,1485.00 2053.00,1485.00
             2053.00,1485.00 2042.00,1484.04 2042.00,1484.04
             2042.00,1484.04 2031.00,1484.04 2031.00,1484.04
             2031.00,1484.04 2020.00,1483.09 2020.00,1483.09
             2020.00,1483.09 1994.00,1481.74 1994.00,1481.74
             1977.61,1481.14 1961.13,1487.92 1945.00,1491.20
             1929.43,1494.36 1913.81,1494.00 1898.00,1494.00
             1898.00,1494.00 1889.25,1457.00 1889.25,1457.00
             1884.59,1430.17 1884.96,1420.57 1885.00,1394.00
             1885.00,1394.00 1885.51,1380.00 1885.51,1380.00
             1885.51,1380.00 1888.60,1364.00 1888.60,1364.00
             1888.60,1364.00 1891.29,1350.00 1891.29,1350.00
             1894.90,1336.09 1902.88,1323.12 1913.00,1313.00
             1922.48,1303.52 1942.77,1286.09 1957.00,1287.33
             1962.29,1287.78 1968.87,1289.83 1972.91,1293.34
             1977.75,1297.53 1979.84,1303.36 1987.00,1303.94
             1996.55,1304.72 2006.40,1298.16 2014.00,1292.97
             2016.65,1291.17 2021.18,1287.42 2024.00,1286.74
             2026.78,1285.74 2030.10,1286.68 2033.00,1286.74
             2033.00,1286.74 2058.00,1289.00 2058.00,1289.00
             2058.00,1289.00 2093.00,1289.00 2093.00,1289.00
             2093.00,1289.00 2128.00,1287.00 2128.00,1287.00
             2128.00,1287.00 2162.00,1287.00 2162.00,1287.00
             2165.88,1287.01 2176.65,1287.76 2180.00,1288.97
             2187.30,1291.59 2187.28,1295.84 2201.00,1296.00
             2201.00,1296.00 2227.00,1296.00 2227.00,1296.00
             2253.11,1295.96 2298.06,1278.37 2323.00,1268.40
             2368.02,1250.39 2411.43,1229.08 2450.00,1199.35
             2462.08,1190.04 2474.15,1179.69 2485.00,1168.99
             2485.00,1168.99 2498.00,1155.00 2498.00,1155.00 Z" />
  <path id="Pagsanjan"
        fill="none" stroke="black" stroke-width="1"
        d="M 1642.00,1442.00
           C 1642.00,1437.19 1641.61,1432.35 1644.09,1428.00
             1647.33,1422.30 1654.39,1418.13 1658.79,1413.00
             1663.63,1407.35 1664.91,1401.24 1665.00,1394.00
             1665.09,1386.13 1663.19,1381.81 1665.75,1374.00
             1668.85,1364.53 1677.06,1356.29 1682.64,1348.00
             1686.80,1341.83 1699.63,1322.73 1702.05,1317.00
             1702.05,1317.00 1707.12,1298.00 1707.12,1298.00
             1707.12,1298.00 1719.42,1245.00 1719.42,1245.00
             1720.55,1240.96 1723.84,1228.00 1726.65,1225.72
             1729.11,1223.57 1734.10,1225.21 1737.00,1225.72
             1749.66,1228.37 1748.36,1229.16 1762.00,1229.00
             1769.62,1228.91 1793.27,1224.64 1800.00,1221.65
             1805.94,1219.02 1815.93,1210.60 1820.00,1210.70
             1824.19,1210.81 1828.57,1216.96 1831.00,1220.00
             1838.32,1229.18 1840.28,1235.27 1853.00,1234.99
             1860.19,1234.82 1876.16,1231.38 1883.00,1228.91
             1887.21,1227.40 1893.96,1222.91 1898.00,1223.52
             1904.71,1224.52 1919.46,1240.11 1930.00,1240.77
             1936.04,1241.15 1940.82,1235.81 1945.00,1232.15
             1952.80,1225.32 1969.23,1212.68 1980.00,1218.00
             1985.38,1220.65 1991.24,1226.35 1996.00,1230.20
             2000.47,1233.81 2005.07,1236.53 2007.47,1242.00
             2010.87,1249.75 2009.08,1262.95 2010.82,1271.00
             2012.49,1278.72 2015.71,1280.93 2020.00,1287.00
             2011.22,1292.49 1994.99,1305.49 1984.00,1301.40
             1980.05,1299.93 1977.17,1295.09 1973.96,1292.19
             1969.42,1288.07 1963.07,1285.85 1957.00,1285.33
             1942.33,1284.06 1921.74,1302.26 1912.00,1312.00
             1900.17,1323.83 1891.39,1338.64 1887.50,1355.00
             1887.50,1355.00 1885.57,1369.00 1885.57,1369.00
             1884.37,1377.27 1883.01,1385.62 1883.00,1394.00
             1882.96,1420.57 1882.59,1430.18 1887.25,1457.00
             1887.25,1457.00 1896.00,1494.00 1896.00,1494.00
             1873.47,1497.18 1848.14,1514.79 1825.00,1515.00
             1825.00,1515.00 1824.00,1492.00 1824.00,1492.00
             1824.00,1492.00 1824.00,1465.00 1824.00,1465.00
             1824.00,1465.00 1823.09,1454.00 1823.09,1454.00
             1822.69,1448.26 1822.84,1436.64 1818.57,1432.43
             1814.89,1428.79 1804.97,1429.05 1800.00,1429.00
             1800.00,1429.00 1786.00,1428.00 1786.00,1428.00
             1786.00,1428.00 1755.00,1428.00 1755.00,1428.00
             1755.00,1428.00 1738.00,1429.00 1738.00,1429.00
             1738.00,1429.00 1718.00,1429.00 1718.00,1429.00
             1718.00,1429.00 1701.00,1430.00 1701.00,1430.00
             1690.07,1430.06 1670.62,1433.40 1660.00,1436.43
             1660.00,1436.43 1642.00,1442.00 1642.00,1442.00 Z" />
  <path id="Santa Cruz"
        fill="none" stroke="black" stroke-width="1"
        d="M 1592.00,1122.00
           C 1619.19,1122.25 1644.11,1154.87 1655.00,1162.35
             1666.14,1170.00 1682.97,1159.20 1690.00,1160.31
             1693.39,1160.85 1696.57,1163.55 1698.79,1166.04
             1702.74,1170.48 1704.16,1176.48 1706.00,1182.00
             1706.00,1182.00 1715.86,1209.00 1715.86,1209.00
             1717.67,1212.99 1723.34,1220.65 1723.35,1224.00
             1723.35,1224.00 1718.86,1239.00 1718.86,1239.00
             1718.86,1239.00 1710.42,1273.00 1710.42,1273.00
             1708.07,1283.62 1703.03,1310.84 1698.56,1319.00
             1698.56,1319.00 1676.23,1355.00 1676.23,1355.00
             1670.62,1363.09 1663.08,1369.43 1662.19,1380.00
             1661.73,1385.36 1665.16,1395.81 1660.64,1406.00
             1656.68,1414.94 1647.80,1418.30 1642.70,1426.00
             1639.69,1430.55 1639.73,1438.44 1639.00,1444.00
             1639.00,1444.00 1614.00,1452.06 1614.00,1452.06
             1610.86,1453.27 1604.97,1456.70 1602.00,1456.49
             1598.90,1456.27 1594.88,1452.76 1592.00,1451.18
             1587.45,1448.69 1584.10,1448.07 1579.00,1448.00
             1573.75,1447.94 1560.33,1447.60 1556.18,1444.91
             1552.72,1442.67 1549.47,1435.72 1547.19,1432.00
             1547.19,1432.00 1529.63,1406.00 1529.63,1406.00
             1516.01,1387.77 1499.02,1367.77 1488.31,1348.00
             1479.25,1331.28 1472.94,1309.11 1466.66,1291.00
             1466.66,1291.00 1459.00,1271.00 1459.00,1271.00
             1459.00,1271.00 1482.00,1259.43 1482.00,1259.43
             1489.52,1256.21 1501.83,1252.57 1507.99,1247.61
             1516.85,1240.48 1516.84,1231.37 1524.09,1225.90
             1535.18,1217.54 1561.86,1212.89 1573.89,1202.47
             1579.36,1197.74 1578.59,1192.66 1581.28,1187.00
             1583.10,1183.18 1584.64,1182.41 1586.48,1177.00
             1590.75,1164.39 1592.00,1135.86 1592.00,1122.00 Z" />
  <path id="Magdalena"
        fill="none" stroke="black" stroke-width="1"
        d="M 1589.00,1494.00
           C 1601.03,1488.51 1598.79,1482.23 1600.43,1471.00
             1600.95,1467.41 1601.58,1461.61 1604.51,1459.21
             1609.15,1455.40 1627.43,1449.90 1634.00,1447.67
             1634.00,1447.67 1643.17,1443.91 1643.17,1443.91
             1662.59,1436.72 1683.27,1432.24 1704.00,1432.00
             1704.00,1432.00 1717.00,1431.00 1717.00,1431.00
             1717.00,1431.00 1738.00,1431.00 1738.00,1431.00
             1738.00,1431.00 1755.00,1430.00 1755.00,1430.00
             1755.00,1430.00 1785.00,1430.00 1785.00,1430.00
             1785.00,1430.00 1800.00,1431.00 1800.00,1431.00
             1804.41,1431.05 1815.04,1430.65 1817.86,1434.43
             1819.30,1436.35 1819.85,1440.60 1820.25,1443.00
             1820.25,1443.00 1822.00,1466.00 1822.00,1466.00
             1822.00,1466.00 1822.00,1493.00 1822.00,1493.00
             1822.00,1493.00 1823.04,1504.00 1823.04,1504.00
             1823.04,1504.00 1823.04,1513.00 1823.04,1513.00
             1824.01,1521.77 1827.36,1536.83 1823.92,1545.00
             1822.26,1548.93 1814.49,1559.26 1811.58,1563.00
             1811.58,1563.00 1787.43,1594.00 1787.43,1594.00
             1776.06,1609.91 1771.68,1620.58 1769.29,1640.00
             1767.65,1653.28 1768.33,1667.16 1764.00,1680.00
             1761.64,1686.98 1758.05,1693.64 1752.91,1698.98
             1751.14,1700.82 1748.18,1704.02 1745.32,1702.83
             1743.15,1701.93 1736.84,1691.59 1735.00,1689.00
             1727.76,1678.81 1721.14,1671.21 1711.00,1663.76
             1711.00,1663.76 1673.00,1639.86 1673.00,1639.86
             1669.68,1637.51 1662.74,1632.86 1660.43,1629.91
             1656.10,1624.40 1659.09,1619.25 1658.87,1614.00
             1658.66,1608.93 1655.69,1604.48 1651.96,1601.22
             1646.39,1596.36 1632.51,1594.52 1625.00,1592.28
             1622.39,1591.50 1616.46,1589.95 1615.06,1587.58
             1613.40,1584.76 1616.45,1579.10 1617.24,1576.00
             1618.75,1570.10 1618.08,1562.85 1616.63,1557.00
             1612.81,1541.63 1605.59,1529.01 1598.77,1515.00
             1595.32,1507.91 1590.51,1502.02 1589.00,1494.00 Z" />
  <path id="Pila"
        fill="none" stroke="black" stroke-width="1"
        d="M 1353.00,1389.00
           C 1367.79,1386.22 1372.08,1373.40 1369.33,1360.00
             1368.57,1356.25 1365.16,1347.63 1367.01,1344.47
             1368.41,1342.06 1374.46,1338.71 1377.00,1336.97
             1382.39,1333.28 1387.50,1329.06 1391.67,1324.00
             1398.62,1315.58 1399.00,1307.00 1404.79,1299.00
             1408.31,1294.14 1416.14,1288.34 1421.00,1284.39
             1424.87,1281.25 1429.38,1276.94 1434.00,1275.14
             1437.51,1273.77 1452.48,1271.60 1457.00,1271.00
             1457.00,1271.00 1464.66,1291.00 1464.66,1291.00
             1470.94,1309.11 1477.25,1331.28 1486.31,1348.00
             1497.99,1369.56 1514.13,1387.22 1528.29,1407.00
             1528.29,1407.00 1546.32,1434.00 1546.32,1434.00
             1549.05,1438.38 1551.52,1444.22 1556.04,1446.91
             1559.76,1449.14 1571.41,1449.98 1576.00,1450.00
             1590.90,1450.07 1589.09,1452.16 1601.00,1459.00
             1599.78,1464.43 1598.60,1468.30 1598.07,1474.00
             1597.69,1478.13 1597.30,1485.49 1594.49,1488.61
             1592.03,1491.33 1584.66,1493.54 1581.00,1495.00
             1571.18,1498.92 1561.97,1502.02 1554.62,1510.17
             1549.03,1516.37 1545.73,1524.82 1544.44,1533.00
             1543.66,1537.93 1544.35,1542.33 1541.87,1547.00
             1531.34,1566.76 1500.23,1572.00 1480.00,1572.00
             1478.85,1565.89 1476.16,1548.32 1473.30,1544.00
             1459.50,1523.17 1425.59,1526.83 1406.01,1509.79
             1399.68,1504.27 1389.58,1488.62 1385.00,1481.00
             1370.72,1457.25 1361.24,1434.22 1355.80,1407.00
             1354.61,1401.05 1353.28,1395.07 1353.00,1389.00 Z" />
  <path id="Victoria"
        fill="none" stroke="black" stroke-width="1"
        d="M 1351.00,1390.00
           C 1353.50,1420.76 1369.11,1460.38 1386.00,1486.00
             1389.82,1491.79 1399.56,1506.34 1404.17,1510.53
             1408.93,1514.87 1422.78,1521.97 1429.00,1523.97
             1429.00,1523.97 1448.00,1529.34 1448.00,1529.34
             1456.51,1532.29 1466.12,1536.21 1471.30,1544.00
             1474.21,1548.38 1474.80,1555.79 1475.80,1561.00
             1476.70,1565.63 1478.23,1571.36 1477.90,1576.00
             1477.05,1588.16 1465.43,1598.36 1456.00,1604.65
             1434.59,1618.93 1400.78,1628.88 1375.00,1629.00
             1370.80,1629.02 1359.26,1629.61 1356.00,1627.98
             1349.45,1624.70 1348.07,1617.38 1338.00,1617.02
             1324.41,1616.52 1311.70,1624.04 1299.00,1627.97
             1293.78,1629.59 1285.10,1632.17 1280.00,1629.69
             1275.39,1627.44 1271.21,1621.20 1268.34,1617.00
             1268.34,1617.00 1250.28,1590.00 1250.28,1590.00
             1246.37,1584.45 1241.59,1577.00 1234.00,1577.62
             1226.02,1578.27 1227.00,1579.11 1217.00,1579.00
             1203.64,1578.84 1192.59,1573.09 1193.76,1558.00
             1194.40,1549.82 1205.40,1543.73 1210.72,1537.96
             1215.45,1532.82 1224.22,1523.73 1227.47,1518.00
             1227.47,1518.00 1232.09,1506.00 1232.09,1506.00
             1232.09,1506.00 1235.75,1498.00 1235.75,1498.00
             1238.16,1490.91 1238.03,1481.55 1238.84,1474.00
             1239.13,1471.27 1239.07,1466.73 1240.93,1464.58
             1242.79,1462.44 1247.34,1462.26 1250.00,1461.95
             1255.12,1461.35 1260.04,1460.47 1263.19,1455.95
             1267.82,1449.27 1267.45,1438.32 1271.00,1433.30
             1272.93,1430.58 1280.06,1425.40 1283.00,1423.12
             1283.00,1423.12 1302.00,1406.97 1302.00,1406.97
             1305.83,1403.35 1316.77,1392.60 1321.00,1391.15
             1326.21,1389.35 1344.45,1390.00 1351.00,1390.00 Z" />
  <path id="Nagcarlan"
        fill="none" stroke="black" stroke-width="1"
        d="M 1480.00,1574.00
           C 1501.76,1574.00 1528.65,1569.01 1542.06,1550.00
             1548.32,1541.13 1543.86,1536.77 1549.06,1523.00
             1555.24,1506.67 1571.05,1499.31 1587.00,1495.00
             1588.82,1501.37 1594.67,1511.85 1597.88,1518.00
             1597.88,1518.00 1603.27,1530.00 1603.27,1530.00
             1609.76,1543.00 1616.68,1556.01 1615.96,1571.00
             1615.76,1575.20 1614.96,1577.13 1613.59,1581.00
             1608.67,1594.94 1607.39,1592.76 1598.45,1604.00
             1592.44,1611.55 1583.93,1624.95 1580.70,1634.00
             1577.74,1642.27 1575.22,1655.41 1586.00,1659.40
             1587.92,1660.11 1590.92,1660.00 1593.00,1660.00
             1593.00,1660.00 1613.00,1660.00 1613.00,1660.00
             1613.00,1660.00 1627.00,1661.00 1627.00,1661.00
             1627.00,1661.00 1634.00,1661.00 1634.00,1661.00
             1636.68,1661.00 1641.25,1660.78 1643.49,1662.31
             1646.75,1664.54 1649.22,1677.87 1649.92,1682.00
             1650.92,1687.97 1651.07,1688.88 1651.00,1695.00
             1650.86,1706.53 1647.65,1704.55 1646.07,1710.04
             1646.07,1710.04 1646.07,1716.00 1646.07,1716.00
             1644.96,1724.94 1643.52,1731.31 1647.52,1740.00
             1650.10,1745.61 1653.57,1748.09 1659.00,1750.68
             1662.03,1752.13 1667.33,1753.82 1669.40,1756.39
             1671.96,1759.55 1670.95,1770.65 1671.00,1775.00
             1671.10,1783.29 1674.38,1789.45 1677.40,1797.00
             1677.40,1797.00 1692.74,1832.00 1692.74,1832.00
             1692.74,1832.00 1703.26,1854.00 1703.26,1854.00
             1720.55,1887.51 1740.64,1920.22 1762.42,1951.00
             1762.42,1951.00 1794.12,1994.00 1794.12,1994.00
             1794.12,1994.00 1811.29,2015.79 1811.29,2015.79
             1818.64,2022.95 1829.88,2022.81 1837.00,2028.39
             1837.00,2028.39 1871.73,2069.00 1871.73,2069.00
             1879.40,2077.95 1889.86,2088.30 1899.00,2095.74
             1901.42,2097.71 1908.46,2101.92 1906.83,2105.63
             1905.55,2108.55 1891.46,2115.51 1888.00,2117.25
             1879.06,2121.72 1870.32,2126.66 1860.00,2126.66
             1842.20,2126.67 1821.44,2115.25 1801.00,2116.04
             1795.35,2116.26 1784.48,2119.71 1780.00,2117.00
             1777.12,2120.71 1773.33,2119.95 1769.00,2120.00
             1769.00,2120.00 1752.00,2121.01 1752.00,2121.01
             1748.68,2121.04 1741.00,2122.67 1738.65,2121.01
             1736.47,2119.47 1730.41,2104.45 1728.74,2101.00
             1728.74,2101.00 1704.28,2054.00 1704.28,2054.00
             1704.28,2054.00 1682.19,2017.00 1682.19,2017.00
             1682.19,2017.00 1671.52,2000.00 1671.52,2000.00
             1667.39,1990.88 1667.90,1976.93 1663.30,1970.00
             1659.98,1965.00 1651.63,1958.02 1647.00,1953.83
             1647.00,1953.83 1622.53,1929.00 1622.53,1929.00
             1615.40,1919.65 1611.43,1898.80 1602.96,1891.21
             1595.53,1884.56 1584.31,1885.26 1574.00,1878.65
             1574.00,1878.65 1542.00,1856.67 1542.00,1856.67
             1536.79,1853.19 1530.31,1848.39 1524.00,1847.51
             1517.78,1846.63 1510.75,1850.88 1506.00,1854.50
             1506.00,1854.50 1476.00,1880.99 1476.00,1880.99
             1471.85,1884.24 1462.44,1892.06 1457.00,1890.02
             1453.69,1888.78 1438.70,1874.47 1435.00,1871.02
             1416.97,1854.21 1403.78,1840.51 1388.58,1821.00
             1388.58,1821.00 1375.36,1803.00 1375.36,1803.00
             1374.02,1800.94 1371.40,1797.17 1373.04,1794.70
             1374.52,1792.44 1388.68,1788.44 1392.00,1787.33
             1392.00,1787.33 1431.00,1774.33 1431.00,1774.33
             1431.00,1774.33 1446.00,1769.00 1446.00,1769.00
             1443.67,1759.10 1435.72,1745.12 1430.77,1736.00
             1419.02,1714.38 1400.88,1686.69 1386.11,1667.00
             1386.11,1667.00 1367.42,1644.00 1367.42,1644.00
             1363.62,1639.57 1359.66,1636.67 1358.00,1631.00
             1358.00,1631.00 1374.00,1631.00 1374.00,1631.00
             1399.60,1630.96 1432.44,1621.67 1454.00,1607.95
             1465.95,1600.34 1479.26,1589.18 1480.00,1574.00 Z" />
  <path id="Rizal"
        fill="none" stroke="black" stroke-width="1"
        d="M 1460.00,1893.00
           C 1476.05,1885.83 1487.01,1872.55 1500.00,1861.43
             1505.60,1856.63 1514.23,1849.45 1522.00,1849.35
             1528.52,1849.27 1535.78,1854.52 1541.00,1858.00
             1541.00,1858.00 1577.00,1882.48 1577.00,1882.48
             1584.56,1886.61 1596.86,1887.31 1602.79,1893.21
             1609.91,1900.31 1613.67,1921.74 1623.09,1932.00
             1623.09,1932.00 1646.00,1954.91 1646.00,1954.91
             1650.55,1959.15 1657.93,1964.93 1661.30,1970.00
             1666.27,1977.49 1665.05,1991.99 1670.52,2002.00
             1670.52,2002.00 1678.95,2015.00 1678.95,2015.00
             1678.95,2015.00 1694.80,2041.00 1694.80,2041.00
             1707.74,2062.69 1726.71,2098.78 1736.00,2122.00
             1736.00,2122.00 1711.00,2125.01 1711.00,2125.01
             1711.00,2125.01 1699.00,2128.48 1699.00,2128.48
             1699.00,2128.48 1685.00,2121.76 1685.00,2121.76
             1685.00,2121.76 1660.00,2112.02 1660.00,2112.02
             1660.00,2112.02 1633.00,2107.39 1633.00,2107.39
             1633.00,2107.39 1583.00,2098.00 1583.00,2098.00
             1583.00,2098.00 1575.03,2070.00 1575.03,2070.00
             1560.10,2021.97 1543.95,1989.50 1512.20,1950.00
             1503.09,1938.67 1493.21,1927.34 1483.00,1917.00
             1476.80,1910.73 1464.63,1899.47 1460.00,1893.00 Z" />
  <path id="San Pablo"
        fill="none" stroke="black" stroke-width="1"
        d="M 1335.00,1879.00
           C 1331.89,1875.20 1327.01,1873.00 1325.57,1868.00
             1319.94,1848.47 1341.32,1821.74 1354.00,1809.00
             1358.69,1804.29 1363.49,1797.91 1370.00,1796.00
             1371.80,1801.65 1374.90,1805.24 1378.29,1810.00
             1378.29,1810.00 1398.75,1836.00 1398.75,1836.00
             1417.96,1858.92 1436.50,1873.44 1457.58,1893.46
             1457.58,1893.46 1494.83,1932.00 1494.83,1932.00
             1521.78,1961.85 1545.02,1995.55 1560.00,2033.00
             1560.00,2033.00 1575.58,2078.00 1575.58,2078.00
             1576.78,2082.13 1579.98,2096.01 1582.51,2098.44
             1584.80,2100.64 1590.84,2101.38 1594.00,2101.92
             1594.00,2101.92 1617.00,2106.40 1617.00,2106.40
             1617.00,2106.40 1635.00,2109.71 1635.00,2109.71
             1644.05,2110.93 1652.17,2111.52 1661.00,2114.34
             1668.12,2116.62 1677.31,2120.02 1684.00,2123.26
             1689.31,2125.83 1694.36,2129.35 1700.00,2131.00
             1700.00,2131.00 1689.28,2153.00 1689.28,2153.00
             1679.35,2176.08 1675.70,2190.21 1657.00,2209.00
             1652.31,2213.71 1642.29,2223.71 1636.00,2225.43
             1633.63,2226.09 1630.48,2226.00 1628.00,2226.00
             1628.00,2226.00 1616.00,2226.00 1616.00,2226.00
             1607.28,2225.89 1598.70,2223.34 1590.00,2226.66
             1585.57,2228.35 1576.40,2236.31 1572.00,2239.63
             1562.67,2246.65 1547.04,2257.50 1537.00,2263.14
             1493.45,2287.59 1446.04,2296.34 1407.00,2330.29
             1383.29,2350.91 1353.28,2389.65 1333.00,2415.00
             1333.00,2415.00 1316.00,2436.00 1316.00,2436.00
             1313.52,2438.88 1310.27,2443.22 1307.00,2445.02
             1302.94,2447.25 1296.54,2446.99 1292.00,2447.00
             1292.00,2447.00 1280.00,2447.96 1280.00,2447.96
             1280.00,2447.96 1264.00,2447.96 1264.00,2447.96
             1248.47,2448.02 1241.56,2457.24 1231.83,2468.00
             1221.68,2479.22 1211.45,2490.52 1199.00,2499.28
             1192.90,2503.57 1184.83,2509.68 1177.00,2508.81
             1163.09,2507.27 1153.08,2491.84 1135.00,2498.10
             1118.92,2503.66 1098.18,2525.82 1086.00,2538.00
             1080.53,2543.47 1069.42,2554.97 1061.00,2554.17
             1054.03,2553.51 1047.23,2543.49 1043.70,2538.00
             1041.22,2534.15 1037.69,2527.27 1036.06,2523.00
             1033.16,2515.34 1031.91,2507.17 1032.00,2499.00
             1032.13,2488.12 1035.63,2482.85 1038.11,2473.00
             1040.28,2464.34 1040.10,2460.75 1040.00,2452.00
             1039.88,2442.34 1036.80,2433.58 1028.00,2428.53
             1024.77,2426.68 1019.67,2425.20 1016.00,2424.45
             1007.83,2422.78 1005.08,2423.00 997.00,2423.00
             997.13,2417.06 1001.14,2397.54 1004.51,2393.09
             1004.51,2393.09 1032.00,2369.92 1032.00,2369.92
             1048.02,2356.56 1078.64,2330.27 1090.06,2314.00
             1093.87,2308.57 1096.06,2294.92 1097.65,2288.00
             1099.67,2279.20 1100.99,2277.45 1101.00,2268.00
             1101.00,2268.00 1101.00,2198.00 1101.00,2198.00
             1101.00,2198.00 1143.00,2198.00 1143.00,2198.00
             1143.00,2198.00 1145.13,2172.00 1145.13,2172.00
             1145.13,2172.00 1145.13,2119.00 1145.13,2119.00
             1135.25,2119.00 1125.64,2118.70 1116.00,2117.08
             1111.30,2116.29 1106.34,2115.10 1101.79,2113.10
             1072.46,2099.49 1090.01,2060.22 1101.79,2040.00
             1101.79,2040.00 1109.20,2027.00 1109.20,2027.00
             1109.20,2027.00 1120.14,2010.00 1120.14,2010.00
             1120.14,2010.00 1134.00,1989.00 1134.00,1989.00
             1143.73,1972.82 1151.51,1956.65 1165.00,1943.00
             1168.59,1939.37 1174.42,1933.06 1179.00,1931.09
             1182.75,1929.47 1192.55,1929.94 1197.00,1930.00
             1210.24,1930.19 1205.10,1938.92 1218.00,1944.64
             1225.76,1948.08 1242.98,1947.01 1252.00,1947.00
             1270.55,1946.97 1281.55,1938.24 1281.99,1919.00
             1282.05,1916.02 1282.16,1912.74 1280.83,1910.00
             1278.54,1905.29 1275.44,1904.85 1275.04,1898.00
             1274.82,1894.13 1274.97,1887.39 1279.14,1885.60
             1284.82,1883.16 1297.62,1888.42 1304.00,1888.42
             1313.14,1888.42 1326.62,1882.60 1335.00,1879.00 Z
           M 1346.00,1892.34
           C 1335.64,1894.86 1329.47,1907.02 1333.13,1917.00
             1335.32,1922.96 1339.57,1926.71 1345.00,1929.69
             1348.56,1931.64 1351.83,1933.20 1356.00,1932.80
             1358.92,1932.52 1362.29,1931.12 1365.00,1929.99
             1369.26,1928.22 1374.63,1925.73 1376.22,1921.00
             1377.46,1917.32 1375.01,1912.07 1373.03,1909.00
             1368.25,1901.58 1355.17,1891.80 1346.00,1892.34 Z
           M 1290.00,2028.33
           C 1287.32,2029.00 1285.48,2029.41 1283.39,2031.42
             1279.98,2034.68 1273.77,2048.24 1274.65,2053.00
             1275.30,2056.54 1278.13,2059.64 1281.04,2061.58
             1288.17,2066.32 1302.69,2063.10 1311.00,2063.00
             1315.67,2062.95 1320.72,2063.50 1324.82,2060.77
             1333.51,2054.99 1330.47,2040.57 1323.70,2034.53
             1317.80,2029.27 1297.84,2027.46 1290.00,2028.33 Z" />
  <path id="Luisiana"
        fill="none" stroke="black" stroke-width="1"
        d="M 1826.00,1517.00
           C 1851.33,1516.45 1876.49,1496.04 1901.00,1496.00
             1917.33,1495.97 1930.82,1496.23 1947.00,1492.79
             1962.59,1489.47 1977.86,1483.15 1994.00,1483.74
             1994.00,1483.74 2037.00,1486.00 2037.00,1486.00
             2037.00,1486.00 2054.00,1487.00 2054.00,1487.00
             2071.09,1487.03 2073.32,1486.13 2090.00,1492.42
             2114.57,1501.70 2149.33,1524.49 2172.00,1529.33
             2172.00,1529.33 2184.00,1531.08 2184.00,1531.08
             2184.00,1531.08 2208.00,1536.15 2208.00,1536.15
             2233.05,1542.92 2256.96,1553.18 2281.00,1562.80
             2281.00,1562.80 2304.00,1571.66 2304.00,1571.66
             2309.85,1573.69 2314.70,1574.26 2319.00,1579.00
             2319.00,1579.00 2302.75,1600.00 2302.75,1600.00
             2283.15,1623.71 2261.21,1646.09 2238.00,1666.28
             2238.00,1666.28 2218.00,1683.41 2218.00,1683.41
             2215.51,1685.49 2209.63,1690.64 2207.00,1691.83
             2202.49,1693.85 2197.89,1691.22 2194.00,1688.99
             2188.21,1685.65 2173.40,1675.27 2167.00,1676.74
             2156.67,1679.12 2146.05,1697.26 2138.91,1703.79
             2131.30,1710.75 2116.77,1713.08 2109.04,1720.18
             2104.87,1724.01 2095.70,1737.69 2093.46,1743.00
             2093.46,1743.00 2089.00,1757.00 2089.00,1757.00
             2085.59,1763.80 2078.63,1768.23 2074.00,1777.00
             2067.45,1775.77 2064.72,1773.19 2059.00,1770.26
             2059.00,1770.26 2040.00,1761.25 2040.00,1761.25
             2014.87,1748.68 2001.30,1741.41 1980.00,1722.07
             1980.00,1722.07 1972.17,1714.96 1972.17,1714.96
             1948.80,1690.26 1944.08,1676.24 1929.56,1659.00
             1922.13,1650.18 1913.20,1642.99 1905.00,1634.99
             1893.83,1624.08 1883.58,1612.16 1873.80,1600.00
             1873.80,1600.00 1843.35,1560.00 1843.35,1560.00
             1840.40,1556.18 1830.19,1544.29 1828.85,1541.00
             1827.74,1538.28 1826.18,1520.81 1826.00,1517.00 Z" />
  <path id="Majayjay"
        fill="none" stroke="black" stroke-width="1"
        d="M 1827.00,1544.00
           C 1833.32,1548.63 1839.58,1557.61 1844.37,1564.00
             1844.37,1564.00 1871.80,1600.00 1871.80,1600.00
             1881.91,1612.57 1892.52,1624.66 1904.00,1636.00
             1904.00,1636.00 1927.56,1659.00 1927.56,1659.00
             1927.56,1659.00 1953.89,1696.00 1953.89,1696.00
             1966.46,1712.33 1981.35,1726.70 1998.00,1738.85
             2015.14,1751.35 2027.30,1757.05 2046.00,1766.24
             2050.93,1768.67 2067.28,1775.72 2070.43,1778.96
             2073.11,1781.73 2070.55,1783.29 2075.12,1792.00
             2077.43,1796.40 2083.36,1804.50 2083.70,1809.00
             2083.96,1812.50 2080.86,1820.33 2079.67,1824.00
             2076.68,1833.17 2074.08,1842.32 2069.73,1851.00
             2066.40,1857.64 2060.77,1864.05 2058.79,1871.00
             2055.74,1881.67 2057.75,1889.78 2057.99,1900.00
             2058.36,1916.38 2049.80,1927.14 2042.31,1941.00
             2027.30,1968.76 2011.84,1996.12 1993.72,2022.00
             1985.46,2033.80 1976.72,2045.35 1967.00,2056.00
             1964.60,2058.63 1959.06,2065.74 1956.04,2066.75
             1951.72,2068.20 1945.43,2057.99 1942.87,2055.00
             1938.70,2050.13 1931.38,2041.73 1928.95,2036.00
             1925.41,2027.63 1926.11,2014.08 1926.00,2005.00
             1925.77,1986.19 1911.67,1990.58 1896.00,1979.37
             1884.47,1971.11 1866.90,1948.32 1858.86,1936.00
             1840.04,1907.17 1831.47,1885.56 1817.70,1855.00
             1817.70,1855.00 1787.69,1788.00 1787.69,1788.00
             1787.69,1788.00 1773.78,1759.00 1773.78,1759.00
             1773.78,1759.00 1763.69,1738.00 1763.69,1738.00
             1763.69,1738.00 1747.00,1706.00 1747.00,1706.00
             1777.48,1684.17 1765.57,1648.65 1776.08,1618.00
             1780.46,1605.22 1789.52,1593.54 1797.79,1583.00
             1797.79,1583.00 1827.00,1544.00 1827.00,1544.00 Z" />
  <path id="Liliw"
        fill="none" stroke="black" stroke-width="1"
        d="M 1612.00,1590.00
           C 1612.00,1590.00 1636.00,1597.13 1636.00,1597.13
             1643.06,1598.89 1649.69,1599.49 1654.15,1606.02
             1659.71,1614.16 1654.73,1619.67 1656.43,1626.00
             1657.40,1629.61 1660.23,1632.23 1663.00,1634.54
             1685.15,1652.95 1708.47,1658.28 1727.74,1682.00
             1732.17,1687.45 1740.72,1699.92 1744.29,1706.00
             1744.29,1706.00 1750.37,1718.00 1750.37,1718.00
             1750.37,1718.00 1771.78,1759.00 1771.78,1759.00
             1771.78,1759.00 1805.14,1831.00 1805.14,1831.00
             1818.18,1860.30 1830.13,1889.99 1845.86,1918.00
             1858.82,1941.08 1871.97,1958.52 1891.00,1976.98
             1896.95,1982.76 1903.49,1985.82 1911.00,1989.14
             1914.48,1990.68 1919.74,1992.05 1921.91,1995.22
             1924.98,1999.71 1923.94,2012.27 1924.00,2018.00
             1924.22,2036.86 1930.09,2042.24 1941.73,2056.00
             1945.44,2060.39 1948.58,2065.31 1953.00,2069.00
             1950.45,2074.34 1945.42,2077.90 1941.00,2081.72
             1933.19,2088.47 1919.08,2099.57 1910.00,2104.00
             1905.94,2098.46 1900.21,2094.81 1895.00,2090.41
             1889.76,2085.99 1882.80,2079.05 1878.09,2074.00
             1878.09,2074.00 1838.00,2027.21 1838.00,2027.21
             1830.18,2020.58 1818.90,2021.29 1811.61,2013.79
             1811.61,2013.79 1778.12,1970.00 1778.12,1970.00
             1753.10,1936.01 1729.93,1900.33 1710.22,1863.00
             1710.22,1863.00 1683.15,1806.00 1683.15,1806.00
             1679.35,1797.15 1673.12,1784.47 1673.00,1775.00
             1672.94,1769.66 1674.23,1759.22 1670.69,1755.21
             1664.65,1748.39 1652.33,1750.06 1649.30,1738.42
             1645.56,1724.03 1652.83,1709.38 1653.00,1695.00
             1653.07,1688.38 1652.63,1685.47 1651.39,1679.00
             1650.46,1674.15 1648.27,1662.77 1643.87,1660.31
             1641.19,1658.82 1637.01,1659.00 1634.00,1659.00
             1634.00,1659.00 1611.00,1658.00 1611.00,1658.00
             1611.00,1658.00 1593.00,1658.00 1593.00,1658.00
             1590.50,1657.99 1587.30,1658.19 1585.05,1656.98
             1578.09,1653.22 1579.87,1643.16 1581.72,1637.00
             1584.90,1626.41 1593.57,1612.65 1600.45,1604.00
             1600.45,1604.00 1612.00,1590.00 1612.00,1590.00 Z" />
  <path id="Alaminos"
        fill="none" stroke="black" stroke-width="1"
        d="M 1048.96,1985.00
           C 1055.87,1986.40 1061.37,1991.34 1067.00,1995.28
             1067.00,1995.28 1094.00,2013.33 1094.00,2013.33
             1096.99,2015.33 1106.52,2020.66 1106.99,2024.09
             1107.30,2026.41 1104.77,2030.02 1103.60,2032.00
             1103.60,2032.00 1094.26,2049.00 1094.26,2049.00
             1084.41,2069.33 1074.07,2101.54 1100.00,2114.62
             1105.15,2117.22 1111.33,2118.52 1117.00,2119.41
             1125.61,2120.76 1134.30,2121.00 1143.00,2121.00
             1143.00,2145.97 1144.27,2171.22 1141.00,2196.00
             1141.00,2196.00 1099.00,2196.00 1099.00,2196.00
             1099.00,2196.00 1099.00,2267.00 1099.00,2267.00
             1098.99,2276.45 1097.67,2278.20 1095.65,2287.00
             1094.06,2293.92 1091.87,2307.57 1088.06,2313.00
             1076.74,2329.12 1046.85,2354.70 1031.00,2367.92
             1031.00,2367.92 1002.51,2392.04 1002.51,2392.04
             998.89,2396.94 995.06,2416.58 995.00,2423.00
             985.82,2423.03 976.88,2425.44 968.00,2427.63
             964.55,2428.47 957.74,2430.49 954.46,2429.27
             949.87,2427.56 943.03,2413.64 940.19,2409.00
             940.19,2409.00 905.15,2352.00 905.15,2352.00
             885.10,2316.85 868.31,2277.33 858.47,2238.00
             851.69,2210.85 847.86,2181.83 845.17,2154.00
             845.17,2154.00 841.91,2108.00 841.91,2108.00
             841.91,2108.00 840.00,2078.00 840.00,2078.00
             840.00,2078.00 837.00,2038.00 837.00,2038.00
             837.00,2038.00 856.00,2039.00 856.00,2039.00
             859.78,2039.02 864.41,2038.72 868.00,2039.80
             873.91,2041.57 887.87,2051.37 893.00,2055.45
             906.48,2066.17 927.45,2087.94 943.00,2092.78
             946.76,2093.95 950.10,2094.08 954.00,2093.99
             962.13,2093.79 970.36,2090.05 975.79,2083.96
             979.40,2079.91 979.72,2076.45 983.21,2074.70
             989.67,2071.46 1001.46,2074.71 1009.00,2070.84
             1015.39,2067.57 1029.98,2051.80 1036.00,2046.04
             1039.18,2043.00 1044.92,2039.00 1046.40,2035.00
             1047.29,2032.61 1046.90,2026.25 1047.28,2023.00
             1047.28,2023.00 1048.00,2008.00 1048.00,2008.00
             1048.00,2008.00 1048.96,1997.00 1048.96,1997.00
             1048.96,1997.00 1048.96,1985.00 1048.96,1985.00 Z" />
  <path id="Calauan"
        fill="none" stroke="black" stroke-width="1"
        d="M 1164.00,1562.00
           C 1164.00,1562.00 1192.15,1555.00 1192.15,1555.00
             1191.69,1558.65 1191.48,1561.34 1192.15,1565.00
             1195.29,1578.31 1208.37,1581.05 1220.00,1581.00
             1220.00,1581.00 1234.00,1579.62 1234.00,1579.62
             1242.00,1578.97 1246.40,1587.17 1250.33,1593.00
             1250.33,1593.00 1267.72,1619.00 1267.72,1619.00
             1270.65,1623.16 1275.41,1629.46 1280.00,1631.69
             1284.78,1634.01 1292.07,1631.96 1297.00,1630.57
             1308.51,1627.32 1323.52,1619.27 1335.00,1619.01
             1344.22,1618.81 1349.07,1622.49 1354.46,1630.00
             1354.46,1630.00 1358.29,1636.00 1358.29,1636.00
             1358.29,1636.00 1368.87,1648.00 1368.87,1648.00
             1387.25,1669.38 1410.26,1703.35 1424.28,1728.00
             1428.13,1734.77 1440.99,1757.54 1442.14,1763.96
             1442.57,1765.17 1442.68,1766.22 1442.14,1767.30
             1440.36,1769.74 1428.27,1773.24 1425.00,1774.33
             1425.00,1774.33 1387.00,1787.00 1387.00,1787.00
             1382.04,1788.66 1368.86,1793.00 1365.00,1795.58
             1362.35,1797.35 1354.71,1805.27 1352.00,1808.00
             1352.00,1808.00 1342.92,1818.00 1342.92,1818.00
             1331.66,1831.54 1322.79,1844.91 1323.00,1863.00
             1323.04,1865.77 1323.06,1868.45 1324.31,1871.00
             1325.84,1874.09 1328.40,1875.89 1331.00,1878.00
             1323.95,1881.90 1312.10,1885.97 1304.00,1885.97
             1293.74,1885.97 1275.68,1876.29 1273.16,1891.00
             1272.99,1892.91 1272.96,1896.03 1273.16,1898.00
             1273.32,1908.44 1279.42,1906.63 1279.96,1916.00
             1280.13,1919.03 1279.79,1922.03 1279.19,1925.00
             1274.94,1946.27 1258.05,1945.00 1241.00,1945.00
             1233.85,1945.00 1225.66,1945.60 1219.00,1942.64
             1206.60,1937.13 1211.66,1928.19 1198.00,1928.00
             1198.00,1928.00 1187.00,1928.00 1187.00,1928.00
             1184.44,1928.00 1181.44,1927.88 1179.00,1928.70
             1173.17,1930.67 1160.71,1943.92 1156.67,1949.00
             1156.67,1949.00 1123.00,2002.00 1123.00,2002.00
             1119.78,2006.81 1112.91,2017.58 1109.00,2021.00
             1109.00,2021.00 1069.00,1993.97 1069.00,1993.97
             1061.53,1988.83 1056.41,1983.24 1046.96,1983.00
             1046.96,1983.00 1046.96,1996.00 1046.96,1996.00
             1046.96,1996.00 1046.00,2007.00 1046.00,2007.00
             1046.00,2007.00 1045.28,2022.00 1045.28,2022.00
             1044.90,2025.23 1045.28,2031.63 1044.40,2034.00
             1043.03,2037.67 1037.02,2042.07 1034.00,2045.01
             1028.31,2050.57 1014.17,2065.68 1008.00,2068.84
             1000.43,2072.72 989.04,2069.43 982.10,2072.70
             977.82,2074.72 977.69,2078.68 973.79,2082.91
             969.06,2088.03 960.96,2091.66 954.00,2091.96
             939.91,2092.57 928.07,2082.68 918.00,2074.00
             902.41,2060.56 890.44,2048.86 872.00,2039.00
             872.00,2039.00 894.69,1993.00 894.69,1993.00
             904.17,1975.48 914.58,1953.88 929.00,1940.04
             938.19,1931.22 950.13,1926.34 961.00,1919.99
             961.00,1919.99 977.00,1909.97 977.00,1909.97
             977.00,1909.97 986.00,1903.47 986.00,1903.47
             996.17,1898.11 1010.25,1910.51 1021.00,1903.47
             1029.16,1897.82 1030.73,1886.81 1033.67,1878.00
             1034.49,1875.53 1035.87,1870.43 1037.70,1868.74
             1040.92,1865.74 1051.80,1867.24 1057.00,1864.15
             1059.66,1862.56 1064.29,1857.77 1067.00,1855.42
             1067.00,1855.42 1093.00,1831.09 1093.00,1831.09
             1093.00,1831.09 1151.00,1777.09 1151.00,1777.09
             1151.00,1777.09 1167.00,1762.28 1167.00,1762.28
             1170.20,1759.46 1176.12,1754.72 1177.98,1751.00
             1179.22,1748.52 1179.03,1743.98 1179.42,1741.00
             1179.42,1741.00 1181.06,1712.00 1181.06,1712.00
             1181.04,1708.71 1182.04,1703.77 1181.06,1701.00
             1179.39,1695.78 1174.49,1693.51 1176.75,1684.00
             1177.40,1681.25 1179.49,1673.55 1180.90,1671.42
             1184.47,1666.07 1191.82,1663.45 1192.00,1649.00
             1192.25,1627.94 1181.16,1604.21 1173.00,1585.00
             1170.33,1578.71 1165.17,1568.25 1164.00,1562.00 Z" />
  <path id="Bay"
        fill="none" stroke="black" stroke-width="1"
        d="M 1161.00,1563.00
           C 1161.00,1563.00 1172.28,1588.00 1172.28,1588.00
             1178.64,1602.76 1189.81,1629.30 1190.00,1645.00
             1190.07,1650.94 1190.20,1655.54 1187.33,1661.00
             1184.46,1666.45 1180.98,1667.97 1178.93,1671.17
             1177.50,1673.40 1174.45,1684.22 1174.20,1687.00
             1173.49,1694.80 1178.98,1697.56 1179.56,1703.00
             1179.56,1703.00 1178.00,1730.00 1178.00,1730.00
             1177.96,1733.88 1177.41,1748.13 1175.98,1751.00
             1174.16,1754.63 1169.06,1758.40 1166.00,1761.17
             1166.00,1761.17 1148.00,1778.00 1148.00,1778.00
             1148.00,1778.00 1093.00,1829.09 1093.00,1829.09
             1093.00,1829.09 1058.00,1861.49 1058.00,1861.49
             1051.98,1865.70 1041.67,1863.42 1037.22,1866.74
             1034.42,1868.83 1033.40,1872.82 1032.33,1876.00
             1029.87,1883.34 1027.13,1896.97 1020.96,1901.30
             1011.67,1907.82 997.89,1898.21 989.00,1900.43
             985.60,1901.28 974.16,1909.98 970.00,1912.58
             959.32,1919.23 938.95,1929.09 931.00,1936.17
             917.39,1948.31 908.91,1963.29 900.14,1979.00
             900.14,1979.00 870.00,2038.00 870.00,2038.00
             870.00,2038.00 837.00,2036.00 837.00,2036.00
             836.99,2019.58 831.29,1974.55 827.79,1958.00
             827.79,1958.00 820.00,1926.00 820.00,1926.00
             825.42,1924.71 830.20,1921.60 835.00,1918.85
             843.84,1913.80 858.60,1904.43 864.03,1896.00
             869.16,1888.04 869.59,1877.63 877.30,1870.52
             877.30,1870.52 899.00,1856.49 899.00,1856.49
             914.76,1845.97 927.63,1834.13 932.00,1815.00
             932.00,1815.00 975.00,1815.00 975.00,1815.00
             977.62,1815.00 980.48,1815.11 983.00,1814.35
             990.77,1812.03 1011.73,1796.75 1018.00,1790.91
             1027.63,1781.96 1036.71,1770.81 1042.63,1759.00
             1059.94,1724.46 1055.77,1680.85 1049.59,1644.00
             1048.74,1638.97 1048.50,1635.56 1045.90,1631.00
             1043.40,1626.63 1036.45,1617.66 1035.85,1613.00
             1035.18,1607.83 1039.47,1607.18 1040.00,1598.00
             1040.00,1598.00 1056.00,1599.00 1056.00,1599.00
             1072.66,1598.81 1097.63,1585.65 1114.00,1579.42
             1114.00,1579.42 1161.00,1563.00 1161.00,1563.00 Z" />
  <path id="Los Baos"
        fill="none" stroke="black" stroke-width="1"
        d="M 679.00,1822.96
           C 680.77,1816.77 685.44,1812.80 689.58,1808.00
             689.58,1808.00 712.72,1782.00 712.72,1782.00
             712.72,1782.00 770.00,1715.00 770.00,1715.00
             775.68,1707.78 793.08,1684.24 796.76,1677.00
             796.76,1677.00 805.40,1640.00 805.40,1640.00
             805.99,1637.05 807.40,1627.69 809.58,1626.02
             811.18,1624.80 821.66,1623.96 824.00,1624.09
             843.59,1625.21 848.00,1638.95 863.00,1637.90
             873.40,1637.18 881.24,1628.82 888.00,1625.95
             888.00,1625.95 912.00,1620.14 912.00,1620.14
             914.99,1619.07 917.47,1618.00 919.82,1615.78
             925.60,1610.30 936.03,1587.37 940.25,1579.00
             942.67,1574.18 947.38,1563.28 954.00,1564.70
             956.61,1565.26 964.28,1570.17 967.00,1571.80
             967.00,1571.80 996.00,1589.18 996.00,1589.18
             1000.44,1591.27 1007.89,1591.63 1013.00,1592.42
             1013.00,1592.42 1038.00,1597.00 1038.00,1597.00
             1037.46,1606.35 1032.82,1607.25 1033.49,1613.00
             1034.43,1621.04 1044.74,1628.76 1046.92,1641.00
             1056.45,1694.66 1060.09,1752.68 1014.00,1791.56
             1007.96,1796.65 989.04,1810.24 982.00,1812.35
             979.48,1813.11 976.62,1813.00 974.00,1813.00
             974.00,1813.00 930.00,1813.00 930.00,1813.00
             927.00,1832.42 911.67,1845.72 896.00,1855.78
             891.10,1858.93 878.71,1865.99 875.30,1869.32
             867.54,1876.91 867.07,1887.19 862.03,1895.00
             856.68,1903.30 841.72,1912.43 833.00,1917.42
             828.50,1920.00 824.07,1922.79 819.00,1924.00
             809.86,1897.65 791.42,1861.87 771.96,1842.01
             761.81,1831.65 748.95,1822.02 734.00,1822.00
             734.00,1822.00 708.00,1822.00 708.00,1822.00
             708.00,1822.00 696.00,1822.96 696.00,1822.96
             696.00,1822.96 679.00,1822.96 679.00,1822.96 Z" />
  <path id="Calamba"
        fill="none" stroke="black" stroke-width="1"
        d="M 677.00,1822.00
           C 663.96,1820.82 648.53,1807.18 635.00,1802.75
             622.21,1798.56 605.36,1806.56 593.00,1804.38
             586.81,1803.30 582.05,1801.26 577.00,1797.49
             572.17,1793.88 565.69,1787.35 560.00,1785.65
             547.19,1781.80 539.10,1798.47 524.00,1791.69
             524.00,1791.69 465.00,1756.80 465.00,1756.80
             458.40,1752.84 441.83,1742.45 435.00,1741.33
             432.38,1740.90 424.15,1741.85 421.00,1742.17
             360.27,1748.26 322.08,1786.43 274.00,1818.33
             255.85,1830.38 238.66,1839.11 218.00,1846.00
             213.69,1847.44 198.96,1852.10 195.09,1851.78
             191.09,1851.45 189.00,1846.99 187.00,1844.00
             187.00,1844.00 172.67,1823.00 172.67,1823.00
             172.67,1823.00 137.33,1771.00 137.33,1771.00
             134.89,1767.34 128.32,1756.88 124.91,1755.02
             122.84,1753.90 120.29,1754.02 118.00,1754.00
             118.00,1754.00 106.00,1754.00 106.00,1754.00
             95.00,1753.85 92.88,1747.88 94.44,1738.00
             96.35,1725.85 102.79,1712.91 108.25,1702.00
             108.25,1702.00 117.30,1683.00 117.30,1683.00
             117.30,1683.00 123.15,1662.00 123.15,1662.00
             126.51,1649.60 130.91,1637.66 136.31,1626.00
             146.22,1604.58 161.74,1586.69 177.00,1569.00
             177.00,1569.00 187.17,1557.05 187.17,1557.05
             192.50,1551.59 206.36,1548.65 214.00,1546.00
             229.12,1540.74 243.30,1534.07 257.00,1525.80
             257.00,1525.80 332.00,1477.86 332.00,1477.86
             361.33,1461.59 396.15,1447.95 428.00,1437.33
             439.15,1433.62 472.19,1422.27 482.00,1421.30
             493.37,1420.18 517.82,1426.49 528.00,1431.89
             528.00,1431.89 543.00,1441.19 543.00,1441.19
             545.21,1442.53 548.31,1444.69 551.00,1444.18
             553.43,1443.73 558.66,1439.10 561.00,1437.43
             566.89,1433.20 573.31,1429.79 580.00,1427.01
             603.66,1417.17 629.05,1412.17 654.00,1406.79
             654.00,1406.79 686.00,1399.73 686.00,1399.73
             688.99,1399.77 690.57,1401.19 694.00,1401.78
             706.50,1403.95 717.24,1401.41 728.00,1410.33
             743.98,1423.56 746.78,1446.77 749.58,1466.00
             750.37,1471.40 753.57,1481.56 752.60,1486.00
             750.99,1493.41 742.72,1497.47 739.23,1504.00
             736.68,1509.55 738.99,1518.58 739.23,1525.00
             739.02,1535.24 739.11,1544.70 731.79,1552.96
             724.82,1560.83 711.49,1567.05 710.25,1579.00
             709.73,1583.98 712.72,1589.06 715.44,1593.00
             720.79,1600.77 728.15,1611.29 739.00,1609.79
             746.16,1608.79 754.47,1600.90 762.00,1603.86
             771.02,1607.40 778.97,1623.16 784.04,1625.91
             788.88,1628.37 800.19,1626.05 806.00,1625.91
             806.00,1625.91 799.12,1659.00 799.12,1659.00
             798.18,1663.09 796.73,1671.71 795.25,1675.00
             793.01,1679.99 778.85,1699.69 774.87,1705.00
             759.82,1725.11 743.56,1744.27 726.84,1763.00
             726.84,1763.00 692.85,1801.00 692.85,1801.00
             687.94,1806.57 678.96,1815.13 677.00,1822.00 Z" />
  <path id="Cabuyao"
        fill="none" stroke="black" stroke-width="1"
        d="M 194.00,1550.00
           C 194.00,1550.00 219.40,1513.00 219.40,1513.00
             219.40,1513.00 231.63,1490.70 231.63,1490.70
             233.58,1488.89 241.05,1486.43 244.00,1485.14
             244.00,1485.14 267.00,1473.70 267.00,1473.70
             267.00,1473.70 326.00,1434.34 326.00,1434.34
             326.00,1434.34 358.99,1413.90 358.99,1413.90
             375.97,1398.11 382.09,1359.02 393.54,1341.00
             403.63,1325.14 423.02,1304.82 437.00,1292.17
             448.87,1281.43 461.09,1271.05 471.72,1259.00
             489.65,1238.65 499.92,1224.58 509.58,1199.00
             509.58,1199.00 519.58,1169.00 519.58,1169.00
             520.38,1166.26 522.53,1157.30 524.09,1155.57
             525.79,1153.68 528.69,1154.04 531.00,1154.00
             531.00,1154.00 544.00,1153.00 544.00,1153.00
             547.27,1152.97 551.87,1152.43 554.07,1155.31
             554.07,1155.31 561.69,1178.00 561.69,1178.00
             566.61,1191.80 572.14,1203.09 580.74,1215.00
             592.39,1231.11 612.71,1247.10 626.96,1262.00
             641.47,1277.17 661.83,1306.10 671.19,1325.00
             674.85,1332.40 675.23,1340.94 676.28,1349.00
             678.43,1365.49 679.46,1381.49 686.00,1397.00
             654.39,1406.16 621.12,1409.62 590.00,1420.69
             581.28,1423.79 570.68,1428.26 563.00,1433.36
             560.18,1435.23 552.75,1441.63 550.00,1441.71
             546.96,1441.80 538.86,1435.87 536.00,1434.05
             527.59,1428.73 519.67,1425.32 510.00,1422.89
             503.89,1421.36 487.90,1418.67 482.00,1419.17
             472.03,1420.02 442.00,1430.33 431.00,1434.00
             391.30,1447.23 351.97,1462.87 316.00,1484.45
             277.29,1507.67 256.80,1528.70 212.00,1544.34
             212.00,1544.34 194.00,1550.00 194.00,1550.00 Z" />
  <path id="Santa Rosa"
        fill="none" stroke="black" stroke-width="1"
        d="M 234.00,1335.00
           C 235.41,1327.50 237.16,1319.99 240.31,1313.00
             257.14,1275.69 305.86,1247.77 338.00,1223.33
             349.21,1214.81 358.19,1208.95 367.71,1198.00
             382.29,1181.24 378.95,1176.16 385.03,1157.00
             389.45,1143.06 394.17,1135.50 394.00,1120.00
             393.88,1109.50 389.95,1099.74 384.30,1091.00
             382.41,1088.08 375.12,1079.66 375.18,1077.02
             375.26,1074.06 378.79,1072.07 381.00,1070.73
             381.00,1070.73 397.00,1061.47 397.00,1061.47
             405.50,1054.88 405.20,1050.67 406.17,1041.00
             406.17,1041.00 407.00,1032.00 407.00,1032.00
             407.06,1026.26 405.84,1009.41 409.72,1005.60
             412.47,1002.90 418.57,1004.43 422.00,1004.85
             435.85,1006.51 445.13,1011.65 456.00,1020.21
             481.95,1040.65 500.20,1076.59 509.14,1108.00
             509.14,1108.00 516.20,1138.00 516.20,1138.00
             517.42,1144.36 516.77,1148.55 522.00,1153.00
             512.49,1182.06 506.75,1209.16 488.56,1235.00
             474.29,1255.27 455.65,1272.76 437.68,1289.66
             437.68,1289.66 428.00,1298.09 428.00,1298.09
             417.72,1307.66 408.04,1317.91 399.42,1329.00
             399.42,1329.00 390.34,1342.00 390.34,1342.00
             380.89,1358.53 374.69,1389.81 362.22,1407.00
             355.43,1416.35 335.61,1425.41 325.00,1432.34
             325.00,1432.34 263.00,1473.30 263.00,1473.30
             254.43,1478.01 241.40,1484.80 232.00,1487.00
             237.10,1471.40 238.94,1455.17 241.27,1439.00
             244.53,1416.41 247.26,1393.85 247.00,1371.00
             246.85,1358.71 244.46,1342.68 234.00,1335.00 Z" />
  <path id="Bian"
        fill="none" stroke="black" stroke-width="1"
        d="M 136.00,1019.00
           C 140.35,1013.20 159.46,996.74 166.00,990.83
             173.98,983.63 175.69,979.02 187.00,979.00
             187.00,979.00 258.00,979.00 258.00,979.00
             260.09,979.00 263.02,979.11 264.96,978.42
             269.00,976.96 281.51,964.49 285.00,961.00
             285.00,961.00 312.00,935.00 312.00,935.00
             312.00,935.00 327.42,919.98 327.42,919.98
             329.81,918.54 335.95,918.05 339.00,917.33
             343.79,916.19 354.79,910.44 358.77,912.35
             361.78,913.78 362.20,918.09 362.80,921.00
             364.02,926.95 366.30,935.35 368.42,941.00
             375.76,960.51 381.76,970.50 394.35,987.00
             398.97,993.05 400.64,997.34 407.00,1002.00
             407.00,1002.00 405.09,1013.00 405.09,1013.00
             405.09,1013.00 404.28,1039.00 404.28,1039.00
             403.67,1044.14 404.03,1049.32 401.15,1054.00
             397.12,1060.56 387.56,1064.32 381.00,1068.15
             378.15,1069.82 373.42,1072.55 372.60,1076.00
             371.73,1079.71 378.77,1086.85 380.96,1090.00
             386.94,1098.61 391.74,1109.39 391.99,1120.00
             392.27,1132.49 387.69,1142.53 383.69,1154.00
             380.40,1163.47 378.28,1179.30 373.44,1187.00
             363.88,1202.21 352.52,1209.10 339.00,1219.50
             339.00,1219.50 323.99,1231.29 323.99,1231.29
             323.99,1231.29 278.00,1264.92 278.00,1264.92
             264.09,1276.49 250.94,1289.14 241.87,1305.00
             238.50,1310.89 236.27,1316.48 234.43,1323.00
             233.78,1325.30 233.02,1330.60 231.27,1332.01
             229.97,1333.05 225.07,1333.37 223.00,1333.93
             216.93,1335.56 204.79,1343.09 200.15,1335.85
             196.38,1330.57 198.95,1319.81 200.15,1314.00
             204.71,1296.37 212.23,1278.51 219.77,1262.00
             232.05,1235.10 251.57,1194.45 267.05,1170.00
             267.05,1170.00 323.33,1090.00 323.33,1090.00
             332.34,1076.42 342.75,1057.40 348.00,1042.00
             349.23,1038.38 353.27,1028.42 351.81,1025.11
             350.02,1021.07 342.92,1020.07 339.00,1019.44
             330.26,1018.03 310.01,1016.88 301.00,1017.00
             291.14,1017.14 288.19,1022.58 282.86,1030.00
             280.11,1033.82 277.16,1039.16 272.00,1039.68
             267.71,1040.11 260.86,1036.18 257.00,1034.25
             249.56,1030.52 229.83,1019.10 223.00,1017.83
             219.16,1016.91 216.77,1017.78 213.00,1017.83
             213.00,1017.83 174.00,1021.92 174.00,1021.92
             174.00,1021.92 162.00,1021.92 162.00,1021.92
             162.00,1021.92 136.00,1019.00 136.00,1019.00 Z" />
  <path id="San Pedro"
        fill="none" stroke="black" stroke-width="1"
        d="M 24.00,1100.00
           C 17.72,1080.68 22.82,1065.53 29.00,1047.00
             29.00,1047.00 48.60,994.00 48.60,994.00
             49.94,990.65 52.01,986.64 51.27,983.00
             50.41,978.76 46.26,974.34 46.27,969.00
             46.29,961.44 53.24,945.00 55.58,937.00
             56.57,933.59 59.24,922.42 60.85,920.22
             62.98,917.30 72.36,913.57 76.00,912.00
             76.00,912.00 110.00,896.04 110.00,896.04
             118.18,890.70 124.12,881.17 131.04,875.34
             137.73,869.69 140.94,872.42 145.96,868.57
             151.33,864.46 153.61,856.58 162.01,848.00
             164.58,845.38 167.73,842.13 171.00,840.45
             174.52,838.64 176.94,839.15 181.00,836.35
             186.41,832.62 192.87,823.64 199.00,821.52
             208.61,818.20 210.18,836.43 219.00,834.42
             223.53,833.40 230.09,827.71 234.00,825.00
             240.99,830.56 247.93,833.99 256.00,837.69
             259.32,839.22 265.09,841.02 266.98,844.21
             268.24,846.35 268.04,850.52 267.99,853.00
             267.77,861.98 262.18,879.52 265.15,887.00
             268.00,894.19 275.60,895.13 282.00,897.87
             295.29,903.58 312.04,914.96 325.00,918.00
             325.00,918.00 282.00,961.00 282.00,961.00
             277.83,965.17 268.43,974.88 263.00,976.43
             260.71,977.09 257.41,977.00 255.00,977.00
             255.00,977.00 186.00,977.00 186.00,977.00
             174.69,977.02 172.98,981.63 165.00,988.83
             165.00,988.83 136.00,1015.03 136.00,1015.03
             134.26,1016.53 133.08,1017.64 131.00,1018.70
             131.00,1018.70 99.00,1030.46 99.00,1030.46
             91.72,1033.54 78.15,1043.94 72.00,1049.29
             61.20,1058.68 51.75,1069.61 43.13,1081.00
             37.82,1088.01 32.72,1097.03 24.00,1100.00 Z" />
</svg>
