<?xml version="1.0" encoding="UTF-8" standalone="no"?>
<!DOCTYPE svg PUBLIC "-//W3C//DTD SVG 20010904//EN"
              "http://www.w3.org/TR/2001/REC-SVG-20010904/DTD/svg10.dtd">

<svg xmlns="http://www.w3.org/2000/svg"
     width="741.799mm" height="741.799mm"
     viewBox="0 0 2103 2103">
  <path id="Buenavista"
        fill="none" stroke="black" stroke-width="1"
        d="M 1002.00,1350.98
           C 1004.27,1350.34 1005.32,1349.77 1007.68,1350.98
             1010.55,1352.36 1021.24,1366.63 1024.00,1370.08
             1024.00,1370.08 1054.29,1408.01 1054.29,1408.01
             1065.52,1421.90 1071.59,1427.68 1079.75,1444.00
             1079.75,1444.00 1155.26,1599.00 1155.26,1599.00
             1155.26,1599.00 1194.26,1679.00 1194.26,1679.00
             1194.26,1679.00 1211.14,1713.00 1211.14,1713.00
             1211.14,1713.00 1227.75,1747.00 1227.75,1747.00
             1227.75,1747.00 1241.25,1775.00 1241.25,1775.00
             1243.70,1779.90 1252.15,1794.00 1249.89,1798.91
             1244.96,1809.62 1225.68,1807.11 1216.00,1807.00
             1216.00,1807.00 1176.00,1802.08 1176.00,1802.08
             1144.95,1796.94 1111.00,1787.59 1082.00,1775.42
             1061.10,1766.65 1052.53,1764.00 1035.00,1748.17
             1035.00,1748.17 1028.18,1741.96 1028.18,1741.96
             1028.18,1741.96 1010.58,1717.00 1010.58,1717.00
             1010.58,1717.00 984.05,1677.00 984.05,1677.00
             984.05,1677.00 966.66,1650.00 966.66,1650.00
             962.75,1644.80 958.59,1639.61 953.96,1635.03
             953.96,1635.03 946.09,1627.91 946.09,1627.91
             941.86,1623.60 942.16,1622.16 939.32,1618.00
             936.91,1614.47 928.45,1604.47 924.91,1602.56
             912.79,1596.02 894.56,1598.02 881.00,1598.00
             874.46,1597.99 865.88,1596.72 860.00,1593.74
             856.62,1592.03 849.34,1585.87 846.00,1583.20
             837.44,1576.35 828.80,1568.78 821.17,1560.91
             821.17,1560.91 813.00,1552.00 813.00,1552.00
             813.00,1552.00 798.06,1537.00 798.06,1537.00
             796.27,1535.03 794.14,1532.91 795.17,1530.01
             796.22,1527.04 807.94,1517.76 811.00,1515.13
             811.00,1515.13 851.00,1480.58 851.00,1480.58
             851.00,1480.58 953.00,1392.73 953.00,1392.73
             953.00,1392.73 983.00,1366.87 983.00,1366.87
             988.19,1362.40 996.71,1354.42 1002.00,1350.98 Z" />
  <path id="Gasan"
        fill="none" stroke="black" stroke-width="1"
        d="M 469.00,1130.00
           C 485.75,1130.00 539.44,1138.38 560.00,1140.85
             560.00,1140.85 747.00,1164.85 747.00,1164.85
             747.00,1164.85 838.00,1176.58 838.00,1176.58
             838.00,1176.58 862.00,1179.58 862.00,1179.58
             864.37,1179.92 870.83,1180.63 872.68,1181.53
             875.29,1182.81 885.07,1196.17 887.67,1199.41
             887.67,1199.41 923.00,1243.59 923.00,1243.59
             923.00,1243.59 981.00,1316.00 981.00,1316.00
             981.00,1316.00 994.67,1333.41 994.67,1333.41
             996.94,1336.31 999.56,1339.00 998.67,1343.01
             997.80,1346.95 993.90,1349.63 991.00,1352.13
             991.00,1352.13 970.00,1370.27 970.00,1370.27
             970.00,1370.27 889.00,1440.13 889.00,1440.13
             889.00,1440.13 817.00,1502.13 817.00,1502.13
             817.00,1502.13 798.00,1518.58 798.00,1518.58
             795.92,1520.36 791.50,1524.70 789.00,1525.18
             784.98,1525.94 783.05,1521.57 773.00,1518.75
             763.35,1516.04 750.07,1515.89 740.00,1516.00
             740.00,1516.00 711.00,1519.00 711.00,1519.00
             708.74,1519.02 705.09,1519.11 703.00,1518.49
             697.19,1516.76 680.51,1500.89 673.00,1496.75
             661.09,1490.19 641.83,1488.59 632.30,1478.82
             621.69,1467.94 605.75,1434.84 599.14,1420.00
             599.14,1420.00 585.26,1391.00 585.26,1391.00
             573.50,1366.71 563.61,1344.86 545.72,1324.00
             525.39,1300.31 507.17,1292.93 484.00,1275.63
             476.43,1269.97 462.42,1261.92 459.62,1253.00
             459.62,1253.00 457.48,1240.00 457.48,1240.00
             456.17,1233.94 453.12,1229.55 453.89,1223.00
             456.35,1202.24 469.97,1185.14 470.00,1164.00
             470.00,1164.00 469.00,1130.00 469.00,1130.00 Z
           M 577.00,1607.00
           C 577.00,1607.00 596.02,1605.07 596.02,1605.07
             596.02,1605.07 620.00,1607.00 620.00,1607.00
             620.00,1607.00 620.00,1609.00 620.00,1609.00
             620.00,1609.00 625.00,1609.00 625.00,1609.00
             625.00,1609.00 625.00,1611.00 625.00,1611.00
             625.00,1611.00 627.00,1612.00 627.00,1612.00
             627.00,1612.00 630.00,1611.00 630.00,1611.00
             630.00,1611.00 632.00,1612.00 632.00,1612.00
             632.00,1612.00 637.00,1617.00 637.00,1617.00
             637.00,1617.00 642.00,1623.00 642.00,1623.00
             642.00,1623.00 644.75,1630.83 644.75,1630.83
             644.75,1630.83 644.00,1647.00 644.00,1647.00
             644.00,1647.00 640.00,1652.00 640.00,1652.00
             640.00,1652.00 638.00,1653.00 638.00,1653.00
             638.00,1653.00 638.00,1654.00 638.00,1654.00
             638.00,1654.00 636.00,1653.00 636.00,1653.00
             636.00,1653.00 636.00,1655.00 636.00,1655.00
             636.00,1655.00 634.00,1654.00 634.00,1654.00
             634.00,1654.00 634.00,1656.00 634.00,1656.00
             634.00,1656.00 632.00,1655.00 632.00,1655.00
             632.00,1655.00 632.00,1657.00 632.00,1657.00
             632.00,1657.00 619.00,1656.00 619.00,1656.00
             619.00,1656.00 616.00,1654.00 616.00,1654.00
             616.00,1654.00 614.00,1653.00 614.00,1653.00
             614.00,1653.00 610.00,1650.00 610.00,1650.00
             610.00,1650.00 606.00,1647.00 606.00,1647.00
             606.00,1647.00 601.00,1643.00 601.00,1643.00
             596.26,1636.35 592.46,1638.14 585.21,1636.31
             581.13,1635.27 576.09,1633.18 572.00,1633.00
             572.00,1633.00 571.00,1632.00 571.00,1632.00
             571.00,1632.00 569.00,1629.00 569.00,1629.00
             569.00,1629.00 566.00,1616.00 566.00,1616.00
             569.70,1614.94 570.81,1613.03 573.00,1610.00
             573.00,1610.00 577.00,1607.00 577.00,1607.00 Z
           M 402.00,1687.00
           C 411.78,1681.53 420.96,1681.12 431.87,1682.87
             435.26,1683.42 439.64,1683.33 442.00,1686.00
             442.00,1686.00 448.00,1686.00 448.00,1686.00
             450.29,1689.05 451.20,1690.99 455.00,1692.00
             455.00,1692.00 456.00,1694.00 456.00,1694.00
             456.00,1694.00 457.00,1694.00 457.00,1694.00
             457.00,1694.00 456.00,1696.00 456.00,1696.00
             456.00,1696.00 458.00,1696.00 458.00,1696.00
             458.00,1696.00 457.00,1698.00 457.00,1698.00
             457.00,1698.00 459.00,1698.00 459.00,1698.00
             459.00,1698.00 458.00,1700.00 458.00,1700.00
             458.00,1700.00 460.00,1700.00 460.00,1700.00
             460.00,1700.00 461.00,1702.00 461.00,1702.00
             461.00,1702.00 460.00,1716.00 460.00,1716.00
             460.00,1716.00 458.00,1716.00 458.00,1716.00
             458.00,1716.00 459.00,1718.00 459.00,1718.00
             459.00,1718.00 457.00,1718.00 457.00,1718.00
             457.00,1718.00 458.00,1720.00 458.00,1720.00
             458.00,1720.00 456.00,1720.00 456.00,1720.00
             456.00,1720.00 457.00,1722.00 457.00,1722.00
             457.00,1722.00 456.00,1724.00 456.00,1724.00
             456.00,1724.00 437.50,1729.23 437.50,1729.23
             437.50,1729.23 436.00,1728.00 436.00,1728.00
             436.00,1728.00 433.00,1729.00 433.00,1729.00
             433.00,1729.00 431.00,1726.00 431.00,1726.00
             431.00,1726.00 428.00,1727.00 428.00,1727.00
             428.00,1727.00 423.00,1725.00 423.00,1725.00
             423.00,1725.00 423.00,1723.00 423.00,1723.00
             423.00,1723.00 416.00,1721.00 416.00,1721.00
             413.93,1718.06 413.55,1716.95 410.00,1716.00
             407.93,1713.06 407.55,1711.95 404.00,1711.00
             404.00,1711.00 403.00,1709.00 403.00,1709.00
             403.00,1709.00 402.00,1709.00 402.00,1709.00
             402.00,1709.00 403.00,1707.00 403.00,1707.00
             403.00,1707.00 400.00,1706.00 400.00,1706.00
             400.00,1706.00 398.00,1703.00 398.00,1703.00
             398.00,1703.00 397.00,1693.00 397.00,1693.00
             399.94,1690.93 401.05,1690.55 402.00,1687.00 Z" />
  <path id="Torrijos"
        fill="none" stroke="black" stroke-width="1"
        d="M 1011.00,893.00
           C 1012.94,893.16 1014.17,893.11 1016.00,894.02
             1018.38,895.21 1031.22,907.32 1034.00,909.96
             1034.00,909.96 1065.00,938.09 1065.00,938.09
             1065.00,938.09 1081.00,954.00 1081.00,954.00
             1081.00,954.00 1135.91,1009.00 1135.91,1009.00
             1135.91,1009.00 1182.60,1061.83 1182.60,1061.83
             1182.60,1061.83 1211.35,1094.09 1211.35,1094.09
             1211.35,1094.09 1222.63,1109.00 1222.63,1109.00
             1222.63,1109.00 1265.13,1166.00 1265.13,1166.00
             1265.13,1166.00 1276.36,1181.00 1276.36,1181.00
             1277.89,1183.09 1279.80,1186.38 1282.21,1187.34
             1284.91,1188.55 1289.17,1187.62 1292.00,1187.34
             1292.00,1187.34 1307.00,1186.28 1307.00,1186.28
             1307.00,1186.28 1332.00,1184.26 1332.00,1184.26
             1335.89,1182.76 1339.97,1177.12 1343.01,1174.00
             1351.85,1164.95 1360.78,1155.88 1368.66,1145.99
             1368.66,1145.99 1381.00,1131.58 1381.00,1131.58
             1381.00,1131.58 1411.71,1094.73 1411.71,1094.73
             1411.71,1094.73 1441.18,1059.00 1441.18,1059.00
             1441.18,1059.00 1455.08,1043.96 1455.08,1043.96
             1468.04,1029.11 1484.06,1014.17 1501.00,1004.00
             1504.85,1001.69 1513.05,996.51 1517.00,995.38
             1519.85,994.56 1534.62,992.06 1536.83,992.83
             1539.48,993.74 1547.56,1002.55 1550.00,1005.00
             1557.03,1012.07 1579.82,1039.01 1584.81,1047.00
             1589.87,1055.11 1596.58,1068.05 1605.00,1072.57
             1609.67,1075.08 1614.43,1073.36 1617.79,1074.29
             1621.56,1075.34 1622.26,1079.75 1630.00,1081.63
             1630.00,1081.63 1651.00,1083.96 1651.00,1083.96
             1654.48,1084.11 1658.74,1083.61 1661.99,1084.82
             1665.55,1086.13 1672.20,1092.65 1674.68,1095.58
             1679.59,1101.36 1672.36,1111.86 1673.55,1119.00
             1675.74,1132.06 1691.79,1145.93 1688.58,1159.00
             1687.86,1161.93 1685.98,1164.50 1684.34,1167.00
             1680.11,1173.48 1679.94,1174.20 1672.00,1173.98
             1664.19,1173.77 1656.62,1168.65 1651.00,1168.65
             1648.26,1168.65 1642.81,1170.73 1640.00,1171.67
             1640.00,1171.67 1629.00,1175.67 1629.00,1175.67
             1624.68,1177.89 1610.70,1188.58 1607.30,1192.17
             1597.48,1202.53 1595.98,1214.66 1593.58,1228.00
             1593.58,1228.00 1590.08,1247.00 1590.08,1247.00
             1588.77,1254.83 1587.57,1267.13 1581.89,1272.83
             1577.78,1276.95 1566.34,1284.10 1561.00,1287.42
             1561.00,1287.42 1527.00,1308.42 1527.00,1308.42
             1527.00,1308.42 1476.00,1343.67 1476.00,1343.67
             1476.00,1343.67 1427.00,1378.30 1427.00,1378.30
             1427.00,1378.30 1411.00,1394.00 1411.00,1394.00
             1406.99,1398.02 1398.78,1406.58 1395.63,1411.00
             1384.94,1426.03 1385.73,1449.17 1375.91,1461.00
             1375.91,1461.00 1362.91,1475.83 1362.91,1475.83
             1362.91,1475.83 1350.00,1486.42 1350.00,1486.42
             1341.13,1493.70 1322.30,1509.26 1315.09,1517.00
             1310.30,1522.14 1298.14,1535.65 1296.69,1542.00
             1294.36,1552.17 1307.24,1564.77 1313.43,1572.00
             1319.11,1578.64 1334.95,1593.96 1337.30,1601.00
             1338.41,1604.33 1338.05,1617.71 1338.00,1622.00
             1337.88,1631.49 1330.20,1648.47 1326.68,1658.00
             1312.02,1697.66 1301.54,1715.77 1280.87,1752.00
             1280.87,1752.00 1266.77,1779.00 1266.77,1779.00
             1263.69,1784.24 1261.21,1788.62 1255.00,1790.00
             1255.00,1790.00 1238.25,1754.00 1238.25,1754.00
             1238.25,1754.00 1209.25,1695.00 1209.25,1695.00
             1209.25,1695.00 1183.74,1642.00 1183.74,1642.00
             1183.74,1642.00 1124.74,1521.00 1124.74,1521.00
             1124.74,1521.00 1098.75,1468.00 1098.75,1468.00
             1098.75,1468.00 1082.55,1434.00 1082.55,1434.00
             1082.55,1434.00 1078.58,1409.00 1078.58,1409.00
             1078.58,1409.00 1071.85,1358.00 1071.85,1358.00
             1071.85,1358.00 1053.72,1221.00 1053.72,1221.00
             1053.72,1221.00 1025.72,1009.00 1025.72,1009.00
             1025.72,1009.00 1016.58,940.00 1016.58,940.00
             1016.58,940.00 1011.00,893.00 1011.00,893.00 Z
           M 1582.00,947.00
           C 1582.00,947.00 1590.00,941.60 1590.00,941.60
             1590.00,941.60 1605.00,941.00 1605.00,941.00
             1605.00,941.00 1605.00,943.00 1605.00,943.00
             1605.00,943.00 1610.00,943.00 1610.00,943.00
             1610.00,943.00 1610.00,945.00 1610.00,945.00
             1610.00,945.00 1612.00,944.00 1612.00,944.00
             1612.00,944.00 1614.00,945.00 1614.00,945.00
             1616.07,947.94 1616.45,949.05 1620.00,950.00
             1622.07,952.94 1622.45,954.05 1626.00,955.00
             1628.07,957.94 1628.45,959.05 1632.00,960.00
             1634.07,962.94 1634.45,964.05 1638.00,965.00
             1638.00,965.00 1643.00,969.00 1643.00,969.00
             1643.00,969.00 1648.00,973.00 1648.00,973.00
             1648.00,973.00 1653.00,977.00 1653.00,977.00
             1657.13,982.77 1666.23,991.87 1672.00,996.00
             1672.00,996.00 1671.00,998.00 1671.00,998.00
             1671.00,998.00 1673.00,998.00 1673.00,998.00
             1673.00,998.00 1672.00,1000.00 1672.00,1000.00
             1672.00,1000.00 1674.00,1000.00 1674.00,1000.00
             1674.00,1000.00 1676.00,1003.00 1676.00,1003.00
             1676.00,1003.00 1675.00,1005.00 1675.00,1005.00
             1675.00,1005.00 1677.00,1005.00 1677.00,1005.00
             1677.00,1005.00 1676.00,1007.00 1676.00,1007.00
             1676.00,1007.00 1678.00,1007.00 1678.00,1007.00
             1678.00,1007.00 1677.00,1009.00 1677.00,1009.00
             1677.00,1009.00 1679.00,1009.00 1679.00,1009.00
             1679.00,1009.00 1678.00,1011.00 1678.00,1011.00
             1678.00,1011.00 1680.00,1011.00 1680.00,1011.00
             1680.00,1011.00 1679.00,1013.00 1679.00,1013.00
             1679.00,1013.00 1681.00,1013.00 1681.00,1013.00
             1681.00,1013.00 1683.00,1016.00 1683.00,1016.00
             1683.00,1016.00 1682.00,1018.00 1682.00,1018.00
             1682.00,1018.00 1684.00,1018.00 1684.00,1018.00
             1684.00,1018.00 1683.00,1020.00 1683.00,1020.00
             1683.00,1020.00 1685.00,1020.00 1685.00,1020.00
             1685.00,1020.00 1684.00,1022.00 1684.00,1022.00
             1684.00,1022.00 1686.00,1022.00 1686.00,1022.00
             1686.00,1022.00 1685.00,1024.00 1685.00,1024.00
             1685.00,1024.00 1687.00,1024.00 1687.00,1024.00
             1687.00,1024.00 1686.00,1026.00 1686.00,1026.00
             1686.00,1026.00 1688.00,1026.00 1688.00,1026.00
             1688.00,1026.00 1687.00,1028.00 1687.00,1028.00
             1687.00,1028.00 1689.00,1028.00 1689.00,1028.00
             1689.00,1028.00 1690.88,1038.29 1690.88,1038.29
             1690.88,1038.29 1690.88,1052.00 1690.88,1052.00
             1690.88,1052.00 1689.00,1052.00 1689.00,1052.00
             1689.00,1052.00 1690.00,1054.00 1690.00,1054.00
             1690.00,1054.00 1688.00,1054.00 1688.00,1054.00
             1688.00,1054.00 1689.00,1056.00 1689.00,1056.00
             1689.00,1056.00 1687.00,1056.00 1687.00,1056.00
             1687.00,1056.00 1688.00,1058.00 1688.00,1058.00
             1688.00,1058.00 1686.00,1058.00 1686.00,1058.00
             1686.00,1058.00 1687.00,1060.00 1687.00,1060.00
             1687.00,1060.00 1685.00,1060.00 1685.00,1060.00
             1685.00,1060.00 1686.00,1062.00 1686.00,1062.00
             1686.00,1062.00 1684.00,1062.00 1684.00,1062.00
             1684.00,1062.00 1685.00,1064.00 1685.00,1064.00
             1685.00,1064.00 1683.00,1064.00 1683.00,1064.00
             1683.00,1064.00 1682.00,1068.00 1682.00,1068.00
             1682.00,1068.00 1676.00,1068.00 1676.00,1068.00
             1676.00,1068.00 1671.00,1070.00 1671.00,1070.00
             1671.00,1070.00 1671.00,1068.00 1671.00,1068.00
             1671.00,1068.00 1668.00,1069.00 1668.00,1069.00
             1668.00,1069.00 1663.00,1067.00 1663.00,1067.00
             1663.00,1067.00 1658.00,1063.00 1658.00,1063.00
             1658.00,1063.00 1653.00,1059.00 1653.00,1059.00
             1650.93,1056.06 1650.55,1054.95 1647.00,1054.00
             1647.00,1054.00 1642.00,1050.00 1642.00,1050.00
             1639.81,1044.85 1637.55,1036.56 1638.00,1031.00
             1632.97,1031.25 1631.84,1033.10 1629.00,1037.00
             1629.00,1037.00 1626.00,1039.00 1626.00,1039.00
             1626.00,1039.00 1624.00,1038.00 1624.00,1038.00
             1624.00,1038.00 1624.00,1040.00 1624.00,1040.00
             1624.00,1040.00 1622.00,1041.00 1622.00,1041.00
             1622.00,1041.00 1617.00,1038.00 1617.00,1038.00
             1617.00,1038.00 1614.00,1039.00 1614.00,1039.00
             1614.00,1039.00 1609.00,1037.00 1609.00,1037.00
             1606.54,1033.55 1604.23,1030.11 1600.00,1029.00
             1597.15,1025.02 1592.85,1019.28 1588.00,1018.00
             1585.65,1014.70 1584.05,1012.07 1580.00,1011.00
             1577.65,1007.70 1576.05,1005.07 1572.00,1004.00
             1569.20,999.13 1567.81,996.22 1567.40,990.51
             1566.90,983.54 1572.68,975.18 1573.00,968.00
             1573.00,968.00 1575.00,968.00 1575.00,968.00
             1575.00,968.00 1575.00,963.00 1575.00,963.00
             1575.00,963.00 1577.00,963.00 1577.00,963.00
             1577.00,963.00 1577.00,958.00 1577.00,958.00
             1577.00,958.00 1579.00,958.00 1579.00,958.00
             1579.00,958.00 1578.00,956.00 1578.00,956.00
             1578.00,956.00 1580.00,956.00 1580.00,956.00
             1580.00,956.00 1580.00,951.00 1580.00,951.00
             1580.00,951.00 1582.00,951.00 1582.00,951.00
             1582.00,951.00 1581.00,949.00 1581.00,949.00
             1581.00,949.00 1582.00,947.00 1582.00,947.00 Z" />
  <path id="Santa Cruz"
        fill="none" stroke="black" stroke-width="1"
        d="M 1530.00,987.00
           C 1525.57,987.01 1522.35,987.06 1518.00,988.30
             1513.70,989.52 1509.86,991.95 1506.00,994.15
             1486.15,1005.48 1489.38,1003.54 1472.00,1018.85
             1447.13,1040.74 1426.55,1066.40 1405.72,1091.99
             1405.72,1091.99 1364.88,1141.00 1364.88,1141.00
             1364.88,1141.00 1342.99,1166.00 1342.99,1166.00
             1340.56,1168.49 1334.81,1174.57 1332.00,1175.98
             1328.17,1177.89 1313.10,1177.75 1308.00,1178.42
             1308.00,1178.42 1294.00,1179.13 1294.00,1179.13
             1290.64,1179.68 1286.30,1180.73 1283.17,1179.13
             1280.36,1177.40 1277.69,1172.69 1275.80,1170.00
             1275.80,1170.00 1263.87,1154.00 1263.87,1154.00
             1263.87,1154.00 1238.91,1121.00 1238.91,1121.00
             1238.91,1121.00 1217.54,1092.00 1217.54,1092.00
             1217.54,1092.00 1187.16,1058.00 1187.16,1058.00
             1187.16,1058.00 1141.91,1007.00 1141.91,1007.00
             1141.91,1007.00 1116.00,981.00 1116.00,981.00
             1116.00,981.00 1069.00,934.04 1069.00,934.04
             1069.00,934.04 1059.00,924.99 1059.00,924.99
             1059.00,924.99 1009.00,879.09 1009.00,879.09
             1005.35,875.69 992.01,864.64 990.87,860.96
             989.23,857.42 990.99,846.77 990.87,842.00
             990.87,842.00 990.87,802.00 990.87,802.00
             990.87,802.00 991.96,790.00 991.96,790.00
             991.96,790.00 991.96,776.00 991.96,776.00
             992.00,773.39 992.11,770.51 991.35,768.00
             990.10,763.84 981.25,751.38 978.33,747.00
             978.33,747.00 942.00,693.00 942.00,693.00
             942.00,693.00 875.66,594.00 875.66,594.00
             875.66,594.00 855.00,563.00 855.00,563.00
             853.04,560.07 846.45,550.74 845.75,548.00
             844.94,544.78 848.98,537.85 850.00,533.00
             851.98,523.51 855.01,505.71 860.51,498.00
             862.11,495.76 865.92,492.06 868.00,490.00
             870.36,487.67 873.24,484.81 876.00,483.00
             884.23,477.58 887.29,487.81 890.85,494.00
             895.53,502.16 905.39,522.70 913.00,526.55
             916.25,528.19 919.49,527.99 923.00,528.00
             923.00,528.00 930.00,528.00 930.00,528.00
             935.01,528.06 957.57,531.08 962.00,532.52
             962.00,532.52 989.00,543.37 989.00,543.37
             989.00,543.37 1020.96,548.23 1020.96,548.23
             1029.07,551.77 1035.85,568.20 1050.00,569.59
             1054.65,570.05 1060.96,568.39 1064.10,564.86
             1067.97,560.51 1070.35,553.48 1077.00,553.20
             1077.00,553.20 1097.00,555.89 1097.00,555.89
             1097.00,555.89 1107.00,555.89 1107.00,555.89
             1112.20,556.01 1120.82,557.90 1125.00,555.89
             1127.51,554.58 1133.64,549.21 1135.30,546.91
             1135.30,546.91 1138.81,540.74 1138.81,540.74
             1141.31,538.27 1147.59,539.14 1151.00,538.91
             1161.57,538.19 1172.33,535.82 1173.66,523.00
             1174.83,511.74 1161.86,503.72 1155.13,496.00
             1151.32,491.63 1150.34,487.33 1148.25,482.00
             1146.94,477.49 1144.45,468.86 1148.25,464.60
             1150.80,461.27 1157.16,464.81 1160.00,466.43
             1172.86,473.79 1173.64,481.06 1184.00,489.11
             1201.44,502.68 1228.97,509.73 1242.79,526.00
             1247.77,531.86 1253.79,547.37 1256.33,555.00
             1257.33,558.00 1261.50,569.68 1261.53,571.96
             1261.59,576.30 1255.28,579.23 1252.00,581.31
             1241.76,587.80 1228.65,586.99 1216.00,592.07
             1208.60,595.04 1203.21,602.57 1208.51,610.00
             1211.07,613.59 1216.45,618.37 1221.00,618.82
             1225.22,619.23 1235.68,615.77 1240.00,614.33
             1240.00,614.33 1276.00,602.71 1276.00,602.71
             1281.84,601.03 1296.56,595.53 1301.04,601.16
             1307.99,609.92 1310.66,624.29 1315.52,634.00
             1318.31,639.57 1325.67,647.21 1327.17,653.00
             1328.33,658.97 1323.71,664.19 1327.17,672.00
             1327.17,672.00 1338.86,693.00 1338.86,693.00
             1340.10,695.28 1342.70,699.11 1341.65,701.77
             1339.82,706.43 1332.43,704.07 1329.00,703.09
             1316.41,699.48 1310.01,692.31 1302.00,692.70
             1298.86,692.85 1296.63,694.46 1294.00,695.99
             1287.69,699.67 1286.33,699.53 1286.93,707.00
             1287.10,709.14 1287.14,710.99 1288.17,712.96
             1291.30,718.93 1306.70,727.11 1313.00,730.25
             1321.17,734.32 1336.11,740.51 1345.00,741.71
             1358.19,743.49 1373.55,740.98 1387.00,741.00
             1397.77,741.02 1402.08,745.03 1412.00,749.00
             1414.74,743.89 1418.79,740.95 1418.65,737.00
             1418.22,725.65 1398.72,713.38 1411.30,699.02
             1412.64,697.49 1414.17,695.95 1416.00,695.02
             1420.25,692.88 1428.31,695.04 1433.00,695.73
             1433.00,695.73 1465.00,701.58 1465.00,701.58
             1469.97,702.68 1476.71,703.58 1480.70,706.80
             1480.70,706.80 1498.17,727.73 1498.17,727.73
             1505.68,734.45 1520.90,734.44 1525.83,738.43
             1525.83,738.43 1550.28,766.00 1550.28,766.00
             1550.28,766.00 1584.04,805.00 1584.04,805.00
             1588.60,812.02 1590.60,820.38 1593.87,828.00
             1596.94,835.15 1605.90,850.90 1605.62,858.00
             1605.33,865.72 1604.40,869.09 1599.27,874.98
             1597.28,877.26 1595.83,879.06 1592.99,880.30
             1586.48,883.14 1570.74,881.97 1567.60,889.21
             1566.91,890.81 1566.97,894.21 1567.02,896.00
             1567.20,902.95 1569.05,903.19 1570.92,909.00
             1572.79,916.37 1572.93,922.64 1570.92,930.00
             1569.95,934.85 1569.93,937.64 1564.98,940.08
             1557.88,943.59 1554.28,940.81 1549.00,935.91
             1543.21,930.53 1534.00,918.49 1528.00,914.85
             1520.57,910.34 1516.70,911.66 1511.44,918.00
             1509.13,920.78 1507.84,922.42 1507.06,926.00
             1506.21,929.90 1505.92,934.02 1506.01,938.00
             1506.23,947.53 1507.91,957.18 1513.71,965.00
             1518.50,971.47 1528.76,979.31 1530.00,987.00 Z
           M 1521.00,499.00
           C 1521.00,499.00 1536.01,496.44 1536.01,496.44
             1536.01,496.44 1553.72,497.18 1553.72,497.18
             1553.72,497.18 1581.13,500.58 1581.13,500.58
             1581.13,500.58 1598.00,503.00 1598.00,503.00
             1598.00,503.00 1600.00,506.00 1600.00,506.00
             1600.00,506.00 1603.00,505.00 1603.00,505.00
             1603.00,505.00 1608.00,507.00 1608.00,507.00
             1608.00,507.00 1608.00,509.00 1608.00,509.00
             1610.74,508.97 1611.29,508.78 1613.00,511.00
             1613.00,511.00 1616.00,510.00 1616.00,510.00
             1616.00,510.00 1625.00,517.00 1625.00,517.00
             1626.06,520.70 1627.97,521.81 1631.00,524.00
             1631.00,524.00 1634.00,528.00 1634.00,528.00
             1634.00,528.00 1633.00,530.00 1633.00,530.00
             1633.00,530.00 1635.00,530.00 1635.00,530.00
             1635.00,530.00 1635.00,535.00 1635.00,535.00
             1635.00,535.00 1637.00,535.00 1637.00,535.00
             1637.00,535.00 1637.00,540.00 1637.00,540.00
             1637.00,540.00 1639.00,540.00 1639.00,540.00
             1639.00,540.00 1641.00,545.00 1641.00,545.00
             1640.95,553.96 1647.16,561.08 1644.54,577.28
             1643.44,584.09 1639.39,584.69 1638.00,590.00
             1631.21,589.83 1623.30,595.08 1619.00,590.00
             1619.00,590.00 1609.00,589.00 1609.00,589.00
             1609.00,589.00 1607.00,588.00 1607.00,588.00
             1607.00,588.00 1603.00,585.00 1603.00,585.00
             1603.00,585.00 1600.00,583.00 1600.00,583.00
             1600.00,583.00 1596.00,580.00 1596.00,580.00
             1596.00,580.00 1593.00,578.00 1593.00,578.00
             1590.03,573.85 1583.94,566.30 1579.00,565.00
             1579.00,565.00 1576.00,563.00 1576.00,563.00
             1576.00,563.00 1572.00,560.00 1572.00,560.00
             1572.00,560.00 1571.00,557.00 1571.00,557.00
             1571.00,557.00 1562.00,557.00 1562.00,557.00
             1562.00,557.00 1561.00,560.00 1561.00,560.00
             1561.00,560.00 1557.00,563.00 1557.00,563.00
             1557.00,563.00 1554.00,565.00 1554.00,565.00
             1554.00,565.00 1552.00,564.00 1552.00,564.00
             1552.00,564.00 1552.00,566.00 1552.00,566.00
             1552.00,566.00 1549.00,568.00 1549.00,568.00
             1549.00,568.00 1547.00,567.00 1547.00,567.00
             1547.00,567.00 1547.00,569.00 1547.00,569.00
             1539.80,568.39 1539.67,570.24 1532.00,567.00
             1532.00,567.00 1529.00,563.00 1529.00,563.00
             1529.00,563.00 1530.00,561.00 1530.00,561.00
             1530.00,561.00 1528.00,561.00 1528.00,561.00
             1528.00,561.00 1527.00,559.00 1527.00,559.00
             1527.00,559.00 1525.37,550.54 1525.37,550.54
             1525.37,550.54 1524.00,527.00 1524.00,527.00
             1524.00,527.00 1522.00,527.00 1522.00,527.00
             1522.00,527.00 1523.00,525.00 1523.00,525.00
             1523.00,525.00 1521.00,525.00 1521.00,525.00
             1520.78,519.77 1516.37,512.05 1521.00,499.00 Z
           M 1370.00,533.43
           C 1390.22,531.38 1397.31,552.56 1410.00,563.58
             1410.00,563.58 1418.00,570.48 1418.00,570.48
             1418.00,570.48 1437.00,583.43 1437.00,583.43
             1437.00,583.43 1464.00,603.00 1464.00,603.00
             1478.38,612.52 1488.19,616.52 1499.18,631.00
             1504.97,638.62 1505.60,652.67 1504.98,662.00
             1504.70,666.08 1504.27,671.50 1500.77,674.16
             1494.03,679.30 1479.31,678.09 1471.00,678.00
             1456.91,677.83 1437.47,672.65 1424.00,668.34
             1408.43,663.37 1391.80,656.99 1380.17,644.91
             1372.08,636.51 1367.50,625.97 1364.03,615.00
             1357.50,594.37 1358.75,572.35 1359.00,551.00
             1359.06,546.37 1359.95,537.71 1364.22,535.01
             1365.77,534.03 1368.21,533.75 1370.00,533.43 Z
           M 1777.00,545.00
           C 1777.00,545.00 1783.58,543.48 1783.58,543.48
             1788.61,542.56 1796.16,544.48 1801.00,546.00
             1801.00,546.00 1803.00,549.00 1803.00,549.00
             1803.00,549.00 1805.00,551.00 1805.00,551.00
             1805.00,551.00 1804.00,553.00 1804.00,553.00
             1804.00,553.00 1806.00,553.00 1806.00,553.00
             1806.00,553.00 1808.00,556.00 1808.00,556.00
             1808.00,556.00 1810.00,559.00 1810.00,559.00
             1810.00,559.00 1813.00,563.00 1813.00,563.00
             1813.00,563.00 1812.00,565.00 1812.00,565.00
             1812.00,565.00 1814.00,565.00 1814.00,565.00
             1814.00,565.00 1813.00,567.00 1813.00,567.00
             1813.00,567.00 1815.00,567.00 1815.00,567.00
             1815.00,567.00 1814.00,569.00 1814.00,569.00
             1814.00,569.00 1816.00,569.00 1816.00,569.00
             1816.00,569.00 1815.00,571.00 1815.00,571.00
             1815.00,571.00 1817.00,571.00 1817.00,571.00
             1817.00,571.00 1816.00,573.00 1816.00,573.00
             1816.00,573.00 1818.00,573.00 1818.00,573.00
             1818.00,573.00 1817.00,575.00 1817.00,575.00
             1817.00,575.00 1819.00,575.00 1819.00,575.00
             1819.00,575.00 1818.00,577.00 1818.00,577.00
             1818.00,577.00 1820.00,577.00 1820.00,577.00
             1820.00,577.00 1819.00,579.00 1819.00,579.00
             1819.00,579.00 1821.00,579.00 1821.00,579.00
             1821.00,579.00 1820.00,581.00 1820.00,581.00
             1820.00,581.00 1822.00,581.00 1822.00,581.00
             1822.00,581.00 1821.00,583.00 1821.00,583.00
             1821.00,583.00 1823.00,583.00 1823.00,583.00
             1823.00,583.00 1822.00,585.00 1822.00,585.00
             1822.00,585.00 1824.00,585.00 1824.00,585.00
             1824.00,585.00 1827.00,593.00 1827.00,593.00
             1827.00,593.00 1826.00,596.00 1826.00,596.00
             1826.00,596.00 1827.00,599.00 1827.00,599.00
             1827.00,599.00 1828.00,602.00 1828.00,602.00
             1832.39,605.49 1831.27,615.06 1831.00,620.00
             1831.00,620.00 1828.00,624.00 1828.00,624.00
             1828.00,624.00 1818.00,634.00 1818.00,634.00
             1818.00,634.00 1814.00,637.00 1814.00,637.00
             1814.00,637.00 1812.00,636.00 1812.00,636.00
             1812.00,636.00 1812.00,638.00 1812.00,638.00
             1812.00,638.00 1807.00,638.00 1807.00,638.00
             1807.00,638.00 1807.00,640.00 1807.00,640.00
             1807.00,640.00 1805.00,639.00 1805.00,639.00
             1805.00,639.00 1805.00,641.00 1805.00,641.00
             1805.00,641.00 1803.00,642.00 1803.00,642.00
             1803.00,642.00 1787.00,639.40 1787.00,639.40
             1787.00,639.40 1774.00,629.00 1774.00,629.00
             1774.00,629.00 1773.00,628.00 1773.00,628.00
             1773.00,628.00 1771.00,625.00 1771.00,625.00
             1771.00,625.00 1769.00,622.00 1769.00,622.00
             1769.00,622.00 1767.00,619.00 1767.00,619.00
             1767.00,619.00 1765.00,616.00 1765.00,616.00
             1765.00,616.00 1763.00,613.00 1763.00,613.00
             1763.00,613.00 1761.00,610.00 1761.00,610.00
             1761.00,610.00 1762.00,608.00 1762.00,608.00
             1762.00,608.00 1760.00,608.00 1760.00,608.00
             1760.00,608.00 1761.00,606.00 1761.00,606.00
             1761.00,606.00 1759.00,606.00 1759.00,606.00
             1759.00,606.00 1759.00,601.00 1759.00,601.00
             1759.00,601.00 1757.00,601.00 1757.00,601.00
             1757.00,601.00 1758.00,599.00 1758.00,599.00
             1758.00,599.00 1756.00,599.00 1756.00,599.00
             1756.00,599.00 1757.00,597.00 1757.00,597.00
             1757.00,597.00 1755.00,597.00 1755.00,597.00
             1755.00,597.00 1756.00,595.00 1756.00,595.00
             1756.00,595.00 1754.00,595.00 1754.00,595.00
             1754.00,595.00 1754.00,590.00 1754.00,590.00
             1754.00,590.00 1752.00,590.00 1752.00,590.00
             1752.00,590.00 1752.00,585.00 1752.00,585.00
             1752.00,585.00 1750.00,585.00 1750.00,585.00
             1750.00,585.00 1749.00,577.00 1749.00,577.00
             1749.00,577.00 1751.00,577.00 1751.00,577.00
             1751.00,577.00 1754.00,567.00 1754.00,567.00
             1756.94,564.93 1758.05,564.55 1759.00,561.00
             1759.00,561.00 1772.00,548.00 1772.00,548.00
             1772.00,548.00 1775.00,546.00 1775.00,546.00
             1775.00,546.00 1777.00,547.00 1777.00,547.00
             1777.00,547.00 1777.00,545.00 1777.00,545.00 Z" />
  <path id="Boac"
        fill="none" stroke="black" stroke-width="1"
        d="M 1071.00,1414.00
           C 1063.24,1413.39 1059.07,1404.59 1054.60,1399.00
             1054.60,1399.00 1018.80,1354.00 1018.80,1354.00
             1018.80,1354.00 952.00,1270.00 952.00,1270.00
             952.00,1270.00 921.65,1232.00 921.65,1232.00
             921.65,1232.00 889.82,1192.00 889.82,1192.00
             886.39,1187.63 879.05,1176.50 874.91,1173.85
             871.28,1171.53 855.21,1170.40 850.00,1169.72
             850.00,1169.72 788.00,1161.85 788.00,1161.85
             788.00,1161.85 577.00,1135.15 577.00,1135.15
             577.00,1135.15 498.00,1125.15 498.00,1125.15
             498.00,1125.15 479.00,1122.85 479.00,1122.85
             476.85,1122.59 472.40,1122.19 470.99,1120.41
             469.26,1118.11 470.82,1111.95 470.99,1109.00
             470.99,1109.00 473.00,1078.00 473.00,1078.00
             473.00,1078.00 475.00,1046.00 475.00,1046.00
             475.00,1046.00 474.00,1029.00 474.00,1029.00
             474.00,1029.00 474.00,1017.00 474.00,1017.00
             473.85,1004.14 465.60,970.38 462.42,956.00
             462.42,956.00 448.91,896.00 448.91,896.00
             442.21,877.14 429.37,865.70 426.27,855.00
             425.86,852.10 425.99,848.98 426.27,846.00
             426.27,846.00 426.27,838.00 426.27,838.00
             426.27,838.00 426.27,828.00 426.27,828.00
             425.80,810.15 433.80,802.15 444.58,789.00
             444.58,789.00 461.17,769.00 461.17,769.00
             461.17,769.00 481.00,749.00 481.00,749.00
             481.00,749.00 502.09,727.32 502.09,727.32
             506.29,724.01 509.19,726.06 513.00,728.75
             513.00,728.75 534.00,744.87 534.00,744.87
             534.00,744.87 624.00,814.12 624.00,814.12
             634.72,822.27 639.30,819.95 652.00,821.17
             652.00,821.17 708.00,826.09 708.00,826.09
             708.00,826.09 772.00,831.83 772.00,831.83
             772.00,831.83 853.00,838.83 853.00,838.83
             853.00,838.83 900.00,842.83 900.00,842.83
             900.00,842.83 920.00,844.52 920.00,844.52
             920.00,844.52 932.00,848.28 932.00,848.28
             932.00,848.28 964.00,858.67 964.00,858.67
             964.00,858.67 985.00,866.08 985.00,866.08
             988.29,867.99 991.16,871.26 994.00,873.83
             995.64,875.32 998.38,877.47 999.69,879.09
             1002.41,882.47 1002.02,886.91 1002.58,891.00
             1002.58,891.00 1006.28,920.00 1006.28,920.00
             1006.28,920.00 1020.15,1026.00 1020.15,1026.00
             1020.15,1026.00 1032.72,1121.00 1032.72,1121.00
             1032.72,1121.00 1055.28,1295.00 1055.28,1295.00
             1055.28,1295.00 1066.15,1378.00 1066.15,1378.00
             1066.15,1378.00 1071.00,1414.00 1071.00,1414.00 Z" />
  <path id="Mogpog"
        fill="none" stroke="black" stroke-width="1"
        d="M 983.00,856.00
           C 973.25,855.78 959.77,849.66 950.00,846.72
             950.00,846.72 918.00,836.34 918.00,836.34
             918.00,836.34 887.00,833.09 887.00,833.09
             887.00,833.09 804.00,826.17 804.00,826.17
             804.00,826.17 708.00,818.17 708.00,818.17
             708.00,818.17 659.00,814.09 659.00,814.09
             653.87,813.73 634.70,812.61 631.00,811.28
             627.20,809.90 615.99,800.64 612.00,797.63
             612.00,797.63 570.00,765.35 570.00,765.35
             570.00,765.35 528.00,733.00 528.00,733.00
             524.82,730.50 513.61,722.59 512.23,719.71
             510.65,716.41 513.50,713.45 515.40,711.00
             515.40,711.00 530.57,691.00 530.57,691.00
             530.57,691.00 566.32,633.00 566.32,633.00
             571.49,624.80 580.47,613.90 579.96,604.00
             579.63,597.61 573.69,588.02 570.76,582.00
             568.56,577.49 566.85,573.79 570.15,569.11
             576.68,560.13 588.10,565.77 596.00,569.11
             598.79,570.15 601.94,572.00 605.00,571.04
             614.13,568.18 609.05,557.83 612.93,551.00
             615.10,547.19 619.71,543.61 623.00,540.72
             629.65,534.86 643.34,523.48 643.36,514.00
             643.38,505.16 635.63,502.63 629.00,499.35
             625.13,497.44 623.40,495.55 619.00,497.57
             606.05,503.54 610.40,508.84 605.56,518.00
             604.44,520.12 601.36,524.51 598.47,523.51
             596.82,522.94 595.50,519.50 594.85,518.00
             592.59,512.79 591.41,507.67 591.09,502.00
             590.34,488.77 596.10,489.39 600.91,482.91
             605.76,476.36 610.35,465.88 610.13,457.59
             609.96,450.75 606.26,444.87 603.26,439.00
             596.49,425.78 594.02,420.55 591.59,406.00
             591.32,404.40 590.58,400.49 590.74,399.04
             591.27,394.35 601.11,389.93 605.00,387.60
             608.24,385.66 615.94,380.79 619.00,379.66
             628.45,376.16 646.99,375.68 657.00,377.00
             659.28,393.15 665.75,414.67 675.14,428.00
             677.26,430.99 681.55,437.41 684.17,439.49
             688.66,443.08 697.74,444.15 702.70,441.02
             705.56,439.21 706.79,435.86 710.09,434.60
             715.92,432.37 717.91,435.97 718.00,441.00
             718.13,449.21 716.48,461.62 724.21,467.15
             726.37,468.69 733.26,470.36 736.00,470.69
             736.00,470.69 747.00,470.01 747.00,470.01
             749.40,469.96 752.77,469.84 754.90,471.02
             759.92,473.81 762.27,483.69 761.37,489.00
             760.14,496.25 754.85,500.75 750.17,506.00
             747.97,508.45 744.71,511.53 745.11,515.09
             746.14,524.17 762.83,526.43 770.00,528.01
             778.74,529.94 803.11,537.70 811.00,541.49
             811.00,541.49 824.00,549.20 824.00,549.20
             833.18,553.38 835.35,547.93 840.68,553.16
             843.29,555.73 849.27,565.39 851.67,569.00
             851.67,569.00 873.02,601.00 873.02,601.00
             873.02,601.00 949.00,714.00 949.00,714.00
             949.00,714.00 973.67,751.00 973.67,751.00
             978.76,758.63 983.94,763.55 984.00,773.00
             984.00,773.00 984.00,791.00 984.00,791.00
             984.00,791.00 983.00,806.00 983.00,806.00
             983.00,806.00 983.00,856.00 983.00,856.00 Z" />
</svg>
