<?xml version="1.0" encoding="UTF-8" standalone="no"?>
<!DOCTYPE svg PUBLIC "-//W3C//DTD SVG 20010904//EN"
              "http://www.w3.org/TR/2001/REC-SVG-20010904/DTD/svg10.dtd">

<svg xmlns="http://www.w3.org/2000/svg"
     width="79.4175mm" height="76.7928mm"
     viewBox="0 0 938 907">
  <path id="Nagtipunan"
        fill="none" stroke="black" stroke-width="1"
        d="M 238.00,844.00
           C 238.00,844.00 139.00,755.28 139.00,755.28
             139.00,755.28 109.00,728.42 109.00,728.42
             105.71,725.57 94.67,716.14 93.01,713.00
             91.19,709.56 90.28,695.59 89.92,691.00
             89.92,691.00 85.83,651.00 85.83,651.00
             85.83,651.00 70.83,505.00 70.83,505.00
             70.83,505.00 65.83,457.00 65.83,457.00
             65.51,453.78 63.54,441.84 65.01,439.64
             66.60,437.25 77.81,433.10 81.00,431.72
             81.00,431.72 122.00,413.77 122.00,413.77
             142.49,404.42 198.40,380.20 218.00,373.96
             218.00,373.96 246.00,367.35 246.00,367.35
             257.85,364.63 276.57,359.02 288.00,359.00
             288.00,359.00 311.00,359.00 311.00,359.00
             310.95,375.82 305.34,376.58 301.98,384.00
             300.07,388.24 302.20,390.44 298.69,394.98
             293.36,401.87 284.31,403.37 281.44,406.49
             279.02,409.47 280.21,418.43 281.44,421.99
             282.84,427.19 287.86,428.57 290.69,434.00
             292.67,437.82 292.55,445.27 293.59,448.00
             294.86,451.28 307.71,463.31 311.00,463.94
             313.68,464.45 323.88,461.22 327.00,460.28
             327.00,460.28 353.00,451.15 353.00,451.15
             359.69,448.30 366.65,444.29 374.00,444.04
             378.75,443.88 386.01,445.07 390.00,447.70
             392.87,449.59 396.10,453.52 399.00,454.47
             405.18,456.52 407.47,448.50 418.00,449.09
             423.56,449.40 429.98,451.43 435.00,453.78
             438.98,455.65 443.62,458.62 448.00,458.86
             450.34,458.98 465.29,457.68 467.00,456.83
             470.94,454.86 475.19,449.06 482.00,445.91
             485.47,444.31 511.22,439.74 516.00,439.30
             524.54,438.51 530.47,446.50 538.00,449.19
             541.82,450.55 554.26,449.99 559.00,450.00
             573.36,450.02 569.67,453.34 578.00,457.86
             582.10,460.09 589.12,460.38 592.91,462.85
             596.12,464.94 609.87,481.84 613.42,486.00
             613.42,486.00 624.37,499.00 624.37,499.00
             626.05,501.24 627.67,503.13 626.26,505.99
             625.13,508.27 618.29,513.77 616.00,515.73
             616.00,515.73 595.00,534.05 595.00,534.05
             595.00,534.05 513.00,605.42 513.00,605.42
             513.00,605.42 421.00,685.72 421.00,685.72
             421.00,685.72 332.00,763.15 332.00,763.15
             332.00,763.15 271.00,816.28 271.00,816.28
             263.40,822.88 245.39,839.69 238.00,844.00 Z" />
  <path id="Maddela"
        fill="none" stroke="black" stroke-width="1"
        d="M 512.00,261.00
           C 512.00,261.00 545.12,304.00 545.12,304.00
             545.12,304.00 558.46,319.37 558.46,319.37
             558.46,319.37 565.00,317.25 565.00,317.25
             565.00,317.25 582.00,308.26 582.00,308.26
             582.00,308.26 649.00,274.25 649.00,274.25
             649.00,274.25 713.00,241.26 713.00,241.26
             713.00,241.26 791.00,201.74 791.00,201.74
             791.00,201.74 840.00,176.58 840.00,176.58
             840.00,176.58 862.00,165.25 862.00,165.25
             862.00,165.25 874.00,159.80 874.00,159.80
             874.00,159.80 906.00,162.00 906.00,162.00
             902.49,168.82 896.39,175.85 891.65,182.00
             891.65,182.00 869.42,211.00 869.42,211.00
             869.42,211.00 807.88,292.00 807.88,292.00
             772.41,338.50 736.84,385.03 699.41,430.00
             679.42,454.02 655.32,485.10 630.00,503.00
             630.00,503.00 606.13,475.00 606.13,475.00
             606.13,475.00 594.96,462.28 594.96,462.28
             589.83,458.01 584.36,458.79 579.00,456.35
             574.52,454.31 572.48,450.75 569.00,449.02
             565.71,447.38 555.15,448.01 551.00,448.00
             546.05,447.99 539.54,447.66 535.00,445.59
             528.54,442.64 523.62,436.68 516.00,437.18
             516.00,437.18 498.00,440.39 498.00,440.39
             492.31,441.39 488.77,441.08 483.00,443.48
             475.21,446.71 470.96,453.14 466.00,455.15
             462.84,456.42 452.87,456.05 449.00,456.00
             437.99,455.85 430.68,447.44 418.00,447.04
             407.37,446.71 405.25,454.31 399.01,452.36
             395.64,451.30 394.07,447.81 389.96,445.36
             385.02,442.42 376.66,441.48 371.00,442.18
             366.28,442.77 357.87,447.12 353.00,449.14
             353.00,449.14 325.00,458.85 325.00,458.85
             322.29,459.59 314.32,461.94 312.00,461.76
             307.66,461.44 296.43,451.06 295.31,446.91
             294.55,444.06 295.69,440.12 293.91,436.00
             291.47,430.33 285.64,426.58 284.02,423.72
             282.96,421.84 282.06,409.75 282.00,407.00
             288.45,405.16 298.47,400.08 301.69,393.99
             303.56,390.44 302.50,387.92 304.30,384.00
             309.35,372.95 312.95,375.08 313.00,358.96
             313.00,358.96 325.00,358.96 325.00,358.96
             325.00,358.96 337.00,358.00 337.00,358.00
             337.00,358.00 410.00,358.00 410.00,358.00
             421.74,357.98 424.40,353.04 434.00,346.67
             434.00,346.67 471.00,322.12 471.00,322.12
             477.34,317.28 491.83,305.28 494.30,298.00
             495.65,294.01 494.94,280.15 495.00,275.00
             495.04,271.93 495.01,267.96 497.51,265.74
             498.71,264.67 509.71,261.62 512.00,261.00 Z" />
  <path id="Cabarroguis"
        fill="none" stroke="black" stroke-width="1"
        d="M 210.00,270.00
           C 215.58,262.21 224.31,255.35 232.00,249.63
             235.13,247.30 241.15,243.53 243.37,240.82
             243.37,240.82 256.25,216.00 256.25,216.00
             256.25,216.00 280.75,168.00 280.75,168.00
             280.75,168.00 288.75,152.00 288.75,152.00
             289.84,149.83 291.32,146.34 293.39,145.02
             295.48,143.69 300.47,143.96 303.00,144.00
             311.10,144.15 312.42,148.01 317.20,154.00
             317.20,154.00 336.17,177.79 336.17,177.79
             343.00,183.33 363.60,180.05 372.00,177.79
             372.00,184.67 373.49,196.72 368.72,201.67
             361.47,209.21 342.07,210.97 342.90,228.00
             343.39,238.10 349.53,239.38 358.00,240.92
             362.01,241.65 368.44,242.77 368.26,248.04
             368.06,253.96 357.41,273.13 354.14,279.00
             354.14,279.00 336.86,309.00 336.86,309.00
             336.86,309.00 327.40,327.00 327.40,327.00
             322.85,334.69 313.21,348.27 311.00,356.00
             311.00,356.00 292.00,356.00 292.00,356.00
             275.48,356.03 231.62,370.60 215.00,372.00
             215.00,372.00 219.38,314.00 219.38,314.00
             219.38,314.00 229.00,287.00 229.00,287.00
             229.86,284.54 232.04,279.28 232.15,277.00
             232.47,270.00 227.23,270.01 222.00,270.00
             222.00,270.00 210.00,270.00 210.00,270.00 Z" />
  <path id="Aglipay"
        fill="none" stroke="black" stroke-width="1"
        d="M 374.00,178.00
           C 374.00,178.00 417.00,172.20 417.00,172.20
             420.35,171.56 435.77,168.34 437.96,168.89
             440.87,169.61 443.01,172.78 444.80,175.00
             444.80,175.00 456.58,190.00 456.58,190.00
             456.58,190.00 491.42,235.00 491.42,235.00
             496.37,241.35 506.65,252.92 509.00,260.00
             505.35,261.05 498.90,262.01 496.28,264.43
             491.39,268.94 493.03,284.38 493.00,291.00
             492.99,293.34 493.06,295.76 492.30,298.00
             489.98,304.85 477.82,314.78 472.00,319.34
             472.00,319.34 434.00,344.67 434.00,344.67
             424.40,351.04 421.74,355.98 410.00,356.00
             410.00,356.00 313.00,356.00 313.00,356.00
             315.21,348.27 324.85,334.69 329.40,327.00
             329.40,327.00 338.86,309.00 338.86,309.00
             338.86,309.00 356.14,279.00 356.14,279.00
             359.54,272.91 370.06,254.25 370.26,248.00
             370.40,243.57 366.68,241.43 363.00,240.10
             355.16,237.27 345.65,239.62 345.04,229.00
             343.95,209.91 362.79,212.24 371.69,200.96
             375.41,196.24 374.00,184.09 374.00,178.00 Z" />
  <path id="Saguday"
        fill="none" stroke="black" stroke-width="1"
        d="M 374.00,87.00
           C 374.00,87.00 403.00,122.00 403.00,122.00
             403.00,122.00 437.00,166.00 437.00,166.00
             416.66,171.39 392.01,174.13 371.00,176.17
             364.29,176.82 348.73,179.64 343.00,178.53
             334.92,176.97 328.99,166.25 324.00,160.00
             322.27,157.83 318.53,153.90 318.91,151.00
             319.19,148.81 321.52,146.59 322.93,145.00
             322.93,145.00 333.72,133.00 333.72,133.00
             333.72,133.00 357.72,106.00 357.72,106.00
             357.72,106.00 374.00,87.00 374.00,87.00 Z" />
  <path id="Diffun"
        fill="none" stroke="black" stroke-width="1"
        d="M 185.00,44.00
           C 185.00,44.00 243.00,46.00 243.00,46.00
             243.00,46.00 266.00,47.00 266.00,47.00
             266.00,47.00 282.00,48.04 282.00,48.04
             282.00,48.04 295.00,48.04 295.00,48.04
             295.00,48.04 307.00,49.04 307.00,49.04
             307.00,49.04 319.00,49.04 319.00,49.04
             319.00,49.04 329.00,50.00 329.00,50.00
             332.10,50.03 340.52,49.66 342.96,50.60
             345.78,51.68 348.05,54.76 350.00,57.00
             350.00,57.00 362.42,72.00 362.42,72.00
             364.81,74.91 372.32,82.27 371.56,86.00
             371.00,88.75 360.59,100.15 358.13,103.00
             358.13,103.00 332.28,132.00 332.28,132.00
             327.61,137.31 321.19,146.06 315.00,149.00
             309.39,140.73 307.27,141.83 298.00,142.00
             295.67,142.05 293.50,141.95 291.63,143.60
             289.57,145.42 282.06,161.38 280.25,165.00
             280.25,165.00 255.25,214.00 255.25,214.00
             255.25,214.00 241.37,240.48 241.37,240.48
             241.37,240.48 225.00,253.00 225.00,253.00
             220.67,256.49 209.33,268.18 206.00,269.40
             203.89,270.18 199.37,270.02 197.00,270.00
             184.51,269.85 159.52,258.34 156.96,245.00
             156.30,241.61 158.43,230.15 159.00,226.00
             159.00,226.00 165.73,181.00 165.73,181.00
             165.73,181.00 179.72,84.00 179.72,84.00
             179.72,84.00 185.00,44.00 185.00,44.00 Z" />
</svg>
