<?xml version="1.0" encoding="UTF-8" standalone="no"?>
<!DOCTYPE svg PUBLIC "-//W3C//DTD SVG 20010904//EN"
              "http://www.w3.org/TR/2001/REC-SVG-20010904/DTD/svg10.dtd">

<svg xmlns="http://www.w3.org/2000/svg"
     width="39.8204mm" height="26.6034mm"
     viewBox="0 0 470 314">
  <path id="Enrique Villanueva"
        fill="none" stroke="black" stroke-width="1"
        d="M 267.00,34.15
           C 269.15,34.15 271.93,34.56 274.00,34.15
             277.76,33.84 280.46,31.67 285.00,33.52
             288.47,34.94 293.08,40.11 295.96,42.83
             299.11,45.81 305.85,52.62 307.96,56.17
             307.96,56.17 313.15,68.83 313.15,68.83
             315.45,73.76 317.84,77.52 319.24,83.00
             319.24,83.00 320.63,96.00 320.63,96.00
             322.30,101.86 325.59,104.49 327.00,112.00
             327.00,112.00 290.00,133.00 290.00,133.00
             290.00,125.94 290.08,115.64 287.91,109.09
             286.22,103.99 282.40,99.11 281.33,93.00
             279.31,81.50 281.26,68.24 277.46,57.00
             275.61,51.53 270.05,44.77 267.00,34.15 Z" />
  <path id="Larena"
        fill="none" stroke="black" stroke-width="1"
        d="M 270.00,164.00
           C 264.51,160.19 248.72,145.94 245.35,140.83
             245.35,140.83 233.27,119.00 233.27,119.00
             233.27,119.00 224.06,106.00 224.06,106.00
             222.97,104.31 221.59,102.28 222.30,100.17
             223.30,97.16 230.98,92.57 234.00,91.64
             234.00,91.64 241.00,90.26 241.00,90.26
             245.16,88.62 248.62,83.07 249.76,78.91
             255.05,62.07 243.20,58.24 249.76,43.00
             251.45,38.66 253.82,33.98 259.00,33.24
             260.88,32.98 262.78,33.22 264.19,34.60
             264.19,34.60 273.69,54.00 273.69,54.00
             280.22,68.49 276.19,79.75 279.53,94.00
             279.53,94.00 286.15,110.00 286.15,110.00
             286.98,112.56 288.33,131.44 287.69,134.00
             286.16,140.11 279.15,143.26 275.70,148.09
             273.28,151.47 271.24,159.76 270.00,164.00 Z" />
  <path id="Siquijor"
        fill="none" stroke="black" stroke-width="1"
        d="M 219.00,104.00
           C 233.11,115.68 238.26,133.69 242.97,141.00
             246.74,146.86 252.77,150.57 257.00,156.00
             257.00,156.00 239.00,167.00 239.00,167.00
             235.99,168.81 232.03,170.72 230.58,174.09
             230.58,174.09 224.83,212.00 224.83,212.00
             223.56,214.51 221.11,216.88 219.00,218.71
             217.83,219.72 215.40,221.73 214.00,222.26
             210.18,223.73 206.80,220.01 204.00,217.88
             204.00,217.88 181.00,200.21 181.00,200.21
             175.66,196.02 157.88,181.70 153.00,179.53
             153.00,179.53 130.00,173.13 130.00,173.13
             130.00,173.13 83.00,160.00 83.00,160.00
             85.49,157.82 89.21,155.37 89.94,152.00
             90.58,149.05 88.46,145.66 88.22,142.00
             87.84,136.03 93.59,128.74 99.00,126.74
             109.44,122.88 124.76,136.27 133.00,136.91
             147.35,138.02 153.11,128.50 163.00,125.22
             172.82,121.96 178.98,122.00 189.00,122.00
             195.25,122.00 201.45,122.88 206.99,119.52
             212.72,116.04 215.65,109.59 219.00,104.00 Z" />
  <path id="San juan"
        fill="none" stroke="black" stroke-width="1"
        d="M 80.00,162.00
           C 80.00,162.00 133.00,176.29 133.00,176.29
             133.00,176.29 154.00,182.29 154.00,182.29
             154.00,182.29 182.00,203.35 182.00,203.35
             182.00,203.35 201.00,218.12 201.00,218.12
             201.00,218.12 209.90,226.09 209.90,226.09
             209.90,226.09 209.90,241.00 209.90,241.00
             209.90,241.00 209.04,251.00 209.04,251.00
             209.04,251.00 209.04,260.00 209.04,260.00
             209.04,260.00 208.00,272.00 208.00,272.00
             199.52,269.18 205.40,261.31 196.96,255.74
             192.59,252.86 187.88,254.94 182.00,250.57
             174.06,244.68 171.96,236.60 162.00,231.19
             155.53,227.67 142.86,226.91 135.01,220.61
             125.71,213.15 121.28,200.60 112.96,193.21
             100.31,181.98 81.23,184.07 80.00,162.00 Z" />
  <path id="Lazi"
        fill="none" stroke="black" stroke-width="1"
        d="M 211.04,272.00
           C 211.04,272.00 211.04,256.00 211.04,256.00
             211.04,256.00 212.00,244.00 212.00,244.00
             212.01,240.35 212.26,230.36 213.57,227.28
             215.91,221.82 225.38,218.17 227.85,211.00
             227.85,211.00 232.74,175.09 232.74,175.09
             234.54,170.81 247.53,164.22 252.00,161.60
             253.95,160.46 256.65,158.66 259.00,158.99
             261.46,159.33 265.05,162.69 266.82,164.42
             271.08,168.60 278.89,182.20 282.70,188.00
             287.42,195.20 293.97,200.91 300.00,207.00
             300.00,207.00 310.04,218.00 310.04,218.00
             319.00,227.37 332.67,239.75 340.00,250.00
             334.56,252.38 325.79,254.71 320.17,251.69
             315.18,249.00 311.85,240.22 303.00,242.64
             297.69,244.09 286.61,251.35 285.60,257.00
             285.17,259.42 287.60,270.17 282.58,272.88
             279.35,274.62 275.52,270.50 271.00,271.83
             268.40,272.59 266.42,274.86 264.00,275.99
             261.15,277.33 257.98,276.79 255.00,277.63
             250.48,278.91 249.79,280.66 244.00,280.96
             231.16,281.63 230.24,275.11 224.00,272.74
             221.22,271.68 214.25,272.00 211.04,272.00 Z" />
  <path id="Maria"
        fill="none" stroke="black" stroke-width="1"
        d="M 328.00,114.03
           C 333.73,114.58 334.20,116.71 339.00,118.53
             339.00,118.53 349.00,120.59 349.00,120.59
             353.72,122.40 357.57,127.82 356.76,132.98
             355.55,140.65 348.00,136.82 343.00,137.22
             336.13,137.78 321.07,146.72 320.55,154.00
             320.55,154.00 320.55,159.00 320.55,159.00
             321.53,171.02 321.32,168.54 327.91,178.04
             327.91,178.04 334.00,188.00 334.00,188.00
             336.38,191.96 339.54,198.62 344.02,200.04
             344.02,200.04 362.00,200.04 362.00,200.04
             364.80,199.58 367.57,198.42 369.35,201.30
             370.01,202.35 371.20,206.61 371.58,208.00
             374.77,219.65 371.33,221.21 365.86,231.00
             360.90,239.88 360.32,243.21 350.00,246.86
             348.68,247.32 346.34,248.23 345.00,248.33
             340.28,248.66 336.95,243.13 333.96,240.00
             333.96,240.00 317.04,223.00 317.04,223.00
             317.04,223.00 308.96,214.00 308.96,214.00
             293.12,197.44 292.00,199.41 279.05,179.00
             276.51,174.99 271.44,168.77 272.17,164.00
             272.55,161.49 275.73,151.34 277.08,149.28
             283.48,139.56 299.03,130.85 309.00,124.80
             314.26,121.60 322.42,115.50 328.00,114.03 Z" />
</svg>
