<?xml version="1.0" encoding="UTF-8" standalone="no"?>
<!DOCTYPE svg PUBLIC "-//W3C//DTD SVG 20010904//EN"
              "http://www.w3.org/TR/2001/REC-SVG-20010904/DTD/svg10.dtd">

<svg xmlns="http://www.w3.org/2000/svg"
     width="913.228mm" height="912.963mm"
     viewBox="0 0 3452 3451">
  <path id="Bamban"
        fill="none" stroke="black" stroke-width="1"
        d="M 1107.00,2944.00
           C 1107.00,2944.00 1145.00,2939.09 1145.00,2939.09
             1145.00,2939.09 1168.00,2937.54 1168.00,2937.54
             1168.00,2937.54 1225.00,2925.21 1225.00,2925.21
             1225.00,2925.21 1377.00,2893.80 1377.00,2893.80
             1377.00,2893.80 1456.00,2882.27 1456.00,2882.27
             1456.00,2882.27 1483.00,2878.49 1483.00,2878.49
             1503.98,2873.79 1524.08,2865.29 1544.00,2857.45
             1544.00,2857.45 1606.00,2833.28 1606.00,2833.28
             1606.00,2833.28 1653.00,2814.67 1653.00,2814.67
             1732.55,2780.43 1813.16,2748.65 1895.00,2720.34
             1895.00,2720.34 1973.00,2694.97 1973.00,2694.97
             1973.00,2694.97 2020.00,2680.43 2020.00,2680.43
             2020.00,2680.43 2065.00,2667.88 2065.00,2667.88
             2065.00,2667.88 2093.00,2659.74 2093.00,2659.74
             2095.85,2658.28 2098.57,2655.95 2101.00,2653.87
             2111.99,2644.46 2110.19,2643.45 2117.83,2632.00
             2117.83,2632.00 2142.42,2596.00 2142.42,2596.00
             2142.42,2596.00 2151.78,2580.00 2151.78,2580.00
             2153.18,2577.48 2155.82,2572.64 2158.26,2571.17
             2160.47,2569.84 2174.72,2569.01 2178.00,2569.00
             2178.00,2569.00 2223.00,2568.00 2223.00,2568.00
             2228.02,2567.99 2240.83,2565.52 2244.26,2568.82
             2246.65,2571.12 2245.97,2577.79 2246.00,2581.00
             2246.00,2581.00 2247.00,2596.00 2247.00,2596.00
             2247.00,2596.00 2247.00,2695.00 2247.00,2695.00
             2247.01,2703.60 2247.74,2703.39 2248.72,2711.00
             2248.72,2711.00 2250.67,2727.00 2250.67,2727.00
             2250.67,2727.00 2270.80,2785.00 2270.80,2785.00
             2270.80,2785.00 2276.78,2808.00 2276.78,2808.00
             2278.04,2811.80 2279.54,2815.26 2276.78,2818.61
             2275.25,2820.08 2272.66,2821.44 2271.00,2822.63
             2271.00,2822.63 2265.00,2827.02 2265.00,2827.02
             2261.99,2828.61 2250.17,2830.06 2246.00,2830.75
             2240.52,2831.67 2234.89,2833.34 2230.09,2829.57
             2223.82,2824.65 2217.66,2807.98 2207.00,2809.35
             2204.03,2809.73 2196.67,2813.34 2194.44,2815.39
             2190.24,2819.24 2189.22,2823.41 2183.00,2824.81
             2183.00,2824.81 2157.00,2828.83 2157.00,2828.83
             2157.00,2828.83 2140.00,2830.32 2140.00,2830.32
             2140.00,2830.32 2113.00,2835.58 2113.00,2835.58
             2113.00,2835.58 2060.00,2845.29 2060.00,2845.29
             2060.00,2845.29 2052.00,2847.50 2052.00,2847.50
             2052.00,2847.50 2012.00,2856.65 2012.00,2856.65
             2012.00,2856.65 1992.00,2861.54 1992.00,2861.54
             1992.00,2861.54 1963.00,2874.14 1963.00,2874.14
             1963.00,2874.14 1931.00,2888.31 1931.00,2888.31
             1931.00,2888.31 1893.00,2910.50 1893.00,2910.50
             1893.00,2910.50 1833.00,2946.42 1833.00,2946.42
             1833.00,2946.42 1786.00,2972.86 1786.00,2972.86
             1786.00,2972.86 1756.00,2989.74 1756.00,2989.74
             1756.00,2989.74 1727.00,3002.30 1727.00,3002.30
             1677.64,3024.50 1626.12,3041.47 1575.00,3058.92
             1575.00,3058.92 1528.00,3074.72 1528.00,3074.72
             1528.00,3074.72 1514.00,3079.44 1514.00,3079.44
             1505.85,3082.70 1498.06,3095.96 1492.58,3103.00
             1492.58,3103.00 1460.47,3145.00 1460.47,3145.00
             1460.47,3145.00 1443.63,3166.78 1443.63,3166.78
             1439.60,3170.90 1433.41,3171.37 1428.00,3172.13
             1423.20,3172.81 1406.65,3175.87 1403.00,3177.79
             1403.00,3177.79 1313.00,3227.95 1313.00,3227.95
             1313.00,3227.95 1286.00,3242.37 1286.00,3242.37
             1282.75,3243.29 1279.33,3242.85 1276.00,3243.17
             1273.41,3243.42 1270.60,3244.17 1268.00,3243.76
             1262.31,3242.87 1254.20,3233.18 1250.00,3229.00
             1250.00,3229.00 1221.65,3200.00 1221.65,3200.00
             1221.65,3200.00 1214.14,3184.00 1214.14,3184.00
             1214.14,3184.00 1138.79,3013.00 1138.79,3013.00
             1138.79,3013.00 1126.42,2985.00 1126.42,2985.00
             1126.42,2985.00 1118.52,2967.09 1118.52,2967.09
             1114.64,2959.46 1107.93,2952.76 1107.00,2944.00 Z" />
  <path id="Conception"
        fill="none" stroke="black" stroke-width="1"
        d="M 2776.00,2549.00
           C 2776.00,2549.00 2811.00,2569.13 2811.00,2569.13
             2811.00,2569.13 2906.00,2623.83 2906.00,2623.83
             2906.00,2623.83 2943.00,2644.98 2943.00,2644.98
             2947.73,2647.57 2960.67,2654.18 2963.41,2658.09
             2965.22,2660.69 2965.47,2664.86 2966.29,2668.00
             2969.84,2681.66 2969.16,2684.10 2969.00,2698.00
             2968.88,2707.78 2962.03,2730.37 2958.42,2740.00
             2958.42,2740.00 2943.67,2777.00 2943.67,2777.00
             2937.09,2792.50 2932.95,2801.38 2928.62,2818.00
             2926.26,2827.09 2925.22,2827.52 2924.17,2838.00
             2923.80,2841.67 2923.03,2850.78 2920.99,2853.69
             2919.35,2856.03 2916.58,2856.03 2914.00,2855.83
             2914.00,2855.83 2903.00,2854.96 2903.00,2854.96
             2903.00,2854.96 2890.00,2854.96 2890.00,2854.96
             2890.00,2854.96 2878.00,2854.00 2878.00,2854.00
             2878.00,2854.00 2837.00,2854.00 2837.00,2854.00
             2832.82,2854.00 2824.58,2854.92 2821.74,2851.57
             2818.98,2848.33 2819.99,2832.83 2820.14,2828.00
             2820.02,2815.23 2823.98,2798.78 2820.14,2787.00
             2819.60,2784.81 2818.89,2780.93 2817.84,2779.18
             2813.81,2772.47 2806.45,2774.91 2801.01,2778.22
             2793.77,2782.64 2776.92,2806.98 2768.00,2811.72
             2755.01,2818.63 2737.27,2814.21 2724.00,2820.84
             2717.75,2823.96 2710.86,2829.95 2706.09,2835.00
             2703.62,2837.61 2701.07,2841.58 2697.00,2841.14
             2692.99,2840.71 2686.83,2835.71 2684.01,2832.96
             2676.64,2825.77 2668.91,2814.24 2658.28,2811.29
             2655.89,2810.62 2650.64,2811.94 2648.00,2812.42
             2638.52,2814.16 2623.37,2822.29 2614.00,2826.75
             2609.74,2828.77 2601.69,2832.54 2597.00,2831.54
             2594.35,2830.97 2589.40,2827.54 2587.00,2825.91
             2587.00,2825.91 2572.30,2814.90 2572.30,2814.90
             2567.13,2809.43 2561.23,2799.55 2555.00,2795.60
             2551.52,2793.39 2542.26,2793.01 2538.00,2793.00
             2538.00,2793.00 2498.00,2789.91 2498.00,2789.91
             2498.00,2789.91 2488.00,2789.00 2488.00,2789.00
             2488.00,2789.00 2463.00,2787.38 2463.00,2787.38
             2458.67,2787.00 2450.79,2785.30 2447.00,2787.38
             2443.61,2788.85 2436.06,2796.94 2433.00,2800.00
             2433.00,2800.00 2407.00,2825.04 2407.00,2825.04
             2400.90,2830.87 2396.94,2837.83 2388.00,2838.00
             2388.00,2838.00 2375.00,2838.00 2375.00,2838.00
             2375.00,2838.00 2346.00,2840.00 2346.00,2840.00
             2346.00,2840.00 2328.00,2840.00 2328.00,2840.00
             2321.43,2840.08 2311.92,2842.82 2306.17,2838.99
             2303.12,2836.96 2299.28,2831.10 2296.87,2828.01
             2293.86,2824.16 2289.26,2820.67 2287.27,2817.00
             2287.27,2817.00 2279.23,2788.00 2279.23,2788.00
             2279.23,2788.00 2273.23,2772.00 2273.23,2772.00
             2273.23,2772.00 2257.61,2727.00 2257.61,2727.00
             2257.61,2727.00 2256.70,2719.00 2256.70,2719.00
             2255.58,2711.24 2254.01,2703.92 2254.00,2696.00
             2254.00,2696.00 2254.00,2594.00 2254.00,2594.00
             2254.00,2594.00 2253.00,2579.00 2253.00,2579.00
             2253.00,2579.00 2253.00,2565.00 2253.00,2565.00
             2253.00,2565.00 2251.00,2537.00 2251.00,2537.00
             2251.00,2537.00 2246.28,2487.00 2246.28,2487.00
             2246.28,2487.00 2241.72,2446.00 2241.72,2446.00
             2241.72,2446.00 2238.28,2426.00 2238.28,2426.00
             2238.28,2426.00 2224.84,2345.00 2224.84,2345.00
             2223.48,2334.60 2221.02,2324.60 2221.00,2314.00
             2221.00,2314.00 2221.00,2288.00 2221.00,2288.00
             2221.09,2280.23 2223.12,2272.60 2224.54,2265.00
             2224.54,2265.00 2228.09,2243.00 2228.09,2243.00
             2228.09,2243.00 2232.20,2225.00 2232.20,2225.00
             2232.20,2225.00 2235.63,2210.00 2235.63,2210.00
             2236.18,2207.82 2236.68,2204.59 2238.53,2203.16
             2241.86,2200.59 2250.85,2201.20 2255.00,2200.91
             2255.00,2200.91 2263.00,2199.94 2263.00,2199.94
             2263.00,2199.94 2275.00,2199.94 2275.00,2199.94
             2275.00,2199.94 2293.00,2198.00 2293.00,2198.00
             2293.00,2198.00 2322.00,2197.00 2322.00,2197.00
             2322.00,2197.00 2363.00,2193.48 2363.00,2193.48
             2363.00,2193.48 2406.00,2178.19 2406.00,2178.19
             2406.00,2178.19 2437.00,2166.92 2437.00,2166.92
             2440.53,2165.70 2446.35,2162.86 2450.00,2163.52
             2454.26,2164.29 2459.44,2169.78 2463.00,2172.40
             2471.71,2178.81 2477.59,2181.28 2487.00,2185.88
             2487.00,2185.88 2523.00,2201.00 2523.00,2201.00
             2530.15,2203.85 2540.05,2207.62 2546.00,2212.38
             2546.00,2212.38 2555.00,2220.96 2555.00,2220.96
             2555.00,2220.96 2564.96,2230.01 2564.96,2230.01
             2564.96,2230.01 2603.55,2275.00 2603.55,2275.00
             2603.55,2275.00 2620.42,2296.83 2620.42,2296.83
             2620.42,2296.83 2631.41,2308.42 2631.41,2308.42
             2635.21,2312.71 2638.68,2317.06 2643.00,2320.89
             2648.45,2325.73 2655.99,2325.47 2662.96,2325.99
             2662.96,2325.99 2689.00,2328.91 2689.00,2328.91
             2693.85,2329.27 2702.84,2329.58 2707.00,2331.77
             2707.00,2331.77 2735.00,2352.96 2735.00,2352.96
             2735.00,2352.96 2781.00,2387.60 2781.00,2387.60
             2781.00,2387.60 2798.00,2400.69 2798.00,2400.69
             2800.62,2402.83 2803.88,2404.69 2805.05,2408.04
             2805.97,2410.58 2805.21,2414.26 2805.05,2417.00
             2805.05,2417.00 2801.05,2443.00 2801.05,2443.00
             2801.05,2443.00 2798.18,2460.00 2798.18,2460.00
             2794.02,2491.67 2789.19,2519.49 2776.00,2549.00 Z" />
  <path id="Capas"
        fill="none" stroke="black" stroke-width="1"
        d="M 1651.00,2125.64
           C 1658.20,2124.38 1670.61,2129.82 1678.00,2131.85
             1710.01,2140.62 1717.31,2144.03 1747.00,2158.06
             1747.00,2158.06 1831.00,2199.47 1831.00,2199.47
             1831.00,2199.47 1867.00,2216.47 1867.00,2216.47
             1870.25,2217.22 1874.59,2216.96 1878.00,2217.00
             1878.00,2217.00 1888.00,2217.91 1888.00,2217.91
             1888.00,2217.91 1908.00,2219.17 1908.00,2219.17
             1908.00,2219.17 1931.00,2221.00 1931.00,2221.00
             1931.00,2221.00 1941.00,2221.91 1941.00,2221.91
             1941.00,2221.91 1970.00,2224.00 1970.00,2224.00
             1974.37,2224.32 1982.04,2226.09 1985.91,2224.00
             1989.10,2222.23 1990.90,2218.02 1992.74,2215.00
             1992.74,2215.00 2005.68,2194.00 2005.68,2194.00
             2008.92,2189.40 2024.73,2176.94 2030.00,2175.56
             2033.16,2174.73 2044.14,2174.96 2048.00,2175.00
             2071.51,2175.28 2096.26,2185.11 2118.00,2193.23
             2118.00,2193.23 2140.00,2201.08 2140.00,2201.08
             2148.94,2203.50 2159.80,2206.04 2169.00,2206.00
             2169.00,2206.00 2200.00,2204.00 2200.00,2204.00
             2200.00,2204.00 2219.00,2202.83 2219.00,2202.83
             2221.66,2202.58 2225.10,2201.59 2227.26,2203.74
             2229.21,2205.69 2228.62,2208.61 2228.11,2211.00
             2228.11,2211.00 2224.12,2227.00 2224.12,2227.00
             2224.12,2227.00 2216.57,2266.00 2216.57,2266.00
             2215.16,2274.36 2213.01,2284.68 2213.00,2293.00
             2213.00,2293.00 2213.00,2312.00 2213.00,2312.00
             2213.01,2320.28 2215.82,2334.27 2217.25,2343.00
             2217.25,2343.00 2225.92,2395.00 2225.92,2395.00
             2225.92,2395.00 2233.72,2444.00 2233.72,2444.00
             2233.72,2444.00 2239.72,2496.00 2239.72,2496.00
             2239.72,2496.00 2243.13,2534.00 2243.13,2534.00
             2243.07,2539.30 2246.71,2554.82 2243.13,2558.26
             2241.06,2560.46 2227.55,2560.99 2224.00,2561.00
             2224.00,2561.00 2198.00,2561.00 2198.00,2561.00
             2198.00,2561.00 2183.00,2562.00 2183.00,2562.00
             2183.00,2562.00 2165.00,2562.00 2165.00,2562.00
             2162.19,2562.04 2158.65,2562.13 2156.10,2563.43
             2150.89,2566.09 2145.06,2579.66 2141.79,2585.00
             2141.79,2585.00 2128.66,2606.00 2128.66,2606.00
             2128.66,2606.00 2111.38,2631.00 2111.38,2631.00
             2105.95,2639.61 2101.28,2649.95 2091.00,2653.48
             2091.00,2653.48 2070.00,2659.42 2070.00,2659.42
             2070.00,2659.42 2011.00,2675.72 2011.00,2675.72
             1970.74,2687.67 1930.54,2700.34 1891.00,2714.46
             1891.00,2714.46 1829.00,2736.46 1829.00,2736.46
             1829.00,2736.46 1705.00,2785.86 1705.00,2785.86
             1705.00,2785.86 1629.00,2816.14 1629.00,2816.14
             1629.00,2816.14 1586.00,2833.99 1586.00,2833.99
             1586.00,2833.99 1560.00,2844.17 1560.00,2844.17
             1560.00,2844.17 1515.00,2862.34 1515.00,2862.34
             1471.94,2875.13 1427.15,2878.48 1383.00,2885.44
             1383.00,2885.44 1329.00,2896.19 1329.00,2896.19
             1329.00,2896.19 1214.00,2920.28 1214.00,2920.28
             1214.00,2920.28 1182.00,2926.80 1182.00,2926.80
             1182.00,2926.80 1169.00,2929.56 1169.00,2929.56
             1169.00,2929.56 1160.00,2930.17 1160.00,2930.17
             1160.00,2930.17 1131.00,2933.17 1131.00,2933.17
             1131.00,2933.17 1111.00,2936.06 1111.00,2936.06
             1108.00,2936.41 1104.06,2937.34 1101.21,2936.06
             1098.70,2935.06 1096.85,2932.09 1095.18,2930.00
             1095.18,2930.00 1084.83,2918.00 1084.83,2918.00
             1084.83,2918.00 1042.61,2870.17 1042.61,2870.17
             1042.61,2870.17 971.84,2790.00 971.84,2790.00
             971.84,2790.00 891.42,2699.09 891.42,2699.09
             891.42,2699.09 878.70,2685.52 878.70,2685.52
             878.70,2685.52 844.00,2663.94 844.00,2663.94
             844.00,2663.94 772.00,2620.14 772.00,2620.14
             772.00,2620.14 743.00,2602.32 743.00,2602.32
             740.15,2600.52 733.75,2597.37 734.88,2593.21
             735.73,2590.11 745.95,2585.61 749.00,2584.10
             749.00,2584.10 790.00,2563.63 790.00,2563.63
             790.00,2563.63 820.00,2547.96 820.00,2547.96
             820.00,2547.96 884.00,2515.36 884.00,2515.36
             884.00,2515.36 953.00,2480.69 953.00,2480.69
             953.00,2480.69 1028.00,2442.64 1028.00,2442.64
             1028.00,2442.64 1107.00,2402.40 1107.00,2402.40
             1107.00,2402.40 1203.00,2353.11 1203.00,2353.11
             1203.00,2353.11 1240.00,2334.64 1240.00,2334.64
             1240.00,2334.64 1253.00,2327.50 1253.00,2327.50
             1253.00,2327.50 1405.00,2250.74 1405.00,2250.74
             1405.00,2250.74 1440.00,2231.98 1440.00,2231.98
             1440.00,2231.98 1484.00,2210.04 1484.00,2210.04
             1484.00,2210.04 1512.00,2195.36 1512.00,2195.36
             1512.00,2195.36 1575.00,2163.75 1575.00,2163.75
             1575.00,2163.75 1624.00,2138.65 1624.00,2138.65
             1624.00,2138.65 1651.00,2125.64 1651.00,2125.64 Z" />
  <path id="San Jose"
        fill="none" stroke="black" stroke-width="1"
        d="M 1782.00,1606.21
           C 1782.00,1606.21 1812.00,1606.21 1812.00,1606.21
             1822.90,1606.02 1825.07,1609.41 1834.00,1615.00
             1834.00,1615.00 1861.00,1631.39 1861.00,1631.39
             1861.00,1631.39 1912.00,1662.27 1912.00,1662.27
             1916.79,1665.15 1931.61,1673.42 1934.27,1677.17
             1936.23,1679.95 1937.62,1688.34 1938.42,1692.00
             1938.42,1692.00 1945.67,1719.00 1945.67,1719.00
             1950.55,1734.02 1952.97,1742.96 1953.00,1759.00
             1953.00,1759.00 1954.00,1780.00 1954.00,1780.00
             1954.00,1780.00 1954.00,1794.00 1954.00,1794.00
             1954.00,1794.00 1954.96,1805.00 1954.96,1805.00
             1954.96,1805.00 1954.96,1817.00 1954.96,1817.00
             1954.96,1817.00 1956.90,1842.83 1956.90,1842.83
             1956.41,1864.76 1960.48,1894.70 1963.15,1917.00
             1965.45,1936.13 1968.44,1959.91 1974.86,1978.00
             1979.56,1991.23 1991.87,2011.51 1992.82,2024.00
             1992.82,2024.00 1991.04,2040.00 1991.04,2040.00
             1990.92,2042.69 1991.44,2046.04 1989.43,2048.15
             1986.62,2051.08 1969.79,2054.12 1965.00,2055.21
             1956.26,2057.21 1948.68,2062.45 1942.17,2068.46
             1929.69,2079.99 1925.73,2100.11 1922.34,2116.00
             1920.35,2125.30 1918.01,2134.44 1918.00,2144.00
             1917.98,2159.44 1919.70,2174.80 1922.46,2190.00
             1923.18,2193.97 1927.34,2206.99 1926.67,2209.77
             1925.85,2213.19 1922.05,2212.93 1919.28,2212.85
             1919.28,2212.85 1891.00,2210.09 1891.00,2210.09
             1891.00,2210.09 1864.00,2207.96 1864.00,2207.96
             1864.00,2207.96 1823.00,2187.96 1823.00,2187.96
             1823.00,2187.96 1766.00,2158.25 1766.00,2158.25
             1766.00,2158.25 1731.00,2142.50 1731.00,2142.50
             1731.00,2142.50 1717.00,2136.06 1717.00,2136.06
             1717.00,2136.06 1676.00,2122.98 1676.00,2122.98
             1670.58,2121.27 1657.08,2116.34 1652.00,2117.65
             1647.88,2118.71 1627.83,2129.46 1623.00,2132.14
             1623.00,2132.14 1590.00,2148.75 1590.00,2148.75
             1590.00,2148.75 1445.00,2222.65 1445.00,2222.65
             1445.00,2222.65 1359.00,2267.04 1359.00,2267.04
             1359.00,2267.04 1220.00,2337.26 1220.00,2337.26
             1220.00,2337.26 959.00,2470.25 959.00,2470.25
             959.00,2470.25 790.00,2556.25 790.00,2556.25
             790.00,2556.25 744.00,2579.75 744.00,2579.75
             739.37,2582.07 728.53,2588.51 724.00,2588.69
             719.20,2588.87 708.55,2581.25 704.00,2578.58
             704.00,2578.58 654.00,2548.05 654.00,2548.05
             654.00,2548.05 531.00,2472.81 531.00,2472.81
             531.00,2472.81 461.00,2430.18 461.00,2430.18
             461.00,2430.18 407.00,2397.13 407.00,2397.13
             402.51,2394.44 388.55,2387.50 387.29,2382.83
             386.08,2378.33 390.01,2364.50 390.92,2359.00
             390.92,2359.00 399.46,2313.00 399.46,2313.00
             399.46,2313.00 402.71,2298.00 402.71,2298.00
             402.71,2298.00 404.28,2283.00 404.28,2283.00
             404.28,2283.00 405.83,2274.00 405.83,2274.00
             405.83,2274.00 408.13,2249.00 408.13,2249.00
             408.13,2249.00 409.87,2241.00 409.87,2241.00
             409.87,2241.00 412.21,2215.00 412.21,2215.00
             412.21,2215.00 413.90,2207.00 413.90,2207.00
             413.90,2207.00 415.17,2186.00 415.17,2186.00
             415.17,2186.00 417.83,2166.00 417.83,2166.00
             417.83,2166.00 419.17,2145.00 419.17,2145.00
             419.17,2145.00 422.83,2114.00 422.83,2114.00
             422.83,2114.00 424.10,2092.00 424.10,2092.00
             424.10,2092.00 425.90,2083.00 425.90,2083.00
             425.90,2083.00 428.10,2052.00 428.10,2052.00
             428.10,2052.00 429.94,2044.00 429.94,2044.00
             429.94,2044.00 429.94,2036.00 429.94,2036.00
             429.94,2036.00 432.17,2015.00 432.17,2015.00
             432.17,2015.00 433.83,2006.00 433.83,2006.00
             433.83,2006.00 436.17,1981.00 436.17,1981.00
             436.17,1981.00 437.83,1972.00 437.83,1972.00
             437.83,1972.00 440.17,1948.00 440.17,1948.00
             440.17,1948.00 441.71,1940.00 441.71,1940.00
             441.71,1940.00 449.41,1897.00 449.41,1897.00
             449.41,1897.00 451.75,1883.00 451.75,1883.00
             451.75,1883.00 454.38,1871.00 454.38,1871.00
             454.38,1871.00 457.26,1855.00 457.26,1855.00
             458.35,1850.52 458.26,1843.62 462.15,1840.73
             464.93,1838.66 477.98,1836.30 482.00,1835.58
             482.00,1835.58 516.00,1828.20 516.00,1828.20
             516.00,1828.20 566.00,1817.01 566.00,1817.01
             566.00,1817.01 638.00,1801.58 638.00,1801.58
             638.00,1801.58 954.00,1732.79 954.00,1732.79
             954.00,1732.79 1051.00,1711.58 1051.00,1711.58
             1051.00,1711.58 1100.00,1702.00 1100.00,1702.00
             1100.00,1702.00 1155.00,1702.00 1155.00,1702.00
             1157.73,1702.00 1160.34,1701.91 1163.00,1702.61
             1163.00,1702.61 1189.00,1715.75 1189.00,1715.75
             1189.00,1715.75 1262.00,1754.25 1262.00,1754.25
             1262.00,1754.25 1312.00,1780.60 1312.00,1780.60
             1322.76,1786.11 1326.11,1791.11 1339.00,1789.83
             1339.00,1789.83 1357.00,1787.01 1357.00,1787.01
             1361.34,1785.65 1367.64,1781.51 1372.00,1779.26
             1372.00,1779.26 1408.00,1759.99 1408.00,1759.99
             1408.00,1759.99 1439.00,1743.67 1439.00,1743.67
             1439.00,1743.67 1516.00,1699.33 1516.00,1699.33
             1516.00,1699.33 1563.00,1674.84 1563.00,1674.84
             1563.00,1674.84 1613.00,1648.98 1613.00,1648.98
             1613.00,1648.98 1632.00,1641.14 1632.00,1641.14
             1632.00,1641.14 1657.00,1630.55 1657.00,1630.55
             1657.00,1630.55 1690.00,1618.57 1690.00,1618.57
             1690.00,1618.57 1717.00,1609.37 1717.00,1609.37
             1717.00,1609.37 1741.00,1608.00 1741.00,1608.00
             1741.00,1608.00 1757.00,1607.00 1757.00,1607.00
             1757.00,1607.00 1782.00,1606.21 1782.00,1606.21 Z" />
  <path id="La Paz"
        fill="none" stroke="black" stroke-width="1"
        d="M 2755.98,1650.87
           C 2761.48,1651.29 2761.86,1655.41 2763.58,1660.00
             2763.58,1660.00 2773.37,1686.00 2773.37,1686.00
             2773.37,1686.00 2795.83,1743.00 2795.83,1743.00
             2795.83,1743.00 2805.74,1770.00 2805.74,1770.00
             2805.74,1770.00 2817.74,1801.00 2817.74,1801.00
             2817.74,1801.00 2824.07,1818.00 2824.07,1818.00
             2824.07,1818.00 2839.21,1865.00 2839.21,1865.00
             2841.38,1871.24 2848.55,1890.53 2847.79,1896.00
             2846.69,1903.89 2837.54,1915.75 2833.98,1923.00
             2833.98,1923.00 2824.26,1948.00 2824.26,1948.00
             2817.93,1964.26 2809.88,1986.36 2812.05,2004.00
             2812.64,2008.79 2814.08,2013.41 2815.49,2018.00
             2819.17,2029.91 2818.37,2031.01 2826.59,2042.00
             2843.01,2063.96 2867.22,2075.68 2884.86,2103.00
             2886.91,2106.18 2889.27,2109.54 2890.80,2113.00
             2894.60,2121.53 2894.06,2130.06 2893.17,2139.00
             2891.85,2152.19 2888.09,2168.01 2884.87,2181.00
             2883.72,2185.62 2879.28,2201.62 2877.20,2205.00
             2874.17,2209.91 2867.08,2217.43 2863.20,2222.00
             2858.46,2227.59 2846.44,2243.00 2843.04,2249.00
             2832.26,2268.04 2833.18,2274.14 2827.91,2294.00
             2827.91,2294.00 2820.08,2325.00 2820.08,2325.00
             2820.08,2325.00 2814.37,2347.00 2814.37,2347.00
             2814.37,2347.00 2813.00,2359.00 2813.00,2359.00
             2813.00,2359.00 2811.79,2370.00 2811.79,2370.00
             2811.79,2370.00 2810.37,2376.00 2810.37,2376.00
             2810.37,2376.00 2809.06,2386.96 2809.06,2386.96
             2808.75,2390.02 2809.03,2394.89 2804.89,2395.35
             2801.93,2395.68 2798.26,2392.78 2796.00,2391.10
             2796.00,2391.10 2776.00,2375.86 2776.00,2375.86
             2776.00,2375.86 2762.00,2365.53 2762.00,2365.53
             2762.00,2365.53 2731.00,2342.00 2731.00,2342.00
             2731.00,2342.00 2714.00,2329.49 2714.00,2329.49
             2710.82,2327.00 2707.96,2323.89 2704.00,2322.65
             2704.00,2322.65 2686.00,2320.96 2686.00,2320.96
             2686.00,2320.96 2664.00,2318.93 2664.00,2318.93
             2660.28,2318.58 2650.66,2318.08 2648.00,2316.40
             2643.49,2313.55 2635.21,2303.33 2630.99,2299.00
             2630.99,2299.00 2569.00,2226.00 2569.00,2226.00
             2563.27,2220.27 2553.44,2209.53 2547.00,2205.63
             2532.05,2196.59 2519.51,2192.75 2504.00,2186.25
             2504.00,2186.25 2481.00,2175.14 2481.00,2175.14
             2472.80,2171.11 2469.14,2169.03 2462.00,2163.16
             2460.23,2161.71 2457.48,2159.92 2456.60,2157.79
             2454.96,2153.80 2457.88,2149.46 2459.52,2146.00
             2465.19,2133.97 2465.12,2135.00 2468.11,2122.00
             2474.16,2095.70 2482.15,2065.23 2491.47,2040.00
             2497.32,2024.18 2497.61,2022.85 2506.26,2008.00
             2506.26,2008.00 2510.94,2000.00 2510.94,2000.00
             2523.12,1982.97 2536.04,1976.01 2554.00,1966.74
             2554.00,1966.74 2575.00,1955.75 2575.00,1955.75
             2575.00,1955.75 2609.00,1937.26 2609.00,1937.26
             2609.00,1937.26 2633.00,1926.72 2633.00,1926.72
             2636.95,1925.02 2641.69,1923.52 2644.28,1919.90
             2647.01,1916.06 2646.99,1910.52 2647.00,1906.00
             2647.00,1906.00 2647.00,1879.00 2647.00,1879.00
             2647.10,1871.14 2651.31,1860.81 2649.44,1855.00
             2647.60,1849.27 2634.85,1834.40 2630.74,1829.00
             2630.74,1829.00 2612.37,1807.00 2612.37,1807.00
             2612.37,1807.00 2590.19,1781.00 2590.19,1781.00
             2590.19,1781.00 2575.05,1763.00 2575.05,1763.00
             2575.05,1763.00 2547.15,1731.00 2547.15,1731.00
             2544.68,1728.19 2538.27,1721.76 2538.54,1718.02
             2538.91,1712.76 2552.58,1708.41 2557.00,1706.38
             2557.00,1706.38 2584.00,1694.53 2584.00,1694.53
             2587.88,1693.64 2599.30,1694.05 2604.00,1694.00
             2604.00,1694.00 2619.00,1693.00 2619.00,1693.00
             2619.00,1693.00 2656.00,1693.00 2656.00,1693.00
             2656.00,1693.00 2671.00,1692.00 2671.00,1692.00
             2671.00,1692.00 2687.00,1692.00 2687.00,1692.00
             2689.19,1692.00 2691.92,1692.11 2694.00,1691.44
             2697.17,1690.43 2707.75,1682.99 2711.00,1680.72
             2711.00,1680.72 2735.00,1664.34 2735.00,1664.34
             2739.91,1660.67 2750.59,1652.64 2755.98,1650.87 Z" />
  <path id="Tarlac City"
        fill="none" stroke="black" stroke-width="1"
        d="M 2051.00,1501.65
           C 2062.76,1499.84 2067.62,1508.49 2077.00,1511.69
             2077.00,1511.69 2093.00,1516.92 2093.00,1516.92
             2093.00,1516.92 2120.00,1529.31 2120.00,1529.31
             2120.00,1529.31 2140.00,1540.91 2140.00,1540.91
             2140.00,1540.91 2161.00,1544.72 2161.00,1544.72
             2161.00,1544.72 2205.00,1551.27 2205.00,1551.27
             2205.00,1551.27 2226.00,1554.71 2226.00,1554.71
             2226.00,1554.71 2255.00,1557.17 2255.00,1557.17
             2255.00,1557.17 2278.00,1559.00 2278.00,1559.00
             2278.00,1559.00 2303.00,1560.96 2303.00,1560.96
             2306.68,1561.13 2314.68,1561.15 2317.69,1563.17
             2320.28,1564.91 2320.63,1569.14 2321.20,1572.00
             2322.89,1580.44 2322.21,1582.69 2327.29,1590.00
             2327.29,1590.00 2335.48,1602.00 2335.48,1602.00
             2335.48,1602.00 2370.00,1636.66 2370.00,1636.66
             2370.00,1636.66 2383.00,1645.47 2383.00,1645.47
             2383.00,1645.47 2409.00,1661.78 2409.00,1661.78
             2409.00,1661.78 2421.00,1664.74 2421.00,1664.74
             2421.00,1664.74 2476.00,1670.44 2476.00,1670.44
             2478.62,1671.24 2486.56,1675.10 2489.00,1676.53
             2496.18,1680.74 2502.28,1690.11 2507.77,1696.34
             2507.77,1696.34 2518.17,1707.09 2518.17,1707.09
             2518.17,1707.09 2542.92,1735.41 2542.92,1735.41
             2542.92,1735.41 2566.79,1762.00 2566.79,1762.00
             2566.79,1762.00 2583.57,1782.00 2583.57,1782.00
             2583.57,1782.00 2597.17,1799.00 2597.17,1799.00
             2597.17,1799.00 2630.92,1840.00 2630.92,1840.00
             2633.88,1844.01 2642.21,1853.09 2643.63,1857.00
             2644.94,1860.60 2640.35,1869.97 2639.23,1875.00
             2639.23,1875.00 2639.23,1911.00 2639.23,1911.00
             2638.87,1918.51 2636.89,1917.71 2629.00,1921.23
             2629.00,1921.23 2605.01,1931.52 2605.01,1931.52
             2605.01,1931.52 2572.00,1950.40 2572.00,1950.40
             2554.17,1959.57 2527.43,1971.15 2514.28,1986.00
             2505.69,1995.71 2504.61,1998.05 2498.49,2009.00
             2498.49,2009.00 2491.89,2020.00 2491.89,2020.00
             2480.85,2043.17 2472.52,2077.76 2465.04,2103.00
             2460.19,2119.33 2461.68,2125.39 2453.62,2143.00
             2452.20,2146.11 2450.45,2151.21 2448.25,2153.70
             2445.66,2156.63 2435.99,2159.64 2432.00,2161.20
             2432.00,2161.20 2391.00,2176.05 2391.00,2176.05
             2391.00,2176.05 2359.00,2187.48 2359.00,2187.48
             2359.00,2187.48 2326.00,2189.00 2326.00,2189.00
             2326.00,2189.00 2314.00,2190.00 2314.00,2190.00
             2314.00,2190.00 2305.00,2190.00 2305.00,2190.00
             2305.00,2190.00 2278.00,2192.00 2278.00,2192.00
             2278.00,2192.00 2264.00,2193.00 2264.00,2193.00
             2264.00,2193.00 2253.00,2193.00 2253.00,2193.00
             2253.00,2193.00 2235.00,2194.00 2235.00,2194.00
             2235.00,2194.00 2209.00,2196.00 2209.00,2196.00
             2209.00,2196.00 2195.00,2196.96 2195.00,2196.96
             2195.00,2196.96 2181.00,2196.96 2181.00,2196.96
             2181.00,2196.96 2165.00,2197.99 2165.00,2197.99
             2150.97,2197.67 2134.98,2191.47 2122.00,2186.68
             2099.51,2178.39 2073.25,2168.29 2049.00,2168.00
             2044.71,2167.95 2031.62,2168.42 2028.00,2169.56
             2023.72,2170.90 2014.81,2178.23 2011.00,2181.19
             2007.47,2183.92 2004.62,2185.39 2001.90,2189.04
             2001.90,2189.04 1989.53,2208.00 1989.53,2208.00
             1987.87,2210.61 1985.41,2215.49 1982.70,2216.94
             1980.15,2218.31 1966.65,2216.34 1963.00,2216.09
             1963.00,2216.09 1945.00,2214.42 1945.00,2214.42
             1942.93,2214.15 1939.04,2214.06 1937.42,2212.98
             1934.16,2210.81 1932.43,2200.88 1931.28,2197.00
             1927.23,2183.36 1925.83,2154.75 1926.00,2140.00
             1926.08,2133.37 1927.50,2129.32 1928.57,2123.00
             1931.21,2107.24 1936.98,2081.00 1949.00,2070.11
             1959.98,2060.16 1981.33,2063.82 1993.98,2050.98
             1998.51,2046.40 1998.96,2045.24 1999.00,2039.00
             1999.00,2039.00 1999.00,2020.00 1999.00,2020.00
             1998.86,2011.73 1995.95,2009.93 1992.63,2003.00
             1992.63,2003.00 1983.68,1982.00 1983.68,1982.00
             1977.08,1964.46 1973.75,1940.69 1971.29,1922.00
             1971.29,1922.00 1968.71,1898.00 1968.71,1898.00
             1968.71,1898.00 1965.04,1873.00 1965.04,1873.00
             1965.04,1873.00 1965.04,1863.00 1965.04,1863.00
             1965.04,1863.00 1963.00,1837.00 1963.00,1837.00
             1963.00,1837.00 1962.00,1818.00 1962.00,1818.00
             1962.00,1818.00 1962.00,1803.00 1962.00,1803.00
             1962.00,1803.00 1961.00,1787.00 1961.00,1787.00
             1961.00,1787.00 1961.00,1783.00 1961.00,1783.00
             1961.00,1783.00 1960.09,1772.00 1960.09,1772.00
             1960.09,1772.00 1959.00,1745.00 1959.00,1745.00
             1958.90,1737.28 1955.80,1729.42 1953.74,1722.00
             1953.74,1722.00 1945.72,1692.00 1945.72,1692.00
             1944.29,1687.15 1942.75,1677.05 1940.08,1673.33
             1937.97,1670.39 1924.89,1663.12 1921.00,1660.68
             1921.00,1660.68 1876.00,1632.66 1876.00,1632.66
             1876.00,1632.66 1846.02,1614.16 1846.02,1614.16
             1839.64,1609.75 1839.21,1605.17 1848.00,1605.00
             1848.00,1605.00 1852.00,1605.00 1852.00,1605.00
             1852.00,1605.00 1865.00,1604.00 1865.00,1604.00
             1865.00,1604.00 1869.00,1604.00 1869.00,1604.00
             1879.62,1603.87 1888.88,1597.81 1899.00,1595.53
             1899.00,1595.53 1927.00,1593.49 1927.00,1593.49
             1930.52,1592.48 1942.79,1584.15 1945.71,1581.49
             1945.71,1581.49 1974.77,1546.00 1974.77,1546.00
             1978.26,1541.44 1981.52,1536.00 1986.01,1532.39
             1993.91,1526.05 2005.10,1525.99 2014.00,1521.97
             2022.45,1518.15 2033.00,1507.88 2051.00,1501.65 Z" />
  <path id="Victoria"
        fill="none" stroke="black" stroke-width="1"
        d="M 2583.00,1220.02
           C 2584.62,1219.54 2585.01,1219.07 2586.91,1219.36
             2590.76,1219.94 2598.57,1229.75 2601.39,1232.83
             2601.39,1232.83 2628.70,1262.91 2628.70,1262.91
             2631.32,1265.77 2639.74,1275.53 2642.28,1276.98
             2644.35,1278.15 2648.46,1278.09 2651.00,1278.42
             2651.00,1278.42 2660.00,1279.18 2660.00,1279.18
             2660.00,1279.18 2673.00,1281.28 2673.00,1281.28
             2673.00,1281.28 2691.00,1283.16 2691.00,1283.16
             2691.00,1283.16 2707.00,1285.72 2707.00,1285.72
             2707.00,1285.72 2723.00,1287.18 2723.00,1287.18
             2723.00,1287.18 2731.00,1288.82 2731.00,1288.82
             2731.00,1288.82 2749.00,1290.77 2749.00,1290.77
             2754.94,1291.95 2768.09,1300.04 2774.00,1303.42
             2774.00,1303.42 2818.00,1328.55 2818.00,1328.55
             2832.24,1336.99 2838.19,1338.52 2852.00,1349.74
             2855.09,1352.25 2861.21,1356.14 2862.23,1360.00
             2863.20,1363.69 2859.85,1369.57 2858.45,1373.00
             2856.46,1377.89 2854.56,1383.59 2851.59,1387.99
             2848.90,1391.97 2840.50,1399.82 2836.65,1403.80
             2825.43,1415.40 2812.56,1424.20 2799.96,1434.18
             2799.96,1434.18 2788.00,1444.56 2788.00,1444.56
             2784.78,1447.28 2770.45,1458.51 2769.19,1461.29
             2768.21,1463.46 2769.33,1466.69 2769.72,1469.00
             2770.60,1474.32 2772.18,1479.56 2771.96,1485.00
             2771.48,1496.93 2766.76,1505.51 2762.03,1516.00
             2762.03,1516.00 2752.15,1536.00 2752.15,1536.00
             2752.15,1536.00 2741.83,1555.00 2741.83,1555.00
             2738.86,1562.67 2737.87,1570.85 2738.00,1579.00
             2738.11,1585.62 2741.53,1593.69 2743.71,1600.00
             2743.71,1600.00 2750.43,1621.00 2750.43,1621.00
             2751.75,1624.66 2756.25,1635.68 2755.63,1638.99
             2754.95,1642.67 2750.87,1645.26 2748.00,1647.28
             2748.00,1647.28 2727.00,1661.80 2727.00,1661.80
             2727.00,1661.80 2704.00,1677.69 2704.00,1677.69
             2700.83,1679.77 2696.47,1683.28 2693.00,1684.35
             2690.55,1685.11 2687.56,1685.00 2685.00,1685.00
             2685.00,1685.00 2594.00,1685.00 2594.00,1685.00
             2586.32,1685.11 2583.80,1687.49 2577.00,1690.43
             2577.00,1690.43 2550.00,1702.23 2550.00,1702.23
             2545.50,1704.28 2535.66,1709.38 2531.04,1708.74
             2525.22,1707.93 2516.24,1694.68 2512.39,1690.00
             2501.20,1676.43 2495.47,1672.31 2480.00,1664.98
             2472.78,1661.55 2471.09,1662.53 2464.00,1661.58
             2464.00,1661.58 2417.00,1656.99 2417.00,1656.99
             2409.39,1655.27 2396.81,1646.43 2390.00,1641.81
             2390.00,1641.81 2374.17,1631.12 2374.17,1631.12
             2374.17,1631.12 2342.36,1600.91 2342.36,1600.91
             2342.36,1600.91 2336.72,1593.00 2336.72,1593.00
             2334.77,1590.17 2332.74,1587.15 2331.35,1584.00
             2329.65,1580.17 2326.01,1564.89 2326.61,1561.00
             2326.61,1561.00 2338.91,1530.00 2338.91,1530.00
             2338.91,1530.00 2354.85,1492.00 2354.85,1492.00
             2357.48,1488.07 2375.58,1470.22 2380.00,1466.09
             2380.00,1466.09 2415.00,1432.04 2415.00,1432.04
             2418.67,1428.52 2428.53,1420.36 2430.26,1415.96
             2431.37,1413.15 2430.96,1405.39 2431.00,1402.00
             2431.00,1402.00 2433.00,1373.00 2433.00,1373.00
             2433.00,1373.00 2433.00,1358.00 2433.00,1358.00
             2433.00,1358.00 2434.00,1344.00 2434.00,1344.00
             2434.00,1344.00 2435.52,1311.00 2435.52,1311.00
             2435.52,1311.00 2443.42,1291.00 2443.42,1291.00
             2448.69,1277.77 2452.45,1269.50 2467.00,1264.75
             2473.92,1262.49 2481.80,1262.53 2489.00,1261.83
             2489.00,1261.83 2503.00,1260.83 2503.00,1260.83
             2503.00,1260.83 2517.00,1259.09 2517.00,1259.09
             2521.34,1258.79 2533.48,1258.22 2537.00,1256.85
             2540.97,1255.31 2550.48,1247.17 2554.00,1244.05
             2561.20,1237.67 2575.48,1224.84 2583.00,1220.02 Z" />
  <path id="Gerona"
        fill="none" stroke="black" stroke-width="1"
        d="M 2338.00,1129.77
           C 2344.25,1128.76 2343.96,1131.76 2344.00,1137.00
             2344.00,1137.00 2344.00,1173.00 2344.00,1173.00
             2344.00,1173.00 2345.00,1188.00 2345.00,1188.00
             2345.00,1188.00 2345.00,1300.00 2345.00,1300.00
             2345.00,1300.00 2345.88,1315.00 2345.88,1315.00
             2345.88,1315.00 2345.88,1488.00 2345.88,1488.00
             2346.00,1490.33 2346.07,1492.70 2345.88,1495.00
             2345.88,1495.00 2328.15,1538.00 2328.15,1538.00
             2326.65,1541.49 2322.73,1553.00 2319.61,1554.21
             2317.50,1555.39 2310.78,1554.13 2308.00,1554.21
             2308.00,1554.21 2274.00,1551.15 2274.00,1551.15
             2274.00,1551.15 2234.00,1547.83 2234.00,1547.83
             2234.00,1547.83 2217.00,1545.28 2217.00,1545.28
             2217.00,1545.28 2177.00,1539.59 2177.00,1539.59
             2166.97,1537.98 2147.28,1536.73 2139.00,1532.45
             2139.00,1532.45 2130.00,1526.96 2130.00,1526.96
             2130.00,1526.96 2092.00,1509.45 2092.00,1509.45
             2092.00,1509.45 2078.00,1505.44 2078.00,1505.44
             2070.99,1502.59 2071.20,1497.59 2059.00,1495.18
             2056.38,1494.96 2053.66,1494.50 2051.00,1495.18
             2048.45,1495.33 2044.49,1497.01 2042.00,1498.00
             2042.00,1498.00 2029.00,1503.61 2029.00,1503.61
             2022.82,1507.32 2017.58,1512.58 2011.00,1515.67
             2006.35,1517.86 2004.29,1517.67 2000.00,1519.05
             1994.11,1520.94 1982.59,1526.41 1978.66,1531.04
             1978.66,1531.04 1961.92,1552.42 1961.92,1552.42
             1961.92,1552.42 1947.28,1570.00 1947.28,1570.00
             1941.80,1576.81 1933.26,1585.83 1924.00,1586.00
             1924.00,1586.00 1910.00,1586.00 1910.00,1586.00
             1907.74,1586.00 1904.32,1586.22 1902.39,1584.98
             1900.22,1583.58 1897.67,1577.53 1896.27,1575.00
             1896.27,1575.00 1884.56,1557.00 1884.56,1557.00
             1884.56,1557.00 1868.33,1533.83 1868.33,1533.83
             1868.33,1533.83 1853.96,1502.00 1853.96,1502.00
             1849.27,1493.60 1845.99,1491.03 1840.76,1484.00
             1840.76,1484.00 1821.39,1458.00 1821.39,1458.00
             1821.39,1458.00 1796.84,1426.72 1796.84,1426.72
             1795.51,1424.43 1790.78,1410.63 1790.46,1408.00
             1790.15,1405.46 1790.88,1402.50 1791.42,1400.00
             1791.42,1400.00 1793.51,1391.00 1793.51,1391.00
             1793.51,1391.00 1805.71,1364.00 1805.71,1364.00
             1809.62,1349.48 1809.80,1339.70 1807.44,1325.00
             1806.89,1321.59 1807.04,1319.41 1805.90,1316.00
             1805.90,1316.00 1792.25,1288.00 1792.25,1288.00
             1792.25,1288.00 1770.31,1248.00 1770.31,1248.00
             1770.31,1248.00 1755.20,1215.00 1755.20,1215.00
             1755.20,1215.00 1747.42,1197.00 1747.42,1197.00
             1746.52,1194.88 1745.50,1191.72 1747.42,1190.02
             1749.22,1188.72 1753.91,1188.98 1756.00,1189.00
             1756.00,1189.00 1766.00,1189.91 1766.00,1189.91
             1766.00,1189.91 1799.00,1192.83 1799.00,1192.83
             1799.00,1192.83 1819.00,1194.17 1819.00,1194.17
             1819.00,1194.17 1853.00,1198.00 1853.00,1198.00
             1853.00,1198.00 1863.00,1198.00 1863.00,1198.00
             1863.00,1198.00 1932.00,1204.83 1932.00,1204.83
             1932.00,1204.83 1963.00,1207.17 1963.00,1207.17
             1963.00,1207.17 1976.00,1208.96 1976.00,1208.96
             1976.00,1208.96 1984.00,1208.96 1984.00,1208.96
             1984.00,1208.96 2007.00,1211.17 2007.00,1211.17
             2007.00,1211.17 2020.00,1212.91 2020.00,1212.91
             2020.00,1212.91 2044.00,1214.17 2044.00,1214.17
             2044.00,1214.17 2064.00,1216.96 2064.00,1216.96
             2064.00,1216.96 2072.00,1216.96 2072.00,1216.96
             2072.00,1216.96 2101.00,1219.01 2101.00,1219.01
             2104.66,1218.49 2112.71,1213.20 2116.00,1210.97
             2116.00,1210.97 2141.00,1194.82 2141.00,1194.82
             2141.00,1194.82 2158.00,1185.26 2158.00,1185.26
             2158.00,1185.26 2182.00,1171.46 2182.00,1171.46
             2182.00,1171.46 2192.00,1167.02 2192.00,1167.02
             2192.00,1167.02 2212.00,1157.52 2212.00,1157.52
             2212.00,1157.52 2228.00,1149.87 2228.00,1149.87
             2228.00,1149.87 2256.00,1138.58 2256.00,1138.58
             2267.43,1133.82 2274.46,1129.86 2287.00,1130.00
             2287.00,1130.00 2327.00,1133.87 2327.00,1133.87
             2330.78,1133.40 2334.40,1131.13 2338.00,1129.77 Z" />
  <path id="Santa Ignacia"
        fill="none" stroke="black" stroke-width="1"
        d="M 1629.00,1075.46
           C 1634.94,1074.88 1647.00,1074.84 1653.00,1075.46
             1653.00,1075.46 1662.00,1076.83 1662.00,1076.83
             1662.00,1076.83 1674.00,1077.72 1674.00,1077.72
             1679.00,1078.31 1684.78,1076.99 1688.79,1080.43
             1692.62,1083.72 1697.07,1096.72 1699.43,1102.00
             1699.43,1102.00 1719.80,1149.00 1719.80,1149.00
             1734.67,1185.89 1750.22,1222.81 1768.78,1258.00
             1768.78,1258.00 1791.68,1302.00 1791.68,1302.00
             1797.50,1314.40 1799.96,1316.92 1801.71,1331.00
             1802.99,1341.20 1801.57,1357.52 1797.65,1367.00
             1791.66,1381.52 1789.35,1381.26 1786.00,1398.00
             1785.06,1402.69 1783.81,1406.24 1785.05,1411.00
             1790.34,1431.29 1797.64,1438.01 1810.18,1454.00
             1810.18,1454.00 1817.46,1464.00 1817.46,1464.00
             1817.46,1464.00 1847.45,1503.00 1847.45,1503.00
             1847.45,1503.00 1861.38,1535.00 1861.38,1535.00
             1861.38,1535.00 1882.88,1566.00 1882.88,1566.00
             1885.86,1570.06 1895.15,1582.91 1893.36,1587.86
             1892.32,1590.72 1888.57,1591.61 1886.00,1592.61
             1875.91,1596.55 1877.57,1595.88 1867.00,1596.00
             1867.00,1596.00 1852.00,1597.00 1852.00,1597.00
             1852.00,1597.00 1823.00,1597.00 1823.00,1597.00
             1823.00,1597.00 1808.00,1598.00 1808.00,1598.00
             1808.00,1598.00 1790.00,1598.00 1790.00,1598.00
             1790.00,1598.00 1775.00,1599.00 1775.00,1599.00
             1775.00,1599.00 1758.00,1600.00 1758.00,1600.00
             1758.00,1600.00 1741.00,1600.00 1741.00,1600.00
             1741.00,1600.00 1717.00,1601.53 1717.00,1601.53
             1717.00,1601.53 1692.00,1610.66 1692.00,1610.66
             1692.00,1610.66 1644.00,1629.14 1644.00,1629.14
             1644.00,1629.14 1617.00,1640.17 1617.00,1640.17
             1617.00,1640.17 1564.00,1667.06 1564.00,1667.06
             1564.00,1667.06 1522.00,1688.31 1522.00,1688.31
             1522.00,1688.31 1492.00,1705.43 1492.00,1705.43
             1492.00,1705.43 1455.00,1727.00 1455.00,1727.00
             1455.00,1727.00 1392.00,1760.63 1392.00,1760.63
             1392.00,1760.63 1367.00,1773.86 1367.00,1773.86
             1362.28,1776.49 1356.51,1780.59 1351.00,1780.88
             1342.30,1781.34 1345.60,1772.38 1346.61,1767.00
             1346.61,1767.00 1352.55,1738.00 1352.55,1738.00
             1352.55,1738.00 1355.63,1722.00 1355.63,1722.00
             1355.63,1722.00 1358.66,1706.00 1358.66,1706.00
             1358.66,1706.00 1369.45,1652.00 1369.45,1652.00
             1369.45,1652.00 1394.20,1528.00 1394.20,1528.00
             1394.20,1528.00 1414.00,1429.00 1414.00,1429.00
             1416.49,1416.29 1422.98,1389.48 1423.00,1378.00
             1423.00,1378.00 1423.00,1312.00 1423.00,1312.00
             1423.00,1312.00 1422.00,1296.00 1422.00,1296.00
             1422.00,1296.00 1422.00,1232.00 1422.00,1232.00
             1422.01,1228.76 1421.59,1225.06 1424.31,1222.72
             1426.40,1220.94 1438.66,1217.55 1442.00,1216.58
             1442.00,1216.58 1478.00,1205.00 1478.00,1205.00
             1478.00,1205.00 1532.00,1187.33 1532.00,1187.33
             1536.09,1186.00 1546.88,1183.27 1548.98,1179.78
             1550.20,1177.74 1550.00,1174.34 1550.00,1172.00
             1550.00,1172.00 1550.00,1153.00 1550.00,1153.00
             1550.00,1153.00 1549.00,1137.00 1549.00,1137.00
             1549.00,1137.00 1549.00,1119.00 1549.00,1119.00
             1549.05,1116.65 1548.85,1113.81 1551.31,1112.60
             1553.11,1111.72 1560.61,1112.00 1563.00,1112.00
             1563.00,1112.00 1588.00,1112.00 1588.00,1112.00
             1590.19,1112.00 1593.73,1112.22 1595.57,1110.98
             1597.69,1109.55 1598.71,1105.38 1599.51,1103.00
             1599.51,1103.00 1606.84,1084.13 1606.84,1084.13
             1609.97,1079.74 1623.56,1076.59 1629.00,1075.46 Z" />
  <path id="Mayantoc"
        fill="none" stroke="black" stroke-width="1"
        d="M 1353.00,1114.02
           C 1358.81,1112.08 1381.46,1112.95 1389.00,1113.00
             1391.77,1113.02 1394.39,1112.91 1396.90,1114.31
             1399.45,1115.75 1401.57,1119.02 1403.51,1121.29
             1409.67,1128.48 1414.94,1133.09 1415.00,1143.00
             1415.06,1152.22 1416.01,1155.38 1409.68,1163.00
             1404.23,1169.55 1392.57,1177.60 1393.19,1187.00
             1393.19,1187.00 1394.70,1195.00 1394.70,1195.00
             1394.70,1195.00 1396.57,1210.00 1396.57,1210.00
             1397.06,1213.38 1396.68,1217.01 1398.60,1220.00
             1400.02,1222.21 1402.52,1224.47 1405.00,1225.40
             1407.43,1226.32 1410.46,1225.65 1412.40,1227.60
             1414.32,1229.52 1413.99,1233.46 1414.00,1236.00
             1414.00,1236.00 1414.00,1265.00 1414.00,1265.00
             1414.00,1265.00 1415.00,1280.00 1415.00,1280.00
             1415.00,1280.00 1415.00,1320.00 1415.00,1320.00
             1415.00,1320.00 1415.96,1332.00 1415.96,1332.00
             1415.96,1332.00 1415.96,1347.00 1415.96,1347.00
             1415.96,1347.00 1416.96,1359.00 1416.96,1359.00
             1416.96,1359.00 1416.96,1375.00 1416.96,1375.00
             1416.99,1384.38 1413.02,1400.25 1411.00,1410.00
             1411.00,1410.00 1400.00,1465.00 1400.00,1465.00
             1400.00,1465.00 1377.54,1579.00 1377.54,1579.00
             1377.54,1579.00 1367.08,1630.00 1367.08,1630.00
             1367.08,1630.00 1355.00,1690.00 1355.00,1690.00
             1355.00,1690.00 1344.35,1744.00 1344.35,1744.00
             1344.35,1744.00 1338.80,1771.00 1338.80,1771.00
             1338.18,1774.22 1338.00,1780.03 1335.35,1782.14
             1331.43,1785.25 1322.81,1779.33 1319.00,1777.37
             1319.00,1777.37 1274.00,1753.63 1274.00,1753.63
             1274.00,1753.63 1244.00,1737.31 1244.00,1737.31
             1244.00,1737.31 1192.00,1709.90 1192.00,1709.90
             1185.69,1706.58 1166.77,1695.63 1161.00,1694.13
             1158.88,1693.93 1156.19,1694.00 1154.00,1694.13
             1154.00,1694.13 1098.00,1694.13 1098.00,1694.13
             1091.29,1694.08 1084.55,1696.13 1078.00,1697.58
             1078.00,1697.58 1043.00,1705.35 1043.00,1705.35
             1043.00,1705.35 946.00,1726.58 946.00,1726.58
             946.00,1726.58 740.00,1771.66 740.00,1771.66
             740.00,1771.66 621.00,1797.80 621.00,1797.80
             621.00,1797.80 577.00,1807.58 577.00,1807.58
             577.00,1807.58 504.00,1823.42 504.00,1823.42
             504.00,1823.42 476.00,1829.45 476.00,1829.45
             473.40,1829.97 467.75,1832.05 465.60,1830.23
             462.74,1827.80 466.94,1816.43 467.91,1813.00
             467.91,1813.00 475.91,1784.00 475.91,1784.00
             475.91,1784.00 482.56,1761.00 482.56,1761.00
             486.66,1744.48 499.36,1714.32 505.94,1697.00
             514.79,1673.66 522.51,1649.45 535.59,1628.00
             535.59,1628.00 556.80,1597.00 556.80,1597.00
             570.34,1577.69 583.78,1558.50 595.43,1538.00
             595.43,1538.00 626.69,1480.00 626.69,1480.00
             631.04,1471.96 643.80,1450.92 649.76,1445.01
             653.16,1441.64 657.18,1438.93 661.01,1436.08
             661.01,1436.08 673.00,1427.06 673.00,1427.06
             673.00,1427.06 703.00,1414.19 703.00,1414.19
             703.00,1414.19 745.00,1397.50 745.00,1397.50
             745.00,1397.50 773.00,1384.58 773.00,1384.58
             782.03,1380.22 801.74,1367.37 808.98,1360.82
             815.63,1354.80 817.55,1347.21 823.01,1346.81
             825.35,1346.63 829.84,1348.74 832.00,1349.78
             845.32,1356.25 848.72,1368.82 863.00,1369.00
             863.00,1369.00 901.00,1369.00 901.00,1369.00
             903.82,1369.00 907.35,1369.13 909.99,1368.11
             914.12,1366.51 927.42,1352.93 931.59,1349.00
             945.20,1336.21 967.52,1317.11 983.00,1306.98
             987.66,1303.93 1005.72,1298.36 1012.00,1296.43
             1015.85,1295.25 1022.18,1293.63 1025.25,1291.14
             1040.09,1279.10 1042.59,1266.50 1051.31,1251.00
             1054.13,1245.98 1059.20,1235.98 1064.04,1233.13
             1073.97,1227.30 1087.23,1230.87 1098.00,1231.00
             1098.00,1231.00 1107.00,1231.00 1107.00,1231.00
             1107.00,1231.00 1120.00,1230.19 1120.00,1230.19
             1126.56,1230.89 1131.79,1233.89 1141.00,1234.00
             1141.00,1234.00 1152.00,1234.00 1152.00,1234.00
             1162.90,1233.98 1165.27,1231.57 1175.00,1227.60
             1190.91,1221.12 1206.15,1212.85 1221.00,1204.28
             1221.00,1204.28 1288.00,1164.31 1288.00,1164.31
             1288.00,1164.31 1325.00,1141.51 1325.00,1141.51
             1334.73,1134.29 1343.72,1120.20 1353.00,1114.02 Z" />
  <path id="San Clemente"
        fill="none" stroke="black" stroke-width="1"
        d="M 1417.00,650.22
           C 1417.00,650.22 1422.00,650.22 1422.00,650.22
             1424.29,649.96 1429.41,649.52 1430.26,652.31
             1431.06,654.96 1426.78,660.73 1425.31,663.00
             1425.31,663.00 1407.14,691.00 1407.14,691.00
             1407.14,691.00 1394.69,710.00 1394.69,710.00
             1394.69,710.00 1369.16,750.00 1369.16,750.00
             1369.16,750.00 1358.61,766.00 1358.61,766.00
             1357.23,768.04 1353.62,773.24 1353.03,775.42
             1353.03,775.42 1353.03,784.00 1353.03,784.00
             1353.03,784.00 1353.03,820.00 1353.03,820.00
             1352.98,833.18 1347.86,834.96 1340.59,845.00
             1340.59,845.00 1331.78,857.00 1331.78,857.00
             1331.78,857.00 1325.69,866.00 1325.69,866.00
             1318.86,874.53 1313.02,879.57 1313.00,891.00
             1313.00,891.00 1312.00,915.00 1312.00,915.00
             1311.86,926.76 1306.84,929.16 1299.00,937.00
             1299.00,937.00 1272.00,963.00 1272.00,963.00
             1272.00,963.00 1256.91,978.37 1256.91,978.37
             1256.91,978.37 1250.00,983.12 1250.00,983.12
             1250.00,983.12 1229.20,1001.09 1229.20,1001.09
             1219.79,1009.40 1214.02,1011.33 1214.02,1025.00
             1214.02,1025.00 1214.02,1050.00 1214.02,1050.00
             1214.02,1050.00 1214.02,1062.00 1214.02,1062.00
             1214.02,1062.00 1214.02,1084.00 1214.02,1084.00
             1214.00,1086.19 1214.07,1088.88 1214.02,1091.00
             1214.02,1091.00 1203.83,1113.00 1203.83,1113.00
             1194.55,1132.65 1192.95,1133.58 1182.06,1151.00
             1182.06,1151.00 1170.45,1169.00 1170.45,1169.00
             1170.45,1169.00 1162.28,1179.00 1162.28,1179.00
             1153.56,1190.74 1146.93,1199.65 1136.39,1210.00
             1132.88,1213.44 1127.39,1219.04 1123.00,1220.87
             1105.77,1228.05 1100.24,1222.38 1084.00,1222.01
             1079.36,1221.91 1076.49,1222.12 1072.00,1223.44
             1069.49,1224.18 1063.08,1226.53 1061.00,1227.84
             1046.52,1236.99 1039.98,1263.31 1029.82,1277.00
             1027.86,1279.64 1024.67,1283.47 1021.99,1285.30
             1021.99,1285.30 980.00,1301.41 980.00,1301.41
             980.00,1301.41 969.00,1309.91 969.00,1309.91
             953.65,1321.19 944.75,1327.27 931.00,1341.00
             927.24,1344.75 913.02,1358.73 909.00,1360.26
             906.72,1361.13 903.45,1361.00 901.00,1361.00
             901.00,1361.00 872.00,1361.00 872.00,1361.00
             868.13,1361.00 860.34,1361.38 857.00,1360.11
             852.80,1358.51 844.28,1350.24 839.96,1347.22
             835.04,1343.78 827.18,1341.99 825.02,1338.61
             823.78,1336.66 824.00,1333.27 824.00,1331.00
             824.00,1331.00 824.00,1315.00 824.00,1315.00
             823.83,1300.70 812.30,1281.43 804.08,1270.00
             804.08,1270.00 795.30,1259.09 795.30,1259.09
             793.99,1257.47 792.02,1255.39 792.72,1253.12
             794.04,1248.80 805.79,1244.12 810.00,1242.91
             823.77,1238.94 845.57,1233.41 856.99,1225.32
             860.74,1222.65 863.31,1218.80 865.79,1215.00
             865.79,1215.00 872.04,1205.00 872.04,1205.00
             879.18,1190.73 884.58,1169.45 899.04,1160.68
             899.04,1160.68 930.00,1145.37 930.00,1145.37
             930.00,1145.37 949.00,1136.24 949.00,1136.24
             949.00,1136.24 958.00,1131.52 958.00,1131.52
             958.00,1131.52 995.00,1119.57 995.00,1119.57
             995.00,1119.57 1026.00,1113.41 1026.00,1113.41
             1029.76,1112.76 1037.74,1111.25 1040.37,1108.57
             1040.37,1108.57 1052.47,1087.00 1052.47,1087.00
             1052.47,1087.00 1073.21,1049.00 1073.21,1049.00
             1073.21,1049.00 1079.87,1036.00 1079.87,1036.00
             1079.87,1036.00 1091.90,1018.00 1091.90,1018.00
             1091.90,1018.00 1124.78,969.00 1124.78,969.00
             1124.78,969.00 1140.58,943.00 1140.58,943.00
             1140.58,943.00 1157.59,918.00 1157.59,918.00
             1165.23,907.21 1179.18,900.82 1191.00,895.37
             1195.75,893.19 1207.30,889.10 1209.69,884.82
             1211.19,882.11 1211.00,878.04 1211.00,875.00
             1211.00,875.00 1211.00,783.00 1211.00,783.00
             1211.01,780.46 1210.68,776.52 1212.60,774.60
             1214.40,772.79 1217.63,773.07 1220.00,772.83
             1220.00,772.83 1239.00,771.00 1239.00,771.00
             1243.40,770.99 1251.21,771.53 1255.00,769.69
             1259.06,767.71 1262.20,763.32 1265.16,760.00
             1265.16,760.00 1282.05,741.00 1282.05,741.00
             1282.05,741.00 1333.84,683.00 1333.84,683.00
             1333.84,683.00 1358.00,656.31 1358.00,656.31
             1362.20,653.15 1369.65,653.98 1375.00,653.54
             1375.00,653.54 1390.00,652.82 1390.00,652.82
             1395.27,652.19 1394.72,651.09 1402.00,651.00
             1407.59,650.94 1411.32,651.23 1417.00,650.22 Z" />
  <path id="Camiling"
        fill="none" stroke="black" stroke-width="1"
        d="M 1541.00,1105.00
           C 1541.00,1105.00 1542.00,1167.00 1542.00,1167.00
             1541.99,1169.85 1542.31,1173.27 1540.40,1175.61
             1538.28,1178.20 1534.05,1179.02 1531.00,1180.08
             1531.00,1180.08 1512.00,1186.49 1512.00,1186.49
             1512.00,1186.49 1430.00,1213.00 1430.00,1213.00
             1425.67,1214.43 1414.84,1218.37 1411.00,1218.82
             1408.91,1219.06 1405.63,1219.27 1404.17,1217.43
             1402.75,1215.62 1403.00,1211.26 1403.00,1209.00
             1403.00,1209.00 1403.00,1205.00 1403.00,1205.00
             1402.89,1195.97 1398.98,1187.56 1400.60,1183.00
             1402.03,1178.98 1409.67,1172.67 1412.79,1169.00
             1419.60,1160.98 1420.23,1157.72 1421.17,1148.00
             1421.47,1144.86 1422.24,1142.26 1421.79,1139.00
             1421.17,1134.65 1418.76,1131.62 1416.58,1128.00
             1412.72,1121.60 1402.94,1108.15 1396.00,1105.60
             1394.23,1104.95 1391.88,1105.01 1390.00,1105.00
             1390.00,1105.00 1361.00,1105.00 1361.00,1105.00
             1358.91,1105.00 1355.94,1104.88 1354.00,1105.60
             1350.19,1107.00 1342.26,1115.71 1339.09,1118.96
             1339.09,1118.96 1324.00,1132.93 1324.00,1132.93
             1317.73,1138.58 1303.81,1146.38 1296.00,1151.19
             1296.00,1151.19 1253.00,1177.86 1253.00,1177.86
             1231.95,1190.42 1187.57,1217.02 1166.00,1224.78
             1158.08,1227.63 1150.40,1228.68 1142.00,1227.83
             1138.54,1227.48 1133.49,1226.81 1134.84,1221.98
             1135.69,1219.00 1139.80,1215.21 1142.00,1213.00
             1147.90,1207.07 1149.48,1205.73 1154.79,1199.00
             1154.79,1199.00 1174.40,1175.00 1174.40,1175.00
             1174.40,1175.00 1185.54,1158.00 1185.54,1158.00
             1185.54,1158.00 1198.34,1139.00 1198.34,1139.00
             1203.90,1130.14 1207.83,1120.43 1212.30,1111.00
             1214.78,1105.77 1219.48,1096.41 1220.37,1091.00
             1221.33,1085.18 1219.10,1078.83 1219.24,1073.00
             1219.24,1073.00 1219.24,1066.00 1219.24,1066.00
             1219.24,1066.00 1218.34,1057.00 1218.34,1057.00
             1218.34,1057.00 1219.00,1048.00 1219.00,1048.00
             1219.00,1048.00 1219.00,1029.00 1219.00,1029.00
             1219.06,1024.44 1219.50,1020.98 1221.99,1017.00
             1224.64,1012.78 1243.92,996.65 1249.01,992.49
             1265.67,978.87 1280.80,963.20 1296.00,948.00
             1300.68,943.32 1316.19,929.04 1318.11,924.00
             1319.39,920.65 1318.96,913.81 1319.00,910.00
             1319.00,910.00 1320.91,892.00 1320.91,892.00
             1321.18,888.12 1320.48,884.62 1322.31,881.00
             1322.31,881.00 1335.60,863.00 1335.60,863.00
             1335.60,863.00 1350.87,842.00 1350.87,842.00
             1356.17,834.57 1359.93,833.62 1360.00,824.00
             1360.00,824.00 1360.00,809.00 1360.00,809.00
             1360.00,809.00 1359.04,799.00 1359.04,799.00
             1359.04,799.00 1359.04,786.00 1359.04,786.00
             1359.00,782.96 1358.90,779.94 1359.80,777.00
             1361.14,772.65 1373.73,753.89 1377.04,749.00
             1377.04,749.00 1414.47,691.00 1414.47,691.00
             1414.47,691.00 1433.18,662.00 1433.18,662.00
             1435.69,658.05 1439.34,651.23 1443.32,648.85
             1446.89,646.71 1451.06,647.21 1455.00,646.83
             1455.00,646.83 1480.00,645.00 1480.00,645.00
             1510.74,644.95 1535.13,641.57 1566.00,648.50
             1566.00,648.50 1580.00,650.96 1580.00,650.96
             1584.68,652.60 1594.26,658.34 1599.00,660.98
             1599.00,660.98 1630.00,677.78 1630.00,677.78
             1634.22,680.01 1643.88,686.17 1648.00,686.76
             1650.85,687.17 1654.08,686.29 1657.00,686.09
             1657.00,686.09 1684.00,683.29 1684.00,683.29
             1684.00,683.29 1704.00,681.83 1704.00,681.83
             1704.00,681.83 1725.00,679.17 1725.00,679.17
             1725.00,679.17 1744.00,677.72 1744.00,677.72
             1744.00,677.72 1755.00,676.71 1755.00,676.71
             1762.83,675.69 1760.65,675.22 1770.00,674.99
             1772.52,674.92 1777.55,673.81 1779.35,675.64
             1781.26,677.55 1780.02,680.83 1779.35,683.00
             1777.66,688.26 1773.93,699.57 1771.41,704.00
             1771.41,704.00 1757.59,727.00 1757.59,727.00
             1757.59,727.00 1746.00,748.00 1746.00,748.00
             1740.31,757.91 1739.07,761.14 1735.72,772.00
             1735.01,774.29 1732.95,780.04 1732.90,782.00
             1732.68,790.44 1742.92,803.97 1749.04,809.20
             1752.24,811.93 1761.16,817.76 1761.30,822.01
             1761.38,824.60 1758.70,828.68 1757.48,831.00
             1757.48,831.00 1748.88,847.00 1748.88,847.00
             1748.88,847.00 1732.14,883.00 1732.14,883.00
             1732.14,883.00 1724.86,899.00 1724.86,899.00
             1724.86,899.00 1702.29,956.00 1702.29,956.00
             1697.69,967.35 1690.02,981.91 1690.00,994.00
             1690.00,994.00 1690.00,1023.00 1690.00,1023.00
             1690.00,1023.00 1689.13,1038.00 1689.13,1038.00
             1689.13,1038.00 1689.13,1057.00 1689.13,1057.00
             1689.13,1057.00 1689.13,1065.00 1689.13,1065.00
             1689.91,1072.43 1684.66,1071.32 1679.00,1070.58
             1679.00,1070.58 1666.00,1069.83 1666.00,1069.83
             1658.69,1069.12 1657.76,1068.01 1649.00,1068.00
             1632.13,1067.97 1630.34,1066.53 1614.00,1072.43
             1610.92,1073.55 1605.55,1075.30 1603.22,1077.42
             1599.98,1080.36 1597.17,1091.27 1595.41,1096.00
             1594.58,1098.25 1593.66,1101.60 1591.58,1102.98
             1589.71,1104.22 1586.21,1104.00 1584.00,1104.00
             1584.00,1104.00 1563.00,1105.00 1563.00,1105.00
             1563.00,1105.00 1541.00,1105.00 1541.00,1105.00 Z" />
  <path id="Paniqui"
        fill="none" stroke="black" stroke-width="1"
        d="M 1768.11,828.06
           C 1777.11,825.82 1791.24,840.56 1796.54,847.00
             1796.54,847.00 1832.26,895.00 1832.26,895.00
             1837.63,902.59 1842.63,913.77 1851.00,918.14
             1864.56,925.19 1879.36,921.87 1887.00,925.69
             1891.46,927.92 1896.60,933.66 1900.42,937.19
             1903.81,940.32 1915.95,949.37 1920.04,951.01
             1922.61,952.05 1928.17,952.85 1931.00,952.96
             1939.06,953.27 1948.84,950.47 1954.71,944.79
             1959.98,939.70 1969.55,925.97 1976.00,923.60
             1977.77,922.95 1980.12,923.01 1982.00,923.00
             1982.00,923.00 2001.00,922.00 2001.00,922.00
             2001.00,922.00 2015.00,922.00 2015.00,922.00
             2015.00,922.00 2036.00,920.17 2036.00,920.17
             2040.67,919.70 2045.59,919.78 2050.00,917.93
             2057.66,914.72 2065.04,906.60 2073.00,904.94
             2073.00,904.94 2118.00,897.04 2118.00,897.04
             2118.00,897.04 2128.00,897.04 2128.00,897.04
             2128.00,897.04 2165.00,895.00 2165.00,895.00
             2165.00,895.00 2175.00,894.09 2175.00,894.09
             2183.98,893.47 2193.18,893.94 2202.00,891.65
             2206.32,890.53 2217.67,884.76 2220.91,881.79
             2224.59,878.43 2226.41,874.15 2230.09,873.06
             2233.17,872.16 2237.11,873.91 2240.00,874.95
             2246.75,877.38 2255.79,882.90 2258.40,890.00
             2259.12,891.94 2259.00,894.91 2259.00,897.00
             2259.00,897.00 2259.00,941.00 2259.00,941.00
             2259.15,949.16 2262.02,948.72 2269.00,951.00
             2277.10,953.65 2292.37,956.71 2293.74,967.00
             2294.33,971.45 2291.59,976.53 2289.07,980.00
             2289.07,980.00 2270.01,1002.00 2270.01,1002.00
             2262.62,1009.62 2249.33,1023.73 2246.61,1034.00
             2245.58,1037.90 2246.05,1049.28 2246.00,1054.00
             2246.00,1054.00 2245.04,1064.00 2245.04,1064.00
             2245.04,1064.00 2245.04,1081.00 2245.04,1081.00
             2244.99,1083.99 2244.44,1087.47 2245.81,1090.17
             2245.81,1090.17 2262.36,1112.00 2262.36,1112.00
             2264.50,1114.74 2269.05,1119.13 2268.19,1122.96
             2267.28,1127.01 2261.36,1128.33 2258.00,1129.73
             2258.00,1129.73 2226.00,1142.85 2226.00,1142.85
             2203.61,1152.54 2159.62,1176.23 2138.00,1188.86
             2138.00,1188.86 2102.00,1210.78 2102.00,1210.78
             2097.07,1212.58 2088.54,1210.16 2083.00,1210.01
             2083.00,1210.01 2027.00,1205.09 2027.00,1205.09
             2027.00,1205.09 1954.00,1198.00 1954.00,1198.00
             1954.00,1198.00 1944.00,1198.00 1944.00,1198.00
             1944.00,1198.00 1910.00,1194.17 1910.00,1194.17
             1910.00,1194.17 1879.00,1191.83 1879.00,1191.83
             1879.00,1191.83 1829.00,1187.09 1829.00,1187.09
             1829.00,1187.09 1764.00,1181.17 1764.00,1181.17
             1759.69,1180.75 1743.22,1180.27 1740.60,1178.15
             1737.38,1175.55 1735.91,1168.86 1734.22,1165.00
             1734.22,1165.00 1718.72,1127.00 1718.72,1127.00
             1718.72,1127.00 1705.88,1099.00 1705.88,1099.00
             1701.39,1089.84 1697.02,1082.42 1697.00,1072.00
             1697.00,1072.00 1697.00,1014.00 1697.00,1014.00
             1697.00,1014.00 1698.00,999.00 1698.00,999.00
             1698.04,994.94 1697.70,987.64 1698.53,984.00
             1698.53,984.00 1711.55,951.00 1711.55,951.00
             1711.55,951.00 1731.58,902.00 1731.58,902.00
             1731.58,902.00 1747.89,864.00 1747.89,864.00
             1747.89,864.00 1754.16,852.00 1754.16,852.00
             1756.79,846.38 1763.75,831.45 1768.11,828.06 Z" />
  <path id="Pura"
        fill="none" stroke="black" stroke-width="1"
        d="M 2459.96,1066.07
           C 2467.92,1066.15 2464.56,1078.77 2467.17,1084.00
             2468.67,1087.01 2477.29,1095.82 2480.15,1099.01
             2480.15,1099.01 2504.17,1126.00 2504.17,1126.00
             2504.17,1126.00 2534.83,1159.00 2534.83,1159.00
             2534.83,1159.00 2556.09,1183.00 2556.09,1183.00
             2556.09,1183.00 2574.87,1203.42 2574.87,1203.42
             2576.88,1205.74 2580.34,1209.39 2578.87,1212.72
             2578.13,1214.38 2574.46,1217.55 2573.00,1218.85
             2573.00,1218.85 2559.00,1230.66 2559.00,1230.66
             2553.45,1235.10 2541.28,1246.98 2536.00,1249.43
             2532.02,1251.28 2519.82,1251.82 2515.00,1252.04
             2515.00,1252.04 2489.00,1254.00 2489.00,1254.00
             2485.46,1254.01 2475.11,1254.75 2472.00,1255.63
             2472.00,1255.63 2465.00,1258.55 2465.00,1258.55
             2460.99,1260.21 2456.46,1261.71 2453.02,1264.41
             2444.03,1271.46 2439.80,1281.93 2435.42,1292.00
             2433.70,1295.97 2430.35,1303.04 2429.46,1307.00
             2429.46,1307.00 2426.00,1356.00 2426.00,1356.00
             2426.00,1356.00 2425.00,1383.00 2425.00,1383.00
             2425.00,1383.00 2423.00,1406.00 2423.00,1406.00
             2422.97,1408.49 2423.22,1412.77 2422.40,1415.00
             2420.91,1419.04 2412.69,1425.71 2409.20,1429.20
             2409.20,1429.20 2377.00,1460.00 2377.00,1460.00
             2374.12,1462.87 2361.98,1475.42 2359.02,1476.04
             2353.57,1477.18 2354.01,1470.36 2354.00,1467.00
             2354.00,1467.00 2354.00,1317.00 2354.00,1317.00
             2354.00,1317.00 2353.00,1302.00 2353.00,1302.00
             2353.00,1302.00 2353.00,1190.00 2353.00,1190.00
             2353.00,1190.00 2352.00,1175.00 2352.00,1175.00
             2352.00,1175.00 2352.00,1130.00 2352.00,1130.00
             2352.00,1127.93 2351.89,1124.92 2352.60,1123.00
             2354.70,1117.35 2368.81,1108.68 2374.00,1104.55
             2383.88,1096.69 2408.53,1080.07 2420.00,1076.10
             2429.09,1072.95 2438.45,1073.94 2447.00,1071.98
             2452.76,1070.67 2454.88,1068.15 2459.96,1066.07 Z" />
  <path id="Ramos"
        fill="none" stroke="black" stroke-width="1"
        d="M 2295.00,892.21
           C 2295.00,892.21 2305.00,892.21 2305.00,892.21
             2310.97,892.07 2336.05,897.13 2342.00,899.09
             2342.00,899.09 2371.00,911.35 2371.00,911.35
             2376.40,913.69 2393.41,919.97 2396.77,923.27
             2399.65,926.10 2399.63,928.66 2401.26,932.00
             2401.26,932.00 2407.66,943.00 2407.66,943.00
             2407.66,943.00 2436.31,990.00 2436.31,990.00
             2436.31,990.00 2459.45,1029.00 2459.45,1029.00
             2461.41,1034.55 2460.66,1036.74 2461.28,1042.00
             2461.65,1045.11 2462.70,1051.04 2462.11,1053.96
             2461.38,1057.56 2457.84,1059.82 2455.00,1061.83
             2448.85,1066.17 2442.07,1065.36 2435.00,1066.29
             2435.00,1066.29 2422.00,1068.84 2422.00,1068.84
             2416.98,1070.12 2411.67,1073.24 2407.00,1075.53
             2389.20,1084.23 2374.03,1096.93 2358.17,1108.65
             2351.68,1113.44 2336.53,1123.81 2329.00,1125.79
             2326.68,1126.14 2321.57,1126.03 2319.00,1125.79
             2319.00,1125.79 2292.00,1123.16 2292.00,1123.16
             2288.23,1122.76 2282.39,1122.59 2279.10,1120.69
             2275.46,1118.58 2265.10,1104.12 2261.96,1100.00
             2255.06,1090.93 2251.85,1090.70 2252.01,1079.00
             2252.01,1079.00 2253.00,1056.00 2253.00,1056.00
             2253.00,1056.00 2254.20,1043.00 2254.20,1043.00
             2254.03,1040.40 2253.84,1036.42 2254.20,1034.00
             2255.44,1029.67 2260.96,1020.32 2264.10,1017.17
             2264.10,1017.17 2271.95,1009.99 2271.95,1009.99
             2271.95,1009.99 2278.08,1002.61 2278.08,1002.61
             2278.08,1002.61 2289.37,989.99 2289.37,989.99
             2292.92,985.65 2298.98,978.56 2300.27,973.00
             2302.11,965.02 2297.21,959.17 2292.00,954.00
             2289.53,951.55 2287.24,949.11 2284.00,947.70
             2280.19,946.03 2269.06,943.86 2267.02,940.70
             2265.79,938.79 2266.00,935.24 2266.00,933.00
             2266.00,933.00 2266.00,902.00 2266.00,902.00
             2266.05,899.48 2265.95,896.60 2268.31,895.02
             2270.05,893.87 2273.84,893.98 2276.00,893.72
             2276.00,893.72 2295.00,892.21 2295.00,892.21 Z" />
  <path id="Anao"
        fill="none" stroke="black" stroke-width="1"
        d="M 2360.00,789.00
           C 2369.75,799.87 2369.05,802.94 2375.03,814.00
             2375.03,814.00 2387.37,839.00 2387.37,839.00
             2387.37,839.00 2389.28,855.00 2389.28,855.00
             2389.28,855.00 2393.17,883.00 2393.17,883.00
             2393.17,883.00 2396.28,905.00 2396.28,905.00
             2396.57,907.53 2397.53,911.34 2394.69,912.87
             2391.84,914.41 2384.95,910.25 2382.00,909.01
             2382.00,909.01 2346.00,892.92 2346.00,892.92
             2340.21,890.63 2311.01,884.15 2305.00,884.01
             2305.00,884.01 2277.00,886.09 2277.00,886.09
             2273.92,886.30 2269.05,887.47 2266.17,886.71
             2260.81,885.29 2255.17,874.79 2246.00,870.59
             2237.11,866.53 2218.89,861.40 2213.93,853.00
             2212.98,851.39 2212.23,848.82 2211.57,847.00
             2207.46,835.76 2209.15,834.08 2210.04,823.00
             2210.04,823.00 2210.04,813.00 2210.04,813.00
             2211.07,803.60 2215.68,788.87 2219.20,780.00
             2219.20,780.00 2232.13,752.00 2232.13,752.00
             2234.93,744.45 2240.91,725.49 2241.00,718.00
             2241.00,718.00 2240.00,701.00 2240.00,701.00
             2239.96,692.80 2238.71,684.62 2235.47,677.00
             2231.14,666.80 2225.97,664.05 2222.86,650.00
             2221.06,643.60 2222.92,637.40 2222.86,631.00
             2222.86,631.00 2222.86,579.00 2222.86,579.00
             2222.99,574.60 2220.17,562.51 2225.23,560.92
             2227.56,560.19 2230.91,561.80 2233.00,562.78
             2233.00,562.78 2249.00,570.93 2249.00,570.93
             2267.43,580.61 2285.52,591.36 2305.00,598.83
             2311.17,601.20 2327.61,604.70 2330.69,610.10
             2332.20,612.77 2331.93,616.03 2332.28,619.00
             2332.28,619.00 2334.17,644.00 2334.17,644.00
             2334.17,644.00 2335.83,653.00 2335.83,653.00
             2335.83,653.00 2338.17,687.00 2338.17,687.00
             2338.17,687.00 2339.91,699.00 2339.91,699.00
             2339.91,699.00 2342.01,727.00 2342.01,727.00
             2342.01,727.00 2342.01,735.00 2342.01,735.00
             2342.01,735.00 2343.79,743.00 2343.79,743.00
             2344.31,746.70 2343.58,750.27 2344.63,754.00
             2344.63,754.00 2354.98,775.00 2354.98,775.00
             2356.60,778.04 2362.00,786.20 2360.00,789.00 Z" />
  <path id="Moncada"
        fill="none" stroke="black" stroke-width="1"
        d="M 1914.00,662.00
           C 1923.34,658.91 1931.38,658.86 1941.00,657.84
             1941.00,657.84 1970.00,654.17 1970.00,654.17
             1975.68,653.60 1989.27,652.80 1993.83,650.02
             1996.50,648.39 2000.35,642.69 2002.42,640.00
             2002.42,640.00 2021.65,614.00 2021.65,614.00
             2021.65,614.00 2029.43,604.00 2029.43,604.00
             2029.43,604.00 2048.00,572.00 2048.00,572.00
             2048.00,572.00 2063.82,544.00 2063.82,544.00
             2063.82,544.00 2089.14,476.00 2089.14,476.00
             2089.14,476.00 2095.75,455.00 2095.75,455.00
             2095.75,455.00 2101.82,436.91 2101.82,436.91
             2101.82,436.91 2110.81,402.00 2110.81,402.00
             2110.81,402.00 2115.65,392.00 2115.65,392.00
             2115.65,392.00 2122.43,372.02 2122.43,372.02
             2123.15,369.93 2124.25,366.71 2127.07,367.03
             2129.85,367.34 2132.63,371.89 2134.23,374.00
             2141.76,383.93 2141.82,387.47 2145.28,399.00
             2145.28,399.00 2148.54,410.00 2148.54,410.00
             2148.54,410.00 2151.78,418.00 2151.78,418.00
             2151.78,418.00 2154.75,430.00 2154.75,430.00
             2154.75,430.00 2159.07,441.00 2159.07,441.00
             2159.07,441.00 2160.44,451.00 2160.44,451.00
             2162.25,458.55 2175.00,493.45 2178.47,500.00
             2178.47,500.00 2193.49,527.58 2193.49,527.58
             2193.49,527.58 2207.58,541.08 2207.58,541.08
             2210.12,543.26 2213.04,544.89 2214.49,548.04
             2216.53,552.47 2215.96,565.43 2215.87,571.00
             2215.87,571.00 2215.87,627.00 2215.87,627.00
             2215.87,627.00 2215.00,636.00 2215.00,636.00
             2214.89,645.87 2217.85,657.01 2221.95,666.00
             2221.95,666.00 2228.29,679.00 2228.29,679.00
             2233.44,692.50 2232.18,689.70 2233.09,703.00
             2233.09,703.00 2234.00,713.00 2234.00,713.00
             2234.15,726.31 2232.11,728.74 2228.19,741.00
             2228.19,741.00 2213.86,776.00 2213.86,776.00
             2211.09,782.72 2204.97,801.93 2203.61,809.00
             2202.69,813.82 2200.64,832.77 2201.13,837.00
             2201.42,839.55 2205.82,851.65 2207.13,854.00
             2212.17,863.07 2225.76,866.99 2218.49,875.79
             2216.49,878.21 2213.77,879.20 2211.00,880.42
             2199.55,885.46 2200.32,885.23 2188.00,886.09
             2188.00,886.09 2164.00,888.00 2164.00,888.00
             2164.00,888.00 2129.00,888.00 2129.00,888.00
             2121.34,888.09 2108.12,891.49 2100.00,892.92
             2089.97,894.67 2076.02,895.52 2067.00,899.36
             2059.34,902.62 2055.67,910.12 2048.00,912.28
             2044.00,913.41 2039.20,912.77 2035.00,913.17
             2035.00,913.17 2010.00,915.00 2010.00,915.00
             2010.00,915.00 1986.00,915.00 1986.00,915.00
             1972.78,915.02 1967.48,920.38 1959.27,930.00
             1953.07,937.27 1950.13,944.86 1940.00,945.00
             1935.41,945.06 1924.87,945.51 1921.00,944.00
             1908.06,938.93 1901.26,926.59 1892.00,920.84
             1885.90,917.05 1871.40,915.42 1864.00,914.42
             1859.85,913.86 1855.76,914.20 1852.33,911.35
             1852.33,911.35 1837.09,890.00 1837.09,890.00
             1825.97,874.46 1805.60,845.12 1792.00,833.18
             1779.55,822.27 1757.01,812.20 1747.30,798.99
             1744.02,794.53 1738.82,787.74 1739.34,782.00
             1740.14,773.19 1748.65,756.81 1753.13,749.00
             1753.13,749.00 1769.47,720.00 1769.47,720.00
             1769.47,720.00 1778.87,703.00 1778.87,703.00
             1778.87,703.00 1786.30,682.00 1786.30,682.00
             1787.41,679.14 1788.43,675.70 1791.14,673.98
             1795.26,671.37 1805.11,671.18 1810.00,670.96
             1810.00,670.96 1827.00,669.17 1827.00,669.17
             1832.04,668.66 1835.73,669.27 1840.00,666.00
             1843.22,666.87 1846.50,667.89 1844.30,672.02
             1844.30,672.02 1837.18,681.00 1837.18,681.00
             1830.84,690.93 1828.16,695.39 1826.42,707.00
             1826.21,709.69 1825.77,712.28 1826.42,715.00
             1826.73,717.47 1828.80,721.71 1830.01,724.00
             1831.00,725.84 1834.11,731.42 1835.41,732.69
             1838.54,735.75 1843.07,735.08 1847.00,734.39
             1857.74,732.49 1860.56,729.95 1870.00,726.12
             1884.48,720.25 1898.72,713.00 1910.00,701.99
             1917.24,694.91 1917.49,695.44 1919.67,686.00
             1920.08,684.25 1920.95,681.71 1920.91,680.00
             1920.81,675.69 1915.72,669.23 1914.00,662.00 Z
           M 1850.00,671.00
           C 1851.74,667.32 1856.48,661.12 1860.17,659.39
             1864.41,657.41 1873.10,658.06 1878.00,658.00
             1883.89,657.93 1884.57,657.22 1890.00,656.00
             1894.32,659.20 1899.03,658.27 1904.00,659.27
             1904.00,659.27 1912.00,662.00 1912.00,662.00
             1912.00,662.00 1919.06,679.00 1919.06,679.00
             1919.64,681.51 1916.84,691.77 1915.41,694.00
             1911.62,699.88 1902.86,706.10 1897.00,709.93
             1897.00,709.93 1889.00,715.47 1889.00,715.47
             1889.00,715.47 1862.00,727.60 1862.00,727.60
             1856.59,730.00 1843.88,734.86 1838.24,732.26
             1834.63,730.60 1829.02,718.93 1828.14,715.00
             1828.14,715.00 1828.14,706.00 1828.14,706.00
             1828.12,698.07 1835.22,686.63 1839.76,680.17
             1842.39,676.43 1846.55,674.53 1847.00,670.00
             1847.00,670.00 1850.00,671.00 1850.00,671.00 Z" />
  <path id="San Manuel"
        fill="none" stroke="black" stroke-width="1"
        d="M 2202.00,144.88
           C 2211.78,144.54 2215.08,155.81 2218.97,163.00
             2218.97,163.00 2251.10,225.00 2251.10,225.00
             2251.10,225.00 2272.26,266.00 2272.26,266.00
             2272.26,266.00 2279.78,280.00 2279.78,280.00
             2279.78,280.00 2285.58,295.00 2285.58,295.00
             2285.58,295.00 2306.06,347.00 2306.06,347.00
             2306.06,347.00 2318.45,379.00 2318.45,379.00
             2320.07,383.09 2323.73,391.08 2324.76,395.00
             2324.76,395.00 2324.76,414.00 2324.76,414.00
             2324.76,414.00 2324.04,425.00 2324.04,425.00
             2324.04,425.00 2324.83,438.00 2324.83,438.00
             2324.83,438.00 2324.00,457.00 2324.00,457.00
             2323.98,466.63 2322.79,464.10 2322.06,470.00
             2322.06,470.00 2322.06,481.00 2322.06,481.00
             2322.02,490.63 2323.21,488.10 2323.94,494.00
             2323.94,494.00 2323.94,508.00 2323.94,508.00
             2323.94,508.00 2325.00,523.00 2325.00,523.00
             2325.00,523.00 2326.00,553.00 2326.00,553.00
             2326.02,562.63 2327.21,560.10 2327.87,566.00
             2327.87,566.00 2329.00,587.00 2329.00,587.00
             2329.03,589.49 2329.53,595.38 2327.40,596.96
             2325.15,598.64 2320.38,596.65 2318.00,595.82
             2318.00,595.82 2292.00,584.93 2292.00,584.93
             2292.00,584.93 2248.00,563.07 2248.00,563.07
             2248.00,563.07 2231.00,554.31 2231.00,554.31
             2231.00,554.31 2212.00,537.00 2212.00,537.00
             2207.86,532.89 2199.80,526.36 2197.21,522.00
             2182.57,497.41 2175.39,474.85 2166.81,448.00
             2166.81,448.00 2162.34,436.00 2162.34,436.00
             2162.34,436.00 2157.51,419.00 2157.51,419.00
             2157.51,419.00 2154.92,411.00 2154.92,411.00
             2154.92,411.00 2153.49,403.00 2153.49,403.00
             2153.49,403.00 2148.73,386.00 2148.73,386.00
             2146.81,379.57 2140.33,371.60 2136.17,366.00
             2133.29,362.12 2129.67,358.10 2129.48,353.00
             2129.33,348.73 2136.89,327.85 2138.57,322.00
             2138.57,322.00 2161.80,246.00 2161.80,246.00
             2161.80,246.00 2171.82,212.00 2171.82,212.00
             2171.82,212.00 2186.34,173.00 2186.34,173.00
             2187.77,168.16 2192.64,151.41 2195.50,148.41
             2197.35,146.47 2199.55,145.72 2202.00,144.88 Z" />
</svg>
