<?xml version="1.0" encoding="UTF-8" standalone="no"?>
<!DOCTYPE svg PUBLIC "-//W3C//DTD SVG 20010904//EN"
              "http://www.w3.org/TR/2001/REC-SVG-20010904/DTD/svg10.dtd">

<svg xmlns="http://www.w3.org/2000/svg"
     width="1354.71mm" height="1422.73mm"
     viewBox="0 0 3147 3305">
  <path id="Sibutad"
        fill="none" stroke="black" stroke-width="1"
        d="M 2795.00,785.00
           C 2795.00,785.00 2795.00,679.00 2795.00,679.00
             2795.00,679.00 2795.87,667.00 2795.87,667.00
             2795.87,667.00 2795.87,659.58 2795.87,659.58
             2795.87,659.58 2795.87,635.99 2795.87,635.99
             2795.87,635.99 2795.87,585.00 2795.87,585.00
             2796.00,582.81 2795.75,579.46 2796.99,577.61
             2798.41,575.50 2805.47,571.89 2808.00,570.40
             2808.00,570.40 2835.00,554.85 2835.00,554.85
             2841.87,550.93 2847.84,549.66 2848.00,541.00
             2848.06,537.60 2847.34,525.92 2848.99,523.65
             2852.22,519.22 2858.57,521.64 2861.37,525.11
             2865.56,530.31 2871.42,544.22 2869.57,551.00
             2867.00,560.43 2848.32,564.64 2843.95,572.09
             2840.85,577.37 2847.34,578.98 2852.00,584.00
             2847.52,586.11 2840.44,588.65 2837.89,593.04
             2834.99,598.05 2840.42,607.62 2841.96,613.00
             2842.57,615.11 2843.08,619.25 2844.02,620.78
             2845.99,624.00 2852.12,625.29 2857.77,632.01
             2862.02,637.07 2860.15,639.65 2863.31,642.15
             2866.03,644.29 2869.51,643.38 2872.95,645.51
             2877.39,648.25 2879.93,659.95 2880.00,665.00
             2880.00,665.00 2878.09,692.00 2878.09,692.00
             2878.09,692.00 2873.91,759.00 2873.91,759.00
             2873.91,759.00 2872.00,786.00 2872.00,786.00
             2872.00,786.00 2849.00,785.00 2849.00,785.00
             2849.00,785.00 2795.00,785.00 2795.00,785.00 Z" />
  <path id="Rizal"
        fill="none" stroke="black" stroke-width="1"
        d="M 2895.00,795.00
           C 2889.37,793.94 2885.14,791.26 2880.00,788.86
             2877.94,787.89 2875.54,787.09 2874.81,784.78
             2873.92,782.95 2874.93,777.45 2874.81,775.00
             2874.81,775.00 2876.91,748.00 2876.91,748.00
             2876.91,748.00 2880.09,696.00 2880.09,696.00
             2880.09,696.00 2882.00,661.00 2882.00,661.00
             2881.99,656.34 2880.47,645.70 2884.31,642.49
             2888.17,639.52 2890.70,643.89 2898.58,642.49
             2898.58,642.49 2905.00,640.46 2905.00,640.46
             2905.00,640.46 2916.00,638.66 2916.00,638.66
             2918.34,638.39 2921.23,638.37 2921.93,641.23
             2922.71,644.34 2918.49,650.09 2917.00,653.00
             2927.74,652.47 2929.85,646.31 2935.91,648.60
             2939.37,649.91 2943.62,656.89 2947.00,660.00
             2947.00,660.00 2946.00,690.00 2946.00,690.00
             2946.00,690.00 2944.31,715.96 2944.31,715.96
             2944.31,715.96 2944.95,723.09 2944.95,723.09
             2944.95,723.09 2944.95,739.00 2944.95,739.00
             2944.95,739.00 2943.96,754.00 2943.96,754.00
             2943.96,754.00 2943.96,770.00 2943.96,770.00
             2943.96,770.00 2943.00,782.00 2943.00,782.00
             2943.00,782.00 2942.00,840.00 2942.00,840.00
             2942.00,840.00 2941.00,855.00 2941.00,855.00
             2941.00,855.00 2941.00,873.00 2941.00,873.00
             2941.00,873.00 2925.38,864.21 2925.38,864.21
             2925.38,864.21 2913.81,847.00 2913.81,847.00
             2913.81,847.00 2903.53,830.00 2903.53,830.00
             2903.53,830.00 2895.00,795.00 2895.00,795.00 Z" />
  <path id="Lalibertad"
        fill="none" stroke="black" stroke-width="1"
        d="M 2874.00,789.00
           C 2877.08,789.88 2890.38,795.55 2892.10,797.65
             2893.59,799.47 2894.98,806.41 2895.63,809.00
             2897.83,817.80 2899.20,827.17 2903.96,835.00
             2903.96,835.00 2923.21,864.79 2923.21,864.79
             2927.00,868.58 2939.05,873.42 2940.43,876.39
             2941.76,879.26 2940.05,888.20 2939.78,892.00
             2939.78,892.00 2939.78,917.00 2939.78,917.00
             2939.78,917.00 2939.78,935.00 2939.78,935.00
             2939.78,935.00 2939.78,945.00 2939.78,945.00
             2939.78,945.00 2939.00,964.00 2939.00,964.00
             2939.00,964.00 2938.04,976.00 2938.04,976.00
             2938.04,976.00 2938.04,991.00 2938.04,991.00
             2938.04,991.00 2915.00,990.00 2915.00,990.00
             2915.00,990.00 2898.00,989.00 2898.00,989.00
             2898.00,989.00 2860.00,988.00 2860.00,988.00
             2860.00,988.00 2862.09,960.00 2862.09,960.00
             2862.09,960.00 2865.09,916.00 2865.09,916.00
             2865.09,916.00 2871.09,828.00 2871.09,828.00
             2871.09,828.00 2873.09,799.00 2873.09,799.00
             2873.09,799.00 2874.00,789.00 2874.00,789.00 Z" />
  <path id="Mutia"
        fill="none" stroke="black" stroke-width="1"
        d="M 2934.04,1129.00
           C 2934.04,1129.00 2913.00,1129.00 2913.00,1129.00
             2901.52,1128.98 2904.32,1126.51 2895.71,1117.04
             2892.91,1113.96 2887.39,1109.49 2884.00,1106.89
             2867.52,1094.22 2840.92,1082.22 2822.00,1070.80
             2812.84,1065.26 2802.02,1060.28 2796.32,1051.00
             2782.16,1027.96 2779.10,1000.43 2787.27,974.72
             2789.74,966.95 2791.14,959.49 2797.47,953.39
             2802.66,948.38 2809.53,948.28 2816.00,946.51
             2816.00,946.51 2826.00,943.00 2826.00,943.00
             2826.00,943.00 2847.34,975.00 2847.34,975.00
             2847.34,975.00 2858.18,988.98 2858.18,988.98
             2858.18,988.98 2868.00,990.09 2868.00,990.09
             2868.00,990.09 2891.00,991.00 2891.00,991.00
             2891.00,991.00 2906.00,992.00 2906.00,992.00
             2906.00,992.00 2918.00,992.00 2918.00,992.00
             2918.00,992.00 2938.00,993.00 2938.00,993.00
             2938.00,993.00 2937.00,1007.00 2937.00,1007.00
             2937.00,1007.00 2936.00,1065.00 2936.00,1065.00
             2936.00,1065.00 2935.00,1081.00 2935.00,1081.00
             2935.00,1081.00 2935.00,1102.00 2935.00,1102.00
             2935.00,1102.00 2934.04,1114.00 2934.04,1114.00
             2934.04,1114.00 2934.04,1129.00 2934.04,1129.00 Z" />
  <path id="Pinan"
        fill="none" stroke="black" stroke-width="1"
        d="M 2694.00,1129.00
           C 2694.00,1129.00 2695.00,1112.00 2695.00,1112.00
             2695.00,1112.00 2695.00,1074.00 2695.00,1074.00
             2695.00,1074.00 2696.00,1057.00 2696.00,1057.00
             2696.00,1057.00 2696.00,1019.00 2696.00,1019.00
             2696.02,1004.33 2700.45,1007.91 2704.93,997.00
             2706.58,992.97 2706.21,987.36 2706.16,983.04
             2706.08,976.54 2706.07,962.64 2703.78,957.00
             2701.24,950.77 2694.07,944.20 2691.21,938.00
             2687.49,930.92 2689.34,918.43 2691.21,911.00
             2698.08,887.30 2715.57,867.67 2738.00,857.67
             2742.55,855.63 2758.37,851.14 2762.82,853.19
             2765.12,854.25 2767.27,857.92 2768.72,860.00
             2768.72,860.00 2779.67,876.00 2779.67,876.00
             2779.67,876.00 2809.67,920.00 2809.67,920.00
             2813.98,926.39 2820.30,933.94 2823.00,941.00
             2811.71,947.25 2801.18,944.07 2792.64,956.00
             2786.55,964.50 2779.54,991.51 2780.32,1002.00
             2780.32,1002.00 2781.29,1016.00 2781.29,1016.00
             2782.90,1028.41 2790.48,1048.97 2799.10,1057.96
             2803.19,1062.22 2813.53,1068.02 2819.00,1071.42
             2819.00,1071.42 2871.00,1100.58 2871.00,1100.58
             2883.50,1108.36 2894.48,1115.92 2902.00,1129.00
             2902.00,1129.00 2694.00,1129.00 2694.00,1129.00 Z" />
  <path id="Polanco"
        fill="none" stroke="black" stroke-width="1"
        d="M 2637.89,807.00
           C 2640.76,798.75 2638.69,787.63 2646.10,781.61
             2650.41,778.12 2656.61,777.04 2662.00,776.47
             2665.45,776.10 2667.91,776.99 2670.90,774.65
             2673.49,772.62 2674.72,769.56 2676.63,767.04
             2678.18,765.00 2683.99,759.42 2686.09,757.59
             2688.37,755.60 2691.60,752.62 2694.90,753.66
             2697.78,754.56 2699.55,758.57 2701.01,761.00
             2701.01,761.00 2712.67,778.00 2712.67,778.00
             2712.67,778.00 2752.80,837.72 2752.80,837.72
             2756.03,842.83 2757.61,843.08 2761.00,850.00
             2752.06,850.72 2743.23,852.44 2735.00,856.18
             2730.12,858.40 2724.22,863.03 2720.00,866.40
             2702.09,880.71 2687.28,901.12 2687.00,925.00
             2686.95,929.37 2686.71,933.93 2688.56,938.00
             2688.56,938.00 2700.95,956.00 2700.95,956.00
             2703.01,960.34 2702.99,964.34 2703.00,969.00
             2703.01,974.96 2703.79,993.54 2701.92,998.00
             2700.80,1000.65 2697.69,1006.27 2694.13,1004.83
             2691.89,1003.93 2685.67,996.25 2683.89,994.04
             2673.80,981.57 2670.49,973.62 2662.30,961.00
             2653.92,948.09 2643.53,947.00 2638.23,938.00
             2635.60,933.53 2635.01,923.29 2635.00,918.00
             2634.99,915.14 2635.13,911.77 2634.47,909.00
             2632.59,901.08 2620.43,887.69 2616.59,874.00
             2614.46,865.45 2614.77,859.58 2616.59,851.01
             2617.60,846.59 2618.32,842.60 2620.03,838.30
             2620.03,838.30 2634.60,816.48 2637.89,807.00 Z" />
  <path id="Dapitan"
        fill="none" stroke="black" stroke-width="1"
        d="M 2713.34,231.02
           C 2722.21,227.76 2731.52,235.51 2733.47,244.00
             2734.53,248.59 2733.59,251.61 2732.66,256.00
             2731.84,259.88 2731.76,264.62 2727.87,266.82
             2724.84,268.54 2721.02,267.97 2719.17,264.85
             2719.17,264.85 2716.65,251.00 2716.65,251.00
             2714.53,243.24 2704.93,238.71 2713.34,231.02 Z
           M 2395.33,423.04
           C 2401.97,420.89 2408.65,427.19 2407.16,431.85
             2404.67,439.61 2389.06,430.30 2395.33,423.04 Z
           M 2687.00,540.00
           C 2680.11,536.55 2680.26,531.54 2675.66,526.01
             2675.66,526.01 2662.10,512.91 2662.10,512.91
             2656.85,505.62 2658.79,492.55 2662.10,485.00
             2663.56,482.35 2665.59,478.50 2668.18,477.02
             2672.02,474.83 2683.52,477.12 2688.00,478.00
             2688.00,478.00 2717.00,484.08 2717.00,484.08
             2725.38,485.49 2734.17,485.78 2742.00,489.31
             2756.41,495.81 2770.86,508.25 2777.12,523.00
             2779.08,527.62 2779.67,531.64 2776.49,535.91
             2774.96,537.97 2771.88,540.09 2771.34,542.07
             2770.58,544.83 2773.53,547.11 2775.99,547.42
             2782.01,548.18 2784.11,537.21 2793.00,536.25
             2803.10,535.16 2804.85,546.27 2811.04,547.24
             2814.61,547.81 2817.82,545.18 2821.00,543.99
             2823.97,542.88 2826.21,543.18 2829.00,541.40
             2829.00,541.40 2845.00,527.00 2845.00,527.00
             2845.01,531.90 2847.31,542.97 2844.40,546.39
             2842.81,548.27 2834.62,552.66 2832.00,554.15
             2832.00,554.15 2807.00,568.66 2807.00,568.66
             2794.82,575.97 2794.02,573.81 2794.00,584.00
             2794.00,584.00 2794.00,615.00 2794.00,615.00
             2794.00,615.00 2793.00,632.00 2793.00,632.00
             2793.00,632.00 2793.00,787.00 2793.00,787.00
             2793.00,787.00 2829.00,787.00 2829.00,787.00
             2829.00,787.00 2845.00,788.00 2845.00,788.00
             2845.00,788.00 2872.00,788.00 2872.00,788.00
             2872.00,788.00 2870.91,803.00 2870.91,803.00
             2870.91,803.00 2867.91,847.00 2867.91,847.00
             2867.91,847.00 2862.09,927.00 2862.09,927.00
             2862.09,927.00 2859.17,970.00 2859.17,970.00
             2858.59,976.07 2859.95,980.21 2857.00,986.00
             2857.00,986.00 2834.02,952.00 2834.02,952.00
             2834.02,952.00 2795.02,895.00 2795.02,895.00
             2795.02,895.00 2684.28,733.00 2684.28,733.00
             2684.28,733.00 2635.67,662.00 2635.67,662.00
             2635.67,662.00 2614.00,629.00 2614.00,629.00
             2619.45,626.18 2634.21,619.40 2640.00,620.24
             2645.56,621.04 2647.16,625.09 2651.04,626.40
             2654.93,627.72 2657.66,625.11 2662.91,629.40
             2668.06,633.60 2671.80,642.30 2679.00,644.34
             2685.64,646.21 2687.49,640.36 2693.00,639.74
             2695.38,639.47 2703.32,641.22 2708.89,637.72
             2714.80,634.03 2711.60,628.86 2714.98,618.00
             2718.69,606.05 2721.86,608.16 2725.90,600.00
             2728.51,594.72 2727.26,584.94 2724.00,580.10
             2719.11,572.84 2711.53,576.29 2708.60,573.98
             2705.79,571.76 2708.39,566.90 2702.94,564.59
             2699.06,562.95 2686.05,561.33 2687.84,554.98
             2689.13,550.42 2696.32,545.76 2699.96,542.87
             2701.64,541.54 2704.88,539.24 2704.63,536.79
             2704.44,534.92 2701.65,532.31 2700.41,530.91
             2700.41,530.91 2695.96,526.02 2695.96,526.02
             2692.67,522.73 2691.57,521.74 2687.00,521.00
             2687.00,521.00 2687.00,540.00 2687.00,540.00 Z" />
  <path id="Dipolog"
        fill="none" stroke="black" stroke-width="1"
        d="M 2612.00,632.00
           C 2612.00,632.00 2631.72,660.00 2631.72,660.00
             2631.72,660.00 2672.28,719.00 2672.28,719.00
             2672.28,719.00 2686.73,740.00 2686.73,740.00
             2688.49,742.41 2691.60,745.69 2690.88,748.90
             2690.31,751.50 2684.17,755.89 2682.00,758.02
             2677.91,762.01 2672.30,770.43 2668.00,772.30
             2659.72,775.91 2651.52,773.51 2644.21,780.38
             2636.87,787.27 2638.39,799.21 2635.61,807.00
             2632.42,815.97 2617.67,832.12 2614.09,851.00
             2611.81,863.06 2612.85,872.94 2618.37,884.00
             2625.29,897.87 2632.97,902.66 2633.00,919.00
             2633.01,926.65 2632.80,934.47 2637.64,940.96
             2642.17,947.05 2652.11,951.44 2657.67,958.01
             2657.67,958.01 2678.00,989.58 2678.00,989.58
             2678.00,989.58 2693.40,1009.00 2693.40,1009.00
             2694.11,1010.94 2694.00,1013.91 2694.00,1016.00
             2694.00,1016.00 2694.00,1041.00 2694.00,1041.00
             2694.00,1041.00 2693.00,1058.00 2693.00,1058.00
             2693.00,1058.00 2693.00,1096.00 2693.00,1096.00
             2693.00,1096.00 2692.00,1111.00 2692.00,1111.00
             2692.00,1111.00 2692.00,1129.00 2692.00,1129.00
             2692.00,1129.00 2576.00,1129.00 2576.00,1129.00
             2576.00,1129.00 2580.69,1114.00 2580.69,1114.00
             2587.04,1095.80 2594.53,1077.16 2597.27,1058.00
             2599.01,1045.84 2599.21,1031.06 2593.10,1020.00
             2586.88,1008.75 2569.90,996.05 2560.00,987.16
             2553.92,981.71 2546.31,974.57 2545.19,966.00
             2544.32,959.40 2546.61,954.10 2548.67,948.00
             2552.01,938.08 2556.09,928.37 2557.92,918.00
             2559.35,909.83 2558.08,895.99 2561.30,890.04
             2564.05,884.96 2568.87,884.56 2572.90,881.37
             2577.79,877.47 2578.93,871.91 2579.00,866.00
             2579.07,860.00 2579.20,851.66 2573.89,847.70
             2569.94,844.75 2563.05,844.85 2557.04,840.36
             2551.71,836.39 2546.94,826.99 2543.78,821.00
             2542.43,818.44 2538.03,810.52 2538.23,808.00
             2538.45,805.27 2542.85,800.68 2544.54,798.00
             2548.19,792.19 2550.27,787.29 2555.17,782.04
             2560.25,776.59 2567.04,772.74 2570.54,765.98
             2577.06,753.39 2577.91,752.10 2581.11,738.00
             2581.11,738.00 2584.47,720.00 2584.47,720.00
             2587.40,711.09 2598.45,701.54 2599.30,692.00
             2599.74,687.11 2596.28,683.50 2595.62,679.00
             2595.00,674.77 2598.15,668.95 2599.85,665.00
             2604.26,654.73 2611.89,643.22 2612.00,632.00 Z" />
  <path id="Katipunan"
        fill="none" stroke="black" stroke-width="1"
        d="M 2454.00,819.92
           C 2475.18,822.79 2492.68,825.54 2514.00,819.92
             2526.72,816.45 2528.52,812.48 2536.00,810.00
             2540.60,818.71 2547.57,834.30 2554.29,840.67
             2561.60,847.62 2569.84,846.52 2573.52,849.88
             2576.52,852.62 2577.12,862.03 2576.96,866.00
             2576.79,870.20 2575.76,875.63 2572.72,878.73
             2568.76,882.76 2562.17,883.07 2558.97,890.02
             2556.15,896.11 2557.38,910.53 2555.33,920.00
             2555.33,920.00 2542.78,961.00 2542.78,961.00
             2541.93,971.67 2549.05,979.07 2556.00,986.00
             2565.30,995.27 2584.47,1008.96 2590.52,1019.00
             2592.88,1022.91 2593.85,1026.60 2594.79,1031.00
             2595.40,1033.88 2595.90,1036.03 2595.68,1039.00
             2594.98,1048.39 2595.46,1057.78 2593.35,1067.00
             2593.35,1067.00 2586.31,1092.00 2586.31,1092.00
             2586.31,1092.00 2574.00,1129.00 2574.00,1129.00
             2574.00,1129.00 2359.00,1129.00 2359.00,1129.00
             2359.00,1129.00 2383.00,1092.00 2383.00,1092.00
             2383.00,1092.00 2420.34,1035.00 2420.34,1035.00
             2420.34,1035.00 2440.00,1005.00 2440.00,1005.00
             2444.29,998.56 2448.86,993.99 2449.00,986.00
             2449.00,986.00 2449.00,967.00 2449.00,967.00
             2449.00,967.00 2450.00,952.00 2450.00,952.00
             2450.00,952.00 2450.00,935.00 2450.00,935.00
             2450.00,935.00 2450.96,923.00 2450.96,923.00
             2450.96,923.00 2450.96,909.00 2450.96,909.00
             2450.96,909.00 2452.00,892.00 2452.00,892.00
             2452.00,892.00 2452.00,867.00 2452.00,867.00
             2452.00,867.00 2453.00,850.00 2453.00,850.00
             2453.00,850.00 2454.00,819.92 2454.00,819.92 Z" />
  <path id="Manukan"
        fill="none" stroke="black" stroke-width="1"
        d="M 2316.00,1158.00
           C 2300.55,1157.29 2281.17,1148.36 2269.00,1139.10
             2263.50,1134.92 2257.55,1129.78 2255.44,1123.00
             2253.77,1117.62 2252.55,1101.37 2252.09,1095.00
             2251.59,1088.14 2251.69,1082.23 2245.95,1077.27
             2240.89,1072.92 2230.52,1072.03 2224.00,1072.00
             2211.91,1071.94 2186.66,1071.65 2178.99,1060.82
             2176.24,1056.93 2176.02,1052.56 2176.00,1048.00
             2176.00,1048.00 2176.00,1039.00 2176.00,1039.00
             2176.00,1039.00 2179.79,994.00 2179.79,994.00
             2179.28,990.66 2176.61,984.96 2174.54,982.28
             2167.21,972.79 2156.55,964.33 2151.44,954.00
             2148.30,947.67 2146.80,940.70 2144.66,934.00
             2139.56,918.06 2134.77,901.73 2126.69,887.00
             2122.83,879.98 2116.92,871.34 2111.99,865.00
             2109.43,861.72 2105.54,858.42 2107.48,854.00
             2107.48,854.00 2114.33,844.00 2114.33,844.00
             2119.53,836.28 2124.77,826.73 2133.00,821.95
             2142.19,816.62 2161.23,814.78 2172.00,813.92
             2172.00,813.92 2197.00,812.00 2197.00,812.00
             2197.00,812.00 2213.00,812.00 2213.00,812.00
             2213.00,812.00 2228.00,811.00 2228.00,811.00
             2228.00,811.00 2251.00,811.00 2251.00,811.00
             2255.90,810.99 2258.54,811.15 2263.00,808.64
             2267.38,806.17 2269.99,802.42 2275.00,801.26
             2281.00,799.88 2286.97,800.32 2293.00,799.91
             2293.00,799.91 2337.00,796.00 2337.00,796.00
             2337.00,796.00 2334.44,809.00 2334.44,809.00
             2334.44,809.00 2332.94,820.00 2332.94,820.00
             2331.61,824.95 2329.25,826.43 2328.34,831.00
             2326.94,838.00 2328.20,846.41 2324.70,852.96
             2321.89,858.23 2315.27,860.92 2311.42,865.30
             2308.63,868.45 2302.30,884.98 2300.15,890.00
             2298.94,892.81 2295.53,900.34 2295.29,903.00
             2294.89,907.51 2302.14,919.68 2304.58,924.00
             2304.58,924.00 2316.30,946.00 2316.30,946.00
             2321.54,955.54 2325.98,960.78 2326.00,972.00
             2326.00,972.00 2326.00,1129.00 2326.00,1129.00
             2326.00,1129.00 2316.00,1129.00 2316.00,1129.00
             2316.00,1129.00 2316.00,1158.00 2316.00,1158.00 Z" />
  <path id="Pres. Manuel A. Roxas"
        fill="none" stroke="black" stroke-width="1"
        d="M 2328.00,1129.00
           C 2328.00,1129.00 2328.00,970.00 2328.00,970.00
             2327.88,961.29 2322.60,953.40 2318.42,946.00
             2318.42,946.00 2304.75,920.00 2304.75,920.00
             2302.81,916.11 2297.08,906.85 2297.49,903.00
             2297.69,901.19 2298.86,898.72 2299.58,897.00
             2299.58,897.00 2312.65,867.17 2312.65,867.17
             2317.02,861.54 2325.17,858.97 2327.66,852.00
             2327.66,852.00 2332.30,829.00 2332.30,829.00
             2333.35,824.97 2335.79,823.50 2336.34,820.00
             2336.34,820.00 2336.34,812.00 2336.34,812.00
             2336.34,809.69 2338.33,799.11 2339.40,797.43
             2340.94,795.03 2343.48,795.17 2346.00,794.94
             2352.38,794.04 2358.69,793.24 2365.00,794.94
             2365.00,794.94 2390.00,805.19 2390.00,805.19
             2390.00,805.19 2411.00,811.91 2411.00,811.91
             2411.00,811.91 2418.00,813.00 2418.00,813.00
             2426.20,814.85 2421.63,815.10 2433.04,816.48
             2436.20,816.86 2448.27,818.39 2449.98,820.59
             2451.24,822.21 2451.00,825.99 2451.00,828.00
             2451.00,828.00 2451.00,842.00 2451.00,842.00
             2451.00,842.00 2450.00,857.00 2450.00,857.00
             2450.00,857.00 2450.00,893.00 2450.00,893.00
             2450.00,893.00 2448.00,925.00 2448.00,925.00
             2448.00,925.00 2447.00,976.00 2447.00,976.00
             2446.99,979.73 2446.41,988.67 2445.31,992.00
             2443.55,997.29 2432.50,1012.37 2428.86,1018.00
             2428.86,1018.00 2416.46,1038.00 2416.46,1038.00
             2416.46,1038.00 2395.66,1069.00 2395.66,1069.00
             2395.66,1069.00 2366.00,1114.00 2366.00,1114.00
             2363.74,1117.39 2358.20,1126.98 2354.82,1128.40
             2353.24,1129.06 2350.72,1128.99 2349.00,1129.00
             2349.00,1129.00 2328.00,1129.00 2328.00,1129.00 Z" />
  <path id="Jose Dalman"
        fill="none" stroke="black" stroke-width="1"
        d="M 2004.00,990.00
           C 2012.64,986.28 2030.29,977.74 2037.00,971.82
             2044.99,964.76 2049.29,957.14 2054.30,948.00
             2059.72,938.14 2061.94,934.69 2062.00,923.00
             2062.04,914.56 2061.14,899.50 2063.60,892.00
             2068.50,877.04 2079.39,872.93 2092.00,866.22
             2096.89,863.61 2099.71,860.75 2105.00,859.00
             2115.40,873.98 2124.55,884.51 2131.55,902.00
             2131.55,902.00 2149.91,957.00 2149.91,957.00
             2156.12,969.84 2171.75,975.26 2176.21,989.00
             2178.75,996.63 2177.02,1006.03 2176.21,1014.00
             2176.21,1014.00 2173.74,1047.00 2173.74,1047.00
             2173.40,1056.48 2175.57,1062.43 2184.00,1067.52
             2187.29,1069.51 2191.29,1070.87 2195.00,1071.84
             2198.93,1072.88 2207.89,1073.95 2212.00,1074.00
             2220.63,1074.10 2240.64,1073.31 2246.30,1080.33
             2249.80,1084.66 2249.80,1092.68 2250.04,1098.00
             2250.32,1104.32 2251.82,1120.78 2254.42,1126.00
             2257.60,1132.36 2263.39,1137.35 2269.00,1141.52
             2281.67,1150.95 2299.98,1159.65 2316.04,1160.00
             2316.04,1160.00 2316.04,1173.00 2316.04,1173.00
             2316.04,1173.00 2317.00,1184.00 2317.00,1184.00
             2317.00,1184.00 2164.00,1164.15 2164.00,1164.15
             2164.00,1164.15 2118.00,1158.27 2118.00,1158.27
             2114.15,1157.72 2100.58,1156.34 2098.04,1154.98
             2094.97,1153.34 2092.00,1148.81 2089.87,1146.00
             2075.40,1126.90 2081.48,1128.17 2072.40,1110.00
             2072.40,1110.00 2049.26,1066.00 2049.26,1066.00
             2049.26,1066.00 2031.54,1032.00 2031.54,1032.00
             2031.54,1032.00 2012.33,1004.00 2012.33,1004.00
             2009.32,999.49 2005.72,995.18 2004.00,990.00 Z" />
  <path id="Sindangan"
        fill="none" stroke="black" stroke-width="1"
        d="M 2002.00,994.00
           C 2006.33,998.02 2017.65,1015.11 2021.66,1021.00
             2021.66,1021.00 2031.66,1036.00 2031.66,1036.00
             2031.66,1036.00 2041.25,1055.00 2041.25,1055.00
             2041.25,1055.00 2048.75,1069.00 2048.75,1069.00
             2048.75,1069.00 2059.82,1092.00 2059.82,1092.00
             2059.82,1092.00 2069.06,1109.00 2069.06,1109.00
             2069.06,1109.00 2075.71,1127.00 2075.71,1127.00
             2079.54,1135.66 2082.49,1139.62 2088.12,1147.00
             2090.43,1150.03 2093.79,1155.21 2097.04,1156.99
             2099.70,1158.45 2116.78,1160.44 2121.00,1161.00
             2121.00,1161.00 2121.00,1178.00 2121.00,1178.00
             2121.00,1178.00 2122.00,1194.00 2122.00,1194.00
             2122.00,1194.00 2122.00,1231.00 2122.00,1231.00
             2122.00,1231.00 2123.00,1248.00 2123.00,1248.00
             2123.00,1248.00 2123.00,1286.00 2123.00,1286.00
             2123.00,1286.00 2125.01,1299.58 2125.01,1299.58
             2125.01,1299.58 2132.00,1303.42 2132.00,1303.42
             2132.00,1303.42 2149.00,1309.42 2149.00,1309.42
             2149.00,1309.42 2203.00,1328.34 2203.00,1328.34
             2203.00,1328.34 2234.00,1339.00 2234.00,1339.00
             2234.00,1339.00 2223.88,1385.00 2223.88,1385.00
             2223.88,1385.00 2218.07,1407.00 2218.07,1407.00
             2218.07,1407.00 2196.00,1430.00 2196.00,1430.00
             2196.00,1430.00 2150.00,1476.00 2150.00,1476.00
             2150.00,1476.00 2120.00,1506.00 2120.00,1506.00
             2120.00,1506.00 2104.00,1521.19 2104.00,1521.19
             2104.00,1521.19 2088.00,1528.00 2088.00,1528.00
             2088.00,1528.00 2058.80,1491.00 2058.80,1491.00
             2058.80,1491.00 2001.80,1420.00 2001.80,1420.00
             2001.80,1420.00 1978.60,1391.00 1978.60,1391.00
             1978.60,1391.00 1967.84,1377.00 1967.84,1377.00
             1966.38,1373.51 1968.70,1371.39 1971.02,1369.04
             1974.62,1365.40 1981.09,1360.04 1985.72,1357.86
             1985.72,1357.86 2008.00,1348.87 2008.00,1348.87
             2018.69,1342.08 2024.97,1325.46 2024.54,1313.00
             2024.54,1313.00 2020.04,1286.00 2020.04,1286.00
             2019.89,1281.08 2022.15,1274.60 2019.07,1270.39
             2017.06,1267.65 2010.28,1265.55 2007.00,1264.15
             1997.61,1260.15 1992.59,1257.83 1984.00,1251.97
             1976.29,1246.71 1964.29,1237.76 1958.17,1231.00
             1948.57,1220.38 1940.73,1203.57 1936.08,1190.00
             1932.95,1180.87 1930.04,1164.51 1939.10,1157.85
             1946.10,1152.71 1961.40,1154.10 1970.00,1154.00
             1991.99,1153.74 2011.04,1142.45 2009.49,1118.00
             2009.49,1118.00 2008.72,1105.00 2008.72,1105.00
             2005.90,1081.49 1997.10,1042.52 1997.00,1021.00
             1996.96,1011.42 1997.30,1002.59 2002.00,994.00 Z" />
  <path id="Siayan"
        fill="none" stroke="black" stroke-width="1"
        d="M 2123.00,1161.00
           C 2123.00,1161.00 2170.00,1167.15 2170.00,1167.15
             2170.00,1167.15 2241.00,1176.28 2241.00,1176.28
             2241.00,1176.28 2294.00,1183.15 2294.00,1183.15
             2294.00,1183.15 2319.00,1186.00 2319.00,1186.00
             2319.00,1186.00 2338.00,1187.00 2338.00,1187.00
             2338.00,1187.00 2365.00,1187.00 2365.00,1187.00
             2367.23,1187.02 2369.82,1186.89 2371.82,1188.02
             2374.84,1189.74 2381.73,1200.53 2382.79,1204.00
             2383.20,1206.49 2383.03,1215.91 2382.79,1219.00
             2382.79,1219.00 2382.00,1232.00 2382.00,1232.00
             2382.00,1232.00 2382.00,1254.00 2382.00,1254.00
             2381.98,1266.05 2374.92,1282.24 2371.00,1294.00
             2371.00,1294.00 2359.00,1293.00 2359.00,1293.00
             2357.72,1308.23 2346.03,1333.73 2345.87,1350.00
             2345.87,1350.00 2345.87,1508.00 2345.87,1508.00
             2346.00,1510.19 2346.07,1512.88 2345.87,1515.00
             2345.87,1515.00 2335.25,1538.00 2335.25,1538.00
             2335.25,1538.00 2313.74,1583.00 2313.74,1583.00
             2308.93,1592.93 2304.02,1598.70 2304.00,1610.00
             2304.00,1610.00 2304.00,1636.00 2304.00,1636.00
             2304.00,1636.00 2303.00,1653.00 2303.00,1653.00
             2303.00,1653.00 2303.00,1694.00 2303.00,1694.00
             2303.00,1694.00 2226.00,1686.83 2226.00,1686.83
             2226.00,1686.83 2203.00,1684.72 2203.00,1684.72
             2199.16,1684.26 2189.44,1683.15 2186.00,1683.70
             2186.00,1683.70 2162.00,1689.63 2162.00,1689.63
             2156.89,1690.90 2150.38,1692.04 2146.00,1694.84
             2146.00,1694.84 2130.00,1707.12 2130.00,1707.12
             2128.12,1708.54 2124.65,1711.50 2122.17,1711.10
             2120.01,1710.76 2112.09,1701.14 2110.17,1699.00
             2105.21,1693.48 2099.21,1686.40 2097.53,1679.00
             2093.67,1662.07 2118.35,1640.23 2116.81,1622.00
             2115.96,1611.84 2107.64,1608.27 2102.88,1600.00
             2098.21,1591.88 2093.14,1577.27 2091.46,1568.00
             2091.46,1568.00 2090.57,1559.00 2090.57,1559.00
             2090.57,1559.00 2088.81,1547.00 2088.81,1547.00
             2088.94,1543.99 2087.82,1534.06 2088.81,1532.21
             2090.25,1528.31 2100.17,1525.72 2104.00,1523.59
             2109.08,1520.76 2120.27,1508.73 2125.00,1504.00
             2125.00,1504.00 2190.00,1439.00 2190.00,1439.00
             2190.00,1439.00 2210.00,1419.00 2210.00,1419.00
             2212.72,1416.28 2218.31,1411.07 2220.07,1408.00
             2221.52,1405.46 2223.10,1398.18 2223.87,1395.00
             2223.87,1395.00 2229.65,1370.00 2229.65,1370.00
             2229.65,1370.00 2234.13,1351.00 2234.13,1351.00
             2234.63,1348.94 2236.36,1342.78 2236.22,1341.05
             2235.92,1337.19 2232.07,1336.39 2229.00,1335.33
             2229.00,1335.33 2207.00,1327.66 2207.00,1327.66
             2207.00,1327.66 2145.00,1305.69 2145.00,1305.69
             2141.31,1304.38 2128.91,1301.03 2126.99,1298.35
             2125.75,1296.61 2126.00,1293.10 2126.00,1291.00
             2126.00,1291.00 2126.00,1285.00 2126.00,1285.00
             2126.00,1285.00 2125.00,1270.00 2125.00,1270.00
             2125.00,1270.00 2124.00,1179.00 2124.00,1179.00
             2124.00,1179.00 2123.00,1161.00 2123.00,1161.00 Z" />
  <path id="Bacungan"
        fill="none" stroke="black" stroke-width="1"
        d="M 1800.00,1444.00
           C 1807.84,1438.82 1817.98,1439.96 1827.00,1440.00
             1827.00,1440.00 1843.00,1441.00 1843.00,1441.00
             1853.73,1441.02 1865.51,1440.98 1876.00,1438.50
             1893.97,1434.25 1911.81,1421.65 1926.00,1410.20
             1935.68,1402.38 1945.19,1393.78 1954.00,1385.00
             1956.29,1382.72 1961.11,1376.74 1964.71,1378.17
             1967.04,1379.09 1974.76,1389.44 1976.80,1392.00
             1976.80,1392.00 2004.20,1426.00 2004.20,1426.00
             2004.20,1426.00 2060.20,1496.00 2060.20,1496.00
             2060.20,1496.00 2076.25,1516.00 2076.25,1516.00
             2078.68,1518.94 2083.83,1524.70 2085.15,1528.00
             2086.46,1531.28 2085.84,1536.35 2086.09,1540.00
             2086.09,1540.00 2088.63,1560.00 2088.63,1560.00
             2088.93,1565.30 2087.86,1567.78 2089.63,1574.00
             2090.91,1578.50 2099.24,1598.64 2101.64,1602.00
             2107.22,1609.84 2115.47,1613.60 2114.47,1625.00
             2112.86,1643.44 2092.23,1661.32 2095.33,1679.00
             2097.66,1692.30 2113.76,1702.87 2120.00,1715.00
             2120.00,1715.00 2083.00,1743.58 2083.00,1743.58
             2083.00,1743.58 2016.00,1795.42 2016.00,1795.42
             2016.00,1795.42 1986.00,1818.79 1986.00,1818.79
             1986.00,1818.79 1971.00,1829.43 1971.00,1829.43
             1971.00,1829.43 1952.00,1828.17 1952.00,1828.17
             1952.00,1828.17 1926.00,1825.83 1926.00,1825.83
             1926.00,1825.83 1906.00,1824.00 1906.00,1824.00
             1906.03,1789.62 1940.38,1772.05 1941.12,1740.00
             1941.22,1735.67 1940.97,1731.99 1939.08,1728.00
             1934.10,1717.47 1913.94,1704.66 1905.22,1692.00
             1896.31,1679.07 1899.67,1669.54 1884.00,1660.46
             1873.96,1654.65 1861.94,1654.87 1853.00,1651.05
             1845.74,1647.94 1834.86,1632.42 1832.87,1625.00
             1831.65,1620.46 1835.17,1617.69 1838.09,1614.83
             1843.62,1609.42 1848.36,1606.34 1847.91,1598.00
             1847.91,1598.00 1846.51,1580.00 1846.51,1580.00
             1846.51,1580.00 1842.97,1570.00 1842.97,1570.00
             1841.11,1563.90 1836.76,1540.91 1837.09,1535.00
             1837.43,1528.99 1840.12,1521.88 1838.35,1516.00
             1836.48,1509.78 1829.38,1503.43 1826.53,1497.00
             1826.53,1497.00 1817.87,1468.00 1817.87,1468.00
             1814.04,1460.02 1805.32,1451.94 1800.00,1444.00 Z" />
  <path id="Sergio Osmena Sr"
        fill="none" stroke="black" stroke-width="1"
        d="M 2318.00,1132.00
           C 2318.00,1132.00 2933.96,1132.00 2933.96,1132.00
             2933.96,1132.00 2933.96,1144.00 2933.96,1144.00
             2933.96,1144.00 2933.00,1155.00 2933.00,1155.00
             2933.00,1155.00 2933.00,1177.00 2933.00,1177.00
             2933.00,1177.00 2932.00,1194.00 2932.00,1194.00
             2932.00,1194.00 2932.00,1215.00 2932.00,1215.00
             2932.00,1215.00 2931.00,1231.00 2931.00,1231.00
             2931.00,1231.00 2931.00,1253.00 2931.00,1253.00
             2931.00,1253.00 2930.00,1269.00 2930.00,1269.00
             2930.00,1269.00 2930.00,1290.00 2930.00,1290.00
             2930.00,1290.00 2929.00,1306.00 2929.00,1306.00
             2929.00,1306.00 2929.00,1334.00 2929.00,1334.00
             2929.00,1334.00 2847.00,1334.00 2847.00,1334.00
             2847.00,1334.00 2832.00,1333.00 2832.00,1333.00
             2832.00,1333.00 2679.00,1333.00 2679.00,1333.00
             2679.00,1333.00 2664.00,1332.00 2664.00,1332.00
             2664.00,1332.00 2658.00,1332.00 2658.00,1332.00
             2658.00,1332.00 2658.00,1321.00 2658.00,1321.00
             2658.00,1321.00 2612.00,1307.75 2612.00,1307.75
             2612.00,1307.75 2576.00,1305.00 2576.00,1305.00
             2576.00,1305.00 2561.00,1304.00 2561.00,1304.00
             2561.00,1304.00 2520.00,1302.00 2520.00,1302.00
             2520.00,1302.00 2510.00,1301.04 2510.00,1301.04
             2510.00,1301.04 2502.00,1301.04 2502.00,1301.04
             2502.00,1301.04 2484.00,1300.00 2484.00,1300.00
             2484.00,1300.00 2474.00,1299.04 2474.00,1299.04
             2474.00,1299.04 2466.00,1299.04 2466.00,1299.04
             2466.00,1299.04 2448.00,1298.00 2448.00,1298.00
             2448.00,1298.00 2431.00,1297.00 2431.00,1297.00
             2431.00,1297.00 2416.00,1296.00 2416.00,1296.00
             2416.00,1296.00 2374.00,1294.00 2374.00,1294.00
             2376.11,1280.36 2383.98,1269.44 2384.04,1255.00
             2384.04,1255.00 2384.04,1241.00 2384.04,1241.00
             2384.04,1241.00 2385.00,1230.00 2385.00,1230.00
             2385.00,1230.00 2385.00,1208.00 2385.00,1208.00
             2384.96,1205.79 2384.96,1204.12 2384.16,1202.00
             2383.05,1199.07 2375.12,1186.49 2372.68,1185.02
             2370.61,1183.78 2367.36,1184.00 2365.00,1184.00
             2365.00,1184.00 2319.00,1184.00 2319.00,1184.00
             2319.00,1184.00 2318.00,1132.00 2318.00,1132.00 Z" />
  <path id="Godod"
        fill="none" stroke="black" stroke-width="1"
        d="M 1576.00,1684.00
           C 1572.97,1682.20 1571.54,1680.22 1570.04,1677.00
             1564.56,1665.22 1572.18,1650.83 1578.75,1641.00
             1580.27,1638.72 1584.15,1633.06 1586.18,1631.60
             1588.81,1629.71 1591.93,1630.01 1595.00,1630.00
             1595.00,1630.00 1620.00,1630.00 1620.00,1630.00
             1620.00,1630.00 1633.00,1629.00 1633.00,1629.00
             1633.00,1629.00 1657.00,1629.00 1657.00,1629.00
             1657.00,1629.00 1674.00,1628.00 1674.00,1628.00
             1674.00,1628.00 1697.00,1628.00 1697.00,1628.00
             1697.00,1628.00 1714.00,1627.00 1714.00,1627.00
             1714.00,1627.00 1816.00,1624.81 1816.00,1624.81
             1816.00,1624.81 1828.61,1624.81 1828.61,1624.81
             1830.89,1625.54 1833.32,1630.79 1834.58,1633.00
             1837.93,1638.84 1841.69,1645.34 1847.01,1649.61
             1857.83,1658.30 1873.72,1655.15 1887.00,1664.79
             1896.26,1671.51 1896.79,1684.40 1904.29,1694.00
             1910.84,1702.38 1917.20,1707.80 1925.00,1714.83
             1930.39,1719.69 1935.43,1723.74 1937.78,1731.00
             1941.97,1743.97 1935.47,1758.17 1928.68,1769.00
             1920.97,1781.30 1906.98,1800.06 1904.23,1814.00
             1903.87,1817.30 1904.00,1820.66 1904.23,1824.00
             1904.23,1824.00 1896.00,1822.22 1896.00,1822.22
             1896.00,1822.22 1829.00,1795.69 1829.00,1795.69
             1829.00,1795.69 1758.00,1777.13 1758.00,1777.13
             1744.53,1773.76 1720.84,1766.02 1708.00,1766.00
             1708.00,1766.00 1670.00,1766.00 1670.00,1766.00
             1670.00,1766.00 1653.00,1765.00 1653.00,1765.00
             1653.00,1765.00 1621.00,1765.00 1621.00,1765.00
             1621.00,1765.00 1584.00,1770.00 1584.00,1770.00
             1584.00,1770.00 1578.26,1747.00 1578.26,1747.00
             1576.05,1735.13 1575.86,1724.98 1576.00,1713.00
             1576.09,1705.75 1579.35,1691.91 1575.00,1686.00
             1575.00,1686.00 1576.00,1684.00 1576.00,1684.00 Z" />
  <path id="Tampilisan"
        fill="none" stroke="black" stroke-width="1"
        d="M 1447.00,1634.00
           C 1447.00,1634.00 1461.00,1634.00 1461.00,1634.00
             1461.00,1634.00 1476.00,1633.00 1476.00,1633.00
             1476.00,1633.00 1499.00,1633.00 1499.00,1633.00
             1499.00,1633.00 1516.00,1632.00 1516.00,1632.00
             1516.00,1632.00 1538.00,1632.00 1538.00,1632.00
             1538.00,1632.00 1555.00,1631.00 1555.00,1631.00
             1555.00,1631.00 1583.00,1631.00 1583.00,1631.00
             1578.18,1639.38 1565.67,1656.65 1564.34,1666.00
             1563.15,1674.34 1568.71,1678.13 1571.72,1684.04
             1573.55,1687.62 1574.51,1694.87 1574.82,1699.00
             1574.82,1699.00 1574.00,1711.00 1574.00,1711.00
             1574.00,1711.00 1574.00,1728.00 1574.00,1728.00
             1574.02,1738.13 1576.30,1749.21 1578.88,1759.00
             1578.88,1759.00 1582.00,1771.00 1582.00,1771.00
             1582.00,1771.00 1540.00,1778.75 1540.00,1778.75
             1540.00,1778.75 1512.00,1784.09 1512.00,1784.09
             1512.00,1784.09 1477.00,1799.14 1477.00,1799.14
             1477.00,1799.14 1418.00,1825.00 1418.00,1825.00
             1418.00,1825.00 1419.00,1805.00 1419.00,1805.00
             1419.00,1805.00 1419.00,1762.00 1419.00,1762.00
             1419.00,1759.91 1418.89,1756.94 1419.60,1755.00
             1422.02,1748.43 1440.08,1736.82 1444.40,1730.00
             1446.61,1726.52 1445.96,1721.96 1446.00,1718.00
             1446.00,1718.00 1446.87,1704.00 1446.87,1704.00
             1446.87,1704.00 1446.87,1688.00 1446.87,1688.00
             1446.87,1688.00 1447.96,1671.00 1447.96,1671.00
             1447.96,1671.00 1447.00,1652.00 1447.00,1652.00
             1447.00,1652.00 1447.00,1634.00 1447.00,1634.00 Z" />
  <path id="Liloy"
        fill="none" stroke="black" stroke-width="1"
        d="M 1410.00,1506.00
           C 1410.00,1506.00 1440.61,1454.04 1440.61,1454.04
             1446.31,1446.81 1456.32,1446.18 1461.58,1439.90
             1467.01,1433.42 1467.38,1418.08 1471.43,1414.60
             1474.07,1412.32 1483.44,1411.87 1487.00,1412.02
             1496.87,1412.42 1499.32,1422.01 1501.57,1430.00
             1506.80,1448.53 1506.71,1465.81 1523.00,1479.79
             1532.10,1487.60 1540.98,1485.98 1552.00,1486.00
             1552.00,1486.00 1569.00,1487.00 1569.00,1487.00
             1569.00,1487.00 1619.00,1487.00 1619.00,1487.00
             1617.74,1495.18 1612.70,1507.18 1609.42,1515.00
             1604.05,1527.81 1596.95,1545.63 1594.01,1559.00
             1594.01,1559.00 1587.15,1604.00 1587.15,1604.00
             1587.15,1604.00 1584.26,1625.71 1584.26,1625.71
             1582.64,1628.88 1569.60,1628.99 1566.00,1629.00
             1566.00,1629.00 1464.00,1631.00 1464.00,1631.00
             1464.00,1631.00 1449.00,1632.00 1449.00,1632.00
             1449.00,1632.00 1432.00,1632.00 1432.00,1632.00
             1432.00,1632.00 1431.00,1612.00 1431.00,1612.00
             1431.00,1612.00 1431.00,1593.00 1431.00,1593.00
             1431.00,1593.00 1430.46,1580.00 1430.46,1580.00
             1431.33,1570.73 1436.48,1548.62 1434.32,1541.00
             1433.06,1536.56 1429.31,1526.47 1426.61,1523.00
             1421.60,1516.57 1415.90,1514.25 1410.00,1506.00 Z" />
  <path id="Kalawit"
        fill="none" stroke="black" stroke-width="1"
        d="M 1427.00,1581.00
           C 1427.00,1581.00 1428.28,1593.00 1428.28,1593.00
             1428.28,1593.00 1429.00,1621.00 1429.00,1621.00
             1429.00,1621.00 1430.00,1634.00 1430.00,1634.00
             1430.00,1634.00 1445.00,1634.00 1445.00,1634.00
             1445.00,1634.00 1445.00,1655.00 1445.00,1655.00
             1445.00,1655.00 1444.00,1671.00 1444.00,1671.00
             1444.00,1671.00 1444.00,1721.00 1444.00,1721.00
             1444.00,1722.99 1444.12,1726.10 1443.40,1727.91
             1442.39,1730.47 1439.05,1733.12 1437.00,1735.00
             1437.00,1735.00 1418.60,1752.04 1418.60,1752.04
             1415.86,1756.19 1417.01,1772.34 1417.00,1778.00
             1417.00,1778.00 1416.00,1794.00 1416.00,1794.00
             1416.00,1794.00 1416.00,1818.00 1416.00,1818.00
             1416.00,1820.10 1416.25,1823.61 1415.01,1825.35
             1413.75,1827.12 1410.01,1828.40 1408.00,1829.30
             1408.00,1829.30 1391.00,1836.77 1391.00,1836.77
             1391.00,1836.77 1332.00,1862.70 1332.00,1862.70
             1332.00,1862.70 1310.00,1872.68 1310.00,1872.68
             1310.00,1872.68 1286.00,1893.83 1286.00,1893.83
             1286.00,1893.83 1235.00,1939.83 1235.00,1939.83
             1235.00,1939.83 1179.00,1981.15 1179.00,1981.15
             1179.00,1981.15 1145.00,2012.37 1145.00,2012.37
             1145.00,2012.37 1122.00,2023.31 1122.00,2023.31
             1122.00,2023.31 1076.00,2044.00 1076.00,2044.00
             1076.00,2044.00 1080.58,1983.00 1080.58,1983.00
             1081.41,1977.30 1083.55,1963.73 1086.28,1959.10
             1089.89,1952.96 1098.27,1953.46 1108.00,1946.24
             1124.35,1934.11 1131.97,1917.99 1132.00,1898.00
             1132.00,1898.00 1132.00,1877.00 1132.00,1877.00
             1132.00,1877.00 1131.00,1862.00 1131.00,1862.00
             1131.00,1862.00 1132.75,1840.00 1132.75,1840.00
             1133.96,1832.59 1135.34,1825.15 1137.67,1818.00
             1139.07,1813.70 1142.19,1806.30 1141.63,1802.00
             1140.26,1791.45 1122.54,1778.70 1116.53,1768.00
             1111.56,1759.16 1113.00,1736.76 1113.00,1726.00
             1113.00,1726.00 1135.00,1724.00 1135.00,1724.00
             1135.00,1724.00 1183.00,1724.00 1183.00,1724.00
             1183.00,1724.00 1199.00,1725.04 1199.00,1725.04
             1199.00,1725.04 1213.00,1725.04 1213.00,1725.04
             1213.00,1725.04 1225.00,1726.00 1225.00,1726.00
             1225.00,1726.00 1274.00,1726.00 1274.00,1726.00
             1284.15,1725.88 1308.97,1723.04 1317.00,1717.35
             1330.89,1707.52 1330.78,1678.25 1338.07,1666.00
             1341.07,1660.97 1345.70,1658.38 1350.00,1654.70
             1350.00,1654.70 1365.72,1639.00 1365.72,1639.00
             1371.23,1632.74 1379.16,1624.93 1383.13,1618.00
             1389.59,1606.70 1391.06,1596.27 1403.00,1587.57
             1410.33,1582.23 1416.03,1585.60 1427.00,1581.00 Z" />
  <path id="Labason"
        fill="none" stroke="black" stroke-width="1"
        d="M 1182.00,1562.00
           C 1192.21,1562.92 1208.65,1571.75 1223.00,1570.01
             1236.61,1568.37 1244.83,1553.09 1260.00,1548.96
             1278.25,1543.90 1313.83,1548.77 1334.00,1548.96
             1342.77,1549.11 1361.42,1552.49 1364.57,1541.00
             1366.83,1532.74 1359.55,1518.71 1365.43,1512.28
             1371.73,1505.39 1386.82,1508.90 1395.00,1508.97
             1397.92,1509.03 1406.10,1508.30 1408.00,1508.97
             1411.35,1510.07 1415.48,1514.49 1418.00,1517.00
             1420.10,1519.09 1423.87,1522.72 1425.49,1525.00
             1427.75,1528.16 1432.66,1541.14 1432.86,1545.00
             1432.86,1545.00 1430.73,1562.00 1430.73,1562.00
             1430.73,1562.00 1428.27,1576.75 1428.27,1576.75
             1426.47,1580.42 1420.56,1580.75 1417.00,1581.27
             1408.08,1582.57 1405.10,1582.60 1398.17,1589.29
             1386.71,1600.34 1382.26,1615.61 1372.71,1627.91
             1372.71,1627.91 1354.99,1647.72 1354.99,1647.72
             1354.99,1647.72 1338.39,1662.04 1338.39,1662.04
             1331.55,1670.37 1329.22,1689.27 1325.65,1700.00
             1323.86,1705.35 1321.61,1711.73 1316.91,1715.15
             1313.23,1717.82 1306.47,1719.49 1302.00,1720.40
             1292.80,1722.28 1279.35,1723.89 1270.00,1724.00
             1270.00,1724.00 1235.00,1724.00 1235.00,1724.00
             1235.00,1724.00 1220.00,1723.00 1220.00,1723.00
             1220.00,1723.00 1206.00,1723.00 1206.00,1723.00
             1206.00,1723.00 1190.00,1722.00 1190.00,1722.00
             1190.00,1722.00 1174.00,1722.00 1174.00,1722.00
             1174.00,1722.00 1158.00,1721.00 1158.00,1721.00
             1158.00,1721.00 1138.00,1722.00 1138.00,1722.00
             1123.72,1722.16 1126.81,1722.18 1113.00,1724.00
             1113.10,1713.04 1117.00,1707.50 1121.75,1698.00
             1121.75,1698.00 1133.74,1673.00 1133.74,1673.00
             1133.74,1673.00 1164.42,1603.00 1164.42,1603.00
             1164.42,1603.00 1182.00,1562.00 1182.00,1562.00 Z" />
  <path id="Salug"
        fill="none" stroke="black" stroke-width="1"
        d="M 1797.00,1446.00
           C 1803.48,1450.66 1814.13,1463.46 1816.91,1471.00
             1816.91,1471.00 1824.35,1497.00 1824.35,1497.00
             1828.07,1505.35 1835.32,1510.61 1836.66,1518.00
             1837.52,1522.79 1835.15,1529.03 1835.01,1535.00
             1834.87,1541.33 1836.33,1549.75 1837.66,1556.00
             1837.66,1556.00 1844.57,1589.00 1844.57,1589.00
             1845.04,1592.15 1846.35,1600.32 1845.40,1603.00
             1844.28,1606.14 1840.37,1609.62 1838.00,1612.00
             1836.26,1613.75 1830.18,1620.73 1828.63,1621.43
             1826.93,1622.19 1822.97,1621.99 1821.00,1622.00
             1821.00,1622.00 1805.00,1623.00 1805.00,1623.00
             1805.00,1623.00 1702.00,1625.00 1702.00,1625.00
             1702.00,1625.00 1685.00,1626.00 1685.00,1626.00
             1685.00,1626.00 1663.00,1626.00 1663.00,1626.00
             1663.00,1626.00 1646.00,1627.00 1646.00,1627.00
             1646.00,1627.00 1623.00,1627.00 1623.00,1627.00
             1623.00,1627.00 1608.00,1628.00 1608.00,1628.00
             1608.00,1628.00 1587.00,1628.00 1587.00,1628.00
             1587.00,1628.00 1589.85,1601.00 1589.85,1601.00
             1589.85,1601.00 1596.89,1556.00 1596.89,1556.00
             1599.91,1543.91 1605.93,1529.68 1610.60,1518.00
             1610.60,1518.00 1618.66,1497.00 1618.66,1497.00
             1619.65,1494.14 1620.86,1488.87 1623.42,1487.17
             1625.54,1485.76 1629.49,1486.00 1632.00,1486.00
             1632.00,1486.00 1643.00,1486.00 1643.00,1486.00
             1643.00,1486.00 1659.00,1485.00 1659.00,1485.00
             1659.00,1485.00 1703.00,1481.15 1703.00,1481.15
             1718.38,1479.32 1746.15,1475.85 1760.00,1470.54
             1774.66,1464.92 1785.88,1457.02 1797.00,1446.00 Z" />
  <path id="Gutalac"
        fill="none" stroke="black" stroke-width="1"
        d="M 757.00,1739.00
           C 761.66,1737.03 768.10,1734.64 771.91,1731.47
             771.91,1731.47 788.80,1711.00 788.80,1711.00
             794.35,1704.16 801.75,1697.47 809.00,1692.44
             822.24,1683.27 842.73,1686.51 851.96,1680.78
             860.02,1675.76 857.93,1666.18 867.02,1659.65
             872.41,1655.76 881.42,1655.37 888.00,1653.76
             894.76,1652.11 903.77,1647.96 910.00,1644.74
             910.00,1644.74 957.00,1614.47 957.00,1614.47
             968.45,1610.03 981.28,1613.40 993.00,1609.96
             1004.88,1606.47 1009.29,1599.16 1022.00,1599.00
             1028.44,1598.93 1043.67,1599.63 1049.00,1598.06
             1056.54,1595.84 1055.78,1591.90 1071.00,1587.88
             1071.00,1587.88 1110.00,1578.38 1110.00,1578.38
             1120.28,1573.91 1117.07,1568.01 1124.10,1563.35
             1131.36,1558.55 1147.35,1554.45 1156.00,1555.17
             1164.20,1555.86 1172.02,1558.20 1180.00,1560.00
             1178.64,1567.52 1167.97,1589.46 1164.28,1598.00
             1164.28,1598.00 1130.14,1676.00 1130.14,1676.00
             1130.14,1676.00 1111.79,1715.00 1111.79,1715.00
             1110.73,1718.72 1111.01,1723.13 1111.00,1727.00
             1111.00,1727.00 1110.00,1745.00 1110.00,1745.00
             1110.20,1762.31 1113.23,1768.08 1124.42,1781.00
             1129.44,1786.78 1140.77,1796.60 1139.58,1805.00
             1139.58,1805.00 1133.65,1824.00 1133.65,1824.00
             1129.72,1840.65 1128.92,1850.00 1129.00,1867.00
             1129.00,1867.00 1130.00,1882.00 1130.00,1882.00
             1130.06,1894.74 1130.78,1911.49 1124.87,1923.00
             1120.73,1931.06 1111.71,1941.86 1104.00,1946.52
             1097.96,1950.17 1089.95,1951.38 1085.42,1957.04
             1082.49,1960.70 1081.19,1967.39 1080.21,1972.00
             1078.32,1980.95 1076.11,1998.97 1076.00,2008.00
             1076.00,2008.00 1073.69,2042.89 1073.69,2042.89
             1072.75,2046.10 1068.28,2048.58 1065.00,2048.03
             1062.12,2047.54 1059.02,2044.00 1057.00,2042.00
             1057.00,2042.00 1043.00,2028.00 1043.00,2028.00
             1043.00,2028.00 986.00,1970.00 986.00,1970.00
             986.00,1970.00 883.00,1867.00 883.00,1867.00
             883.00,1867.00 871.99,1855.00 871.99,1855.00
             871.99,1855.00 835.00,1818.00 835.00,1818.00
             835.00,1818.00 784.00,1767.00 784.00,1767.00
             777.47,1760.47 761.63,1745.46 757.00,1739.00 Z" />
  <path id="Baliguian"
        fill="none" stroke="black" stroke-width="1"
        d="M 907.00,2241.00
           C 900.28,2238.88 884.76,2228.61 878.00,2224.42
             878.00,2224.42 826.00,2193.20 826.00,2193.20
             826.00,2193.20 652.00,2088.60 652.00,2088.60
             652.00,2088.60 594.00,2053.56 594.00,2053.56
             584.99,2047.72 577.87,2041.41 580.76,2030.00
             582.13,2024.58 586.67,2011.88 591.10,2008.72
             596.71,2004.72 604.34,2006.95 608.98,2005.11
             617.47,2001.74 615.09,1991.00 615.00,1984.00
             614.94,1978.32 614.60,1973.18 617.41,1968.00
             620.55,1962.23 625.50,1959.93 629.10,1952.00
             629.10,1952.00 634.46,1935.00 634.46,1935.00
             636.24,1930.78 641.94,1922.34 644.68,1918.00
             651.47,1907.24 658.94,1893.32 671.00,1887.90
             676.74,1885.33 681.91,1886.07 688.00,1886.00
             699.61,1885.86 705.47,1880.76 714.00,1873.56
             727.56,1862.12 742.77,1843.84 752.67,1829.00
             757.88,1821.17 763.75,1812.69 763.99,1803.00
             764.13,1797.17 763.60,1792.17 760.64,1787.00
             755.34,1777.76 746.41,1776.37 746.01,1760.00
             745.88,1754.29 745.78,1744.93 752.02,1742.23
             757.51,1739.86 768.22,1753.21 772.00,1757.00
             772.00,1757.00 784.01,1770.00 784.01,1770.00
             784.01,1770.00 827.00,1813.00 827.00,1813.00
             827.00,1813.00 911.00,1897.00 911.00,1897.00
             911.00,1897.00 922.01,1909.00 922.01,1909.00
             922.01,1909.00 980.00,1967.00 980.00,1967.00
             980.00,1967.00 1031.00,2018.00 1031.00,2018.00
             1039.91,2026.91 1055.06,2041.26 1062.00,2051.00
             1062.00,2051.00 1016.00,2071.69 1016.00,2071.69
             1016.00,2071.69 996.39,2081.39 996.39,2081.39
             996.39,2081.39 987.14,2097.00 987.14,2097.00
             987.14,2097.00 967.58,2132.00 967.58,2132.00
             967.58,2132.00 926.70,2205.00 926.70,2205.00
             926.70,2205.00 907.00,2241.00 907.00,2241.00 Z" />
  <path id="Siocon"
        fill="none" stroke="black" stroke-width="1"
        d="M 550.00,2046.00
           C 558.24,2042.57 561.92,2044.69 570.00,2043.83
             572.85,2043.52 576.33,2042.14 579.00,2043.19
             582.74,2044.66 587.87,2052.10 596.00,2057.19
             596.00,2057.19 649.00,2089.05 649.00,2089.05
             649.00,2089.05 744.00,2146.20 744.00,2146.20
             744.00,2146.20 905.00,2243.00 905.00,2243.00
             905.00,2243.00 864.00,2317.00 864.00,2317.00
             864.00,2317.00 852.85,2337.00 852.85,2337.00
             851.64,2339.12 849.33,2343.70 847.39,2345.01
             844.11,2347.22 834.16,2345.13 830.00,2345.01
             830.00,2345.01 779.00,2341.04 779.00,2341.04
             779.00,2341.04 728.00,2337.09 728.00,2337.09
             728.00,2337.09 632.00,2329.91 632.00,2329.91
             632.00,2329.91 578.00,2326.00 578.00,2326.00
             579.16,2319.54 578.34,2308.27 580.57,2304.00
             586.62,2292.43 597.97,2291.60 598.00,2276.00
             598.00,2276.00 598.00,2241.00 598.00,2241.00
             598.00,2241.00 597.00,2224.00 597.00,2224.00
             596.99,2218.30 597.39,2205.96 595.42,2201.00
             592.06,2192.56 582.58,2194.25 578.55,2183.00
             575.05,2173.26 581.19,2164.77 575.60,2154.00
             573.15,2149.28 568.00,2143.05 563.00,2141.01
             563.00,2141.01 547.00,2138.33 547.00,2138.33
             538.03,2136.37 526.19,2127.43 524.49,2118.00
             523.05,2110.03 529.28,2104.83 533.51,2099.00
             533.51,2099.00 544.04,2082.00 544.04,2082.00
             546.26,2078.88 549.81,2074.48 554.00,2074.37
             560.53,2074.19 564.63,2085.04 571.01,2089.34
             575.15,2092.12 579.95,2090.76 581.87,2085.99
             583.73,2081.35 577.13,2076.03 574.00,2073.46
             568.41,2068.87 556.23,2061.57 552.74,2056.00
             550.99,2053.22 550.80,2049.25 550.00,2046.00 Z" />
  <path id="Sirawai"
        fill="none" stroke="black" stroke-width="1"
        d="M 506.00,2531.00
           C 512.93,2527.73 522.93,2528.74 520.92,2521.04
             519.49,2515.56 512.65,2515.94 506.00,2511.61
             496.16,2505.20 493.12,2498.08 496.75,2487.00
             497.71,2484.06 499.78,2479.47 501.63,2477.04
             507.26,2469.67 521.51,2471.01 530.00,2471.00
             535.44,2470.99 542.75,2471.05 546.07,2465.89
             546.07,2465.89 550.76,2451.00 550.76,2451.00
             553.26,2444.75 557.07,2440.63 562.00,2436.17
             568.79,2430.03 584.19,2418.26 592.00,2413.60
             601.47,2407.96 611.24,2405.43 613.53,2393.00
             615.15,2384.21 609.43,2375.01 601.00,2372.02
             593.40,2369.32 591.57,2378.02 583.00,2377.86
             580.32,2377.82 577.53,2376.83 575.00,2376.00
             570.89,2374.64 567.43,2373.59 564.09,2370.66
             556.22,2363.75 551.58,2348.29 557.72,2339.01
             562.19,2332.27 566.71,2332.94 572.96,2330.76
             572.96,2330.76 579.17,2328.25 579.17,2328.25
             579.17,2328.25 601.00,2329.83 601.00,2329.83
             601.00,2329.83 628.00,2331.91 628.00,2331.91
             628.00,2331.91 771.00,2342.91 771.00,2342.91
             771.00,2342.91 822.00,2346.83 822.00,2346.83
             822.00,2346.83 846.00,2349.00 846.00,2349.00
             846.00,2349.00 809.27,2415.00 809.27,2415.00
             809.27,2415.00 801.14,2433.00 801.14,2433.00
             801.14,2433.00 789.12,2461.00 789.12,2461.00
             789.12,2461.00 779.00,2535.00 779.00,2535.00
             776.40,2554.04 778.04,2552.41 769.25,2570.00
             768.35,2571.80 766.20,2576.36 765.04,2577.72
             761.82,2581.32 753.29,2578.47 749.00,2577.72
             749.00,2577.72 704.00,2570.25 704.00,2570.25
             704.00,2570.25 567.00,2547.41 567.00,2547.41
             567.00,2547.41 520.00,2539.32 520.00,2539.32
             516.67,2538.15 508.86,2533.30 506.00,2531.00 Z" />
  <path id="Sibuco"
        fill="none" stroke="black" stroke-width="1"
        d="M 234.00,3078.00
           C 235.01,3032.00 274.20,2997.14 304.00,2967.00
             304.00,2967.00 324.01,2944.01 324.01,2944.01
             330.06,2937.97 347.55,2924.88 355.00,2920.09
             360.58,2916.50 366.54,2913.14 373.00,2911.48
             378.14,2910.16 385.52,2909.69 389.95,2906.92
             398.24,2901.72 393.09,2890.11 398.31,2884.21
             401.55,2880.56 409.34,2878.01 414.00,2876.59
             425.20,2873.16 442.38,2869.28 454.00,2869.01
             461.96,2868.83 468.07,2871.05 474.83,2865.32
             484.71,2856.94 489.30,2844.07 481.07,2833.01
             478.95,2830.16 476.31,2827.52 473.00,2826.09
             469.66,2824.64 465.59,2825.04 462.00,2825.00
             459.20,2824.96 456.70,2824.89 454.00,2824.01
             439.36,2819.26 439.09,2803.56 437.83,2791.00
             437.83,2791.00 435.70,2772.00 435.70,2772.00
             434.61,2764.64 430.48,2758.22 431.18,2751.00
             431.89,2743.60 436.27,2735.90 443.00,2732.45
             446.81,2730.50 451.56,2730.92 454.11,2726.87
             458.05,2720.60 448.96,2713.39 451.74,2706.01
             453.13,2702.34 461.08,2696.38 464.47,2692.00
             472.84,2681.19 474.85,2671.25 475.00,2658.00
             475.00,2658.00 475.92,2647.00 475.92,2647.00
             475.92,2647.00 475.00,2636.00 475.00,2636.00
             475.00,2636.00 473.09,2605.00 473.09,2605.00
             472.37,2592.22 486.92,2581.15 491.30,2569.00
             494.49,2560.17 495.13,2540.57 501.34,2535.37
             505.76,2531.66 513.67,2538.82 518.00,2540.79
             522.04,2542.64 530.30,2543.62 535.00,2544.41
             535.00,2544.41 564.00,2549.25 564.00,2549.25
             564.00,2549.25 695.00,2571.08 695.00,2571.08
             695.00,2571.08 762.00,2582.00 762.00,2582.00
             759.71,2590.02 747.27,2612.48 742.78,2621.00
             742.78,2621.00 711.22,2683.00 711.22,2683.00
             711.22,2683.00 698.75,2707.00 698.75,2707.00
             697.05,2710.42 693.11,2717.65 692.19,2721.00
             691.83,2723.60 692.03,2728.18 692.19,2731.00
             692.19,2731.00 691.04,2741.00 691.04,2741.00
             691.04,2741.00 691.04,2749.00 691.04,2749.00
             691.04,2749.00 690.00,2768.00 690.00,2768.00
             690.00,2768.00 689.04,2778.00 689.04,2778.00
             689.04,2778.00 689.04,2786.00 689.04,2786.00
             689.04,2786.00 688.00,2805.00 688.00,2805.00
             688.00,2805.00 687.00,2821.00 687.00,2821.00
             687.00,2821.00 686.00,2833.00 686.00,2833.00
             686.00,2833.00 686.00,2845.00 686.00,2845.00
             686.00,2845.00 685.00,2858.00 685.00,2858.00
             685.00,2858.00 684.00,2873.00 684.00,2873.00
             684.00,2873.00 684.00,2878.00 684.00,2878.00
             683.91,2885.51 680.74,2892.10 678.00,2899.00
             678.00,2899.00 668.05,2925.00 668.05,2925.00
             668.05,2925.00 654.01,2961.00 654.01,2961.00
             650.75,2966.24 639.19,2975.81 634.00,2981.00
             634.00,2981.00 613.00,3001.04 613.00,3001.04
             613.00,3001.04 588.00,3025.17 588.00,3025.17
             588.00,3025.17 569.00,3043.99 569.00,3043.99
             569.00,3043.99 549.00,3063.00 549.00,3063.00
             545.16,3066.84 536.87,3075.74 532.00,3077.42
             529.97,3078.11 527.16,3078.00 525.00,3078.00
             525.00,3078.00 234.00,3078.00 234.00,3078.00 Z" />
</svg>
